<?xml version="1.0" encoding="UTF-8"?>
<svg id="Layer_2" data-name="Layer 2" xmlns="http://www.w3.org/2000/svg" viewBox="0 0 209.24 385.06">
  <defs>
    <style>
      .cls-1 {
        fill: #2a8e72;
      }

      .cls-2 {
        fill: #3aa183;
      }

      .cls-3 {
        fill: #72d0b5;
      }

      .cls-4 {
        fill: #5bc1a2;
      }

      .cls-5 {
        fill: #67c5a8;
      }

      .cls-6 {
        fill: #88dec7;
      }

      .cls-7 {
        fill: #42a589;
      }

      .cls-8 {
        fill: #7dd6be;
      }

      .cls-9 {
        fill: #47a98e;
      }

      .cls-10 {
        fill: #77d3b9;
      }

      .cls-11 {
        fill: #288c6f;
      }

      .cls-12 {
        fill: #83dbc3;
      }

      .cls-13 {
        fill: #4aaa90;
      }

      .cls-14 {
        fill: #4dad93;
      }

      .cls-15 {
        fill: #68c9ac;
      }

      .cls-16 {
        fill: #50ae94;
      }

      .cls-17 {
        fill: #baebde;
      }

      .cls-18 {
        fill: #38997c;
      }

      .cls-19 {
        fill: #c7eee3;
      }

      .cls-20 {
        fill: #288d70;
      }

      .cls-21 {
        fill: #2d9075;
      }

      .cls-22 {
        fill: #288c70;
      }

      .cls-23 {
        fill: #62c6a8;
      }

      .cls-24 {
        fill: #b7eadc;
      }
    </style>
  </defs>
  <g id="Layer_1-2" data-name="Layer 1">
    <g>
      <path class="cls-11" d="M71.01,34.82c9.21,77.2,4.5,152.15,2.96,229.34,2.79,2.22,10.21,3.08,14.04,3.66-4.46,1.62-9.42.54-14,0l-.12,113.89c-15.79,3.98-32.63-8.95-40.41-21.88-5.12-8.51-7.44-19.09-12.66-27.34C14.53,322.55,1.5,313.24,0,300.32c-.3-55.17,9.21-111.4,13-166.5.28-.39.65-.68,1-1-.03,45.93-9.09,93.73-10.01,140.49-2.99,22.44-3.37,31.97,12.01,50.51,16.73,18.3,18.45,52.77,49,56,1.07.15,2.59,2.21,5.04.55,3.64-4.25,4.58-39.46,1.96-44.55-2.43-100.89,8.66-200.54-3.02-301.49l2.02.49Z"/>
      <path class="cls-20" d="M149.01.82c49.4,70.09,41.82,160.13,51.01,241.49,1.97,18.24,11.87,58.1,8.54,73.57-3.07,14.23-14.81,21.27-22.97,32.03-14.61,24.18-24.12,42.16-56.57,35.91.67-6.46-1.55-14.05.99-19.99l1.11,17.89c5.92,1.71,11.67,1.39,17.61.28,1.45-.27,3.73.74,3.28-2.17,2.16-1.74,4.63-.57,7.31-1.2,11.01-7.7,10.6-10.55,16.69-20.8,6.02-7.91,11.81-15.34,18-23,9.07-11.12,14.32-14.87,13.03-31.53-21.37-97.94-1.52-216.12-60.03-302.47.15-.05.2-.8.51-.82l1.49.82Z"/>
      <path class="cls-22" d="M128.01,335.82c.04,2.66.66,5.86-1,8l-4.99-74.01c-12.21-1.18-26.34,2.23-38.01-.99,8.56-1.95,20.12.16,29-1,1.61-.09,7.59.27,8.04-1.67-1.79-66.91-2.58-135.02.96-201.33.6,90.46-2.38,180.89,6,271Z"/>
      <path class="cls-18" d="M130.01,363.82c-1.74,2.18-.94,5.31-1,8l-2-28c1.66-2.14,1.04-5.34,1-8l2,28Z"/>
      <path class="cls-23" d="M48.01,14.82c4.3,1.42,9.48,2.48,14,3-4.19,26.18-16.06,52.59-17.99,79.53-.4,7.16,3.59-8.4,3.99-9.53,8.32,18.14.88,48.01,4,68.51,4.23,26.56,3.9,55.07,7.01,81.99,1.88,25.81-2.94,54.08,5.02,79.06.25,20.71-.6,41.73.97,62.45-8.58-1.2-15.6-4.98-22-11-6.2-79.13-5.81-161.9-13.93-240.56-6.24-36.78,4.18-79.08,18.93-113.44Z"/>
      <path class="cls-15" d="M75.01,19.82l-.93,11.46-2.99.6-.08,2.95-2.02-.49c12.03,112.95-.19,226.42,3.02,339.49-.39,4.57-1.87,9.5-7,6-4.79-96.4-7.75-196.92-17-292,1.29-11.12,15-57.5,18.04-68.95,3.07-.67,6.01.84,8.96.95Z"/>
      <path class="cls-4" d="M43.01,368.82c-25.99-23.62-6.22-62.46-18.99-71-3.7,6.32-3.64,22.61-8.01,26-1.69-2.32-3.35-4.65-5-7,2.18-73.02,5.27-146.73,16-219,8.1,89.18,10.17,181.43,16,271Z"/>
      <path class="cls-3" d="M102.01,17.82c-7.08,5.03-1.79,36.43-1.98,45.48,5.64,25.01,4.3,51.03,4.99,76.51l7.97.51c-.91,1.9-3.1,1.09-3.98,1.5-1.62-3.8-23.25,12.01-27.99,12.99,0-39-8.52-84.23-9.93-122.94l2.99-.6.93-11.46c9.79.39,17.47-.44,27-2Z"/>
      <path class="cls-3" d="M109.01,141.82c1.1,2.96-2.01,3.14-2.05,3.63-1.84,21.04,4.2,46.15,3.06,67.86l2.98,16.51,1.01-33.99c-.21,24.01-1.13,47.99-1,72-9.7.37-21.54,1.08-31-1l-1.03-108.48,1.63-2.42c9.33-3.49,17.56-10.02,26.4-14.1Z"/>
      <path class="cls-2" d="M48.01,14.82C12.26,110.49,17.02,216.26,11.01,316.82c-13.15-18.79-8.09-22.42-7.01-43.51.93-46.74,9.98-94.57,10.01-140.49.96-.89,3.51-1.34,3.73-2.43-3.86-39.51,10.64-81.84,21.28-119.57.92-.67,7.25,3.42,8.99,4Z"/>
      <path class="cls-7" d="M75.01,81.82c2.63,17.86,6.35,55.13,6.01,72.99,4.63-.94,26.51-16.85,27.99-12.99-8.83,4.09-17.06,10.62-26.4,14.1l-1.63,2.42,1.03,108.48c-1.46-.3-7.77-1.51-8.04-2.66.57-62.18,5.33-119.98,1.04-182.34Z"/>
      <path class="cls-2" d="M29.01,343.82c-4.58-9.68-7.27-12.12-13-20,4.4-3.46,4.31-19.67,8.01-26,8.41,1.35,2.69,38.01,4.99,46Z"/>
      <path class="cls-23" d="M72.01,325.82v-52c-.1,17.32,0,34.68,0,52Z"/>
      <path class="cls-23" d="M72.01,373.82v-38c1.65,1.05,1,3.79,1.02,5.48.13,10.02.96,23.12-1.02,32.52Z"/>
      <path class="cls-12" d="M138.01,5.82c13.19,5.65,22.26,32.18,27,45-3.21,4.66,1.8,13.35-3,17-.46-3.1-1.55-5.94-.99-9.34l-2.01-.66c-2.01-15.33-10.54-30.46-19.52-43.01-.76-1.07.26-2.62-2.48-1.98,6.64,14.51,17.14,30.87,14.07,47.35l.87,1.2,6.05.45c-2.66,15.85,3.36,23.99,5.68,38.82,3.02,19.23,2.55,40.36,8.32,59.18-7.13,11.26,1.26,31.19,1.03,44.55.58,41.14,5.44,84.26,3.97,124.45l-4.99-14.99,3.99,43.99c-5.44,8-5,13.57-15,19l-1.01-4-2.99.99c-1.18-95.67-13.48-192.3-14.11-288.38.1-1.18-2.61-6.97,2.1-4.61.16.4.65.73,1,1,.47,2.28.26,4.34,2.51,5.99-2.09-26.41-13.11-52.03-21.51-76.99,4.12-1.67,7.04-3.98,11-5Z"/>
      <path class="cls-16" d="M147.01.82c58.52,86.35,38.66,204.52,60.04,302.46,1.28,16.66-3.97,20.41-13.04,31.54-14.18-72.12-.97-282.07-56-329,2.83-1.43,5.78-3.88,9-5Z"/>
      <path class="cls-1" d="M41.01,3.82c-2.45,5.82,3.77,6.17,8,8,28.27,12.43,58.08,2.59,86-5-20.61,11.64-45.56,14.5-68.96,12.05l-15.04,53.95c2.5-10.76,5.41-21.75,7.88-32.62.73-3.23,2.47-8.3,1.12-11.38.41-1.55,2.41-10.59,2-11-4.53-.52-9.71-1.58-14-3-1.73-.57-8.06-4.67-8.99-4-9.47,30.01-18.63,65.78-22.01,97-.04-35.33,14.1-72.87,22.01-105.99,1.4-.37,1.12,1.53,1.99,1.99Z"/>
      <path class="cls-5" d="M90.01,15.82l1,1c-15.88,1.31-27.1,1.45-42-5v-5c13.21,6.09,25.98,13.19,41,9Z"/>
      <path class="cls-8" d="M145.01,80.82c-4.72-2.36-2,3.44-2.11,4.61.63,96.08,12.94,192.72,14.11,288.38l2.99-.99c2.41,6.48-.63,6.01-5.99,6-9.28-8.1-15.17-12.44-16.89-25.61-6.47-43.83-4.38-95.41-9.1-138.38,1.48,38.25.53,130.63,7.61,165.06,5.35-.43,11.12.4,16.38-.06.45,2.91-1.83,1.9-3.28,2.17-5.94,1.11-11.69,1.43-17.61-.28-10.68-122.57-10.13-246.05-9.11-368.89.3-.1.7.1,1,0,8.35,22.32,13.39,45.77,22,68Z"/>
      <path class="cls-6" d="M194.01,334.82c-3.77,4.62-7.44,9.21-11,14-2.89.6-1.83-1.43-2.28-3.16-1.47-5.55-3.37-11.04-3.72-16.84,1.47-40.2-3.39-83.31-3.97-124.45.23-13.35-8.16-33.28-1.03-44.55.15.48,1.24,1.09,1.01,1.99-1.75-28.7-7.3-63.86-11.01-93.99,4.8-3.65-.21-12.34,3-17,13.85,54.5,22.72,225.8,29,284Z"/>
      <path class="cls-24" d="M152.01,379.82c-5.27.46-11.04-.37-16.38.06-7.06-34.21-6.14-127.06-7.61-165.06,4.72,42.96,2.63,94.57,9.1,138.38,1.72,13.17,7.65,17.56,16.89,25.61-.63.1-1.48.95-2,1Z"/>
      <path class="cls-14" d="M177.01,328.82c.34,5.8,2.25,11.28,3.72,16.84.46,1.73-.61,3.76,2.28,3.16-2.18,2.93-4.79,5.75-7,9l-3.99-43.99,4.99,14.99Z"/>
      <path class="cls-9" d="M122.01,12.82c-1.69,83.94-3.68,168.76-.96,253.33-.45,1.94-6.43,1.57-8.04,1.67.11-84.75,3.91-169.34,7-254,.45-.13,1.17-.72,2-1Z"/>
      <path class="cls-20" d="M51.01,72.82c-.12,2.06-6.63,32.72-6.99,24.53,2.13-23.35,10.04-46.09,15.99-68.53,1.34,3.08-.39,8.15-1.12,11.38-2.47,10.87-5.38,21.86-7.88,32.62Z"/>
      <path class="cls-10" d="M120.01,13.82c-2.47,71.76-6.25,144.08-7.01,215.99l-2.98-16.51c1.14-21.71-4.9-46.82-3.06-67.86.04-.49,3.15-.67,2.05-3.63.88-.41,3.07.4,3.98-1.5l-7.97-.51c2.18-38.59-7.58-78.1-6.01-116.51-.44-8.45,15.02-6.29,21-9.48Z"/>
      <path class="cls-17" d="M159.01,57.82l2.01.66c3.26,33.37,10.3,71.4,12,103.33-7.32-18.84-5.96-41.35-9.33-61.17-2.33-14.83-8.34-22.96-5.68-38.82.19-1.12,1.69,1.22,1-4Z"/>
      <path class="cls-19" d="M158.01,61.82l-6.05-.45-.87-1.2c3.07-16.48-7.43-32.84-14.07-47.35,2.74-.64,1.71.91,2.48,1.98,6.37,8.03,23.81,38.63,18.52,47.01Z"/>
      <path class="cls-13" d="M129.01,16.82c-1.79.7-.15,3.11.26,4.23,6.91,19.15,12.65,40.96,16.74,60.77-10.29-21.63-14.04-46.57-23-69,1.35-.48,2.65-1.44,4-2,.59,2,1.27,4.05,2,6Z"/>
      <path class="cls-21" d="M129.01,16.82c8.17,22.78,17.52,46.8,19.51,70.99-2.24-1.65-2.03-3.72-2.51-5.99-4.09-19.81-9.83-41.62-16.74-60.77-.41-1.13-2.05-3.53-.26-4.23Z"/>
      <path class="cls-3" d="M114.01,169.82c0-8.1-.84-17.23,1-25-.12,8.14.93,17.2-1,25Z"/>
    </g>
  </g>
</svg>