<?xml version="1.0" encoding="UTF-8"?>
<svg id="Layer_2" data-name="Layer 2" xmlns="http://www.w3.org/2000/svg" viewBox="0 0 79.93 110.05">
  <defs>
    <style>
      .cls-1 {
        fill: #bcc9da;
      }

      .cls-2 {
        fill: #111212;
      }

      .cls-3 {
        fill: #9aabc2;
      }

      .cls-4 {
        fill: #bbc8da;
      }

      .cls-5 {
        fill: #0f0f0f;
      }

      .cls-6 {
        fill: #1c1c1d;
      }

      .cls-7 {
        fill: #fafcfd;
      }

      .cls-8 {
        fill: #bdc9da;
      }

      .cls-9 {
        fill: #f3f8fd;
      }
    </style>
  </defs>
  <g id="Layer_1-2" data-name="Layer 1">
    <g>
      <path class="cls-3" d="M3.04,72C-3.98,48.18,2.49,23.06,9.05,0l2,4c5.35-2.27,22.36-3.11,25.24,2.25,1.51,5.3,6.53,23.68,3.76,29.74,3.26.85,1.65-3.12,3.23-4.76,2.22-2.28,22.74-1.94,25.5,1.03,1.94,2.09,1.18,7.07,3.25,8.74.65-1.98-1.75-14.81,2-12,.02,24.03,12.57,45.01,1.01,68.01-1.32-2.71-3.02.86-4,2-9.34,3.78-28.57,8.28-35.73-.79l-1.27.79c-1.39-3.96-1.74-8-3-12-.25-.79.73-2.51-.64-3.04-9.78-1.79-23.44-2.77-26.37-14.44l-.99,2.48ZM33.79,6.24l-19.83-.8c-2.27,11.62-5.03,29.3-1.84,40.98,2.81,10.31,16.32,9.96,21.47.64,6.3-11.98,4.54-28.53.2-40.82ZM36.05,47.01c-2.61,11.43-21.5,13-25.5,1.98-2.72-9.65-2.68-24.16-1.51-34.43,0-1.19.77-3.77-.99-3.55C2.5,36.22-8.98,82.31,31.09,81.59c.43-5.25,8.64-32.99,4.96-34.58ZM65.04,82c9.8-3.19,6.1-41.97,2.47-47.97-2.5-3.05-19.7-2.53-22.59-1.45-5,19.41-15.8,65.92,20.12,49.42ZM40.04,99c6.37,3.62,20.25,2.47,27-.5,17.47-8.1,9.91-32,7.01-46.49-2.38,7.61.05,21.04-3.59,27.91-1.35,2.55-6.01,3.89-4.42,7.07-9.93-1.69-24.15,4.7-28-8.49,0,0,0-16.5,0-16.5-1.51-.24-1.25,1.87-1.5,2.99-2.16,9.51-6.43,28.36,3.5,34.01Z"/>
      <path class="cls-5" d="M75.04,97c-6.11,15.25-34.82,18.66-41,2l1.27-.79c3.58,4.56,9.13,6.02,14.73,5.8l-1,2.98c5.3.34,14.26-.11,18.68-3.31,1.48-.74,5.31-10.51,7.32-6.68Z"/>
      <path class="cls-2" d="M3.04,72l.99-2.48c3.88,16.81,29.34,10.2,27.01,17.48-12.69.31-24.03-1.53-28-15Z"/>
      <path class="cls-1" d="M33.79,6.24c4.34,12.29,6.09,28.84-.2,40.82-5.15,9.32-18.65,9.66-21.47-.64-3.19-11.68-.42-29.36,1.84-40.98l19.83.8Z"/>
      <path class="cls-8" d="M36.05,47.01c3.67,1.8-4.51,29.13-4.96,34.58C-8.98,82.31,2.5,36.22,8.05,11.01c1.76-.23.98,2.36.99,3.55-1.17,10.25-1.2,24.81,1.51,34.43,4,11.02,22.89,9.45,25.5-1.98Z"/>
      <path class="cls-1" d="M58.04,32c.05,16.84-3.78,31.54,4.17,47.38.72,1.44.46,3.14,2.83,2.62-35.92,16.51-25.12-30.01-20.12-49.42.69-1.02,11.02-.72,13.12-.58Z"/>
      <path class="cls-7" d="M40.04,99c-3.21-11.53,8.25-10.51,16-12,3.3.02,6.47-1.05,10,0-1.59-3.18,3.07-4.52,4.42-7.07,3.65-6.88,1.21-20.3,3.59-27.91,2.89,14.51,10.46,38.38-7.01,46.49-6.75,2.97-20.63,4.12-27,.5Z"/>
      <path class="cls-9" d="M58.04,32c2.67.18,7.59-.25,9.47,2.03,4.42,5.35,4.71,40.25.58,46.29-.81,1.18-2.03,1.11-3.05,1.69-2.37.52-2.1-1.19-2.83-2.62-7.96-15.83-4.12-30.53-4.17-47.38Z"/>
      <path class="cls-4" d="M56.04,87c-7.75,1.49-19.21.47-16,12-9.93-5.65-5.66-24.5-3.5-34.01.25-1.12,0-3.23,1.5-2.99.05,15.6-2.89,26.93,18,25Z"/>
      <path class="cls-6" d="M71.04,99c-3.53,8.25-14.37,8.27-22,7.99l1-2.98c-2.9.64-4.57-.31-7-1.01,9.91.42,18.88.27,28-4Z"/>
    </g>
  </g>
</svg>