<?xml version="1.0" encoding="UTF-8"?>
<svg id="Layer_2" data-name="Layer 2" xmlns="http://www.w3.org/2000/svg" viewBox="0 0 231.16 449.83">
  <defs>
    <style>
      .cls-1 {
        fill: #fefefe;
      }
    </style>
  </defs>
  <g id="Layer_1-2" data-name="Layer 1">
    <path class="cls-1" d="M203.16,240.2c8.83-4.42,18.16-6.07,28-5.01-.69-9-5.3-25.01-7.66-32.52.21-1.65,5.14-3.68,4.5-7.75s-5.47-5.09-6.19-7c-.82-2.17,1.3-3.45,1.39-5.31.14-3.02-.57-2.97-.03-8,.72-6.76-6.47-7.24-6.8-11.07,6.16-10.56,3.02-16.43,1.75-27.8-.93-18.96,5.51-56.6-2.4-72.59-12.88-26.75-58.75-17.31-70.77-44.23-2.83-5.49-3.6-13.92-9.29-16.71-1.01,8.95,1.65,11.85-8.28,14.71-8.8,2.53-31.29.35-36.08-8.35-2.06-3.75-.79-12.19-7.09-6.82-4.26,3.63.29,6.03.65,9.08.9,7.68-4.73,7.57-6.21,10.42-.52,1.01.68,2.88-.4,3.49-1.35.77-3.58.21-5.11.97-1.42.71-1.33,2.79-2.77,3.47-6.73,3.18-24.59,4.62-33.43,7.32C-6.97,49.86,13.9,90.5,11.2,124.73c-.77,9.72-5.69,16.3.8,25.82-10.55,7.77-3.81,8.8-.84,17.64l-10.87,1.13c-1.77,5.93,5.08,10.39,6.24,15.09.7,2.84-1.06,5.15,1.53,8.14-9.38,7.05-2.01,9.26-1.81,16.14l-3.08,34.9c.76,6.51,16.33,14.01,22.5,14.58,12.46,1.15,13.34-.97,16.49-11.98l1,3c-1.28,5.46-1.22,10.41-2.24,15.26-2.6,9.71-7.08,10.8-2.73,20.16-2.65,5.95-4.07,3.77-1.53,11.04-5.22,46.79-1.91,94.15-1.52,141.04,38.52,34.08,117.4-10.64,167,3.5,8.49-64.24,18.81-132.62-9.06-193.44,3.53-1.74,6.6-4.83,10.06-6.57Z"/>
  </g>
</svg>