<?xml version="1.0" encoding="UTF-8"?>
<svg id="Layer_2" data-name="Layer 2" xmlns="http://www.w3.org/2000/svg" viewBox="0 0 79.11 147.1">
  <defs>
    <style>
      .cls-1 {
        fill: #fefefe;
      }
    </style>
  </defs>
  <g id="Layer_1-2" data-name="Layer 1">
    <path class="cls-1" d="M60.11,49.72l-3.98-1.52-12.03-18.99c-6.23,8.42,6.18,18.4,9.76,26.02-.22,2.79-14.05,11.28-15.26,13.5-.84,1.54-.09,3.43-.76,4.74-4.82,3.56-7.26,9.83-12.21,13.28-6.36,5.17-16.23-38.81-17.36-44.45l14.34-8.59,16.47,13.01c2.76-7.93-8.1-10.73-10.9-17.35C31.88,23.91,50.45,6.1,43.13.18c-2.93-1.35-4.21,5.37-5.51,7.57-3.47,5.9-8.21,13.17-13.9,16.93C19.09,23.57,12.75,1.63,6.11,2.73c-1.09,9.87,8.19,17.54,12.81,25.5l-11.65,7.66c-5.49,19.12,2.5,36.93,10.83,53.82-7.48-1.01-13.37-6.4-17.99-11.99-1.41,16.74,9.7,50.12,30.04,46.4,4.11,10.12,8.69,27.07,22.93,22.07,9.69-3.28,26.02-15.82,26.02-26.97v-15.5c-5.47,3.96-12.12,4.56-18.49,6.02-1.6-2.24,2.93-3.99,3.49-6.02,4.28-2,2.97-4.36,4-6,1.48-2.35,3.83-4.5,5-7,2.18.81,4.59-5.68,4.7-6.62.31-2.74-2.12-12.42-3.69-14.89-.67-1.05-10.27-11.19-11.01-11.49-3.85-6.01,18.12-15.27,11.99-28-4.17,6.39-11.55,13.53-14.99,20Z"/>
  </g>
</svg>