<?xml version="1.0" encoding="UTF-8"?>
<svg id="Layer_2" data-name="Layer 2" xmlns="http://www.w3.org/2000/svg" viewBox="0 0 262.66 309.44">
  <defs>
    <style>
      .cls-1 {
        fill: #774103;
      }

      .cls-2 {
        fill: #241c07;
      }

      .cls-3 {
        fill: #171307;
      }

      .cls-4 {
        fill: #1f1607;
      }

      .cls-5 {
        fill: #603b11;
      }

      .cls-6 {
        fill: #161106;
      }

      .cls-7 {
        fill: #161208;
      }

      .cls-8 {
        fill: #794305;
      }

      .cls-9 {
        fill: #181409;
      }

      .cls-10 {
        fill: #5c3614;
      }

      .cls-11 {
        fill: #131007;
      }

      .cls-12 {
        fill: #77507e;
      }

      .cls-13 {
        fill: #553410;
      }

      .cls-14 {
        fill: #6b470e;
      }

      .cls-15 {
        fill: #131107;
      }

      .cls-16 {
        fill: #e8c902;
      }

      .cls-17 {
        fill: #201907;
      }

      .cls-18 {
        fill: #754004;
      }

      .cls-19 {
        fill: #e1c704;
      }

      .cls-20 {
        fill: #dcac03;
      }

      .cls-21 {
        fill: #5e3a10;
      }

      .cls-22 {
        fill: #201407;
      }

      .cls-23 {
        fill: #100f07;
      }

      .cls-24 {
        fill: #97530c;
      }

      .cls-25 {
        fill: #5d3a12;
      }

      .cls-26 {
        fill: #c99bca;
      }

      .cls-27 {
        fill: #613a13;
      }

      .cls-28 {
        fill: #e5bb02;
      }

      .cls-29 {
        fill: #6b3d70;
      }

      .cls-30 {
        fill: #141007;
      }

      .cls-31 {
        fill: #1f1906;
      }

      .cls-32 {
        fill: #45280a;
      }

      .cls-33 {
        fill: #7b4403;
      }

      .cls-34 {
        fill: #b36707;
      }

      .cls-35 {
        fill: #130f06;
      }

      .cls-36 {
        fill: #060506;
      }

      .cls-37 {
        fill: #663c13;
      }

      .cls-38 {
        fill: #875006;
      }

      .cls-39 {
        fill: #151206;
      }

      .cls-40 {
        fill: #1d1508;
      }

      .cls-41 {
        fill: #a55e14;
      }

      .cls-42 {
        fill: #dea503;
      }

      .cls-43 {
        fill: #0c0a06;
      }

      .cls-44 {
        fill: #160f06;
      }

      .cls-45 {
        fill: #e6dde3;
      }

      .cls-46 {
        fill: #171007;
      }

      .cls-47 {
        fill: #513110;
      }

      .cls-48 {
        fill: #161305;
      }

      .cls-49 {
        fill: #573305;
      }

      .cls-50 {
        fill: #854b0f;
      }

      .cls-51 {
        fill: #603068;
      }

      .cls-52 {
        fill: #bd6706;
      }

      .cls-53 {
        fill: #986a9d;
      }

      .cls-54 {
        fill: #140f06;
      }

      .cls-55 {
        fill: #422609;
      }

      .cls-56 {
        fill: #e1c204;
      }

      .cls-57 {
        fill: #bd8fc0;
      }

      .cls-58 {
        fill: #1d180b;
      }

      .cls-59 {
        fill: #2e1f05;
      }

      .cls-60 {
        fill: #a05f20;
      }

      .cls-61 {
        fill: #211a07;
      }

      .cls-62 {
        fill: #0f0c06;
      }

      .cls-63 {
        fill: #965a08;
      }

      .cls-64 {
        fill: #764604;
      }

      .cls-65 {
        fill: #d5a7d7;
      }

      .cls-66 {
        fill: #854805;
      }

      .cls-67 {
        fill: #723e6c;
      }

      .cls-68 {
        fill: #131005;
      }

      .cls-69 {
        fill: #8b4c06;
      }

      .cls-70 {
        fill: #7b4406;
      }

      .cls-71 {
        fill: #a3631e;
      }

      .cls-72 {
        fill: #c67408;
      }

      .cls-73 {
        fill: #a66421;
      }

      .cls-74 {
        fill: #6b3b6f;
      }

      .cls-75 {
        fill: #744205;
      }

      .cls-76 {
        fill: #5b3612;
      }

      .cls-77 {
        fill: #bb6f0b;
      }

      .cls-78 {
        fill: #d4a8d6;
      }

      .cls-79 {
        fill: #5d3812;
      }

      .cls-80 {
        fill: #683470;
      }

      .cls-81 {
        fill: #e8d902;
      }

      .cls-82 {
        fill: #f3e303;
      }

      .cls-83 {
        fill: #613d0f;
      }

      .cls-84 {
        fill: #cd8002;
      }

      .cls-85 {
        fill: #794204;
      }

      .cls-86 {
        fill: #975109;
      }

      .cls-87 {
        fill: #191207;
      }

      .cls-88 {
        fill: #e1ad02;
      }

      .cls-89 {
        fill: #1a1809;
      }

      .cls-90 {
        fill: #292306;
      }

      .cls-91 {
        fill: #0e0b05;
      }

      .cls-92 {
        fill: #231808;
      }

      .cls-93 {
        fill: #5f3814;
      }

      .cls-94 {
        fill: #5e3911;
      }

      .cls-95 {
        fill: #0c0906;
      }

      .cls-96 {
        fill: #8b5998;
      }

      .cls-97 {
        fill: #bc6909;
      }

      .cls-98 {
        fill: #93679a;
      }

      .cls-99 {
        fill: #5c3a11;
      }

      .cls-100 {
        fill: #9a5b1e;
      }

      .cls-101 {
        fill: #5e3912;
      }

      .cls-102 {
        fill: #191306;
      }

      .cls-103 {
        fill: #1f1c04;
      }

      .cls-104 {
        fill: #120f06;
      }

      .cls-105 {
        fill: #edd503;
      }

      .cls-106 {
        fill: #120d05;
      }

      .cls-107 {
        fill: #764205;
      }

      .cls-108 {
        fill: #6a3d13;
      }

      .cls-109 {
        fill: #1c1406;
      }

      .cls-110 {
        fill: #946699;
      }

      .cls-111 {
        fill: #906098;
      }

      .cls-112 {
        fill: #ead603;
      }

      .cls-113 {
        fill: #764004;
      }

      .cls-114 {
        fill: #100d06;
      }

      .cls-115 {
        fill: #824905;
      }

      .cls-116 {
        fill: #141106;
      }

      .cls-117 {
        fill: #5e3a11;
      }

      .cls-118 {
        fill: #2f2506;
      }

      .cls-119 {
        fill: #6b3a72;
      }

      .cls-120 {
        fill: #f4eb03;
      }

      .cls-121 {
        fill: #794203;
      }

      .cls-122 {
        fill: #201b06;
      }

      .cls-123 {
        fill: #774002;
      }

      .cls-124 {
        fill: #392409;
      }

      .cls-125 {
        fill: #1e1a08;
      }

      .cls-126 {
        fill: #bb8ebf;
      }

      .cls-127 {
        fill: #78517e;
      }

      .cls-128 {
        fill: #965307;
      }

      .cls-129 {
        fill: #5e3710;
      }

      .cls-130 {
        fill: #151007;
      }

      .cls-131 {
        fill: #1a1605;
      }

      .cls-132 {
        fill: #94541a;
      }

      .cls-133 {
        fill: #171306;
      }

      .cls-134 {
        fill: #2a1c0a;
      }

      .cls-135 {
        fill: #5e3b10;
      }

      .cls-136 {
        fill: #8b4b0a;
      }

      .cls-137 {
        fill: #91571d;
      }

      .cls-138 {
        fill: #6c3c71;
      }

      .cls-139 {
        fill: #824705;
      }

      .cls-140 {
        fill: #120d07;
      }

      .cls-141 {
        fill: #ad5fa8;
      }

      .cls-142 {
        fill: #583a0f;
      }

      .cls-143 {
        fill: #764d7e;
      }

      .cls-144 {
        fill: #8c5b97;
      }

      .cls-145 {
        fill: #0d0b07;
      }

      .cls-146 {
        fill: #e9d703;
      }

      .cls-147 {
        fill: #161207;
      }

      .cls-148 {
        fill: #d49403;
      }

      .cls-149 {
        fill: #d19402;
      }

      .cls-150 {
        fill: #795380;
      }

      .cls-151 {
        fill: #834b06;
      }
    </style>
  </defs>
  <g id="Layer_1-2" data-name="Layer 1">
    <g>
      <path class="cls-119" d="M206.67,20.36c-2.61,7.63-4.43,15.7-7.24,23.26-2.07,5.57-9.12,18.27-9.53,23.41,5.12,11.31.17,26.51.79,38.81.45,6.91,3.54,14.08,4.01,20.98s-3.24,27.42-.76,31.26c6.21,2.65,1.87,6.28,2.85,11.62.55,1.61,3.1,1.65,3.7,3.33,4.9,28.72,17.63,78.29,34.16,101.84,5.99,3.52,3.37,3.66,2.91,9.99.46,7.25,2.43,15.19,3.09,22.5-2.14,2.18-10.74.05-11.84-2.66,0,0-.09-16.79-.09-16.79l-2.96-.61c-7.13-39.22-42.69-89.15-45.05-128.5-.15-1.82.27-3.72-2.06-4.44.11-1.65-.04-3.34,0-5,3.63-3.47,1.84-11.99,2-17,.83-24.7,15.85-52.87-4-74l11.99,9c4.12-15.81,9.39-33.02,18.01-47Z"/>
      <path class="cls-80" d="M56.67,8.36c-3.82,1.35-25.09,4.24-25.86,7.6,5.02,16.42,17.06,29.94,20.1,47.15,2.84,1.9,4.91,1.31,7.76.25-.56,2.02,1.28,2.11,2,3-2.74-.82-8.39,4.8-6,7-.57,2.04-2.06,3.43-1.01,5.48l-.99.52c-.61-.45-1.12-1.15-1.99-1-1.73,4.45,1.66,9.73,1.88,12.45-2.83,14.31,5.59,28.89,7.11,42.55,2.09,49.3-16.71,96.56-29.56,143.95-.76,6.57,5.13,21.25,4.46,23.37-.73,2.29-8.59,4.46-10.9,4.68,2.16-7.43-4.4-19.58-3.02-23.28.37-.63,2-.68,2.08-1.34-3.19-38.38,25.78-78.95,23.99-120.93-.27-8.95-4.33-10.1,4.95-16.96-4.23-4.06-4.33-.47-7.7.31-2.16.5-6.7-.51-7.86,1.13-2.52,2.82,4.44,13,3.57,14.06-1.55,1.87-2.16-1.41-2.48-1.97-12.16-20.59,6.75-14.57,8.46-17.06l-2.96-10.96,5.98,8.99c6.8-12.64-.13-26.36-.97-39.51,4.45-52.33-4.79-39-18.03-81.48-.73-.66-5.26,2.23-5.99,3l-1-1C30.42,8.03,43.18,4.82,55.67,2.36c.78,1.95.8,3.95,1,6Z"/>
      <path class="cls-143" d="M23.67,19.36c-11.92,12.57-1.73,60.64-.96,78.46,2.18,50.55-13.79,102.46-13.05,154.03-.14,13.21-6.46,29.2-6.74,41.77-.15,6.49,15.19,10.75,20.75,9.73-.16.52.11,1.37,0,2-8.65.8-17.29-2.77-23.67-8.44,12.78-54.23,8.01-112.87,20.67-165.07,6.31-33.41-15.86-86.54,2-113.5l1,1Z"/>
      <path class="cls-127" d="M225.67,154.36c11.92,44.18,20.22,95.41,36.99,139.6-.72,11.94-14.66,18.11-24.99,14.4,1.17.5,2.61-.96,3-1,4.94-.56,5.89.65,11-2,14.67-7.61,6.64-17.11,2-29-9.84-37.37-19.76-75.29-28.51-112.99-.61-2.8-2.54-7.66-.49-10.01.12.43.58.81,1,1Z"/>
      <path class="cls-12" d="M196.67,12.36c45.31,9.04,21.6,65.69,22.96,98.54.25,7.2,2.35,31.68,4.01,37.76.55,2.02,3.85-.68,2.03,5.7-.42-.19-.88-.57-1-1-1.03-3.56-.43-.04-2.86-2.62-.75-17.01-5-33.7-4.13-50.87,2.2-31.25,17.94-77.04-23.01-86.51l2-1Z"/>
      <path class="cls-29" d="M196.67,12.36l-2,1c-6.02-1.69-14.76-2.57-21-2-.28-2.63.38-4.82-2-7,8.18,2.17,17.07,5.03,25,8Z"/>
      <path class="cls-98" d="M217.67,66.36c-5.57,19.83-9.73,28.5-4,50,3.36,7.05-7.24,17.72-6.04,22.29.41,1.58,13.38,7,10.05,13.71,6.59-4.42-2.53-9.37-2.98-15.62,2.19-11.05,2.15-39.27,1.96-50.88,1.55-20.2,9.16-42.48-2-61.5,14.9,14.58,4.03,55.56,3.01,75.51-.88,17.17,3.38,33.85,4.13,50.87,2.43,2.58,1.83-.94,2.86,2.62-2.05,2.34-.12,7.2.49,10.01,7.5,34.5,17.74,68.55,25.51,102.99-12.53-29.55-18.7-66.7-27.99-97.99,4.82,19.01,10.37,50.77,14.7,69.79,1.53,8.44,1.02,21.64,5.46,28.54,2.86,4.45,6.84,4.22,5.8,11.09-.71,4.7-5.92,9.09,4.04,8.58l-4.99,8.99c3.88-1.34,9.19-1.64,9,4.01-3.39-5.31-6.9.68-9,3.98l4,2.02c-5.11,2.65-6.06,1.44-11,2-.66-7.32-2.64-15.26-3.09-22.5.47-6.44,3.07-6.42-2.91-9.99-16.55-23.63-29.24-73.07-34.16-101.84-.6-1.68-3.15-1.72-3.7-3.33-.98-5.34,3.34-8.98-2.85-11.62-2.48-3.84,1.22-24.48.76-31.26s-3.56-14.07-4.01-20.98c-.62-12.28,4.32-27.51-.8-38.81.42-5.14,7.47-17.84,9.53-23.41,2.81-7.56,4.63-15.63,7.24-23.26,10.74,11.2,13.11,31.18,11,46ZM204.67,149.37c-2.72-.61-6.67,3.16-7.03,5.55-1.09,7.3,9.46,5.46,10.03,7.96l-4.99,6.47c2.91-.13,6.34-2.73,6.97-5.54,1.75-7.86-6.16-3.43-9.93-7.94l4.96-6.5Z"/>
      <path class="cls-110" d="M194.67,13.36c3.46.97,9.7,4.13,13,6-9.79,13.67-14.55,31.94-19.01,48-.44-.32-13.24-9.85-12.99-10,.21-15.41-1.01-30.65-2-46,6.24-.57,14.98.31,21,2Z"/>
      <path class="cls-96" d="M23.67,19.36c.73-.77,5.26-3.66,5.99-3,13.28,42.59,22.47,29.15,18.02,81.49.84,13.15,7.77,26.87.97,39.51l-5.98-8.99,2.96,10.96c-1.71,2.49-20.62-3.52-8.46,17.06.33.56.94,3.84,2.48,1.97.88-1.06-6.09-11.24-3.57-14.06,1.17-1.64,5.7-.63,7.86-1.13,3.37-.78,3.47-4.37,7.7-.31-9.28,6.86-5.22,8.01-4.95,16.96,1.8,41.98-27.18,82.55-23.99,120.93-.07.66-1.71.7-2.08,1.34-1.83,3.13,5.14,14.33,3.02,21.28-5.56,1.01-20.9-3.24-20.75-9.73.29-12.57,6.6-28.56,6.74-41.77-.74-51.57,15.23-103.48,13.05-154.03-.77-17.82-10.96-65.89.96-78.46Z"/>
      <path class="cls-144" d="M56.67,8.36c.36,3.64,2.24,25.88,3.03,26.99.2.28,1.81-.18,1.97.01.56.67-3.02,14.27,1,17-.3,3.72,1.24,7.33,0,11-.45-.63-1.1-1.1-1.02-2-2.89,1.9-7.02,4.62-10.74,1.75-3.05-17.21-15.08-30.73-20.1-47.15.78-3.36,22.04-6.26,25.86-7.6Z"/>
      <path class="cls-78" d="M250.67,266.36c1.38,3.43,1.81,6.94,3,10l-1.07,7.45,3.14,1.09c.07,2.24-.41,4.72-.02,6.9.22,1.21,3.72,7.67.94,7.55.19-5.65-5.12-5.35-9-4.01l4.99-8.99c-9.96.52-4.75-3.88-4.04-8.58,1.04-6.87-2.94-6.64-5.8-11.09-4.44-6.9-3.93-20.1-5.46-28.54-.85-8.43-8.27-26.13-4.71-32.79,4.48,22.18,9.81,40.61,18,61Z"/>
      <path class="cls-53" d="M251.67,305.36l-4-2.02c2.1-3.3,5.61-9.29,9-3.98,2.77.12-.73-6.34-.94-7.55-.4-2.19.08-4.66.02-6.9l-3.14-1.09,1.07-7.45c4.64,11.89,12.67,21.39-2,29Z"/>
      <path class="cls-65" d="M214.67,24.36c7.39,13.73,7.29,29.03,4,44l-1-2c2.11-14.82-.26-34.8-11-46,.31-.36.66-.67,1-1,2.52,1.42,4.94,2.98,7,5Z"/>
      <path class="cls-26" d="M218.67,68.36c-3.16,16.94-1.26,45.01-3,62-4.54-32.53-8.51-31.39,2-64l1,2Z"/>
      <path class="cls-57" d="M215.67,130.36c-4.54,12.07,9.72,16.17,2.01,22,3.33-6.71-9.64-12.13-10.05-13.71-1.2-4.57,9.4-15.24,6.04-22.29.55,4.04,1.74,9.97,2,14Z"/>
      <path class="cls-51" d="M204.67,149.37l-4.96,6.5c3.77,4.5,11.68.08,9.93,7.94-.63,2.82-4.05,5.42-6.97,5.54l4.99-6.47c-.56-2.5-11.11-.66-10.03-7.96.36-2.39,4.31-6.16,7.03-5.55Z"/>
      <path class="cls-126" d="M232.67,205.36c-1.25.57-1,1.87-1,3l-8.99-39.99,9.99,36.99Z"/>
      <g>
        <path class="cls-41" d="M171.67,4.36c4.09,6.23,2.71,24.88,3,33l-3.53-.98-.46,9.98,2.91-.07c1.26-2.58.91-5.22,1.08-7.93,1.55,4.19,1.39,11.32,1,16l-4.01-.5c1.23,4.43-2.29,6.15-5.99,7.5,5.74-5.97,6.01-6.57,4-13.5.15-10.86-.02-26.53-1-37.5-.1-2.43-1.74-4.8,0-7,.78.15,1.97.73,3,1Z"/>
        <path class="cls-77" d="M113.67,185.36c1.33.02,2.67,0,4-.01l-1-.99c-.11-.27.1-.69,0-1l2-1c.81,3.21,3.68,2.69,6,3,6.19.84,5.7-2.86,7-3,1.89,2.4,2.84-.66,4-2h1c3.15,5.25,7.21,1.79,11,1,7.49-1.2,16.03-7.01,19-14,1.63-1.16,3.04.16,6-4,.95-1.33,2.87-1.71,2-5l1.82.76,1.18-1.76c-4.25,22.73-43.88,37.85-64,28Z"/>
        <path class="cls-34" d="M99.67,175.36c.86.84,1.07,1.86,1.03,3.01,5.62-2.13,12.11-.46,17.97-1.01.23,1.5-.34,3.67,0,5l-2,1c-.43-1.32-1.2-2.49-1.01-4l-9.97,2.5,10.98,2.5,1,.99c-13.08-.12-33.09-.74-44.99-5v-.97c.99-.12,2.16-.49,2.99-1.01-.33,4.54,3-.29,5.48-.05.36.03,3.75,6.76,3.52-1.95.49.33.8,1.32,1.08,1.9l2.92-.9,1.44,1.96c1.73-2.47,3.91-1.58,6.06-2,1.76-.35,4.08,1.37,3.5-1.95Z"/>
        <path class="cls-150" d="M147.67,9.36l1,1c-24.3,3.63-48.99,7.77-73-2l2-1c18.6,6.86,50.79,6.57,70,2Z"/>
        <path class="cls-97" d="M60.67,2.36c1.98,1.74.71,5.48,1,8,.91,7.89,1.93,16.11,3,24-9.98,7.77-5.62-26.23-9-32,1.46-.29,3.49.26,5,0ZM60.67,6.36h-2.99s1,12,1,12c5.45-.38.85-8.75,1.99-12Z"/>
        <path class="cls-74" d="M168.67,3.36c-1.74,2.2-.1,4.57,0,7-6.45.46-13.67-.64-20,0l-1-1c7.29-1.74,13.74-7.42,21-6Z"/>
        <path class="cls-72" d="M64.67,167.36c-.22,2.98,3.77,10.88,7,8,.33,0,.68.03,1,0v2s4,0,4,0c-.9,1.15-2.49,1.88-3.99,2.01v.97c2.06-.18,4.48,1.68,5.99,2.01-8.64.94-14.91-6.26-20-12,.02-.99.07-2.02,0-3,1.11-2.05,4.05.2,6,0Z"/>
        <path class="cls-138" d="M60.67,2.36c1.9-.33,5.59-3.41,8.99-1.99l-1.51,2c2.95,1.64,6.4,3.85,9.51,4.99l-2,1c-3.1-.52-12.69-1.01-14,2-.29-2.52.98-6.26-1-8Z"/>
        <path class="cls-77" d="M178.67,149.36c-.39,2.15,1.05,5.64-1,7,.13-1.71-.61-4.9,0-7h-3c5.34-1.5-.75-16.79,5-17-.34,5.7-.87,11.26-1,17Z"/>
        <path class="cls-123" d="M174.67,149.36h3c-.97,3.4,1.31,7.18-1.18,9.76l-1.82-.76c-2.63-6.15-4.89-3.85,0-9Z"/>
        <path class="cls-24" d="M180.67,132.36c-.49.05-1.64-.07-2,0v-3s-3.99.99-3.99.99v-5s-2.01,0-2.01,0c1.38-4.36,3.42-5.48,8-5.01.33-2.97-3.89-3.76-3.98-6.47-.12-3.41,5.39-7.31,6.55-9.6.97-1.9-.58-2.78-.56-2.93.04-.34,3.71-2.7,1.99-6-.29-.42-6.81,7.65-6.99-1,.83-1.01.96-2.61,1.2-2.78,1.54-1.13,3.82,1.56,4.58-2.97.4-7.11-9.21-12.02,2.23-15.25,5.29,19-5,40.07-5,59Z"/>
        <path class="cls-50" d="M176.67,58.36c2.72,5.9,7.32,9.04,9,15-.78.67-2.37.61-3,1-5.57-2.69-2.19-12.26-9-14,.51-.85,1.85-2.32,2-3,.34.28.82.6,1,1Z"/>
        <path class="cls-45" d="M178.67,149.36c.13-5.74.66-11.3,1-17h1c-.16,5.01,1.63,13.53-2,17Z"/>
        <path class="cls-84" d="M70.67,103.36c.19,4.62.85,3.81,5.29,3.22,4.01,3.26,9.7,3.09,14.71,1.78-.72,5.61,4.32,8.16,8.98,5.96.65-.92-1.23-3.95-.98-4.96.06-.23,3-1.76,2-4,1.79,2.42,3.79,3.9,6,1,3.65,1.65,6.5.13,9-3v3c2.98-.4,6.03-.63,9-1,2.14,3.1.22,1.41-1.21,2.26-3,1.77-7.99,3.57-4.79,7.74v1c-2.11-.28-3.2.32-5,1l.56-8.06c-7.82-3.95-12.09,4.37-12.56,11.06-2.06.32-3.51-1.08-3,2-6.06-4.4-5.94.39-9,2-2.86,1.51-9.84,2.12-10,6-2.97-.37-9.52,3.38-9.04,6.46.49,2.21,7,6.21,9.04,6.54v1c-8.74-2.44-6.86,5.58-10,10-4.27-.05-8.35-.61-12,2,.32-4.31,1.69-8.35,2-12,7.72-2.99,11.39-5.71,4.02-12.54l-4.02,1.54c-1.93-7.14,13.15-10.27-2-17-1.86-2.71-.96-5.67-1-8,6.52,7.91,12.45,3.35,11-6,.29.05,2.91.87,3,1ZM67.67,123.36c.89,1.01,2.7,1.62,4,2,7.17,2.12,4.73.12,9.07-2.43,3.45-2.03,7.24-1.04,5.51-7.63-1.02-1.4-4.85-1-6.58-.93-.54.02-1.88,1.37-2.99,1-.96-10.71-13.87,4.08-9.01,8Z"/>
        <path class="cls-42" d="M62.67,52.36c.12-1.55,1.17-3.29,1.01-5,3.53,1.58,1.31,7.63,2.78,10.71,1.79,3.26,7.43,7.36,6.21,11.29,5.92-.58,5.41,1.26,9.68,5.78,1.12,1.16,3.25.95,1.32,3.22-1.19.2-1.5,1.61-2,2-9.49.99,5.92,15.33,7.98,9.38.51-1.05-.95-2.11-.98-2.38-.39-3.56.37-2.5,3-4,2.79,2.22,5.33,4.66,8,7l-4.99-1c-1.92,4.39,1.62,6.59.99,11l-1.04-3.96-4.96.96c-4.59-5.49-5.05-.8-7,0,.16-2.55-3.31,1.15-4,1-3.91,1.04-4.57-4.59-7,0l-4.02-6.99-3.98,4.99c-.86-.57-3.06-.74-4-2v-2c13.86-5.04.92-14.01-5-4-2.59-6.04,3.12-6.39.99-10l4.02-1.51-5.02-3.49c-2.39-2.21,3.25-7.81,6-7,1.31,1.62,1.75,3.15,2.99,3.99.89-3.62,1.09-4.12-.99-6.99,1.24-3.67-.3-7.28,0-11ZM72.67,72.38c-1.96-3.03-11.84,3.2-8.57,8.05,1.43,1.97,12.35,1.88,11.58-3.06l-4.99-1.02c-.98-.66,3.73-1.28,1.99-3.97ZM70.67,88.36c-1.32,7.37,3.48,5.56,8.34,6.88l1.65-2.86c-5.09-.71,2.02-3.77-3.71-7.02-1.67-.56-5.87,1.65-6.28,3.01Z"/>
        <path class="cls-148" d="M52.67,79.36c.62.46.96,2.39,3,2-1.89,1.86-1.9,4.75-1,7-.06,3.77-.6,6.29,4,6-.21,3.67,6.16,4.18,6,8-.31-.02-1.01.8-1.53.95l-1.05-2.01c-1.01.44-2.56.6-3.42,1.06-2.88-.89-1.03-2.11-1-3,.03-1-.02-2,0-3h-6.01c2.57-8.79-2.78-9.76-.99-18,.88-.15,1.38.55,1.99,1Z"/>
        <path class="cls-18" d="M69.67,154.36c-.12,1.28,0,2.69,0,4l-1.49-2c-.76.4-2.14,3.89-2.51,5-2.33-10.74-11.06,2.18-1,3-.12.85-.05,2.08,0,3-1.95.2-4.89-2.05-6,0-.29-4.32-1.42-5.26-1-11,3.65-2.61,7.73-2.05,12-2Z"/>
        <path class="cls-121" d="M59.67,144.36c.27-3.1.29-7.91,0-11l4.02-1.54c7.37,6.82,3.7,9.55-4.02,12.54Z"/>
        <path class="cls-136" d="M57.67,116.36c14.5,6.39,1.39,10.15,2,15-.53-3.86-3.06-9.62-4-14,.56-.14,1.71-1.06,2-1Z"/>
        <path class="cls-52" d="M57.67,99.36c-.03.89-1.88,2.11,1,3-3,1.85-3.72,3.13-2,6,.04,2.33-.86,5.29,1,8-.29-.06-1.44.86-2,1-.26-5.73-7.48-16.91,2-18Z"/>
        <path class="cls-23" d="M54.67,73.36l5.02,3.49-4.02,1.51c1.06,1.7.52,1.72,0,3-2.04.39-2.38-1.54-3-2l.99-.52c-1.05-2.05.44-3.44,1.01-5.48Z"/>
        <path class="cls-8" d="M51.67,96.36h6.01c-.02,1,.03,2,0,3-2.02.26-4.13,1-5,3-.19-1.66-.77-3.65-1-6Z"/>
        <path class="cls-108" d="M62.67,63.36c2.08,2.87,1.88,3.38.99,6.99-1.24-.84-1.68-2.37-2.99-3.99-.72-.89-2.56-.98-2-3,.96-.36,2.44-2.26,2.98-2-.08.9.57,1.37,1.02,2Z"/>
        <path class="cls-111" d="M75.67,8.36c33.44,13.45,59.46.11,93,2,1.38,14.38.42,30.8,2,45-12.16,7.4-27.91,28.13-39.75,34.97-2.96,1.9-7.29,1.76-9.25,5.03-18.94-3.28-33.03-23.31-49-33-1.55-1.2-4.18-2.8-4.78-4.72-1.64-15.79-4.72-31.46-6.22-47.28,1.31-3.01,10.9-2.52,14-2Z"/>
        <path class="cls-67" d="M170.67,55.36c-.76,1.98-5.2,5.22-6,8-1.14.62-3.16,3.19-3,5-3.54-2.25-3.77,1.85-4,2-12.6,8.22-19.66,24.54-36,25,1.96-3.27,6.29-3.13,9.25-5.03,11.86-6.86,27.58-27.55,39.75-34.97Z"/>
        <path class="cls-32" d="M175.67,54.36c.37,2.48-.3,4.04-2,6-2.85,4.73-2.97,4.25-9,3,.4-.61.59-1.4,1-2,3.71-1.34,7.23-3.07,5.99-7.5l4.01.5Z"/>
        <path class="cls-36" d="M174.67,38.36c-.17,2.71.18,5.35-1.08,7.93l-2.91.07.46-9.98,3.53.98c-.01.33.02.67,0,1Z"/>
        <path class="cls-16" d="M134.67,117.36c1.7.41,1.4-.38,2-1,3.49,2.9-2.95,8.28,1,12,2.41,2.29,14.72,3.99,13-3,3.12.1,3.29-2.43,3-5,3.92.07,7.87,2.96,10,5.99l-6,1.01c-6.45,4.86-11.26,7.38-6,16l-1.98,1.49c1.14,1.27,2.63,1.36,3.98,2.51l-6.03.46c-3.61,4.23.51,6.63,3.06,10.11,1.26.8,2.06-.27,2.98-.56,2.66-.4,4.53-3.2,4-6,1.24,1.38,1.78,3.53,3,5-2.21,6.53-4.3,7.86,3,10,.7.21,1.68,1.44,3,1-.29.21-2,3.96-4,6-4.75-.34-9.95.1-9,6-3.99,1.96-2.66,1.17-6,2v-10.01s-10.59.91-10.59.91c-3.46,2.67-1.22,6.6-1.41,8.09-1.17,1.35-2.11,4.4-4,2-.13-.61-2.35-7.58-2-8,2.48-.27,3.26-2.77,5-4,1.58-1.12,2.25-1.35,4-2,1.21-.45,2.39.58,5-1,1.96-1.18,4.71-5.41,3.09-7.33-3.93-1.51-5.15-5.89-10.09-2.67l-1.5-2.96,1.29.71.83-1.82,4.37,1.07-3-3.99c6.04-5.48,2.2-13.48-6-12.01.66-2.81,4.35-1.1,6-2.99,3.74-1.14-2.15-6.16-5.48-6.02-1.06,2.35-1.13,4.93-4.52,5.02.17-3.39,1.12-3.25-3-5,1.49-.23,2.99-.27,4.4-.9l.6-2.1-.18-1.79c-1.61-.42-2.56-1.29-3.82-2.21,3.03-1.81,3.49-6.01,7-7,.21.66-.29,2.07,1,2ZM157.68,171.36c.76-4.36-1.43-7.31-5.49-8.65l-3.08,1.64.59,6.99h7.99Z"/>
        <path class="cls-149" d="M166.67,102.36c-.06,6.19,2.07,8.88,8.57,6.07l.49-3.53c-1.68-.01-3.83-2.47-4.06-2.53,5.16-2.48,6.42,1.37,11-1,3.62,3.62-6.51,8.12-5.98,12.52.09,2.71,4.31,3.5,3.98,6.47-7.84-1.54-9.6,6.96-7.93,12.94l4.94.06c-2.07,4.64,1.69,13.37-3,16-4.89,5.15-2.63,2.85,0,9,.87,3.29-1.05,3.67-2,5-.66-1.31-1.67-6.31-2.19-6.84s-1.49,0-1.81-.16c-.55-.25-1.89-.99-2-1l1.99-.49-2.99-7.51c10.17,3.64,11.34-17.18,1-12,2.45-4.4-4.65-9.57-9-8l6-1.01c-.41-1.25-1.97-2.16-3-2.99,9.99,3.37,14.57-13.32,4.47-13.07-3.7.09-9.3,7.19-7.47,11.07-1.33-.59-2.48-1.14-4-1-2.6-5.92-5.67-4.23,2.04-6.48,2.85-4.78-1.68-5.75-5.04-7.52,1.36.79,3.72-1,4-1,5.58,2.01,7.86.79,12-4-.01.33,0,.67,0,1Z"/>
        <path class="cls-95" d="M135.67,180.36c.19-1.49-2.05-5.42,1.41-8.09l10.6-.91v10.01c-.93.23-1.8.85-3.01,1-4.84.29.65-3.64.65-5.49,0-.9-1.46-3.33-2.17-3.51-2.75-.58-4.13,7.74-7.49,7Z"/>
        <path class="cls-129" d="M124.67,185.36c-6.18.08-6.35-2.41-6-8,1.2-.13,2.2-.87,3-1l6.97,2.49-3.97,6.51Z"/>
        <path class="cls-79" d="M136.67,180.36c3.52-1.85,5.76-12.43,8.65-3.49,0,1.85-5.5,5.78-.65,5.49-2.96.37-5.42,2.45-8-2Z"/>
        <path class="cls-147" d="M129.67,175.36l2,7c-1.3.14-.81,3.84-7,3l3.97-6.51-6.97-2.49c2.65-.43,5.27-1.2,8-1Z"/>
        <path class="cls-151" d="M168.67,156.36c3.08-1.17,2.7,4.88,4,7-2.96,4.16-4.37,2.84-6,4-1.32.44-2.3-.79-3-1,3.65,1.06,6.49-1.66,2.14-3.1l-.14-1.88c3.08-.22,3.32-2.35,2.99-5.02Z"/>
        <path class="cls-55" d="M116.67,184.36l-10.98-2.5,9.97-2.5c-.3,1.86,1.2,3.25,1.01,5Z"/>
        <path class="cls-54" d="M162.67,173.36c-4.12,4.2-4.35,3.72-9,6-.95-5.9,4.25-6.34,9-6Z"/>
        <path class="cls-28" d="M118.67,116.36c3.33.45,2.84,3.13,4,4,3.29,1.51,4.78,2.92,7.82,4.21l.18,1.79c-3.86-2.72-9.2-3.13-9.99,2.44,1.79,2.94,3.33.81,4.99.56,5.35,1.63,2.34,4.11,3.01,7.99l9.99-1.99c-1.65,1.89-5.33.18-6,2.99h2c-.64.17-4.58,3.77-4.85,4.73-.96,3.36,1.04,3.14,1.85,4.28,2.16,3.05,3.07,5.07,7,3l3,3.99-4.37-1.07-.83,1.82-1.29-.71,1.5,2.96c-4.37,3.15-.39,8.01,2,11-1.75.65-2.42.88-4,2v-3c-2.89.38-7.33-1.76-9-2-3.18-.42-7.73,2.3-6.99,5.98,4,.46,6.56,3.51,10.99,3.02v1c-6.19-.12-11.68,2.92-18,2,1.35-9.11.89-6.05-3-13-.54-.69.2-2.07-2.28-3.3-2.19-1.08-2.82.26-3.72.3-1,.04-2,0-2.99-.01v-.97c3.87-.35.61-4.39,4.99-3.02,6.63,2.08,3.33-1.74,7.98-5.5-.64-1.8-3.38-1.99-3.98-2.5-.16-.14-.13-2.64-2.51-2.97-1.33.59-1.98,4.95-3.49,2.97-1.83-2.91,2.14-5.49,0-8-1.55-1.82-4.55-1.56-5.04-6.6-.18-1.78,1.78-1.14,2.03-2.1.4-1.55-.12-3.61.02-5.3.9-2.1,2.16-3.62-1-5-.51-3.08.94-1.68,3-2,6.41-1,5.86-.68,12-3,1.8-.68,2.89-1.28,5-1ZM111.66,126.37l-8.97,1.5c.06,1.47,10.88,4.93,8.97-1.5ZM118.67,139.36c3.86-6.11-3.66-10.44-9.42-7.11-1.4,1.18-.27,4.34-.59,6.11-.37,4.14-2.63,9.93,5.8,6.33,1.83-.78,1.01-2.12,1.2-2.33.73-.79,2.72-2.55,3-3ZM119.68,146.36c1.06,1.04,6.79-1.71,7.54-3.01,1.18-8.38-3.09-9.74-4.82-1.25-.64,1.09-3.79.88-2.72,4.26ZM117.23,154.37l-3.31,6.54c4.72,5.86,9.59,2.51,13.73-2.04l-10.42-4.5Z"/>
        <path class="cls-88" d="M89.67,124.36c.03,6.19,5.79,5.54,10,3-.14,1.69.38,3.75-.02,5.3-.25.96-2.2.32-2.03,2.1.5,5.04,3.49,4.78,5.04,6.6-2.43-.67-10.11,1.5-10.02,4.49,4.53,3.51,3.72,5.28,10.02,3.51,1.51,1.98,2.15-2.38,3.49-2.97,2.38.33,2.35,2.83,2.51,2.97-3.86,1.83-6.27,3.63-4,8-4.38-1.37-1.12,2.66-4.99,3.02v.97c.99,0,1.99.05,2.99.01-5.74,5.65,1.28,18.3,9,14-.15.55.1,1.37,0,2-3.73.2-7.52-.62-10.97,1.01,1.2-5.79-12.3-5.1-12.03-1.01l-2.92.9c-1.72-4.62-6.05-2.74-9.08-.9,0,0-4.01,0-4.01,0v-2c3.11.64,8-1.57,6.89-5.31-1.58-4.53-11.72-7.8-11.64-.32.03,2.43,3.66,3.08,3.75,5.63-3.24,2.87-7.22-5.01-7-8,4.42-1.64,7.51-4.78,5-9,.17-1.5-.76-4.41,1-5,.91.6,2.01.66,3,1,1.78.61.99,1.22,3.99.55,3.66-.81,3.01-1.89,4.01-3.55,3.51-2.61.4-5.27-2-7v-1c3.41,1.04,8.32-1.51,8-5,.1-.15,2.37.71,2.05-1.49-3.79-8.07-3.93-4.03-10.05-6.51.16-3.88,7.14-4.49,10-6ZM84.67,163.36c2.33,3.65,7.13,1.3,8-2,20.34-7.31-16.92-17.16-7.39-3.49.03.81-2.49,2.55-.61,5.49ZM82.68,167.36c-3.24,4.31,6.03,6.8,8.97,3.5-.17-3.03-8.67-3.91-8.97-3.5Z"/>
        <path class="cls-59" d="M99.67,175.36c.58,3.32-1.74,1.61-3.5,1.95-2.15.42-4.33-.46-6.06,2-5.53-4.94,6.88-6.33,9.56-3.96Z"/>
        <path class="cls-49" d="M84.67,176.36c.23,8.71-3.16,1.99-3.52,1.95-2.48-.24-5.81,4.59-5.48.05,2.73-2.19,5.45-4.34,9-2Z"/>
        <path class="cls-132" d="M72.67,62.36l17,19c-1.89-1.36-3.4-3.44-6-3,1.94-2.28-.2-2.06-1.32-3.22-4.31-4.56-3.76-6.35-9.68-5.78,1.22-3.93-4.42-8.03-6.21-11.29-1.47-3.08.76-9.13-2.78-10.71.16,1.71-.89,3.45-1.01,5-4.02-2.73-.44-16.33-1-17l3-1c1.05,7.73,2.71,15.45,3.22,23.28.6,1.92,3.23,3.52,4.78,4.72Z"/>
        <path class="cls-22" d="M60.67,6.36c-1.14,3.25,3.46,11.62-1.99,12l-1-11.99h2.99Z"/>
        <path class="cls-6" d="M71.67,175.36c-.1-2.55-3.73-3.2-3.75-5.63-.4-9.26,15.94-2.02,10.75,3.63-6.43-8.46-12.52-5.86-3,2-1.03.18-2.79-.08-4,0Z"/>
        <path class="cls-33" d="M172.67,125.36h2s0,5,0,5l3.98-.99v3c-.21.23-.97.93-.99,1l-4.94-.06c-.55-3.4-1.09-4.69-.06-7.94Z"/>
        <path class="cls-112" d="M173.67,60.36c6.81,1.74,3.43,11.31,9,14-6.85,4.24,1.75,8.42.77,14.25-.76,4.53-3.04,1.84-4.58,2.97-1.82,6.9-3.91-2.86-3.2,9.78-2.81.7-5.89,1.25-9,1,.28-4.77-.26-4.86-1-7-.07-.27,1.34-2.03.99-3-3.66,3.39-5.44,1.7-8.99,1l4.07-9.4c-.08-.39-5.16-2.36-6.07-2.6,7.54-1.53,4.5-5.28,3.92-10.94l-1.92-.06c.23-.15.46-4.25,4-2,.19,2.86,1.96,5.96,4.99,3.96l1.02-6.45-5.01-.51c.61-1.24,1.73-1.58,2-2,6.03,1.25,6.15,1.73,9-3ZM168.67,69.36c-3.51,3.76,4.59,6.9,8,6l-1-9-4.33-.86c-1.39.49-2.19,2.54-2.67,3.86ZM171.67,78.36c-10.99-4.02-6.09,15.99,2.96,12.96,1.1-4.84,1.25-9.57-2.96-12.96Z"/>
        <path class="cls-75" d="M177.67,94.36c.18,8.65,6.7.58,6.99,1,1.72,3.3-1.95,5.66-1.99,6-2.72,1.89-5.28.06-7,0,.6-2.23-1.82-7.94,2-7Z"/>
        <path class="cls-66" d="M127.67,104.36c1.06-.24,1.22.27,2,1,5.98,3.68,2.46,5.1,4,10-.55.39-1.6.6-2,1-.72-1.51-2.68-.96-4-1-6.2-.21-4.58-1.78-5.51-2.01-2.19-.55-.67,2.02-3.49,2.01-3.2-4.17,1.79-5.97,4.79-7.74,1.44-.85,3.35.84,1.21-2.26.43-.05,1.23-.99,3-1Z"/>
        <path class="cls-139" d="M113.67,117.36c-6.14,2.32-5.59,2-12,3,.47-6.7,4.75-15.01,12.56-11.06l-.56,8.06Z"/>
        <path class="cls-70" d="M58.67,102.36c.86-.46,2.41-.62,3.42-1.06l1.05,2.01c1.41-1.16,2.9-1.08,4.53-.95,2.92,18.88-19.29,5.81-9,0Z"/>
        <path class="cls-20" d="M90.67,99.36c.83,1.43.94,3.88,1.57,4.07.46-.03,11.31-1.23,11.43-1.07-.34,2.64.41,3.3,3,4-2.24,2.93-4.22,1.39-6-1-8.15-1.18-11.11,6.78-22,3,5-.93,2.65-5.45,8-6,.52-.05,2.7,1.53,3.99,1v-4Z"/>
        <path class="cls-30" d="M78.67,98.36l5,5c-1.9,2.55-2.87,7.3-7.71,3.22-4.43.6-5.11,1.39-5.29-3.22l6-5c.44.1,1.55.09,2,0Z"/>
        <path class="cls-40" d="M108.67,96.36l9,5c-3.03,3.03-6.2,7.47-11,5-2.01-.86-3.21-.52-3-3,3.73.16,7.74,2.4,10-1.99-5.38-2.55-5.74-4.43-10,.99h-1c.14-2.46-.61-4.85,1-7,.22.13,4.54,1,5,1Z"/>
        <path class="cls-93" d="M82.67,131.36c.82,3.24,2.27,5.13,5,7-.19.28.1,1.62-1,3l-13-4.02c-2.12-5.63,8.74-1.29,5-6.98,1.21-.2,2.44.57,4,1Z"/>
        <path class="cls-46" d="M78.67,130.36c3.74,5.7-7.12,1.35-5,6.98l13,4.02c-5.78,7.14-26.99-6.4-8-11Z"/>
        <path class="cls-113" d="M79.67,114.36c1.73-.07,5.56-.46,6.58.93,1.73,6.6-2.06,5.6-5.51,7.63-4.34,2.56-1.91,4.55-9.07,2.43-.67-3.68,3-1.14,4.8-2.21.83-.5,2.55-5.54,6.2-4.8l-3-3.99Z"/>
        <path class="cls-128" d="M75.67,112.36c.91.82,1.07,1.85,1.01,3,1.1.37,2.45-.98,2.99-1l3,3.99c-3.65-.74-5.37,4.3-6.2,4.8-1.8,1.08-5.47-1.46-4.8,2.21-1.3-.38-3.11-.99-4-2l6.77-6.65,1.23-4.35Z"/>
        <path class="cls-124" d="M98.67,122.36c3.17,1.39,1.91,2.89,1,5-4.21,2.54-9.97,3.19-10-3,3.06-1.61,2.94-6.4,9-2Z"/>
        <path class="cls-105" d="M63.67,96.36c.13.09-.51,1.76.67,2.04.36.08,6.97.05,7.33-.04,1.87-3.6,2.59-.94,5,0l-6,5c-1.58-.85-4.13-1.21-6-1,.16-3.82-6.21-4.33-6-8h1c.94,1.26,3.14,1.43,4,2Z"/>
        <path class="cls-1" d="M75.67,112.36l-1.23,4.35-6.77,6.65c-3.73-2.86,3.65-14.77,8-11Z"/>
        <path class="cls-62" d="M79.67,144.36c2.41,1.74,5.51,4.38,2,7-1.23-3.6-6.19-7.46-7.9-2.33-1.1,3.65,5.9,7.35-3.1,4.33,1.2-5.18,1.53-11.04,9-9Z"/>
        <path class="cls-85" d="M91.67,107.36v2s7,0,7,0c-.25,1.01,1.63,4.04.98,4.96-4.66,2.2-9.7-.35-8.98-5.96.07-.02.37-.82,1-1Z"/>
        <path class="cls-56" d="M127.67,103.36v1c-4.57,1.43-7.47,1.46-12,2v-3c2.35-3.49,3.7-1.05,8-4-.38,3.06,1,4.37,4,4Z"/>
        <path class="cls-135" d="M118.67,115.36c2.82,0,1.31-2.56,3.49-2.01.93.23-.7,1.8,5.51,2.01l-.96,3.58-4.03-.58v2c-1.16-.87-.68-3.55-4-4v-1Z"/>
        <path class="cls-92" d="M100.67,105.36c1,2.24-1.94,3.77-2,4h-7.01s0-2,0-2c2.88-.82,5.07-3.03,9-2Z"/>
        <path class="cls-67" d="M72.67,62.36c14.68,10.26,28.6,24.93,45,33-5.55.41-9.6,1.66-14,0-2.92-4.79-9.66-9.77-14-14,0,0-17-19-17-19Z"/>
        <path class="cls-109" d="M72.67,72.38c1.74,2.7-2.97,3.31-1.99,3.97l4.99,1.02c.77,4.94-10.15,5.03-11.58,3.06-3.27-4.86,6.61-11.09,8.57-8.05Z"/>
        <path class="cls-134" d="M99.67,90.36c1.5,1.32,3.72,4.84,4,5-.19.64-.94,1.46-1,2-4.19-1.42-3.43,5.49-7,3,.63-4.41-2.91-6.6-.99-11l4.99,1Z"/>
        <path class="cls-82" d="M89.67,97.36l4.96-.96,1.04,3.96c3.57,2.49,2.81-4.42,7-3-.18,1.63.12,3.36,0,5-13.62.81-8.76,3.65-13-5Z"/>
        <path class="cls-10" d="M89.67,81.36c1.04.75,1.46,1.57,2,2-2.63,1.5-3.39.44-3,4-5.27-1.12-5.88-1.72-7-7,1.76-3.98,5.78-1.13,8,1Z"/>
        <path class="cls-114" d="M65.67,88.36l-6.89-.91-1.19,4.28,2.08.62v2c-4.84.55-5.4-1.6-5-6,2.2-5.84,12.76-6,11,0Z"/>
        <path class="cls-44" d="M81.67,80.36c1.12,5.28,1.73,5.88,7,7,.03.27,1.49,1.33.98,2.38-2.06,5.96-17.47-8.38-7.98-9.38Z"/>
        <path class="cls-89" d="M89.67,97.36c.4.48.64,1.38,1,2v4c-1.3.54-3.48-1.04-4-1,.43-3.78-4.66-1.75-4-5,1.95-.8,2.41-5.49,7,0Z"/>
        <path class="cls-61" d="M63.67,96.36l3.98-4.99,4.02,6.99c-.35.09-6.97.12-7.33.04-1.18-.28-.54-1.95-.67-2.04Z"/>
        <path class="cls-102" d="M70.67,88.36c3.13.49,3.09,4.47,8,3,.05.47,1.33,1.15,1.99,1.01l-1.65,2.86c-4.89-1.32-9.65.49-8.34-6.88Z"/>
        <path class="cls-14" d="M70.67,88.36c.41-1.36,4.61-3.57,6.28-3.01,4.27,2.72,1.55,4.45,1.72,6.01-4.91,1.47-4.87-2.51-8-3Z"/>
        <path class="cls-83" d="M65.67,88.36c-.37,1.25-4.62,3.25-6,4l-2.08-.62,1.19-4.28,6.89.91Z"/>
        <path class="cls-81" d="M82.67,97.36c-.66,3.25,4.43,1.22,4,5-.16.01-2.88.9-3,1l-5-5c.69.15,4.16-3.55,4-1Z"/>
        <path class="cls-106" d="M69.67,158.36c2.52,4.22-.61,7.38-5,9-.44-3.43,1.5-8.42,3.51-11l1.49,2Z"/>
        <path class="cls-86" d="M65.67,161.36c-.27.84-.91,2.41-1,3-10.06-.82-1.33-13.74,1-3Z"/>
        <path class="cls-141" d="M117.67,95.36c3-.03,6,.01,9,0-3.11,4.7-4.43,5.49-9,6l-9-5c1.43,0,6.02-.94,9-1Z"/>
        <path class="cls-56" d="M147.67,79.36c.74.25,5.27,2.33,6,2l-5,9.56,1.59,2.37c6.08-3.58,10.46,4.61,16.4-.94.35.96-1.06,2.72-.99,3-2.53-.99-6.38,1.01-8,1-3.29.05-6.14-.13-10,0-6.77.26-7.1-4.04-11,5-.57,1.33-1.28,2.22-1.07,3.91l-5.93.09c-.41-.25-.78-.93-1-1,3.72-1.96,6.68-3.27,4-8l1-1c4.03,1.1,12.41-5.56,7-9,.42-.29,6.04-6.04,7-7ZM148.35,88.06c3.7-4.87-1.01-7.82-4.65-3.12l.98,5.41c.14.16,3.4-1.94,3.67-2.3Z"/>
        <path class="cls-37" d="M157.67,70.36l1.92.06c-.37,1.69,1,3.81,1.08,4.94-2.78,1.22-7.77,2.69-8,6l-5-2c5.07-5.07,3.27-4.61,10-9Z"/>
        <path class="cls-71" d="M133.67,91.36v4l-1,1-3.99-.99,2.03,4.48-3.03,3.52c-3,.37-4.38-.94-4-4,2.65-4.66,6.04-5.59,10-8Z"/>
        <path class="cls-116" d="M140.67,86.36c5.41,3.44-2.97,10.1-7,9v-4c3.09-2.53,4.52-3.31,7-5Z"/>
        <path class="cls-90" d="M162.67,65.36l5.01.51-1.02,6.45c-4.2,2.68-6.22-4.15-3.99-6.96Z"/>
        <path class="cls-146" d="M166.67,135.36c-3.97,1.66-2.5,4.97-3.07,7.92-.5.03-5.31.78-5.84,2.69l1.98,5.33,2.92.06c-.54-1.84.82-3.68,1.01-5.01h2c-.51.34,2.84,7.99,2.99,8.51-2.6.92-5.58-.17-7.99,1.49-2.37-5.02-6.51-9.05-10.98-11.51l1.98-1.49c7.8,1.23,10.57-8.74,13-14,2.31,1.96,3.29,2.8,2,6Z"/>
        <path class="cls-69" d="M157.67,121.36c-1.83-3.89,3.77-10.99,7.47-11.07,12.45.74,2.17,20.32-7.47,11.07Z"/>
        <path class="cls-149" d="M136.67,101.36v5c1.6.78,3.47-.97,4-1,.38-.02,1.52,1.1,2.38,1.01.29-.03,1.54-3.51,4.62-2.01.08.37,1.63,1.41,2,2-5.96,3.84-3.66,4.85-1,9.99-6.76-3.69-5.12-3.58-11,2.01,0-.88,0-1.67-1-2,.74-.77,3.74-5.35,2.99-5.99h-5s0,6.99,0,6.99c-1.29.07-.79-1.34-1-2-1.54-4.9,1.98-6.32-4-10l5.93-.09c-.21-1.69.5-2.59,1.07-3.91Z"/>
        <path class="cls-43" d="M164.67,129.36c-.25.67-.81,1.33-1,2l-6-1c1.5,4.23-10.13,11.6,0,11-2.02,1.58-2.31,2.77-6,2-1.58-2.64-2.91-6.26-1.83-9.33,3.87-3.67,9.7-10.55,14.83-4.67Z"/>
        <path class="cls-145" d="M166.67,155.36c.11,0,1.45.75,2,1,.33,2.67.09,4.8-2.99,5.02l.14,1.88c4.35,1.44,1.51,4.16-2.14,3.1-7.3-2.14-5.21-3.47-3-10,1.83-1.14,3.94-1.17,6-1Z"/>
        <path class="cls-27" d="M150.67,125.36c.11.42.07,1.5,0,2-2.98-.81-7.56-1.89-10.54-1.99-3.27-.11-2.51-.02-2.46,2.99-2.7-2.65-.37-6.62,0-9l2.02,2.52,2.65-3.42c3.95-1.31,7.54,3.86,8.33,6.9Z"/>
        <path class="cls-114" d="M125.67,165.36l-.4,5.91c4.52,1.21,4.64-1.66,7.4-3.91.61.11,1.35-.11,2,0v3c-5.26,7.45-9.44,2.44-15.99.98-.74-3.68,3.82-6.4,6.99-5.98Z"/>
        <path class="cls-79" d="M131.67,147.36l4.65-5.88c2.86-1.13,1.88,2.97,5.35,1.88.32,6.3-6.38,11.6-10,4Z"/>
        <path class="cls-140" d="M152.67,118.36c1.67,2.43,1.9,7.18-2,7-.79-3.03-4.38-8.21-8.33-6.9l-2.65,3.42-2.02-2.52c.05-.31,0-.68,0-1,.72-.61,1.32-1.36,2-2l13,2Z"/>
        <path class="cls-7" d="M153.67,147.36c.23.2,3.19,3.1,4,4,.39,1.87-.08,2.56-1,4-2.97-2.23-3.2-6.01-7.99-4.99l4.99,6.99c-.92.3-1.72,1.36-2.98.56-2.54-3.47-6.66-5.88-3.06-10.11l6.03-.46Z"/>
        <path class="cls-68" d="M136.67,157.36c4.94-3.22,6.16,1.16,10.09,2.67,1.61,1.92-1.13,6.15-3.09,7.33l-3-1.98,3.98-2.49c-1.31-1.63-4.56-5.41-6.51-2.52-1.03,1.53.81,4.72-2.48,4-1.17-2.42-1.56-5.33,1-7Z"/>
        <path class="cls-133" d="M157.68,171.36h-7.99s-.59-7-.59-7l3.08-1.64c4.06,1.34,6.25,4.29,5.49,8.65Z"/>
        <path class="cls-131" d="M150.67,127.36c-.73,4.89-11.16,2.81-13,1-.04-3.01-.8-3.1,2.46-2.99,2.97.1,7.56,1.18,10.54,1.99Z"/>
        <path class="cls-122" d="M138.67,135.36l-9.99,1.99c.02-.99-.06-2,0-2.99,3.4-.09,3.46-2.67,4.52-5.02,3.32-.13,9.21,4.88,5.48,6.02Z"/>
        <path class="cls-11" d="M141.67,143.36c-3.48,1.09-2.5-3.01-5.35-1.88l-4.65,5.88c-6.91-3.56,6.34-15.65,10-4Z"/>
        <path class="cls-25" d="M135.67,164.36c3.29.72,1.45-2.47,2.48-4,1.95-2.89,5.2.89,6.51,2.52l-3.98,2.49,3,1.98c-2.61,1.58-3.79.55-5,1-.75-1.48-2.28-2.51-3-4Z"/>
        <path class="cls-31" d="M130.67,126.36l-.6,2.1c-1.41.63-2.91.67-4.4.9-1.66.26-3.2,2.39-4.99-.56.79-5.58,6.13-5.17,9.99-2.44Z"/>
        <path class="cls-4" d="M131.67,116.36c-1.73,1.73-2.7,4.64-5,6-.96-.7-2.5-.88-4-2v-2s4.04.58,4.04.58l.96-3.58c1.32.04,3.28-.51,4,1Z"/>
        <path class="cls-117" d="M156.67,155.36c-1.17,1.83-1.18,1.42-3,2l-4.99-6.99c4.79-1.02,5.03,2.76,7.99,4.99Z"/>
        <path class="cls-64" d="M134.67,117.36v-7.01s4.99.01,4.99.01c.74.54-3.38,8.3-4.99,6.99Z"/>
        <path class="cls-115" d="M150.67,106.36c3.36,1.77,7.89,2.74,5.04,7.52l-5.04,1.49c-.33.32,1.64,2.18,2,2.99l-13-2c5.14-4.83,3.6-2.08,9-.01l-2.99-5.52c.22-1.78,3.51-4.92,4.99-4.47Z"/>
        <path class="cls-107" d="M166.67,135.36c10.34-5.18,9.17,15.64-1,12-.85-6.51,5.75,1.35,6-9.99-4.45-.58-6.42,1.68-6.01,5.99l-1.99-2.99c.64-2.61-.15-3.43,3-5Z"/>
        <path class="cls-9" d="M165.67,95.36c.69,2.88,1.18.3,1,6-4.15,4.8-6.43,6.01-12,4,.01-.67-.02-1.33,0-2l9.89-2.61c1.04-7.06-3.4-1.88-5.55-1.52-1.74.29-2.86-1.38-1.33-2.86,1.62,0,5.47-1.99,8-1Z"/>
        <path class="cls-38" d="M171.67,102.36c.23.07,2.38,2.52,4.06,2.53l-.49,3.53c-6.49,2.82-8.62.13-8.57-6.07,1.47.25,3.75-.36,5,0Z"/>
        <path class="cls-19" d="M154.67,102.36c-.03.99.02,2,0,3-.28,0-2.64,1.79-4,1-.32.07-.7-.09-1,0-2.23-1.97-2.58-2.35-1-5,2.25,0,3.44,1.81,6,1Z"/>
        <path class="cls-35" d="M117.23,154.37l10.42,4.5c-4.14,4.55-9.01,7.9-13.73,2.04l3.31-6.54Z"/>
        <path class="cls-4" d="M102.67,141.36c2.14,2.51-1.83,5.09,0,8-6.29,1.77-5.49,0-10.02-3.51-.09-3,7.58-5.16,10.02-4.49Z"/>
        <path class="cls-101" d="M118.67,139.36c-.28.45-2.27,2.21-3,3l-.59-.76-5.41.75.99-3.98h-1.99c.09-.98-.17-2.14,0-3.01,2.95,2.74,4.42-2.28,6.4-1.97l3.6,5.97Z"/>
        <path class="cls-91" d="M109.67,166.36c2.45,4.35,3.85,1.99,2,9-3.76,2.53-8.25-.54-10-4-.29-5.03,3.3,2.45,5.48,2,3.75-.79-2.12-7.65,2.52-7Z"/>
        <path class="cls-5" d="M104.67,157.36c-2.27-4.37.14-6.17,4-8,.6.51,3.34.7,3.98,2.5-4.65,3.76-1.35,7.58-7.98,5.5Z"/>
        <path class="cls-76" d="M108.67,164.36c.39.5.65,1.37,1,2-4.64-.66,1.24,6.21-2.52,7-2.19.46-5.77-7.03-5.48-2-.93-1.84-1.03-1.7-1-4,2.52-2.18,4.4-3.69,8-3Z"/>
        <path class="cls-3" d="M119.68,146.36c-1.07-3.38,2.08-3.17,2.72-4.26,1.73-8.5,6-7.12,4.82,1.25-.74,1.3-6.48,4.04-7.54,3.01Z"/>
        <path class="cls-104" d="M118.67,139.36l-3.6-5.97c-1.98-.31-3.45,4.71-6.4,1.97-1.23-7.88,15.62-4.13,10,4Z"/>
        <path class="cls-17" d="M108.67,138.36h1.99s-.99,3.99-.99,3.99l5.41-.75.59.76c-.19.21.63,1.54-1.2,2.33-8.43,3.6-6.17-2.18-5.8-6.33Z"/>
        <path class="cls-99" d="M132.67,167.36c-2.76,2.25-2.88,5.11-7.4,3.91l.4-5.91c1.3.17,4.3,1.51,7,2Z"/>
        <path class="cls-130" d="M108.67,164.36c-3.6-.69-5.48.82-8,3-1.11-5.87,6.45-9.88,8-3Z"/>
        <path class="cls-125" d="M111.66,126.37c1.91,6.43-8.91,2.97-8.97,1.5l8.97-1.5Z"/>
        <path class="cls-114" d="M92.67,161.36c.05-.2-1.39-.57-.17-3.61.81-2.03,2.81-.67,2.17-3.38l-6.92.07c.14,3.64-.05,6.54-3.08,8.92-1.88-2.94.64-4.68.61-5.49-9.53-13.67,27.73-3.82,7.39,3.49Z"/>
        <path class="cls-47" d="M84.67,163.36c3.03-2.39,3.22-5.29,3.08-8.92l6.92-.07c.64,2.71-1.36,1.35-2.17,3.38-1.21,3.04.22,3.41.17,3.61-.87,3.3-5.67,5.65-8,2Z"/>
        <path class="cls-94" d="M81.67,151.36c-1,1.67-.35,2.74-4.01,3.55-3,.66-2.21.05-3.99-.55,4.34.34-1.03-1.96.1-5.33,1.71-5.13,6.67-1.27,7.9,2.33Z"/>
        <path class="cls-118" d="M82.68,167.36c.31-.41,8.8.47,8.97,3.5-2.94,3.3-12.21.81-8.97-3.5Z"/>
        <path class="cls-21" d="M78.67,173.36c-.69,1-1.86,1.64-3,2-9.52-7.86-3.43-10.46,3-2Z"/>
        <path class="cls-87" d="M82.67,131.36c1.36.34,2.31-.69,4.08.67,7.81,9.89-2.74,6.98-4.08-.67Z"/>
        <path class="cls-2" d="M171.67,78.36c-6.84,5.43-1.55,13.45,3,4,1.44,3.69.36,5.16-.04,8.96-9.06,3.03-13.94-16.98-2.96-12.96Z"/>
        <path class="cls-48" d="M155.67,81.36c.91.24,5.99,2.21,6.07,2.6l-4.07,9.4c-.93-.18-1.75-.96-2-1,7.13-10.49-4.12-7.62-3,0-.37,0-1.55,1.18-2.41.94l-1.59-2.37,5-9.56c.57.15,1.42-.15,2,0Z"/>
        <path class="cls-104" d="M175.67,66.36l1,9c-3.4.89-11.51-2.24-8-6l5.48,3,1.52-6Z"/>
        <path class="cls-21" d="M175.67,66.36l-1.52,6-5.48-3c.48-1.32,1.27-3.37,2.67-3.86l4.33.86Z"/>
        <path class="cls-142" d="M174.67,82.36c-4.55,9.45-9.84,1.42-3-4,.88.57,2.61,3,3,4Z"/>
        <path class="cls-39" d="M160.67,75.36c.91,5.48-3.67,6.02-8,6,.23-3.31,5.22-4.78,8-6Z"/>
        <path class="cls-58" d="M132.67,96.36c2.68,4.73-.28,6.04-4,8-.24-.07-.66,0-1,0v-1l3.03-3.52-2.03-4.48,3.99.99Z"/>
        <path class="cls-100" d="M103.67,102.36c4.26-5.43,4.63-3.53,10-.99-2.26,4.39-6.27,2.15-10,1.99.03-.35-.09-.76,0-1Z"/>
        <path class="cls-9" d="M147.67,96.36l2,5c-.28-.13-.76.14-1,0-4.68-6.49-11.76-5.19-8,4-.53.03-2.4,1.79-4,1v-5c3.89-9.04,4.22-4.74,11-5Z"/>
        <path class="cls-120" d="M156.67,96.36c-1.28,1.48-1.73,4.1-2,6-2.21.48-3.19-.12-5-1l-2-5c3.44-.13,6.2.05,9,0Z"/>
        <path class="cls-73" d="M157.67,96.36c-1.53,1.48-.41,3.15,1.33,2.86,2.15-.36,6.6-5.53,5.55,1.52l-9.89,2.61c0-2.26.58-5.21,2-7,.33,0,.67,0,1,0Z"/>
        <path class="cls-103" d="M148.35,88.06c-.27.36-3.53,2.46-3.67,2.3l-.98-5.41c3.64-4.7,8.35-1.75,4.65,3.12Z"/>
        <path class="cls-13" d="M155.67,92.36c-.87-.15-2.03.02-3,0-1.12-7.62,10.13-10.49,3,0Z"/>
        <path class="cls-137" d="M163.67,131.36c-1.07,3.72-2.71,7.41-6,10-10.12.6,1.5-6.77,0-11l6,1Z"/>
        <path class="cls-63" d="M163.67,140.36l1.99,2.99c-.41-4.31,1.55-6.56,6.01-5.99-.08,10.6-6.49,4.47-6,8.99h-2c.39-2.78-1.86-2.09-4-2,3.96-1.9,4.37.36,4-4Z"/>
        <path class="cls-15" d="M159.67,144.36c7-1.12,2.51,3.1,2.99,7.01l-2.92-.06-1.98-5.33c.28-1.01,1.17-1.16,1.91-1.61Z"/>
        <path class="cls-60" d="M148.67,101.36c-.44.79-1.18,2.16-1,3-3.09-1.5-4.34,1.98-4.62,2.01-.85.09-1.99-1.03-2.38-1.01-3.76-9.21,3.33-10.48,8-4Z"/>
      </g>
    </g>
  </g>
</svg>