<?xml version="1.0" encoding="UTF-8"?>
<svg id="Layer_2" data-name="Layer 2" xmlns="http://www.w3.org/2000/svg" viewBox="0 0 183.19 437.08">
  <defs>
    <style>
      .cls-1 {
        fill: #1c2339;
      }

      .cls-2 {
        fill: #030509;
      }

      .cls-3 {
        fill: #55639c;
      }

      .cls-4 {
        fill: #171c2d;
      }

      .cls-5 {
        fill: #354066;
      }

      .cls-6 {
        fill: #485587;
      }

      .cls-7 {
        fill: #6373b5;
      }

      .cls-8 {
        fill: #4f5b91;
      }

      .cls-9 {
        fill: #111623;
      }

      .cls-10 {
        fill: #374065;
      }

      .cls-11 {
        fill: #0e121e;
      }

      .cls-12 {
        fill: #161d2f;
      }

      .cls-13 {
        fill: #020406;
      }

      .cls-14 {
        fill: #2b3351;
      }

      .cls-15 {
        fill: #2c3553;
      }

      .cls-16 {
        fill: #0a0e17;
      }

      .cls-17 {
        fill: #06070a;
      }

      .cls-18 {
        fill: #101624;
      }

      .cls-19 {
        fill: #212840;
      }

      .cls-20 {
        fill: #020407;
      }

      .cls-21 {
        fill: #5f6fae;
      }

      .cls-22 {
        fill: #070b13;
      }

      .cls-23 {
        fill: #262e48;
      }

      .cls-24 {
        fill: #21263c;
      }

      .cls-25 {
        fill: #131a2a;
      }

      .cls-26 {
        fill: #222a43;
      }

      .cls-27 {
        fill: #182137;
      }

      .cls-28 {
        fill: #272e4a;
      }

      .cls-29 {
        fill: #2a314e;
      }

      .cls-30 {
        fill: #030508;
      }

      .cls-31 {
        fill: #141b2d;
      }

      .cls-32 {
        fill: #1b2032;
      }

      .cls-33 {
        fill: #20263e;
      }

      .cls-34 {
        fill: #020305;
      }

      .cls-35 {
        fill: #313a5b;
      }

      .cls-36 {
        fill: #040509;
      }
    </style>
  </defs>
  <g id="Layer_1-2" data-name="Layer 1">
    <g>
      <path class="cls-34" d="M26.12,8l-3,9.99,8,1.01v1c-2.31,2.89-5.98-1.62-8.99-1C-13.11,105.44,10.83,196.06,6.12,285.99l4.99,1.01c.4,4.51-.17,8.4-2.99,11.99,8.32-.97,3.98,8.52,3.92,13.53-.11,9.83,2.08,21.32,1.87,30.98-.67,14.89-9.29,30.07,5.21,40.5,106.5,85.14,46.8-169.13,69-213-6.91,67.53,2.51,141.92-3,206v-25l-6.98,57.48c13.24,21.34,40.59,23.68,62.98,27.52-24.09,1.14-74.82-9.3-64.01-43-23.7,20.42-55.91,3.16-68.79-20.77,3.94-23.8,2.14-47.61,1.87-71.61l-4.02-2.22,2.86-8.74c-7.07-4.38-3.97-5.16-3.87-11.12C4.99,188.12-14.75,93.52,24.14,7c.93-.52,1.82.97,1.98,1Z"/>
      <path class="cls-17" d="M132.12,0c52.63,72.12,42.62,162.51,41.95,247.55,1.01,49.39,7.95,99.2,9.09,147.91.97,25.84-22.36,44.24-47.04,40.54,21.89-1.66,43.13-12.36,45.03-36.46-.07-34.87-6.55-72.65-8.07-108-5.07-94.08,19.95-203.84-39.95-283.06-1.42-.8-3.23,5.6-6.01,2.52,5.1-3.71,5.28-3.84,3-10,.68-.46,1.78-.81,2-1Z"/>
      <path class="cls-35" d="M148.12,71c9.14,3.67-1.85,12.88-.04,20.33,1.83,2.96,8.32-.64,7.04,4.67-6.11,8.32-.42,13.11,1.9,22.6,2.48,13.63,1.62,28.63,2.1,42.4,2.02,17.94-3.92,38.47,2.01,55.49l-1.93-.44c-6.39,66.11-1.39,135.88-6.08,202.95-3.6,4.38-6.19,11.03-11.99,13.02l.49,1.99c2.14-.16,4.37.2,6.5,0l-12,2h-1l9.98-333.48c2.39-2.62,2.1,2.95,4.03,1.97-2.36-10.31-6.59-19.48-9.01-29.49l3,.99-.43-2.03,2.46-1.47c.2-1-.6-1.7-1.03-2.49,1.28.42,2.75.5,4,1Z"/>
      <path class="cls-15" d="M132.12,135l-2.99-75c9.91,8.28,9.59,26.31,15.99,37.49l1-2.49c.9,2.56,3.26,5.85,3.01,9.49-1.93.98-1.64-4.59-4.03-1.97l-9.98,333.48c-3.89-1.09-8.01-1.35-12-2,.46-2.03,2.37-4.25-.95-4.04,8.88-79.51-.68-175.89,11.94-253.97.82-2.32.08-19.38.03-23.52-.02-1.7.64-4.43-1.02-5.48-.03-3.89.83-8.71-1-12Z"/>
      <path class="cls-11" d="M88.12,149l2,3c-7.25,3.68-14.52,9.05-21,13.99,8-2.5,15.03-7.18,22-10.99l-3.01,2.72c-.22,4.4.29,8.9,0,13.28-3.03-.56-1.93,1.53-2,3.45-.56,15.05-2.5,30.01-3.04,45.01-1.88,52.57,5.48,112.91-4.08,163.93-2.18,11.64-14.88,17.45-25.88,17.61l1.99-3.49c-9.08-2.83-3.82-15.76-3.91-23-.08-6.74-1.57-13.65-1.13-21.05.61-10.17,4.54-16.6,3.96-26.87-.24-4.27-3.19-5.02,1.09-10.08.03-.99-2.06-.4-3.01-.51,26.32-2.55,19.45-43.85,22.04-63.46.32-22.92,4.63-72.73-8.06-90,3.56-7.48,15.59-9.95,22.02-13.54Z"/>
      <path class="cls-28" d="M122.12,42c3.24,15.99,5.15,29.21,5,45-9.52,108.05-12.69,232.06-10.98,342.49l-2.03,1.02,2.01,2.5c-5.31-1.21-9.11-2.91-14-5,3.99-91.95,7.3-186.52,7-278,15.72-23.06,1.69-56.28,11.05-80.45-1.45-8.08-1.61-16.18-2.05-24.55,4.22-1.05.21,5.32,2.98,5.99l1.01-8.99Z"/>
      <path class="cls-9" d="M115.12,137c-33.89,69.78-17.41,155.62-20.08,230.49,0,0,2.08,58.51,2.08,58.51-7.55-3.91-14.75-8.91-18.98-16.52l6.98-57.48v25c4.64-68.57-2.66-147.29,3-219.28,1.26-2.36,18.54-11.2,21-12.71-6.34,1.71-13.15,4.02-18.99,6.99l-2-3c8.65-3.99,17.26-12.12,27-12Z"/>
      <path class="cls-22" d="M31.12,20c3.87.59,8.22,2.4,12,3-.5,2.89.86,1.62,2,2-7.32,38.44-13.43,86.16-21,125,5.33-42.18,11.28-84.62,18.58-125.04l-12.68-2.32c-5.38,13.27-9.1,27.26-12.6,41.17-1.45,5.74-1.14,4.64-1.56,10.43-.35,4.79-3.47,7.57-3.79,11.27-.77,8.71,4.21,20.49,3.11,32.05-4.39,58.92-6.16,118.39,5.94,176.45,1.46,6.93,1.68,13.3.95,20.45-3.31,23.85,3.42,46.29-2.95,69.55-14.5-10.47-5.88-25.57-5.21-40.5.21-9.65-1.98-21.15-1.87-30.98.06-5.01,4.39-14.5-3.92-13.53,2.82-3.59,3.39-7.49,2.99-11.99l-4.99-1.01C10.83,196.07-13.11,105.43,22.13,19c3-.62,6.69,3.9,8.99,1Z"/>
      <path class="cls-29" d="M127.12,87c.81,29.71,4.03,59.33,5,89.01h2c-12.62,77.4-3.1,175.38-11.95,253.96,3.31-.21,1.41,2,.95,4.04-2.37-.38-4.39-.4-7-1l-2.01-2.5,2.03-1.02c-1.71-110.39,1.46-234.46,10.98-342.49Z"/>
      <path class="cls-26" d="M102.12,428c-1.73-.74-2.96-.95-5-2,1.31-89.45-16.64-189.78,12-276,.29,91.49-3.01,186.04-7,278Z"/>
      <path class="cls-16" d="M27.12,303c7.76,11.22,16.06,11.72,28.01,13.51-4.28,5.05-1.33,5.81-1.09,10.08.58,10.27-3.36,16.71-3.96,26.87-.44,7.4,1.05,14.31,1.13,21.05.09,7.24-5.17,20.17,3.91,23l-1.99,3.49c-13.13.2-25.1-8.32-34-17,6.37-23.25-.36-45.71,2.95-69.55.73-7.15.51-13.52-.95-20.45,1.53,3.31,3.75,6.15,6,9Z"/>
      <path class="cls-31" d="M52.12,9c5.27,1.62,10.2,4.05,16.4,6.06,5.5.83,9.43-2.09,13.6,3.45l-2.99-.5-.02,6h6.01c-18.75,1.95-35.71,1.26-54-4.01-.32-.25,1.93-9.46,2-9.97l-3-1.03c7.93,1.17,15.41-.99,22,0Z"/>
      <path class="cls-22" d="M30.12,9l3,1.03-2,8.97-8-1.01,3-9.99c1.21.28,3.09.87,4,1Z"/>
      <path class="cls-10" d="M155.12,64c4.74,6.84,3.56,10.18,4.19,17.31,2.34,4.51,4.67-.18,5.83,8.17,2.56,109.99,3.47,221.43,6.98,331.52-3.58,4.43-9.17,9.17-15,10,8.06-3.8,2.7-18.26,2.96-25.46-1.95-36.61,1.55-82.19-2.96-117.54-3.18-10.04-.35-28.96.04-40.46.18-5.41-1.32-29.12,2.04-31.49l1.93.44c-5.93-17.02.01-37.55-2.01-55.49,3.24,14.62-.43,31.33,1,46.51.05,1.21-.76,3.72.99,3.48-.28-23.46,2.21-47.06,1.05-70.53-1.17-15.58-5.64-32.74-3.08-47.91-.18-3.14-2.36-3.47-2.96-4.55-4.21-7.65.46-9.56-1.21-15.28-.54-1.86-4.58-5.58-5.79-8.72h6Z"/>
      <path class="cls-24" d="M167.12,84c13.32,99.32.82,214.41,14.04,315.54,0,6.66-4.9,16.33-9.04,21.46-5.38-111.61-.94-226.35-9-337,1.33-1.01,2.69-1,4,0Z"/>
      <path class="cls-7" d="M157.12,431c-.94.64-2.09.63-3,1-3.49.31-1.27-.63-1.4-1.98,1.84-47.83,2.76-94.26,4.4-142.02,4.51,35.45,1.01,80.84,2.96,117.54-.26,7.21,5.1,21.63-2.96,25.46Z"/>
      <path class="cls-32" d="M167.12,84c-1.31-1-2.67-1.01-4,0-.42-.45-3.05-.13-3.81-2.69-1.37-19.23-17.29-54.35-31.83-68.18l-5.36,3.87c-1.85-.26-3.44-.05-5,1l-1-1c3.37-1.53,7.9-3.87,11-6,2.77,3.09,4.59-3.32,6.01-2.52,16.01,22.14,28.45,48.88,33.99,75.52Z"/>
      <path class="cls-8" d="M153.12,419c-.59,4.37-.81,6.57-.4,11.02.13,1.35-2.09,2.28,1.4,1.98-3.54,2.31-8.19,2.11-12.5,2.01l-.49-1.99c5.81-1.99,8.39-8.64,11.99-13.02Z"/>
      <path class="cls-4" d="M127.12,11c-4.1-6.46-3.06-6.47,3-10,2.28,6.16,2.1,6.29-3,10Z"/>
      <path class="cls-33" d="M102.12,8c1.92-.25,4.87-.05,6.03,1.68,1.27,7.87-1.61,8.85-8.51,10.33l2.48.99c-7.81,1.99-14.85,3.27-23.01,3.01l.02-6,2.99.5c-4.31-6.51-10.8-1.13-16-4.5,6.81.03,15.64-.44,21.99.99.26-.28-.65-2.33.65-3.04,1.04-.57,11.93-3.81,13.36-3.95Z"/>
      <path class="cls-23" d="M125.12,4c-1.38,1.37,1,5.89,2,7-4.03,3.81-11.04,3.47-16,4l-1-8c3.87-.58,11.58-1.83,15-3Z"/>
      <path class="cls-5" d="M110.12,7l1,8,11-1c-6.13,3.68-13.13,5.4-20,7l-2.48-.99c6.9-1.48,9.79-2.46,8.51-10.33-.2-.74-2.34-1.57-3.03-1.68.99-1.77,3.5-.78,5-1Z"/>
      <path class="cls-14" d="M155.12,64h-6c-2.02-7.17-4.21-16.32-9.99-22,.69,4.57,2.43,8.88,2.97,13.52.33,8.7-.95,8.58,3.05,16.98l-2.46,1.47.43,2.03-3-.99c-4.21-12.37-9.1-24.88-14-37l2.98-10.51-2.97-.49c-.99-4.22.94-4.63,2.97-7.5-1.74-1.92-4.54-2.33-6.98-2.49l5.36-3.87c14.59,14.16,21.02,32.29,27.64,50.87Z"/>
      <path class="cls-36" d="M119.12,22c9.92,23.92,20.4,47.66,27,73l-1,2.49c-6.4-11.19-6.08-29.21-15.99-37.49l2.99,75-2,3c-.22-3.38-.78-6.62-1-10,5.72,4.06-1.84-57.76-1.01-60.99-1.85.2-.96,4.55-.99,5.99-2.71-16.4-4.4-33.3-9.78-49.72-.77-2.65-.29-2.75,1.78-1.28Z"/>
      <path class="cls-21" d="M156.12,88c5.64,3.52,1.38,11.97,2.01,18.49,6.1,34.43,3.66,69.71,2.98,104.51-1.74.23-.94-2.27-.99-3.48-.6-14.65.51-29.43.04-44.09-3.07-14.17.18-30.35-3.14-44.83-2.31-9.43-8-14.34-1.9-22.6,1.31-3.97-.88-5.21,1-8Z"/>
      <path class="cls-3" d="M149.12,64c1.21,3.14,5.25,6.86,5.79,8.72,1.67,5.72-3,7.63,1.21,15.28-1.88,2.79.31,4.03-1,8,1.28-5.31-5.21-1.71-7.04-4.67-1.81-7.45,9.18-16.66.04-20.33-.42-2.63-1.06-5.82,1-8,.12.28-.11.71,0,1Z"/>
      <path class="cls-6" d="M149.12,63c-2.06,2.18-1.42,5.37-1,8-1.25-.5-2.72-.58-4-1-3.45-6.33-1.26-7.95-2.02-14.48-.54-4.64-2.28-8.94-2.97-13.52,5.86,5.36,7.22,14.26,9.99,21Z"/>
      <path class="cls-30" d="M133.12,147c.05,6.57-.68,12.86-1,19-1.34-9.2-1.38-18.71-2-28l2-3c1.83,3.29.97,8.11,1,12Z"/>
      <path class="cls-28" d="M134.12,176h-2c-.4-9.79.91-18.94,1-29,1.65,1.05,1,3.79,1.02,5.48.05,4.14.79,21.2-.02,23.52Z"/>
      <path class="cls-12" d="M55.12,27c5.53.62,12.14.44,18,1,1.01,25.01,1.56,50,3,75-.81-6.45-1.56-9.89-4.77-1.27-2.28,13.49-1.32,30.85-2.15,44.69l3.92,9.58c-9.48,5.53-8.39,7.46-2.26,14.76,5.72,13.94,3.96,64.63,3.3,81.78-2.23,20.97,4.03,70.16-29.04,62.46,1.81-93.43.99-197.34,10-288Z"/>
      <path class="cls-1" d="M93.12,26c.33,6.05,3.16,11.51-1.01,16.54l2.01.97-2.08,2.1c3.53,6.62.24,12.3.28,17.89.87,10.72,2.86,15.6.29,26.39.63,3.78,5.11,10.4-.55,12.68,3.78,7.57-.2,8.13,2,14.85l-4.02,3.07c3.63,5.8-1.26,8.22,1.86,18,.27,2.6-3.23,6.74,3.21,6.5-6.83,4.5-14.47,6.79-22,11l-3.92-9.58c1.55-7.95-2.19-49.12,5.91-49.41,2.31,10.83-.26,22.03,6.01,32,7.6,49.92-3.32-107-2.01-102,4.27-.16,9.88-.22,14.01-.99Z"/>
      <path class="cls-2" d="M90.12,152c5.84-2.97,12.66-5.28,18.99-6.99-12.38,6.3-26.81,16.32-39.99,20.98,6.48-4.94,13.75-10.31,21-13.99Z"/>
      <path class="cls-23" d="M119.12,22c-2.07-1.48-2.55-1.37-1.78,1.28,1.89,6.48,3.31,12.15,4.78,18.72l-1.01,8.99c-2.77-.67,1.24-7.04-2.98-5.99.43,8.39.6,16.44,2.05,24.55-.04,2.79-2.7,4.33-3.09,7.93-.59,18.21,1.45,41.53-1.96,59.51-8.88-.1-8.84,1.92-6.96-7.46.06-34.8.38-69.1,2.84-103.92-.79-2.26-4.62-.46-3.88-3.62,4.09-1.44,8.09-3.3,12-5,.14,1.64-.2,3.38,0,5Z"/>
      <path class="cls-30" d="M127.12,73c.03-1.44-.86-5.79.99-5.99-.82,3.42,6.74,64.94,1.01,60.99-1.37-18.17-1.84-36.66-2-55Z"/>
      <path class="cls-19" d="M107.12,22c-.74,3.16,3.09,1.35,3.88,3.62-2.46,34.84-2.77,69.11-2.84,103.92-.13,4.06-3.8,8.67,2.96,7.46-5.03,1.64-11.18,5.64-16,8-6.44.25-2.93-3.89-3.21-6.5s-1.24-5.37-1.32-8.04c-.08-2.39,2.55-5.53-.53-9.96l4.02-3.07c-2.19-6.69,1.77-7.34-2-14.85,5.65-2.29,1.18-8.9.55-12.68,2.57-10.76.58-15.73-.29-26.39-.04-5.59,3.25-11.27-.28-17.89l2.08-2.1-2.01-.97c4.17-5.03,1.34-10.48,1.01-16.54,4.24-.8,9.7-2.73,14-4Z"/>
      <path class="cls-18" d="M40.12,33c-4.12,14.5-21.2,51.55-17.01,63.99,1.16-4.54,1.82-11.38,6-13.99l-10.98,97.99c4.06-2.96,4.67-24.77,5.99-30.99,0,0,9-51,9-51,1.6,67.57-3.31,137.1-6,204-10.87-10.88-10.37-33.36-11.99-48.51-4-47.94-4.49-89.29.04-136.93,1.1-11.56-3.88-23.34-3.11-32.05.33-3.7,3.45-6.48,3.79-11.27.42-5.79.12-4.69,1.56-10.43,3.5-13.9,7.22-27.9,12.6-41.17l12.68,2.32c.75,1.08-1.96,6.21-2.58,8.04ZM24.69,66.6c3.76-4.4,7.85-35.82,9.42-41.6l-12.9,42.6,1.89,1.37c-.28-1.47,1.21-1.79,1.59-2.38Z"/>
      <path class="cls-13" d="M116.12,17l1,1c-12.03,5.14-24.77,9.47-38.01,8.99l5.04,111.49c-9.75-24.63-3.76-76.74-7.03-110.49-4.06-.18-36.22-.32-34-4.99,24.79,3.9,49.29,2.18,73-6Z"/>
      <path class="cls-25" d="M55.12,27c-9,90.68-8.2,194.55-10,288-9.08-2-12.48-4.99-18-12,7.77-91.77-1.14-187.33,18-278,2.61.87,7.28,1.7,10,2Z"/>
      <path class="cls-28" d="M122.12,17c2.44.16,5.23.57,6.98,2.49-2.02,2.88-3.96,3.29-2.97,7.5l2.97.49-2.98,10.51c-3.02-6.66-8.19-13.25-7-21,.82-.13,2.11-.06,3,0Z"/>
      <path class="cls-11" d="M73.12,28c1.32.12,2.69-.1,4,0,2.05,33.64-.29,67.47,4,101.01-4.97-8.24-4.63-16.91-5-26-1.44-25-1.99-49.99-3-75Z"/>
      <path class="cls-20" d="M24.12,150c-1.33,6.27-1.91,27.93-5.99,30.99l10.98-97.99c-4.18,2.62-4.84,9.45-6,13.99-4.23-12.22,12.91-49.6,17.01-63.99-3.17,38.77-12.29,77.26-16,117Z"/>
      <path class="cls-27" d="M24.69,66.6c-.38.58-1.86.91-1.59,2.38l-1.89-1.37,12.9-42.6c-1.62,5.98-5.62,37.02-9.42,41.6Z"/>
    </g>
  </g>
</svg>