<?xml version="1.0" encoding="UTF-8"?>
<svg id="Layer_2" data-name="Layer 2" xmlns="http://www.w3.org/2000/svg" viewBox="0 0 185.26 192.43">
  <defs>
    <style>
      .cls-1 {
        fill: #b18c3a;
      }

      .cls-2 {
        fill: #050506;
      }

      .cls-3 {
        fill: #ead287;
      }

      .cls-4 {
        fill: #bcc9da;
      }

      .cls-5 {
        fill: #cfad5a;
      }

      .cls-6 {
        fill: #121212;
      }

      .cls-7 {
        fill: #abb8cc;
      }

      .cls-8 {
        fill: #080808;
      }

      .cls-9 {
        fill: #9dacc2;
      }

      .cls-10 {
        fill: #bac7d9;
      }

      .cls-11 {
        fill: #f5f8fe;
      }

      .cls-12 {
        fill: #b7c7da;
      }

      .cls-13 {
        fill: #1f1f1f;
      }

      .cls-14 {
        fill: #212121;
      }

      .cls-15 {
        fill: #eef5fe;
      }

      .cls-16 {
        fill: #222;
      }

      .cls-17 {
        fill: #a2b2c8;
      }

      .cls-18 {
        fill: #bbc8da;
      }

      .cls-19 {
        fill: #afbcce;
      }

      .cls-20 {
        fill: #a5b4c8;
      }

      .cls-21 {
        fill: #9f7a1b;
      }

      .cls-22 {
        fill: #1a1a1a;
      }

      .cls-23 {
        fill: #a8b4c7;
      }

      .cls-24 {
        fill: #c1ccda;
      }

      .cls-25 {
        fill: #9eadc4;
      }

      .cls-26 {
        fill: #b8c3d2;
      }

      .cls-27 {
        fill: #fcfdfd;
      }

      .cls-28 {
        fill: #bbc7d7;
      }

      .cls-29 {
        fill: #9dadc2;
      }

      .cls-30 {
        fill: #e2eefe;
      }

      .cls-31 {
        fill: #060605;
      }

      .cls-32 {
        fill: #b1bcce;
      }

      .cls-33 {
        fill: #eaf2fe;
      }
    </style>
  </defs>
  <g id="Layer_1-2" data-name="Layer 1">
    <g>
      <path class="cls-9" d="M142.66,22.99c11.18,20.98,31.44,44.59,31.28,69.23,3.54,15.49,23.49,97.52.21,98.76l1.39-14.41-1.56-1.39c-20.3-1.65-66.49-5.07-80.3,10.81l-4-14.99c-1.75,10.75.11,15.31-11.46,19.05-13.43,4.33-56.39,2.61-69.23-3.88-17.76-7.02-3.94-26.29-2.6-39.95,2.65-16.41,1.5-34.95,4.18-49.82,4.37-24.19,11.18-42.58,17.09-65.4-.2,2.25,2.26,3.23,4,4-5.08-.19-6.9,11-8.27,15.23C8.45,90.95,14.57,135.4,1.74,176.57c12.13,17.41,51.01,14.52,69.92,12.42,15.62-1.95,14.09-7.1,16.09-20.57l-1.09-3.43c3.95-2.58,9-5.28,14-5.99l-8.89,6.64,2.9,15.34c14.06-9.73,73.06-13.85,86.98-4,1.42-50.63-7.84-110.82-40.99-150,.95-.84,1.77-2.7,2-4ZM175.66,187.98c7.03-.38,7.71-7.01,2.49-10.99l-2.49,10.99Z"/>
      <path class="cls-2" d="M141.63,20.99c-.23,5.44-7.94,5.58-9.85,9.71-.65,6.57,7.68,29.52,3.86,33.8-1.11,1.25-5.1,1.88-6.52,3.46-2.21-.14-8.54-28.91-8.5-32.98-4.83-1.45-6.73,4.27-8.7,4.87-2.53.76-5.23-1.05-7.8-.95-2.23.09-4.29.94-6.5,1.08.03-1.45-1.21-.83-2-1l9.01-2.01-2.65-7.89c-3.76.41-7.91.52-11.59,1.17-3.97.69-7.11,4.1-10.76,1.74-.06-.99.01-2.01,0-3,5.99-.98,14.23-.55,20.01-2,7.75-2,3.36-4.48,11.93-3.06.53-.44,1.44-5.7,2.07-6.94,2.55-4.99,8.5-1.48,12-4l3.01,6c3.91-1.13,5.1-4.64,7.99-7,.24,1.25,3.96,7.15,5,9ZM117.3,16.17c-3.79,1.3-4.84,14.23-.17,16.81,6.34-3.44,12.93-21.17.17-16.81ZM109.64,37.99c4.74,3.52,1.48-17.4-3.01-12.99l3.01,12.99ZM127.34,32.15c-1.81.08-4.5,1.32-4.75,3.32-.32,2.68,5.97,29.1,7.58,29.51.77.2,3.52-1.23,3.96-1.98.9-1.45-2.4-31.41-6.79-30.85Z"/>
      <path class="cls-29" d="M136.63,11.99c-.69.64-1.39,1.28-2,2v-7.99c-2.03-1.14-9.66,7.13-12.99,6l3.99.99c-3.5,2.52-9.45-.99-12,4-24.81,4.29-58.36,8.38-81.51-2.99l-.49,6.99c-.93-.55-1.92-.88-3-1,.56-3.58.97-6.42,0-9.99,28.13,14.48,84.2,13.29,107.5-10,1.43,3.7-.22,8.29.49,11.99Z"/>
      <path class="cls-8" d="M31.63,20.99c10.46,6.11,23.83,8.67,36,8l4.01,1.01c-1.7,3.19-1.16,6.71,0,9.99-12.68-.41-29.32-1.79-41-7-6.86-1.58-2.3-8.47-2-13,1.08.12,2.07.45,3,1ZM65.64,30.99c-9.35.56-18.44-2.05-27.48-4.02-6.74,10.94,20.01,8.25,26.02,10.76l1.46-6.74Z"/>
      <path class="cls-33" d="M84.63,146.99l1.99,3.99c-.09-1.97.17-4.03.01-5.99l3.99-1-1,4.49,2-.5-2,2.51,2.01.99-4.01,1.52,1.02,5.99c.26.29,3.26-.73,3.99-1v1c-2.64,1.03-4.86,2.98-7,4-3.58,1.7-9.65,1.84-11.8,6.71l1.8,16.29c-7.8,2.66-16.18-.38-23.51.02l-2.01-1.01c-2.88-6.69-4.07-13.3-4.38-20.62-.13-2.96,2.52-12.3-1.1-13.9s1.11,6.77-2.99,7.51c-1.06-6.34,2.66-12.08.95-18.3-.24-.89-2.61-.16-2.06-4.24,4.05-3.51.33-3.17.08-5.99-.13-1.48,1.05-2.88,1.05-3.91,0-.33-3.2-1.98-2.03-5.56.93-2.42,3.46-5.32,1-8-1.68-1.83-4,.02-4-1.99l6.99.98c-6.83-16.55,4.85-39.23,3-56.99,0,0,1-12.01,1-12.01,12.15.15,23.16,1.94,32.84,9.67,3.56,29.03-8.73,69.61,4.16,95.34Z"/>
      <path class="cls-11" d="M99.63,46.99c18.59-15,21.26,10,25.46,23.03,3.95,3.73,9.38-3.01,10.53-2.03-.37,1.32.71,2.16,1.01,3,1.98,3.97,2.14,17.01,7,18,.86,3.07,1.37,7.65,2,10,.13.5,2.03.73,2.08,2.46.06,2.01-2.24,7.45-1.6,8.6.59,1.04,7.45,4,4.52-.06.61.39,2.42.1,3.01,1.53l-3.01,11.47c0-1.39.83-5.82-.99-5.99l-3.05,28.46,1.05,22.53c2.81.1-.77-13.18,1.99-15.99l.44,16.06c5.85,1.46,11.36.83,17.56,1.94-19.21.14-40.1-.99-59,3-3.07.45-1.96-1.12-1.57-3.06,6.94-18.3,1.43-37.58-1.29-56.59-1.72-12.8-2.15-27.34-4.21-39.79-6.92-12.86-2.07-13.88-1.94-26.56Z"/>
      <path class="cls-30" d="M45.63,50.99c-1.23,19.57-9.86,41.38-2,59.99l-6.99-.98c0,2.01,2.32.16,4,1.99l-5.01,14.48,4.01.51c-3.5-3.31-2.09-4.19,0-6.99-1.16,3.58,2.03,5.23,2.03,5.56,0,1.03-1.18,2.43-1.05,3.91.25,2.83,3.97,2.48-.08,5.99-.55,4.08,1.81,3.35,2.06,4.24,1.71,6.22-2.01,11.95-.95,18.3,4.1-.74-.46-9.04,2.99-7.51,3.62,1.61.97,10.94,1.1,13.9.32,7.32,1.5,13.93,4.38,20.62l2.01,1.01c6.12-.37,11.55,1.56,18.51.98-1.05,1.65-3.79,1-5.48,1.02-14.73.19-39.06,1.16-52.52-4.02-1.2-1.42-1.82-2.19-1.79-4.18.24-16.25,3.71-33.94,3.84-50.27.05-6.35-2.69-20.71-1.88-24.81.95-4.8,9.29-7.02,6.06-14.01l12.87-50.13c.81-2.93,12.89.1,13.92.88,2.28,1.73.25,6.9-.02,9.52ZM40.62,183.99c.02-10.45.7-43.28-1.98-52.99-.21,12.1-.29,41.37,1.98,52.99Z"/>
      <path class="cls-27" d="M137.63,69.99c-1.51-6.01,1.05-4.9,1.05-9.42.01-7.64-4.99-15.92-3.56-23.57,8.05,7.88,14.7,18.16,18.05,28.95.97,3.11-.28,8.66,3.47,10.53,2.17,1.08,5.71-.08,6.84,3.16-4.45,6.61-.13,8.85.89,13.11,5.91,24.82,7.94,49.57,10.12,74.91.17,1.93,1.15,3.87-1.87,3.34-7.48-2.19-15.25-1.22-22.56-2.94-.45-18.4-1.93-38.84,3.57-56.54-.59-1.43-2.4-1.14-3.01-1.53-5.09-3.24,3.44-11.11-5-11-1.21-9.39-5.42-19.81-8-29Z"/>
      <path class="cls-24" d="M139.63,24.99c33.32,39.76,42.28,98.58,40.99,150-2.58-1.38-5.21-3.06-7.99-4,3.02.53,2.04-1.41,1.87-3.34-2.19-25.34-4.21-50.09-10.12-74.91-1.01-4.26-5.34-6.5-.89-13.11-1.13-3.24-4.66-2.08-6.84-3.16-3.75-1.87-2.51-7.41-3.47-10.53-3.35-10.79-10-21.07-18.05-28.95-1.43,7.66,3.57,15.93,3.56,23.57,0,4.52-2.57,3.41-1.05,9.42l-1,1c-.29-.84-1.38-1.67-1.01-3-1.14-.98-6.57,5.75-10.52,2.03-5.04-12.21-3.84-34.31-23.22-25.23-3.95,3.54-7.89,5.58-13.25,5.21.37-.3.62-1.49,1-2,3.62-.96,7.35-4.1,8-8,2.21-.14,4.27-.99,6.5-1.08,2.56-.1,5.27,1.71,7.8.95,1.97-.6,3.87-6.32,8.7-4.87-.04,4.07,6.29,32.85,8.5,32.98,1.42-1.58,5.41-2.21,6.52-3.46,3.81-4.29-4.52-27.24-3.86-33.8.78-2.63,6.06-4.14,7.85-5.71Z"/>
      <path class="cls-12" d="M30.63,32.99c11.68,5.21,28.32,6.59,41,7,2.43,6.89,11.38,9.75,18,8-.38.51-.63,1.7-1,2-5.01-.9.26,9.71-3,12-.03-1.7.89-6.42-.99-6.99-.32,30.58-4.4,61.51-.01,91.99-12.89-25.7-.6-66.32-4.16-95.34-9.69-7.73-20.69-9.52-32.84-9.67l-1,12c-.05-1.1.3-2.49-1-3,.26-2.62,2.3-7.79.02-9.52-1.03-.79-13.12-3.81-13.92-.88l-12.87,50.13c3.23,6.99-5.11,9.21-6.06,14.01-.81,4.09,1.93,18.45,1.88,24.81-.13,16.33-3.6,34.02-3.84,50.27-.03,2,.59,2.76,1.79,4.18-2.58-.99-11.77-7.02-11.92-9.42,12.83-41.17,6.7-85.6,21.65-126.35,1.37-4.23,3.19-15.42,8.26-15.23Z"/>
      <path class="cls-4" d="M110.63,149.99c.29,9.69-1.81,11.28-3.57,19.94-.39,1.93-1.51,3.51,1.57,3.06-5.22,1.2-10.3,3.44-14.99,6l-2.9-15.34,8.89-6.64c-2.2.48-4.93,1.18-7,1.99v-1c6.26-2.28,10.8-8.83,18-8Z"/>
      <path class="cls-18" d="M85.63,162.99l1.09,3.43c-2.68,10.84,1.63,16.16-11.09,19.57l-1.8-16.29c2.14-4.88,8.22-5.01,11.8-6.71Z"/>
      <path class="cls-13" d="M127.34,32.15c4.38-.58,7.68,29.31,6.79,30.85-.43.76-3.19,2.18-3.96,1.98-1.6-.41-7.9-26.83-7.58-29.51.24-2.01,2.94-3.25,4.75-3.32Z"/>
      <path class="cls-16" d="M79.63,31.99c3.65,2.37,6.79-1.04,10.76-1.74,3.69-.64,7.84-.76,11.59-1.17l2.65,7.89-9.01,2.01c-4.71-1.02-9.47,1.84-12-3,.58-.25,2.28-1.1,1.99-1.99h-6c-.05-.67.05-1.35,0-2.01Z"/>
      <path class="cls-28" d="M113.63,16.99c-3.41,10.4.85,5.28-8.2,7.04-8.02,7.28-10.76-.76-18.8-3.04l27-4Z"/>
      <path class="cls-21" d="M86.63,20.99c5.43.89,7.74,6.32,13,6-3.07.74-3.81.82-7,1-1.42-6.93-11.89-5.39-16-2-13.82,13.2,8.7,28.53,19,15.01h-8c2.98-.22,6.62-.79,10-1.01-4.78,16.9-33.56,6.04-25.99-9.99l-4.01-1.01c9.33.35,3.08-7.02,19-8Z"/>
      <path class="cls-22" d="M117.3,16.17c12.77-4.36,6.18,13.37-.17,16.81-4.68-2.58-3.63-15.51.17-16.81Z"/>
      <path class="cls-26" d="M125.63,12.99l-3.99-.99c3.34,1.12,10.96-7.14,12.99-6v7.99c-1.8,2.14-3.02,4.11-5.98,5l-3.01-6Z"/>
      <path class="cls-1" d="M76.63,25.99v2c4.32-.04,8.68.07,13,0l-10.01,1c-.01,1.66,0,3.34,0,5h6c.28.9-1.41,1.76-1.99,2s-2.07-.32-2.92.05l-.08,4.95c-.66-.03-1.34.05-2,0l-.09-4.96-2.92-.06,2-2.5-4.99-.49c.51-2,2.47-5.74,4-7Z"/>
      <path class="cls-5" d="M92.63,27.99c-5.32.05-10.68-.02-16.01,0v-2c4.12-3.39,14.59-4.93,16.01,2Z"/>
      <path class="cls-14" d="M109.64,37.99l-3.01-12.99c4.49-4.41,7.74,16.51,3.01,12.99Z"/>
      <path class="cls-31" d="M83.63,35.99c2.53,4.84,7.29,1.98,12,3,.79.17,2.03-.45,2,1-5.95.49-11.24,1.45-17,1l.08-4.95c.86-.36,2.35.2,2.92-.05Z"/>
      <path class="cls-10" d="M80.63,21.99c-8.87,2.09-4.48,7.12-13,7-12.17.67-25.54-1.89-36-8l.49-6.99c10.78,7.23,36.04,6.55,48.51,7.99Z"/>
      <path class="cls-6" d="M65.64,30.99l-1.46,6.74c-6.03-2.5-32.78.17-26.02-10.76,9.04,1.97,18.13,4.57,27.48,4.02Z"/>
      <path class="cls-15" d="M110.63,149.99c-8.41-.96-13.95,8.6-21.99,9l-1.02-5.99,4.01-1.52-2.01-.99,2-2.51-2,.5,1-4.49-3.99,1c-4.5-27.46-.52-55.22-1-83,3.26-2.3-2.01-12.9,3-12,4.07.59,7.5-1.43,11-3-.13,12.87-5.02,13.52,1.94,26.56,2.33,25.09,6.47,51.35,9.06,76.44Z"/>
      <path class="cls-25" d="M85.63,61.99c-.36,29.86-2.31,59.43.99,88.99-8.96-30.61-1.22-64.41-1.98-95.99,1.88.57.96,5.3.99,6.99Z"/>
      <path class="cls-20" d="M46.63,53.99c.77,15.61-5.55,33.38-5,49-3.84-16.94,2.94-34.93,4-52,1.3.51.95,1.9,1,3Z"/>
      <path class="cls-7" d="M39.63,119.99c-2.11,2.81-3.49,3.68,0,6.99l-4.01-.51,5.01-14.48c2.46,2.68-.07,5.58-1,8Z"/>
      <path class="cls-19" d="M150.63,122.99c-.03,9.59-1.87,19.31-1,29-2.78,2.88.84,16.02-1.99,15.99l-1.05-22.53,3.05-28.46c1.82.18.99,4.6.99,5.99Z"/>
      <path class="cls-23" d="M143.63,88.99c-4.85-.98-5.02-14.04-7-18l1-1c1.59,6.31,4.21,12.62,6,19Z"/>
      <path class="cls-32" d="M150.63,109.99c2.93,4.05-3.93,1.09-4.52.06-.89-2.4,4.07-9.47-.48-11.06,8.44-.11-.09,7.76,5,11Z"/>
      <path class="cls-17" d="M40.62,183.99c-2.27-11.5-2.19-41.02-1.98-52.99,2.67,9.55,2.01,42.72,1.98,52.99Z"/>
      <path class="cls-3" d="M72.63,32.99l4.99.49-2,2.5,2.92.06.09,4.96c5.03.13,11.9-.04,17,0-6.4,9.93-26.2,4.41-23-8.01Z"/>
    </g>
  </g>
</svg>