<?xml version="1.0" encoding="UTF-8"?>
<svg id="Layer_2" data-name="Layer 2" xmlns="http://www.w3.org/2000/svg" viewBox="0 0 79.5 157.36">
  <defs>
    <style>
      .cls-1 {
        fill: #fefefe;
      }
    </style>
  </defs>
  <g id="Layer_1-2" data-name="Layer 1">
    <path class="cls-1" d="M68.99,36.09c-5.03.75-16.55-3.09-21.56-5.04l-2.43,2.03c-2.15-4.04.26-7.41-.05-11.37-.46-5.76-5.6-15.16-5.98-21.62-2.61-.22-1.65-.12-1.95,1.51,1.42,16.91-18.96,28.93-29.46,13.41-1.4-2.38-1.21-6.48-3.57-7.92,2.76,18.83-.45,42.1,26.98,35-1.3,6.78-1.59,57.32-4.09,58.91L0,95.09l.96,11.29,32.1,10.28-2.65,12.49c-10-1.58-25.1-3.52-26.42-16.06-1.66-.27-1.07,2.42-1.03,3.53.53,14.79,15.53,18.32,27.94,17.57.69,31.22,40.14,29.6,47.1,2.89,8.69-12.61-22.93-8.15-29.01-8.99-.41-23.9,1.16-48.2,9.12-70.88,3.57-.16,5.53.29,8.88-1.12,1.83,1.53,7.5-.44,8.49-2.01,1.47-2.33,4.1-21.36.99-21.99-2.1.45-5.68,3.74-7.48,4Z"/>
  </g>
</svg>