<?xml version="1.0" encoding="UTF-8"?>
<svg id="Layer_2" data-name="Layer 2" xmlns="http://www.w3.org/2000/svg" viewBox="0 0 267.92 294.79">
  <defs>
    <style>
      .cls-1 {
        fill: #fefefe;
      }
    </style>
  </defs>
  <g id="Layer_1-2" data-name="Layer 1">
    <path class="cls-1" d="M231.19,109c.35-.69-.67-2.73.98-4.5,1.4-1.49,14.03-6.92,14-10-3.04-2.64-6.78-3.42-10-5.98-1.85-1.47-10.26-11.53-10.76-13.24-1.96-8.84,8.28-65.58-.72-69.26C180.94,47.6,68.17,35.06,22.2,0c-5.3,19.01.71,54.68,2.02,74.28l-21.14,15.21c-.13,7.71,5.11,13.17,11.1,14.54-3.5,5.21,6.09,8.22,9.01,11.47l-.02,1.46c-4.84.52-1.21,4.68-1.3,6.64-13.09,36.71.37,91.15-18.69,124.99,0,0,4.96,9.76,4.96,9.76-.63,2.2-5.97,2.67-7.02,4.31-4.51,7.08,5.78,17.24,11.38,20.53,8.62,5.13,20.09,5.67,28.18-.22,2.3-4.15,1.4-14.09-.42-18.54-.84-2.06-3.84-4.55-3.97-6.11-.17-2.01,2.21-1.87,2.96-3.02,2.7-4.18-1.38-6.62-2.23-10.71,4.06-25.95,24.15-67.62,25.19-96.59,9.09,16.6,24.59,12.61,39.45,10.96,31.63-.86,62.36,4.99,84.53-18.96,6.11,41.86,37.23,79.53,38.47,122.04.91,3.17,5.85,6.76,6.39,9.69,1.63,8.91-12.52,16.37,6.15,21.77,11.35,3.93,26.91-1.27,30.53-13.47.55-2.19-.14-19.86-.58-22.47-.53-3.13-3.44-5.05-3.76-7.26-.36-2.48,1.74-5.49.65-8.62-.84-2.4-5.9-2.73-6.42-5.59,1.22-14.83-8.87-30.72-12.13-45.87-4.17-18.74-16.55-50.8-13.42-68.53-.58-2.35-6.32-2.01-3.68-10.02.41-1.25,2.33-1.73,2.81-2.66Z"/>
  </g>
</svg>