<?xml version="1.0" encoding="UTF-8"?>
<svg id="Layer_2" data-name="Layer 2" xmlns="http://www.w3.org/2000/svg" viewBox="0 0 176.01 236.39">
  <defs>
    <style>
      .cls-1 {
        fill: #5b81b7;
      }

      .cls-2 {
        fill: #213f6c;
      }

      .cls-3 {
        fill: #6187bb;
      }

      .cls-4 {
        fill: #0e2a56;
      }

      .cls-5 {
        fill: #314d82;
      }

      .cls-6 {
        fill: #213a71;
      }

      .cls-7 {
        fill: #4c6ba3;
      }

      .cls-8 {
        fill: #1f3d6a;
      }

      .cls-9 {
        fill: #436098;
      }

      .cls-10 {
        fill: #324d84;
      }

      .cls-11 {
        fill: #46649c;
      }

      .cls-12 {
        fill: #49679e;
      }

      .cls-13 {
        fill: #274178;
      }

      .cls-14 {
        fill: #6993c6;
      }

      .cls-15 {
        fill: #2e4980;
      }

      .cls-16 {
        fill: #06244d;
      }

      .cls-17 {
        fill: #3b588f;
      }

      .cls-18 {
        fill: #4d73ae;
      }

      .cls-19 {
        fill: #355aa9;
      }

      .cls-20 {
        fill: #567bb3;
      }

      .cls-21 {
        fill: #2b467c;
      }

      .cls-22 {
        fill: #1d3b68;
      }

      .cls-23 {
        fill: #5682ca;
      }

      .cls-24 {
        fill: #29437a;
      }

      .cls-25 {
        fill: #37538a;
      }

      .cls-26 {
        fill: #112e5a;
      }

      .cls-27 {
        fill: #415e96;
      }

      .cls-28 {
        fill: #15335f;
      }

      .cls-29 {
        fill: #07244c;
      }

      .cls-30 {
        fill: #173461;
      }

      .cls-31 {
        fill: #3e5b92;
      }
    </style>
  </defs>
  <g id="Layer_1-2" data-name="Layer 1">
    <g>
      <path class="cls-29" d="M20.69,230.02c-2.54-1.07-5.02-3.56-6.73-3.85-2.89-.5-7.38,2.66-8.83-2.06-1.02-9.84-2.57-19.75-3.43-29.6C-1.81,152.53-.45,110.53,11.19,69.02c4.29-18.23,16.99-37.73,12.51-55.99C56.65,26.31,102.44,21.44,131.21.03c3.06-.26.49,1.08.49,1.49,0,0,0,16,0,16,47.97,76.76,46.48,124.66,42.57,213.57-3.81.78-10.07,4.63-13.62,2.46l-1.59-11.61c-16.24,3.45-9.42,4.64-24.92-1.85-6.6-1.04-10.43,2.89-15.16,2.66-2.18-.1-3.52-2.78-5.78-2.69-5.17,3.03-7,1.7-12.55,1.4-3.49.47-6.04,4.16-9.89,3.62l-.55,7.94c-5.91-2.68-3.88-9.81-5.01-15-.55,4.69-6.73,7.71-10,4.03l-3.62,7.91c-4.39-1.57-8.43,2.62-12.48,3.05-2.71.29-5.34-1.26-6.75-1.06-1.02.15-1.01,3.18-3.34,3.89-6.2,1.91-11.78-1.78-15.84-1.73-1.67.02-2.88,1.72-4.55,1.45-1.78-.29-5.1-2.67-5.93-4.54,7.03,2.95,8.06,1.22,15,2,3.56.4,7.39,1.78,11.38,1.06l3.11-4.83c4.99,3.81,6.9.92,10.51-.23,5.09-1.62,10.5-2.2,11-9,3.06,1.15,5.89,1.39,8.86-.13l4.65-43.87c2.3-.71,1.43,2.19,1.49,3.5.62,14.43-2.09,29.02-1,43.51,4.1,1.32,6.6-2.36,9.56-2.96,4.6.47,12.36-1.31,15.95-2.13,2.81.05,4.02,2.51,5.95,2.67,3.82.32,11.36-4.52,16.54-2.58,11.13,5.8,13.35,2.65,25,2,2.68,6.71,7.63-.77,13.01,1.01.1-54.68,2.98-113.06-22.1-163.4l-5.9-1.6c-.73-1.39-1.14-2.21-1.1-3.88-11.05-.86-24.52-6.2-28.92-17.11l-1.45.02c-7.37,8.38-8.2-1.52-10-1.79-6.12,3.33-23.78,4.15-28.59,6.39,2.64,37.49,2.06,76.12,6.05,113.38h-.98c-2.25,3.79-6.19-110.79-6.34-112.52-3.03-3.8-12.82-.43-17.62-1.42l-.93,5.37c-13,5.2-4.52-17.01-6.11-23.43-7.74.11-15.93-.62-23-3.99,1.16,15.17-7.51,30.65-11.02,45.49,3.94,1.85,19.93-9.97,21.01-14.49,2.27-1.68,4.79-6.65,8-8v1c-2.34,3.11-4.7,7.57-7,11-.96,1.42-3.85,1.12-2,4.99-4.38-2.58-7.84,3.47-11,5.01-2.76,1.34-8.81.75-10.99,4.51l5.99.98-7.02,3.2c-2.51,12.04-2.94,25.89-7.84,37.06-.28,2.25,1.82,3.21,1.72,4.59-7.64,34.93-2.48,73.77.29,110.02l1.5,1.5c4.46.04,12.61.05,12.36,6.14ZM121.69,9.02c-4.21,1.87-8.27,4.45-12.99,5.02.94,10.55,8.21,24.38,18.99,28.98,1.19,2.86,19.86,10.66,18.99,5.52,0,0-16-28.51-16-28.51-1.84,1.05-4.74,6.45-6.99,3.99,7.37-4.02,7.01-10.69,4.99-18-.91-.65-5.8,2.47-6.99,3ZM112.7,35.01c-2.4-5.74-2.04-14.99-7.49-18.99l2.7,18.3,1.24,1.45,3.55-.76ZM82.69,21.02c-7.88.06-15.83,1.39-23.85,1.14l-1.15,14.86c5.16-.39,10.96.62,15.92-.09l.1-2.91c1.34-.33,1.18,1.47,1.99,2,2.65,1.74,5.94.42,9,0s19.35-3.18,19.7-5.45l-3.71-13.56-17.99,4.01ZM56.7,22.03h-5.01c.78,5.89-1.73,11.67-1.04,17.55.46,3.9,2.5,5.15,3.99.9,1.8-5.13.83-12.89,2.06-18.44ZM172.65,223.07c-5.86.42-11.67,1.74-9.95,8.95,4.56-.01,4.92-4.75,9.99-1.99l-.04-6.97Z"/>
      <path class="cls-6" d="M34.69,61.02c-16.2,12.73-6.18,30.99-18.98,45.47,2.86,9.07,6.25,5.48,1.04,16.09-1.32,8,.05,19.95-1.06,28.43,2.73.28,1.6-.01,1.96-1.5.96-3.98.97-8.68,2.07-12.95,1.27-4.89,5.52-5.4-.04-10.53,3.18-.9,10.5-4.81,8.13,2.35,2.67,34.78,8.56,69.7,9.87,104.64-7.09-.63-10.11.82-17-3-2.26-38.86-18.52-76.04-6.11-115.52-.06-3.19-4.4-6.37-3.78-8.78,7.01-5.96,5.24-19.19,8.18-28.92,1.46-5.08,3.95-9.83,5.72-14.78,3.16-1.53,6.61-7.58,11-5.01-1.85-3.88,1.05-3.57,2-4.99.29,3.55-1.11,6.19-3,9Z"/>
      <path class="cls-15" d="M48.69,39.02c.39,5.68.1,7.42,7.12,5.42l.93-5.37c4.63.39,10.53-.74,14.95-.05,1.43,37.71-2.09,77.8,9.01,113.99h.98s.01-3.99.01-3.99c.81,4.88,2.03,10.4,4,15-4.19,2.28-24.56,6.75-19,13,1.39,10.77,7.67,33.94,7,43-.5,6.8-5.91,7.38-11,9-6.07-.95-3.46-9.9-4.02-14.48-4.41-36.21-7.44-71.82-10.99-108.01-1.19-12.1-5.1-29.66-4.09-41.03.29-3.25,5.11-6.22-1.9-6.48,1.48-2.02,4.73-5.52,4.51-7.99l-11.51,9.99c1.89-2.81,3.29-5.45,3-9,2.3-3.43,4.66-7.89,7-11,.58-.77,2.21-1.19,2.04-2.98l1.96.98Z"/>
      <path class="cls-31" d="M95.69,36.02c2.66-.51,5.86-1.98,8.53-2.77,1.79.27,2.63,10.17,10,1.79l1.45-.02c.22,1.51,1.08,2.85,2.02,3.99l-3.36,2.92c-8.13-7.66-.46,4.64.05,6.73,4.12,55.38,13.9,112.62,15.3,168.35,2.63-.54,3.81.15,6.01.99-5.17-1.94-12.71,2.9-16.54,2.58-7.8-5.79-11.85,1.37-21.47-1.58.4-20.1-1.15-45.73,13-61.52.98-2.69-3.63-1.07-4.99-1.49-1.84-18.15-9.36-37.97-5-55.99l-2.75-.18c-2.57-4.53,1.61-5.45,1.8-7.26-.32-2.04-2.59-3.4-2.87-5.26-.62-4.06.35-10.55-.19-14.79-.94-7.44-5.53-13.83-1.11-21.06l-2.96-2.92v-10.09s3.08-2.44,3.08-2.44Z"/>
      <path class="cls-13" d="M62.69,229.02c-3.61,1.15-5.52,4.04-10.51.23l-3.11,4.83c-3.98.72-7.81-.66-11.38-1.06-1.31-34.94-7.19-69.86-9.86-104.64.57-3.44,1.26-3.77-2.14-4.36,1.43-6.65-5.53-10.96-4.87-16.29.83-2.88,6.58-2.75,7.65-6.42-.8-23.54-1.99-22.57,13.21-42.29,7.01.26,2.19,3.24,1.9,6.48-1.01,11.37,2.9,28.92,4.09,41.03,3.56,36.18,6.58,71.79,10.99,108.01.56,4.58-2.05,13.53,4.02,14.48Z"/>
      <path class="cls-11" d="M133.69,63.02c6.02,2.56,10.57,7.82,7,14-.79,1.31-4.75,2.68-3.87,6.3.78,3.18,4.04,2.23,5.87,2.7,3,.78,5.96,1.43,9,2.01l-4.99,9.98c21.35-1.19,4.45,5.8,4.89,13.5,17.15,29.42,9.03,67.81,11.11,100.51,0,0-2,8-2,8-3.87-1.15-11.88,4.44-13.37-2.09-4.35-10.9-3.48-26.55-4.73-38.31-4.27-37.75-9.58-77.52-10.9-115.12.25-2.81.97-.21,2-1.48Z"/>
      <path class="cls-9" d="M117.69,39.02c2.97,3.61,4.06,4.56,8,7l-3,1.01,1,1.99c-1.76,2.34-5.22-2.11-7.48-2.02l-.51,2c6.17,4.03,12.2,9.21,17.99,14.02-1.03,1.27-1.75-1.33-2,1.48,1.32,37.6,6.63,77.38,10.9,115.12,1.76,7.85-1.12,43.34,10.1,41.4-11.88,2.66-12.57-3.98-23.01-3.99-1.41-55.71-11.18-112.98-15.3-168.35-.51-2.09-8.19-14.39-.06-6.73l3.36-2.92Z"/>
      <path class="cls-25" d="M95.69,36.02l-3.09,2.44v10.09s2.96,2.92,2.96,2.92c-4.42,7.24.17,13.62,1.11,21.06.54,4.24-.43,10.73.19,14.79.28,1.86,2.55,3.22,2.87,5.26-.2,1.8-4.37,2.75-1.8,7.26l2.75.18c-4.36,18.03,3.16,37.83,5,55.99.65.09,1.35-.07,2,0-6.78,3.6-14.87,5.26-22,8-11.65-39.81-5.59-83.34-10.06-124.38.32-1.17,17.18-3.07,20.06-3.62Z"/>
      <path class="cls-30" d="M107.69,156.02c1.14.15,3.87-.72,2.99,1.48-14.15,15.79-12.6,41.43-13,61.52l6.01.99c-9.83-1.41-9.15,4.06-16,3-1.1-14.49,1.62-29.08,1-43.51-.06-1.31.81-4.21-1.49-3.5l-4.65,43.87c-2.97,1.52-5.8,1.28-8.86.13.67-9.06-5.61-32.23-7-43,11.83-3.48,26.34-6.63,35.99-13.99-4.77.27-8.88,2.83-13.24,4.35-6.36,2.82-17.56,3.81-22.75,9.64-7.36-8.34,35.62-16.59,41-21Z"/>
      <path class="cls-4" d="M24.69,62.02c-1.77,4.95-4.26,9.7-5.72,14.78-2.94,9.75-1.16,22.96-8.18,28.92-.62,2.41,3.72,5.58,3.79,8.78-12.06,38.8,3.04,75.38,6.11,113.52-2.84-4.22-7.82-4.08-12.36-4.14l-1.5-1.5c-2.77-36.22-7.93-75.11-.29-110.02.11-1.38-1.99-2.34-1.71-4.59,4.9-11.18,5.33-25.02,7.84-37.06l7.02-3.2-5.99-.98c2.18-3.76,8.23-3.17,10.99-4.51Z"/>
      <path class="cls-7" d="M133.69,50.02c3.62,1.32,7.08,1.85,10.9,2.12,4.21,11.28,8.15,23.2,13.98,33.53,2.23,3.42-.05,4.27,6.17,6.01,5.26,35.12,11.1,94.49,8.96,129.35-5.41-1.79-10.28,5.72-13.01-1.01l2-8c.05,1.11-.69,3.26.99,2.99,1.72-26.75,3.65-53.64-.12-80.36-1.34-12.31-6.97-24.81-1.98-36.94-.64-2.6-4.63-2.45-5.43-3.66-1.06-1.6-.09-6.28-1.67-9.33-1.39-2.69-4.9-3.12-5.6-5.4-1.96-6.39,3.08-13.24-4.25-18.75-5.58-3.05-10.04-3.54-14.94-7.56l4-3Z"/>
      <path class="cls-26" d="M36.69,20.02c-3.97,0-2.41-1.35-2.27,1.75.21,4.42.4,8.82.28,13.24l13.99,1.01c-.02.99-.07,2.02,0,3l-1.96-.98c.17,1.79-1.47,2.21-2.04,2.98-.25-.74.67-2.36,1-2.99l-12.04-1.58-4.9,13.09,2.29,1.37c1.33-1.3,4.56-2.09,5.65-2.89-1.03,4.47-17.08,16.36-21.01,14.49,3.51-14.84,12.17-30.32,11.02-45.49,2.95,1.67,6.74,2.46,9.99,3Z"/>
      <path class="cls-17" d="M84.69,36.02l1.49-2c-2.71.2-7.16-1.32-7.5-4.49l2.84-1.63c-.08-3.79,1.27-4.52,4.17-6.39-.23-.98-2.08-.45-3-.5l17.99-4.01,3.71,13.56c-.35,2.27-16.58,5.02-19.7,5.45Z"/>
      <path class="cls-30" d="M78.69,144.02c-9.75-33-4.97-70.72-7-105,1.06.16,2.43.02,2.67,1.47l4.33,103.53Z"/>
      <path class="cls-8" d="M123.69,24.02c2.25,2.46,5.13-2.94,6.99-3.99l16,28.51c.24,1.89,0,1.41-1.5,1.52-4.99.36-13.97-3.17-17.49-7.03,19.53,6.07-4.19-10.12-3.04-16.97l-10.96,3.97c-.36-.63-.71-1.33-1-2,3.97-.3,7.44-2.54,11-4Z"/>
      <path class="cls-21" d="M36.69,20.02c4.28.71,8.64,1.28,13.01.99.45,5.09-.89,9.96-1.01,15.01l-13.99-1.01c.12-4.42-.07-8.82-.28-13.24-.15-3.1-1.7-1.75,2.27-1.75Z"/>
      <path class="cls-10" d="M71.69,22.02v15c-4.27.59-9.58-.43-14.01,0l1.15-14.86c4.25-.51,8.6.14,12.85-.14Z"/>
      <path class="cls-27" d="M121.69,9.02h2s0,15,0,15c-3.56,1.46-7.03,3.7-11,4-.81-1.89-4.57-13.34-3.99-13.98,4.72-.56,8.78-3.15,12.99-5.02Z"/>
      <path class="cls-9" d="M113.69,30.02l10.96-3.97c-1.15,6.85,22.57,23.03,3.04,16.97-4.29-1.37-11.81-9.19-14-13Z"/>
      <path class="cls-2" d="M173.69,166.02l-8.95-74.34c-8.36-.76-14.28-28.04-19.05-35.66l5.9,1.6c16.32,32.99,21.51,72.11,22.1,108.4Z"/>
      <path class="cls-24" d="M36.69,48.02c-1.08.8-4.32,1.59-5.65,2.89l-2.29-1.37,4.9-13.09,12.04,1.58-1,1.99c-3.21,1.35-5.73,6.32-8,8Z"/>
      <path class="cls-23" d="M82.69,21.02c.91.05,2.76-.48,3,.5-2.9,1.86-4.25,2.6-4.17,6.39l-2.84,1.63c.34,3.17,4.79,4.7,7.5,4.49l-1.49,2c-3.06.42-6.35,1.74-9,0,.39-4.92-1.02-10.43,1-15,1.93-.11,4.07-.1,6,0Z"/>
      <path class="cls-5" d="M56.7,22.03c-1.23,5.56-.26,13.32-2.06,18.44-1.49,4.25-3.53,3.01-3.99-.9-.69-5.88,1.82-11.66,1.04-17.56h5.01Z"/>
      <path class="cls-22" d="M121.69,9.02c1.19-.53,6.08-3.65,6.99-3,2.02,7.31,2.38,13.98-4.99,18v-15.01s-2,0-2,0Z"/>
      <path class="cls-18" d="M112.7,35.01l-3.55.76-1.24-1.45-2.7-18.3c5.45,3.99,5.08,13.25,7.49,18.99Z"/>
      <path class="cls-12" d="M172.65,223.07l.04,6.97c-5.06-2.76-5.42,1.98-9.99,1.99-1.72-7.21,4.09-8.53,9.95-8.95Z"/>
      <path class="cls-28" d="M76.69,21.02c-2.02,4.57-.61,10.08-1,15-.81-.53-.65-2.32-1.99-2l-.1,2.91c-.61.35-1.3,0-1.91.09v-15c1.81-.12,3.55-.92,5-1Z"/>
      <path class="cls-31" d="M133.69,50.02l-4,3c-3.36-2.69-2.1-3.81-6-4l-1-1.99,3-1.01c1.61.99,6.3,3.38,8,4Z"/>
      <path class="cls-19" d="M41.69,59.02c-15.22,19.73-14.02,18.74-13.21,42.29-1.08,3.67-6.83,3.54-7.66,6.42-.66,5.33,6.31,9.7,4.87,16.29l-6,2.01c5.56,5.13,1.31,5.64.04,10.53-1.11,4.27-1.11,8.97-2.07,12.95-.36,1.49.76,1.78-1.96,1.5,1.11-8.48-.27-20.43,1.06-28.43,5.21-10.55,1.79-7.09-1.04-16.09,17.07-24.5-3.59-30.29,30.48-55.46.22,2.48-3.03,5.98-4.51,7.99Z"/>
      <path class="cls-14" d="M138.69,58.02c13.65,3.51,8.7,11.9,10.19,21.31.7,2.28,4.21,2.71,5.6,5.4,1.58,3.05.61,7.73,1.67,9.33.8,1.21,4.78,1.06,5.43,3.66-4.99,12.12.64,24.62,1.98,36.94,2.68,16.14,1.05,32.14,1.12,48.36-3.92-23.04.21-51.58-13.1-71.5-.44-7.7,16.47-14.69-4.89-13.5l4.99-9.98c-3.04-.58-6-1.24-9-2.01l1.99-2.98c-9.84-3.46,2.92-10.41-6.99-18.02-2.23-1.88-.77-4.59-2-6.99h3Z"/>
      <path class="cls-20" d="M123.69,49.02c3.9.19,2.64,1.31,6,4s5.16,3.04,9,5h-3c1.23,2.41-.23,5.12,2,7-7.75-3.51-14.56-11.77-21.99-16.02l.51-2c2.25-.1,5.74,4.36,7.48,2.02Z"/>
      <path class="cls-3" d="M165.69,160.02c.72,18.38-1.12,36.68-2.01,54.99-1.68.26-.93-1.88-.99-2.99-.75-15.21.49-30.75,0-46l1.99,16.99c.64-7.42-1.29-15.89,1.01-22.99Z"/>
      <path class="cls-1" d="M140.69,77.02c-.82,3.09,1.21,5.28,3.99,6.02l-1.99,2.98c-1.83-.47-5.09.48-5.87-2.7-.88-3.62,3.08-4.98,3.87-6.3Z"/>
      <path class="cls-16" d="M66.69,177.02c5.19-5.82,16.39-6.82,22.75-9.64,4.36-1.52,8.47-4.08,13.24-4.35-9.76,7.4-24.07,10.48-35.99,13.99Z"/>
    </g>
  </g>
</svg>