<?xml version="1.0" encoding="UTF-8"?>
<svg id="Layer_2" data-name="Layer 2" xmlns="http://www.w3.org/2000/svg" viewBox="0 0 268.18 559.28">
  <defs>
    <style>
      .cls-1 {
        fill: #fefefe;
      }
    </style>
  </defs>
  <g id="Layer_1-2" data-name="Layer 1">
    <path class="cls-1" d="M248.11,317.06c9.48-1.85,20.88-8.2,20.03-19.48-27.44-78.51-55.76-165.06-42.91-247.92C177.69,40.09,116.16,27.68,76.65,0-31.4,5.5,43.66,100.86,14.25,174.71c-5.72,38.89-5.63,79.17-14.25,117.87,4.51,15.51,23.47,16.42,37.11,15.48-3.79,55.08-13.3,111.34-13,166.5,1.49,12.92,14.52,22.23,20.82,32.18,5.23,8.25,7.54,18.83,12.66,27.34,7.78,12.93,24.61,25.86,40.41,21.88l.12-113.89c15.6,3.11,31.97,1.79,48,2,1.38,27.16,6.91,87.58,7,113.99,32.58,6.16,41.84-11.59,56.57-35.91,8.16-10.76,19.9-17.8,22.97-32.03,3.34-15.46-6.57-55.32-8.54-73.56-9.19-81.35-1.62-171.41-51.01-241.49.4-4.05,3.4-5.71,4.55-9.95,1.56-5.75,1.39-13.1,1.46-19.05,5.09,2.71,3.26,22.54,5.45,29.04,4.08,17.71,15.8,37.29,22.29,54.71,10.23,27.44,15.79,56.36,23.42,84.58,5.21,4.55,11.39,3.93,17.83,2.67Z"/>
  </g>
</svg>