<?xml version="1.0" encoding="UTF-8"?>
<svg id="Layer_2" data-name="Layer 2" xmlns="http://www.w3.org/2000/svg" viewBox="0 0 79.64 144">
  <defs>
    <style>
      .cls-1 {
        fill: #fcd555;
      }

      .cls-2 {
        fill: #df7915;
      }

      .cls-3 {
        fill: #e18114;
      }

      .cls-4 {
        fill: #e17d16;
      }

      .cls-5 {
        fill: #de7512;
      }

      .cls-6 {
        fill: #fcd953;
      }

      .cls-7 {
        fill: #fbb707;
      }

      .cls-8 {
        fill: #da8a02;
      }

      .cls-9 {
        fill: #fbbc03;
      }

      .cls-10 {
        fill: #da8d02;
      }

      .cls-11 {
        fill: #fc852c;
      }

      .cls-12 {
        fill: #fb8c31;
      }

      .cls-13 {
        fill: #fefbfa;
      }
    </style>
  </defs>
  <g id="Layer_1-2" data-name="Layer 1">
    <g>
      <path class="cls-4" d="M65,117v1c-2.87.69-19.84,2.11-20,4.99h20c-5.72,3.86-28.28-1.53-29.95,7.49-.6,7.53,18.09,7.1,22.95,6.52.89-.09,1.76-.14,2,1l-15.44.99.44,4.01c-.31.04-1.26,1.07-2,1-9.44-2.77-11.06-12.43-11-20.99-3.94.64-7.45-.38-11-1.01h11s-3-4-3-4c1.02.22,3.42-.44,3.93.09l.56,2.9c8.43-5.7,21.51-4.41,31.51-3.99Z"/>
      <path class="cls-5" d="M8.01,11.01C14.92,31.49,45.06,21.51,37.01,0c7.46,5.66,9.12,9.84,6.29,18.8C36.96,38.82-.94,36.02,8.01,11.01ZM38.67,23.68c2.78-3.36,5.16-13.02,1.82-16.68-.57,17.25-19.36,22.77-31.48,11.99.34,14.07,22.89,12.87,29.67,4.68Z"/>
      <path class="cls-5" d="M34.98,106L1.18,95.81l-1.18-11.82,36,9.49c2.59,2.14-.75,9.46-1.02,12.51ZM34.91,95.1c-10.8-3.08-21.49-7.79-32.92-8.1l.05,6.96,30.59,8.92c2.09.71,2.51-7.43,2.28-7.78Z"/>
      <path class="cls-3" d="M62,36l4,1.01-1,.99-7.02.58v5.43s7.02,0,7.02,0c-6.55,2.73-18.58.9-23.53-4.98l2.61-6.95c6.16,2.25,11.63,2.86,17.92,3.93Z"/>
      <path class="cls-2" d="M29,118l3,4c-13.59,1.14-31.28-2.49-28.99-19.99,5.02,12.77,13.6,13.25,25.99,15.99Z"/>
      <path class="cls-11" d="M68,141l-3-6c6.18-2.21,14.75-8.64,3-10l6.06-1.44,1-3.96c-.83-2.06-8.05-1.57-10.06-1.6v-1c5.26.22,11.46-1.05,14.65,4.48-2.8,7.52-4.9,14.52-11.65,19.52Z"/>
      <path class="cls-12" d="M67,36c3.91.92,8.77-7.05,9.39-.14.78,8.82-2.04,8.16-8.39,9.14-2.64-1.23,1.45-.92,2.5-1.99,2.93-3-.51-6.45-3.5-7.01Z"/>
      <path class="cls-6" d="M67,36c2.99.56,6.43,4.01,3.5,7.01-1.05,1.07-5.14.76-2.5,1.99-6.24.96-6.73,1.08-13,0,3.14-.43,7.62,1.13,10-1v-6l1-.99-4-1.01c1.52.26,3.52-.28,5,0Z"/>
      <path class="cls-13" d="M47,125c5.74-.35,15.48-.64,21,0,15.66,2.53-4.36,11.54-10,12-4.87.58-23.55,1.01-22.95-6.52.38-4.8,8.46-5.26,11.95-5.48Z"/>
      <path class="cls-1" d="M66,118c1.63-.1,8.67-.18,9.06,1.6l-1,3.96c-7.86,2.46-18.74.36-27.06,1.44l16.57-.97,1.43-1.03,1-5Z"/>
      <path class="cls-7" d="M65,118c.33-.03.67.02,1,0l-1,5h-20c.21-2.91,17.08-4.3,20-5Z"/>
      <path class="cls-10" d="M38.67,23.68c-6.77,8.18-29.33,9.38-29.67-4.68,12.12,10.77,30.91,5.26,31.48-11.99,3.34,3.66.96,13.32-1.82,16.68Z"/>
      <path class="cls-8" d="M34.91,95.1c.23.35-.19,8.5-2.28,7.78l-30.59-8.92-.05-6.96c11.43.31,22.12,5.02,32.92,8.1Z"/>
      <polygon class="cls-9" points="65 38 65 44 57.99 44.01 57.98 38.58 65 38"/>
    </g>
  </g>
</svg>