<?xml version="1.0" encoding="UTF-8"?>
<svg id="Layer_2" data-name="Layer 2" xmlns="http://www.w3.org/2000/svg" viewBox="0 0 262.66 309.41">
  <defs>
    <style>
      .cls-1 {
        fill: #fefefe;
      }
    </style>
  </defs>
  <g id="Layer_1-2" data-name="Layer 1">
    <path class="cls-1" d="M60.67,2.36C-14.84,5.75,29.11,84.53,20.67,131.86c-12.66,52.2-7.89,110.83-20.67,165.07,8.58,8.05,25.31,12.57,34.57,3.76.68-2.12-5.21-16.8-4.46-23.37,8.81-34.89,22.95-71.68,28.56-106.95,2.57,1.9,3.87,5.12,6.46,7.04.35.26,5.92,3.73,6.31,3.94,10.86,2.42,30.43,3.62,42.23,4.03,19.57,10.1,61.78-5.98,64-29,.95-.28.95-1.15,1-2,2.33.72,1.91,2.62,2.06,4.44,2.37,39.37,37.92,89.27,45.05,128.5l2.96.61s.09,16.79.09,16.79c10.14,8.67,32.74,5.54,33.83-10.74-16.77-44.2-25.07-95.41-36.99-139.6-24.17-62.03,40.53-137.28-57-151-7.26-1.42-13.71,4.26-21,6-23.29,4.79-58.78,6.27-79.51-6.99l1.51-2c-3.4-1.42-7.09,1.66-8.99,1.99Z"/>
  </g>
</svg>