<?xml version="1.0" encoding="UTF-8"?>
<svg id="Layer_2" data-name="Layer 2" xmlns="http://www.w3.org/2000/svg" viewBox="0 0 169.01 197.47">
  <defs>
    <style>
      .cls-1 {
        fill: #3f130b;
      }

      .cls-2 {
        fill: #170402;
      }

      .cls-3 {
        fill: #642519;
      }

      .cls-4 {
        fill: #340d07;
      }

      .cls-5 {
        fill: #a53f2a;
      }

      .cls-6 {
        fill: #51130d;
      }

      .cls-7 {
        fill: #330d07;
      }

      .cls-8 {
        fill: #852d1e;
      }

      .cls-9 {
        fill: #2d0d09;
      }

      .cls-10 {
        fill: #140303;
      }

      .cls-11 {
        fill: #842d1d;
      }

      .cls-12 {
        fill: #2f0e0a;
      }

      .cls-13 {
        fill: #5f2317;
      }

      .cls-14 {
        fill: #3b110a;
      }

      .cls-15 {
        fill: #762e1f;
      }

      .cls-16 {
        fill: #712c1e;
      }

      .cls-17 {
        fill: #1c0502;
      }

      .cls-18 {
        fill: #612317;
      }

      .cls-19 {
        fill: #561e13;
      }

      .cls-20 {
        fill: #300f0a;
      }

      .cls-21 {
        fill: #6f2a1d;
      }

      .cls-22 {
        fill: #4a180f;
      }

      .cls-23 {
        fill: #59170f;
      }

      .cls-24 {
        fill: #762518;
      }

      .cls-25 {
        fill: #350e08;
      }

      .cls-26 {
        fill: #310c06;
      }

      .cls-27 {
        fill: #511c12;
      }

      .cls-28 {
        fill: #57170f;
      }

      .cls-29 {
        fill: #1f0603;
      }

      .cls-30 {
        fill: #5e1f14;
      }

      .cls-31 {
        fill: #1a0502;
      }

      .cls-32 {
        fill: #632519;
      }

      .cls-33 {
        fill: #42140c;
      }
    </style>
  </defs>
  <g id="Layer_1-2" data-name="Layer 1">
    <g>
      <path class="cls-31" d="M159.86,144.47h-1c4.24-13.56-5.11-23.91-10-35-7.56-17.61-7.78-38.5-7-57.51.05-1.21-.76-3.72.99-3.48,1.64,17.89-.05,35.97,6.01,52.99,2.64,7.43,6.64,16.28,9.95,23.55.45.99.67,2.34,2.04,2.45,5.61-11.6,7-15.45,4.01-28-6.07-32.51-4.27-82.43-45.99-91,.48,5.12-2.25,6.58-7.01,6.01-3.53,3.28,21.97,21.48,18.51,27.99-3.54-5.04-10.01-13.52-16.5-13.5,2.52,2.37,4.82,4.81,6.99,7.51-4.44-.84-8.49-5.64-13-4.5l5,4.5c-1.73-.34-4.13.24-5.99,0l4.99,5.99c-.46-.21-1.74.08-2.94-.52-1.46-.73-7.72-8.74-7.06-1.48-39.66-4.33-25.89,54.41-46.86,71.72-1.07,3.89,6.93,14.54,8.63,19,3.36,8.82,5.24,28.92-.9,36.64-2.16,2.71-7.24,3.08-9.57,6.54-7.5-4.37-5.66,2.33-10.92,4.96-13.27,2.7-6.58.66-15.89,9.12-3.62,1.31-4.39-21.1-3.49-23.99-9.23,1.52-11.69,17.59-16.99,15.98l6.85-16.35c-4.2-5.62-14.97-3.25-8.78-13.07l-3.93-4.93,14.69-11.36c-4.31-27.65-1.14-42.12,18.56-62.38C52.11,46.59,56.69-6.01,102.27.56c46.89,1.17,62.54,48.59,61.68,88.32,1.39,9.91,6.87,12.38,4.46,25.63-1.01,5.55-6.77,12.62-7.34,15.69-.81,4.34.81,6.78-1.2,14.27ZM67.86,42.47c4.03-14.59,13.56-20.37,24.99-28.99-11.04-.38-18.05,9.48-26.5,14.98.04-7.63,11.65-15.33,18.51-17.49,1.46-.46,18.88-2.36,15.99-6.48-12.68-6.52-33.9,6.54-38.99,17.98-4.76,4.66-7.37,11.72-9,18-5.42,9.84-8.86,20.53-15.34,30.19-14.67,17.59-29.13,36.68-20.16,60.79l3.49-4.97c-.24,10.34-11.27,15.95-18.97,20.49l3.88,3.17-1.47,6.35c2.52,1.39,5.06,2.57,7.57,3.98.76.43,1.88,2.43,3,1.53,8.14-11.67,25.22-24.82,23.99-39.53-3.98-1.81-7.73,12.39-9.99,13.99-1.93-6.62,7.27-18.82,13-22,6.01-.94,9.07-5.85,13.51-9,1-.41-.24,3.1,1.5,1.51,12.95-16.41,7.57-50.21,26-64.51,2.95-2.44,22.61-11.04,17.99-16-8.83.67-16.34,7.76-21.99,13.99,2.12-9.71,11.74-13.4,18.99-18.51,1.26-6.26-12.58,1.79-14.53,3.48-17.41,14.99-16.58,43.12-26.46,61.54-5.42,9.21-16.23,14.66-23.01,22.49,0,0-9.01,9.49-9.01,9.49.95-3.51,3.43-6.6,5.58-9.45,2.81-3.74,2.19.17,3.43-6.04,2.09.86,2.26.79,4-.41,29.56-19.61,17.77-34.2,30-60.59ZM56.86,168.47c11.31-1.56,6.89-29.55,4.52-37.02-1.86-4.79-8.57-10.75-8.53-16.98l-4.01,1.6c1.22,4.76,8.35,18.58,6.53,23.39-2.61-2.44-2.11-8.74-6.5-8.99.89,13.75-3.92,27.12-13.51,36.99-.76-1.66.94-4.05,1.51-5.99,6.8-12,10.67-27.25,8.52-41.02l-5.08,3-.43,8.02c-3.32,6.47-6.59,15.35-12,21-1.67,2.54-15.73,11.78-12.51,14,0,0,9.51-4.99,9.51-4.99.66,2.73-1.94,23.09,2.49,22.99,3.99-7.07,8.8-4.59,13.5-6.51,2.44-.99,4.33-6.19,6.02-7.03,2.64-1.31,4.71.89,6.34.63.25-.04,1.78-1.97,3.66-3.08Z"/>
      <path class="cls-10" d="M120.86,36.47c24.66,25.68-8.51,74.06,31,99-4.77,2.74-14.95-12.31-17.49-16-7.9,18.15-30.95,35.85-27.47,57.48.26,1.39-.97,2.95,1.45,2.51,12.4-11.42,18.68-25.98,18.52-42.99,2.66,18-.76,27.11-12.96,40.54-2.02,2.3-5.79,2.68-5.04,6.45,5.24-3.66,10.3,1.88,14.49,1.87,15.09.66,14.66-19.53,18.49-29.86,2.12,2.96.01,5.93.01,7.49-.49,14.06-.75,20.96,11.5,30.48,1.56-4.85,5.67-3.16,7.55-4.46,1.09-.75.41-4.04,2.94-3.54-3.25-3.33-17.12-16.88-12-20.97l5,8.99c1.86-13.62-4.1-24.04-10.99-35,1.17-4.28,8.23,10.66,9.5,11.98,1.46-.63,1.1-2.34,1.5-2.98.62-.99,1.57-1.53,2-3h1c-2.6,9.65-1.49,7.77-.99,16.5.5,8.72-2.74,14.23,4.49,20.51,2.02,1.76,5.15,1.25,4.5,3.98-3.41-.13-3.97,4.51-6,5.51-3.89,1.92-7.3-1.41-5,6.51-9.49-4.51-17.08-11.78-17-22.99l-10.49,14.99-.54-2.95c-5.71,1.89-9.07-1.07-13.73-1.84-3.5-.58-6.81,1.37-9.77-1.15-6.38-24.54,11.85-40.26,23.36-58.74,6.79-12.43-.42-14.81-.84-25.87.71-27.29,7.76-49.14-25.99-58.45-.66-7.26,5.6.75,7.06,1.48,6.48,1.66,11.9,3.41,16.93,8.52-1.28-5.09-7.89-13-12.99-14l-5-4.5c4.51-1.13,8.55,3.66,13,4.5Z"/>
      <path class="cls-1" d="M164.86,99.47c-5.27,2.79-11.54-2.8-16,2-6.06-17.02-4.37-35.1-6.01-52.99-1.74-.23-.94,2.27-.99,3.48-.78,19.01-.57,39.9,7,57.51-2.74-3.33-3.72.25-6.27-.12-4-.58-3.2-.11-5.23-.17-1.27-.04-4.98-6.49-4.5.29-4.59-12.69-1.22-21.86-1-35,2.63.95,2.91-6.27,2.98-7.52.44-8.74-4.78-16.93,5.9-17.63.56-.47-.08-2.17.12-2.85.33-1.15,1.55-2.29,1-4.02l3.02.59c.97-5.8,1.98-5.34,5.98-8.58,12.28,23.2,8.34,41.21,14,65Z"/>
      <path class="cls-14" d="M66.86,43.47c-10.15,27.2-.36,39.83-29,59.59-1.74,1.2-1.91,1.27-4,.41l1-4.99h-4c1.93-7.57,7.73-13.23,10.99-20.01-5.31,3.81-11.3,12.8-12.99,19l-4.86-1.14-.14-4.87h-2c4.59-7.81,10.77-13.51,15.66-20.8,6.48-9.66,9.92-20.35,15.34-30.19,3.59-1.1,2.64-10.2,7.49-8.99,2.6.82.52,12.4,6.51,11.99ZM35.87,91.47c10.12-9.12,21.38-18.87,23.98-33-3.57,3.85-5.06,9.98-8.03,14.23-4.4,6.28-13.17,11.05-15.95,18.77Z"/>
      <path class="cls-7" d="M150.86,34.47c-3.99,3.24-5.01,2.78-5.98,8.58l-3.02-.59c.54,1.72-.67,2.87-1,4.02-.88-1.54-4.04-1.31-5.39-.87-1.88.62-.79,3.8-3.59,2.87l-3-5c4.2,14.37,3.25,30.34,1.99,45,.39-21.56,2.41-45.28-16.99-59.51,6.51,0,12.94,8.45,16.5,13.5,3.46-6.51-22.04-24.71-18.51-27.99,4.76.57,7.49-.89,7.01-6.01,15.5,2.19,24.95,12.7,31.99,26Z"/>
      <path class="cls-21" d="M33.86,150.47l4.98,3.03c.3.34-1.61,6.69-1.98,7.97-.56,1.94-2.27,4.33-1.51,5.99,3.72-3.92,6.44-8.6,9.51-12.99.6-.86,2.63-1.4,2.01-3.99l1.54,2.05,9.45-.05c0,5.2.76,11.21-1,16-1.88,1.11-3.41,3.04-3.66,3.08-1.63.26-3.7-1.94-6.34-.63-1.69.84-3.58,6.03-6.02,7.03-4.7,1.91-9.5-.56-13.5,6.51-4.41.16-1.83-20.34-2.49-22.99l-9.51,4.99c-3.23-2.2,10.84-11.47,12.51-13.99-.66,1.02-3.13,4.84-2.51,5.99,2.96-1.84,6.61-5.17,8.51-7.99Z"/>
      <path class="cls-27" d="M28.86,99.47c-.56,2.51-2.44,8.16-.01,9.99-.06-3.8.82-7.43,2.01-10.99h4s-1,5-1,5c-1.24,6.21-.62,2.31-3.43,6.04-2.15,2.85-4.62,5.93-5.58,9.45l9.01-9.49,5.01,2.01c1.31,1.74-9.97,8.59-4.01,8.99-1.88,3.73-8.02,11.68-6,16-.82,1.6,0,4.75-2.99,3.99l1-7.99-7-1c.62-1.44.91-3.41.99-4.99l-3.49,4.97c-3.8-7.65-2.86-23.5.5-31.98l1,2.49,1.02-3.5,8.97,1Z"/>
      <path class="cls-33" d="M68.86,66.47c-1.54,9.64-5.18,34.27-11.99,40.51-1.74,1.59-.5-1.92-1.5-1.51-.66.89-1.68,1.33-2.51,2v-1.99c-.96-.72-6.75,1.86-8,2.99-3,.28-5.8,2.96-8-2,27.97-19.76,23.71-33.77,34-63,1.2,7.29-.82,16.09-2,23Z"/>
      <path class="cls-26" d="M61.86,22.47c5.1-11.44,26.3-24.5,38.99-17.98,2.89,4.12-14.52,6.02-15.99,6.48-6.86,2.16-18.47,9.86-18.51,17.49,8.45-5.5,15.46-15.37,26.5-14.98-11.48,8.65-20.95,14.39-24.99,28.99,1.53-3.75-2.79-4.78-3.02-5.7-.45-1.83.59-4.14-.46-6.33-.73-1.53-3.5-1.67-3.6-2.55-.17-2.41,2.92-3.72,1.08-5.42Z"/>
      <path class="cls-32" d="M19.86,131.47l7,1-1,7.99c3,.76,2.18-2.4,2.99-3.99.54-1.06,1.44-1.95,2-3l2.99-1c1.49,9.61-16.4,21.84-21.99,28-2.5-1.41-5.05-2.59-7.57-3.98l1.47-6.35-3.88-3.17c6.49-3.81,14.77-8.12,17.98-15.5Z"/>
      <path class="cls-19" d="M148.86,109.47c.71,1.64,1.29,3.4,2,5l-7.07-.57-.93,8.57c2.89.87,1.74-2.29,3.6-2.86,2.25-.69,5.67.94,7.4-1.13,4.09,8.98,9.82,19.66,3,29-1.68-2.38-8.39-8.04-3.51-9.01,3.94-.79.47-2.42-1.49-2.99-9.92-5.91-15.59-15.35-19-26-.48-6.78,3.23-.33,4.5-.29,2.03.07,1.24-.41,5.23.17,2.55.37,3.53-3.21,6.27.12Z"/>
      <path class="cls-4" d="M70.86,43.47c2.21-5.06,8.37-14.46,12.47-18.03,1.95-1.7,15.79-9.74,14.53-3.48-7.25,5.11-16.87,8.8-18.99,18.51,5.66-6.23,13.15-13.31,21.99-13.99,4.61,4.96-15.04,13.56-17.99,15.99-3.14-2.13-4.26,3.6-7.49,4.02-2.41.31-1.19-1.54-2.03-2.97-.9-1.53-2.44-.17-2.48-.05Z"/>
      <path class="cls-22" d="M164.86,99.47c2.98,12.55,1.6,16.4-4.01,28-1.37-.11-1.59-1.46-2.04-2.45-3.31-7.27-7.3-16.12-9.95-23.55,4.46-4.8,10.73.79,16-2Z"/>
      <path class="cls-12" d="M54.86,132.47l-6.02-16.4,4.01-1.6c-.04,6.24,6.67,12.19,8.53,16.98,2.37,7.48,6.79,35.45-4.52,37.02,2.03-12.76,1.94-27.28-1.01-39.99-1.67-.27-1.06,2.99-.99,3.99Z"/>
      <path class="cls-13" d="M57.86,152.47l-9.45.05-1.54-2.05c.62,2.59-1.41,3.13-2.01,3.99,2.59-7.75,4.6-15.73,4.01-23.99,4.39.25,3.89,6.55,6.5,8.99,1.82-2.46-2.89-9.81.48-10.99,2.57,7.81,2.01,15.89,2.01,23.99Z"/>
      <path class="cls-18" d="M39.86,131.47c.37-.58,4.18-4.96,4.99-3.99,1.01,11.39-1.99,24.2-7.99,33.99,2-8.7,4.25-6.75-3-11,1.56-2.33,4.6-6.01,1.02-7,.15,2.44-2.01,2.92-3.02,4,3.27-4.44,5.38-11.84,8-16Z"/>
      <path class="cls-6" d="M61.86,22.47c1.84,1.71-1.25,3.01-1.08,5.42.1.88,2.87,1.02,3.6,2.55,1.05,2.19.01,4.5.46,6.33.58.78,5.86,3.64,2.02,6.7-5.99.41-3.91-11.18-6.51-11.99-4.85-1.21-3.9,7.9-7.49,8.99,1.63-6.28,4.24-13.34,9-18Z"/>
      <path class="cls-23" d="M82.86,42.47c-7.05,5.83-10.86,15.69-14,24,.75-4.67,2-11.4,2.65-16.64.22-1.75-1.25-4.58-.65-6.36.04-.12,1.58-1.48,2.48.05.84,1.43-.38,3.28,2.03,2.97,3.22-.42,4.35-6.15,7.49-4.02Z"/>
      <path class="cls-25" d="M112.86,36.47c5.1,1,11.71,8.91,12.99,14-6.85-7.36-13.1-4.57-18.98-13.99,1.86.23,4.27-.34,5.99,0Z"/>
      <path class="cls-11" d="M44.86,108.47c1-.09,3.47-.4,4,.5-4.76,3.69-9.86,7.13-14,11.5-5.97-.41,5.31-7.26,4.01-8.99l-5.01-2.01c.49-1.63,2.04-2.1,3-3,2.2,4.96,5,2.28,8,2Z"/>
      <path class="cls-9" d="M30.86,133.47c.41-.77,5.57-13.78,7.99-10.99.66,6.64-2.04,13.54-6.99,17.99.58-1.3,2.75-7.18,1.99-8l-2.99,1Z"/>
      <path class="cls-8" d="M150.86,114.47c.16.37,2.11,2.07,3,4-1.73,2.07-5.15.44-7.4,1.13-1.85.57-.71,3.73-3.6,2.86l.93-8.57,7.07.57Z"/>
      <path class="cls-9" d="M44.86,138.47c.37-3.48-.26-7.44,0-10.99-.81-.97-4.63,3.41-4.99,3.99l.43-8.02,5.08-3c.51,5.57,1.48,12.75-.52,18.02Z"/>
      <path class="cls-24" d="M21.86,91.47h2s.14,4.86.14,4.86l4.86,1.14c-.15.56.14,1.4,0,2l-8.97-1-1.02,3.5-1-2.49c1.37-3.89,1.98-4.56,4-8Z"/>
      <path class="cls-5" d="M33.86,150.47c-1.89,2.83-5.54,6.15-8.51,7.99.01-3.88,4.08-8.11,6.51-10.99,1.01-1.09,3.17-1.57,3.02-4,3.58.99.54,4.67-1.02,7Z"/>
      <path class="cls-9" d="M28.86,144.47c-4.01,6.09-9.28,11.73-14,17.53-1.13.9-2.25-1.11-3-1.53l17-16Z"/>
      <path class="cls-30" d="M44.86,108.47c1.25-1.13,7.04-3.72,7.99-2.99v1.99c-3.32,2.68-6.05,6.42-10.99,7,2.3-1.88,4.45-3.9,7-5.5-.52-.9-3-.59-4-.5Z"/>
      <path class="cls-20" d="M151.86,135.47c1.96.56,5.43,2.2,1.49,2.99-4.88.97,1.83,6.63,3.51,9.01-.4.64-.04,2.35-1.5,2.98-1.71-2.32-6.6-12.41-9.01-12.96-.58-.13-.45,1.01-.49.98-2.5-.58-9.75-9.99-9-4-.91-1.29-5.29-6.8-4.99-2.51.92,2.12,5.82,7.17,7.53,10.47,5.01,8.4,9.75,33.53,5.46,42.04-.52-1.02-3-6.14-3-6.5v-15c0-1.57,2.11-4.53-.01-7.49l-1.99,6.99c.86-1.8-8.1-28.72-9.99-26-.21,4.75-1.06,9.36-2.01,14l-.99-13.99c.16,17-6.13,31.57-18.52,42.99-2.41.44-1.19-1.12-1.45-2.51-3.48-21.64,19.56-39.32,27.47-57.48,2.53,3.67,12.73,18.74,17.49,16Z"/>
      <path class="cls-16" d="M125.86,159.47c2.46,2.52,4.37,1.89,7.41.91l.61,2.08,3.48-1.98c4.8,4.37-2.11,20.55-6.47,23.37-12.69,4.62-13.98-4.83-22.02-.38-.76-3.77,3.02-4.15,5.04-6.45,4.05-4.6,9.68-11.92,11.95-17.55Z"/>
      <path class="cls-3" d="M136.86,134.47c-.75-5.99,6.5,3.42,9,4,6.89,10.96,12.85,21.38,10.99,35l-5-8.99c-1.53-.37-1.15,2.23-.99,2.99l-3,1c.24-11.92-3.32-24.97-11-34Z"/>
      <path class="cls-15" d="M150.86,167.47c1.41,6.64,8.45,13.3,12.99,17.98-2.53-.5-1.85,2.79-2.94,3.54-1.87,1.3-5.98-.39-7.55,4.46-3.37-3.34-6.43-4.96-8.5-8.98,2.39-4.66,2.29-10.86,3-16l3-1Z"/>
      <path class="cls-3" d="M139.86,162.47l-1,4c.05-1.79.46-5.14-1.51-5.99l-3.48,1.98-.61-2.08c-3.04.99-4.94,1.62-7.41-.91,2.14-7.59,3.37-15.19,4.01-23,1.89-2.72,10.85,24.2,9.99,26Z"/>
      <path class="cls-28" d="M131.86,74.47c.09-10.45.08-20.99-2.99-31l3,5c2.81.93,1.72-2.25,3.59-2.87,1.35-.44,4.51-.67,5.39.87-.2.68.44,2.38-.12,2.85-10.68.71-5.46,8.91-5.9,17.64-.07,1.25-.35,8.47-2.98,7.52Z"/>
      <path class="cls-17" d="M35.87,91.47c2.77-7.72,11.55-12.49,15.95-18.77,2.97-4.25,4.46-10.38,8.03-14.23-2.6,14.13-13.86,23.88-23.98,33Z"/>
      <path class="cls-29" d="M30.86,98.47c-1.19,3.57-2.07,7.19-2.01,10.99-2.43-1.84-.55-7.49.01-9.99.18-7.23,7.45-16.61,12.99-21-3.26,6.78-9.06,12.44-10.99,20Z"/>
      <path class="cls-2" d="M136.86,134.47c9.31,11.18,12.85,27.68,10,42-1.91-11.36-1.21-23.69-7.46-34.04-1.71-3.3-6.61-8.35-7.53-10.47-.3-4.32,4.09,1.26,4.99,2.51Z"/>
    </g>
  </g>
</svg>