<?xml version="1.0" encoding="UTF-8"?>
<svg id="Layer_2" data-name="Layer 2" xmlns="http://www.w3.org/2000/svg" viewBox="0 0 102.79 60.57">
  <defs>
    <style>
      .cls-1 {
        fill: #6f6f6f;
      }

      .cls-2 {
        fill: #5a5a5a;
      }

      .cls-3 {
        fill: #5b5c5c;
      }

      .cls-4 {
        fill: #868786;
      }

      .cls-5 {
        fill: #272727;
      }

      .cls-6 {
        fill: #767777;
      }

      .cls-7 {
        fill: #f2f2f2;
      }

      .cls-8 {
        fill: #3a3a3a;
      }

      .cls-9 {
        fill: #6d6d6d;
      }

      .cls-10 {
        fill: #1a1a1a;
      }

      .cls-11 {
        fill: #464646;
      }

      .cls-12 {
        fill: #f4f4f4;
      }
    </style>
  </defs>
  <g id="Layer_1-2" data-name="Layer 1">
    <g>
      <path class="cls-3" d="M89.83,56.64c.95-.18,1.08-1.19,1-2,1.17.62,3.03,1.83,4.1.4.4-.53,4.19-6.94,4.3-7.35.33-1.21-1.51-10.47-2.4-5.05-.06-.3-3.22-4.39-4.49-4l-2.51,7c-1.64-4.44-.26-9.98,4.99-8l-.99-4.99c-1.36-.3-1.99.39-3,.99.11-2.97.87-6.08,1-9l2-1c0,15.68,7.16,11.03,8.96,21.4-.16,4.44-6.47,11.33-8.94,15.17-2.99,1.62-3.3-2.61-4.02-3.56Z"/>
      <path class="cls-5" d="M90.83,33.64c1.01-.6,1.65-1.29,3-.99l.99,4.99c-11.71-3.71-2.13,24.17,2.01,5,.88-5.42,2.72,3.83,2.4,5.05-.11.41-3.9,6.82-4.3,7.35-1.07,1.43-2.93.23-4.1-.4-.37-3.8-5.83-6.93-6.03-7.72-.28-3.9,2.5-11.14,6.03-13.28Z"/>
      <path class="cls-8" d="M6.83,24.64c.99-1.54.95-2.32,2.97-1.97.2,1.68,2.04,2.77,3.03,3.97-2.94,7.44,9.09,3.82-2,17-3.27-1.07-2.91-2.34-4-4,3.1,2.36,4.95-1.31,5.84-3.73.92-1.75-3.06-7.53-4.82-6.27l-2.02,7.99c-1.26-3.04-3.07-3.88-.17-7.52l-1.83-1.48c1.23-1.91,1.25-2.22,3-4Z"/>
      <path class="cls-2" d="M4.83,46.64l2-2c.9,1.1,1.03,2.14,3,2-.44.78-2.24.79-2,1.5.37,1.08,1.34,1.84,2.47.48.99-1.19,5.73-8.72,6.06-9.95,2.79-6.87-6.39-5.8-3.54-12.03,10.8,12.16,3.78,14.5-3.5,25.98-2.4-1.47-3.11-4.03-4.5-5.98Z"/>
      <path class="cls-10" d="M5.83,37.64c1.71,2.63,1.02,4.55,5,6-.6,1.01-.63,2.34-1,3-1.97.14-2.1-.9-3-2-3.8-4.64-8.61-11.07-3-16l1.83,1.48c-2.9,3.64-1.09,4.48.17,7.52Z"/>
      <path class="cls-11" d="M86.83,38.64c-.44,2.67-2.78,5.41-2.03,8.28-.07.41,9.22,6.86,5.03,9.72-4.28-4.71-9.74-13.02-3-18Z"/>
      <path class="cls-9" d="M10.83,24.64c-.56-.5-.88-1.24-1.03-1.97-2.03-.35-1.99.44-2.97,1.97.47-5.03.42-9.65,3-14,.36,4.67,1.4,9.26,1,14Z"/>
      <path class="cls-8" d="M6.83,44.64l-2,2c-3.52-4.95-6.27-6.62-4-13,.42,3.54,3.69,8.16,6,11Z"/>
      <path class="cls-6" d="M91.83,24.64c.22-4.97-.16-10.02,0-14.99,3.87-3.09,1.31,11.92,1.99,13.99l-2,1Z"/>
      <path class="cls-4" d="M7.83,15.64V.64c2.74-3.6,1.93,9.06,2,9.99-.69,1.13-1.73,3.82-2,5Z"/>
      <path class="cls-7" d="M96.83,42.64c-1.05,4.62-3.85,11.12-7,3l2.51-7c1.27-.4,4.43,3.7,4.49,4Z"/>
      <path class="cls-12" d="M6.83,39.64c-.14-.22-.86-1.66-1-2l2.02-7.99c1.76-1.27,5.73,4.51,4.82,6.27-.88,2.41-2.74,6.08-5.84,3.73Z"/>
      <path class="cls-1" d="M14.83,32.64c1.83,2.43,2.75,1.53,1.54,6.03-.69.91-6.73,14.49-8.53,9.47-.24-.7,1.55-.72,2-1.5.37-.66.4-1.99,1-3,1.89-3.2,6.44-6.27,4-11Z"/>
    </g>
  </g>
</svg>