<?xml version="1.0" encoding="UTF-8"?>
<svg id="Layer_2" data-name="Layer 2" xmlns="http://www.w3.org/2000/svg" viewBox="0 0 265.41 571.79">
  <defs>
    <style>
      .cls-1 {
        fill: #fefefe;
      }
    </style>
  </defs>
  <g id="Layer_1-2" data-name="Layer 1">
    <path class="cls-1" d="M214.44,6.9c-60.18,14.38-127.79,13.85-188.52,3.15l-1.48,1.85c-2.44,14.87-9.19,28.85-15,42-1.38,6-13.55,24.1-8,28,3.43,3.1,2.92,4.31,7,7,10.47,4.48,3.55,3.36,6,10,5.79,3.68,8.2,7.02,15,9,4.81,1.29,26.98,3.85,29.59.99.89-.96-.58-1.81-.59-1.99,0-.45.82-1.4,1-2,.56.18,3.78.75,5,1,.13.45.55.93,1,1,3.74,8.92.51,16.94,1.23,26.27.95,4.59,5.65,6.17,5.77,10.73-37.44,86.57-18.19,179.66-17.95,270.54-.1,5.96-3.21,6.74,3.86,11.12l-2.86,8.74,4.02,2.22c.27,24.01,2.07,47.81-1.87,71.61,12.88,23.94,45.09,41.19,68.79,20.77-14.56,50.69,111.24,62.78,106.04,1.46-1.14-48.71-8.07-98.52-9.08-147.91.67-85.02,10.68-175.47-41.95-247.55,8.46-7.37,7.05-21.97,7-32,8.69-2.19,15.95-3.84,24-8,1.59-.82,2.73-2.41,5-2,1.7,10.06,6.64,9.1,15,6,11.25-3.26,21.67-11.32,25.97-22.53l-3.97-6.47c3.26-3.22,2.3-1.88,6-5,3-2.96,6.07-2.03,4.57-8.01-7.6-18.05-22.23-38.55-32.11-55.99l-1.8-.9c-5.03,3.72-10.94,5.06-16.67,6.9Z"/>
  </g>
</svg>