<?xml version="1.0" encoding="UTF-8"?>
<svg id="Layer_2" data-name="Layer 2" xmlns="http://www.w3.org/2000/svg" viewBox="0 0 169.01 197.47">
  <defs>
    <style>
      .cls-1 {
        fill: #fefefe;
      }
    </style>
  </defs>
  <g id="Layer_1-2" data-name="Layer 1">
    <path class="cls-1" d="M159.86,144.47c2.02-7.48.39-9.93,1.2-14.27.58-3.07,6.33-10.14,7.34-15.69,2.42-13.26-3.07-15.72-4.46-25.63.85-39.72-14.78-87.16-61.68-88.32C56.69-6.02,52.11,46.59,33.25,72.37c-19.73,20.4-22.85,34.56-18.55,62.38l-14.69,11.36,3.93,4.93c-6.19,9.82,4.58,7.45,8.78,13.07l-6.85,16.35c5.25,1.64,7.82-14.51,16.99-15.98-.88,2.89-.17,25.19,3.49,23.99,9.34-8.5,2.63-6.41,15.89-9.12,5.27-2.63,3.42-9.34,10.92-4.97,2.33-3.46,7.42-3.83,9.57-6.54,6.14-7.72,4.26-27.82.9-36.64-1.7-4.47-9.7-15.11-8.63-19,.38-1.38,7.53-8.95,9.33-13.75,8.05-30.09,10.49-77.87,55.04-49.99,14.89,12.31,7.87,34.52,8.47,50.46.42,11.06,7.62,13.44.83,25.87-11.51,18.45-29.75,34.25-23.36,58.74,2.96,2.52,6.27.57,9.77,1.15,4.66.77,8.02,3.73,13.73,1.84l.54,2.95,10.49-14.99c-.08,11.22,7.51,18.48,17,22.99-2.29-7.91,1.11-4.58,5-6.51,2.03-1,2.59-5.64,6-5.51.65-2.73-2.47-2.22-4.5-3.98-7.23-6.28-3.99-11.79-4.49-20.51-.5-8.73-1.61-6.84.99-16.5Z"/>
  </g>
</svg>