<?xml version="1.0" encoding="UTF-8"?>
<svg id="Layer_2" data-name="Layer 2" xmlns="http://www.w3.org/2000/svg" viewBox="0 0 265.75 149.89">
  <defs>
    <style>
      .cls-1 {
        fill: #9ec7ed;
      }

      .cls-2 {
        fill: #5a8fc4;
      }

      .cls-3 {
        fill: #71a1cf;
      }

      .cls-4 {
        fill: #97c2ea;
      }

      .cls-5 {
        fill: #dde2e8;
      }

      .cls-6 {
        fill: #dbe2e7;
      }

      .cls-7 {
        fill: #dce1e6;
      }

      .cls-8 {
        fill: #e5e5e6;
      }

      .cls-9 {
        fill: #dce0e8;
      }

      .cls-10 {
        fill: #70a0cf;
      }

      .cls-11 {
        fill: #e1e4e6;
      }

      .cls-12 {
        fill: #dfe3e7;
      }

      .cls-13 {
        fill: #e0e4e7;
      }

      .cls-14 {
        fill: #b2d3f8;
      }

      .cls-15 {
        fill: #aacef2;
      }

      .cls-16 {
        fill: #dee2e8;
      }

      .cls-17 {
        fill: #dce1e5;
      }

      .cls-18 {
        fill: #a8ccf5;
      }

      .cls-19 {
        fill: #5f92c7;
      }

      .cls-20 {
        fill: #9fc7f0;
      }

      .cls-21 {
        fill: #b9d4ea;
      }

      .cls-22 {
        fill: #e1e7ee;
      }

      .cls-23 {
        fill: #78a5d2;
      }

      .cls-24 {
        fill: #a9ccf0;
      }

      .cls-25 {
        fill: #e5e6e7;
      }

      .cls-26 {
        fill: #e5e4e6;
      }

      .cls-27 {
        fill: #80aad5;
      }

      .cls-28 {
        fill: #b7d5f9;
      }

      .cls-29 {
        fill: #518ac2;
      }

      .cls-30 {
        fill: #afd1f5;
      }

      .cls-31 {
        fill: #94bce1;
      }

      .cls-32 {
        fill: #79a6d4;
      }

      .cls-33 {
        fill: #dee2e6;
      }

      .cls-34 {
        fill: #dce1e7;
      }

      .cls-35 {
        fill: #c0d9f1;
      }

      .cls-36 {
        fill: #a6ccf2;
      }

      .cls-37 {
        fill: #a0c8ee;
      }

      .cls-38 {
        fill: #94c1ec;
      }

      .cls-39 {
        fill: #d4dee9;
      }

      .cls-40 {
        fill: #dbe1e7;
      }

      .cls-41 {
        fill: #e1e4e8;
      }

      .cls-42 {
        fill: #97c3ec;
      }

      .cls-43 {
        fill: #aecff3;
      }

      .cls-44 {
        fill: #588dc5;
      }

      .cls-45 {
        fill: #9dc6ed;
      }

      .cls-46 {
        fill: #b1d3f7;
      }

      .cls-47 {
        fill: #8cb6de;
      }

      .cls-48 {
        fill: #93b9e0;
      }

      .cls-49 {
        fill: #7fa9d4;
      }

      .cls-50 {
        fill: #6c9bc9;
      }

      .cls-51 {
        fill: #a4caf2;
      }

      .cls-52 {
        fill: #dfe3e9;
      }

      .cls-53 {
        fill: #c4daf3;
      }

      .cls-54 {
        fill: #a9cbee;
      }

      .cls-55 {
        fill: #538bc2;
      }

      .cls-56 {
        fill: #dadfe6;
      }

      .cls-57 {
        fill: #adcff7;
      }

      .cls-58 {
        fill: #e5e5e7;
      }

      .cls-59 {
        fill: #a1c9ef;
      }

      .cls-60 {
        fill: #d9dfe5;
      }

      .cls-61 {
        fill: #d4dfe8;
      }

      .cls-62 {
        fill: #9ec6ec;
      }

      .cls-63 {
        fill: #e5e5e5;
      }

      .cls-64 {
        fill: #a0c7ee;
      }

      .cls-65 {
        fill: #bcd8f8;
      }

      .cls-66 {
        fill: #9dc6ec;
      }

      .cls-67 {
        fill: #699dce;
      }

      .cls-68 {
        fill: #dfe2e4;
      }

      .cls-69 {
        fill: #a6cbf1;
      }

      .cls-70 {
        fill: #a4cbf3;
      }

      .cls-71 {
        fill: #aed0f5;
      }

      .cls-72 {
        fill: #8db9e1;
      }

      .cls-73 {
        fill: #dee1e9;
      }

      .cls-74 {
        fill: #a1c9f2;
      }

      .cls-75 {
        fill: #dee2e7;
      }

      .cls-76 {
        fill: #b3d4fb;
      }

      .cls-77 {
        fill: #9ec6eb;
      }

      .cls-78 {
        fill: #accff4;
      }

      .cls-79 {
        fill: #e4e4e5;
      }

      .cls-80 {
        fill: #dee3e6;
      }

      .cls-81 {
        fill: #669bce;
      }

      .cls-82 {
        fill: #598dc2;
      }

      .cls-83 {
        fill: #96c2ed;
      }

      .cls-84 {
        fill: #5c90c4;
      }

      .cls-85 {
        fill: #b3d4fa;
      }

      .cls-86 {
        fill: #7ca6d1;
      }

      .cls-87 {
        fill: #87aed5;
      }

      .cls-88 {
        fill: #dee3e9;
      }

      .cls-89 {
        fill: #7aa4ce;
      }

      .cls-90 {
        fill: #d7dfe6;
      }

      .cls-91 {
        fill: #abcff7;
      }

      .cls-92 {
        fill: #a3c9f0;
      }

      .cls-93 {
        fill: #e1e3e6;
      }

      .cls-94 {
        fill: #dee3e8;
      }

      .cls-95 {
        fill: #aed0f6;
      }

      .cls-96 {
        fill: #96c2e9;
      }

      .cls-97 {
        fill: #d8dee6;
      }

      .cls-98 {
        fill: #b4d3f8;
      }

      .cls-99 {
        fill: #5e92c8;
      }

      .cls-100 {
        fill: #b9d6f8;
      }

      .cls-101 {
        fill: #dce2e7;
      }

      .cls-102 {
        fill: #568cc4;
      }

      .cls-103 {
        fill: #aacdf1;
      }

      .cls-104 {
        fill: #9cc5ec;
      }

      .cls-105 {
        fill: #e4e5e6;
      }

      .cls-106 {
        fill: #e5e6e8;
      }

      .cls-107 {
        fill: #9dc7ee;
      }

      .cls-108 {
        fill: #b5d5f8;
      }

      .cls-109 {
        fill: #aed1f6;
      }

      .cls-110 {
        fill: #dee1e7;
      }

      .cls-111 {
        fill: #a5cbf3;
      }

      .cls-112 {
        fill: #abcdf2;
      }

      .cls-113 {
        fill: #7ba7d4;
      }

      .cls-114 {
        fill: #98c3ea;
      }

      .cls-115 {
        fill: #a8cdf1;
      }

      .cls-116 {
        fill: #d5dee7;
      }

      .cls-117 {
        fill: #93c1ec;
      }

      .cls-118 {
        fill: #e4e5e8;
      }

      .cls-119 {
        fill: #95bfe6;
      }

      .cls-120 {
        fill: #9bc5ef;
      }

      .cls-121 {
        fill: #a7cbef;
      }

      .cls-122 {
        fill: #bbd2e7;
      }

      .cls-123 {
        fill: #4f86be;
      }

      .cls-124 {
        fill: #93bce2;
      }

      .cls-125 {
        fill: #a6ccf0;
      }

      .cls-126 {
        fill: #b7d5f8;
      }

      .cls-127 {
        fill: #a1c8ef;
      }

      .cls-128 {
        fill: #b7d6fa;
      }

      .cls-129 {
        fill: #e4e5e7;
      }

      .cls-130 {
        fill: #d6dee5;
      }

      .cls-131 {
        fill: #9ac4f0;
      }

      .cls-132 {
        fill: #dae0e5;
      }

      .cls-133 {
        fill: #dde2e7;
      }

      .cls-134 {
        fill: #dfe2e7;
      }

      .cls-135 {
        fill: #abcef4;
      }

      .cls-136 {
        fill: #689bce;
      }

      .cls-137 {
        fill: #a4caef;
      }

      .cls-138 {
        fill: #6194c8;
      }

      .cls-139 {
        fill: #dce2e8;
      }

      .cls-140 {
        fill: #d9e0e9;
      }

      .cls-141 {
        fill: #81a9d4;
      }

      .cls-142 {
        fill: #a4cbf2;
      }

      .cls-143 {
        fill: #75a3d0;
      }

      .cls-144 {
        fill: #598ec3;
      }

      .cls-145 {
        fill: #a8ccf2;
      }

      .cls-146 {
        fill: #8bb6df;
      }

      .cls-147 {
        fill: #a7ccf2;
      }

      .cls-148 {
        fill: #9fc6ed;
      }

      .cls-149 {
        fill: #c5dcf0;
      }

      .cls-150 {
        fill: #dde2e6;
      }

      .cls-151 {
        fill: #e2e4e6;
      }

      .cls-152 {
        fill: #a9cdf1;
      }

      .cls-153 {
        fill: #e0e3e7;
      }

      .cls-154 {
        fill: #e0e4e8;
      }

      .cls-155 {
        fill: #9ac4ed;
      }

      .cls-156 {
        fill: #5286b9;
      }

      .cls-157 {
        fill: #e4e5e5;
      }

      .cls-158 {
        fill: #abcdf1;
      }

      .cls-159 {
        fill: #abcff5;
      }

      .cls-160 {
        fill: #9bc5eb;
      }

      .cls-161 {
        fill: #dce2e9;
      }

      .cls-162 {
        fill: #ebedf0;
      }

      .cls-163 {
        fill: #b4d3f7;
      }

      .cls-164 {
        fill: #b0d2f9;
      }

      .cls-165 {
        fill: #dbe2e8;
      }

      .cls-166 {
        fill: #ececeb;
      }

      .cls-167 {
        fill: #5a8fc5;
      }

      .cls-168 {
        fill: #6498cb;
      }

      .cls-169 {
        fill: #dce3e9;
      }

      .cls-170 {
        fill: #5f93c6;
      }

      .cls-171 {
        fill: #6e9fd0;
      }

      .cls-172 {
        fill: #9fc8ef;
      }

      .cls-173 {
        fill: #94badf;
      }

      .cls-174 {
        fill: #dae1e8;
      }
    </style>
  </defs>
  <g id="Layer_1-2" data-name="Layer 1">
    <g>
      <path class="cls-86" d="M154.79,101.9c.89-.25,3.72-1.28,4-1v3s3,0,3,0c-2.18-4.18,1.46-6.86,5.04-4.53,3.9,2.54-6.08,6.43-8.03,5.54,3.86,5.82,23.58-1.08,30-2.01,2.97,30.26-8.47,38.47-37,40-.7-.85-.62-2.19-1-3,4.49-1.64,9.08-4.34,14-4,.2.16.05,3.32,3.43,2.97,1.39-4.73,3.66-3.45,5.57-4.97,1.67-1.95,3.56-5.26,3-8,.73-2.36,1.26-4.57,1-7-.16-14.83-8.97-8.04-17.54-8.51-7.35-1.47-11.73-5.63-19.46-1.49-6.72,1.31-14.03,1.13-21,1-2.03-.19-6.54-2.81-9,0-15.51,7.32-19.08,1.11-31.99,6.02-.65,1.68.63,2.21.99,2.98,5.32,11.11-14.43,11.07,1,23-21.01-1.66-6.2-26.63-13-22,.07-4.74-.59-8.51-2-13,7.26,1.12,15.72,4.12,22.61,4.89,6.11.68,19.03-.61,12.4-7.88l14.49.99-1.5-2c8.18.63,15.48,3.16,25,2,.32,1.8-.16,3.21,2.5,2.02,4.48-2,8.78-3.7,13.5-5.02Z"/>
      <path class="cls-141" d="M214.79,6.9c5.72-1.84,11.64-3.19,16.67-6.9l1.8.9c9.86,17.42,24.52,37.97,32.11,55.99,1.5,5.98-1.58,5.05-4.57,8.01-7.41-13.83-17.03-29.67-25-43,.21-2.04-2.59-3.96-3-5-.35-1.88-1.7-4.34-3-6-.91-1.43-1.04-4.07-3.65-4.84-3.41,2.39-7.39,1.16-10.35,1.84l-1-1Z"/>
      <path class="cls-49" d="M200.79,26.9c.74,1.8,1.49,4.92,2,7-1.68.19-1.03,2.11-.78,3.27,3.32,15.61,10.68,31.75,13.58,48.52.38,2.2-.79,4.86-.68,5.09.09.18,1.96.32,2.88,2.11-2.27-.41-3.41,1.18-5,2l.99-4c-1.46.16-1.83,2.55-2.99,3,.23-1.99-.21-4.35-1-6,.29-2.97-.96-7.37-2-10-.05-1.83.35-4.7-1-6,1.68-2.59-12.99-57.13-6-45Z"/>
      <path class="cls-171" d="M65.79,61.9c.59-2.14.46-6.72,3-5.99-1.49,13.62-1.67,27.1-2,40.99-2.07,2.05-.62,6.18-1,9-3.66-.12-7.83-1.02-9-4,3.2-2.44.94-4.58,1-6,.05-1.28,1.84-1.68,2-2,2.33-10.8,3.25-20.86,6-32Z"/>
      <path class="cls-10" d="M24.79,11.9c1.33,3.15,5.82,2.06,9,2v1c-1.42.81.03,1.9,0,2-1.64,3.15-3.09,6.52-4,10-1.18.39-2.58,6.01-3,7-2.09,1.29-2.09,3.99-3,6-.84.16-1.62,1.23-2,2-2.68-.36-5,.58-6-2,3.76-9.06,7.66-18.15,9-28Z"/>
      <path class="cls-114" d="M64.79,15.9c-1.96,3.03-.63,1.61,1.53,1.96,8.09,1.31,15.36.94,23.47,1.04-.09.64.14,1.43,0,2H31.79c.51-1.34,1.59-2.68,2-4,7.45-.6,16.23,1.28,23-1v-1c2.61.27,5.97.84,8,1Z"/>
      <path class="cls-53" d="M250.79,46.9l10,18c-1.89,1.87-3.08,2.18-4,3h-1l-16-19c3.66,0,7.35,0,11.01,0v-2Z"/>
      <path class="cls-84" d="M41.79,34.9c-5.41,19.05-17.16,36.76-23,56-1.17.38-2.59,6.02-3,7-.44.04-.88.55-1,1-2.43-6.68,4.44-5.52-6-10,.24-.38.85-.68,1-1l6.41.83,4.64-9.34-2.04-1.98c.35-1.06,4.34-.09,4.89-4.96.29-2.54-3.14-3.46,1.61-3.44,2.68-9.14,8.92-16.37,10.5-26.1.98-.38,3.49-6.11,4-7,0,0,0-1,0-1,.52.16,1.37-.11,2,0Z"/>
      <path class="cls-167" d="M165.79,95.9c3.08.7.96-2.33,2.99-1.99-.03,3.66,3.12,6.51,1.01,9.98,5.52-.93,17.65-4.6,23-1.99-6.93,1.1-29.85,9.15-34,3.01,1.95.89,11.94-3,8.03-5.54-3.58-2.33-7.22.35-5.04,4.53h-2.99s0-3,0-3c-.27-.28-3.1.75-4,1-.48-1.2-1.92-1.07-3-1,4.42-2.12,9.44-3.25,14-5Z"/>
      <path class="cls-35" d="M48.79,101.9c.34,2.85-1.63,1.97-3.42,2.03-6.17.22-12.41-.23-18.58-.02,2.51,4.42,9.49.05,13,2.99-3.07-.07-7.74-.76-10,1-6.18-1.66-6.9-3.64-12-7,9.31-1.57,22.26-2.5,31,1Z"/>
      <path class="cls-167" d="M203.79,35.9c.62,2.3,1.92,4.61,2,7,.97,2.36,2.4,3.68,2,6,7.48,15.78,7.9,33.8,13,50h-1c-1.51-2.77-1.49-7.83-4.88-8.11,1.65-17.8-10.37-36.85-12.9-53.61-.25-1.16-.9-3.08.78-3.27.28.83.82,1.48,1,2Z"/>
      <path class="cls-82" d="M67.79,119.9c7.34-4.73-10.58,24.47,19,22,.66.43,1.11,1.43,2.43,1.1,3.7-.96,8.16-.5,11.57-2.1,2.73-.36,5.32-1.15,8-1,3.34-.43,4.34-2.07,8,0-5.04,1.93-11.66-.22-15,4-8.25-1.13-19.51,2.47-27.98-2,.24.97-.84,1.54-1.02,2-.11-4.56-4.81-6.14-5.76-10.73-1.04-5.02.7-8.72.76-13.27Z"/>
      <path class="cls-29" d="M109.79,102.9c1.32.09,2.68-.1,4,0l1.5,2-14.49-.99c6.63,7.27-6.29,8.57-12.4,7.88-6.89-.77-15.35-3.77-22.61-4.89-.45-.07-.87-.55-1-1,4.34.02,8.57,1.1,13,1,2.76,2.65,22,3.91,22-.49l-4-3.5c4.63.2,9.38-.32,14-.01Z"/>
      <path class="cls-87" d="M187.79,12.9l6,1c-5.74,2.71-13.72.13-20,2.01l1,.99c-.08,2.55.51,4.35-.99,6.61-.12,2.68,1.81,5.06,0,7.39l-1-1c-.77-4.56-3.24-8.44-4.01-13.01-2.27,1.31-4.55.95-6.99,1.01-3.32-1.84-8.9-.99-13-1l39-4Z"/>
      <path class="cls-166" d="M56.79,101.9c-1.59-.57-5.83.38-8,0-2.04-.36-4.14-1.8-7.47-2.03-7.17-.5-16.58-.39-23.53,1.03-1.01-.66-2.14-.7-3-2,8.96-4.21,35.55,3.16,42-3h1c-.06,1.42,2.2,3.56-1,6Z"/>
      <path class="cls-19" d="M225.79,33.9c3.99,5.08,9.08,9.16,12,15,3.15,4.29,10.22,16.62,13.46,19.11,1.68,1.16,3.69-.45,5.54-.11-.09.44-3.19,2.97-4,4-10.01-11.47-20.18-25.34-29-38h2Z"/>
      <path class="cls-162" d="M56.79,101.9c.2.07,1.2,2.41,3,3-.18.6-1.01,1.55-1,2-6.48.53-12.59.15-19,0-3.51-2.94-10.49,1.43-13-2.99,6.17-.21,12.4.24,18.58.02,1.79-.06,3.76.81,3.42-2.03,2.17.38,6.41-.57,8,0Z"/>
      <path class="cls-57" d="M215.79,7.9c-1.03.24-5.63,1.77-5.99,2.99h19.99c.65,1.02,1.37,1.99,2,3.01-10.97.29-22.04-.39-33,0,2.78-2.29,8.38-.55,10-3.99h-3c2.52-.61,6.31-2.14,9-3.01l1,1Z"/>
      <path class="cls-3" d="M9.79,53.9l7,1c-.13,4-2.41,7.44-4,11-1.67-.16-4.95.58-7,0-.13-.44-.58-.81-1-1,1.37-3.43,4.08-7.13,5-11Z"/>
      <path class="cls-89" d="M232.79,98.9l-.98-.5,2.98-2.5c9.58-3.55,11.53-5.7,17.37-13.05,1.98-2.49,4.78-.67,3.42-6.21-.41-1.67-1.8-3.31-2.79-4.74.65-.67,1.26-1.43,2-2l3.97,6.47c-4.31,11.21-14.72,19.27-25.97,22.53Z"/>
      <path class="cls-55" d="M148.79,16.9c4.1,0,9.68-.84,13,1-21.95,1.03-44.01,1.33-66,1v-1c17.93.26,35.31-1.43,53-1Z"/>
      <path class="cls-67" d="M5.79,65.9c.14.45-.28,1.29.06,1.9l5.94.11-1,3.99c-2.33-.15-5.33-.63-6.98,1.5l4.97.5v5c-2.28-.22-4.7.14-7,0v3c-1.07-.98-1.91-1.69-1.76-3.33.09-1.01,4.01-11.77,4.77-13.67.42.19.87.56,1,1Z"/>
      <path class="cls-168" d="M39.79,106.9c6.41.15,12.52.53,19,0,4.64,6.56-25.6,1.8-29,1,2.26-1.76,6.93-1.07,10-1Z"/>
      <path class="cls-173" d="M8.79,78.9c3.1.3,4.61,1.93,5,2-1.7,2.68-2.88,5.68-5,8-4.08-2.69-3.57-3.9-7-7v-3c2.3.15,4.71-.22,7,0Z"/>
      <path class="cls-123" d="M90.79,16.9c.96,1.62,3.43.97,5,1v1c-10.02-.16-19.49.49-29.47-1.04-2.16-.35-3.49,1.07-1.53-1.96,9.02.69,16.98.81,26,1Z"/>
      <path class="cls-47" d="M17.79,52.9c-.16.9.1,2.03,0,3h9.01c-.29.63-1.31,3.64-.99,4h2.99c.52,2.49-3.41.96-4,1v-2s-9,0-9,0c.39-1.26,1.45-2.33,1-4l-7-1,1-1c2.33-.07,4.68.1,7,0Z"/>
      <path class="cls-50" d="M212.79,94.9c-7.03,2.98-16.69,8.3-24,6,6.54-1.09,14.4-3.08,20-7,.64-.07,1.58.16,2,0,1.16-.44,1.53-2.84,2.99-3l-.99,4Z"/>
      <path class="cls-32" d="M134.79,16.9c-12.77.32-25.89,1.21-39,1-1.57-.03-4.04.62-5-1,14.64.31,29.36-.23,44,0Z"/>
      <path class="cls-136" d="M15.79,39.9c1.21,3.32,4.81.61,7,3-.88,1.43-.5,3.02-2,4-.74-.46-5.49.32-7,0,.15-2.24,1.35-4.81,2-7Z"/>
      <path class="cls-138" d="M205.79,9.9h3c-1.61,3.45-7.22,1.71-10,4-3.07.22-7.94-.35-11-1,5.98-.82,12.13-1.61,18-3Z"/>
      <path class="cls-81" d="M13.79,46.9v2s6,.01,6,.01c.25.18-1.83,3.06-2,3.99-2.32.1-4.67-.07-7,0-.63-3.09,2.14-5.07,3-7v1Z"/>
      <path class="cls-154" d="M154.79,108.9l22,17c-.18.89.24,2.26,0,3-5.2-2.45-7.52-4.96-13-7,.77,5.36,8.72,6.96,10,12-1.91,1.52-4.18.24-5.57,4.97-3.38.34-3.23-2.81-3.43-2.97-10.05-7.51-21.2-14.51-30.72-22.79-1.27-1.13-3.16-.98-1.28-3.21.67-.01,1.33.02,2,0,8.34,6.23,16.21,13.89,24.97,19.53,1.33.86,1.93,2,4.02,1.47,2.87-2.5-22.98-19.59-23.99-21.99,8.95-.82,15.08,13.62,24,13-1.34-6.55-12.72-8.49-15-15,1.36.05,4.39,1.74,6,2Z"/>
      <path class="cls-169" d="M124.79,109.9l27.67,21.83c1.88,1.39,4.31,1.97,5.33-.83,2.31,1.72,4.96,3.34,7,5-4.92-.34-9.51,2.36-14,4-1.7-3.59-1.76-2.02-4-4l3.99-1.49c-10.09-8.75-21.26-16.27-31.97-24.02l.98-.49c1.64.15,3.35-.07,5,0Z"/>
      <path class="cls-43" d="M177.79,118.9c-4.81-2.23-8.39-8.32-14-7.99,3.31,5.1,9.04,7.78,14,10.99-.08,1.19-.74,2.71-1,4l-22-17c9.35,5.41,22.84-7.73,23,10Z"/>
      <path class="cls-156" d="M151.79,142.9c-1.42.15-12.32,3.39-13.36,3.95-1.3.71-.39,2.76-.65,3.04-11.59-2.34-21.98,1.25-32.99-4.99,22.27,3.72,25.58,2.5,46-5,.38.81.3,2.15,1,3Z"/>
      <path class="cls-147" d="M148.79,106.9c2.28,6.51,13.66,8.45,15,15-8.54.64-14.72-12.9-23-13,1.54-.9,6.49-2.06,8-2Z"/>
      <path class="cls-135" d="M176.79,128.9c-.23.73-2.46,4.57-3,5-1.27-5.04-9.24-6.65-10-12,5.48,2.04,7.8,4.55,13,7Z"/>
      <path class="cls-13" d="M177.79,118.9c.01.99.07,2.02,0,3-4.96-3.2-10.69-5.89-14-10.99,5.61-.33,9.19,5.76,14,7.99Z"/>
      <path class="cls-44" d="M151.79,100.9c1.08-.07,2.52-.2,3,1-4.72,1.32-9.01,3.03-13.5,5.02-2.66,1.18-2.18-.23-2.5-2.02,4.89-.5,8.63-4.43,13-4Z"/>
      <path class="cls-14" d="M238.79,26.9h-38c-.9-2.03-2.46-3.13-2,0-7.09.61-15.24-1.29-22,1-.31-1.31-.68-2.64-1-4l60-2c.97,1.66,2.02,3.33,3,5Z"/>
      <path class="cls-46" d="M232.79,16.9c.55.93,1.96,2.23,3,4h-61c.06-1.33-.04-2.67,0-4h58Z"/>
      <path class="cls-98" d="M239.79,28.9c1,1.67,2.02,3.3,3,5-10.65.45-30.25-.9-40,0-.44-1.28-.53-2.73-1-4l38-1Z"/>
      <path class="cls-93" d="M198.79,13.9c10.96-.39,22.03.29,33,0,.62.99.63,2.38,1,3h-58l-1-.99c5.81-1.22,11.73-.59,17.57-.97,3.11-1.33,4.37-1.08,7.43-1.04Z"/>
      <path class="cls-26" d="M235.79,20.9c.15.25-.15.75,0,1l-60,2c-.44-.67-1.28-1.91-1-3h61Z"/>
      <path class="cls-16" d="M238.79,26.9c.42.71.67,1.45,1,2l-38,1c-.35-.93-.8-2.59-1-3h38Z"/>
      <path class="cls-28" d="M246.79,39.9c-4.76.55-10.83-1.25-15,1-1.72-2-2.41-2.81-4-5,5.09-.56,11.48,1.26,16-1,.96,1.67,2.04,3.32,3,5Z"/>
      <path class="cls-39" d="M229.79,10.9h-19.99c4.25-4.89,10.85-1.6,16.34-4.84,2.61.77,2.74,3.41,3.65,4.84Z"/>
      <path class="cls-75" d="M246.79,39.9c.37.64.63,1.35,1,2-3.82,2.24-9.57.46-14,1-.39-.49-1.32-1.21-2-2,4.17-2.25,10.24-.45,15-1Z"/>
      <path class="cls-76" d="M249.79,45.9c-4.12.52-9.61-1.22-13,1-.97-1.31-1.99-2.73-3-4,4.43-.54,10.18,1.24,14-1,.87,1.53,1.37,2.88,2,4Z"/>
      <path class="cls-73" d="M249.79,45.9c1.23.89,1.03,1.62,1.01,3-4.31.01-8.69,0-13.01,0-.42-.57-.58-1.44-1-2,3.39-2.22,8.88-.48,13-1Z"/>
      <path class="cls-79" d="M242.79,33.9c.2.35.79.63,1,1-4.52,2.26-10.91.44-16,1-.35-.48-1.8-.92-2-2h17Z"/>
      <path class="cls-172" d="M102.79,112.9c4.57,6.74,39.52,25.3,35,31-4.29-1.56-6.89-6.71-11.99-5.99l7.99,7.99c-1.88.41-2.75.81-5,1-2.75-3.25-7.48-9.65-12-7-3.66-2.07-4.66-.43-8,0,.15-2.11-3.02-3.75-4.55-4.95-6.92-5.43-14.4-11.43-21.56-16.44-1.19-.84-3.44-3.08-2.89.39-.36-.77-1.64-1.3-.99-2.98,1.79.09,3.63-1.77,4.99-2.02,3.08,1.08,31.72,30.05,33.99,23.01l-29.99-23.01c2.28-.17,4.75.24,7,0-.48,2.14,1.23,2.13,2.41,3.04,5.23,4.03,23.16,19.56,28.08,19.97,7.74,2.15-27.86-23.18-26.49-23.02.81-.1,2.84-.73,4-1Z"/>
      <path class="cls-12" d="M105.79,111.9l35.28,27.24,3.72-2.24c1.52,1.07,2.01,3.79,5,3-4.11,1.31-7.32,3.41-12,4,4.61-5.59-30.49-24.33-35-31,.67-.15,1.86-.7,3-1Z"/>
      <path class="cls-172" d="M144.79,136.9l-3.72,2.24-35.28-27.24c.94-.25,2.48-1.77,4-2,10.77,9.86,23,18.53,35,27Z"/>
      <path class="cls-54" d="M109.79,101.9c1.99.21,1.66-1.84,3.45-2.07,9.48-1.24,21.75,1.07,31.56.08l-.5,2.01,5.49-1.02c-12.41,7.61-27.27,2.2-40,2v-1Z"/>
      <path class="cls-11" d="M120.79,114.9c7.96,5.59,18.62,14.48,26,21,2.24,1.98,2.3.41,4,4-3.58.75-4.18-1.2-6-3-12-8.47-24.23-17.14-35-27,3.93-.36,7.78,2.73,11,5Z"/>
      <path class="cls-147" d="M132.79,109.9c-4.69,1.73,22.48,18.4,25,21-1.02,2.8-3.44,2.23-5.33.83l-27.67-21.83c2.97.13,5.09.05,8,0Z"/>
      <path class="cls-147" d="M139.79,108.9c1.01,2.41,26.87,19.5,23.99,21.99-2.1.53-2.69-.61-4.02-1.47-8.76-5.63-16.63-13.29-24.97-19.53,1.82-.06,3.6-.95,5-1Z"/>
      <path class="cls-12" d="M87.79,113.9l29.99,23.01c-2.16,7.1-31.07-22.04-33.99-23.01,1.16-.21,2.72.1,4,0Z"/>
      <path class="cls-107" d="M106.79,139.9c-1.94.28-3.97.7-6,1-2.36-2.09-19.24-16.61-20.99-14.99,1.76,6.84,13.42,10.3,17.99,15.99-3.38-.32-8.46,2.47-11,0,1.26-.03,5.05.81,4.99-.99-5.75-2.15-9.8-9.12-15.99-10.01,1.91-2.86,5.84-5.39,5-10l26,19Z"/>
      <path class="cls-12" d="M98.79,113.9c35.34,25.76,36.11,33.9-1.59,3.04-1.18-.91-2.89-.91-2.41-3.04,1.3-.14,2.7.16,4,0Z"/>
      <path class="cls-12" d="M79.79,118.9c-.55-3.48,1.7-1.23,2.89-.39,7.15,5.02,14.64,11.01,21.56,16.44,1.53,1.2,4.7,2.84,4.55,4.95-.64.08-1.36-.09-2,0-.41-.68-28.72-19.91-27-21Z"/>
      <path class="cls-160" d="M86.79,141.9c-1.87.04-4.22.21-6,0-2.91-3.38-8.41-5.91-5-11-1.27,1.16,9.77,10.19,11,11Z"/>
      <path class="cls-172" d="M119.79,109.9l-.98.49c1.17,1.94,3.37,2.42,4.98,3.51l-3,1c-2.9-2.04-6.55-4.93-10-5,2.46-2.81,6.97-.19,9,0Z"/>
      <path class="cls-71" d="M206.79,71.9h-41c-.43-1.29-.59-2.7-1-4,4.96-1.76,44.21,3.52,40.99-1.99h-41.99c-.42-1.3-.58-2.71-1-4.01,12.82-.32,25.73.43,38.55,0,1.93-.06,4.01,1.02,3.45-2,1.12,3.25,2.35,8.32,2,12Z"/>
      <path class="cls-159" d="M202.79,48.9c.21,1.15.73,2.48,1,4l-21.01.51c.1,5.07,17.37,1.11,21.01,2.49.09.49.75,1.6,1,3l-43,1c-.43-1.29-.61-2.69-1-4l19.45.06c1.19-.32.34-2.16.55-3.06.76-3.14.26-2.22,0-5,6.88,2.18,14.82.47,22,1Z"/>
      <path class="cls-30" d="M201.79,41.9c-2.54-4.75-16.68-.79-22-2-.19-1-.7-2.68-1-4h0c-.36-1.57-1.48-3.89-2-6,7.09-.6,15.24,1.29,22-1,.73,3.98,2.22,8.53,3,13Z"/>
      <path class="cls-109" d="M208.79,80.9c.27,1.54.78,2.81,1,4l-39,1c-.61-1.65-1.4-3.31-2-5h40Z"/>
      <path class="cls-33" d="M204.79,58.9c.44,3.51-.46,3.25-3.45,3-12.82.43-25.73-.32-38.55,0-.15-.47-.71-1.14-1-2l43-1Z"/>
      <path class="cls-91" d="M207.79,77.9h-39.01s0,3,0,3c-.71-2.01-1.32-3.99-2-6l41-1c.22,1.22-.21,2.77,0,4Z"/>
      <path class="cls-5" d="M206.79,71.9c.06.31.84,1.08,1,2l-41,1c-.34-1-.67-2-1-3h41Z"/>
      <path class="cls-133" d="M207.79,77.9c.08.45.75,1.59,1,3h-40v-3s39,0,39,0Z"/>
      <path class="cls-91" d="M209.79,87.9c.15.83.85,1.81,1,3l-38,1c-.69-1.79-.7-3.21-1-4h38Z"/>
      <path class="cls-5" d="M209.79,84.9c.17.91-.16,2.08,0,3h-38c-.21-.54-.69-1.17-1-2l39-1Z"/>
      <path class="cls-33" d="M210.79,90.9c.12.97-.08,2.02,0,3-11.68,1.04-25.08-.73-37,0-.22-.57-.69-1.2-1-2l38-1Z"/>
      <path class="cls-91" d="M201.79,42.9c.24,1.35.76,2.65,1,4-6.71-1.66-15.37-1.65-22,0-.18-1.48-.7-3.37-1-5,6.88,2.18,14.82.47,22,1Z"/>
      <path class="cls-75" d="M198.79,26.9c.01.65-.1,1.42,0,2-6.76,2.29-14.91.4-22,1-.14-.59.14-1.41,0-2,6.76-2.29,14.91-.39,22-1Z"/>
      <path class="cls-133" d="M179.79,39.9c4.59,1.31,22.27-3.28,22,3-7.18-.53-15.12,1.18-22-1-.11-.62.12-1.39,0-2Z"/>
      <path class="cls-133" d="M202.79,46.9c.11.62-.11,1.38,0,2-7.18-.53-15.12,1.18-22-1-.03-.33.04-.67,0-1,6.63-1.65,15.29-1.66,22,0Z"/>
      <path class="cls-161" d="M203.79,52.9c.17.92-.17,2.08,0,3-3.64-1.38-20.91,2.58-21.01-2.49l21.01-.51Z"/>
      <path class="cls-155" d="M80.79,48.9c-.23,2.23.09,4.76,0,7,6.72-.84,15.32,2.03,21.01-2-.17,2.04-.82,3.96-1,6l-32.01-1v2.99h31.01c-.2,1.25.19,2.75,0,4h-32c.13-3.44.17-6.62,1-9.99-2.54-.73-2.4,3.86-3,5.99v-3s-34,0-34,0c.85-2,2.22-4.13,3-6v2.99c1.89.89,4.58-.99,5.5-.99h27.5c2.65-5.14-28.63-.49-33-2,.57-1.37,1.43-2.63,2-4h44ZM79.78,52.91c-2.56.87-11.45-2.12-10.99,1.99,3.76-1.02,10.58,3.76,10.99-1.99Z"/>
      <path class="cls-77" d="M61.79,80.9c-.24,1.18.22,2.8,0,4H20.79c.69-1.86,1.21-3.18,2-5l39,1Z"/>
      <path class="cls-77" d="M28.79,65.9c-3.23,5.51,31.5.37,36,2-.3,1.33-.71,2.57-1,4H26.79c.76-1.75,1.02-3.76,2-6Z"/>
      <path class="cls-66" d="M65.79,61.9c-.37,1.32-.68,2.66-1,4-8.83-.12-17.7.14-26.54.05-2.29-.02-7.67-1.92-9.46-.05.6-1.36,1.41-2.64,2-4h35Z"/>
      <path class="cls-153" d="M27.79,90.9c9.98-.22,20.02.16,30,0,.11.2,3.08-.47,2,3-.16.32-1.95.72-2,2h-1c-1.72-4.83-32.14-.89-39.01-2v-2s1.01-1,1.01-1c2.99-.05,6.01.07,9,0Z"/>
      <path class="cls-148" d="M98.79,67.9c-.34,2.09-.6,3.9-1,6,.56-3.03-1.53-1.92-3.45-2-8.82-.35-17.73.26-26.55,0,.06-1.33-.05-2.67,0-4h31Z"/>
      <path class="cls-45" d="M67.79,77.9v3s29,0,29,0c-.54,2.02-1.38,4.03-2,6,3.65-4.78-24.71-.73-28-2,.08-2.72.94-5.52,1-7Z"/>
      <path class="cls-34" d="M63.79,71.9c-.28,1.36-.89,2.45-1,3-12.2-.87-25.17,1.75-37-1,.32-.75.74-1.39,1-2h37Z"/>
      <path class="cls-64" d="M94.79,86.9c-.64,2.04-1.24,3.99-2,6,.56-3.03-1.53-1.92-3.45-2-7.49-.3-15.06.22-22.55,0,0-1.33-.04-2.67,0-4h28Z"/>
      <path class="cls-62" d="M66.79,97.9c.11.6-.1,1.35,0,2h23.01c-.76,1.74-.83,3.35-2,5-5.04-1.68-12.14-1.21-17.55-1-1.92.08-4.01-1.03-3.45,2-.33-.05-.68.06-1,0,.38-2.82-1.07-6.95,1-9,.05.32-.06.68,0,1Z"/>
      <path class="cls-1" d="M91.79,93.9c-.48,1.21-.5,2.82-1,4h-24c-.05-1.29-.02-2.63,0-4h25Z"/>
      <path class="cls-117" d="M62.79,74.9c-.18.9.18,2.1,0,3-3.58-1.75-38.11,3.94-31-3,10.3.28,20.69-.21,31,0Z"/>
      <path class="cls-131" d="M97.79,74.9c-.37,1.75-.5,3-1,5,.56-3.03-1.53-1.92-3.45-2-8.49-.34-17.06.25-25.55,0,.04-1-.04-2,0-3h30Z"/>
      <path class="cls-34" d="M67.79,71.9c8.82.26,17.72-.35,26.55,0,2.98-.25,3.9-.51,3.45,3h-30c.03-.78-.05-1.78,0-3Z"/>
      <path class="cls-106" d="M61.79,84.9c-.11.61-.87,1.37-1,2-9.78.26-19.7-.18-29.54-.04-2.96.04-10.33,3.14-10.46-1.96h41Z"/>
      <path class="cls-34" d="M66.79,90.9c7.49.22,15.05-.3,22.55,0,1.92.08,4.01-1.03,3.45,2-.13.35-.87.68-1,1h-25c-.07-1.41,0-1.84,0-3Z"/>
      <path class="cls-8" d="M64.79,65.9c-.14.59.13,1.4,0,2-4.35-1.61-39.44,3.48-36-2,1.8-1.87,7.17.02,9.46.05,8.84.09,17.71-.16,26.54-.05Z"/>
      <path class="cls-157" d="M99.79,65.9c-.14.92-.95,1.7-1,2h-31c.02-.67-.02-1.33,0-2h32Z"/>
      <path class="cls-58" d="M66.79,84.9c3.24,1.27,31.65-2.79,28,2h-28c.02-.67-.02-1.33,0-2Z"/>
      <path class="cls-21" d="M20.79,84.9c.13,5.1,7.5,2,10.46,1.96,9.84-.13,19.76.31,29.54.04-.54,2.65.7,3.7-1,7,1.08-3.47-1.89-2.8-2-3-.28-.5.67-2.74-.54-3.07-8.82.62-18.28-.62-27.01.06-3.07.24-2.57-.49-2.45,3-2.99.07-6.01-.05-9,0,.08-2.24,1.28-4.04,2-6Z"/>
      <path class="cls-122" d="M31.79,74.9c-7.11,6.94,27.37,1.25,31,3-.28,1.38-.89,2.43-1,3,3.74-4.56-24.42-1.37-27.54-1.95-4.04-.02-7.24-2.2-11.46.95.95-2.17,2.19-4.11,3-6,1.86,1.25,3.92.94,6,1Z"/>
      <path class="cls-42" d="M31.79,20.9v3s57,0,57,0c-.42,1.32-1.9,4.3-2,5,.56-3.03-1.53-1.92-3.45-2-5.68.5-37.25-3.41-37.56,2.49l41.01.51c.18.13-1.71,3.09-2,4h-43c1.21-2.35,2.51-4.31,2.01-7h-14.01c.63-2.05,1.24-3.99,2-6Z"/>
      <path class="cls-4" d="M28.79,27.9v2s15,0,15,0c-.3,1.51-2.33,3.23-2,5-4.25-.13-10.66-2.18-15-1l2-6Z"/>
      <path class="cls-119" d="M39.79,35.9l-3,6c-1.08-2.94-10.24-2.54-13-2,.82-1.64.69-3.56,2-5,3.82,2.24,9.57.46,14,1Z"/>
      <path class="cls-132" d="M29.79,26.9h14.01c-.11.97.15,2.09,0,3h-15.01s0-2,0-2l1-1Z"/>
      <path class="cls-90" d="M23.79,39.9c2.76-.54,11.92-.94,13,2l-1,1c-3.53-.76-12.02,1.6-14-1,.38-.77,1.16-1.84,2-2Z"/>
      <path class="cls-68" d="M56.79,15.9c-6.77,2.28-15.55.4-23,1,.03-.1-1.42-1.19,0-2l23,1Z"/>
      <path class="cls-151" d="M39.79,34.9v1c-4.43-.54-10.18,1.24-14-1,2.75-2.9,10.5-.68,14,0Z"/>
      <path class="cls-32" d="M95.79,18.9c12.63.11,25.37.18,38,0-.21,2.84,1.44,5.28,1,8l-1.99-1c.28,4.6,3.29,7.44-2.83,9.17-.73,1.24.15,3.54-.18,4.83-.71,1.95-1.52,4.8-2,7-.43,2.1-2.06,4.68-2,7-.36,1.38-1.81,2.86-1,5-2.17,1.65-2.18,4.41-3,7-.33,0-.67,0-1,0-1.1-1.38-.17-2.63,0-4-.12-1.58-.04-4,1-5,3.45,4.24,6.74-30.44,6-33,.02-1.13,2.69-3.25-1.51-4-44.12-.12-25.42-3.31-39.49,19,.07-2.96-.07-8.39,0-10,.75-2.57,3.42-6.89,3-10,2,.03,4-.02,6,0Z"/>
      <path class="cls-75" d="M89.79,20.9c-.2.85-.69,2.03-1,3H31.8s-.01-3-.01-3h58Z"/>
      <path class="cls-27" d="M239.79,48.9l16,19c-1.49-.02-3.17,1.16-4.54.11-3.24-2.49-10.31-14.82-13.46-19.11h2Z"/>
      <path class="cls-104" d="M82.79,39.9h-42c.45-1.29.59-2.7,1-4l43-1c-.53,1.56-1.78,4.13-2,5Z"/>
      <path class="cls-83" d="M80.79,48.9v-3s-43,1-43,1c.5-1.22.52-2.77,1-4l44-1c-.47,2.05-1.8,5.52-2,7Z"/>
      <path class="cls-34" d="M37.79,46.9l43.01-1v3h-44.01c.31-.76.76-1.41,1-2Z"/>
      <path class="cls-40" d="M82.79,39.9c-.14.58.14,1.4,0,2l-44,1c.52-1.32,1.84-2.53,2-3h42Z"/>
      <path class="cls-17" d="M31.79,58.9h34.01s0,3,0,3H30.79c.37-.84.56-1.96,1-3Z"/>
      <path class="cls-143" d="M28.79,60.9c-1.28,2.69-2.6,5.23-3.5,8.1-4.74-.02-1.32.9-1.61,3.44-.55,4.87-4.54,3.9-4.89,4.96l2.04,1.98-4.64,9.34-6.41-.83c1.16-2.43,2.74-4.6,4-7,.95.16,4.44-.74,5.99,0l-4.98-3.49.98-4.5c1.1.16,1.97.69,2.99,1-.44-4.88,4.01-7.25,4.01-12,.86-.06,1.71-.97,2-1,.67-.08,2.71,1.04,4,0Z"/>
      <path class="cls-63" d="M84.79,33.9c-.1.3.1.7,0,1l-43,1c.04-.65-.04-1.34,0-2h43Z"/>
      <path class="cls-35" d="M17.79,91.9v2c3.32.05,6.67-.05,10,0-.12,3.49-.62,2.76,2.45,3,8.25.65,17.22-.48,25.55,0-6.46,3.03-30.71.1-40,1l2-6Z"/>
      <path class="cls-143" d="M35.79,42.9c-.58,6.38-4.48,11.7-7,17h-2.99c.16-6.45,7.98-10.81,8.99-17h1Z"/>
      <path class="cls-52" d="M164.79,86.9c-3.25,4.25,2.84,2.63,2,6-.31.97-1.05,1.87-1,3-7,2.42-14.13,5.19-21.49,6.02l.5-2.01c-9.81.98-22.08-1.33-31.56-.08-1.79.24-1.46,2.28-3.45,2.07l-11.31-1c-1.31-.2-.5-1.53-.69-2,2.69-2.97.32-10.9,6-10,3.76,5.24,41.65,1.66,50,2,12.12,1.45,4.7-4.47,11-4ZM151.79,93.9h-46c.48,1,1.17,2.99,2,3.5,1.67.01,46.09,4.28,44-3.5Z"/>
      <path class="cls-113" d="M161.79,59.9c4.24,11.37,7.21,22.74,12,34,2.29,9.4,2.15,7.5,11,7l-15,2.99c2.11-3.48-1.04-6.32-1.01-9.98-2.02-.34.08,2.69-2.99,1.99.16-2.94,2-2.82,1.97-6.31-.5-7.73-5.89-25.12-7.97-33.69h1c.39,1.31.57,2.71,1,4Z"/>
      <path class="cls-157" d="M197.79,98.9c-4.09,1.08-8.95,2.37-13,2-2.76-.53-8.24,2.26-9-1-.56-3.02,1.53-1.94,3.45-2,5.78-.19,13.14-.7,18.55,1Z"/>
      <path class="cls-22" d="M241.79,58.9c4.85,6.68,10.84,10.84,13.79,17.74,1.37,5.55-1.44,3.73-3.42,6.21-5.84,7.35-7.79,9.5-17.37,13.05-4.67,1.73-8.39,4.15-14,3,.33-4.19-2.67-8.22-3.52-12-1.05-4.66-1.14-9.62-2.48-15,4.1-1.92,35.42,4.44,26.31-4.04l-27.31.04c-.22-3.81-.06-3.08,2.79-2.3,7.74.43,15.47.32,23.21.3-.18-1.82.89-4.61-2.01-4-.29-.35-.3-2.34-1-3h5ZM244.79,74.9h-26l1,3h25v-3ZM244.79,80.9h-23c2.32,7.4,14.86,2.9,21.34,3.84l1.66-3.84ZM225.79,87.9c2.13,4.63,13.18,4.3,15.99.48.26-3.06-1.08-.48-1.49-.48h-14.5Z"/>
      <path class="cls-100" d="M238.79,54.9c.99,1.33,2,2.65,3,4-9.73.27-20.57-1.13-30,1-.43-1.49-.67-2.9-1-4,3.46-1.57,23.96-.91,28-1Z"/>
      <path class="cls-108" d="M237.79,52.9h-28c-.3-.98-1.51-2.5-2-4,8.44-.61,17.86,1.29,26-1,1.22,1.71,2.73,3.28,4,5Z"/>
      <path class="cls-126" d="M213.79,67.9l27.31-.04c9.05,8.48-22.17,2.12-26.31,4.04-.33-1.33-.66-2.67-1-4Z"/>
      <path class="cls-65" d="M237.79,61.9c2.9-.62,1.83,2.2,2.01,4-7.74.02-15.47.13-23.21-.3-1.7-.09-3.2-2.17-2.79,1.3l-1-5h25Z"/>
      <path class="cls-163" d="M224.79,35.9c1.37,1.59,1.95,2.67,3,4-6.16.15-12.38-.21-18.55,0-1.92.06-4.01-1.02-3.45,2-.7-2.01-1.31-4.03-2-6h21Z"/>
      <path class="cls-164" d="M232.79,45.9c-8.11.61-17.2-1.29-25,1-.34-1.03-1.48-2.51-2-4,7.77-.61,16.55,1.29,24-1,.99,1.34,2.01,2.65,3,4Z"/>
      <path class="cls-41" d="M236.79,58.9c.7.66.71,2.65,1,3h-25c-.59-.55-.78-1.26-1-2,7.77-1.84,16.9-1,25-1Z"/>
      <path class="cls-153" d="M232.79,45.9c.42.56.59,1.42,1,2-8.14,2.29-17.56.39-26,1-.17-.54.18-1.47,0-2,7.8-2.29,16.89-.39,25-1Z"/>
      <path class="cls-88" d="M227.79,39.9c.42.53,1.27,1.02,2,2-7.45,2.29-16.23.39-24,1-.44-3.51.46-3.25,3.45-3,6.17-.21,12.39.15,18.55,0Z"/>
      <path class="cls-58" d="M237.79,52.9c.42.57.58,1.44,1,2-4.16.09-24.43-.58-28,1-.29-.96-.69-1.98-1-3h28Z"/>
      <path class="cls-25" d="M223.79,33.9c.39.58.58,1.52,1,2h-21c-.18-.52-.72-1.17-1-2,2.3-.81,17.02,0,21,0Z"/>
      <path class="cls-80" d="M100.79,140.9c-.76.11-1.82.85-3,1-4.58-5.7-16.22-9.15-17.99-15.99,1.75-1.61,18.64,12.9,20.99,14.99Z"/>
      <path class="cls-59" d="M116.79,139.9c1.94,1.1,5.96,5.33,8,7-1.97.04-4.04.13-6,0l-6-6c.9-.14,2.09-.76,4-1Z"/>
      <path class="cls-48" d="M109.79,140.9l-.95,1.51,3.95,3.49c-3.51-.92-7.71-.7-11-2,1.09-2.42,5.36-2.47,8-3Z"/>
      <path class="cls-7" d="M112.79,140.9l6,6c-2.6-.18-3.87-.66-6-1l-3.95-3.49.95-1.51c.88-.18,2.06.14,3,0Z"/>
      <path class="cls-23" d="M97.79,98.9c.19.47-.62,1.8.69,2l11.31,1v1c-4.62-.3-9.37.21-14,.01l4,3.5c.01,4.39-19.22,3.15-22,.49,11.53,1.79,11.09-4.06,14-13,5.6-8.2,4.71-19.05,8-28,.41-1.57-.99-4.26,1-5-.98,10.68-3.71,24.74-4.06,34.62-.07,2.05.55,2.13,1.06,3.38Z"/>
      <path class="cls-60" d="M87.79,104.9c-4.29,4.57-15.06,1.16-21,1-.56-3.03,1.53-1.92,3.45-2,5.41-.21,12.51-.68,17.55,1Z"/>
      <path class="cls-111" d="M170.79,22.9c.44,1.29.57,2.71,1,4-5.16.15-10.38-.2-15.55,0-1.92.08-4.01-1.03-3.45,2-.26-.82-1.36-1.71-1.02-3.01l-.98,1.01-15.01.51c.09,4.46,12.07,1.8,15.01,2.49.29,1.27.68,2.68,1,4h-14c-.98-2.73-3.67-6.32-3-10l36-1Z"/>
      <path class="cls-165" d="M169.79,20.9c.21.56.7,1.13,1,2l-36,1c-.14-.81-.8-1.84-1-3h36Z"/>
      <path class="cls-145" d="M169.79,20.9h-36c-.11-.62.07-1.35,0-2,11.63-.89,23.7.35,34.99-2.01.29,1.31.53,2.76,1.01,4.01Z"/>
      <path class="cls-78" d="M172.79,29.9l1,1c.11,1.09.6,2.02,1,3h-21c-.38-1.31-.57-2.71-1-4h20Z"/>
      <path class="cls-2" d="M175.79,23.9c1.65,9.93,5.97,19.02,5,29,.53-2.55-2.37-3.87-2-6-.9-2.69-2.32-4.5-2-7-1.26-3.01-2.25-5.89-3-9,2.36-2.56-1.69-6.7,1-9-.03.78.9,1.57,1,2Z"/>
      <path class="cls-133" d="M171.79,26.9c.26.78,1.37,1.68,1,3h-20c-.45-3.53.47-3.24,3.45-3,5.17-.2,10.39.15,15.55,0Z"/>
      <path class="cls-38" d="M56.79,95.9c-.33.29-.64.83-1,1-8.33-.48-17.3.65-25.55,0-3.07-.24-2.57.49-2.45-3,6.1.94,26.33-2.76,29,2Z"/>
      <path class="cls-31" d="M12.79,65.9c1.74.17,6.26,1.22,8,2-.74,1.78-2.73,3.25-2.01,6-1.98-.94-6.4-1.69-7.99-2l1-3.99-5.94-.11c-.34-.6.08-1.44-.06-1.9,2.05.58,5.33-.16,7,0Z"/>
      <path class="cls-96" d="M22.79,61.9c-.14,2.23-1.18,4.01-2,6-1.74-.78-6.26-1.83-8-2,.6-1.36,1.43-2.63,2-4,2.65-.12,5.36.17,8,0Z"/>
      <path class="cls-97" d="M15.79,58.9h9.01s0,2,0,2c-2.59,2.01-6.86.62-10,1,.33-.79.72-2.1,1-3Z"/>
      <path class="cls-146" d="M10.79,71.9c.55.04,3.49.78,5,1l-.98,4.5,4.98,3.49c-1.56-.74-5.05.16-5.99,0-.39-.07-1.9-1.7-5-2v-5s-4.98-.5-4.98-.5c1.65-2.13,4.64-1.65,6.98-1.5Z"/>
      <path class="cls-116" d="M28.79,52.9c-.61,1.07-1.92,2.84-2,3h-9.01c.11-.97-.16-2.1,0-3,3.65-.15,7.35.11,11,0Z"/>
      <path class="cls-95" d="M208.79,93.9c-3.02,2.08-7.48,4.06-11,5-5.41-1.7-12.77-1.19-18.55-1-1.92.06-4.01-1.02-3.45,2-1.5-2.24-1.19-3.95-2-6,11.19-.86,24.03,1.17,35,0Z"/>
      <path class="cls-124" d="M20.79,46.9c-.55,4.53,8.13.95,11,2-.85,1.28-1.82,1.94-3,4-3.65.11-7.35-.15-11,0,.17-.93,2.25-3.81,2-3.99h-6.01s0-2.01,0-2.01c1.51.32,6.26-.46,7,0Z"/>
      <path class="cls-72" d="M34.79,42.9c-.68,1.81-.89,3.31-2,5v-2s-11,0-11,0c.38-.85.36-2.13,1-3,3.85.37,8.09-.26,12,0Z"/>
      <path class="cls-130" d="M21.79,45.9h11.01s0,2,0,2c-.23.35-.75.62-1,1-2.73-.78-14.52,2.42-10-3Z"/>
      <path class="cls-142" d="M123.79,113.9c9.37,6.3,18.28,13.38,26.99,20.51l-3.99,1.49c-7.38-6.52-18.04-15.41-26-21l3-1Z"/>
      <path class="cls-101" d="M137.79,143.9h1c-1.27.39-2.11,1.37-5,2l-7.99-7.99c5.1-.72,7.71,4.43,11.99,5.99Z"/>
      <path class="cls-161" d="M128.79,146.9c-1.31.11-2.68-.03-4,0-2.04-1.67-6.06-5.9-8-7,4.51-2.66,9.26,3.75,12,7Z"/>
      <path class="cls-150" d="M75.79,130.9c6.19.89,10.24,7.86,15.99,10.01.06,1.8-3.74.96-4.99.99-1.23-.81-12.27-9.84-11-11Z"/>
      <path class="cls-8" d="M163.79,65.9h41.99c3.26,5.51-36,.24-40.99,2-.15-.46-.72-1.13-1-2Z"/>
      <path class="cls-161" d="M180.79,52.9c-.22.9.64,2.74-.55,3.06l-19.45-.06h-1c-.27-1.13-.77-2.09-1-3h22Z"/>
      <path class="cls-102" d="M103.79,46.9c1.19,14.32-3.09,28.42-2,42-3.29,1.87-1.6,7.26-4,10-.51-1.24-1.13-1.33-1.06-3.38.35-9.88,3.08-23.94,4.06-34.62.31-4.02,1.37-7.92,1-12,.12-1.18,1.98-3.77,1-6,.48,1.63.78,1.8,1,4Z"/>
      <path class="cls-7" d="M100.79,59.9c-.03.33.03.67,0,1-.47.13-.93.54-1,1h-31.01v-3s32.01,1,32.01,1Z"/>
      <path class="cls-58" d="M34.79,52.9c4.38,1.51,35.59-3.15,33,2h-27.5c-.92,0-3.61,1.88-5.5.99v-2.99Z"/>
      <path class="cls-174" d="M101.79,52.9c-.03.33.03.67,0,1-5.69,4.04-14.29,1.16-21.01,2-.08-.99.1-2.02,0-3h21Z"/>
      <path class="cls-99" d="M86.79,38.9c-1.08,2.32-2.04,4.36-2,7-2.33,1.51-2.35,4.6-3,7h-1c-.17-6.09,1.86-11.9,4-18-.41-1.3,2.09-4.48,2-5-.09.7.08,6.9,0,9Z"/>
      <path class="cls-129" d="M79.78,52.91c-.41,5.75-7.23.97-10.99,1.99-.46-4.11,8.43-1.12,10.99-1.99Z"/>
      <path class="cls-58" d="M22.79,79.9c4.22-3.16,7.42-.98,11.46-.95,3.14.59,31.2-2.62,27.54,1.95l-39-1Z"/>
      <path class="cls-117" d="M27.79,90.9c-.12-3.49-.62-2.76,2.45-3,8.73-.68,18.19.56,27.01-.06,1.21.33.26,2.57.54,3.07-9.98.16-20.02-.22-30,0Z"/>
      <path class="cls-7" d="M67.79,77.9c8.48.25,17.06-.34,25.55,0,2.97-.24,3.9-.53,3.45,3h-29.01s0-3,0-3Z"/>
      <path class="cls-63" d="M90.79,97.9c-.29.68-.7,1.32-1,2h-23.01c-.1-.65.12-1.4,0-2h24Z"/>
      <path class="cls-17" d="M86.79,29.9l-41.01-.51c.36-5.91,31.82-1.98,37.56-2.49,2.96-.24,3.91-.53,3.45,3Z"/>
      <path class="cls-127" d="M125.79,35.9c-.3,1.38-.73,2.71-1,4-5.71.63-13.08-.87-18.53,0-9.36,4.18,16.57,3.64,18.53,2.01-.51,2.35-1.59,5.01-2,7v-3c-6.19.48-13.11-1.14-19,1-.22-2.2-.52-2.37-1-4-.25-.87.67-2.73-.55-3.06l-15.45.06c-.3-1.61,1.22-2.19,2-4h37Z"/>
      <path class="cls-158" d="M103.79,65.9c-.2,4.14,9.49,2.12,12.55,2.01,1.92-.07,4.01,1.01,3.45-2.01.67,0,1.33,0,2,0-.21.62-1.3,1.79-1,1.99,11.29-.34,22.72.5,34,.01l.49,4.01h-52.49c.17-1.98-.13-4.03,0-6.01h1Z"/>
      <path class="cls-92" d="M126.79,29.9c-.34,2.38-.48,3.57-1,6,3.63-5.21-31.8-.44-36-2,.72-1.65,1.26-3.33,2-5l35,1Z"/>
      <path class="cls-15" d="M123.79,59.9c-.56,3.02,1.53,1.94,3.45,2,8.29.28,16.76.12,25.06.02,1.7-.02,4.43.64,5.48-1.02.37,1.57,2.19,3.89,2,6-2.85-3.21-5.23-.99-8.46-.95-9.83.12-19.72-.01-29.54-.05.71-2.07.76-4.42,2-6Z"/>
      <path class="cls-61" d="M127.79,23.9c-9.95-.57-20.69.78-30.55,0-3.07-.24-2.57.49-2.45-3,1.54-1.29,28.09-1.6,31.49-1,4.2.75,1.52,2.87,1.51,4Z"/>
      <path class="cls-115" d="M127.79,46.9c-2.92,4.33,18.75,1.52,21.52,2.02,1.7-.02,4.43.63,5.48-1.02.39,1.71.64,3.34,1,5h-30c.52-1.93,1.55-4.24,2-6Z"/>
      <path class="cls-20" d="M94.79,20.9c-.12,3.49-.62,2.76,2.45,3,9.86.77,20.6-.58,30.55,0-.28,1.95.83,4.78-1,6v-3s-34,0-34,0c.77-1.85.34-4.49,2-6Z"/>
      <path class="cls-75" d="M92.79,26.9h34.01s0,3,0,3l-35-1c.32-.72.76-1.41,1-2Z"/>
      <path class="cls-134" d="M157.79,58.9c.13.6-.14,1.41,0,2-1.05,1.65-3.79,1-5.48,1.02-8.3.1-16.77.26-25.06-.02-1.92-.06-4.01,1.02-3.45-2l1-1h33Z"/>
      <path class="cls-51" d="M125.79,53.9c-.3,2.95.28,1.46,2.07,1.62,9.15.79,19.96,1.02,28.93-.62.3,1.34.71,2.66,1,4h-33c-.81-2.14.64-3.62,1-5Z"/>
      <path class="cls-139" d="M155.79,52.9c.14.64.86,1.37,1,2-8.97,1.64-19.78,1.41-28.93.62-2.89.37-2.02.36-2.07-2.62h30Z"/>
      <path class="cls-70" d="M153.79,42.9c.29,1.34.7,2.66,1,4-8.33-1.66-18.71-1.65-27,0,.34-1.33.63-2.68,1-4h25Z"/>
      <path class="cls-8" d="M89.79,33.9c4.15,1.56,39.6-3.22,36,2h-37c.31-.68.72-1.35,1-2Z"/>
      <path class="cls-140" d="M137.79,39.9c.24.07.75,1.66,1.5,2,.82.37-.26-1.78,1.92-2.09,3.4-.47,9.24-.16,12.58,1.09.13.6-.13,1.4,0,2h-25c.31-1.11.82-2.28,1-3,2.28.38,6.05-.55,8,0Z"/>
      <path class="cls-125" d="M121.79,54.9c.19,1.73-.19,2.19-1,4h-17c.06-1.33-.01-2.67,0-4h18Z"/>
      <path class="cls-152" d="M120.79,61.9c-.17,1.37-1.1,2.62,0,4-5.99-.05-12.06-.36-18,0,.05-.79.9-2.31,1-4h17Z"/>
      <path class="cls-150" d="M120.79,58.9c-.16.92.12,2.04,0,3h-17c.06-.99-.05-2,0-3h17Z"/>
      <path class="cls-144" d="M121.79,56.9c-.25-5.24,1.65-9.81,3-15-.19-2.08.51-3.93,1-6,.94-2.66-.04-5.03,2-7,.26,2.17-2.92,32-6,28Z"/>
      <path class="cls-121" d="M132.79,33.9c3.24,1.04,3.71,3.08,5,6-1.95-.55-5.72.38-8,0,.3-3.6-1.53-4.81,3-6Z"/>
      <path class="cls-170" d="M134.79,26.9c.92,3.72,3.42,5.64,3,9,.27,1.2,2.27,3.47,0,4-1.29-2.92-1.76-4.96-5-6,2.48-2.27-.23-5.29.01-8l1.99,1Z"/>
      <path class="cls-69" d="M151.79,93.9c2.06,7.79-42.32,3.51-44,3.51-.82-.52-1.52-2.5-2-3.51h46Z"/>
      <path class="cls-2" d="M152.79,28.9c2.22,9,4.53,17.8,7,27,1.56,9.68,10.13,28.72,7,37,.86-2.34-2.42-2.13-2.9-3.59-.31-.95.92-2.1.9-2.41.01-2.72-.8-6.26-3-8,0,0-3-11-3-11l1-1c-3.36-13.12-7.23-26.47-9-40l.98-1.01c-.35,1.3.76,2.19,1.02,3.01Z"/>
      <path class="cls-74" d="M105.79,87.9c2.08.07,56.97-3.94,48,3-8.36-.35-46.14,3.25-50-2,.65-.21,1.47-.94,2-1Z"/>
      <path class="cls-106" d="M164.79,85.9c.04.33-.02.67,0,1-1.56-.24-1.97-.11-3,1h-56c-.53.06-1.35.79-2,1-.55.18-1.63-.21-2,0-1.86-1.73-.01-3.54,0-4,17.65,0,35.35.07,53,0,3.68-.01,6.71-1.64,10,1Z"/>
      <path class="cls-149" d="M161.79,87.9c.25,4.08-5,2.99-8,3,8.93-6.93-45.72-2.94-48-3h56Z"/>
      <path class="cls-128" d="M244.79,80.9l-1.66,3.84c-6.48-.94-19.02,3.56-21.34-3.84h23Z"/>
      <polygon class="cls-128" points="244.79 74.9 244.79 77.9 219.79 77.9 218.79 74.9 244.79 74.9"/>
      <path class="cls-85" d="M225.79,87.9h14.5c.41,0,1.75-2.57,1.49.48-2.81,3.81-13.86,4.14-15.99-.48Z"/>
      <path class="cls-110" d="M150.79,26.9c.13.94-.19,2.15,0,3-2.94-.69-14.93,1.97-15.01-2.49l15.01-.51Z"/>
      <path class="cls-63" d="M174.79,33.9c.12.28-.11.7,0,1-6.06,2.28-13.59.4-20,1-.12-.43-.75-1.15-1-2h21Z"/>
      <path class="cls-78" d="M180.79,52.9h-22c-.28-1.09-.77-2.08-1-3l21-2c.45,1.39,2.45,2.96,2,5Z"/>
      <path class="cls-112" d="M176.79,39.9c-6.75.6-14.59-1.29-21,1-.53-1.99-.65-3.73-1-5,6.41-.6,13.94,1.28,20-1,.61,1.65,1.4,3.31,2,5Z"/>
      <path class="cls-18" d="M178.79,46.9c-5.24-1.61-12-1.22-17.55-1-1.92.08-4.01-1.03-3.45,2-.49-1.93-.64-3.6-1-5,6.41-.6,13.94,1.28,20-1,.41,1.31,1.4,3.19,2,5Z"/>
      <path class="cls-5" d="M176.79,39.9c.18.51-.17,1.45,0,2-6.06,2.28-13.59.4-20,1-.09-.35-.76-1.09-1-2,6.41-2.29,14.25-.4,21-1Z"/>
      <path class="cls-6" d="M178.79,46.9c.1.3-.1.7,0,1l-21,2c-.05-3.73-.75-4.53,3.45-4,5.55-.22,12.31-.61,17.55,1Z"/>
      <path class="cls-94" d="M158.79,67.9l3,11h-60c.03-.33-.03-.67,0-1h54.99c.21-7.9-41.53-.56-49.57-3.09l-2.41,2.08-2.02-4.99h52.49s-.49-4-.49-4c1.33-.06,2.67.04,4,0Z"/>
      <path class="cls-103" d="M102.79,71.9l2.02,4.99,2.41-2.08c8.08,2.55,49.67-4.83,49.57,3.08h-54.99c.2-2.3.88-4.59,1-5.99Z"/>
      <path class="cls-58" d="M161.79,78.9l1,1c-1.37,1.74-4.8.98-7,1-16.43.16-32.9-.08-49.34-.05l-.66,4.05h-4c.05-2.16-.19-3.61,0-6h60Z"/>
      <path class="cls-37" d="M83.79,46.9c-.56,3.02,1.53,1.94,3.45,2,4.84.16,9.72-.12,14.55,0-.13,1.31.12,2.69,0,4h-20c.62-2.01.47-4.31,2-6Z"/>
      <path class="cls-137" d="M122.79,48.9c-.34,1.64-.68,3.36-1,5-5.36-2.28-12.27-.41-18-1-.02-1.33.09-2.68,0-4h19Z"/>
      <path class="cls-120" d="M86.79,39.9c.1.98-.09,2.02,0,3h16.01c.98,2.23-.88,4.82-1,6v-3s-17,0-17,0c-.04-2.64.92-4.68,2-7-.01.32-.03.68,0,1Z"/>
      <path class="cls-9" d="M103.79,46.9c5.89-2.13,12.81-.51,19.01-1v3h-19.01c-.04-.66.07-1.35,0-2Z"/>
      <path class="cls-118" d="M121.79,53.9c-.06.32.06.68,0,1h-18c0-.67,0-1.33,0-2,5.73.59,12.64-1.28,18,1Z"/>
      <path class="cls-56" d="M84.79,45.9h17.01s0,3,0,3c-4.83-.12-9.71.16-14.55,0-1.92-.06-4.01,1.02-3.45-2,.3-.33.49-.89,1-1Z"/>
      <path class="cls-139" d="M124.79,39.9c-.13.6.13,1.4,0,2-1.95,1.63-27.9,2.17-18.53-2.01,5.45-.86,12.82.64,18.53,0Z"/>
      <path class="cls-40" d="M86.79,39.9l15.45-.06c1.22.33.3,2.19.55,3.06h-16.01c-.09-.98.11-2.02,0-3Z"/>
      <path class="cls-8" d="M159.79,66.9l-1,1c-12.63.37-25.36-.24-38-.01-.3-.2.79-1.37,1-1.99,9.82.04,19.71.17,29.54.05,3.24-.04,5.62-2.26,8.46.95Z"/>
      <path class="cls-25" d="M119.79,65.9c.56,3.02-1.53,1.94-3.45,2.01-3.07.11-12.75,2.14-12.55-2.01,5.26-.42,10.68-.03,16,0Z"/>
      <path class="cls-133" d="M154.79,46.9c.07.32-.07.68,0,1-1.05,1.65-3.79,1-5.48,1.02-2.78-.51-24.39,2.32-21.52-2.02,8.29-1.65,18.67-1.66,27,0Z"/>
      <path class="cls-24" d="M153.79,40.9c-3.34-1.25-9.18-1.56-12.58-1.09-2.18.3-1.1,2.46-1.92,2.09-.75-.34-1.26-1.93-1.5-2,2.27-.53.27-2.8,0-4h13.99s0-2,0-2c.53,2.19,1.48,4.54,2,7Z"/>
      <path class="cls-105" d="M151.79,33.9v1.99s-14,0-14,0c-.14-.6.16-1.47,0-2h14Z"/>
      <path class="cls-149" d="M164.79,85.9c-3.29-2.64-6.32-1.01-10-1l1-4c2.2-.02,5.63.74,7-1,1.21,1.33,1.79,4.22,2,6Z"/>
      <path class="cls-36" d="M155.79,80.9l-1,4c-16.32.06-32.68,0-49,0l.66-4.05c16.44-.03,32.91.21,49.34.05Z"/>
    </g>
  </g>
</svg>