<?xml version="1.0" encoding="UTF-8"?>
<svg id="Layer_2" data-name="Layer 2" xmlns="http://www.w3.org/2000/svg" viewBox="0 0 294.46 369.35">
  <defs>
    <style>
      .cls-1 {
        fill: #fefefe;
      }
    </style>
  </defs>
  <g id="Layer_1-2" data-name="Layer 1">
    <path class="cls-1" d="M291.4,346.63c-4.9-10.78-11.32-20.93-14.83-32.35,4.7-8.27,19.25-19.03,17.79-29.07-1.11-7.59-11.19-7.97-15.51-12.53-5.13-5.41-19.06-54.64-20.19-63.81-1.04-8.43,2.7-17.12-6.18-21.84,6.36-10.14.59-9.11-2.1-15.87-3.78-9.5-5.53-36.82-6.02-47.99-.82-18.83,4.92-52.67-9.95-66.05-9.53-8.57-48.56-19.62-50.58-22.43s7.1-8.77-.91-11.03l-6.51,1.97c.52-4.49,10.25-4.3,4.35-9.85l-7.92-1.08c-2.43-3.43,4.99-10.91-.43-13.57-7.14-3.32-13.95,1.02-11.23,8.89-8.72,10.21-48.01,10.09-45.78-9.38-16.71-1.66-18.71,6.83-9,18.5-1.58,1.14-6.23-.43-6.99,2-1.1,3.54,5.86,4.15,3.01,6-4.16-.37-6.28,4.73-7.81,5.45-60.19,9.36-63.01,22.64-57.17,80.5.3,13.84-1.82,22.54-2.91,35.16-1.03,11.91,6.11,18.29,5.79,25.8-.25,6.01-5.81,6.95-8.91,11.09-6.82,9.12-.18,25.94.03,36.95,1.23,80.59-66.67,62.2-6.56,101.48l-5.36,40.38c7.36,8.17,36.71,7.29,39.63-4.07,2.32-9.05-7.23-31.66-9.74-41.24,6.2,1.46,14.79.96,18.85-4.65,7.97-11.01-2.08-24.2-4.4-35.31-3.21-15.34,5.89-29.52,10.05-44.04,4.82-16.81,9.15-35.5,8.5-53,38.74,14.93,75.65-9.11,114.42-4.12l3.08-12.9c3.44,16.65-1.87,34.43-.54,51.55,2.09,26.86,21.27,39.37,27.49,61.51,2.7,9.62-.18,13.71.61,21.34.93,9.06,11.72,18.4,20.81,18.75l1.63,38.87c7.14,5.99,16.71,7.45,25.91,6.91,5.75-.85,22.94-10.31,15.59-16.91Z"/>
  </g>
</svg>