<?xml version="1.0" encoding="UTF-8"?>
<svg id="Layer_2" data-name="Layer 2" xmlns="http://www.w3.org/2000/svg" viewBox="0 0 186.59 482.17">
  <defs>
    <style>
      .cls-1 {
        fill: #7f684d;
      }

      .cls-2 {
        fill: #331f14;
      }

      .cls-3 {
        fill: #fee9da;
      }

      .cls-4 {
        fill: #c7b59f;
      }

      .cls-5 {
        fill: #c5b49d;
      }

      .cls-6 {
        fill: #bcae86;
      }

      .cls-7 {
        fill: #fef6ef;
      }

      .cls-8 {
        fill: #fdf7f4;
      }

      .cls-9 {
        fill: #3d2619;
      }

      .cls-10 {
        fill: #9d8568;
      }

      .cls-11 {
        fill: #feece0;
      }

      .cls-12 {
        fill: #856c52;
      }

      .cls-13 {
        fill: #feede4;
      }

      .cls-14 {
        fill: #8e7358;
      }

      .cls-15 {
        fill: #80684e;
      }

      .cls-16 {
        fill: #c6b49e;
      }

      .cls-17 {
        fill: #b8a486;
      }

      .cls-18 {
        fill: #bca98a;
      }

      .cls-19 {
        fill: #261910;
      }

      .cls-20 {
        fill: #feece1;
      }

      .cls-21 {
        fill: #a88f71;
      }

      .cls-22 {
        fill: #9c8668;
      }

      .cls-23 {
        fill: #402719;
      }

      .cls-24 {
        fill: #a28a6c;
      }

      .cls-25 {
        fill: #150a06;
      }

      .cls-26 {
        fill: #f3e1d0;
      }

      .cls-27 {
        fill: #b29678;
      }

      .cls-28 {
        fill: #362015;
      }

      .cls-29 {
        fill: #fee8d8;
      }

      .cls-30 {
        fill: #c6b49d;
      }

      .cls-31 {
        fill: #140a06;
      }

      .cls-32 {
        fill: #2f180c;
      }

      .cls-33 {
        fill: #fee8d9;
      }

      .cls-34 {
        fill: #7f674d;
      }

      .cls-35 {
        fill: #978263;
      }

      .cls-36 {
        fill: #a48c6e;
      }

      .cls-37 {
        fill: #190e08;
      }

      .cls-38 {
        fill: #755c42;
      }

      .cls-39 {
        fill: #c4b29c;
      }

      .cls-40 {
        fill: #927d5f;
      }

      .cls-41 {
        fill: #fdf6f2;
      }

      .cls-42 {
        fill: #d7c3ad;
      }

      .cls-43 {
        fill: #775d43;
      }

      .cls-44 {
        fill: #d7c4ae;
      }

      .cls-45 {
        fill: #af9375;
      }

      .cls-46 {
        fill: #fdf9f6;
      }

      .cls-47 {
        fill: #9e8769;
      }

      .cls-48 {
        fill: #d7c6b4;
      }

      .cls-49 {
        fill: #c8b6a0;
      }

      .cls-50 {
        fill: #80694d;
      }

      .cls-51 {
        fill: #c9b49b;
      }

      .cls-52 {
        fill: #826b4f;
      }

      .cls-53 {
        fill: #b19677;
      }

      .cls-54 {
        fill: #d0bea5;
      }

      .cls-55 {
        fill: #d7c3ae;
      }

      .cls-56 {
        fill: #836a4f;
      }

      .cls-57 {
        fill: #3b2215;
      }

      .cls-58 {
        fill: #846b50;
      }

      .cls-59 {
        fill: #c7b69a;
      }

      .cls-60 {
        fill: #c3b199;
      }

      .cls-61 {
        fill: #bead94;
      }

      .cls-62 {
        fill: #cdbaa5;
      }

      .cls-63 {
        fill: #927f61;
      }

      .cls-64 {
        fill: #90745a;
      }

      .cls-65 {
        fill: #d0bca5;
      }

      .cls-66 {
        fill: #feefe8;
      }

      .cls-67 {
        fill: #3e2619;
      }

      .cls-68 {
        fill: #a28b6c;
      }

      .cls-69 {
        fill: #b89b7d;
      }

      .cls-70 {
        fill: #d6c4b0;
      }

      .cls-71 {
        fill: #46291b;
      }

      .cls-72 {
        fill: #cfbda6;
      }

      .cls-73 {
        fill: #897056;
      }

      .cls-74 {
        fill: #81694d;
      }

      .cls-75 {
        fill: #a0896c;
      }

      .cls-76 {
        fill: #20130e;
      }

      .cls-77 {
        fill: #8c7156;
      }

      .cls-78 {
        fill: #fdebde;
      }

      .cls-79 {
        fill: #a78e70;
      }

      .cls-80 {
        fill: #1e120b;
      }

      .cls-81 {
        fill: #8d7257;
      }

      .cls-82 {
        fill: #7e664a;
      }

      .cls-83 {
        fill: #998465;
      }

      .cls-84 {
        fill: #a68d70;
      }
    </style>
  </defs>
  <g id="Layer_1-2" data-name="Layer 1">
    <g>
      <g>
        <path class="cls-61" d="M34.06,195.06c-14.42-14.33-10.7-36.33-11.01-55.48-2.1-19.19-7.87-40.61-5.02-59.92C13.47,64.27,1.54,41.47,0,23.76c8.49-7.28,28.47-8.82,38.3-11.96,3.09-1.36,7.4-6.74,12.09-8.92,14.22-5.4,10.04-3.51,9.09,8.19,9.88,44.31,59.8,35.29,56.6-9.01.78-1.05,22.16,10.95,23.28,11.94s.45,2.88,2.37,3.88c10.8,3.41,26.46,7.57,37.29,13.23.97,1.39-6.54,13-7.82,15.59-3.04,6.2-11.88,23.45-12.9,29.1-1.66,9.17-.98,21.61-2.39,31.61-1.98,14.05-6.64,28.49-8.58,42.42-.97,12.27-.65,23.83-4.28,35.22-1.01-.1-1.37.41-2,1-3.88,4.16-9.04,6.6-14,9-2.73-.36-10.89.16-14,1-3.85.34-8.93-1.08-12,1-4.37,2.23-10.61,1.95-15,4-10.59.62-20.52-1.08-31-2-6.94.07-14.52-.93-21-4ZM38.06,21.06c-3.22,20.9,20.9,39,40,31,3.13-.44,2.2,1.08.3,1.8-25.38,9.55-49.17-14.54-40.31-39.8-11.93,3.02-25.63,4.05-35.71,11.43,3.61,30.03,21.34,43.75,17.72,74.57.89,14.4,5.74,30.27,6.02,43.54-6.09,48.32,11.02,62.5,57.98,48.47l-3,4.98c8.49,3.91,16.5-2.49,25-3.99,8.16,1.74,23.24-.43,30.03-5.48,10.47-7.79,6.72-21.16,7.99-32.01,3.42-29.12,14.16-57.65,11.99-87.51l1.98,3.99c5.11-13.16,11.2-26.11,18.03-38.55.4-1.67-.47-1.26-1.27-1.72-10.02-5.16-25.82-9.04-35.77-12.2-2.12-8.29-14.79-8.78-20.49-14.51-.23,20.06-12.81,38.53-34.5,37.99-13.26-3.58-31.08-25.4-26-39.99-9.35,2.18-18.7,7.61-20,17.99Z"/>
        <path class="cls-29" d="M7.06,23.06c31.75-5.45,20.6-4.23,32.59,21.91,10.35,16.1,40.32,19.79,47.41-.91,5.58,19.79,4.81,41.06,5,62l-8.91,1.08c.5,2.65-1.34,4.73-1.09,6.92-.57-.1-1.38-.03-2,0,.13-2.65-.03-5.35,0-8l1.99,2.99c.51-14.74-.74-29.41-2.49-44.01-.2,13.65.67,27.31.5,41.01l-46.01,3.51c2.48,11.06,36.8,3.92,46.01,4.49-.1,1.94.29,3.93-.14,5.86-42.77,10.55-62.61,6.91-60.09-42.13-1.6-7.16-26.49-54.78-12.77-54.73ZM82.22,65.9c2.28,3.69,10.55-1.79,5.42-5.95-3.9-3.16-7.67,2.31-5.42,5.95ZM91.1,89.69c.07-4.88-7.59-4.88-7.52,0-.07,4.88,7.59,4.88,7.52,0Z"/>
        <path class="cls-66" d="M165.06,28.06c1.51.54,12.28,3.39,11.02,5.44-6.59,11.44-11.56,23.59-17.02,35.56l-2.01-6.99c-8.77,53.18,3.75,65.89-60.99,57v-5.01c-6.3-.75-4.13,1.5-8.5,3.05-1.69,0-2.71-2.57-5.5-3.05.03-.33-.04-.67,0-1l5.53-2.96c1.88-.09,2.8,2.51,4.15,2.81.73.17,1.25-.87,1.32-.85.58.15,1.45-.16,2,0,13.06,2.95,44.23,6.64,49.97-9.51-2.61-3.56-4.09,1.01-6.69,2.29-8.62,4.22-39.71.85-41.28,2.22l21.99-1.01c.69-1.75-1.99-3.71-1.99-4.49v-41.5l2.9.09c-.04.85,1.1,2.06,1.1,2.41v36c0,2.04,7,2.04,7,0v-38c0-.39-2.15-3.47-2.5-3.48l-4.51,2.53-.99-3.55c24.18-9.75,11.08-36.47,45-28Z"/>
        <path class="cls-3" d="M79.06,133.06c-.25,16.05-.55,32.16,2.01,47.99l.99-3.99c.55,2.94,2.67,6.44,2.03,9.99h1.97c-.48,4.06.54,6.66,1.08,10.95l1.92.06c-5.26.94-3.23.46-8-1.01l3-4.98c-15.03,3.78-35.83,8.84-48.44-3.07-7.8-8.81.99-10.72,1.5-18.46.32-4.83-2.16-5.17-2.86-8.19-4.13-17.66,31.94-28.09,44.8-29.29Z"/>
        <path class="cls-48" d="M159.06,69.06c-.44.96-.96,1.91-1.01,2.99l-1.98-3.99c2.16,29.86-8.57,58.39-11.99,87.51-1.27,10.85,2.48,24.22-7.99,32.01-6.78,5.04-21.87,7.21-30.03,5.47,6.53-3.77,13.93-5.4,21-8,2.39-.92,7.5-.8,8.06-4.54.73-4.86-8.28-10.98-8.84-17.19-.57-6.3,6.45-11.42,4.01-17.98-4.38-11.75-24.55-13.27-35.23-13.29.25-3.05,2-6.14.44-10.03,20.21-5.38,53.42,10.24,57.45-20.58,1.86-8.19-1.12-34.49,4.1-39.38l2.01,6.99Z"/>
        <path class="cls-11" d="M127.06,185.06c8.18-8.82-.86-11.46-3.25-17.26-3-13.6,16.85-23.83-8.75-29.73.62,2.56,3.63,2.33,5.04,3.73,11.01,10.91-3.36,15.43-3.12,22.73,6.43,17.8,19.03,9.87-5.66,24.31-2.62,1.76-.78,1.08.75,1.23-3.96,2.28-8.67,4.01-13,5-5.04-20.38-5.14-42.12-4-63,10.68.02,30.86,1.54,35.23,13.29,2.44,6.56-4.57,11.68-4.01,17.98,1.9,9.58,18.37,19.1.77,21.73Z"/>
        <path class="cls-42" d="M74.06,121.06l-1.5,2.01h7.49c-1.18,3.42-.94,6.5-1,9.99-12.86,1.2-48.92,11.63-44.8,29.29.71,3.02,3.18,3.36,2.86,8.19-.51,7.74-9.3,9.64-1.5,18.46,6.61,7.47,20.17,7.75,29.44,7.06-38.14,8.74-43-23.02-38.98-52.46-.28-13.27-5.13-29.14-6.02-43.54,7.09,31.28,29.14,26.11,54,21Z"/>
        <path class="cls-33" d="M57.06,10.06c.64,11.65,15.67,30.69,27,33-5.28,24.41-51.4,5.23-46-22,5.55-4.88,11.84-8.91,19-11Z"/>
        <path class="cls-78" d="M91.06,132.06c-.63,17.51-1.29,48.03,8,63-4.23,1.29-7.02,3.13-11.92,2.94-.37-4.03-1.61-6.16-1.08-9.94,7.51,9.74,12.75-8.01,1.26-3.71-.57.82-.91,1.78-1.26,2.71h-1.97c.64-3.56-1.48-7.06-2.03-10-.79-4.26-.59-7.09-1-11,3.04-.39,1.69,3.39,5.45,3.05,4.67-.42,4.76-7.66.07-8-3.24-.23-2.91,3.13-5.52,2.95-1-12.36-.2-19.08,1-31l9-1ZM83.21,138.2c-3.63,2.33,1.76,10.53,5.95,5.44,3.21-3.9-3.37-7.09-5.95-5.44Z"/>
        <path class="cls-20" d="M106.06,36.06c.27-.11,3.54.24,4.99-2.01l.06,2.92,5.95.08.93,5.58,5.06.44c-2.28,6.23-8.69,6.78-13.7,9.79l-5.29.21h10.99c-7.53,4.61-29.86,1.62-28-10.01,7.24-.18,12.68-4.4,19-7Z"/>
        <path class="cls-13" d="M137.06,27.06c.04,2.09-1.26,3.43-2,5,.99-7.59-8.49,11.48-13.03,7.57-1.69-7.45-8.27-2.68-6.73-9.82.15-.68,5.76-11.79.76-8.75.69-2.14.58-4.82,1-7,3.81-1.54,11.4,3.68,14.53,5.98,3.9,2.87,4.25,2.09,5.47,7.02Z"/>
        <path class="cls-55" d="M7.06,23.06c9.2-6.05,20.73-6.02,30.99-9-8.86,25.25,14.93,49.34,40.31,39.8,1.9-.71,2.83-2.24-.3-1.8,2.88-1.51,6.32-5.49,6-9,.78.16,2.09.02,3,0-5.33,21.76-37.23,18.26-47.41,1.91-12.09-26.24-.7-27.32-32.59-21.91Z"/>
        <path class="cls-48" d="M154.06,24.06h-2.99s1.99,1.99,1.99,1.99c-9.05,1.05-11.53,3.59-15,11.01l-2-1c2.89-6.24,1.63-12.84-4.47-16.02-3.12-2.3-10.71-7.51-14.53-5.98.57-3,1.1-5.97,1.49-8.99,4.06,4.42,13.49,6,17.49,9.51,1.92,1.69,2.02,4.32,3,5,.64.45,12.46,3.66,15.01,4.49Z"/>
        <path class="cls-41" d="M116.06,21.06c5.01-3.04-.61,8.07-.76,8.75-1.55,7.14,5.04,2.37,6.73,9.82,4.54,3.91,14.02-15.15,13.03-7.57-6.21,13.62-15.19,23.12-30.99,21.01l5.29-.21c5.01-3.01,11.42-3.56,13.7-9.79l-5.06-.44-.93-5.58-5.95-.08-.06-2.92c-1.45,2.24-4.73,1.9-4.99,2.01,3.7-4.41,8.2-9.4,10-15Z"/>
        <path class="cls-44" d="M38.06,21.06c1.3-10.38,10.64-15.81,20-17.99-.52,2.46-1.14,4.37-1,6.99-7.16,2.09-13.45,6.12-19,11Z"/>
        <path class="cls-48" d="M154.06,24.06c3.52,1.14,7.89,1.34,11,4-4.39-.95-12.7-1.68-17-1l5-1.01-1.99-1.98h2.99Z"/>
        <path class="cls-60" d="M82.06,114.06c-.15,1.97.1,4.02,0,6.01l9.35-.98.65-5.03c1.02-.29,2.79.18,4,0v5.01c3.57-.68,6.74.59,10,.99l-10.56,1.97c-1.05,23.77-1.82,47.11,2.56,71.03-9.55-18.37-7.66-50.71-6-71-13.31-1.15-9.07,1.73-10,11-1.84,15.29-1.89,28.31,0,44,0,0-.99,3.99-.99,3.99-2.41-19.05-3.42-38.91-1.01-57.99h-7.49s1.5-2.01,1.5-2.01c1.79-.37,4.08.07,5.86-1.14.43-1.92.04-3.91.14-5.86.62-.03,1.43-.1,2,0Z"/>
        <path class="cls-7" d="M80.06,106.06c-.03,2.65.13,5.35,0,8-9.16-.58-43.52,6.58-46.01-4.49l46.01-3.51Z"/>
        <path class="cls-55" d="M109.06,55.06c-2.28.57-4.96.94-7,2-3.39-.36-6.07-1.32-8.99-3-.92,11.61,8.74,47.41,0,54v-2c5.6-3.81-1.14-27.33-.02-34.99-1.85.2-.96,4.55-.99,5.99-2-8.8-.99-18.17-3-27,6.61,3.58,12.16,6.08,20,5Z"/>
        <path class="cls-30" d="M93.06,106.06h-1c-.11-9.63-.2-19.38,0-29,.03-1.44-.86-5.79.99-5.99-1.12,7.71,5.63,31.11.01,34.99Z"/>
        <path class="cls-62" d="M80.06,106.06c.17-13.7-.7-27.36-.5-41.01,1.75,14.59,2.99,29.27,2.49,44.01l-1.99-2.99Z"/>
        <path class="cls-5" d="M82.22,65.9c-2.25-3.64,1.52-9.11,5.42-5.95,5.13,4.16-3.13,9.64-5.42,5.95Z"/>
        <path class="cls-46" d="M92.06,106.06c.02,1.85-.7,4.76,1,6-1.76,2.74-3.19-2.16-5.47-1.96,0,0-5.53,2.96-5.53,2.96.19-1.57,1.54-3.77,1.09-5.92l8.91-1.08Z"/>
        <path class="cls-16" d="M91.1,89.69c.07,4.88-7.59,4.88-7.52,0-.07-4.88,7.59-4.88,7.52,0Z"/>
        <path class="cls-20" d="M102.06,57.06c5.66.4,12.47.33,18-1l.99,3.55,4.51-2.53c.34,0,2.5,3.1,2.5,3.48v38c0,2.04-7,2.04-7,0v-36c0-.36-1.14-1.56-1.1-2.41l-2.9-.09v41.5c0,.79,2.68,2.74,1.99,4.49l-21.99,1.01-2,5c-3.79.89-3.15-3.48-3-6h1v2c8.74-6.56-.9-42.38.01-54,2.92,1.68,5.6,2.64,8.99,3Z"/>
        <path class="cls-46" d="M97.06,107.06c1.56-1.37,32.66,1.99,41.28-2.22,2.61-1.28,4.09-5.85,6.69-2.29-5.72,16.14-36.92,12.46-49.97,9.51l2-5Z"/>
        <path class="cls-48" d="M138.06,37.06c-5.21,9.92-12.1,20.4-25,20,9.95-3.49,18.76-11.32,23-21l2,1Z"/>
        <path class="cls-26" d="M92.06,114.06l-.65,5.03-9.35.98c.1-1.98-.15-4.03,0-6.01,6.98,2.87,3.43,5.19,10,0Z"/>
        <path class="cls-4" d="M86.06,188.06c-.13-1.36.57-2.57,1.26-3.71,11.49-4.3,6.25,13.45-1.26,3.71Z"/>
        <path class="cls-8" d="M112.06,190.06c-1.52-.15-3.36.53-.75-1.23,24.72-14.45,12.07-6.52,5.66-24.3-.24-7.3,14.13-11.82,3.12-22.73-1.41-1.39-4.42-1.16-5.04-3.73,25.62,5.93,5.74,16.11,8.75,29.73,2.39,5.8,11.43,8.43,3.25,17.26-4.97,1.91-10.05,3.18-15,5Z"/>
        <path class="cls-70" d="M82.06,133.06c.94-9.27-3.31-12.15,10-11,.38,3.43-.89,6.63-1,10l-9,1Z"/>
        <path class="cls-49" d="M81.06,164.06c2.62.18,2.28-3.18,5.52-2.95,4.69.34,4.6,7.57-.07,8-3.75.34-2.41-3.44-5.45-3.05-.07-.65.05-1.34,0-2Z"/>
        <path class="cls-39" d="M83.21,138.2c2.58-1.65,9.16,1.53,5.95,5.44-4.19,5.1-9.58-3.11-5.95-5.44Z"/>
        <path class="cls-61" d="M136.06,36.06c-5.78,12.81-19.4,23.72-34,21,18-3.97,29.22-11.85,35-30,.9,3.61.64,5.26-1,9Z"/>
      </g>
      <g>
        <path class="cls-38" d="M143.06,185.06c56.15,90.41,46.32,176.23,34.01,278.01-15.62-1.41-30.78-1.81-46.21,1.29-35.8,12.45-86.51,31.32-119.72,3.12-5.39-5.41-2.08-7.13-2.04-12.88,1.36-55.92-2.44-113.02,5.75-168.26-.02-1.94-2.15-2.45-2.63-4,7.34-28.2,15.5-58.36,21.84-87.28.3.2,2.08.58,3,1l-3.85,16.31c2.14,3.77,12.34,6.86,16.85,6.7.41-5.39.77-11.34,1.96-16.59.58-2.56-.91-2.75,3.04-2.42l-2.74,23.54,5.74,1.46,3.05-24.95,4.95-.06c-6.28,2.6-3.33,5.02-4.02,10.49-.2,8.17-6.08,11.59,4.02,10.51l.56.91,15.44-.91c.09.66,1.78,2.41,1,4-3.63-3.74-2.88-1.17-6.67-1.37-5.23-.28-10.48-1.04-15.77-.68-1.69.9.65,2.68-1.56,4.05-4.02,1.45-6.88-1.41-9-2-.33-2.24,1.36-3.25-1.51-3.99-3.47-.9-7.01-1.47-10.47-2.53-2.08-.63-4.83-3.73-6.5-1.48l-15.5,59.99,15.01-31.55c4.1-.49,8.27,2.17,11.98,3.55,3.51,4.26,7.29,1.99,9.17,8.33,2.46,11.3,3.37,28.14,2.62,39.97-1.88,6.81-26.73,14.13-27.79,20.71-.55,1.51-6.21,1.84-7.5,2.12-2.58-.12-3.21-2.16-5.5-2.12-2.58,46.93-4.13,96.91-3.06,143.55,4.09,11.64,25.04,15.86,36.05,17.45,24.82,4.21,49.67-4.08,72-14,2.2.85,4.3-1.81,5-2,5.41-.72,13.58-2.26,19-3,4.53-.47,10.03,1.17,14-1,5.9.75,11.99,1.61,18,2,5.94-51.47,10.05-103.11,8.99-155-.23-.31-3.73,2.45-4.76,2.75-5.46,1.55-3.69-1.63-6.26-3.2-5.06-3.08-26.76-9.78-29.05-13.22-3.09-11.39-6.3-28.58-6.46-39.88.33-2.81,3.42-4.12,4.54-6.45,3.11-2.06,11.01-8.03,14.33-6.87,6.81,6.3,14.04,20.81,20.66,27.87,1.79-4.5-2.62-5.6-2.99-6.73-3.19-21.42-14.69-40.28-26.5-58.25-1.62,3.64-9.16,6.48-10.62,8.44-1.68,2.25,2.67,6.33-5.16,8.78-4.23,1.32-3.84.78-5.21-3.22l-19.51,5.99c.04-1.94-.84-6.21-1-9l.99,6.01c4.65.33,16.42-1.66,18.05-6.51,0,0-4.04-17.49-4.04-17.49,2.79-.47,1.68.58,2.26,2.19,2.37,6.68,3.41,14.08,5.75,20.81,1.77.59,2.1-.49,2.99-1,1.32-.76,2.85-1.47,2.78-3.29l-5.78-19.71c.34-.1,1.38-.72,2-1l4.01,15c1.76,1.68,9.38-6.14,10.91-7.69l-4.92-14.32c.63-.59.99-1.1,2-1ZM149.06,245.06c-2.36,1.73-8.74,5.74-9,8.52,2.16,8,.94,31.86,6.46,37.52,2.24,2.3,9.41,4.45,12.54,5.96,5.81,2.88,22.72,12.98,24.05.56-1.14-18.3-6.53-28.64-18.05-42.56-4.44-5.88-7.89-20.67-16-10ZM30.06,252.06c-12.31,28.88-13.83,26.13-15.88,58.55.79,4.22,6.76,8.84,9.88,4.45,9.85-5.5,21.76-10.38,29-19,0,0-2.65-37.85-2.65-37.85-1.37-4.21-7.48-5.32-11.35-7.15-4.31-2.58-7.59-7.07-9,1Z"/>
        <path class="cls-21" d="M105.06,227.06c2.03-.85,12.67-3.99,13.92-2.91,2.63,12.63,3.45,25.52,5.23,38.27,3.41,19.15,11.38,41.27,4.85,58.65l6.99,1.01c-7.8,12.92-2.64,29.38-3.99,43.99-1.87,31.65-3.8,65.97-8,97-.7.19-2.8,2.85-5,2,9.62-10.72,5.04-48.71,7.11-64.31.89-17.17,3.1-34.41,2.88-51.68,0,0-6.27,39.22-6.27,39.22-12.92,27.4,11.59,59.63-17.72,79.78l-7-132c6.53-4.3,12.69-9.83,18.99-14.51-5.15.14-9.9,4.71-13.99,7.51,0,0,.03-24.53.03-24.53-5.89-23.85.41-49.89-2.77-74.25,1.62-1.1,2.88-2.56,4.74-3.22ZM118.06,249.06c5.08-4.76-3.4-11.6-7.97-7.47-7.29,5.3,1.12,15.73,7.97,7.47ZM123.23,287.02c.11-7.84-12.21-7.84-12.09,0-.11,7.84,12.21,7.84,12.09,0Z"/>
        <path class="cls-53" d="M167.06,253.06c-1.55-2.18-9.35-13.41-10.67-13.87-3.31-1.16-11.21,4.81-14.33,6.87-2.84,1.88-6.54,2.14-7.06,6.44-.95,7.75,2.69,32,5.76,39.37,1.99,4.77,12.28,9.06,17.3,11.2-1.93-.96-3.92,6.16-3.97,6.54,5.1,20.68.72,43.8,3.96,64.46l-2.97.5,1.98,7.5c-5.41,24.02,12.11,50.9-8,71-.66.58-12.26,6.69-6,7-2.99.31-8.71,1.41-12,2l6.04-86.46c2.65-12.34-4.28-37.05-.23-47.24,1.48-3.72,5.19-6.3,5.19-10.29l-7.97-1.5c11.16-16.57-16.54-72.47-12.08-93.07,20.17.51,21.22-17.93,29.87-6.75,3.5,3.28,18.13,33.68,15.18,36.32Z"/>
        <path class="cls-83" d="M50.06,225.06c2.12.59,4.98,3.45,9,2,4.35,83.14,8.35,170,8,253-6.88.45-13.36-.24-20-1-.94-54.62-.64-110.58-5.05-165.55,2.01-9.32,16.04-7.54,15.83-21.95,0,0-3.68-36.1-3.68-36.1-2.81-5.31-13.51-7.03-19.1-9.4-.32-4.27,3.83-22.88,8.47-22.98.41,0,5.14,1.6,6.53,1.98Z"/>
        <path class="cls-22" d="M84.06,231.06c-1.33.06-2.67-.05-4,0,1.88,4.87-1.78,10.12.92,15.26-11.08-2.44-9.6,15.64.93,11.43-.56,6,.79,12.01.04,17.76-.82,6.3-3.8,4.5-7.44,7.5-1.52,1.25-2.53,2.42.54,2.04-3.2,5.28,2.49,10.98,8,9l-5.99,1.01,1.99,1.98-3.01.51,7.59,3.43c1.49,1.89-.58,3.83-.58,4.57v28c0,2.98,3.57,7.03-2.94,8.6l.94,2.9c-4.42,5.24-.09,2.68.11,5.47-2.76,41.25,4.3,85.22,2.89,125.52,1.32-.04,2.68.1,4,0-5.94,2.07-14.68,3.59-21,4,1.41-83.03-5.75-171.59-7-254,8.14-1.8,17.2.23,24,5Z"/>
        <path class="cls-63" d="M44.06,309.06c-2.08,54.99,4.31,114.26,3,170-4.64-.53-6.44-.76-11-2-6.58-52.45-15.29-105.02-10-158,5.09-3.34,12.94-6.19,18-10Z"/>
        <path class="cls-68" d="M98.06,336.06l7,132c-2.26,1.79-7.75,4.26-3,4-5.8,2.14-11.61,4.58-18,3.99,1.41-40.31-5.65-84.27-2.89-125.52-.2-2.79-4.54-.22-.11-5.47,4.85-2.69,12.28-5.18,17-9Z"/>
        <path class="cls-1" d="M26.06,319.06c-5.29,52.98,3.42,105.55,10,158-6.85-1.87-23.98-7.43-25.05-15.45-1.08-46.66.48-96.59,3.06-143.55,2.29-.04,2.92,2,5.5,2.12.35.02,6.17-1.02,6.5-1.12Z"/>
        <path class="cls-64" d="M142.06,246.06c-1.11,2.33-4.21,3.64-4.54,6.45.17,11.35,3.36,28.45,6.46,39.88,2.28,3.44,23.99,10.14,29.05,13.22,2.57,1.57.8,4.75,6.26,3.2,1.03-.29,4.53-3.06,4.76-2.75,1.06,51.89-3.05,103.53-8.99,155-3.58-.44-7.46-.54-11-1,10.38-48.93,11.64-101.78,9.89-151.9-10.78-2.86-26.56-7.2-33.2-16.3-3.07-7.37-6.71-31.62-5.76-39.37.53-4.29,4.22-4.56,7.06-6.44Z"/>
        <path class="cls-69" d="M158.06,303.06c5.2,2.21,10.33,4.03,15.89,5.1,1.75,50.1.49,102.98-9.89,151.9-2.04-.27-4.02-.74-6-1,7.02-13.92,4.22-34.49,5-50,0,0,1.99-83.99,1.99-83.99l-6.94,25.62c5.09,12.92.82,19.61-1.05,31.38l-1.98-7.5,2.97-.5c-3.23-20.65,1.14-43.78-3.96-64.46.04-.38,2.03-7.5,3.97-6.54Z"/>
        <path class="cls-77" d="M125.06,250.06c2.31,16.86,17.91,52.55,9.02,66.51l7.97,1.5c0,3.99-3.71,6.57-5.19,10.29-4.05,10.2,2.88,34.9.23,47.24l-6.04,86.46c-2.1.38-5.48.6-7,1-.89-2.98.71-5.89,1-8,1.05,2.74,1.66-2.37,1.71-2.79,4.26-34.25,8.38-69.77,7.28-104.21-.4,1.85-.23,17.04-1.99,17.99,1.36-14.63-3.8-31.07,3.99-43.99l-6.99-1.01,4.76-10.73c-.27-20.21-7.35-40.11-8.76-60.27Z"/>
        <path class="cls-59" d="M119.06,465.06c-2.51,1.77-5.64,1.91-8,3l-1-4c22.04-22.76.15-49.38,12.72-75.78l6.27-39.22c.22,17.28-2,34.51-2.88,51.68-2.09,15.71,2.55,53.43-7.1,64.31Z"/>
        <path class="cls-24" d="M165.06,255.06c.84,14.03,4.34,28.44,4,42.55,1.59,7.71-7.21.4-10-.55,3.4-.48-5.98-5.15-7-7,12.39,2.27,13.11-8.32,2.96-12.65,1.29-11.44-3.3-23.62,1.03-34.35-.16-.19-3.6,2.59-3.99,3v-2s-3,1-3,1c8.11-10.66,11.55,4.1,16,10Z"/>
        <path class="cls-14" d="M107.06,222.06l19.51-5.99c1.36,4,.98,4.54,5.21,3.22,7.83-2.45,3.48-6.53,5.16-8.78,1.46-1.95,9-4.8,10.62-8.44,11.81,17.96,23.31,36.83,26.5,58.25.36,1.14,4.78,2.23,2.98,6.73-3.91-3.77-6.69-9.37-9.99-14,1.79-.68.12-3.09-.25-4.24-3.54-10.89-7.96-22.85-14.94-32.07-6.98-9.24-10.01,1.4-17.28,4.35-8.97,4.04-16.28-2.39-12.54,11.96,0,0-1,3-1,3-.6-3.91-1.47-7.98-2.08-11.91-1.25-1.07-11.89,2.06-13.92,2.91.3-1.37,1.98-3.91,2-5Z"/>
        <path class="cls-79" d="M36.06,249.06c-3.81,0-1.51.36-.32,1.68,1.87,2.09,4.2,4.12,4.98,6.97l-1.65,31.33c.64.09,1.39-.1,2,.01-8.25,8.28,1.6,16.44,9,8,.07.45.55.87,1,1-3.57,4.6-10.88,8.06-16,11-5.8.42-.8-14.24-1.53-17.12.82-5.07-10.3-52.67,2.53-42.88Z"/>
        <path class="cls-81" d="M167.06,301.06c6.24,1.6-2.67-40.17-2-46,4.56,6.61,11.33,13.84,14.05,21.45,3.03,13.39,11.15,34.49-12.05,24.55Z"/>
        <path class="cls-47" d="M30.06,252.06c-.77,12.95,2.66,27.34,3.47,39.88.71,2.78-4.22,17.72,1.53,17.12-3.65,2.1-7.14,4.26-11,6-4.85-15.04.07-48.38,6-63Z"/>
        <path class="cls-74" d="M35.06,246.06c-1.22-.23-2.77-1.3-3.98-.55l-15.01,31.55,15.5-59.99c1.68-2.25,4.42.84,6.5,1.48,3.47,1.06,7,1.62,10.47,2.53,2.87.75,1.18,1.75,1.51,3.99-1.39-.39-6.11-1.99-6.53-1.98-4.64.1-8.8,18.72-8.47,22.98Z"/>
        <path class="cls-72" d="M163.06,409.06c-.78,15.53,2.02,36.06-5,50-.33-.04-.67.04-1,0-2.05-2.44-7.91-.36-11-1.01l3-4.99c14.4-12.82,7.85-26.54,9-42,.35-4.71,1.77-3.99,1.92-4.77,1.1-5.63,2.25-11.44,2.09-17.23,2.42-.57.49,17.26.99,19.99Z"/>
        <path class="cls-50" d="M24.06,315.06c-3.11,4.37-9.09-.21-9.88-4.45,1.67-9.09.84-19.87,3.12-28.81,1.65-6.5,7.14-15.26,9.76-21.74-2.6,15.86-8.05,39.32-3,55Z"/>
        <path class="cls-27" d="M36.06,249.06c1.2.61,2.3,1.67,3,2l7.74,12.76c2.69,9.06,2.85,18.51,4.27,27.73.27,1.77.17,3.47,1.99,4.51-.29,1.29-1.61,1.5-2,2-.45-.13-.93-.55-1-1,.47-7.52-4.79-8.1-11-8.01l1.65-31.33c-.78-2.85-3.11-4.88-4.98-6.97-1.19-1.32-3.48-1.68.32-1.68Z"/>
        <path class="cls-45" d="M119.06,195.06l2,21c-2.67,1.36-7,2.8-10,3l-3.07-20.39,5.63-1.56-.56-1.05c1.37-.12,3.81-.78,6-1Z"/>
        <path class="cls-6" d="M152.06,246.06c-11.65,13.73-9.69,41.67,7.54,49.99.81.75.45,1.05-.54,1.01-3.13-1.51-10.3-3.66-12.54-5.96-5.52-5.67-4.3-29.53-6.46-37.52,1.07-3.66,8.09-8.47,11.99-9.51v2Z"/>
        <path class="cls-56" d="M44.06,309.06c-4.82,3.15-11.62,6.97-17,9,1.05-6.57,25.95-13.93,27.79-20.71.76-11.81-.15-28.69-2.62-39.96-1.88-6.34-5.67-4.06-9.17-8.33,3.65,1.47,8.89,1.88,11.1,6.4l3.68,36.1c-.27,9.96-6.32,12.63-13.78,17.51Z"/>
        <path class="cls-34" d="M42.06,198.06l3.11,2.47-1.11,17.53c-2.62-.7-10.22-3.08-10.85-5.69l3.85-16.31c.62.28,4.74,1.94,5,2Z"/>
        <path class="cls-64" d="M141.06,186.06l4.92,14.32c-1.54,1.55-9.16,9.37-10.91,7.69l-4.01-15c4.39-1.99,6.58-3.78,10-7Z"/>
        <path class="cls-31" d="M103.06,197.06c.66.03,1.34-.05,2,0-1.46,9.99,4.59,20.98,0,30.01-.67.28-1.37.64-2,1-6.5-.52-16.27,4.65-20-3,.78-1.59-.91-3.34-1-4-.74-5.69,0-13.01-1-19,3.23-.57,1.68,1.63,1.96,3.49,1.05,6.78,1.01,13.56,2.21,20.33,3.78,2.8,14.55-.61,18.69-.96l-.86-27.86Z"/>
        <path class="cls-24" d="M66.06,200.06l-4.95.06-3.05,24.95-5.74-1.46,2.74-23.54v-1c4.03.42,7.06.39,11,1Z"/>
        <path class="cls-65" d="M53.06,296.06c-1.81-1.05-1.71-2.74-1.99-4.51-1.42-9.22-1.58-18.66-4.27-27.73l-7.74-12.76c3.87,1.83,9.98,2.94,11.35,7.15l2.65,37.85Z"/>
        <path class="cls-40" d="M55.06,199.06v1c-3.95-.33-2.46-.14-3.04,2.42-1.19,5.25-1.55,11.2-1.96,16.59-2.34.52-4.02-.48-6-1.01l1.11-17.53-3.11-2.47c4.42,1,8.78.56,13,1Z"/>
        <path class="cls-58" d="M60.06,226.06c.25-.88-.67-2.73.56-3.05,5.29-.36,10.54.4,15.77.68,3.79.21,3.04-2.37,6.67,1.37,3.73,7.65,13.5,2.48,20,3-5.6,4.02-12.56,2.36-19,3-6.8-4.77-15.86-6.8-24-5Z"/>
        <path class="cls-12" d="M81.06,201.06c.79,6.33.36,13.95,1,20l-15.44.91-.56-.91c3.65.1,7.35-.07,11.01,0l.99-20.01c.99-.06,2,.02,3,0Z"/>
        <path class="cls-75" d="M127.06,195.06c2.32,4.34,4.29,17.08,5,22-.89.51-1.22,1.59-2.99,1-2.34-6.72-3.38-14.12-5.75-20.81-.57-1.62.53-2.66-2.26-2.19,2.86-.33,5.12.11,6,0Z"/>
        <path class="cls-52" d="M74.06,201.06c-1.88.2-5.1,1.99-8,1v19c-10.09,1.08-4.21-2.36-4.01-10.52.69-5.47-2.26-7.89,4.02-10.48,2.63.41,5.16,1.55,8,1Z"/>
        <path class="cls-73" d="M113.06,196.06l.56,1.05-5.63,1.56,3.07,20.39c-1.32.09-2.68-.04-4.01,0-1.07-7.18-2.44-14.72-2-22.01-1.3.03-2.71-.08-4,0,3.07-2.08,8.15-.66,12-1Z"/>
        <path class="cls-14" d="M121.06,195.06l4.04,17.49c-.16,2.28-2.4,2.67-4.04,3.51l-2-21c.65-.07,1.35.08,2,0Z"/>
        <path class="cls-54" d="M129.06,194.06l5.78,19.71c.07,1.82-1.46,2.52-2.78,3.29-.73-4.98-2.66-17.61-5-22,.11-.01,1.07-.73,2-1Z"/>
        <path class="cls-69" d="M149.06,453.06l-3,4.99c3.08.65,8.96-1.42,11,1.01-3.97,2.17-9.47.53-14,1-6.26-.31,5.34-6.42,6-7Z"/>
        <path class="cls-17" d="M111.06,468.06c-3.28,1.52-5.24,2.71-9,4-4.75.26.74-2.21,3-4,1.49-1.18,3.75-2.71,5-4l1,4Z"/>
        <path class="cls-10" d="M78.06,201.06l-.99,20.01c-3.65-.07-7.35.09-11.01,0v-19c4.76.94,7.78-1.8,12-1Z"/>
        <path class="cls-25" d="M90.06,224.06c-5.31,1.3-4.93-21.37-4-23,.33.02.67-.03,1,0,2.09,9.63-3.4,25.82,12.42,20.12,1.01-.71.06-17.61-.56-19.49-.82-2.27-2.98-.7-3.86-2.62,1.08-.27,2.18-.83,3-1,1.26,1.08,2.65,1.62,3.01,3.49.53,2.77,1.51,17.79.82,19.84-1.2,3.57-8.82,2.6-11.83,2.67Z"/>
        <path class="cls-32" d="M103.06,197.06l.86,27.86-12.86,2.14c.58-.04,2.49-1.65,3.99-1.01v-.98c-2.23.49-3.22-.24-4.99-1.01,3.01-.07,10.63.91,11.83-2.67.69-2.06-.29-17.07-.82-19.84-.36-1.87-1.75-2.41-3.01-3.49,1.93-.58,3.14-1.31,5-1Z"/>
        <path class="cls-84" d="M95.06,199.06c.27.35.6.84,1,1l2.01,21.01h-6.01c-.11-1.31.15-2.7,0-4.01l3,1.99c-2.07-3.62,1.55-6,1.04-9.44-.35-2.43-4.62-4.52-3.05-8.55l-2.99,3c-.14-.94.12-2.03,0-3-1.33-.05-2.67.05-4,0,2.43-1.67,6.13-1.28,9-2Z"/>
        <path class="cls-71" d="M86.06,201.06c-1.42,1.56.07,19.95,1.53,22.01.79,1.12,1.79.69,2.47.99,1.77.77,2.76,1.5,5,1.01v.98c-1.51-.64-3.41.97-4,1.01-1.99.15-4.07-.23-5.83-1.18-1.2-6.77-1.15-13.55-2.21-20.33-.29-1.86,1.26-4.05-1.96-3.49v-1c1.65-.03,3.36-.09,5,0Z"/>
        <path class="cls-36" d="M102.06,229.06c-.46.46-1.3.66-1.74,1.22,3.18,24.36-3.12,50.4,2.77,74.25,0,0-.03,24.53-.03,24.53-6.73,4.69-16.36,10.51-22,16l-.94-2.9c6.51-1.57,2.94-5.62,2.94-8.6v-28c0-.74,2.07-2.69.58-4.57l-7.59-3.43,3.01-.51-1.99-1.98,5.99-1.01c.17-.06,1.79-2.52,2-3,4.14-7.28-5.96-11.22-10-6-3.07.38-2.07-.79-.54-2.04,3.64-3,6.62-1.2,7.44-7.5.75-5.76-.6-11.76-.04-17.76,4.99-2.21,4.35-10.06-.93-11.43-2.7-5.14.97-10.39-.92-15.26,7.63-.27,14.52.57,22-2.01Z"/>
        <path class="cls-43" d="M132.06,366.06c1.75-.89,1.6-16.22,1.99-17.99,1.1,34.43-3.02,69.97-7.28,104.21-.05.42-.66,5.52-1.71,2.79,3.9-28.2,5-60.37,7-89Z"/>
        <path class="cls-43" d="M125.06,250.06c1.41,20.16,8.49,40.06,8.76,60.27l-4.76,10.73c9-26.95-10.54-59.79-7-88,.72,5.6,1.86,11.46,3,17Z"/>
        <path class="cls-2" d="M123.23,287.02c.11,7.84-12.21,7.84-12.09,0-.11-7.84,12.21-7.84,12.09,0Z"/>
        <path class="cls-82" d="M103.06,329.06c4.09-2.8,8.85-7.36,13.99-7.51-10.92,8.06-21.68,18.79-34.99,22.51,5.43-4.79,14.73-10.72,21-15Z"/>
        <path class="cls-19" d="M116.06,241.06c-4.81,2.99-9.72,7.12-1.29,8.81l2.04-1.52,1.25.71c-6.85,8.26-15.27-2.17-7.97-7.47,2.38-1.73,3.46-1.77,5.97-.53Z"/>
        <path class="cls-9" d="M118.06,249.06l-1.25-.71-2.04,1.52c-8.43-1.69-3.52-5.82,1.29-8.81,3.96,1.95,4.72,4.72,2,8Z"/>
        <path class="cls-51" d="M163.06,409.06c-.5-2.76,1.44-20.48-.99-19.99.16,5.79-.99,11.6-2.09,17.23-.15.78-1.57.06-1.92,4.77-7.28-25.11,7.37-40.82.05-60.38l6.94-25.62-1.99,83.99Z"/>
        <path class="cls-28" d="M85.39,252.22c.12-7.97-12.41-7.97-12.29,0-.12,7.97,12.41,7.97,12.29,0Z"/>
        <path class="cls-80" d="M82.06,283.06l-4.54,2.96c-1.37,3.11-.48,6.09,3.04,6.68l3.24-2.42,1.26.78c-.21.48-1.83,2.94-2,3-10.35,3.3-12.54-13.83-1-11Z"/>
        <path class="cls-35" d="M152.06,246.06c.39-.41,3.83-3.19,3.99-3-4.33,10.74.25,22.91-1.03,34.35.21.8,2.14.9,3.04,1.65-.54-.23-6.1,1.12-6.77,1.24l-1.23,7.76c-7.75-10.02-6.81-32.66,2-42Z"/>
        <path class="cls-67" d="M158.06,290.06c-8.3-2.12-7.43-9.05,0-11,4.34,3.57,6.66,8.25,0,11Z"/>
        <path class="cls-37" d="M157.06,279.06c-6.82,3.71-6.72,8.57,1,11-1.96.81-4.02.28-6,0-.54-.55-1.75-1.67-2-2l1.23-7.76,5.77-1.24Z"/>
        <path class="cls-57" d="M50.06,297.06c-1.47.73-2.54,2.32-4,3-3.95-.98-9.42-5.83-4-8.57,2.25-1.14,4.3,4.16,5-1.43,3.28,1.71,2.56,4.11,3,7Z"/>
        <path class="cls-76" d="M47.06,290.06c-.7,5.58-2.75.28-5,1.43-5.42,2.75.06,7.59,4,8.57-7.37,3.43-11.09-6.23-5-11,1.87.35,4.22.07,6,1Z"/>
        <path class="cls-15" d="M96.06,200.06c1,.41,2.29-.1,2.86,1.62.62,1.89,1.57,18.79.56,19.49-15.82,5.7-10.32-10.48-12.42-20.12.99.09,2.01-.09,3,0-.18,6.72,2.48,13.23,1.99,20.01h6.01s-2.01-21-2.01-21Z"/>
        <path class="cls-18" d="M90.06,204.06l2.99-3c-1.57,4.02,2.69,6.11,3.05,8.55.5,3.44-3.11,5.82-1.04,9.44l-3-1.99c-.49-4.43-1.36-8.62-2-13Z"/>
        <path class="cls-23" d="M85.06,291.06l-1.26-.78-3.24,2.42c-3.52-.6-4.41-3.58-3.04-6.68l4.54-2.96c4.35.67,4.53,4.56,3,8Z"/>
      </g>
    </g>
  </g>
</svg>