<?xml version="1.0" encoding="UTF-8"?>
<svg id="Layer_2" data-name="Layer 2" xmlns="http://www.w3.org/2000/svg" viewBox="0 0 102.33 147.43">
  <defs>
    <style>
      .cls-1 {
        fill: #141725;
      }

      .cls-2 {
        fill: #111521;
      }

      .cls-3 {
        fill: #262e49;
      }

      .cls-4 {
        fill: #141b2c;
      }

      .cls-5 {
        fill: #536199;
      }

      .cls-6 {
        fill: #2a324f;
      }

      .cls-7 {
        fill: #4d598e;
      }

      .cls-8 {
        fill: #272f4a;
      }

      .cls-9 {
        fill: #2f3758;
      }

      .cls-10 {
        fill: #465183;
      }

      .cls-11 {
        fill: #0f1524;
      }

      .cls-12 {
        fill: #343d61;
      }

      .cls-13 {
        fill: #4b588b;
      }

      .cls-14 {
        fill: #0e1423;
      }

      .cls-15 {
        fill: #070910;
      }

      .cls-16 {
        fill: #222c48;
      }

      .cls-17 {
        fill: #232a44;
      }

      .cls-18 {
        fill: #363f63;
      }

      .cls-19 {
        fill: #242c46;
      }

      .cls-20 {
        fill: #384167;
      }

      .cls-21 {
        fill: #4e5b8f;
      }

      .cls-22 {
        fill: #0c0e17;
      }

      .cls-23 {
        fill: #040507;
      }

      .cls-24 {
        fill: #0c1119;
      }
    </style>
  </defs>
  <g id="Layer_1-2" data-name="Layer 1">
    <g>
      <path class="cls-23" d="M77.29,54.42c4.01.42,6.34,3.95,8.97,6.54,4.89,11.69,17.36,17.42,15.94,30.89-1.14,10.42-1.36,22.43.13,33.05-.6,3.49-4.98,2.65-5.88,5.19-1.25,3.54,1.66,12.66-.17,17.34l-7.1-2.39c-1.61-2.05-.38-5.7-1.62-8.38-.71-1.54-7.63-8.41-8.55-10.43-1.23-2.69-1.39-10.56-2.4-14.62-.48-1.94-3.81-13.65-4.34-14.17-3.64-4.14-5.06,29.55-19.46,26-2.1-.43-2.66-2.21-4.18-2.69-1.65-.52-8.25,0-10.79-.37-8.26-2.6-7.45-4.16-15.29.95-13.9-6.12-17.86,3.6-19.26,15.63-.27,1.46-.03,3.09-2,3.49-2.85-17.43,0-32.57-.77-50.26.18-1.21,9.25-20.32,10.31-21.69,3.75-4.85,15.32-10.91,16.04-17.04-2.99-11.91,6.06-21.43,5.39-33.01-5.51,4.15-11.08,9.64-7.99,16.99l-4.5-3.99-1.48,1.99c-1.22-14.69,13.25-16.67,17.99-27.49,11.07-12.6,22.28-1.21,36.2-1.2,9.67,1.3,10.5,11.36,17,17,5.94,14.17.26,25.2-12.2,32.69ZM55.28,4.43c-11.29-7.58-24.72,7.17-18.02,18.58l9.05-6.05,8.98-12.52c.8,20.33-28.62,24.2-26.51,42.99,11.19-14.79,29.36-17.18,45.97-23.04,1.3-.46,3.68-1.82,4.53.04-17.01,9.96-44.59,8.02-50.99,30,2.45.67,21.96-6.31,16.99-1-2.95.43-5.75,2.8-8.62,2.97s-4.28-1.46-7.3-.46c-3.19,1.06-10.98,8.04-12.08,11.49-6.29,1.93-8.89,12.42-10.27,17.73-.56.86-2.49.62-3.49,3-2.06,4.92.01,8.39-.2,12.71-.27,5.58-4.15,11.45-2.03,17.56l1.99.99c-.49,2.36-1.55,5.77-.51,7.99,1.93-3.83,4.26-7.37,6.51-10.99,2.03,4.79,6.18-.14,8.32.2,6.04,4.9,5.38.82,11.12-1.08,3.15-.23,7.24,2.36,10.13,2.82,2.46.4,10.23-.92,10.79-.83,1.26.2,2.39,2.8,3.66,3.41,6.97,3.33,13.41-14.25,13.98-19.51,3.36-12.43-1.19-25.69-8-36-.15-.23.37-1.38-.15-1.82-.22-.18-4.93-1.15-5.5-1.13-10.64.36-4.08,8.86-5.35,15.95-1.19,7.61-2.62,15.19-6.52,21.98-2.8,2.8-.73-2.2-.48-2.98,2.88-9.01,4.92-18.38,3.99-27.99-1.83,1.08-2.12,5.06-2.99,6.99-7.15.22,10.04-14.63-10-15,1.7-7.16,12.27.74,15.51.59,1.73-.08,3.45-2.15,5.21-2.4s4.5.85,6.78.91c1.98.06,4.8-1.11,5.9-.89,1.86.37,2.04,3.37,3.84,4.13,2.93,1.23,6.66.48,9.76.67-.59,2.88-8.38,2.28-9,3,6.33,9.06,10.45,18.13,11.03,29.48l-2.03-1.49c-.6-9.25-7.18-20.94-13.99-27l11.99,37c.32,1.07.8,1.49,1,2l2.11,17.39c5.35,2.09,2.96,3.24,4.64,6.34,2.18,4.05,6.54,6.05,6.82,12.32l3.42-.06c-.48-12.31-3.96-24.13-6.99-36l1-4c.64,6.67,4.8,11.93,7.98,17.52l-3.98-1.51c.73,1.66.9,8.25,3.34,7.85l3.69-3.35c-2.95-6.19.47-15.47-.21-20.84-4.4-5.23,1.69-10.85-.06-16.92-13.94-25.77-21.17-30.24-49.76-32.75v-2c9.44-.77,18.54,2.25,27.73-.77,10.12-3.73,15.6-23.43,6.68-31.22-1.16-.38-1.3.95-1.41.98-.65.2-1.62,1.29-1.98,1l-2.02-4c7.23-11.53-16.72-11.3-24-13Z"/>
      <path class="cls-12" d="M45.28,92.43c-.64,1.34,4.22,5.01,4.52,7.01l9.95-6.03c2.52,3.99.41,7.9,6.05,9.01l1.49-3.99c.67,6.18-6.1,25.45-13.98,22.51-1.28-.61-2.4-3.2-3.66-3.41-.56-.09-8.33,1.23-10.79.83-17-7.83-12.09,5.52-21.25-1.74-2.14-.33-6.28,4.6-8.32-.2.94-1.51,1.7-3.22,2.02-5l2,.51.49,4.47c.78-.3,1.11-1.75,1.5-1.98,8.22-4.94,7.53-8.91,13-15,.46,3.03,3.51-3.4,4.5-4l2.11,3.94,6.38-1.94c-3.17,9.87,3.63-2.17,4-5Z"/>
      <path class="cls-14" d="M79.28,17.43c-5.79,6.54-24.81,9.26-33.37,13.13-6.07,2.74-10.97,7.59-16.63,10.87,4.9-14.69,26.11-18.65,26-37,7.26,1.69,31.24,1.47,24,13Z"/>
      <path class="cls-4" d="M57.28,51.43l-5.99-3.99c9.35-1.94,20.5.1,27.99-7.01l-.96,5.48-9.05,3.03c-.38,2.57,1.66,1.29,3.07,1.06,5.31-.86,10.64-3.52,12.94-8.56-6.34,2.19-1.82-.7-6-2.01-4.49-1.41-17.41,5.86-21.01,3.48-.69-.46-.68-2.28-1.69-2.53-4.3-1.08-15.52,4.32-20,5.9-1.74.61-2.15,1.99-3.3-.85,11.05-15.12,40.45-11.95,50-25,.11-.03.25-1.36,1.41-.98,8.92,7.79,3.44,27.48-6.68,31.22-7.05,2.6-13.5.7-20.73.77Z"/>
      <path class="cls-6" d="M42.28,94.43c.6-4.75-6.58,1.46-7.99,0l.98-11.99c-.85.09-2.74,3.43-2.99,3.99l-1.24-.75c-1.33,3.96-2.02,7.39-4.76,10.75l1.99-10c-1.81.78-4.46,5.45-4.99,7-3.6.46-6.66-2.06-9.99,0l-3.01-3.01c6.58-13.15-1.37-10.62,5-18,7.61,1.55,14.69,4.18,22.47,2.01l1.03,1.95-1.48,4.04c6.56-.64,4.44-7.71,7.98-10.99.95,8.68-.89,16.71-2.99,24.99Z"/>
      <path class="cls-19" d="M88.28,68.43c2.53,3.09,10.96,14.58,11.76,17.75,1.26,4.97-1.89,9.32-1.76,14.25-.49-.86-3.19-4.98-3.5-4.98l-3.5,1.98c-.75-1.57,2.35-1.61,2-2.98-4.51-.37-3.33-6.44-7.99-4.01-.29,2.17,2.03,3.15,2.51,4.92.29,1.04-.55,1.91-.52,2.07.29,1.53.19,2.42,2,3,.23,1.93-.43,5.13-1,7l-1-1-1.06-5.96c-1.9,1.11-5.33.21-6.94-1.04-.06-1.33.09-2.68,0-4l2.03,1.49c-.18-10.44-4.53-17.24-8.03-26.48l5.08-.45.97-3.52,8.95,1.96Z"/>
      <path class="cls-8" d="M59.28,65.43c6.81,10.31,11.36,23.57,8,36-.07-4.69.59-9.46-1.01-13.99l-2,9.99-2.21-6.75-2.46-1.04-8.84,6.74c-.57-.05-3.98-7.1-5.48-3.95,2.37-8.31,3.64-16.38,4.43-25.07l9.57-1.93Z"/>
      <path class="cls-18" d="M10.28,90.43l3.01,3.01c3.33-2.06,6.39.46,9.99,0-.43,1.27-.39,4.38-.99,6,.16.2,2.46-1.56,2.99-2-1,7.55-7.52,12.95-11.5,18.98l-.49-4.47-2-.51c-1.45,5.95-6.08,10.43-8.52,15.99-1.7-5.18,1.79-9.14,2.54-14.56-.8-9.39-3.56-15.59,4.97-22.44Z"/>
      <path class="cls-22" d="M45.28,53.43c8.6-.51,16.19,2.23,25.49,3.01,7.64.81,12.76,6.17,17.51,11.99l-8.95-1.96-.97,3.52-5.08.45c.61.86.58,2.14,1,2.99l-4-5.99c.62-.72,8.41-.11,9-3-3.1-.19-6.83.56-9.76-.67-1.8-.76-1.98-3.76-3.84-4.13-1.1-.22-3.92.95-5.9.89-2.28-.07-5.01-1.16-6.78-.91s-3.48,2.32-5.21,2.4c-3.24.14-13.81-7.75-15.51-.59-6.17-2.48-8.38,2.22-13,6-.64.08-1.4-.12-2,0,1.1-3.45,8.89-10.43,12.08-11.49,3.02-1,4.56.62,7.3.46s5.67-2.54,8.62-2.97Z"/>
      <path class="cls-20" d="M87.28,106.43l1,1c3.03,11.87,6.51,23.69,6.99,36l-3.42.06c-.28-6.27-4.64-8.27-6.82-12.32-1.67-3.11.72-4.25-4.64-6.34l-2.11-17.39c.38.96.85,3.21,1.99,2.99l.02-6.99c2.35,1.68,3.67,3.67,6.99,3Z"/>
      <path class="cls-15" d="M79.28,39.43v1c-7.49,7.11-18.64,5.07-27.99,7.01l5.99,3.99c-2.33.02-4.68-.03-7.01,0v2c-1.31-.14-3.72-.18-4.99,0,4.97-5.31-14.51,1.66-16.99,1,.07-3.74,2.78-6.39,4.99-9,1.15,2.84,1.56,1.46,3.3.85,4.48-1.58,15.7-6.98,20-5.9,1.01.25,1,2.07,1.69,2.53,3.61,2.38,16.52-4.89,21.01-3.48Z"/>
      <path class="cls-17" d="M32.28,61.43c20.04.38,2.84,15.2,10,15-1.37,3.04-1.32,2.85-4.99,4l1.48-4.04-1.03-1.95c-7.77,2.18-14.86-.45-22.47-2.01,2.29-3.65,8.1-9.02,11.25-11.34,2.78-1.04,3.58.1,5.75.34Z"/>
      <path class="cls-11" d="M55.28,4.43l-8.98,12.52-9.05,6.05c-6.69-11.42,6.74-26.15,18.02-18.58Z"/>
      <path class="cls-15" d="M79.28,17.43l2.02,4c.36.3,1.33-.8,1.98-1,.5,2.1-2.26,2.98-4,4-.86-1.86-3.24-.5-4.53-.04-16.61,5.86-34.78,8.24-45.97,23.04-1.67-2.03-.05-4.34.51-5.99,5.66-3.28,10.56-8.13,16.63-10.87,8.56-3.87,27.58-6.59,33.37-13.13Z"/>
      <path class="cls-1" d="M17.28,67.43c.6-.12,1.36.08,2,0-12.95,14.5-1.5,7.56-9,23-12.12,9.61-1.19,17.96-7,29l-1.99-.99c-2.12-6.11,1.76-11.98,2.03-17.56.21-4.32-1.86-7.79.2-12.71,1-2.38,2.93-2.14,3.49-3,1.37-5.31,3.98-15.81,10.27-17.74Z"/>
      <path class="cls-9" d="M98.28,100.43c5.16,5.33-2.01,16.24,2.03,23.51l-3.69,3.35c-2.44.39-2.61-6.2-3.34-7.85l3.98,1.51c-3.68-6.36-8.66-12.73-7.98-20.52l6,6.99c-.01-3-3.71-7.56-4-9.99l3.5-1.98c.3,0,3.01,4.12,3.5,4.98Z"/>
      <path class="cls-3" d="M79.28,95.43c.09,1.32-.06,2.67,0,4-1.84-1.41-1.73-4.2-3.99-5,.91,3.23,1.12,8.05,1.99,11l-11.99-37c6.81,6.06,13.39,17.75,13.99,27Z"/>
      <path class="cls-13" d="M32.28,86.43c.24-.57,2.14-3.9,2.99-3.99l-.98,11.99c3.35.94,10.73-6.28,6.99,3.01l-6.38,1.94-2.11-3.94c-.98.57-4.06,7.04-4.5,4,1.88-4.13,2.22-8.87,4-13Z"/>
      <path class="cls-5" d="M79.28,99.43c1.62,1.24,5.04,2.15,6.94,1.04l1.06,5.96c-3.32.67-4.64-1.32-6.99-3l-.02,6.99c-4.17-3.08-3.46-10.97-4.98-15.99,2.26.8,2.15,3.59,3.99,5Z"/>
      <path class="cls-2" d="M48.28,78.43c1.27-7.09-5.29-15.59,5.35-15.95.57-.02,5.29.95,5.5,1.13.52.44,0,1.59.15,1.82l-9.57,1.93c-.21,3.92-.78,7.43-1.43,11.07Z"/>
      <path class="cls-21" d="M67.28,98.43l-1.49,3.99c-5.63-1.11-3.53-5.02-6.05-9.01l-9.95,6.03c-.3-2-5.16-5.66-4.52-7.01,1.5-3.16,4.92,3.9,5.48,3.95l8.84-6.74,2.46,1.04,2.21,6.75,2-9.99c1.29,3.59,1.11,7.26,1.01,10.99Z"/>
      <path class="cls-24" d="M32.28,86.43c-1.78,4.13-2.12,8.87-4,13-5.47,6.09-4.78,10.06-13,15,3.51-5.39,9.33-10.23,10-17,3.5-3.24,4.31-7.46,5.76-11.75l1.24.75Z"/>
      <path class="cls-16" d="M79.28,39.43c4.18,1.31-.34,4.2,6,2.01-2.3,5.04-7.63,7.7-12.94,8.56-1.41.23-3.45,1.51-3.07-1.06l9.05-3.03c.1-.71,1.14-5.9.96-6.48Z"/>
      <path class="cls-7" d="M26.28,96.43c-.69.86-3.31,2.92-3.99,3,.66-4.7,1.68-10.18,5.98-13l-1.99,10Z"/>
      <path class="cls-10" d="M91.28,96.43c-.4,3.08,3.97,7.47,4,10.99l-6-6.99c-1.81-.58-1.71-1.47-2-3l4-1Z"/>
      <path class="cls-9" d="M87.28,97.43c2.13-2.39-2.31-4.41-1.99-6.99,4.67-2.43,3.48,3.64,7.99,4.01.56.75-1.87,1.7-2,1.98l-4,1Z"/>
    </g>
  </g>
</svg>