<?xml version="1.0" encoding="UTF-8"?>
<svg id="Layer_2" data-name="Layer 2" xmlns="http://www.w3.org/2000/svg" viewBox="0 0 98.04 73.05">
  <defs>
    <style>
      .cls-1 {
        fill: #f0df5a;
      }

      .cls-2 {
        fill: #ecda54;
      }

      .cls-3 {
        fill: #e8d54c;
      }

      .cls-4 {
        fill: #c09730;
      }

      .cls-5 {
        fill: #caa22e;
      }

      .cls-6 {
        fill: #b38423;
      }

      .cls-7 {
        fill: #b58b29;
      }

      .cls-8 {
        fill: #f1e35e;
      }

      .cls-9 {
        fill: #e4d04d;
      }

      .cls-10 {
        fill: #e7d34c;
      }

      .cls-11 {
        fill: #fefefe;
      }

      .cls-12 {
        fill: #d8ba3a;
      }

      .cls-13 {
        fill: #c2972c;
      }
    </style>
  </defs>
  <g id="Layer_1-2" data-name="Layer 1">
    <g>
      <path class="cls-11" d="M5.93,15c-1.9.62-2.88,1.33-4,3-6.52,10.2,6.19,7.47,4,15-2.89.08-7.92,5.69-5,8,1.49,6.85,5.93,2.61,5,9-4.71-1.05-6.48,7.24-4,10,6.74,9.03,17.65-3.64,9-10-.25-.24-4.14-1.44-3.99-2.99,5.75-.25,8.41-4.85,6.79-10.3-.96-3.22-5.56-2.75-4.89-6.2.33-2.9,6.27-1.9,5.04-9.93-.82-5.34-4.62-4.05-4.99-5.24L7.92,0c-3.71,1.78-1.49,11.15-1.99,15ZM88.93,26c-3.77.68-5.3,3.31-5,7,.91,6.32,6.2,4.16,5,10-6.48.78-6.92,12.37,0,13v4c-3.38-.4-5.24,4.03-5,7,.9,11.31,19.09,5.09,12.44-4.95-1.48-2.24-6.15-2.47-3.44-6.05,5.2-1.2,6.25-6.55,3.35-10.75-1.14-1.66-4.62-2.66-4.29-4.62,7.22-7.01,8.45-9.87.1-16.29-1.38-3.98,1.74-10.76-1.67-14.33-.73,4.76-1.63,11.26-1.49,15.99Z"/>
      <path class="cls-13" d="M88.93,26c-.13-4.74.77-11.23,1.49-15.99,3.41,3.57.29,10.35,1.67,14.33,8.37,6.42,7.1,9.31-.1,16.29-.33,1.96,3.14,2.96,4.29,4.62,7.57,10.2-11.77,16.22-12.35,4.75l2.99-3,3.05,5.53c4.29.93,5.69-3.02,3.83-6.4l-4.87-.13c1.06-11.46-3.18-4.73-4.99-13l2.99-3c-.18,3.5,1.86,4.81,4.94,5.58,5.88-2.63,3.77-8.46-2.86-7.68.58-.83-.06-1.53-.07-1.9Z"/>
      <path class="cls-7" d="M5.93,15c.5-3.84-1.72-13.21,1.99-15l.97,15.34c.36,1.19,4.17-.11,4.99,5.24,1.23,8.03-4.71,7.04-5.04,9.93-.67,3.44,3.93,2.98,4.89,6.2,1.62,5.45-1.04,10.04-6.79,10.3-.15,1.55,3.74,2.75,3.99,2.99l-3,1c-.29-.16-1.89-.98-2-1,.93-6.39-3.51-2.15-5-9,2.43-4.97,2.38,2.8,6.47,2.96,3.69.15,5.76-3.69,4.05-6.99-1.08-2.08-4.89-1.65-5.52-3.98-.26-.96.49-2.57-.22-3.76-1.74-2.94-9.18-3.21-3.78-11.24,3.52-.43.05,4.56,2.96,6.55,4.81,3.29,10.49-4.38,3.99-7.08-2.51-1.04-2.88,2.84-2.95-2.46Z"/>
      <path class="cls-4" d="M92.93,56c-2.71,3.58,1.96,3.81,3.44,6.05,6.64,10.04-11.54,16.26-12.44,4.95l2.99-3c-.38,12.1,17.47,1.26,2.01-4v-4c.79.14,3.27.17,4,0Z"/>
      <path class="cls-10" d="M88.93,60c15.46,5.27-2.4,16.1-2.01,4l-2.99,3c-.24-2.97,1.62-7.4,5-7Z"/>
      <path class="cls-9" d="M88.93,26c.01.37.65,1.07.07,1.9,6.64-.79,8.74,5.05,2.86,7.68-3.08-.76-5.12-2.08-4.94-5.58l-2.99,3c-.3-3.69,1.23-6.32,5-7Z"/>
      <path class="cls-3" d="M5.93,50c13.1,4.46-1.16,16.33-2.01,3.01-.79,0-2.93,3.75-2.99,3.99-.13-3.25,1.13-7.78,5-7Z"/>
      <path class="cls-2" d="M5.93,15c.07,5.31.44,1.42,2.95,2.46,6.5,2.7.82,10.37-3.99,7.08-2.91-1.99.56-6.97-2.96-6.55,1.12-1.67,2.1-2.38,4-3Z"/>
      <path class="cls-1" d="M88.93,43c.16.9-.13,2.04,0,3l4.87.13c1.86,3.38.47,7.33-3.83,6.4l-3.05-5.53-2.99,3c-.05-3.13,1.53-6.7,5-7Z"/>
      <path class="cls-12" d="M5.93,33c.63,2.33,4.45,1.9,5.52,3.98,1.71,3.29-.36,7.14-4.05,6.99-4.09-.17-4.04-7.94-6.47-2.96-2.92-2.31,2.11-7.92,5-8ZM10.57,39.04c.06-3.83-5.96-3.83-5.91,0-.06,3.83,5.96,3.83,5.91,0Z"/>
      <path class="cls-5" d="M12.93,60c-2.71-1.65-6.09,2.88-8.93-.82l-2.07.82c-.68-1.03-1.4-1.3-1-3,.06-.24,2.2-3.99,2.99-3.99-.1,11.83,14.13,3.55,4.01-2.01l3-1c3.22,3.04,4.35,5.97,2,10Z"/>
      <path class="cls-6" d="M1.93,60l2.07-.82c2.85,3.71,6.22-.82,8.93.82-2.45,4.21-8.35,4.04-11,0Z"/>
      <path class="cls-8" d="M10.57,39.04c.06,3.83-5.96,3.83-5.91,0-.06-3.83,5.96-3.83,5.91,0Z"/>
    </g>
  </g>
</svg>