<?xml version="1.0" encoding="UTF-8"?>
<svg id="Layer_2" data-name="Layer 2" xmlns="http://www.w3.org/2000/svg" viewBox="0 0 79.19 168.37">
  <defs>
    <style>
      .cls-1 {
        fill: #ce2b2a;
      }

      .cls-2 {
        fill: #6c1717;
      }

      .cls-3 {
        fill: #f9f7f7;
      }

      .cls-4 {
        fill: #760909;
      }

      .cls-5 {
        fill: #610505;
      }

      .cls-6 {
        fill: #70191a;
      }

      .cls-7 {
        fill: #630808;
      }

      .cls-8 {
        fill: #7e0c0c;
      }

      .cls-9 {
        fill: #6f0d0d;
      }

      .cls-10 {
        fill: #ce2d2e;
      }

      .cls-11 {
        fill: #a1181a;
      }

      .cls-12 {
        fill: #600303;
      }

      .cls-13 {
        fill: #6a0f0f;
      }

      .cls-14 {
        fill: #b82222;
      }

      .cls-15 {
        fill: #e7dcda;
      }

      .cls-16 {
        fill: #fefefe;
      }

      .cls-17 {
        fill: #d93838;
      }

      .cls-18 {
        fill: #8d1516;
      }

      .cls-19 {
        fill: #a51d1e;
      }
    </style>
  </defs>
  <g id="Layer_1-2" data-name="Layer 1">
    <g>
      <path class="cls-12" d="M64.11,125c-.55,2.03-5.09,3.77-3.49,6.02,6.37-1.46,13.02-2.06,18.49-6.02v15.5c0,11.16-16.33,23.69-26.02,26.97-14.23,5-18.82-11.95-22.93-22.07C9.83,149.11-1.29,115.74.12,99c4.62,5.59,10.51,10.98,17.99,11.99C9.78,94.09,1.79,76.28,7.28,57.16l11.65-7.66c-4.62-7.97-13.9-15.63-12.81-25.5,6.61-1.13,13.01,20.88,17.61,21.95,5.69-3.76,10.43-11.04,13.9-16.93,1.29-2.2,2.58-8.91,5.5-7.56,7.31,5.93-11.22,23.7-14.93,29.2,2.8,6.63,13.66,9.42,10.9,17.35l-16.47-13.01-14.34,8.59c1.08,5.49,11.02,49.65,17.36,44.45,4.95-3.45,7.39-9.72,12.21-13.28.66-1.31-.09-3.2.76-4.74,1.21-2.22,15.04-10.71,15.26-13.5-3.58-7.63-15.99-17.61-9.76-26.02l12.03,18.99,3.98,1.52c-.2.37-.56,3.99-2.01,4.99h3.01c.38,1.2-.94,2.4-1.01,3.01-.23.99.68,3.14-1,3-4.81-2.51-13.4,13.1-19.77,14.21-1.2,12,7.78,21.71,12.79,31.78,2.99.26,8.57-8.37,11.98-8.99l1,1c-3.7,2.87-6.6,7.36-10.99,9.02l1.48,1.97,8.03-6.97c.64.15.44,1,.49.98ZM34.11,115.01c-11.08,1.39-22.73-1.42-30.99-9.01.14,11.21,5.67,26.72,14.66,33.83,3.82,3.02,8.07,6.12,12.19,1.53-.55-9.21,1.93-17.62,4.13-26.35ZM35.97,111.85l-.35-5.85-6.51,6.98,6.86-1.13ZM38.09,114c-2.66-.35-1.55.14-2.01,1.45-.53,1.52-3.43,13.02-2.97,13.53l13.99,2.01-9.01-17ZM71.11,131c-12.61,2.61-25.38,2.69-37.99,0-2.54,9.77,2.11,21.05,8.99,28.01,4.21,5.89,6.4,4.06,12,2,13.88-7.11,24.09-14.74,22.99-32-.55-.62-4.78,1.67-5.99,2ZM65.11,158.01c-6.02,2.77-9.99,5.2-16.55,6.98-1.61.44-2.95-1.06-2.44,2.01,6.71-.42,14.21-4.29,18.99-8.98Z"/>
      <path class="cls-5" d="M38.1,0c-.31,1.77.88,3.8.7,5.37-.42,3.77-6.05,6.05.33,7.28v4.8c-3.75,6.39-43.85,9.85-32.03-1.96L1.11,4.01c8.11,3.31,18.54,20.39,28.03,7.52,3.48-3.93,3.99-10.32,8.97-11.52Z"/>
      <path class="cls-7" d="M65.11,31c-.1.12.6,1.82-1,2.99,1.51-.71,3.56.99,4,1.01-2.72,1.28,6.86,4.06,7.88,4.11l.11,5.88c-1.5,1.58-11.73-5.93-14.49-5.92-2.57,0-14.62,6.6-16.5,4.92.02-7.35,6.55-6.01,10.99-9.5-5.86-3.85-10.63-7.73-8.99-15.49l13.46,12.12,4.53-.12Z"/>
      <path class="cls-6" d="M63.11,79c-.88-.07-2.05.04-3,0,.06-.61,1.38-1.81,1.01-3h-3.01c3.39-9.43,11.15-16.72,17-25,6.12,12.75-15.76,21.87-11.99,28Z"/>
      <path class="cls-13" d="M63.11,79c.74.3,10.34,10.44,11.01,11.49,1.57,2.47,3.99,12.16,3.69,14.89-.1.94-2.51,7.43-4.7,6.62.57-1.23,2.41-7.11,1.99-8h-.98c-.1,1.03-.51,2.1-1.01,3l-1-2c1.73-4.16,3-6.54-1-10-.19-.6.58-1.05,1-1,.06,0,.75,1.95,1.01.49-1.29-6.1-8.78-9.67-11.01-15.49.35.03.78-.09,1,0Z"/>
      <path class="cls-2" d="M70.11,28l8.99-6.99c.65,7.7-2.41,8.85-7.99,11.99-2.26-2.5,6.56-3.44,4.99-8-2.02.4-4.05,5.67-5.99,3Z"/>
      <path class="cls-19" d="M71.11,33c-2.68,4.3-3.24.33-7,.99,1.6-1.17.9-2.87,1-2.99,1.52-1.96,2.91-2.21,5-3,1.95,2.67,3.96-2.59,5.99-3,1.56,4.58-7.24,5.48-4.99,8Z"/>
      <path class="cls-10" d="M73.11,112c-1.17,2.5-3.52,4.65-5,7-1.55-.34-1.96.2-3,1l-1-1c.38-.41.59-1.43,1-2,4.31-1.58,7.67-8.56,9.01-12.99h.98c.42.88-1.41,6.76-1.99,7.99Z"/>
      <path class="cls-9" d="M68.11,119c-1.03,1.64.28,4-4,6-.05.02.15-.83-.49-.98l-8.03,6.97-1.48-1.97c5.58-1.53,8.24-9.52,13.99-10.02Z"/>
      <path class="cls-16" d="M59.11,82c15.46,21.35,21.14,9.56,5,37-3.41.63-8.99,9.26-11.98,8.99-5.01-10.07-13.99-19.78-12.79-31.78,6.39-1.12,14.95-16.72,19.77-14.21Z"/>
      <path class="cls-4" d="M34.11,115.01c-2.21,8.73-4.68,17.14-4.13,26.35-4.13,4.59-8.38,1.49-12.19-1.53-8.99-7.11-14.53-22.62-14.66-33.83,8.26,7.59,19.9,10.4,30.99,9.01Z"/>
      <path class="cls-14" d="M71.11,131c3.92,21.09-12.97,17.82-23.99,29.51l6.99.49c-5.6,2.06-7.79,3.89-12-2-13.48-18.85,13.76-19.77,26-22.01l-3-4.99c2.13-.33,3.79-.4,6-1Z"/>
      <path class="cls-8" d="M65.11,132l3,4.99c-12.24,2.24-39.48,3.16-26,22.01-6.88-6.96-11.53-18.23-8.99-28.01,10.62,2.24,21.27,2.65,31.99,1.01Z"/>
      <path class="cls-17" d="M71.11,131c1.21-.33,5.44-2.61,5.99-2,.63,15.02-6.39,24.64-19.98,29l2.99-6c11.05-6.85,11.95-6.35,11-21Z"/>
      <path class="cls-3" d="M38.09,114l9.01,17-13.99-2.01c-.46-.52,2.44-12.02,2.97-13.53.46-1.31-.64-1.8,2.01-1.45Z"/>
      <path class="cls-18" d="M60.11,81l12,13c-.42-.05-1.19.4-1,1-3.74-4.17-9.5-7.43-12-13,.76.04,1.05-.25,1-1Z"/>
      <path class="cls-1" d="M62.11,79c2.23,5.82,9.72,9.4,11.01,15.49-.26,1.46-.95-.49-1.01-.49l-12-13c.05-.66-.07-1.35,0-2,.66.03,1.34-.05,2,0Z"/>
      <polygon class="cls-15" points="35.97 111.85 29.11 112.98 35.61 106 35.97 111.85"/>
      <path class="cls-11" d="M73.11,107c-1.87,3.3-4.37,9.09-8,10,1.43-1.97,6.08-9.87,7-12l1,2Z"/>
    </g>
  </g>
</svg>