<?xml version="1.0" encoding="UTF-8"?>
<svg id="Layer_2" data-name="Layer 2" xmlns="http://www.w3.org/2000/svg" viewBox="0 0 185.26 190.43">
  <defs>
    <style>
      .cls-1 {
        fill: #fefefe;
      }
    </style>
  </defs>
  <g id="Layer_1-2" data-name="Layer 1">
    <path class="cls-1" d="M137.66,11.99c-.72-3.7.94-8.29-.49-11.99C113.91,23.27,57.81,24.49,29.67,10c.01,29.69-15.23,54.15-19.1,84.39-2.69,14.88-1.54,33.41-4.19,49.82-1.34,13.66-15.17,32.94,2.6,39.95,12.84,6.49,55.8,8.21,69.23,3.88,11.57-3.73,9.71-8.3,11.46-19.05l4,14.99c13.8-15.87,59.95-12.46,80.3-10.81l1.56,1.39-1.39,14.41c23.25-1.08,3.36-83.28-.2-98.76-.27-28.21-24.68-53.82-36.28-78.23Z"/>
  </g>
</svg>