<?xml version="1.0" encoding="UTF-8"?>
<svg id="Layer_2" data-name="Layer 2" xmlns="http://www.w3.org/2000/svg" viewBox="0 0 231.16 449.62">
  <defs>
    <style>
      .cls-1 {
        fill: #012c6e;
      }

      .cls-2 {
        fill: #066cce;
      }

      .cls-3 {
        fill: #181818;
      }

      .cls-4 {
        fill: #003784;
      }

      .cls-5 {
        fill: #313131;
      }

      .cls-6 {
        fill: #023e92;
      }

      .cls-7 {
        fill: #040405;
      }

      .cls-8 {
        fill: #044eaf;
      }

      .cls-9 {
        fill: #002969;
      }

      .cls-10 {
        fill: #014095;
      }

      .cls-11 {
        fill: #003c8e;
      }

      .cls-12 {
        fill: #0561c2;
      }

      .cls-13 {
        fill: #050606;
      }

      .cls-14 {
        fill: #121212;
      }

      .cls-15 {
        fill: #0777d7;
      }

      .cls-16 {
        fill: #013c8d;
      }

      .cls-17 {
        fill: #034aa8;
      }

      .cls-18 {
        fill: #0562c3;
      }

      .cls-19 {
        fill: #eff2f4;
      }

      .cls-20 {
        fill: #0347a3;
      }

      .cls-21 {
        fill: #013e92;
      }

      .cls-22 {
        fill: #013075;
      }

      .cls-23 {
        fill: #022f73;
      }

      .cls-24 {
        fill: #012762;
      }

      .cls-25 {
        fill: #012b6c;
      }

      .cls-26 {
        fill: #f0f2f3;
      }

      .cls-27 {
        fill: #022865;
      }

      .cls-28 {
        fill: #034ba9;
      }

      .cls-29 {
        fill: #003885;
      }

      .cls-30 {
        fill: #1c1b1c;
      }

      .cls-31 {
        fill: #02439b;
      }

      .cls-32 {
        fill: #012159;
      }

      .cls-33 {
        fill: #042258;
      }

      .cls-34 {
        fill: #0248a3;
      }

      .cls-35 {
        fill: #02449b;
      }

      .cls-36 {
        fill: #0450b3;
      }

      .cls-37 {
        fill: #023177;
      }

      .cls-38 {
        fill: #002a6a;
      }

      .cls-39 {
        fill: #2b2b2b;
      }

      .cls-40 {
        fill: #012158;
      }

      .cls-41 {
        fill: #0359bb;
      }

      .cls-42 {
        fill: #023279;
      }

      .cls-43 {
        fill: #0676d8;
      }

      .cls-44 {
        fill: #0566c8;
      }

      .cls-45 {
        fill: #30363c;
      }

      .cls-46 {
        fill: #023a88;
      }

      .cls-47 {
        fill: #0348a4;
      }

      .cls-48 {
        fill: #7b7e83;
      }

      .cls-49 {
        fill: #151515;
      }

      .cls-50 {
        fill: #232223;
      }

      .cls-51 {
        fill: #002968;
      }

      .cls-52 {
        fill: #02449c;
      }

      .cls-53 {
        fill: #02459e;
      }

      .cls-54 {
        fill: #242424;
      }

      .cls-55 {
        fill: #0667c9;
      }

      .cls-56 {
        fill: #101010;
      }

      .cls-57 {
        fill: #021f54;
      }
    </style>
  </defs>
  <g id="Layer_1-2" data-name="Layer 1">
    <g>
      <g>
        <path class="cls-57" d="M190.16,89.2c-1.04,2.94-2.42,5.92-3,9-8.16,6.99-4.1,18.71-5.13,28.37-1.23,11.56-5.63,17.41-4.86,31.11,1.07,12.02,0,25.09-.17,36.78-.46,1.54-3.06,2.53-2.78,4.1,10.01,12.01,12.76,30.59,19.95,44.63l7.99-4c.17.32.76.62,1,1-3.46,1.74-6.53,4.83-10.06,6.57,27.86,60.83,17.55,129.18,9.06,193.44-50.03-12.7-137.76,29.52-167-3.49.17-50.05-5.15-104.04,3.04-152.09-4.35-9.32.16-10.54,2.73-20.16,2.33-16.71,5.07-35.9,16.24-49.26h1l1,2c-12.13,9.35-11.13,28.35-14.65,41.85-1.91,8.8-8.9,17.91-3.51,25.48-9.35,48.11-3.42,102.17-3.75,152.05,26.96,20.36,68.27,9.42,96.92,1.63,21.65-.34,43.98-1.46,65.89-1.12,6.47-53.3,18.35-112.42-.13-164.14-5.88-15.24-15.81-57.9-29.76-64.74,0-.67,0-1.33,0-2l6.99,4c1.1-5.53-3.73-8.1-5.76-12.51,5.23-3.92,3.68-8.63,3.76-14.48l-7.99,4.99c-.13-.96.08-2.02,0-3,16.88-7.61,8.06-22.51,7.96-37.53.42-7.77,5.07-16.13,5.91-24.09.6-9.2-1.52-16.59-.87-25.37l2.99,4c.45-1.4,5.41-16.43,7.01-13Z"/>
        <path class="cls-19" d="M57.16,215.2c-8.32,9.48-10.95,21.89-14,34l-1-3c1.6-5.61,1.86-13.6,3.66-18.84s7.99-8.12,6.05-15.86l5.28-6.29c-.43,2.93.63,7.35.01,9.99Z"/>
        <path class="cls-13" d="M61.16,196.2c10.56,5.16,21.67,6.07,33,8-.9,6.17,1.11,15.93,0,22-12.01-1.4-24.29-3.03-35-9l-1-2c2.12-6.54-5.03-16.23,3-19ZM92.17,206.2l-20.95-2.93-2.07,15.91c7.64.88,14.06,5.27,22.01,4.02l1.01-17Z"/>
        <path class="cls-21" d="M68.16,221.2c8.36,2.9,17.24,3.91,26,5,.49,3.27-4.3-2.13,0,4.99l-11.01-.49,6.02.49c-1.26,40.22,3.7,80.22.19,120.3,1.66,6.36,6.79,3.17,10.81,5.71-1.76.65-3.59,3.15-7,2-.89,4.2,1.68,7.69,2.01,11.49.67,7.8,1.04,26.66.05,34.06-.45,3.36-2.89,3.75-3.16,6.93,1.19,9.45,2.2,20.01.1,29.51l4.01,2-6,1.51c2.76.77,6.15.7,8.99.49-11.74,4.06-23.96,1.13-35.99.99,1.57-67.73,3.32-146.56-3.06-216.47.46-3.14,5.97-2.7,3.06-6.52,1.55-1.28,1.79-2.76,5-2Z"/>
        <path class="cls-35" d="M126.16,347.2c11.66,26.34-2.33,59.96,6.99,86.51-1.43,1.4-4.79-1.07-3.99,2.49,5.27-1.51,4.72,1.84,5,2.01-2-.67-1.81,1.75-2.7,1.97-11.58,2.14-29.54,6.52-41.29,4.53l6-1.51-4.01-2c2.1-9.5,1.09-20.06-.1-29.51.27-3.18,2.71-3.57,3.16-6.93.99-7.4.62-26.27-.05-34.06-.33-3.8-2.9-7.3-2.01-11.49,3.42,1.15,5.24-1.35,7-2,8.7-3.22,17.46-6.41,26-10Z"/>
        <path class="cls-16" d="M63.16,223.2c2.92,3.82-2.59,3.38-3.06,6.52,6.38,69.88,4.63,148.76,3.06,216.47,6.58-.59,12.51,1.91,18.99,1.01-11,2.48-23.83.46-34-4-.54-17.68-5.83-97.44-1.88-113.38,1.67-11.68,8.69-24.08,1.04-34.97l5.76-8c-9.14-7.45-.96-13.8.85-23.39,2.16-11.48-.41-32.29,9.24-40.26Z"/>
        <path class="cls-34" d="M146.16,232.2l4.99-1.01,1.02,7,2.98-4.99c1.46,6.38,2.42,24.96,2.03,30.53-.5,2.52-4.58,2.14-3.09,6.93l3.13,1.09c-.76,13.89,2.99,27.82-1.08,41.44-4.56-4.55-2.56-17.81-2.99-23.49,0-.57,1.76-1.72.54-3.52-3.74-5.49-1.54,2.2-1.54,2.52v45c0,1.64,5.84-.17,3.79,5.79-.65,1.9-3.17,2.4-2.78,4.71l3.98-1c1.2.85,1.4,13.22.8,15.29-.56,1.91-3.14,2.82-3.73,6.27-1.84,10.77,2.12,16.99,2.98,25.9,1.27,13.11-.33,29.34-1.04,42.52l2.99,1.01-4.99,2.01c2.66.05,5.34-.04,7.99,0v1c-6.74.11-13.29.71-20,1,4.11-31.95-1.51-63.94-.01-95.99l4.02-.52-2.01-2.49,1-1.99c-6.54.36-3.62-.5-3.16-5.55-.04-.93-.84-1.68-.84-1.96v-34c0-.53,1.6-2.08.99-3.49-2.55-.24-3.38,1.57-2.14,3.52l-4.35.48,1.5-1.01-3-2.99c2.48-1.62,8.16-6.27,10-7,.77-.31,2.9.5,3.82-.14,2.42-3.56-.48-6.96-.72-10.47-.03-14.57-2.33-27.84-1.11-42.39Z"/>
        <path class="cls-42" d="M170.16,208.2c13.91,6.74,23.91,49.56,29.76,64.74,18.48,51.74,6.6,110.83.13,164.14-12.61.36-25.28-.09-37.89.11v-1c9.98.2,20.02-.15,30,0,2.65-39.8,11.41-93.64,3.89-132.39-1.54-5.77-6.74-9.72-4.2-16.39,7.83-5.83-.44-7.32-3.28-13.18,1.09-11.92-7.26-27.5-11.42-39.04-3.21-7.92-6.19-17.94-16-20,3.02-2.3,6.06-4.6,9-7Z"/>
        <path class="cls-9" d="M68.16,221.2c-15.75,2.31-11.61,30.3-14.24,42.26-1.81,9.58-9.98,15.94-.85,23.39l-5.76,8c7.65,10.89.64,23.28-1.04,34.97-3.96,15.48,1.34,96.26,1.88,113.38-4.25-1.86-7.22-3.84-10.92-6.62.33-49.86-5.6-103.95,3.75-152.05-5.39-7.55,1.61-16.71,3.52-25.48,3.52-13.49,2.53-32.51,14.65-41.85,2.88,1.48,5.95,2.94,9,4Z"/>
        <path class="cls-20" d="M144.16,339.2l2.01,2.49-4.02.52c-1.49,32.05,4.13,64.04.01,95.99-13.09,2.47-4.58-3.87-13-2.01-.8-3.55,2.56-1.08,3.99-2.49-9.32-26.55,4.67-60.16-6.99-86.51,6.07-2.55,11.86-5.61,18-8Z"/>
        <path class="cls-7" d="M167.16,185.2c-.24,7.35,3.58,15.79,3,23-5.78,5.1-19.5,13.96-24.8,18.19.79,18.22,1.19,36.84.88,55.4-.14,2-.18,2.47-2.07,3.4-5.66,3.32-12.06,10-19.99,10,1.58-21.01,1.62-45.89.86-66.36-.93-2.84-8.09-1.37-10.86-1.64-3.33-2.26-9.06-.48-13.01-.99l-.04-8.41c.17-1.21,1.51-.4,2.05-.6l2.65,7.05c10.06-.66,35.68,7,42.35-3.04-9.29.38-36.34-15.69-44.01-11l-.99,3.99c-.47-.15-1.34.21-1.96-.02l-.04-7.99,14,2c-.03-.99.09-2.01,0-3,6.11,1.62,7.84-2.83,13-4,10.64-2.42,12.69,1.84,24-4,5.42-2.8,12.71-6,13.01-13,.9-.35,1.84,1.01,1.99,1ZM162.16,212.2c1.21-.91,5.39-5.35,5.57-6.46l-1.58-14.54c-21.41,16.51-23.2,3.08-17.99,27.01,1.52,1.53,12.09-4.58,14-6.01ZM127.16,208.18l12.96,5.59c3.36.51,1.08-10.91-.61-11.47l-13.35,1.91,2.99,1-2,2.97ZM140.16,231.2c-4.24.08-8.53,1.74-13,.99v61c4.49-1.86,8.4-4.86,12.01-8,2.08-1.7,4.4-.47,5.05-5.45,1.77-14.08-1.38-33.83-1.05-48.56-1-.01-2-.01-3,0Z"/>
        <path class="cls-14" d="M92.17,206.2l-1.01,17c-7.95,1.25-14.37-3.14-22.01-4.02l2.07-15.91,20.95,2.93Z"/>
        <path class="cls-45" d="M94.16,204.2c.12-.81,1.03-3.62,1.7-4.03,7.14-1.92,21.35-2.63,19.29,8.03l-14-2,.04,7.99c1.97.12,4.56.03,5.97,1.52-8.1,4-5.73-2.73-6.02,10.51,3.94.52,9.68-1.28,13.01.99.26,7.81-18.69,6.77-20,0,1-6.45-.79-16.4,0-23ZM96.16,205.2v21.5c2.41,3.51,7.38,2.93,11.01,1.99.89-3.1-7.22-.69-8.01-1.48v-11.01s4-.98,4-.98l-4.02-.59.02-9.43h-3Z"/>
        <path class="cls-31" d="M94.16,227.2c1.31,6.77,20.26,7.81,20,0,2.77.27,9.93-1.2,10.86,1.64,1.18,3.62.04,18.72.1,23.9.45,13.99.41,28.4-.95,42.46l5.99-1c-1.21.82-2.08,2.1-4.07,2.62.09,9.35.57,18.69-1.02,27.88.36,4.05,5.06,6.62,2.12,12.45l3.97,2.04c-2.51-1.17-10.57,5.74-5,5.01-8.31,2.19-32.48,20.03-36.81,7.29,3.51-40.08-1.45-80.07-.19-120.3l-6.02-.49,11.01.49c-3.58-5.96-.88-3.19,0-3.99Z"/>
        <path class="cls-24" d="M143.16,337.2c.49.17,1.37-.12,2,0l-1,1.99c-14.47,6.45-28.99,12.8-44,18-.76.06-1.64-.94-2-1,15.22-5.83,29.98-12.77,45-19Z"/>
        <path class="cls-28" d="M177.16,235.2c-3.02-1.73-3.91.68-5,3l-7.02-12.48c1.71,5.15,3.66,9.91,4.7,15.3,1.19,6.18.93,17.98,4.29,22.44,1.69,2.25,6.56,2.33,6.08,6.19-.43,4.58-14.48,9.89-12.98,14.93,1,3.36,8.09.42,11.15.82,9.21,1.21,1.68,6.79,1.74,12.25,12.37,44.65,5.88,98.11-16.96,138.56-2.99-.04-6,.03-8.99,0l4.99-2.01-2.99-1.01c.7-13.18,2.31-29.41,1.04-42.52-.86-8.92-4.82-15.13-2.98-25.9.59-3.46,3.17-4.36,3.73-6.27.6-2.07.4-14.44-.8-15.29l-3.98,1c-.39-2.31,2.13-2.81,2.78-4.71,2.05-5.96-3.79-4.15-3.79-5.79v-45c0-.32-2.21-8.01,1.54-2.52,1.22,1.79-.54,2.95-.54,3.52.43,5.74-1.57,18.9,2.99,23.49,4.08-13.62.32-27.55,1.08-41.44l-3.13-1.09c-1.5-4.79,2.59-4.41,3.09-6.93.38-5.63-.57-24.08-2.03-30.53l-2.98,4.99-1.02-7-4.99,1.01c.05-1.04-2.01-3.73-.8-5.81.49-.84,13.77-9.64,15.8-11.19,9.81,2.06,12.79,12.08,16,20Z"/>
        <path class="cls-20" d="M134.16,292.2l3,2.99-1.5,1.01,4.35-.48c-1.25-1.95-.41-3.76,2.14-3.52.6,1.42-.99,2.96-.99,3.49v34c0,.29.8,1.04.84,1.96.12,2.43-2.97,6.4,1.16,5.54-1.6.79-23.68,11.42-17.84,4.66,1.72-1.97,3.06-2.7,5.84-2.68l-3.97-2.04c2.94-5.83-1.76-8.39-2.12-12.45,1.59-9.2,1.11-18.53,1.02-27.88,3.06-1.31,5.32-3.78,8.07-4.62Z"/>
        <path class="cls-20" d="M146.16,259.2c1.98,4.6.77,10.37,1.11,15.39.62,4.11,4.7,12.11-3.11,10.61,4.57-1.92,1.35-20.75,2-26Z"/>
        <path class="cls-8" d="M177.16,235.2c4.17,11.59,12.5,27.1,11.42,39.04,2.85,5.89,11.11,7.32,3.27,13.18-2.54,6.68,2.66,10.62,4.2,16.39,7.52,38.83-1.24,92.49-3.89,132.39-9.65-.17-19.36.22-29,0,.48-1.51,2.44-2.89,3-4l3.99,1.01-2.99,1.99h16c2.21-32.72,7.61-65.61,7.04-98.54-.33-17.53-8.94-38.85-2.15-54.86-.37-1.46-3.42-1.35-3.93-4.12-.63-3.45,2.18-7.06,1.84-8.84-.4-2.1-4.52-3.84-5.81-5.41-5.3-6.42-5.38-17.41-7.98-25.23,1.09-2.32,1.98-4.73,5-3Z"/>
        <path class="cls-3" d="M140.16,231.2c-6.24,1.81-4.75,12.62-3,17.5-.8,8.04,2.61,31.99-3.58,38.42-.8,1.51-3.03,2.26.58,2.08-2.28,1.42-4.41,3.08-6.99,4v-61c4.46.75,8.75-.92,12.99-.99Z"/>
        <path class="cls-49" d="M142.16,220.2c-5.01,2.07-9.32,3.82-14.99,3.01-1.17,2.08,4.33,2.92,4.99,2.99l-26.35-1.95-2.65-7.05c1.04-.38,4-1,4.01-1.5-.78-1.1-2.78-1.1-4.01-1.5l.99-3.99c4.22-4.08,31.83,7.98,38.01,9.99Z"/>
        <path class="cls-50" d="M140.16,231.2c1-.02,2.01-.02,3,0,.06,1.99-.06,4.01,0,6.01l-2.01-1.5-1.99,49.5c-1.66,1.35-3.15,2.84-5,4-3.61.17-1.38-.57-.58-2.08,6.19-6.41,2.79-30.41,3.58-38.42-1.75-4.89-3.25-15.68,3-17.5Z"/>
        <path class="cls-54" d="M155.16,198.2c2.82-1.52,6.48,11.71,7,14-1.9,1.43-12.48,7.53-14,6.01-2.25-16.4-7.41-13.3,7-20.01Z"/>
        <path class="cls-5" d="M143.16,237.2c.39,12.53,2.59,30.8,1.05,42.55-.65,4.98-2.97,3.75-5.05,5.45l1.99-49.5,2.01,1.5Z"/>
        <path class="cls-56" d="M155.16,198.2c3.9-2.28,7.48-4.1,10.99-7l1.58,14.54c-.17,1.11-4.35,5.55-5.57,6.46-.52-2.27-4.16-15.51-7-14Z"/>
        <path class="cls-30" d="M127.16,208.18l2-2.97-2.99-1,13.35-1.91c1.7.56,3.97,11.98.61,11.47l-12.96-5.59Z"/>
        <path class="cls-39" d="M142.16,220.2c2.04.66,3.39,1.67,6,1.01-1.47,5.57-21.43,7.33-20.99,2,5.67.81,9.98-.93,14.99-3.01Z"/>
        <path class="cls-48" d="M96.16,205.2h3s-.02,9.42-.02,9.42l4.02.59-4,.98v11.01c.8.79,8.91-1.62,8.01,1.48-3.62.94-8.6,1.52-11.01-1.99v-21.5Z"/>
        <path class="cls-43" d="M172.16,238.2c2.6,7.82,2.69,18.81,7.98,25.23,9.56,6.89,4.4,4.26,3.97,14.25.51,2.77,3.57,2.66,3.93,4.11-6.79,16.02,1.82,37.33,2.15,54.86.28,9.44-.62,20.9-1.04,30.54-4.89-2.77-1.96-7.24-1.95-11.45.95-18.98-2.43-40.49-7.09-58.1-.06-5.45,7.46-11.04-1.74-12.25-3.06-.4-10.15,2.54-11.15-.82-1.5-5.03,12.55-10.34,12.98-14.93.48-3.86-4.39-3.94-6.08-6.19-3.35-4.46-3.09-16.27-4.29-22.44-1.04-5.39-3-10.15-4.7-15.3l7.02,12.48Z"/>
        <path class="cls-12" d="M180.16,392.2c-2.23,10.93,3.51,21.32,2.01,31.99l1.99-2.99c-.52,4.57-1.38,9.41-1,14h-16l2.99-1.99-3.99-1.01c5.57-11.1,10.98-27.87,14-40Z"/>
        <path class="cls-2" d="M189.16,367.2c-.81,18.53-2.9,35.66-5,54l-1.99,2.99c1.5-10.67-4.24-21.06-2.01-31.99,4.72-18.98,6.7-38.38,6-58,1.77,6.55,1.07,14.63,1.05,21.55,0,4.21-2.94,8.69,1.95,11.45Z"/>
      </g>
      <g>
        <path class="cls-33" d="M42.16,246.2c-3.15,11.01-4.03,13.13-16.49,11.98-6.17-.57-21.73-8.07-22.5-14.58l3.08-34.9c-.2-6.87-7.56-9.08,1.81-16.14-2.59-3-.83-5.3-1.53-8.14-1.16-4.7-8.01-9.16-6.24-15.09l10.87-1.13c-2.97-8.84-9.71-9.88.84-17.64-6.49-9.52-1.57-16.1-.8-25.82,2.71-34.23-18.16-74.87,25.75-88.25,8.84-2.69,26.7-4.14,33.43-7.32,1.43-.68,1.35-2.77,2.77-3.47,1.53-.76,3.75-.2,5.11-.97,1.08-.61-.12-2.48.4-3.49,1.48-2.84,7.11-2.73,6.21-10.42-.36-3.05-4.91-5.44-.65-9.08,6.3-5.37,5.03,3.07,7.09,6.82,4.79,8.7,27.28,10.88,36.08,8.35,9.93-2.86,7.27-5.76,8.28-14.71,5.69,2.79,6.46,11.22,9.29,16.71,12,26.9,57.91,17.48,70.77,44.23,7.92,15.99,1.48,53.63,2.41,72.59,1.27,11.36,4.4,17.26-1.76,27.8.33,3.83,7.52,4.31,6.8,11.07-.54,5.03.17,4.99.03,8-.09,1.86-2.21,3.14-1.39,5.31.72,1.92,5.57,3.06,6.19,7s-4.3,6.1-4.5,7.75c2.35,7.48,6.95,23.47,7.66,32.52-9.83-1.07-19.17.58-28,5.01-.77-.74-1.16-.92-1-2,8.53-3.34,16.63-6.03,26-5-.15-10.55-3.03-20.9-7.03-30.57.04-1.94,5.8-4.1,4.91-7.73-.5-2.04-5.81-4.78-6.42-7.6-.4-1.84,1.46-3.57,1.29-5.47-2.11-4.56-2.03-2.68.26-7.23.79-4.72-3.11-4.81-5.03-7.19-4.67-5.77.31-6.65,1.54-11.2-7.09-46.63,21.81-101.77-41.53-114.03-16.31-8.19-25.72-3.98-33.95-23.67-2.09-10.48-7.45-1.9-14.06.16-12.23,2.54-36.9,1.89-40.73-13.29-.66-1.36.63-2.75-2.25-2.19.98,7.1,5.28,15.13-3.78,18.22-.31,6.47-1.59,5.64-7.21,6.81l.92,1.88c-2.89,3.92-44.91,5.88-49.94,15.09-28.29,14.25-4.21,68.56-14.84,94.51.04,3.93,5.56,9.47,2.89,13.01-1.52,2.02-4.56,2.31-5.13,5-.35,3.58,5.67,5.56,5.13,9.97-.64,5.23-10.99-.1-11.06,4.96-.04,2.7,4.94,6.76,6.06,9.99.89,2.56,2.26,9.8.87,11.91-1.1,1.68-3.8,1.82-3.96,4.15,7.8,12.9-.84,30.46.02,44.94,5.85,8.74,19.46,14.9,29.78,11.84,5.21-2.71,6.89-22.35,8.24-28.28-.4-.4-6.37.31-8,0-7.14-2.15-23.15-8.17-24.99-16,13.68,9.94,39.34,26.81,40.24-2.25,1.2-2.4,4.23-3.06,4.42-4.18.31-1.83-2.29-12.32-1.67-15.56,4.09,1.68,1.83,4.57,7.99,7-8.03,2.77-.88,12.46-3,19h-1c.62-2.64-.44-7.07-.01-9.99l-5.28,6.29c1.94,7.74-4.3,10.79-6.05,15.86s-2.06,13.23-3.66,18.84Z"/>
        <path class="cls-36" d="M181.16,44.2c51.92,12.57,33.66,48.81,34.96,90.54.2,6.52,3.26,15.25,1.57,21.49-1.23,4.54-6.21,5.42-1.54,11.2,3.95,3.22,7.47,4.72,3.23,10.47-.23,1.56,1.42,2.58,1.54,3.94.17,1.89-1.68,3.63-1.29,5.47.61,2.82,5.92,5.56,6.42,7.6.89,3.63-4.87,5.79-4.91,7.73,3.99,9.67,6.88,20.02,7.03,30.57-9.38-1.04-17.48,1.66-26,5-3.81-6.43-10.3-22.27-7.83-29.34,3.43-5.21,18.37-5.31,23.83-6.65-9.77-2.66-17.96,1.06-26.99,3.99,1.37-4.85-1.76-4.88-3.01-6.77-4.03-6.12.69-7.08,2.05-13.19l10.95,3.95-7.99-5.99c.14-12.24,12.95-6.43,3.09-23.64-.55-1.43.95-2.91-2.09-2.35,1.37,7.07,7.31,15.8-3.01,18.99-15.85,4.9,1.36-13.5-1.42-17.07l-3.64-1.54c-1.19-7.22,1.7-14.1,2.1-20.85,0-24.09-6.12-29.3,3.96-54.53l-1.49,2.01-1.49-2-4.51,8.97-1.51-4.98c-3.04-.23-2.78,1.91-2.99,4l-1.99,4.99c.84-14.65.37-29.67-.99-44.39l1.97-4.11,7.02-.99-7.5-1.51,2.49-.99ZM210.16,155.2c-2.3,2.33-7.1,3.05-7.1,7.5,0,6.35,9.61,4.63,7.7,11.55-.67,2.43-5.71,3.36-7.6,5.44,1.03,2.57,11.42.66,9.98,3.99-2.4,3.59-6.89,5.51-9.72,8.22-.6.58-1.94-.03-1.26,2.29l9.06.44,1.43,5.56,4.49-4.5c-11.35-6.4.74-7.82,1.06-13.97.17-3.34-5.67-.56-7.04-1.54,8.59-8.77-5.9-9.85-1-19.99,9.31-3.88,5.06-15.15,4.96-22.46-.57-26.99,4.64-58.48-12.98-81.02,4.69,13.5,12.45,32.37,10.75,46.73-.87,7.34-5.74,15.83-5.77,23.31-.03,10.7,13.51,17.85,3.03,28.44Z"/>
        <path class="cls-17" d="M176.16,42.2c1.23.21,3.67,1.68,5,2l-2.49.99,7.5,1.51-7.02.99-1.97,4.11c1.36,14.73,1.83,29.75.99,44.39l1.99-4.99c-.17,4.89.03,10.06,0,15-4.41,3.84-.18,3.91-.02,4.67,4.92,34.77-34.69,36.38-57.98,27.34l10.41-.92.59-3.09c-1.27-.63-11.14,1.12-13.01-1,17.83-2.11,46.44,10.47,52.99-13.99-.76-.82-9.81,7.44-12.54,7.95-7.14,1.33-15.64-.68-22.45-.95-2.54-18.63.04-37.77-.97-56.53-.29-5.47-5-12.6.97-16.47,17.11-8.18,16.35-15.39,38-11Z"/>
        <path class="cls-29" d="M40.16,42.2l1.99,3.99-8.99-1.99c-.72,2.82,2.26,2.45,3.99,2.99v23.5c0,.18,2.21,1.58,2.01,2.97l-2,1.53v-3.01s-2.01.01-2.01.01c-1.01,5.49.62,7.52,2.5,12.99,4.28,18.83-2.52,36.07.75,53.25,4.96,19.9,11.02,20.63,1.73,40.75l-6.98-8.99,2.97,10.4c-.77,2.53-16.34,3.3-1.99,15.59l-3.07-9.42,8.58-5.56c6.9,17.37,7.94,10.25-1.32,19.68-1.24,3.98,1.36,5.85,1.76,8.86,1.68,16.11-5.74,17.27-17.94,9.45,1.16-50.91-3.14-102.79-1.96-153.54-.32-3.5-1.72-9.66-4.04-12.46,3.35-9.59,15.28-9.15,24-11Z"/>
        <path class="cls-38" d="M98.16,139.2c9.07,0,17.98.99,27,1l3.99,1.99c-10.24.68-22.45-2.2-32.29-.01-.88.24-2.31,4.84-6.71,3.02v10s8,0,8,0l-4.88-3.57c.34-3.64,1.79-7.13,5.64-8.16,7.56-2.03,6.48,1.31,8.28,7.21l-4.03,2.05,1.5,2.48h15.5c.22,1.76-2.26.95-3.49,1-12.85,1.27-31.21-1.92-42.51,4-.75.21-7.57,3.82-7.79,4.2-2.64,7.26,12.64,19.86,16.79,24.79-3.87,2.19-12.3-10.69-13.99-8.98,5.16,11.28,18.34,13.1,28.99,16.01-1.15,4.72-33.07-9.02-35.99-9.01-1.41,1.4,4.93,10.8,6.99,11.99-3.77-1.02-8.73-3.05-11.8-5.21-1-.89-1.81-4.41-4.18-4.79-.63,3.24,1.98,13.73,1.67,15.56-6.44,5.07-4.84,5.17-5.18,12.38-3.85,7.82-7.25,9.58-15.49,7.05,6.41.05,6.54-10.02,5.94-14.45-.41-3.01-3.01-4.88-1.76-8.86,9.25-9.42,8.23-2.3,1.32-19.68l-8.58,5.56,3.07,9.42c-14.35-12.29,1.21-13.06,1.99-15.59l-2.97-10.4,6.98,8.99c9.29-20.21,3.24-20.76-1.73-40.76-3.27-17.18,3.53-34.42-.75-53.25-.97-4.28-3.93-7.06-2.5-11,21.79,32.73,4.01,25.11,9.53,51.97,5.72,15.69,25.71,13.48,39.01,15.86,0,0,14.46-2.83,14.46-2.83Z"/>
        <path class="cls-4" d="M16.16,53.2c2.33,2.8,3.72,8.96,4.04,12.46-1.19,50.74,3.12,102.64,1.96,153.54-4.28-2.41-7.99-5.21-11.99-8,1.85,7.83,17.84,13.84,24.99,16l-5,29c-44.93-4.09-12.23-34-25.04-57.5.16-2.32,2.86-2.47,3.96-4.15,1.39-2.12.03-9.35-.87-11.91-1.12-3.23-6.1-7.3-6.06-9.99.07-5.07,10.42.26,11.06-4.96.54-4.41-5.48-6.38-5.13-9.97.57-2.7,3.61-2.98,5.13-5,2.66-3.54-2.86-9.08-2.89-13.01,8.75-25.75-6.86-63.31,5.84-86.52Z"/>
        <path class="cls-37" d="M187.16,98.2c-2.75,14.69,1.82,26.15,1.03,39.54-.4,6.74-3.29,13.62-2.1,20.85l3.64,1.54c2.79,3.58-14.43,21.97,1.42,17.07-2.06,3.12-2.82,10.43,2,7l7.99,5.99-10.95-3.95c-1.36,6.11-6.08,7.07-2.05,13.19,1.24,1.89,4.38,1.93,3.01,6.77,9.03-2.94,17.22-6.65,26.99-3.99-34.42,3.2-25.93,10.4-15.99,36.99l-7.99,4c-7.18-14.04-9.95-32.62-19.95-44.63-.28-1.57,2.32-2.56,2.78-4.1.18-11.75,1.25-24.7.17-36.78-.76-13.7,3.64-19.55,4.86-31.11,1.03-9.67-3.04-21.38,5.13-28.37Z"/>
        <path class="cls-52" d="M136.16,14.2l4.07,4.57c-.8,7.56-23.23,14.37-30.07,14.44,2.92,3.55,10.65,2.27,15,1.99l-6.99,3.99,21.99.02c-1.39,3.43-5.33,3.72-8,4.99-2.33-1.86-6.84-.94-10-1-8.52-2.42-18.22-4.3-25.03-10.47-1.85-1.67-6.95-7.82-.97-6.54,2.45-2.7-10.38-9.55-1.99-9.01l-1.01-2.99c10.95,6.38,32.84,8.85,43,0Z"/>
        <path class="cls-1" d="M79.16,27.2c2.45-.58,1.67-3.94,2.22-5.78,9.06-3.07,4.76-11.13,3.78-18.22,2.89-.56,1.6.83,2.25,2.19,1.69,3.5,2.29,6.41,5.74,8.8l1.01,2.99c-8.39-.55,4.45,6.31,1.99,9.01-5.98-1.28-.88,4.86.97,6.54,6.81,6.17,16.51,8.04,25.03,10.47-15.92-.29-25.32-3.29-35.51-15.99-1.23,4.98,6.61,7.8,8.51,11.99-3.11-1.22-6.87-1.6-9.99-2.99l4.99,6.99c-6.11-2.06-13.88-4.38-14-11.99,4.95.81,2.25-1.95,3-4.01Z"/>
        <path class="cls-22" d="M136.16,14.2c5.43-2.89,5.01,2.52,6.05,4.33,1.59,2.77,5.8,10.92,7.57,12.54,5.3,4.85,19.95,7.14,26.38,11.12-10.01-1.45-17.6-3.02-26,4l4.99-9c-3.58,3.89-4.76,6.29-8.99,9l-6-2.52,4.01-9.47-5.1-.47.09-2.53c-1.74-.08-3.37.53-5,.99,1.76-2.94,8.18-4.91,7.51-8.99-8.48,6.97-16.67,9.57-27.51,9.99,5.11-1.96,26.59-7.62,26.07-14.43l-4.07-4.57Z"/>
        <path class="cls-25" d="M79.16,27.2c-.76,2.06,1.94,4.82-3,4.01.23,4.19,2.4,6.83,6,8.99v1c-18.53-5.41-38.43-.24-57,4,5.03-9.2,47.05-11.16,49.94-15.09l-.92-1.88,4.99-1.03Z"/>
        <path class="cls-51" d="M35.16,227.2c1.63.31,7.6-.39,8,0-2.33,7.54-1.61,30.93-13,29l5-29Z"/>
        <path class="cls-23" d="M180.16,106.2c3.29,18.03-2.02,25.15-5.04,41.47-.47,8.69,5.08,23.31,1.06,29.8-.95,1.54-7.17,7.63-9.03,7.73-.15,0-1.09-1.35-1.99-1-.3,7-7.59,10.2-13.01,13,29.59-49.56-50.42-41.85-78-37,11.29-5.92,29.66-2.73,42.51-4,1.23-.05,3.71.76,3.49-1h-15.5l-1.5-2.48,4.03-2.05c-1.8-5.89-.72-9.24-8.28-7.21-3.85,1.03-5.29,4.52-5.64,8.16l4.88,3.57h-7.99s-.01-10-.01-10c4.4,1.82,5.83-2.78,6.71-3.02,9.87-2.19,22.03.7,32.29.01l-3.99-1.99c24.23,4.93,59.56,4.98,54.98-29.33-.17-.76-4.39-.83.02-4.67Z"/>
        <path class="cls-26" d="M167.16,188.2l7.99-4.99c-.08,5.85,1.47,10.56-3.76,14.48,2.03,4.41,6.85,6.99,5.76,12.51l-6.99-4c.05-5.2-2.29-12.61-3-18Z"/>
        <path class="cls-15" d="M210.16,160.2c.27-1.77.87-3.15,0-5,10.48-10.59-3.06-17.75-3.03-28.44.02-7.48,4.9-15.97,5.77-23.31,1.7-14.37-6.07-33.23-10.75-46.73,17.62,22.55,12.41,54.04,12.98,81.02.1,7.31,4.35,18.58-4.96,22.46Z"/>
        <path class="cls-55" d="M210.16,160.2c-4.9,10.17,9.59,11.2,1,19.99,1.37.98,7.21-1.8,7.04,1.54-.32,6.15-12.41,7.58-1.06,13.97l-4.49,4.5-1.43-5.56-9.06-.44c-.68-2.32.66-1.71,1.26-2.29,2.83-2.71,7.32-4.63,9.72-8.22,1.44-3.33-8.95-1.41-9.98-3.99,1.89-2.08,6.93-3.01,7.6-5.44,1.91-6.92-7.7-5.2-7.7-11.55,0-4.45,4.8-5.17,7.1-7.5.87,1.85.27,3.23,0,5Z"/>
        <path class="cls-23" d="M180.16,91.2c.22-2.09-.05-4.23,2.99-4l1.51,4.98,4.51-8.97,1.49,2,1.49-2.01c.61,2.53-1.39,4.29-1.99,5.99-1.6-3.42-6.54,11.55-7.01,13l-2.99-4c.02-2.26-.23-4.83,0-7Z"/>
        <path class="cls-27" d="M191.16,177.2c10.32-3.19,4.37-11.92,3.01-18.99,3.04-.56,1.53.93,2.09,2.35,9.85,17.22-2.95,11.39-3.09,23.64-4.82,3.43-4.06-3.88-2-7Z"/>
        <path class="cls-53" d="M98.16,50.2c11.3,5.04,27.98,6.92,40,3-5.96,3.87-1.26,11-.97,16.47,1.01,18.77-1.57,37.9.97,56.53-27.12-3.28-54.45.86-81.49-2.01l3.49,4.01c-3.84-2.1-7.31-2.72-9-7.99,16.33,7.27,34.72,3.33,51.99,2.98l-.99-68.99-6.53-1.99,2.52-2.02Z"/>
        <path class="cls-41" d="M138.16,126.2c6.81.27,15.31,2.28,22.45.95,2.74-.51,11.78-8.76,12.54-7.95-6.55,24.46-35.17,11.89-52.99,13.99-17.75-1.92-36.09-1.19-54-2-1.39-.47-4.5-2.18-6-3l-3.49-4.01c27.04,2.87,54.38-1.27,81.49,2.01Z"/>
        <path class="cls-31" d="M120.16,133.2c1.85,2.12,11.75.38,13.01,1l-.59,3.09-10.41.92c.06.99,3.99,1.76,4.99,1.99-17.68-.79-35.3-1.11-52.99-.01l7.99-.99-4-5.48,4.01-1.5c-5.63-.24-10.7.77-15.99-1.01,17.91.81,36.25.08,54,2Z"/>
        <path class="cls-33" d="M150.16,46.2c-20.12,16.76-48.74,7.88-68-5v-1c24.05,11.02,53.63,23.43,72.99-3l-4.99,9Z"/>
        <path class="cls-11" d="M74.16,40.2c-1.33-.02-2.68,0-4,0,1.2,19.75-2.97,40.51,3.05,59.46.96,7.61-1.35,15.97.95,23.54-8.06,1.92-15.66.18-22.99-2.98,1.69,5.27,5.16,5.89,9,7.99,6.76,4.77,14.11,4.12,21.99,4.01l-4.01,1.5,4,5.48-7.99.99c8.06.18,15.92-.99,23.99-.99l-14.46,2.83c-13.3-2.38-33.29-.17-39.01-15.86-5.53-26.79,12.27-19.24-9.53-51.97.17-.47-.15-1.38,0-2h1.99s.01,3,.01,3l2-1.53c.2-1.4-2.01-2.79-2.01-2.97v-23.5c-1.74-.54-4.71-.18-3.99-2.99l8.99,1.99-1.99-3.99c10.6-2.11,23.73-6.08,34-2Z"/>
        <path class="cls-35" d="M130.16,158.2c-6.28-.91.38,31.25-1,37.51-.26,4.1-4.91,5.58-1,5.49-5.16,1.17-6.89,5.62-13,4-.68-8.06-13.42-6.4-19.3-5.03-.67.41-1.59,3.21-1.7,4.03-2.83-1.08-6.21-.65-8.97-2.04l.41-3.01c.86-1.16,5.82-1.69,7.56-1.94,1.37-.2,4.99.94,4.99-.99-3.69-.65-7.48-1.76-10.99-3.01,5.06-1.63-5.02-7.37-7-7-3.52-3.38-16.7-16.8-13.79-21.8,15.53-10.41,45.95-7.1,63.79-6.2Z"/>
        <path class="cls-6" d="M93.16,197.2c-1.74.25-6.69.79-7.56,1.94l-.41,3.01,2.97,1.04c-6.94-.61-12.37-1.82-19-4-2.06-1.2-8.41-10.59-6.99-11.99l30.99,9.99Z"/>
        <path class="cls-46" d="M87.16,193.2c-7.28-2.6-14.7-4.95-17.99-12.99,1.7-1.71,10.12,11.17,13.99,8.98-.37-1.36-2-2.03-3-2.99,1.98-.37,12.06,5.37,7,7Z"/>
        <path class="cls-44" d="M134.16,32.2c1.63-.46,3.26-1.07,5-.99l-.09,2.53,5.1.47-4.01,9.47,6,2.52c-7.69,7.33-23.68,4.55-32.99,4.99,3.41-3.29,10.49-1.52,14.99-2l-2-2.98c2.51.49,3.93-1.21,6.01-2.01,2.67-1.27,6.61-1.56,8-4.99l-21.99-.02c4.47-3.05,11-5.31,15.99-6.99Z"/>
        <path class="cls-32" d="M95.16,39.2c-1.89-4.2-9.74-7.01-8.51-11.99,14.19,18.5,26.27,13.84,45.51,16.99-12.17,2.77-26.35,1.63-37-5Z"/>
        <path class="cls-40" d="M134.16,32.2c-6.76,2.64-17.93,6.13-24,1.01,11.97.27,22.17-2.16,31.51-10,.67,4.09-5.74,6.05-7.51,8.99Z"/>
        <path class="cls-31" d="M95.16,39.2c11.02,7.26,22.28,6.22,35,6-1.32.57-2.22,1.45-4.01,1.01l2,2.98c-4.48.47-11.59-1.29-14.99,2h22.99c-14.82,5.18-43.41-1.05-50.99-14.98,3.13,1.39,6.88,1.78,9.99,2.99Z"/>
        <path class="cls-10" d="M74.16,40.2c8.87-.91,16.09,6.19,24,10l-2.52,2.02,6.53,1.99.99,68.99c-12.24.45-24.72,1.91-36.99,1.01l7.99-1.01c-2.3-7.58.02-15.94-.94-23.54-6.03-18.94-1.86-39.7-3.06-59.45,1.33,0,2.67-.01,4,0Z"/>
        <path class="cls-47" d="M130.16,158.2c26.36.37,36.06,16.16,22,39-11.31,5.84-13.36,1.58-24,4-3.91.1.73-1.39,1-5.49,1.39-6.32-5.3-38.31,1-37.51ZM152.15,193.2l-6.02-11.46c.39-3.75,8.37-6.19,6.88-10.81-3.89-5.63-10.44-8.31-16.85-9.72-.64,2.74.93,1.71,1.98,2.47,2.1,1.53,11.65,6.12,11.01,9l-13,6.02,15.99,14.5Z"/>
        <path class="cls-18" d="M152.15,193.2l-15.99-14.5,13-6.02c.64-2.89-8.91-7.48-11.01-9-1.05-.76-2.62.27-1.98-2.47,6.4,1.41,12.96,4.09,16.85,9.72,1.48,4.63-6.49,7.06-6.88,10.81l6.02,11.46Z"/>
      </g>
    </g>
  </g>
</svg>