<?xml version="1.0" encoding="UTF-8"?>
<svg id="Layer_2" data-name="Layer 2" xmlns="http://www.w3.org/2000/svg" viewBox="0 0 102.33 147.43">
  <defs>
    <style>
      .cls-1 {
        fill: #fefefe;
      }
    </style>
  </defs>
  <g id="Layer_1-2" data-name="Layer 1">
    <path class="cls-1" d="M77.29,54.42c12.46-7.49,18.14-18.51,12.2-32.69-6.5-5.64-7.33-15.7-17-17-13.92,0-25.13-11.4-36.2,1.2-4.74,10.82-19.21,12.8-17.99,27.49l1.48-1.99,4.5,3.99c-3.09-7.35,2.48-12.85,7.99-16.99.67,11.59-8.38,21.09-5.39,33.01-.72,6.13-12.29,12.19-16.04,17.04-1.05,1.36-10.12,20.48-10.31,21.69.77,17.67-2.09,32.85.76,50.26,1.97-.4,1.72-2.03,2-3.49,1.43-12.04,5.3-21.73,19.26-15.63,7.92-5.12,6.96-3.55,15.29-.94,2.54.37,9.14-.15,10.79.37,1.52.48,2.07,2.26,4.18,2.69,14.49,3.46,15.71-29.98,19.45-26,.53.52,3.86,12.23,4.34,14.17,1.01,4.06,1.18,11.93,2.4,14.62.92,2.02,7.84,8.89,8.55,10.43,1.24,2.68,0,6.33,1.62,8.38l7.1,2.39c1.84-4.67-1.08-13.8.17-17.34.9-2.54,5.28-1.7,5.88-5.19-1.49-10.63-1.27-22.62-.13-33.05,1.42-13.47-11.05-19.2-15.94-30.89-2.63-2.59-4.96-6.12-8.97-6.54Z"/>
  </g>
</svg>