<?xml version="1.0" encoding="UTF-8"?>
<svg id="Layer_2" data-name="Layer 2" xmlns="http://www.w3.org/2000/svg" viewBox="0 0 97.85 73.05">
  <defs>
    <style>
      .cls-1 {
        fill: #fefefe;
      }
    </style>
  </defs>
  <g id="Layer_1-2" data-name="Layer 1">
    <path class="cls-1" d="M5.88,15c-1.9.62-2.88,1.33-4,3-6.52,10.2,6.19,7.47,4,15-2.89.08-7.92,5.69-5,8,1.49,6.85,5.93,2.61,5,9-4.71-1.05-6.48,7.24-4,10,6.74,9.03,17.65-3.64,9-10-.25-.24-4.14-1.44-3.99-2.99,5.75-.25,8.41-4.85,6.79-10.3-.96-3.22-5.56-2.75-4.89-6.2.33-2.9,6.27-1.9,5.04-9.93-.82-5.34-4.62-4.05-4.99-5.24L7.87,0c-3.71,1.78-1.49,11.15-1.99,15ZM88.88,26c-3.77.68-5.3,3.31-5,7,.91,6.32,6.2,4.16,5,10-6.48.78-6.92,12.37,0,13v4c-3.38-.4-5.24,4.03-5,7,.9,11.31,19.09,5.09,12.44-4.95-1.48-2.24-6.15-2.47-3.44-6.05,5.2-1.2,6.25-6.55,3.35-10.75-1.14-1.66-4.62-2.66-4.29-4.62,7.22-7.01,8.45-9.87.1-16.29-1.38-3.98,1.74-10.76-1.67-14.33-.73,4.76-1.63,11.26-1.49,15.99Z"/>
  </g>
</svg>