<?xml version="1.0" encoding="UTF-8"?>
<svg id="Layer_2" data-name="Layer 2" xmlns="http://www.w3.org/2000/svg" viewBox="0 0 174.7 410.6">
  <defs>
    <style>
      .cls-1 {
        fill: #a2c3db;
      }

      .cls-2 {
        fill: #a5c4db;
      }

      .cls-3 {
        fill: #acc9df;
      }

      .cls-4 {
        fill: #7495c0;
      }

      .cls-5 {
        fill: #9abed8;
      }

      .cls-6 {
        fill: #b0cbe0;
      }

      .cls-7 {
        fill: #8ba9cc;
      }

      .cls-8 {
        fill: #b6cfe3;
      }

      .cls-9 {
        fill: #a6c4db;
      }

      .cls-10 {
        fill: #a3c3db;
      }

      .cls-11 {
        fill: #b9d1e4;
      }

      .cls-12 {
        fill: #9bbfd8;
      }

      .cls-13 {
        fill: #c2d8e8;
      }

      .cls-14 {
        fill: #7ba0c6;
      }

      .cls-15 {
        fill: #93bad5;
      }

      .cls-16 {
        fill: #fbfcfc;
      }

      .cls-17 {
        fill: #82a5c9;
      }

      .cls-18 {
        fill: #a9c7de;
      }

      .cls-19 {
        fill: #6a8fbb;
      }

      .cls-20 {
        fill: #dae6f1;
      }

      .cls-21 {
        fill: #bed3e5;
      }

      .cls-22 {
        fill: #b8d0e3;
      }

      .cls-23 {
        fill: #81a4c8;
      }

      .cls-24 {
        fill: #97bdd7;
      }

      .cls-25 {
        fill: #d1e0ed;
      }

      .cls-26 {
        fill: #7a9fc5;
      }

      .cls-27 {
        fill: #82a4c9;
      }
    </style>
  </defs>
  <g id="Layer_1-2" data-name="Layer 1">
    <g>
      <path class="cls-19" d="M108.46,409.98c-18.25-3.6-26.46-22.65-25.01-40-36.72,34.84-67.87-17.69-64.03-53.46-.77-11.33,4.15-22.63-1.91-32.09C12.91,196.81-17.88,103.66,14.96,18,49.76,42.78,115.57,30.13,143.96,0c17.97,23.35,29.26,62.89,28.5,92.98-2.29-13.26-5.04-26.62-5.99-40.01-13.25.12-32.29.53-37.01-14.99,13.41,13.38,17.35,11.27,34.99,14,1.42-4.48-2.47-5.97-3.54-8.95-2.55-7.12-2.38-17.07-7.47-24.05l-5.97,5c-1.43-1.56,4.6-5.11,4.71-6.49s-7.09-13.52-8.22-13.5c-8.19,7.76-17.44,12.79-27.57,17.65l3.11,15.3c.99.85,11.09-3.07,12.96-3.97l1,1c-2.47,1.34-4.51-.57-4,4-3.96-1.72-5.16-.44-8.87,1.13-.58,1.74.1,3.34.87,4.87-1.35,2.35-3.66,3.34-6.37,2.93l-3.92-4.79c-33.91,13.21-34.05-4.54-29.66,29.32.52,13.88-2.12,27.7-.04,41.54h-1c-5.11-17.98.48-39.56-2.1-57.4-.8-5.58-3.34-7.44-8.9-4.6-6.09-.28-12.27.25-18.38-.07-.14,1.53-2.54,3.84-2.62,4.07-5.51,1.56-5.15-2.3-6-3,2.52-6.35-.18-13.4,2-20-9.96-1.78-19.83-4.66-28.51-9.98l-4.57,14.32,4.08,3.65-3.99-1.99c-18.65,90.1-5.99,127.77,6.86,214.63,1.44,12.73-2.37,28.28,5.09,37.86-5.08,14.47.29,42.47,1.08,57.96,7.66,20,36.73,44.73,53.96,21.55,6.83-7.28,8.29-8.74,9.04-19.46,1.86-26.56-9.08-44.46-8.03-70.03,2.02-47.87,5.19-97.7.98-145.51h-8.99s33.99-13.99,33.99-13.99c0,0-15.35,8.89-15.35,8.89.76,54.06-2.42,110.55,4.39,164.63-.53,6.92-3.45,13.82-4.02,20.98-.79,10.02.71,20.91-.04,30.96-.96,13.03-6.92,25.64-3.73,38.77,2.71,11.16,13.25,21.85,24.75,23.75-.4.05-1.82,1.49-3,1ZM114.31,22.42l-4.21,1.02,5.38,22.12,4.21-1.02-5.38-22.12ZM77.46,31.98c-8.69-.15-17.21,1.78-26,1v16c6.75-.69,21.14,1.85,25.9-2.65-.31-5.24-1.5-7.1.1-12.35l1,13.01c1.36,1.37,33.49-5.71,33.82-7.47l-3.82-15.54c-9.73,2.75-21.06,6.6-30.99,8ZM49.46,32.98l-4,1.5v18.5l2.9-.09c-.04-.85,1.1-2.06,1.1-2.41v-17.5ZM87.45,131.99l-3.83,1.16c-1.42,34.08,1.48,68.27.88,102.38.21,26.17-8.47,58.05,3.95,81.46-.73-7.66,3.2-15.25,3.89-22.62-7.29-53.45-2.47-108.25-4.88-162.37Z"/>
      <path class="cls-4" d="M173.46,88.98c6.88,60.14-16.83,118.76-20.52,178.17l-4.52,5.38c1.05,5.86,4,6.38.09,13.01-1.16,6.54,3.01,19.74,3.81,27.08,1.81,16.52,2.66,34.28,2.17,50.91-.21,7.2-.53,22.6-2.1,28.9-3.78,15.1-31.17,20.08-43.94,17.56,32.5-3.67,43.89-5.52,43-43,1.65-1.05,1-3.79,1.02-5.48-.14-16.69-1.2-33.25-2.58-49.67-1.19-10.09-8.02-23.15-1.43-31.4-.44-5.24-5.53-8.07,1.99-13.16,5.11-58.36,26.15-119.44,22.99-178.28Z"/>
      <path class="cls-6" d="M95.46,46.98c5-1.21,10.65-3.43,15.7-4.86l3.92,4.79c2.71.41,5.03-.58,6.37-2.93,4.52,5.4,2.67,2.33.94,8.44-.29,7.69,3.62,21.37,4.05,30.07.67,13.69.23,27.1,1.05,40.95,3.62,41.82,3.08,85.4,8.96,126.54-5.41,17.99-8.18,41.76-33.99,35-1.63,1.59,3.64,3.8,4.54,3.94,10.11,1.61,19.19-2.2,24.45-10.94,2.6,1.56,2.5,7.55,2.87,10.63,2.2,18.43,3.56,40.3,4.21,58.89-1.6,10.12-1.65,6.06,2.01,14.98,1.05,2.42-2.1,40.44,2.91,37.5-10.83,9.79-19.43,7.53-32,9-1.39-30.75,8.17-64.63-.97-94.53-5.16-16.65-13.93-31.31-16.76-49.24-5.13-32.53,5.98-109.67,14.78-142.67,2.23-8.37,8.32-14.28-6.06-7.56-4.28.32-1.67-5.97-1.92-8.51-.21-2.05-.78-8.57-1.24-9.82-.62-1.72-3.31-1.87-3.53-3.1-.29-1.6,2.22-12.44,1.94-15.39l2.61-.26c-.16-4.43-.53-25.01-5.84-24.96l.98-5.96Z"/>
      <path class="cls-12" d="M42.46,51.98c.85.7.49,4.56,6,3,.37,80.27,16.37,168.94,12,246-12.79,3.05-24.8-10.7-28-22,4.37,2.77,1.83-6.99,1.95-9.55,1.47-9.05,1.88-10.72-2-18.91-1.44-9.37,3.51-21.41-2.94-29.06,1.66-21.84-1-45.46-2.1-67.9-.55-5.97-.66-9.01-.91-15.03-.21-5.13-3.53-11.55-3.72-15.2,1.36-7.08,5.09-6.15.7-13.93-.32-2.11-.74-6.66-.97-8.95-.2-2.02,2.43-7.93,1.97-8.46-3.35-.76-1.21,4.68-4,0,3.29-4.63-2.84-6.96-1.55-9.97,7.78-8.5,17.9-14.69,23.55-25.02-.3-.25-5.76,2.76-6,2.99l-.51-2.01-4.99,4.01-.49-1.99c2.01-3.74,5.19-6.73,6.02-11,.88-.65,5.04,2.21,5.98,3Z"/>
      <path class="cls-27" d="M102.46,114.98c14.38-6.72,8.29-.81,6.06,7.56-8.8,33-19.91,110.13-14.78,142.67,2.83,17.94,11.6,32.59,16.76,49.24,9.14,29.92-.42,63.76.97,94.53-11.5-1.9-22.03-12.59-24.75-23.75-3.2-13.13,2.77-25.74,3.73-38.77.74-10.05-.76-20.95.04-30.96.57-7.16,3.49-14.06,4.02-20.98-6.8-54.06-3.62-110.6-4.39-164.63,0,0,15.35-8.89,15.35-8.89l-33.99,14h8.99c4.21,47.8,1.04,97.63-.98,145.5-1.05,25.57,9.89,43.47,8.03,70.03-.75,10.72-2.21,12.18-9.04,19.46-5.03-2.55,1.84-2.51,2.06-3.58-2.21-17.1.57-34.48-2.08-51.41l-4.5,4.05c-4.99-.03-3.88-19.83-3.49-24.06,10.05-39.64,5.51-87.82,1.99-128.49-1.09-10.73-2.59-21.52-5.09-32.03.36-5.39,11.91-6.97,16.09-8.5-1-4.29-1.9-8.73-2.99-12.98h1c.5,3.34,2.31,7.58,3.01,11,1.37,1.02,15.4-7.79,17.99-9Z"/>
      <path class="cls-14" d="M20.46,66.98c-1.31,2.42-6.35,3.55-5.25,6.82-1.29,1.38-5.81,1.04-6.37,4.13-.53,2.9,2.6,3.86,2.4,6.38-4.45,9.23-5.89,8.86-3.7,20.17,1.44,28.92,7.35,233.3,62.92,190.5-.39,4.22-1.5,24.02,3.49,24.06l4.5-4.05c2.64,16.93-.13,34.32,2.08,51.41-.23,1.07-7.09,1.03-2.07,3.58-17.24,23.17-46.29-1.55-53.95-21.54-1.53-13.36-3.69-40.08-2.93-53.01-2.01-71.96-30.74-151.24-15.12-225.44,4.77-.19,9.47-1.42,14-3Z"/>
      <path class="cls-22" d="M129.46,37.98c.3,2.67,3.04,6.2,5,8l-3.99,1.48c4.07,3.62,5.63,6.33,10.99,7.52l13,8.51c.49,2.02-4.52,3.41-5.49,5.5-3.24,6.95,8.95,12.65,12.33,17.65,16.67,22.43-17.13,132.42-24.83,163.33-9.49-68.5-4.96-145.45-15.87-210.87,3.71-1.58,4.9-2.85,8.87-1.13Z"/>
      <path class="cls-1" d="M69.46,50.98c1.66.08,3.35-.07,5.01,0,.44,25.39,1.61,50.8,8.99,74.99-4.17,1.53-15.73,3.11-16.09,8.5,8.81,51.11,14.26,109.71,3.1,160.52-4.4,1.62-4.86,4.52-10,6,6.92-77.86-17.02-170.53-9.38-250.07,6.11.31,12.29-.21,18.38.07Z"/>
      <path class="cls-18" d="M95.46,46.98l-.98,5.96c5.28-.1,5.68,20.53,5.84,24.96l-2.61.26c.28,2.95-2.23,13.79-1.94,15.39.22,1.23,2.9,1.38,3.53,3.1.46,1.26,1.03,7.77,1.24,9.82.25,2.54-2.35,8.83,1.92,8.51-2.58,1.21-16.61,10.02-17.99,9-6.51-17-2.51-34.91-2.97-52.54-.15-4.06-2.78-18.32-1.92-20.82.76-2.21,12.81-2.9,15.88-3.64Z"/>
      <path class="cls-16" d="M87.45,131.99c2.41,54.12-2.41,108.92,4.88,162.37-.69,7.37-4.62,14.97-3.89,22.62-12.42-23.42-3.74-55.28-3.95-81.46.6-34.11-2.3-68.3-.88-102.38l3.83-1.16Z"/>
      <path class="cls-21" d="M134.46,45.98c7.29,6.7,16.75,6.68,26,7,3.82,6.77,3.94,13.31,3.38,21.04,22.37,34.5,0,100.89-5.38,140.96-5.29,1.26-.91-4.44-1.01-7.5-.09-2.94-1.61-5.63-2-8.5-3.23.91-.8,6.21-3.99,7l17.01-95.01,1.98,1.01c.72-2.78-.84-5.63-.99-8.01-.39-6.25.32-10.24-1.95-16.55-1.83-5.06-8.03-12.24-8.89-17.21-.65-3.79,3.39-6.49,1.36-10.26-9.83-5.43-22.23-2.42-29.51-12.5l3.99-1.48Z"/>
      <path class="cls-3" d="M77.46,31.98c9.93-1.4,21.26-5.25,30.99-8l3.82,15.54c-.33,1.76-32.46,8.83-33.82,7.47-.08-1.36-1.17-14.02-1-15.01Z"/>
      <path class="cls-8" d="M132.46,32.98c-1.87.89-11.97,4.81-12.96,3.97l-3.11-15.3c8.54-3.99,15.56-8.02,23.07-13.67,10.36,15.89,8.77,15.92-7,25Z"/>
      <path class="cls-26" d="M23.46,25.98c-3.22,5.6-5.24,13.45,0,18-7.21.4-8.14,17.37-5.47,18,3.75-.61,15.66-9.25,16.43-12.54.47-2.02-.32-1.19-1.33-1.56-3.81-1.38-6.08-.82-9.63-3.9,4.87-.27,12.29,4.26,17.56,4.05,2.25-.09,1.18-1.9,2.44-3.05-.06,2.39.39,4.82-1,7-.95-.79-5.1-3.65-5.98-3-1.41,8.29-17.42,16.89-25.03,18.54-1.62.51-3.56-.25-2.99,2.46-.58.13-1.37-.09-2,0,1.5-10.71,3.68-21.27,5.01-32l3.99,1.99-4.08-3.65,4.57-14.32c2.26,1.27,5.17,3.06,7.51,3.98Z"/>
      <path class="cls-7" d="M139.46,7.98c1.58-1.19,3.06-2.62,4.5-3.98,1.14-.02,8.32,12.18,8.22,13.5s-6.14,4.92-4.71,6.49l5.97-5c5.1,6.98,4.92,16.92,7.47,24.05,1.07,2.98,4.96,4.47,3.54,8.95-10.08-2.31-23.34-.4-29.99-10,26.97,12.7,26.26,1.65,13.44-16.99-4.91,2.9-9.41,6.27-14.44,8.99l-1-1c15.82-9.09,17.33-9.15,7-25Z"/>
      <path class="cls-5" d="M23.46,25.98c6.79,2.66,13.77,4.85,21,6-1.19,4.4-.89,8.54-1,13-1.25,1.16-.19,2.97-2.44,3.05-5.28.2-12.69-4.33-17.56-4.05-5.24-4.55-3.22-12.4,0-18Z"/>
      <path class="cls-11" d="M134.46,41.98c-1.5-.74-3.17-3.21-5-4-.51-4.57,1.53-2.66,4-4,5.03-2.72,9.53-6.09,14.44-8.99,12.89,18.74,13.45,29.65-13.44,16.99Z"/>
      <path class="cls-10" d="M72.46,31.98l1,16c-6.95,2.05-14.79.56-22,1v-16c7.11.5,14.02-.26,21-1Z"/>
      <path class="cls-17" d="M79.46,108.98c-5.38-18.14-3.59-39.02-4.99-58.01-1.66-.06-3.34.08-5.01,0,18.04-10.18,4.83,48.35,10,58Z"/>
      <path class="cls-7" d="M160.46,52.98c1.99.07,4.01-.06,6.01,0,.53,11.77,3.52,23.26,4.99,35.01-1.25-4.46-6.84-9.98-7.62-13.96.56-7.71.44-14.29-3.38-21.04Z"/>
      <rect class="cls-9" x="112.74" y="22.61" width="4.33" height="22.77" transform="translate(-4.78 28.13) rotate(-13.68)"/>
      <path class="cls-2" d="M49.46,32.98v17.5c0,.36-1.14,1.56-1.1,2.41l-2.9.09v-18.5l4-1.5Z"/>
      <path class="cls-23" d="M77.46,31.98c-.11.63.16,1.48,0,2-2.96,5.77,3.67,14.66-4,14l-1-16c1.61-.17,3.43.22,5,0Z"/>
      <path class="cls-8" d="M151.46,205.98c3.19-.79.76-6.09,3.99-7,.39,2.86,1.91,5.56,2,8.5.1,3.07-4.28,8.76,1.01,7.5-2.94,17.06-8.52,35.18-7.99,52.28-.27.99-2.21,1.22-2.89,2.29-3.23,5.02,1.22,7.51.9,10.87-.2,2.09-2.84,3.6-3.08,7.07,3.96,27.62,15.01,90.43-1.93,112.49-5,3.03-1.88-35.26-2.92-37.5-3.67-8.95-3.6-4.84-2.01-14.98-.65-18.59-2.01-40.46-4.21-58.89-.37-3.08-.27-9.06-2.87-10.63,10.43-17.36,12.81-52.37,20-72Z"/>
      <path class="cls-6" d="M151.46,366.98c.4-10.62-.29-21.37,0-32,.54,8.77,1.13,17.44,1.02,26.52-.02,1.7.64,4.43-1.02,5.48Z"/>
      <path class="cls-25" d="M169.46,103.98c.15,2.38,1.71,5.23.99,8.01l-1.98-1.01c-9.18,44.95-19.23,125.77-37.01,167.01-5.26,8.75-14.34,12.55-24.45,10.94-.9-.14-6.17-2.36-4.54-3.94,25.81,6.76,28.58-17.01,33.99-35,12.91-47.34,27.73-100.02,30-149l3,3Z"/>
      <path class="cls-15" d="M30.46,59.98l.49,1.99,4.99-4.01.51,2.01c-5.09,10.43-18.94,12.66-21.81,20.71,1.51,6-.96,7.47-2.96,13.02-1.46,7.93,1.04,17.56-1.32,25.76l5.09,41.51c-.29,4.13,1.47,13.75,2.29,18.24.31,1.67.12,4.47,2.7,3.76-.23-20.66-16.4-60.94-.1-75.7.63-5.58-11.03-6.87.11-15.29,2.78,4.69.65-.75,4,0-2.02,7.58-2.39,8.77-1,17.41,4.37,7.78.7,6.76-.71,13.93.19,3.65,3.51,10.08,3.72,15.2.25,6.02.36,9.07.91,15.03,1.1,22.43,3.76,46.07,2.1,67.9,6.45,7.64,1.5,19.71,2.94,29.06,3.88,8.13,3.46,9.94,2,18.91-.12,2.56,2.42,12.32-1.95,9.55C21.24,252.39-2.46,105.01,11.24,84.31c.2-2.52-2.92-3.49-2.4-6.38.56-3.09,5.08-2.76,6.37-4.13-1.1-3.3,3.94-4.33,5.25-6.82,2.86-1.18,7.92-4.75,10-7Z"/>
      <path class="cls-13" d="M36.46,59.98c.24-.23,5.7-3.24,6-2.99-5.65,10.33-15.77,16.52-23.55,25.02-1.29,3.01,4.84,5.34,1.55,9.97-11.15,8.43.54,9.72-.11,15.29-.43,1.75-4.66,4.19-5.77,6.33-3.29,6.4.83,33.74,1.87,42.37.95,1.82-.95,4.27-1,5l-5.09-41.51c2.36-8.21-.14-17.83,1.32-25.76,2.01-5.6,4.46-6.96,2.96-13.02,2.8-7.98,16.77-10.34,21.81-20.71Z"/>
      <path class="cls-19" d="M33.46,54.98c-4.14,9.69-15.31,13.59-25,15-.57-2.71,1.37-1.95,2.99-2.46,3.51-1.12,7.05-1.99,10.33-3.72l11.68-8.82Z"/>
      <path class="cls-20" d="M141.46,54.98c6.09,1.39,13,1.68,18.52,4.98,2.03,3.77-2.02,6.47-1.36,10.26,5.35,13.43,12.02,16.86,10.84,33.76l-3-3c-1.3-19.41-21.01-21.86-17.5-31.99.98-2.09,5.99-3.49,5.49-5.5l-13-8.51Z"/>
      <path class="cls-24" d="M23.46,43.98c3.54,3.08,5.82,2.52,9.63,3.9,1.01.37,1.8-.46,1.33,1.56-.77,3.29-12.67,11.93-16.43,12.54-2.67-.63-1.74-17.6,5.47-18Z"/>
    </g>
  </g>
</svg>