<?xml version="1.0" encoding="UTF-8"?>
<svg id="Layer_2" data-name="Layer 2" xmlns="http://www.w3.org/2000/svg" viewBox="0 0 102.72 65.95">
  <defs>
    <style>
      .cls-1 {
        fill: #7a3e84;
      }

      .cls-2 {
        fill: #81418f;
      }

      .cls-3 {
        fill: #602b68;
      }

      .cls-4 {
        fill: #9e4baf;
      }

      .cls-5 {
        fill: #642f6c;
      }

      .cls-6 {
        fill: #773982;
      }

      .cls-7 {
        fill: #b25dbd;
      }

      .cls-8 {
        fill: #793f81;
      }

      .cls-9 {
        fill: #622e6b;
      }

      .cls-10 {
        fill: #763e7e;
      }

      .cls-11 {
        fill: #343ebb;
      }

      .cls-12 {
        fill: #a95bb4;
      }

      .cls-13 {
        fill: #773d81;
      }

      .cls-14 {
        fill: #632f6a;
      }

      .cls-15 {
        fill: #67356d;
      }

      .cls-16 {
        fill: #7b4083;
      }

      .cls-17 {
        fill: #5e2a66;
      }

      .cls-18 {
        fill: #3843c2;
      }

      .cls-19 {
        fill: #632f6c;
      }
    </style>
  </defs>
  <g id="Layer_1-2" data-name="Layer 1">
    <g>
      <path class="cls-8" d="M94.7,17.9c3.98,1.47,2.46,5.5,3.46,8.04,1.25,3.17,3.57,6.19,4.43,9.66l-1.89,1.31-13-1,3.51-4,1.48,1.99,2.01-3.5-4-.5c1.79-5.12-3.19-7.51,2.01-11.99.62.12,1.53-.17,2,0Z"/>
      <path class="cls-10" d="M9.7,46.9c5.3-2.83,4.15,4.99,6,2,.34.12.81-.11.98.51l1.02,6.48c-7.57-.48-24.67,2.76-14-9l-.99,6,3.5-2.99,1.98,1.99,1.51-5Z"/>
      <path class="cls-17" d="M17.7,34.9v1c-4.82-.35-1.92,2.69-3.5,3.01l-1.99-2.99-5.01,3.01-.99-2.03-3.5,5.99,13.99,3.01c-.15.56-1.6,1.6-1,3-1.5,2.5-1.02-1.67-2.95-2.51-.98-.51-2.48.62-3.05.51-2.96-.56-3.1-1.29-5-2-1.09-.41-3.2.88-4.06-.66-2.03-3.65,1.27-5.04,2.51-7.36.46-.86-.49-1.86-.45-1.99.84-2.72,12.59-.69,15,0Z"/>
      <path class="cls-1" d="M88.7,47.9c1.01-.88,6.06-2.35,7.36-2.08l1.65,4.07c1.41.32,1.11-1.05.99-1.99,4.4,4.65-1.01,7.57,3,16-4.95.18-9.01-2.34-13.99-1.01l1.99-5.99c2.48-.64,4.34-1.76,7.36-1.01,1.18.29-.01,2.44,1.63,2.01l.99-2.5-12.97-3.5c-.13-.18,1.83-3.84,2-3.99Z"/>
      <path class="cls-13" d="M16.7,45.9l-13.99-3.01,3.5-5.99.99,2.03,5.01-3.01,1.99,2.99c1.06.07.19-1.59.5-2.01,2.04,2.79,2.8,6.09,2,9Z"/>
      <path class="cls-2" d="M3.7,29.9c7.72-5.05,10.71-1.52,14,5-2.41-.69-14.16-2.72-15,0l-1.99-2.98c1.79.27,2.34-1.59,2.99-2.02Z"/>
      <path class="cls-14" d="M4.7,18.9c2.97,1.17-3.22,5.87-1.99,6.99,1.67.41,3.63-1.08,4.99-.99,2.63.17,8.05,3.34,10-1,.79,3.86-1.19,4.19-.88,6.25.25,1.64,3.48,4.39.88,5.75-1.95-6.99-6.4-11.28-14-6l-2.88-5.31c1.25-1.93,2.66-3.74,3.88-5.69Z"/>
      <path class="cls-6" d="M100.7,37.9c0,1.97,1.81,3.82,2,6-5.01-.54-10.05-.22-15-1,2.05-6.15,7.88-4.01,13-5Z"/>
      <path class="cls-5" d="M11.7,7.9c1.68.72,2.41,8.02,3,10-.2-.14-.19,2.02-2.99-2l-4.01,3c-1.55-4.09-2.49-12.21,4-11Z"/>
      <path class="cls-16" d="M7.7,18.9l4.01-3c2.8,4.02,2.79,1.86,2.99,2,1.75,1.23,2.58,3.98,3,6-1.95,4.34-7.37,1.17-10,1l3.01-4.49-4.01-.52,1-.99Z"/>
      <path class="cls-3" d="M87.7,35.9l13,1v1c-5.12.99-10.95-1.15-13,5-.63-.1-1.35.07-2,0-.71-3.24,1.93-3.12,2.03-5.49l-2.84-3.86,3.81-3.65c-.58,1.96-2.91,5.48-1,6Z"/>
      <path class="cls-15" d="M89.7,56.9l-1.99,5.99c4.99-1.33,9.04,1.19,13.99,1.01.07.68.38,2.13-.59,2.02-3.5-.01-18.21.8-16.84-5.04,1.18-2.43,2.77-3.9,5.44-3.98Z"/>
      <path class="cls-19" d="M88.7,47.9c-.17.15-2.13,3.81-2,3.99l12.97,3.5-.99,2.5c-.76.2-.91-.15-.97-.62-.74-3.89-6.79-.04-9.01-.38l-4.84-5.68,3.84-4.32c.29.36.71.64,1,1Z"/>
      <path class="cls-18" d="M11.7,7.9c-.26-.11-2.74-.11-3,0C-1.68-2.14,21.76-3.12,11.7,7.9Z"/>
      <path class="cls-11" d="M92.7,17.9c-9.18-5.35,4.01-10.43,5.03-6.32,1.28,3.99-.86,6.93-5.03,6.32Z"/>
      <path class="cls-9" d="M87.7,42.9c4.95.78,9.99.46,15,1,.06.66-.02,1.34,0,1.99l-5.01.02c-.4.24.93,1.46,1,1.99.12.94.43,2.31-.99,1.99l-1.65-4.07c-1.3-.27-6.35,1.2-7.36,2.08-1.5-1.39-2.57-2.96-3-5,.65.07,1.37-.1,2,0Z"/>
      <path class="cls-12" d="M7.7,18.9l-1,.99,4.01.52-3.01,4.49c-1.36-.09-3.33,1.4-4.99.99-1.23-1.12,4.97-5.82,1.99-6.99.62-.99.79-2.32,2-3,.01.52,1.07,1.79,1,3Z"/>
      <path class="cls-7" d="M90.7,24.9c.06,1.6.84,3.12,0,4.99l4,.5-2.01,3.5-1.48-1.99-3.51,4c-1.91-.52.42-4.04,1-6,.53-1.8.2-3.88,2-5Z"/>
      <path class="cls-4" d="M9.7,46.9l-1.51,5-1.98-1.99-3.5,2.99c.28-1.66.88-6.69,1.99-8,1.9.71,2.04,1.44,5,2Z"/>
    </g>
  </g>
</svg>