<?xml version="1.0" encoding="UTF-8"?>
<svg id="Layer_2" data-name="Layer 2" xmlns="http://www.w3.org/2000/svg" viewBox="0 0 268.06 294.9">
  <defs>
    <style>
      .cls-1 {
        fill: #b9c7da;
      }

      .cls-2 {
        fill: #a4b3c7;
      }

      .cls-3 {
        fill: #abbbd0;
      }

      .cls-4 {
        fill: #a4b2c6;
      }

      .cls-5 {
        fill: #bcc9da;
      }

      .cls-6 {
        fill: #a1b0c5;
      }

      .cls-7 {
        fill: #f2f7fe;
      }

      .cls-8 {
        fill: #bac7d9;
      }

      .cls-9 {
        fill: #e1eefe;
      }

      .cls-10 {
        fill: #dae9fb;
      }

      .cls-11 {
        fill: #bfcbdb;
      }

      .cls-12 {
        fill: #bdcadb;
      }

      .cls-13 {
        fill: #eaf2fc;
      }

      .cls-14 {
        fill: #a0b1c6;
      }

      .cls-15 {
        fill: #a1b2c7;
      }

      .cls-16 {
        fill: #b8c8da;
      }

      .cls-17 {
        fill: #b6c6da;
      }

      .cls-18 {
        fill: #f7fafe;
      }

      .cls-19 {
        fill: #e3effd;
      }

      .cls-20 {
        fill: #e7f1fd;
      }

      .cls-21 {
        fill: #9bacc1;
      }

      .cls-22 {
        fill: #a3b2c8;
      }

      .cls-23 {
        fill: #a8b7cb;
      }

      .cls-24 {
        fill: #a9b7ca;
      }

      .cls-25 {
        fill: #f6f9fd;
      }

      .cls-26 {
        fill: #a6b4c7;
      }

      .cls-27 {
        fill: #b4c1d4;
      }

      .cls-28 {
        fill: #f8fbfe;
      }

      .cls-29 {
        fill: #ebf3fe;
      }

      .cls-30 {
        fill: #a5b3c6;
      }

      .cls-31 {
        fill: #eff6fe;
      }

      .cls-32 {
        fill: #9dadc3;
      }

      .cls-33 {
        fill: #becada;
      }

      .cls-34 {
        fill: #f7fafd;
      }

      .cls-35 {
        fill: #acb9cd;
      }

      .cls-36 {
        fill: #a6b4c9;
      }

      .cls-37 {
        fill: #f6f9fb;
      }

      .cls-38 {
        fill: #eef4fc;
      }

      .cls-39 {
        fill: #dfecfd;
      }

      .cls-40 {
        fill: #b8c7da;
      }

      .cls-41 {
        fill: #a2b2c7;
      }

      .cls-42 {
        fill: #bcc9db;
      }

      .cls-43 {
        fill: #9fb0c5;
      }

      .cls-44 {
        fill: #edf4fe;
      }

      .cls-45 {
        fill: #fdfdfd;
      }

      .cls-46 {
        fill: #9fafc4;
      }
    </style>
  </defs>
  <g id="Layer_1-2" data-name="Layer 1">
    <g>
      <path class="cls-32" d="M231.19,109c-3.19-5.35-2.96-13.6-5-19,1.36-.38-2.76-10.03.51-7.01l3.49,12.01c1.86,9.23,5.42,6.6,10.98,1.5,0-.9-6.73-5.91-7.98-6.5-1.35-2.77-8.37-13.42-11-13,3.29-19.33,6.5-47.15,1.99-66.99-15.02,17.04-44.15,17.83-64.99,23-.09,4.19,9.39,7.36,10,13.99-13.14-4.1-25.2,6.13-37.99,0-.53,12.46,2.53,28.52-5.51,38.97-12.06-12.37-14-22.55-12.51-38.98-10.96,8.18-28.72-11.16-35.99,2-.24.14-2.12.32-1.99-.49l5.99-9.51c2.07-2.43,10.75-7.46,9.99-9.99-23.8-3.49-47.44-13.04-67.99-24.01-2.74,23.15,1.6,46.32,3.14,69.37l1.31,1.38c8.6-3.04,7.93,4.25,17.9-.6,4.58,5.96,12.88.33,19.64,1.85-7.31,1.24-14.95,5.61-20.68.19-7.84,4.24-10.34-1.39-19.62.02-2.22.5-17.64,10.5-18.81,12.25-1.38,2.07.11,4.42,1.11,6.53,1.65,3.52,1.04,3.47,5,5,.97.38,1.82,1.2,2.99,1l7.02-20s-.01,5.99-.01,5.99c-1.2,2.08-6.33,16.73-6.05,18.48,1.52,2.72,8.47,8.43,11.56,8.44,5.74.02,5.15-9.52,15.5-8.92,5.76.1,9.61,6.36,16,6-9.4.61-7.31-1.84-13.97-3.53-9.89-2.52-9.69,5.89-13.29,7.25-4.21,1.06-5.4-.41-9.59,3.76,4.73,6.62-1.36,14.37-2.87,20.32-1.44,5.68-2.07,12.33-2.29,18.21-3.71-12.06,3.94-23.34,4.68-34.39.09-1.96-3.54-6.12,1.3-6.64l.02-1.46c-2.91-3.25-12.51-6.26-9.01-11.47-5.97-1.36-11.24-6.87-11.1-14.54l21.14-15.21c-1.32-19.77-7.32-55.11-2.02-74.28,45.87,35.01,158.72,47.64,202.49,6.02,9,3.8-1.23,60.34.72,69.26.5,1.71,8.9,11.76,10.76,13.24,3.22,2.56,6.96,3.34,10,5.98.04,3.08-12.6,8.5-14,10-1.65,1.77-.63,3.82-.98,4.5ZM115.19,33.01c-7.33-1.53-12.46-2.59-19.8-.31-1.54.48-14.86,7.08-12.2,9.29,11.63-.17,23.72,11.65,32.93-.63l-2.97-4.85,2.04-3.49ZM133.19,37c-.51.71-.7,1.21-1,2-.63,1.65-2.64,1.79-.91,4.34,6.06,8.94,24.31-1.36,32.91.65-2.51-8.51-28.11-16.93-31-6.99ZM119.93,34.24c-1.37.25-5.27,1.22-4.74,3.24l7.55,6.57c10.65-4.93,12.13-12.55-2.8-9.81ZM119.17,44.02l-2.04.55c-3.87,10.77-3.54,18.32,1.54,28.45.64,1.28,5.93,10.45,7.51,8.98,3.37-12.42,5.17-25.41,1.99-37.99-2.77,2.09-8.25,4.91-9.01.02Z"/>
      <path class="cls-21" d="M165.19,152c10.96-2.05,22.56-13.01,18.01-25.01l1.99,1.01v-16c2.34-.13,1.77-.34,2,1.48-4.88,52.46,37.56,97.05,39.46,147.56,8.8,12.04,7.54,11.28,2.68,25.32,4.59,5.39,12.92,6.44,19.86,6.64l2,1c-6.02,1.33-8.08,1.21-14-.5-18.67-5.39-4.52-12.85-6.15-21.77-.54-2.93-5.47-6.52-6.39-9.69-1.23-42.5-32.35-80.18-38.47-122.04-22.2,23.95-52.89,18.09-84.53,18.96-14.83,1.66-30.4,5.63-39.45-10.96-1.02,28.87-21.14,70.72-25.19,96.59.85,4.09,4.93,6.52,2.23,10.71-5.98,3.03-1.15,4.8,1.01,9.13,2.99,6.82,3.53,25.36-8.06,20.56,11.76-2.52,7.8-19.88,1.34-26.51l4.6-6.13c-12.13-13.67,16.58-62.91,18.57-84.36,3.55-16.33,6.92-33.29,6.5-50,0,0,2.03,8.45,2.03,8.45-9.9,49.18,42.83,26.45,71.96,24.55-2.1,3.18-7.58,3.22-11,4l2.42,1.91c10.56-2.44,27.1.67,36.58-4.92Z"/>
      <path class="cls-4" d="M231.19,109c-.48.93-2.4,1.41-2.81,2.66-2.64,8.01,3.09,7.67,3.68,10.02-1.98,33.24,18.24,76.52,25.99,109.06-1.49,9.79,1.27,5.48,5.98,10.93,1.09,3.14-1.01,6.15-.65,8.62.32,2.21,3.23,4.13,3.76,7.26,1.23,16.3,4.31,31.8-15.94,36.45l-2-1c20.02-5.17,17.67-19.24,15.98-35.48-.51-2.54-3.38-3.71-3.82-6.26-.48-2.77,1.71-5.73.71-8.59-.87-2.5-5.38-1.4-6.47-6.65-3.35-33.14-29.36-80.34-25.56-113.43-.39-1.66-2.98-1.82-3.83-2.59l-1.01-7.01c-.24-.24-5.57,2.01-6.49,2.01h-28.5l4.99-3.01-4.51-.99.51-1c2.66.1,5.34-.07,8,0,3.13,2.58-6.16,2.12-5.99,3.99,10.15-2.64,34.4,4.03,35.99-9.99.42,1.55,1.15,3.59,2,5Z"/>
      <path class="cls-6" d="M17.19,158c-.61,23.36,1.27,72.75-11.64,91.49.15,2.54,6.15,4.99,4.68,10.83-.54,2.16-15.59,2.53-3.56,15.69,8.62,10.26,16.98,6.55,27.52,9.98-8.1,2.03-14.33,1.52-21.7-2.8-5.6-3.29-15.88-13.45-11.38-20.53,1.05-1.64,6.38-2.11,7.02-4.31l-4.96-9.76c15.33-23.88,9.38-69.44,13.02-97.6.02,2.74.98,5.78,1,7Z"/>
      <path class="cls-39" d="M32.19,285c-10.51-1.18-17.25.08-25.52-8.98-12.03-13.17,3.02-13.54,3.56-15.69,1.47-5.84-4.52-8.3-4.68-10.83,16.7-26.41,7.55-79.39,13.92-109.71,1.51-5.94,7.59-13.7,2.87-20.32l.85-.47c8.94,3.63,11.35.52,19-3l1.57,4.02c-1.57,2.74-8.54.7-8.59,4.43-.03,2.49,6.66,9.77,8.01,8.54l-5.02-8.46c5.41-1.47,9.73-4.09,5.02-9.53,1.74-3.71,8.06,4.56,9.41,6.09,2.69,4.69-.73,9.35-1.29,14.53-2.32,21.27-3.22,43.82-9.66,64.34-3.57,11.39-16.44,32.66-14.23,43.31.72,3.45,5.14,6.88,4.79,10.19-.32,3.06-5.76,4.75-5.75,8.85.02,6.88,9.47,14.75,5.72,22.69ZM22.18,266l-4.99-10.47c1.91-3.22,8.76.21,9.89-3.17s-2.18-7.05-4.4-9.35l2.51,8.99-8.33-.03c-4.47,1.09,2.2,13,5.32,14.04Z"/>
      <path class="cls-9" d="M29.19,8c18.79,10.61,40.8,17.27,61.99,21.01.82,2.44-10.25,10.09-13.02,11.42-1.2,1.5-10.54,9.8-5.48,9.61,4.33,1.39,4.22-.99,4.5-1.04,1.72-.31,9.31-1.49,10-.99-2.8,6.29-34.72,9.68-32.49,13,17.69-2.07,40.97-6.77,58.49-11.01.19,5.3-1.17,9.23,0,15-.49,8.08-4.72,2.66-8.45,3.01-2.3.22-3.82,2.79-4.55,2.99-10.8-.34-9.2.26-17.7,4.82-3.79.56-9.93-2.94-14.3,1.18-7.55-1.75-17.51,4.17-22.64-1.85-5.85,2.15-6.32,2.62-12.36-.15-2.33-21.84-7.38-45.58-4-67Z"/>
      <path class="cls-17" d="M70.19,111c5.11,3.8,29.32-8.89,33-6.01-.44,4.36.06,7.7,3,11.01-33.63-4.21-48.13,41.11-11,41-8.47,2.98-23.44,1.29-28.46-7.04-5.23-9.87,1.35-20.2-3.53-31.96,6.02,39.99-38.75,121.68-25.07,134.36l-4.6,6.13c6.46,6.63,10.43,23.99-1.34,26.51,3.76-7.94-5.7-15.81-5.72-22.69-.01-4.1,5.43-5.78,5.75-8.85.34-3.31-4.08-6.74-4.79-10.19-2.22-10.65,10.65-31.92,14.23-43.31,6.44-20.52,7.34-43.07,9.66-64.34,2.97-11.43,4.41-14.91-6.68-21.67-7.15,4.68-12.03,9.02-21.44,5.05,2.89-3.94,5.71-2.14,8.74-3.29,3.59-1.36,3.39-9.76,13.29-7.25,6.66,1.7,4.57,4.14,13.97,3.53,3.74-.24,7.29-.58,11-1Z"/>
      <path class="cls-18" d="M217.19,78c-8.53-6.02-8.24-.88-14.66,1.8-3.15.29-3.69-4.3-11.34-2.8-2.59.51-4.94,2.11-7,2-3.67-.2-4.86-4.99-.08-4.05.8-3.06-1.62-6.23-.76-9.22,1.95-3.57,5.33-3.49,4.89-8.68.87-.91,9.22,1.31,10.95-1.05,5.3-1.97-28.45-8.42-30-9-.63-6.67-10.06-9.76-10-13.99,18.74-4.32,44.21-6.39,60-18.01,2.26,20.26,4.1,43.39-2,63Z"/>
      <path class="cls-19" d="M98.19,78c-.01,3.31,1.84,7.29,1,11-.19-.9-1.03-4.98-1.99-4.99l-2.02,18c2.78-.41,7.03,1.86,6-3,.29,1.03,1.71,2.16,1.01,4-14.56,2.4-42.09,15.51-55.01,4,2.24-4.76-.45-11.89-1.01-16.99l-3.77,10.78.79,5.21c-10.34-.6-9.75,8.94-15.5,8.92-3.08,0-10.04-5.72-11.56-8.44-.28-1.75,4.86-16.4,6.05-18.48.47-.81,6.06-6.83,6.64-6.93,4.56,3.43,4.22,2.84,9.36.94-1.42,7.29-3.38,14.6-3.99,21.99l11.99-22c6.63,3.01,3.5,16.18,9,21v-16.5c0-9.59,8.24-4.56,12.5-4.51,21.48-4.14,12.56,3.28,11.51,22,3.05-1.82,2.96-7.47,3.99-9.99,1.47-3.61,3.48-7.04,5-11,3.53-2.39,4.9-6.15,10-5Z"/>
      <path class="cls-29" d="M134.19,88c.43,2.42-3.13,6.18-1.51,8.99,4.18-4.91,7.28-10.64,11.21-15.73.65-.84,0-1.83,2.29-1.26.55,4.65-1.43,17.86,2.01,20.99,2.96,2.7,23.94,5.19,23.98,8.5-7.48,7-27.99-1.39-38.52.46-8.23-.5-26.55,10.76-28.46-.96,4.53-4.14-4.1-28.94-3-30h5.01c.53-.52-1.25-6.13,1.48-5l7.5,6.99,2.01-5c2.12,3.64,4.36,7.11,7.5,9.98.99,0,5.27-11.57,5.5-12.98,4.55,0,3.29,11.31,3,15Z"/>
      <path class="cls-31" d="M170.19,55c9.49.79,19.49,1.1,29,1-1.73,2.37-10.09.14-10.95,1.05.44,5.21-2.93,5.1-4.89,8.68-.86,3,1.56,6.16.76,9.22-4.78-.94-3.59,3.84.08,4.05-16.63.44-12.09-7.13-21.28-5.77-3.54,2.29-6.7,1.83-10.72,1.77-4.82-5.09-9.82-1.41-16-5-1.1-.64-3.03-3.53-5-4,.27-4.96-.27-10.04,0-15,13.09.31,25.98,2.98,39,4Z"/>
      <path class="cls-40" d="M118.19,76l-2.01,5-7.5-6.99c-2.73-1.13-.95,4.48-1.48,5h-5.01c-1.1,1.05,7.54,25.85,3,29.99-1.75-11.67-4.67-23.2-5.01-35-1.99.49-1.98,2.35-1.99,4-5.1-1.15-6.47,2.61-10,5,1.02-2.65,2.29-5.27,2.99-8-3.13.69-11.26,17.96-7.99,19-1.02,2.52-.94,8.18-3.99,9.99,1.05-18.73,9.96-26.14-11.51-22-4.26-.05-12.5-5.08-12.5,4.51v16.5c-5.9-5.54-2.06-20.26-10.99-22l-9.01,16c.85-4.99,1.95-10.04,3-14.99-5.14,1.9-4.8,2.49-9.36-.94-.58.1-6.17,6.12-6.64,6.93v-5.99s-7.01,20-7.01,20c-1.17.2-2.01-.63-2.99-1l5-12.99c-2.39-1.83-8.51,6.42-10,7.99-.99-2.12-2.49-4.46-1.11-6.53,1.17-1.76,16.59-11.76,18.81-12.25,6.21-1.39,10.59,2.09,14.75,1.76,7.78-3.62,3.5-.55,11.06,1.09,3.42.17,10.52-2.58,14.49-3.07,2.72.18,8.2-.63,10.33-.76,2.23.05,4.33,2.21,8.08,1.74,3.95-.49,4.98-4.03,7.31-4.76,2.53-.79,6.92-.35,9.79-1.23l-.5-.99c6.22-7.98,12.12,4.45,13-6,.89,4.43,2.85,7.31,5,11Z"/>
      <path class="cls-18" d="M226.19,90c7.7,22.42-1.71,23.91-22,23-3.36-9.29-5.58-19.09-5.99-28.99,1.5-1.55,7.27,4.82,7.99,5.99,1.94,2.22,1.21,7.45,3.99,8.99.49-6.35-3.54-13.31,2.62-17.95,2.04-.35,4.08,4.35,6.09,4.79,3,.67,4.65-2.61,7.3,4.16Z"/>
      <path class="cls-45" d="M119.17,44.02c.75,4.89,6.24,2.07,9.01-.02,3.17,12.58,1.38,25.58-1.99,37.99-1.58,1.47-6.87-7.7-7.51-8.98-5.08-10.12-5.41-17.68-1.54-28.45l2.04-.55Z"/>
      <path class="cls-17" d="M29.19,8c-3.38,21.42,1.67,45.15,4,67-1.89-.3-3.76.21-5.54.74l-1.31-1.38c-1.54-23.05-5.88-46.21-3.14-69.37,2.9-.7,4.21,1.99,6,3Z"/>
      <path class="cls-38" d="M115.19,33.01l-2.04,3.49,2.97,4.85c-9.2,12.28-21.3.46-32.93.63-2.66-2.21,10.66-8.81,12.2-9.29,7.33-2.28,12.47-1.22,19.8.31ZM112.18,39.01h-11.48s-8.51,1.98-8.51,1.98c3.86.37,18.34,1.34,19.99-1.98Z"/>
      <path class="cls-13" d="M133.19,37c2.89-9.93,28.48-1.52,31,6.99-8.6-2.01-26.85,8.29-32.91-.65-1.73-2.55.28-2.69.91-4.34l21,2.99c-4.96-4.32-13.78-3.16-20-4.99Z"/>
      <path class="cls-11" d="M222.19,77c-1.88.3-.76,2.47-5,1,6.1-19.59,4.26-42.77,2-63,2.21-1.63,3.13-3.38,4.99-4.99,4.51,19.79,1.3,47.72-1.99,66.99Z"/>
      <path class="cls-5" d="M169.19,47c7.9,1.5,20.42,4.82,28.46,7.04,6.44,2.27-2.38,2.05-4.46,1.96-2.05-.5-41.01-9.13-32.64-4.87,2.1.64,4.34,1.03,6.47,1.59,1.73.46,3.77-.62,3.17,2.28-13.02-1.02-25.91-3.69-39-4,.07-1.32-.06-2.67,0-3.99,12.78,6.12,24.86-4.1,37.99,0Z"/>
      <path class="cls-1" d="M77.19,49c7.28-13.16,25.02,6.18,35.99-2,.05.99-.02,2,.01,3l-27,6c3.08-.78,8.3-2.75,11.63-3.88,9.22-3.39-26.78,3.98-28.63,3.88,5.71-3.05,13.73-2.69,18-7.99-.69-.5-8.28.68-10,.99Z"/>
      <path class="cls-11" d="M207.19,92c2.59-2.91-1.32-7.3-1-10.49.23-2.31,4.12-4.98,6.35-4.59.66.12,6.78,9.77,9.65.08,2.63-.42,9.65,10.23,11,13-1.33-.63-2.4-1.29-4-.99,2.2,1.87.92,5.59,1,5.99l-3.49-12.01c-3.27-3.02.85,6.63-.51,7.01-2.65-6.77-4.3-3.5-7.3-4.16-2.02-.45-4.05-5.14-6.09-4.79-6.16,4.64-2.13,11.6-2.62,17.95-2.28-.84-2.06-5.29-2.99-6.99Z"/>
      <path class="cls-8" d="M119.93,34.24c14.93-2.74,13.46,4.88,2.8,9.81l-7.55-6.57c-.53-2.02,3.38-2.99,4.74-3.24Z"/>
      <path class="cls-37" d="M233.19,90c1.25.59,7.98,5.6,7.98,6.5-5.56,5.1-9.12,7.73-10.98-1.5-.08-.4,1.2-4.12-1-5.99,1.59-.3,2.67.36,4,.99Z"/>
      <path class="cls-12" d="M136.19,70c-2.03,1.93,4.02,3.91,4.06,4.56l-6.06,13.44c.29-3.69,1.55-15-3-15,.33-2.02-.12-4.78,0-7,1.97.47,3.9,3.36,5,4Z"/>
      <path class="cls-25" d="M47.19,107c-.99-.37-3.02-.94-4-1l-.79-5.21,3.77-10.78c.56,5.1,3.26,12.23,1.01,16.99Z"/>
      <path class="cls-10" d="M7.19,96c1.49-1.57,7.61-9.82,10-7.99l-5,12.99c-3.96-1.53-3.35-1.48-5-5Z"/>
      <path class="cls-16" d="M81.19,39l-5.99,9.51c-.13.82,1.75.63,1.99.49-.28.05-.17,2.43-4.5,1.04-1.11-.36-1.84.68-1.49-1.52,2.68-3.23,5.86-8.53,9.99-9.52Z"/>
      <path class="cls-27" d="M133.19,37c6.22,1.83,15.04.67,20,4.99l-21-2.99c.3-.79.49-1.29,1-2Z"/>
      <path class="cls-28" d="M239.19,263c-2.43,1.11-7.59-5.4-7.65-6.51.45-6.67,15.54-4.13,1.14-14.47-1.88-24.51-19.22-38.43-24.21-64.79-2.71-14.6.18-30.73-14.2-39.87-.34-2.02,4.21-4.01,4.78-6.09.84-3.08-2.19-5.16-1.91-7.75.67-6.1,21.73-4.5,26.61-6.58,2.01-.43,1.19,1.93,2.44,3.06,5.74,2.11,3.28,3.07,2.9,8.5.93,30.73,22.67,76.73,26.49,107.52,1.09,5.25,5.59,4.15,6.47,6.65,1,2.86-1.19,5.82-.71,8.59.45,2.55,3.31,3.72,3.83,6.26s1.06,15.72,1.03,18.99c-.68,10.67-15.33,19.73-25.01,15.49,2.37-6.94,5.58-14.64,3-22,.27-.02,5.17-1.15,4.99-1.99-20.97,1.78,4.26-15.31-.11-21.9l-7.88-2.1,6.99,3.47c-2.09,6-6.36,9.79-8.99,15.52ZM212.18,140.01c-22.39-5.64-.74-8.18,1.51-13.03,2.91-6.29-6.28-6.43-10.5-5.97.88,2.23,9.84.91,8.99,4.48-.53,2.2-9.38,3.6-11.07,5.93-5.85,6.49,10.29,12.22,11.07,8.59Z"/>
      <path class="cls-33" d="M188.19,109c1.49.14,2.84.99,3,1l-.51,1,4.51.99-4.99,3.01h28.5c.92,0,6.25-2.25,6.49-2.01l1.01,7.01c-1.25-1.13-.43-3.49-2.44-3.06-4.88,2.08-25.94.48-26.61,6.58-.28,2.59,2.75,4.67,1.91,7.75-.57,2.07-5.12,4.06-4.78,6.09,14.37,9.13,11.48,25.27,14.2,39.87,4.97,26.32,22.34,40.31,24.21,64.79,14.4,10.34-.71,7.83-1.14,14.47.06,1.12,5.22,7.62,7.65,6.51-2.77,6.05-3.41,7.67,5,7,2.58,7.36-.63,15.06-3,22-4.26-.87-9.17-1.73-11.86-5.64,4.87-14.12,6.13-13.23-2.68-25.32-1.89-50.52-44.34-95.1-39.45-147.56-.24-1.82.33-1.61-2.01-1.48v16l-1.99-1.01c4.55,12-7.05,22.95-18.01,25.01,9.75-5.76,15.59-22.84,5.94-31.44-16.68-13.67-46.79-.24-65.94-4.56,5.17.34,9.79-.03,14.63-1.88l-.63-1.12c15.94-6.15,33.44-.34,50-1-3.9,1.91-7.72.71-11.99,1.01l15.32.07c1.26-.8,1.58-2.76,1.26-4.15-.53-2.33-2.57-1.2-2.58-2.92l14.64,3.95c2.26.32,2.23-.97,2.36-.96Z"/>
      <path class="cls-44" d="M165.19,152c-9.48,5.6-26.03,2.48-36.58,4.92l-2.42-1.91c3.42-.79,8.9-.82,11-4-5.56.15-24.86,5.8-25.97-1.54-.63-3.36-.67-24.67-.03-27.97.58-3.01,3.33-2.41,5-4.5,15.52-.31,42.15-7.82,54.94,3.56,9.65,8.6,3.82,25.68-5.94,31.44Z"/>
      <path class="cls-20" d="M105.19,116c2.88.07,6.93,1.08,11,1-1.68,2.08-4.42,1.49-5,4.5-.64,3.3-.6,24.61.03,27.97.92,4.9,6.28,3.4,9.97,3.53-64.35,19.84-58.33-38.24-16-37Z"/>
      <path class="cls-7" d="M163.19,81c.8,5.15,3.65,9.76,4.01,15,4.81-1.61-.56-12.7,2.49-13.99,6.43,13.27,9.84,2.34,14.41,1.43,1.68-.34,5.17,2.88,8.09.57.68,7.38,3.93,18.97,7,26-15.54,1.04-34.4-11.3-50-10,.3-6.36,3.01-14.5,6-20,3.59,1.05,5.05-.4,8,1Z"/>
      <path class="cls-33" d="M166.19,91c4.62-2.12-3.13-15.85-2-16.99,3.37-.34,4.09,4.03,6.07,5.42,4.28,2.99,12.73.63,17.92,2.57.98-1.98-3.07-2.83-3.99-3,2.06.11,4.41-1.49,7-2l.48,2.99,3.03-2.02,9.31,4.21,2.18,7.82c-.73-1.18-6.5-7.54-7.99-5.99.41,9.9,2.64,19.71,5.99,28.99-3.79.13-7.22,1.21-10.99.99.45-1.62,3.47-1.19,5.39-2.09,2.6-1.23.78-1.2.6-1.9-.16-.63-.79-1.32-1-2,3.31.33,1.45-.7,1.1-2.6-1.49-8.21-4.69-15.99-5.11-24.41-2.68-.53-2.1.93-2,3-2.92,2.31-6.41-.9-8.09-.57-4.57.91-7.98,11.84-14.41-1.43-3.05,1.29,2.32,12.38-2.49,13.99-.08-1.7-.52-3.38-1.01-5Z"/>
      <path class="cls-3" d="M22.18,266c-3.11-1.04-9.78-12.95-5.32-14.04l8.33.03-2.51-8.99c2.22,2.31,5.58,5.83,4.4,9.35s-7.98-.05-9.89,3.17l4.99,10.47Z"/>
      <path class="cls-23" d="M43.19,115c4.71,5.44.39,8.06-5.02,9.53l5.02,8.46c-1.35,1.23-8.05-6.05-8.01-8.54.05-3.73,7.02-1.69,8.59-4.43l-1.57-4.02c.34-.16.66-.88,1-1Z"/>
      <path class="cls-15" d="M69.19,56c1.75.12,37.86-7.27,28.63-3.88-13.87,5.84-28.54,6.5-43.12,8.89-1.99-2.39,12.61-4.4,14.49-5.01Z"/>
      <path class="cls-22" d="M100.19,71l.5.99c-2.86.88-7.26.44-9.79,1.23-2.33.73-3.36,4.27-7.31,4.76-3.75.47-5.85-1.69-8.08-1.74-.88-.02-5.57.63-7.33.76,4.37-4.12,10.51-.63,14.3-1.18,8.51-4.57,6.91-5.15,17.7-4.82Z"/>
      <path class="cls-46" d="M105.19,109c1.15,7.71,7.85,5.05,14,4l.63,1.12c-4.55,1.65-8.76,2.31-13.63,1.88-2.94-3.31-3.44-6.65-3-11.01-3.73-2.87-27.85,9.8-33,6.01l32.01-8c.7-1.84-.71-2.96-1.01-4-1.08-3.78-1.29-6.65-2-10,1.62-4.89-4.04-12.01.99-15,.34,11.8,3.26,23.33,5.01,35Z"/>
      <path class="cls-2" d="M217.19,78c4.24,1.47,3.12-.7,5-1-2.87,9.69-8.99.04-9.65-.08-2.23-.39-6.12,2.28-6.35,4.59-.32,3.18,3.59,7.58,1,10.49-1.02-1.34-2.69-8.18-3.18-9.82l-9.31-4.21-3.03,2.02-.48-2.99c7.65-1.51,8.19,3.09,11.34,2.8,6.41-2.68,6.16-7.81,14.66-1.8Z"/>
      <path class="cls-34" d="M99.19,89c.71,3.35.92,6.22,2,10,1.02,4.86-3.23,2.59-6,3l2.02-18c.96.02,1.8,4.1,1.99,4.99Z"/>
      <path class="cls-14" d="M46.19,82l-11.99,22c-1.16-5.53,7.64-18.41,10-23,1.26-.45,1.66.85,1.99,1Z"/>
      <path class="cls-43" d="M88.19,83c-1.52,3.96-3.53,7.39-5,11-3.26-1.03,4.81-18.26,7.99-19-.7,2.73-1.97,5.35-2.99,8Z"/>
      <path class="cls-42" d="M134.19,89c.09,8.04,7.47-13.02,7.96-14.55,3.99-2.26,6.62,1.89,9.53,2.56,2.37.55,1.07-1.08.51-2.02,2.16-.28,4.99.39,7,0l-1.49,2.02,5.47-2.02c.23,1.91-.28,4.18.01,6-2.95-1.4-4.41.05-8-1-.16-.05-.69-1.91-2.03-.55-3.05,2.21-5.76,14.62-3.97,18.55-.12.59.08,1.36,0,2-.44.04-.88.55-1,1-3.43-3.13-1.46-16.35-2.01-20.99-2.29-.57-1.64.42-2.29,1.26-3.93,5.09-7.03,10.83-11.21,15.73-1.48-2.24,1.32-6.26,1.51-7.99Z"/>
      <path class="cls-4" d="M188.19,109c-.08,3-15.62-3.13-16.99-2.99,0,1.72,2.05.59,2.58,2.92.32,1.39,0,3.36-1.26,4.15l-15.32-.07c5.34-.22,11.31,1.35,14.97-3.51-.04-3.31-21.02-5.8-23.98-8.5,10.18-4.06,29.09,6,40,8Z"/>
      <path class="cls-46" d="M152.19,75c.56.94,1.86,2.56-.51,2.02-2.91-.67-5.54-4.83-9.53-2.56-.63,1.91-8.38,24.04-7.96,13.55,0,0,6.07-13.44,6.07-13.44-.05-.66-6.09-2.64-4.06-4.56,6.18,3.59,11.18-.09,16,5Z"/>
      <path class="cls-41" d="M184.19,79c.92.17,4.98,1.01,3.99,3-5.19-1.94-13.64.42-17.92-2.57-1.98-1.39-2.71-5.76-6.07-5.42-1.13,1.14,6.62,14.87,2,16.99-1.96-5.22-3.57-10.33-3.01-16l-5.47,2.02,1.49-2.02c12.16-6.54,6.82,4.68,25,4Z"/>
      <path class="cls-32" d="M193.19,56c-7.41.01-15.61-.42-23-1,.6-2.9-1.44-1.82-3.17-2.28-2.13-.57-4.37-.96-6.47-1.59-8.32-4.25,30.45,4.35,32.64,4.87Z"/>
      <path class="cls-35" d="M112.18,39.01c-1.67,3.32-16.08,2.35-19.99,1.98l8.51-1.98h11.48Z"/>
      <path class="cls-24" d="M212.18,140.01c-.77,3.63-16.92-2.1-11.07-8.59,1.69-2.33,10.54-3.73,11.07-5.93.85-3.57-8.11-2.25-8.99-4.48,4.22-.46,13.4-.32,10.5,5.97-2.24,4.85-23.9,7.39-1.51,13.03Z"/>
      <path class="cls-30" d="M239.19,263c2.62-5.73,6.89-9.51,8.99-15.52l-6.99-3.47,7.88,2.1c4.37,6.59-20.86,23.68.11,21.9.18.84-4.73,1.97-4.99,1.99-8.41.67-7.77-.95-5-7Z"/>
      <path class="cls-26" d="M192.19,84c-.11-2.07-.68-3.53,2-3,.42,8.42,3.62,16.19,5.11,24.41.34,1.89,2.2,2.93-1.1,2.6-2.07-6.54-5.65-17.45-6-24Z"/>
      <path class="cls-36" d="M155.19,80c-2.91,4.82-4.81,12.39-6,18-2.04-2.63,1.76-22.9,6-18Z"/>
    </g>
  </g>
</svg>