<?xml version="1.0" encoding="UTF-8"?>
<svg id="Layer_2" data-name="Layer 2" xmlns="http://www.w3.org/2000/svg" viewBox="0 0 277.23 930.55">
  <defs>
    <style>
      .cls-1 {
        fill: #fefefe;
      }
    </style>
  </defs>
  <g id="Layer_1-2" data-name="Layer 1">
    <path class="cls-1" d="M21.69,198.62c-4.62,15.89-.52,32.74,0,49-4.16-1.42-6.58-3.88-9.51-6.99-4.94-1.6,3.04,19.12,10.51,18.99.49,6.19-1.14,13.11,1,19-9.43,4.82-12.93,14.38,0,16,.93,7.8-2.23,14.14,1,21.42C10.77,364.92,13.73,419.83,0,469.29c-.11,7.04,7.91,10.04,8.68,13.33-4.92,27.77,9.18,49.97,38,54,.72.3,3.83,4,6,4,4.8,48.29,19.79,97.27,18,146,3.58,42.93,25.15,79.22,27,121,4.8,24.93-9.52,44.67-7,69,4.07,22.79,3.1,30.52,30.06,31.44,3.92,18.28,9.21,25.18,28.94,21.56,9.42-.71,17.16-11.51,19-20,2.55-17.72-4.42-38.96-5.04-56.45-.49-13.92,5.08-30.27,5.09-43.12-6.76-27.78,22.47-77.39,23.94-108.42,4.4-24.98,1.37-40.48-1.98-65.49,0,0,19.98-102.51,19.98-102.51,3.31-3.01,6.49,1.49,8.99,3,1.35-14.7.25-30.27,2.02-45,6.49,3.31,14.75,3.24,21.99,3l1.83,13.29c-7.04,6.74-14.44,6.36-10.76,18.63l4.93.07v4.02c2.64.62,5.73-1.52,7.91-1.54,1.47-.01,2.22,1.46,4.29,1.37,5.88-.28,19.87-7.47,21.36-13.76,1.12-4.7,1.42-28.67-2.57-31.07l6.55-13.09c-25.58-44.5-37.3-99.96-47.31-149.68-.61-3.57,3.44-7.34-2.25-9.94-6.45-37,1.89-71.8,1.02-108.3-4.2-11.46-11.25-8.66-8.05-19.36-1.57-19.1-22.55-21.63-25.72-35.4-1.3-5.64,2.52-4.36,5.31-8.21,4.88-6.74.58-8.18.92-12.14,3.11-9.58,5.29-12.14-.18-22.68-2.96-19.22-10.61-35.01-13.72-54.28-1.03-5.17-6.13-10.65-8.03-15.97-1.56-4.38-1.88-14.37-6.55-16.46-1.62-.73-3.66-.14-4.75-.74-25.38-40.78-83.55-9.8-99.39,24.55-8.86,18-6.02,34.13-11.34,50.66-4.81,14.94-21.89,17.9-20.49,39.49.86,13.16,19.03,22.84,5.04,38.07-9.18,10-15.63,11.28-20.04,26.46Z"/>
  </g>
</svg>