<?xml version="1.0" encoding="UTF-8"?>
<svg id="Layer_2" data-name="Layer 2" xmlns="http://www.w3.org/2000/svg" viewBox="0 0 79 144.41">
  <defs>
    <style>
      .cls-1 {
        fill: #fcfcfc;
      }

      .cls-2 {
        fill: #080808;
      }

      .cls-3 {
        fill: #5e5e5e;
      }

      .cls-4 {
        fill: #090909;
      }

      .cls-5 {
        fill: #060606;
      }

      .cls-6 {
        fill: #171717;
      }

      .cls-7 {
        fill: #666;
      }

      .cls-8 {
        fill: #1a1a1a;
      }

      .cls-9 {
        fill: #696969;
      }

      .cls-10 {
        fill: #0a0a0a;
      }

      .cls-11 {
        fill: #151515;
      }

      .cls-12 {
        fill: #161616;
      }
    </style>
  </defs>
  <g id="Layer_1-2" data-name="Layer 1">
    <g>
      <path class="cls-5" d="M61,142.99c-16.37,4.72-31.22-2.43-29-20.99-11.33,1.06-27.94-2.82-29.05-16.47-.08-1.04-.61-3.82,1.04-3.53,2.05,9.24,11.58,12.02,19.77,13.74,4.2.88,9.63-1.74,9.26,4.26,9.44-6.94,22.07-3.03,32.98-3.99l-.99,6.98c-4.98,1.26-35.62-2.07-28.56,9.07,5.18,6.6,17,2.67,23.55,4.94l-16.01,1.51v3.49s16.01,0,16.01,0c0,.07,1.01.4,1,1Z"/>
      <path class="cls-4" d="M8.99,11c7.19,19.25,34.91,8.94,28.02-11,10.79,3.41,8.64,18.35,2.39,24.89-11.28,11.58-41.81,5.55-30.41-13.9Z"/>
      <path class="cls-2" d="M36.9,92.09l-1.37,10.94c-7.71,3.66-24.54-8.5-34.31-8.24l-1.22-11.8,36.9,9.1Z"/>
      <path class="cls-10" d="M65,35.99v1h-7.01c-1.2,9.94,4.66,2.78,8.01,7-8.33.75-19.52.79-24.83-6.65l2.33-5.37,1.95-.99c5.33,1.64,14.18,5.02,19.54,5.01Z"/>
      <path class="cls-11" d="M66,140.99l-1-7c3.08-1.13,13.99-7.98,6-10,2.88-1.71,3.59-3.91,4-7,10.79,2.96-2.98,21.32-9,24Z"/>
      <path class="cls-3" d="M75,116.99c-.41,3.09-1.12,5.29-4,7-3.29-.83-21.64-.37-26,0l20-1.01.99-6.98c-6.29.27-12.72-.39-19,0,1.05-1.65,3.79-1,5.48-1.02,6.97-.07,16.35-1.09,22.52,2.02Z"/>
      <path class="cls-12" d="M69,34.99c2.41-.81,4.06-3.43,6.99-2.99.1,6.22,1.31,12.08-6.99,10.99,1.45-2.44,1.46-5.54,0-8Z"/>
      <path class="cls-7" d="M65,133.99l1,7c-2.44,1.37-1.96,1.32-5,2-1.81-1.63-.76-3.72-1-6l-3-1c.74-.08,7.17-1.7,8-2Z"/>
      <path class="cls-9" d="M69,34.99c1.46,2.46,1.45,5.56,0,8-1.05.21-2.44.95-3,1-.31-.31-.62-.82-1-1v-7c.9,0,2.99-.66,4-1Z"/>
      <path class="cls-1" d="M45,123.99c8.96-.34,45.38-3.72,20,10-23.06,8.47-42.4-7.1-20-10Z"/>
      <path class="cls-6" d="M60,136.99c.15,1.62-.22,3.42,0,5h-16s0-3.49,0-3.49l16.01-1.51Z"/>
      <path class="cls-8" d="M65,36.99v6c-3.94-1.82-7.91,2.84-7.01-6h7.01Z"/>
    </g>
  </g>
</svg>