<?xml version="1.0" encoding="UTF-8"?>
<svg id="Layer_2" data-name="Layer 2" xmlns="http://www.w3.org/2000/svg" viewBox="0 0 277.23 930.56">
  <defs>
    <style>
      .cls-1 {
        fill: #946040;
      }

      .cls-2 {
        fill: #0f0d0c;
      }

      .cls-3 {
        fill: #e3eefe;
      }

      .cls-4 {
        fill: #3c2822;
      }

      .cls-5 {
        fill: #181818;
      }

      .cls-6 {
        fill: #b28355;
      }

      .cls-7 {
        fill: #141725;
      }

      .cls-8 {
        fill: #111727;
      }

      .cls-9 {
        fill: #997551;
      }

      .cls-10 {
        fill: #aab8cb;
      }

      .cls-11 {
        fill: #503528;
      }

      .cls-12 {
        fill: #030408;
      }

      .cls-13 {
        fill: #1d243c;
      }

      .cls-14 {
        fill: #1b2237;
      }

      .cls-15 {
        fill: #914c2c;
      }

      .cls-16 {
        fill: #354066;
      }

      .cls-17 {
        fill: #252525;
      }

      .cls-18 {
        fill: #1b0508;
      }

      .cls-19 {
        fill: #242840;
      }

      .cls-20 {
        fill: #493b32;
      }

      .cls-21 {
        fill: #21201f;
      }

      .cls-22 {
        fill: #543628;
      }

      .cls-23 {
        fill: #e53434;
      }

      .cls-24 {
        fill: #171e31;
      }

      .cls-25 {
        fill: #b3c1d4;
      }

      .cls-26 {
        fill: #0f111c;
      }

      .cls-27 {
        fill: #0f1525;
      }

      .cls-28 {
        fill: #0a0d15;
      }

      .cls-29 {
        fill: #7c232b;
      }

      .cls-30 {
        fill: #a3b2c6;
      }

      .cls-31 {
        fill: #62100f;
      }

      .cls-32 {
        fill: #030302;
      }

      .cls-33 {
        fill: #1c2239;
      }

      .cls-34 {
        fill: #c2c3c4;
      }

      .cls-35 {
        fill: #323e65;
      }

      .cls-36 {
        fill: #080808;
      }

      .cls-37 {
        fill: #871d1d;
      }

      .cls-38 {
        fill: #1f1917;
      }

      .cls-39 {
        fill: #272727;
      }

      .cls-40 {
        fill: #2e395c;
      }

      .cls-41 {
        fill: #0c0c0c;
      }

      .cls-42 {
        fill: #eaf2fd;
      }

      .cls-43 {
        fill: #1d243b;
      }

      .cls-44 {
        fill: #412f28;
      }

      .cls-45 {
        fill: #925335;
      }

      .cls-46 {
        fill: #2f3a5f;
      }

      .cls-47 {
        fill: #374065;
      }

      .cls-48 {
        fill: #1d0508;
      }

      .cls-49 {
        fill: #0b111e;
      }

      .cls-50 {
        fill: #3b4670;
      }

      .cls-51 {
        fill: #120b07;
      }

      .cls-52 {
        fill: #090909;
      }

      .cls-53 {
        fill: #ac6743;
      }

      .cls-54 {
        fill: #212943;
      }

      .cls-55 {
        fill: #222942;
      }

      .cls-56 {
        fill: #bac7d9;
      }

      .cls-57 {
        fill: #b3bfd0;
      }

      .cls-58 {
        fill: #915233;
      }

      .cls-59 {
        fill: #70422c;
      }

      .cls-60 {
        fill: #060607;
      }

      .cls-61 {
        fill: #aa7652;
      }

      .cls-62 {
        fill: #2b314e;
      }

      .cls-63 {
        fill: #212740;
      }

      .cls-64 {
        fill: #1f1817;
      }

      .cls-65 {
        fill: #0f131e;
      }

      .cls-66 {
        fill: #914526;
      }

      .cls-67 {
        fill: #5c321f;
      }

      .cls-68 {
        fill: #6b1313;
      }

      .cls-69 {
        fill: #131a2c;
      }

      .cls-70 {
        fill: #9cacc1;
      }

      .cls-71 {
        fill: #1c1c1c;
      }

      .cls-72 {
        fill: #771818;
      }

      .cls-73 {
        fill: #903f20;
      }

      .cls-74 {
        fill: #0f111d;
      }

      .cls-75 {
        fill: #160304;
      }

      .cls-76 {
        fill: #353f65;
      }

      .cls-77 {
        fill: #945f3f;
      }

      .cls-78 {
        fill: #151c2f;
      }

      .cls-79 {
        fill: #f5f6f6;
      }

      .cls-80 {
        fill: #2c3250;
      }

      .cls-81 {
        fill: #b22729;
      }

      .cls-82 {
        fill: #eaf2fc;
      }

      .cls-83 {
        fill: #bc292a;
      }

      .cls-84 {
        fill: #b0714b;
      }

      .cls-85 {
        fill: #0f121c;
      }

      .cls-86 {
        fill: #333d62;
      }

      .cls-87 {
        fill: #370c0c;
      }

      .cls-88 {
        fill: #1d243a;
      }

      .cls-89 {
        fill: #4b2c1f;
      }

      .cls-90 {
        fill: #1f1f1f;
      }

      .cls-91 {
        fill: #3b0d0c;
      }

      .cls-92 {
        fill: #de3335;
      }

      .cls-93 {
        fill: #cbd6e5;
      }

      .cls-94 {
        fill: #1c0406;
      }

      .cls-95 {
        fill: #2a3556;
      }

      .cls-96 {
        fill: #b8c7db;
      }

      .cls-97 {
        fill: #0e101b;
      }

      .cls-98 {
        fill: #f7fafe;
      }

      .cls-99 {
        fill: #232b44;
      }

      .cls-100 {
        fill: #a5b3c7;
      }

      .cls-101 {
        fill: #191b2d;
      }

      .cls-102 {
        fill: #7a1918;
      }

      .cls-103 {
        fill: #2a3555;
      }

      .cls-104 {
        fill: #192034;
      }

      .cls-105 {
        fill: #904526;
      }

      .cls-106 {
        fill: #965b3c;
      }

      .cls-107 {
        fill: #851c1c;
      }

      .cls-108 {
        fill: #161c2f;
      }

      .cls-109 {
        fill: #1b2238;
      }

      .cls-110 {
        fill: #6c6c6c;
      }

      .cls-111 {
        fill: #53392d;
      }

      .cls-112 {
        fill: #845416;
      }

      .cls-113 {
        fill: #644637;
      }

      .cls-114 {
        fill: #282f4b;
      }

      .cls-115 {
        fill: #291e1b;
      }

      .cls-116 {
        fill: #eef5fe;
      }

      .cls-117 {
        fill: #7d1a19;
      }

      .cls-118 {
        fill: #c62c2d;
      }

      .cls-119 {
        fill: #181d2e;
      }

      .cls-120 {
        fill: #3c2f2a;
      }

      .cls-121 {
        fill: #b37e55;
      }

      .cls-122 {
        fill: #222;
      }

      .cls-123 {
        fill: #3a2f2a;
      }

      .cls-124 {
        fill: #871e1e;
      }

      .cls-125 {
        fill: #bbc8da;
      }

      .cls-126 {
        fill: #a3b2c8;
      }

      .cls-127 {
        fill: #0f0e0e;
      }

      .cls-128 {
        fill: #13192a;
      }

      .cls-129 {
        fill: #ece9e9;
      }

      .cls-130 {
        fill: #080b13;
      }

      .cls-131 {
        fill: #590c0d;
      }

      .cls-132 {
        fill: #0f121d;
      }

      .cls-133 {
        fill: #2b324e;
      }

      .cls-134 {
        fill: #4e090b;
      }

      .cls-135 {
        fill: #510909;
      }

      .cls-136 {
        fill: #170305;
      }

      .cls-137 {
        fill: #2b2b2b;
      }

      .cls-138 {
        fill: #281f1c;
      }

      .cls-139 {
        fill: #050609;
      }

      .cls-140 {
        fill: #080203;
      }

      .cls-141 {
        fill: #3c4976;
      }

      .cls-142 {
        fill: #616161;
      }

      .cls-143 {
        fill: #624233;
      }

      .cls-144 {
        fill: #0f0c0c;
      }

      .cls-145 {
        fill: #1a1b1a;
      }

      .cls-146 {
        fill: #7c1919;
      }

      .cls-147 {
        fill: #0f0f0f;
      }

      .cls-148 {
        fill: #1f263d;
      }

      .cls-149 {
        fill: #181615;
      }

      .cls-150 {
        fill: #6d1414;
      }

      .cls-151 {
        fill: #1a1a1a;
      }

      .cls-152 {
        fill: #e2eefc;
      }

      .cls-153 {
        fill: #140e0c;
      }

      .cls-154 {
        fill: #41342e;
      }

      .cls-155 {
        fill: #2d3352;
      }

      .cls-156 {
        fill: #374269;
      }

      .cls-157 {
        fill: #c42d2e;
      }

      .cls-158 {
        fill: #8f3b1c;
      }

      .cls-159 {
        fill: #ebf3fe;
      }

      .cls-160 {
        fill: #0b0b0b;
      }

      .cls-161 {
        fill: #ecf4fc;
      }

      .cls-162 {
        fill: #452f25;
      }

      .cls-163 {
        fill: #771717;
      }

      .cls-164 {
        fill: #19223a;
      }

      .cls-165 {
        fill: #553729;
      }

      .cls-166 {
        fill: #d8e4f2;
      }

      .cls-167 {
        fill: #a46240;
      }

      .cls-168 {
        fill: #4c598e;
      }

      .cls-169 {
        fill: #261e1c;
      }

      .cls-170 {
        fill: #3c4974;
      }

      .cls-171 {
        fill: #3a0d0c;
      }

      .cls-172 {
        fill: #3a302b;
      }

      .cls-173 {
        fill: #101626;
      }

      .cls-174 {
        fill: #221917;
      }

      .cls-175 {
        fill: #9dadc3;
      }

      .cls-176 {
        fill: #becada;
      }

      .cls-177 {
        fill: #212942;
      }

      .cls-178 {
        fill: #791818;
      }

      .cls-179 {
        fill: #1b2136;
      }

      .cls-180 {
        fill: #871e1d;
      }

      .cls-181 {
        fill: #f7fafd;
      }

      .cls-182 {
        fill: #220404;
      }

      .cls-183 {
        fill: #3c0d0d;
      }

      .cls-184 {
        fill: #3b0d0d;
      }

      .cls-185 {
        fill: #f6f6f5;
      }

      .cls-186 {
        fill: #07070b;
      }

      .cls-187 {
        fill: #0e1422;
      }

      .cls-188 {
        fill: #945a3a;
      }

      .cls-189 {
        fill: #3a271b;
      }

      .cls-190 {
        fill: #080506;
      }

      .cls-191 {
        fill: #0f0a09;
      }

      .cls-192 {
        fill: #b1b4b5;
      }

      .cls-193 {
        fill: #10121d;
      }

      .cls-194 {
        fill: #1c2237;
      }

      .cls-195 {
        fill: #1a2136;
      }

      .cls-196 {
        fill: #a9acac;
      }

      .cls-197 {
        fill: #0a0a0a;
      }

      .cls-198 {
        fill: #7e4a30;
      }

      .cls-199 {
        fill: #adbccf;
      }

      .cls-200 {
        fill: #0b0d15;
      }

      .cls-201 {
        fill: #a3b3c8;
      }

      .cls-202 {
        fill: #a0aec1;
      }

      .cls-203 {
        fill: #111421;
      }

      .cls-204 {
        fill: #0c0e18;
      }

      .cls-205 {
        fill: #6c1313;
      }

      .cls-206 {
        fill: #38446d;
      }

      .cls-207 {
        fill: #513d31;
      }

      .cls-208 {
        fill: #edf4fd;
      }

      .cls-209 {
        fill: #a66743;
      }

      .cls-210 {
        fill: #fafafa;
      }

      .cls-211 {
        fill: #191f34;
      }

      .cls-212 {
        fill: #54372a;
      }

      .cls-213 {
        fill: #999c9d;
      }

      .cls-214 {
        fill: #29314d;
      }

      .cls-215 {
        fill: #151825;
      }

      .cls-216 {
        fill: #090c12;
      }

      .cls-217 {
        fill: #7e1a1a;
      }

      .cls-218 {
        fill: #831c1b;
      }

      .cls-219 {
        fill: #29304d;
      }

      .cls-220 {
        fill: #b7c5d6;
      }

      .cls-221 {
        fill: #a8b6c9;
      }

      .cls-222 {
        fill: #8f391a;
      }

      .cls-223 {
        fill: #676767;
      }

      .cls-224 {
        fill: #0c121f;
      }

      .cls-225 {
        fill: #f9fafa;
      }

      .cls-226 {
        fill: #020305;
      }

      .cls-227 {
        fill: #211917;
      }

      .cls-228 {
        fill: #751716;
      }

      .cls-229 {
        fill: #fdfdfd;
      }

      .cls-230 {
        fill: #2f3757;
      }

      .cls-231 {
        fill: #a8623e;
      }

      .cls-232 {
        fill: #161616;
      }

      .cls-233 {
        fill: #0a101c;
      }

      .cls-234 {
        fill: #13192b;
      }

      .cls-235 {
        fill: #a2b1c5;
      }

      .cls-236 {
        fill: #380d0c;
      }

      .cls-237 {
        fill: #090504;
      }

      .cls-238 {
        fill: #1e253c;
      }
    </style>
  </defs>
  <g id="Layer_1-2" data-name="Layer 1">
    <g>
      <g>
        <path class="cls-12" d="M21.69,198.63c4.41-15.18,10.86-16.46,20.04-26.46,13.99-15.23-4.18-24.91-5.04-38.07-1.41-21.59,15.67-24.54,20.49-39.49,5.33-16.53,2.48-32.66,11.34-50.66,15.85-34.33,74.01-65.35,99.4-24.55,9.58-.76,9.18,10.35,11.3,17.2,1.9,5.32,7,10.8,8.03,15.97,3.12,19.27,10.75,35.05,13.72,54.28,5.42,10.46,3.32,13.1.18,22.68-.34,3.95,3.96,5.4-.92,12.14-21.15,14.84,28.79,26.24,19.6,50.24.59,2.27,7.07,6.17,8.86,12.73-.97.27-.92,1.16-1,2-8.89-18.47-28.5-16.96-36.48-38.02-.63-1.68-3.05-7-.53-7.97,2.04,14.33,14.02,24.28,26.47,30.02,6.88-20.74-21.81-24.37-24.47-42.03-2.54,1.58-4.21,4.63-5.99,7l-1-1c12.15-14.02-3.41-24.69-12.99-33.99.34,7.29.57,11.7-8.07,11.43-4.92,7.86,12.22,20.48,5.05,35.56-2.63.31.35-11.81-1.02-14.28-4.73-4.96-8.8-14.46-8.98-21.71l-7.63,7.85s-6.36,13.15-6.36,13.15c-9.02,12.02-4.69,41.29,6.02,51.58,8.98,9.06,21.97,15,32.98,21.42,1.29,2.58,5.48,4.19,4.5,6.99-7.81-8.75-19.25-11.48-28.49-17.99-.3,33.44,27.46,23.17,31.99,52-4.27.37-3.62-8.92-5.01-10-2.21.63-2,3.55-3.15,5.34-5.71,7.41-16.14,15.27.16,15.66v1c-3.81-.05-7.27.28-10.99-1,1.02,10.17,15.02,4.62,18.99-1,3.5,6.12,5.27,12.45,13.99,11.01.72,5.14-11.7,1.85-14.33,2.08l-1.67-7.08c-1.33-.4-2.18.78-2.99,1-2.01.53-4.44.52-6,2-15.6-1.18-10.84-12.47-3-21,2.35-3.29,7.5-6.52,5.36-11.73-16.92-11.89-24.62-17.66-25.85-40.28-17.42-12.08-23.47-36.03-17.51-55.99,3.75-13.34,13.47-20.49,18.82-30.67,1.41-2.71,2.65-8.99,4.11-10.64,7.88-2.56,10.46-12.28,8.07-19.69-7.89-15.82-.58-26.29-12.2-42.3-4.42-9.44-.12-13.62-13.58-17.42-22.25-6.3-27.09,18.43-37.2,32.23l12.5,5.47c1.9,2.55-2.76,3.16-3.52,4.02l-10.68-5.88c-1.79-.21-1.84,1.54-2.32,1.88-1.5,1.06-3.31,2.18-4,3.99,4.36-1.15,8.13-.26,12,2.01.13.95-.09,2.02,0,3-.38,0-1.49.71-2,1-1.32-3.42-2.6-.66-4.41-.91-.99-.14.12-2.81-2.08-2.1l-.52,3.01h-4.99c-13.16-5.95-5.8,3.6-4,10,8.85,31.1-13.28,31.36,4,65,.13,3.08,1.2,5.9,1,9-.84,1.62-1.49,5.42-.52,7.01.92,2.41,9.3,2.3,8.53,4.48-.44,1.26-6.56,1.36-8.01,1.51-3.63-2.99-5.68-.43-8,1-61.31,35.58,19.13,47.64-22,69,.01-.32.03-.68,0-1,8.92-9.1,5.72-16.55-3-24-1.73-3.97-7.38-12.16-3.01-16-1.13,13.68,15.46,19.24,13.02,33,12.22-13.12-21.14-25.5-9.01-43,5.93-10.23,16.65-13.6,24-21.99-15.22-3.12-25.57-15.27-24-31.01,2.99-17.33,16.91-29.41,11.47-47.97-17.23-24.92,1.92-38.34,22.53-49.54-6.71,9.12-23.77,17.48-25.93,29.08.16,13.85,11.4,22.54,6.95,39.42,4.37-4.33,6.81-12.58,7.02-18.55.09-2.71-2.62-7.71-.04-9.44,13.11,31.04-29.12,43.02-16.99,69.99,4.97,6.73,11.95,15.58,21,16.99l-3.99-5.99c.21-.24,3.14,2.46,3.99,3,.36.23.13,1.55,1.99,1,6.74-13.35-7.01-25.8-6-39-7.13,8.61-6.47,20.94,1,29.52-.65.18-2.32.61-2.99.48-19.38-31.35,22.6-38.89,0-84.99,30.6-8.58,21.89-47.14,59-52.52-.06-3.86-8.1,1.07-6.99-3.47,8.29-2.56,14.59-1.49,16.95,7.53l3.95.36c4.56-14.33-7.67-20.07-20.11-15.6s-32.02,22.29-42.28,31.72c-.81.74-2.67,3.34-3.52.98,18.54-22.74,25.29-25.73,51.24-37.26,1.14-.52,8.22-4.15,6.76-5.73C102.85-12.65,58.09,43.1,61.51,89.86c-2.34,13.67-17.79,22.03-21.72,35.44-3.09,16.52,8.54,22.14,9.89,37.33-6.48,18.65-13.68,14.18-21.99,27.51,9.62-4.67,18.93-7.8,21.99-19.51,2.64,3.24-3.44,12.04-5.77,14.01-8.94,7.53-10.29-.81-14.23,14.99-.89,3.35-1.5,6.63-1,10-1.85,6.84,5.78,15.55,1.49,23.01l-7.49-23.01-1-11ZM184.68,53.63c1.12-1.31-6.44-12.04-7.23-14.26-1.69-4.78-.64-10.64-4.26-14.73-2.62,2.38-.65,5.6-2.43,8.57-1.59,2.66-7.94,2.78-7.07,4.91,6.43,5.9,12.73,12.21,20.98,15.51ZM187.68,67.62c4.21-2.12-23.94-24.85-25.97-19.5,5.46,10.81,14,17.15,25.97,19.5ZM197.67,101.62c-.63-26.92-8.74-25.45-28.98-36.99-2.25,2.78,9.52,13.47,10.99,15.5,8.61,11.92,5.49,27.52,16.03,39.97.51.6,4.36,5.61,5.49,3.54,4.12-12.89-8.78-19.94-9.51-32.01l5.98,9.99ZM193.7,144.63c16.49-11.69-.69-15.94-5.86-24.65-7.03-11.83-2.65-36.35-18.14-42.35-1.81,11.12,8.33,18.27,6.98,28.99l-1.98-1.99c-1.26,17.21,21.4,23.46,19,39.99ZM27.68,216.62l-2.6-12.66.62-11.33c-2.79,7.45-3.48,17.95,1.98,23.99Z"/>
        <path class="cls-139" d="M55.69,185.63c.12-.02.76-1.44,1.99-1,3.56,14.29-.75,31.19,4.01,45,2.05,6.34,7.99,14.68,8,21-1.16,6.62-4.78,14.3-11,18-9.73,21.83-29.53,10.85-34.96,19.42l5.94,5.08c-1.45,2.16-3.82,1.37-5.98,1.5-12.93-1.62-9.43-11.18,0-16,7.31-2.39,19.52-6.28,19.99-16-6.62,1.97-11.75,2.75-10.48,10.99-4.39-4.05-5.79-8.67-2.51-13.98-12.32,2.16-18.47-6.32-19.97-17.56-.19-1.58-.17-1.64,1.46-1.45,6.62,10.02,27.66,12.32,29.17-2.66-.68-5.48-7.92-24.01-12.65-28.35-.2-2.66-.37-1.98,0-5,7.81,15.01,25.19,37.63,7,51.99,5.97-.74,10.74-3.34,14.5-7.98,1.3,2-3.83,6.06-5.8,7.2-5.51,3.2-13.71,2.03-13.7,10.79,13.2-9.53,32.14-4.76,26.99-27.99l.5-.98c3.67,4.22,6.79,12.72,6.5,17.97,1.62,1.16,1.8.03,2-1.46,1.6-11.93-8.33-19.65-8.01-31.52-1.68.54-1.23,6.85-.99,7.99h-1c.85-9.43,1.25-24.73,1-34-4.53.54-.95-8.13-2-11ZM36.68,249.64c-11.03,2.38-14.06,1.68-23-4,4.47,8.95,16.2,12.57,23,4ZM45.69,264.63c-1.81,11.54-22.06,14.73-27.07,20.43-2.32,3.74.02,6.89,4.06,6.56-4.4-16.82,22.46-4.22,28.46-17.04,1.66-3.54.68-3.74,3.55-7.95,2.48-3.63,4.7-5.87,5.01-10.99v5.98s1.97,0,1.97,0v-11.99s-5.98,7.5-5.98,7.5c-3.94,3.91-7.5,2.49-10.01,7.49ZM35.68,253.64c-6.7,2.74-13.52,3.7-18.99-2.01,1.97,8.05,14.57,7.88,18.99,2.01Z"/>
        <path class="cls-226" d="M162.69,168.63c-.39-4.23-.93-11.39,2.99-13.99-5.05,13.28.71,28.47,14.54,31.92,2.76,1.77,6.62,7.77,10.47,6.58-3.22-4.36-5.89-8.27-6.99-13.51l1-3c5.49,24.52,41.78,24.85,37.01,41.99.06-3.98-2.83-7.01-6-8.99,1.97,6.98,2.09,12.16-5.05,15.56l2.17,4.29,2.41-.84c5.67-6.61,12.84-12.37,12.46-22,.08-.84.03-1.73,1-2,1.57,5.73.23,6.8,0,12-1.72,1.17-1.94,3.53-3,5-2.43,3.37-10.7,8.86-11.49,10.97,5.88,17.51-6.11,36.24-20.51,46.03-.39-.63-.64-1.35-1-2,10.07-7.64,17.16-15.35,15.01-28.99l2.98,8.99c5.62-13.6,3.09-23.98-5.99-34.99-.29-5.01,3.15,2.3,5.36,1.92,9.72-6.72,2.74-18.97-7.36-19.91,1.76,3.71,8.16,11.26,4.01,14.98-1.73-26.63-41.71-23.21-44.01-49.99Z"/>
        <path class="cls-166" d="M22.69,259.63c2.33.43,5.52-.32,8,.01-3.29,5.31-1.88,9.93,2.51,13.98-1.26-8.24,3.86-9.03,10.48-10.99-.47,9.72-12.67,13.6-19.99,16-2.14-5.89-.51-12.81-1-19Z"/>
        <path class="cls-100" d="M22.69,209.63c-2.54,12.54.53,26.42,2,39-1.86-.19-1.95-.64-3-1-.52-16.26-4.62-33.11,0-49l1,11Z"/>
        <path class="cls-99" d="M204.69,221.63c9.07,11.01,11.61,21.4,5.99,34.99l-2.98-8.99c.93,10.69-.6,15.75-8.01,22.99-7.25,2.46,1.48-16.67-8.99-25,1.88,4.89,2.93,7.63,2.99,13-2.56-4.53-3.8-10.1-8.5-13.1-1.48-.95-4.86-.35-2.5,2.1-13.94-8.19-22.11-15.13-21.99-33,9.24,6.52,20.69,9.25,28.49,17.99.97-2.81-3.21-4.42-4.5-6.99-.04-.09,1.15-.71.56-1.91-1.28-2.62-10.58-7.64-8.56-10.08l9.56-2.97-1.56-8.04c3.78-.58,6.16.84,8.98,2.99.77-.87-3.15-5.1-3.99-6,5.72,3.6,15.84,8.96,9.07,16.36.27,1.58,4.86,4.34,5.93,5.64Z"/>
        <path class="cls-49" d="M75.69,37.63C103.24-10.61,172.36,1.89,145.93,12.37c-25.71,11.64-28.52,11.91-48.24,33.26l-17.51-8.07-4.49.07Z"/>
        <path class="cls-88" d="M145.69,152.63c.43-.58,6.29-5.82,6.99-4.99-5,20.55-.7,45.36,18.52,56.99,5.29,2.3-4.12-7.06-4.48-7.52-10.27-13.19-14.18-25.79-9.02-42.46,6.75,1.25,2.17,10.01,4.99,14,1.53,15.66,17.27,20.94,27,31-1.15-.73-10.54-6.43-10.99-5.99l3.99,5.51-1.93,2.89,3.89,6.11c-2.32,3.3-6.76,1.82-9.75,3.21-1.76.82-2.13,3.3-2.77,3.35-3.21.26-12.31-10.3-15.43-12.07.89,6.08,6.89,8.47,9.99,13-21.89-9.79-33.56-42.53-21-63Z"/>
        <path class="cls-24" d="M61.69,80.63c6.51-1.8,5.55,5.32,11,4,11.64,22.98,9.24,26.72-1,49l-1.5-2c-3.25,2.23-3.83,5.34-4.5,9-2.71,5.29-2.98-3.26-5-4.5-1.53-.93-7.55-1.57-10-2.5.17-3.82-5.85-8.06-6.58-10.95-.42-1.68,1.4-4.01-.42-5.05,7.93-11.72,20.42-21.47,18-37Z"/>
        <path class="cls-104" d="M186.69,155.63c1.78-2.36,3.45-5.42,5.99-7,2.66,17.65,31.35,21.28,24.47,42.03-12.45-5.74-24.44-15.69-26.47-30.02-2.52.97-.1,6.3.53,7.97,7.98,21.06,27.59,19.55,36.48,38.02-.42,4.75-.65,6.69-3,11l-2-1c-.68-11.4-16.88-15.35-24.93-21.57-9.35-6.62-23.02-30.76-11.07-39.43ZM221.34,200.97c-2.89-3.38-8.14-6.06-12.65-6.33,3.62,5.63,11.72,7.53,14.02,13.98,4.67.67-.19-6.26-1.37-7.65Z"/>
        <path class="cls-55" d="M67.69,154.63c3.08,12.93,11.26,19.98,24,23.01-7.35,8.39-18.06,11.76-24,21.99,1.21-4.52,1.29-5.4-4.06-4.42-1.85-9.26-3.92-.36-3.94,3.42l-2.01-14c-1.23-.44-1.87.97-1.99,1-1.62.32-4.07-.71-4.86,1.64l-.14,13.36c-.79-5.08-.69-11.67-3-16,4.21-5.13,4.25-11.62,3.99-17.99-3.46-.74-1.46,2.43-1.99,3.99-1.76,5.17-5.57,12.3-11,14,1.46-2.94,5.09-4.29,6.02-7.49l-3.02-.51c5.63-5.67,5.48-10.21,9.04-15.96l1.92-.02c1.97,5.13,9.07,6.79,14.04,4.97-.5-1.53-.56-3.6-1.01-4.99h2c.07-1.99-.07-4,0-6Z"/>
        <path class="cls-224" d="M94.69,49.63c.85,2.36,2.71-.24,3.52-.98,10.26-9.42,29.62-27.16,42.28-31.72s24.66,1.27,20.11,15.6l-3.95-.36c-2.36-9.02-8.66-10.08-16.95-7.53-1.11,4.54,6.93-.39,6.99,3.47-21.25,6.36-21.13,6.96-32.99,26.52-2.86-5.21-1.11,9.07-17,4.99-.59-.56,5.04-5.43,2-6.99.96-1,1.67-2.63,3-3.51-3.1-.58-5.93,4.83-10,5.51,1.26-2.11.29-1.88,3-5Z"/>
        <path class="cls-108" d="M168.69,164.63c0,1.08-.65,3.27.99,2.99,7.16-15.2-9.95-27.56-5.05-35.56,8.64.28,8.41-4.14,8.07-11.43,42,35.34-5.35,29.62,2.99,61.99-6.74-3.02-8.4-11.12-9.83-17.67l2.84-.32Z"/>
        <path class="cls-173" d="M97.69,45.63c-7.19,15.1-29.13,19.69-25,39-5.45,1.32-4.49-5.8-11-4,2.64-19.03,3.36-26.74,14-43l4.49-.07,17.51,8.07Z"/>
        <path class="cls-130" d="M145.69,152.63l6.36-13.15,7.63-7.85c.17,7.22,4.26,16.77,8.98,21.71.73,3.33.03,7.88.03,11.29l-2.84.32c1.44,6.56,3.09,14.65,9.83,17.67-3.94-11.78,2.12-20.27,10.01-27.99l1,1c-7.8,6.14-4.33,13.06-2,21l-1,3c-1.67-5.1-3.64-10.3-3.01-16-11.79,6.96,6.4,33.14,6.01,24,.84,1.57,3.16,3.57,3.99,5.51-3.85,1.19-7.71-4.81-10.47-6.58-13.83-3.47-19.58-18.63-14.54-31.92-3.92,2.61-3.38,9.77-2.99,13.99-2.81-3.98,1.76-12.75-4.99-14-5.16,16.68-1.25,29.28,9.02,42.46.36.46,9.77,9.83,4.48,7.52-19.23-11.64-23.52-36.43-18.52-56.99-.7-.82-6.56,4.42-6.99,4.99Z"/>
        <path class="cls-128" d="M98.69,52.63c3.04,1.56-2.59,6.43-2,6.99,15.91,4.07,14.13-10.21,17-4.99-1.46,2.21-2.51,4.77-4,7,1.37-6.84-8.51,8.84-14.4,6.95l-1.43-2.23c6.08-17.65-5.52,1.44-5.17,7.27l9.99-2.5-8.98,7.02,1.98,1.48c-1.36.64-2.22,1.42-4.01,1.01,5.73,15.31,10.19,25.67,4.01,41.99v-7.99s-3,.99-3,.99c3.9-8.76,4.05-16.92.99-25.99-2.58,1.73.13,6.73.04,9.44-.21,5.97-2.64,14.22-7.02,18.55,4.67-38.25-27.24-30.99,15.99-64.99Z"/>
        <path class="cls-27" d="M197.67,101.62l-5.98-9.99c.73,12.07,13.63,19.12,9.51,32.01-1.14,2.07-4.98-2.94-5.49-3.54-10.54-12.46-7.41-28.06-16.03-39.97-1.47-2.03-13.24-12.72-10.99-15.5,20.27,11.54,28.35,10.11,28.98,36.99Z"/>
        <path class="cls-238" d="M43.69,117.63c1.82,1.04,0,3.37.42,5.05.73,2.89,6.75,7.13,6.58,10.95-4.06-1.54-3.24-7.67-9.99-7.99v10.99c2.07-.1.58-9.44,3.48-7.99,4.34,2.17,5.49,18.46,17.37,15.13.95.57,1.92,11.71,2.45,14.1,1.83,2.63,2.15,4.68,2.7,7.75-4.97,1.82-12.07.16-14.04-4.97l-1.92.02c-.04.83-.67,1.33-1.04,1.96-1.57-15.74-18.55-29.32-6-45Z"/>
        <path class="cls-234" d="M193.7,144.63c2.4-16.53-20.26-22.78-19-39.99l1.98,1.99c1.35-10.72-8.8-17.87-6.98-28.99,15.49,6,11.11,30.52,18.14,42.35,5.18,8.71,22.36,12.96,5.86,24.65Z"/>
        <path class="cls-152" d="M22.69,209.63l7.49,23.01c4.3-7.46-3.34-16.16-1.49-23.01,9.06,12.67,23.99,40.82-4,39-1.47-12.58-4.54-26.46-2-39Z"/>
        <path class="cls-219" d="M48.69,187.63l1,29c-.77-1.53-5.02-7.64-6.99-6l-1.02,11-3.98-4.99c.31,1.86.48,4.24.99,5.99l-10-18c.13-9.93,14.3-13.5,19-20,1.32.7.74,2.1,1,3Z"/>
        <path class="cls-214" d="M59.69,198.63c.02-3.8,2.09-12.66,3.94-3.42,5.36-.99,5.27-.1,4.06,4.42-1.68,6.29-4.36,5.12-1.72,13.22,3.27,10.02,20.32,20.89,10.73,29.78,2.44-13.76-14.15-19.32-13.02-33-6.21,8.6,10,22.07,9,31.99-6.2-.07-6.77-8.84-10.99-11.99-3.19-9.49-2.76-20.87-2-31Z"/>
        <path class="cls-195" d="M88.69,115.63l2.99-.99c1.77,14.66-12.37,24.58-8.99,39.99l-2.99-11.99-1.02,9.99-5.98-6v13c-9.29-18.57,9.49-29.39,15.99-44Z"/>
        <path class="cls-206" d="M189.69,199.63c.84.9,4.76,5.13,3.99,6-2.83-2.15-5.21-3.58-8.98-2.99l1.56,8.04-9.56,2.97c-2.77,3.07,11.46,8.51,8,11.99-10.1-6.43-23.91-10.57-27.99-23,3.11,1.77,12.21,12.33,15.43,12.07.64-.05,1.01-2.53,2.77-3.35,2.99-1.39,7.43.09,9.75-3.21l-3.89-6.11,1.93-2.89-3.99-5.51c.45-.43,9.84,5.27,10.99,5.99Z"/>
        <path class="cls-35" d="M65.69,160.63c-3.03-2.54-2.5-14.94-4.14-16.86-11.88,3.33-13.03-12.96-17.37-15.13-2.91-1.46-1.41,7.88-3.48,7.99v-10.99c6.75.33,5.92,6.45,9.99,7.99,2.45.93,8.47,1.57,10,2.5,2.03,1.23,2.29,9.79,5,4.5l1.99-1c.04,7,.05,14.02,0,21.01h-2Z"/>
        <path class="cls-233" d="M184.68,53.63c-8.25-3.31-14.55-9.62-20.98-15.51-.87-2.13,5.48-2.25,7.07-4.91,1.78-2.97-.19-6.2,2.43-8.57,3.62,4.09,2.57,9.95,4.26,14.73.79,2.23,8.35,12.95,7.23,14.26Z"/>
        <path class="cls-49" d="M187.68,67.62c-11.97-2.36-20.51-8.69-25.97-19.5,1.9-5.41,30.21,17.38,25.97,19.5Z"/>
        <path class="cls-203" d="M192.69,266.63c-1.6,5.57-3.22,3.57-4.51,6.03.64,7.23-6.85,4.7-11.51,3.49-3.8-2.63,6.08-11.4,7.86-14.18,1.15-1.78.94-4.71,3.15-5.34,1.39,1.08.74,10.37,5.01,10Z"/>
        <path class="cls-164" d="M91.69,79.63l-1.98-1.48,8.98-7.02-9.99,2.5c-.35-5.85,11.24-24.9,5.17-7.27l1.43,2.23c5.91,1.89,15.76-13.79,14.4-6.95-6.33,9.44-6.8,12.73-18,18Z"/>
        <path class="cls-46" d="M82.69,154.63c-.41,4.16,4.28,7.4,5,11,1.29,12.14-11.09-7.87-12.01-11l-1.99,6c-.22-.36-.82-.64-1-1v-13s5.99,6,5.99,6l1.02-9.99,2.99,11.99Z"/>
        <path class="cls-179" d="M96.69,171.63c-7.19-7.24-10.38-21.39-7-31,1.94,9.82,10.62,20.5,7,31Z"/>
        <path class="cls-216" d="M193.69,258.63c-.06-5.37-1.11-8.11-2.99-13,10.48,8.34,1.73,27.44,8.99,25-3.16,3.11-7.09,5.72-10,9-.97-1.62-3.43-.98-5-1v-1c4.55-.54,2.95-3.94,3.49-4.97,1.3-2.46,2.92-.46,4.51-6.03-.25-3.14,1.08-4.27,1-8Z"/>
        <path class="cls-195" d="M73.69,160.63l1.99-6c.9,3.09,13.31,23.15,12.01,11h1c.43,3.34,4.02,5,5.98,7.51l-.98.49c-.85-.54-3.78-3.24-3.99-3l3.99,5.99c-8.26-1.4-15.84-9.26-20-15.99Z"/>
        <path class="cls-200" d="M89.69,140.63c-3.38,9.61-.19,23.76,7,31-.34.99-1.08,1.86-1.01,3-1.85.55-1.63-.77-1.99-1l.98-.49c-1.96-2.51-5.55-4.17-5.98-7.51l1.99-.48c-7.47-8.58-8.13-20.9-1-29.52.23,1.57-.28,3.54.01,5Z"/>
        <path class="cls-65" d="M49.69,170.63c.53-1.56-1.47-4.73,1.99-3.99,2.56,19.55-10.68,21.38-21.99,32.99,3.94-15.79,5.29-7.46,14.23-14.99,2.34-1.97,8.41-10.78,5.77-14.01Z"/>
        <path class="cls-7" d="M69.69,249.63c-.58-5.74-6.02-14.11-8-20,4.22,3.16,4.8,11.93,10.99,11.99.13-5.97-3.73-10.8-5.99-15.99,8.72,7.45,11.92,14.9,3,24Z"/>
        <path class="cls-170" d="M38.69,184.63l-10.99,5.51c2.98-6.68,9.43-9.11,13.99-13.51l3.02.51c-.92,3.2-4.56,4.54-6.02,7.49Z"/>
        <path class="cls-50" d="M193.69,258.63c.04,3.11-.57,3.73-1,6-2.44-6.34-4.64-12.4-10-17-2.36-2.45,1.02-3.05,2.5-2.1,4.7,3.01,5.94,8.57,8.5,13.1Z"/>
        <path class="cls-133" d="M184.69,278.63c1.57.02,4.03-.62,5,1-4.5,3.91-15.72,6.35-15.99-2,3.73,1.28,7.18.95,10.99,1Z"/>
        <path class="cls-54" d="M71.69,133.63c-1.63,4.31-2.42,8.71-4,13-.04-2.33.04-4.67-.01-7l-1.99,1c.67-3.66,1.26-6.76,4.5-9l1.5,2Z"/>
        <path class="cls-101" d="M27.68,216.62c-5.46-6.05-4.77-16.52-1.98-23.99l-.62,11.33,2.6,12.66Z"/>
        <path class="cls-230" d="M56.69,231.63c.25,8.84,5.12,15.5-1.45,23.05-6.26,6.73-17.66,5.99-24.54,11.95,0-8.75,8.19-7.58,13.7-10.79,1.97-1.15,7.1-5.2,5.8-7.2-3.76,4.64-8.54,7.24-14.5,7.98,9.94-7.65,5.84-12.28,9.04-22.41.58-7.09-3.38-19.17,6.96-11.58,1.78,8.39.45,18.26-5.99,24.51-.29,2.82,1.25.82,2.02.01,6.41-6.83,7.63-17.74,5.98-26.52l1.99-2.99,1.01,13.99Z"/>
        <path class="cls-47" d="M54.69,266.63c-2.87,4.21-1.89,4.41-3.55,7.95-5.99,12.82-32.85.22-28.46,17.04-4.05.33-6.38-2.82-4.06-6.56,5.02-5.71,25.25-8.89,27.07-20.43,3.68-1.52,10.84-5.8,9,2Z"/>
        <path class="cls-114" d="M55.69,185.63c1.05,2.85-2.53,11.56,2,11,.32,9.79-.3,25.04-1,35l-1.01-13.99-1.99,2.99c-2.34-10.49-3.47-22.26-2.86-33.36.79-2.35,3.24-1.32,4.86-1.64Z"/>
        <path class="cls-168" d="M49.69,216.63c.69,1.37,1.67,4.43,2,6-12.1-8.73-4.32,8.22-8,14-1.28-7.01-5.83-12.83-5.99-19.99l3.98,4.99,1.02-11c1.97-1.64,6.22,4.48,6.99,6Z"/>
        <path class="cls-215" d="M45.69,264.63c2.5-5.01,6.07-3.58,10.01-7.49l5.98-7.5v11.99s-1.99,0-1.99,0v-5.98c-.3,5.12-2.52,7.36-5,10.99,1.84-7.8-5.32-3.52-9-2Z"/>
        <path class="cls-62" d="M57.69,230.63c-.24-1.15-.69-7.45.99-7.99-.32,11.87,9.61,19.59,8.01,31.52-.2,1.49-.38,2.62-2,1.46.18-7.72-5.7-17.39-7-24.99Z"/>
        <path class="cls-80" d="M36.68,249.64c-6.8,8.57-18.53,4.95-23-4,8.93,5.68,12,6.37,23,4Z"/>
        <path class="cls-19" d="M35.68,253.64c-4.42,5.87-17.01,6.04-18.99-2.01,5.47,5.71,12.29,4.75,18.99,2.01Z"/>
        <path class="cls-119" d="M60.69,240.63l-2.5-2.98-.5.98c-.18-2.09-1.1-5.12-1-8h1c.43,2.07,2.26,7.22,3,10Z"/>
        <path class="cls-204" d="M180.69,191.63c10.84,6.86,25.7,11.12,26.01,26.99,4.15-3.74-2.24-11.25-4.01-14.98,10.1.94,17.08,13.19,7.36,19.91-2.21.37-5.65-6.93-5.36-1.92-1.07-1.3-5.66-4.06-5.93-5.64,9.09-10.42-13.51-16.87-18.07-24.36Z"/>
        <path class="cls-211" d="M183.69,179.63c11.44,26.65-17.02-7.23-3.01-16-.63,5.7,1.34,10.9,3.01,16Z"/>
        <path class="cls-204" d="M224.69,217.63c-2.47,4.54-6.7,6.8-9.46,11l-2.41.84-2.17-4.29c7.14-3.4,7.02-8.58,5.05-15.56,3.17,1.98,6.06,5.02,6,8.99l.99-1.99,2,1Z"/>
        <path class="cls-95" d="M221.34,200.97c1.18,1.38,6.04,8.31,1.37,7.65-2.3-6.45-10.4-8.35-14.02-13.98,4.52.27,9.76,2.95,12.65,6.33Z"/>
        <path class="cls-28" d="M50.69,200.63c1.02,15.81,9.04,33.08-2.98,46.52-.76.81-2.31,2.81-2.02-.01,7.92-7.83,8.31-20.85,3.99-30.51,0,0-1-29-1-29,1.08,3.7,1.62,9.07,2,13Z"/>
      </g>
      <g>
        <path class="cls-175" d="M72.69,333.63c-1-.33-2.04-.5-2.99-1v2c-.14-.98-1.34-2.84-1.51-3.99-5.59,4.58-1.37,7.27-1.48,10.4-8.44,24.17-18.23,58.1-18.03,83.59-1.71,1.04-1.83,2.71-2.02,4.48-2.17,19.81-2.51,40.61-2.97,60.53l-3.32-.03-.69,5.02c-.16-.84-1.72-2.35-1-4-1.78-2.39-11.42-1.65-15-3-5.31-.18-9.78-5.35-15-5-.77-3.29-8.79-6.3-8.68-13.33,13.73-49.43,10.77-104.4,24.68-153.25-3.23-7.25-.07-13.67-1-21.42.61.08,1.38.04,2,0,.8,5.05-.77,11.03-.73,15.72.02,1.65,1.91,2.64,1.72,5.65-14.03,49.18-11.36,104.02-24.7,154,4.39,11.52,17.59,15.33,28.71,16.64,2.81.33,9.84,2.43,10.86-.64.77-48.03,5.27-100.12,22.98-145.01-5.91-11,7.27-4.04-2.56-32.13-1.62-9.94-3.27-21.73-4.31-31.73-.2-1.89,1.2-4.04-1.97-3.48.98-1.17,1.55-3.22,3-5,1.32,14.49,5.48,28.62,5.23,43.27l8.77,21.73Z"/>
        <path class="cls-235" d="M228.69,216.63c-1.41,32.54-6.31,63.34-1.02,96.3,5.69,2.6,1.64,6.37,2.25,9.94,4.29,24.92,13.32,60.87,20.5,85.53,6.41,22,15.34,44.33,26.81,64.15l-6.55,13.09h-2c-12.4,11.02-32.11,11.54-46.99,6l-1.01,12c.37-13.83,1.64-29.44,1-43l2.92,29.33c16.21,6.25,44.04,2.5,50.06-16.75-26.55-46.33-33.32-99.47-46.81-150.34l.8-7.22-3.04-.57c.17-16.92-3.34-34.07-2.98-51,.25-11.77,2.57-25.34,3.77-37.26.16-1.61,1.15-4.14-.72-5.2,1.06-1.47,1.28-3.83,3-5Z"/>
        <path class="cls-98" d="M225.69,221.63c1.87,1.05.88,3.59.72,5.2-1.19,11.92-3.52,25.49-3.77,37.26-.36,16.93,3.15,34.08,2.98,51l3.04.57-.8,7.22c13.49,50.87,20.26,104.01,46.81,150.34-4.54,14.53-20.84,19.69-34.98,19.42-1.96-17.45-5.09-35-9.49-52.01-8.42-36.62-33.26-71.78-28.49-109.54.28-4.8-4.96-6.49-1.02-6.45,3.91,1.78,7.07.04,10.57,1.93,2.26,6.98-2.57,5.25-3.56,8.06,4.35.61,6.88-4.78,5.84-8.28-1.47-4.93-10.17-3.06-13.81-4.75-2.02-3.58,8.46-10.33,6.96-11.96-3.13,1.85-5.99,3.86-7.99,7-7.79-7.08-4.71-15.69-2.9-24.9,2.12.39,12.6-1.4,10.9-4.1-8.04,1.21-9.52-3.33-12.99-9.01,14.4-9.8,26.39-28.52,20.5-46.03.8-2.11,9.07-7.6,11.5-10.97Z"/>
        <path class="cls-125" d="M62.69,265.63c8.81,22.79,36.1,8.85,53.99,11,.32,4.71-.5,9.36-.99,14-27.98-.33-53.03,52.86-10,48,6.07,2.07,13.98.5,20,0,13.55-1.12,38.07-.18,38.07-19.5-.46-17.09-21.35-30.03-37.07-27.5.7-4.64,2.65-9.14,1.99-14.01h10c-.19-1.12-3.62-1.59-4.99-1.99,13.07-.55,25.23,5.56,38,0-1.52,9.53,5.88,9.77,13,10l-9,40c-29.31,23.31-69.79,19.11-103,8l-8.77-21.73c.25-14.65-3.91-28.78-5.23-43.27,1.13-1.39,3.3-2.15,4-3Z"/>
        <path class="cls-159" d="M119.69,203.63c-.59,20.41-.06,40.63-2,61l-51-1c-.47-.64-1.05-1.09-1-2,1.22-2.1,3.92-8.92,4-11,41.11-21.3-39.28-33.49,22-69,8.54,4.1,16.47,6.7,26.06,7.44l1.94,14.56Z"/>
        <path class="cls-116" d="M140.69,188.63c2.71,8.86,10.22,18.86,17.51,23.99-.06,40.85,40.68,32.72,20.49,52.01l-2.99-4,1,2.98c-14.77,6.52-31.38-.31-47.01,1.02-1.04-25.05,3-49.07-1-74.99l12-1.01Z"/>
        <path class="cls-176" d="M187.69,283.63c.82-.22,1.67-1.39,2.99-1l1.67,7.08,10.33.92c-2.32.67-3.92,1.49-6.9,1.1-1.81,9.21-4.88,17.81,2.9,24.9-3.54,3.68-1.62,5.59,2,8-1.87-.02-1.67.35-.97,1.26,4.83,5.92-1.45,18.23,2.46,29.75,11.73,44.88,34.71,89.37,37.51,136.99-2.8-.05-13.99-.94-15.08-2.67l-2.92-29.33c-1.6-34.02-12.64-70.89-30-100-2.88-10.14-7.04-20.98-5.95-31.52-1.64-8.01-2.32-21.39-1.81-29.73.28-4.63,3.69-10.75,3.76-15.75Z"/>
        <path class="cls-208" d="M120.69,200.63c-.26-3.7.05-7.33-1-10.99h8c-1.01,2.84.83,6.21,1,7.99.65,8.81-1.08,18.65,1.03,27.45,0,0-2.89,37.96-2.89,37.96l2.85,1.58c.06,2.31-.15,4.65.06,6.95,14.21,1.05,28.74,3.19,42.94,1.05-.22.5-.96,2.63-1,3-12.77,5.56-24.93-.55-38,0-2.5-.74-5.27,1.23-5.01-4-2.76-.53-1.82.81-2.05,2.89-4.17-.05-8.13,2.07-6.94-3.89,3.17-22.93,2.24-46.93,1-70Z"/>
        <path class="cls-208" d="M106.69,162.63c8.48,4.7,19.87,3.87,29.41,2.9,1.82-.15,2.92-2.36,2.59,1.1-2.04,20.77,8.44,20.59-10.01,20.01l-.98-8v8c-2.67,0-5.35,0-8.01,0l-1.5-18.01-.5,18.01c-7.64-.44-14.96-2.11-21.99-5.01-.18-1.81,2.77-.86,3.99-.99,1.45-.15,7.56-.25,8.01-1.51.77-2.18-7.61-2.07-8.53-4.48-2.12-4.75,2.36-11.54,7.52-12.01Z"/>
        <path class="cls-181" d="M178.69,264.63c-1.45,2.03-5.23,6.24-6,8-14.2,2.14-28.73,0-42.94-1.05-.2-2.3,0-4.64-.06-6.95,15.62-1.33,32.24,5.5,47.01-1.02l-1-2.98,2.99,4Z"/>
        <path class="cls-70" d="M187.69,283.63c-.07,4.99-3.47,11.12-3.76,15.75-.51,8.35.17,21.72,1.81,29.73-1.09,10.54,3.07,21.38,5.95,31.52-1.29-2.17-4.3-5.3-6-8,1.77-.82.45-3.31.18-4.66-2.73-12.78-5.32-24.57-3.19-37.34-3.98,4.06-2.68,12.08-4.99,17-.04-1,.04-2.01-.01-3-.15-.19-1.55.72-1.99,1l9-40c-.97-.12-2.06.14-3,0,1.56-1.48,3.99-1.47,6-2Z"/>
        <path class="cls-10" d="M119.69,186.63c2.66,0,5.34,0,8.01,0v-8s.99,8,.99,8c2.5-.07,5.04.09,7.56,0,1.92-.07,4.01,1.03,3.45-2,.15.77.77,3.24,1,4l-12,1.01c1.55,2.62.8,5.27,1,7.99h-1c-.16-1.78-2.01-5.15-1-8h-8c1.05,3.67.74,7.31,1,11-1.29.5-.96,1.89-1,3l-1.94-14.56c-9.59-.74-17.52-3.34-26.06-7.44,2.32-1.43,4.37-3.99,8-1-1.23.13-4.17-.83-3.99.99,7.63,3.09,15.7,5,23.99,5.01Z"/>
        <path class="cls-161" d="M111.69,157.63c7.76-1.18,10.16,3.96,13.5,3.94.44,0,8.09-2.25,8.48-2.46,2.35-1.22,2.51-5.19,3.66-5.52l3.36,3.04c-.85,2.65-.38,7.55-4.44,7.04-9.84,1.49-19.99.49-29.56-2.04v-1c.92-.43,2.92-2.68,5-3Z"/>
        <path class="cls-202" d="M106.69,161.63c6.53,1.75,28.81,5.55,33,0-.22,1.27-.96,4.45-1,5,.33-3.46-.77-1.25-2.59-1.09-9.52.97-20.96,1.78-29.41-2.91v-1Z"/>
        <path class="cls-220" d="M105.69,160.63c.3-.12.73.12,1,0v2c-2.21-.32-6.19,3.44-7,5,.76-2.43-2.98-11.74-.01-11.99l5.36,5.88c.39.02.49-.83.66-.89Z"/>
        <path class="cls-210" d="M69.69,334.63c2.53,16.01-7.02,32.55-11.5,48-3.53,12.93-4.59,26.55-9.5,39,.45-24.22,9.91-57.61,18.03-80.59.11-3.13-4.11-5.82,1.48-10.4.17,1.15,1.37,3.01,1.49,3.99Z"/>
        <path class="cls-79" d="M46.69,472.63c-1.65,1.05-1,3.79-1.02,5.48-.22,13.16-.02,26.38.02,39.52-5.99-5.4-6.18-20.58-5.31-28.02l3.32.03c.46-19.92.8-40.72,2.97-60.53.19-1.77.31-3.44,2.02-4.48-.03,15.91-1.61,31.84-2,48Z"/>
        <path class="cls-225" d="M185.69,352.63c-6.98-11.08-7.42-11.28-8-25,2.31-4.92,1.01-12.94,4.99-17-2.14,12.78.46,24.57,3.19,37.34.27,1.35,1.59,3.83-.18,4.66Z"/>
        <path class="cls-3" d="M54.69,275.63c4.89,13.38-1.97,28.76-4.12,40.51.16,2.46,3.21,1.53,3,3.8-5.62,11.11-6.87,15.01-4.82,27.21-5.02,45.68-19.26,92.61-18.07,139.49-11.12-1.31-24.32-5.11-28.71-16.64,13.34-49.98,10.67-104.83,24.7-154,.19-3.01-1.7-3.99-1.72-5.65-.05-4.69,1.52-10.67.73-15.72,1.67-.11,2.86.21,3.98-1.5l-5.94-5.08c1-6.02,22.47-1.37,30.96-12.42ZM44.68,331.63l-3.49-11.13c.71-2.99,12.85-8.84,6.99-14.86,1.92,12.9-20.05,7.6-3.51,25.99Z"/>
        <path class="cls-96" d="M55.69,273.63c3.17-.56,1.77,1.6,1.97,3.48,1.04,10,2.7,21.79,4.31,31.73,2.39,10.13,6.77,17.19.69,27.38,1.84,6.55,3.25,2.75-.68,9.2-13.96,44.86-20.51,93.67-20.43,140.56-1.02,3.08-8.04.97-10.86.64-1.19-46.88,13.06-93.81,18.08-139.49-2.06-12.16-.78-16.16,4.81-27.21.21-2.26-2.84-1.33-3-3.8,2.14-11.75,9.01-27.08,4.11-40.51.26-.31.4-1.28,1-2Z"/>
        <path class="cls-42" d="M66.69,263.63c9.36,11.25,35.68,5.58,50,8.01-.56-2.87,1.19-5.37,1-8.01h3c-.88,13.28-1.82,1.43-4.12,11.88-16.98.09-45.53,12.35-53.88-9.88.78-.94,2.47-3.09,3-4-.05.91.53,1.36,1,2Z"/>
        <path class="cls-221" d="M198.69,316.63c2-3.14,4.86-5.15,7.99-7,1.5,1.63-8.98,8.38-6.96,11.96,3.65,1.69,12.34-.18,13.81,4.75,1.04,3.5-1.49,8.89-5.84,8.28.99-2.8,5.83-1.09,3.56-8.06-3.49-1.89-6.66-.15-10.57-1.93-3.62-2.41-5.54-4.33-2-8Z"/>
        <path class="cls-116" d="M125.69,338.63c-2.45-15.47-.4-31.41,1-47,38.86-2.22,59.76,49.45-1,47Z"/>
        <path class="cls-159" d="M115.69,290.63c-1.77,15.92-1.8,31.91-1.99,48.01-14.02-.36-33.96,3.34-30.76-17.26,2.15-15.75,16.79-29.9,32.76-30.74Z"/>
        <path class="cls-82" d="M117.69,290.63h7.01c.6,5.01-1.35,11.74-2.01,16.5,0,0,0,21.5,0,21.5h.99c.17-1.82-.7-8.86,1.01-10,.13,6.68-.59,13.46,1,20-6.02.5-13.93,2.07-20,0,2.66-.05,5.35.04,8.01,0,.06-12.79,1.83-35.51,3.99-48.01Z"/>
        <path class="cls-30" d="M119.69,270.63c-1.19,5.96,2.77,3.84,6.94,3.89.23-2.08-.71-3.42,2.05-2.89-.26,5.23,2.51,3.26,5.01,4,1.38.41,4.81.88,4.99,1.99h-10c.29,8.2-3.03,15.73-2.99,24.01-4.09-6.43,7.54-28.6-5.89-24.88-1.54,6.96-2.89,20.09-4.11,27.88-2.58-9.02,1.95-18.67.99-28h-11.99c2.19-.31,11.38-.79,11.88-1.12.89-1.03.34-5.69,3.12-4.88Z"/>
        <path class="cls-98" d="M117.69,264.63c-.22,2.18-1.5,4.55-1,7.01-14.37-2.44-40.56,3.26-50-8.01l51,1Z"/>
        <path class="cls-126" d="M120.69,263.63h-3c3.06-20.75-.4-43.05,3-63,1.46,20.87,1.42,42.07,0,63Z"/>
        <path class="cls-201" d="M129.69,264.63l-2.85-1.58,2.89-37.96c-2.12-8.8-.38-18.63-1.03-27.45h1c1.82,24.31-.64,43.99,0,67Z"/>
        <path class="cls-93" d="M119.69,186.63c-.66,0-1.34.04-2,0l.5-18.01,1.5,18.01Z"/>
        <path class="cls-125" d="M105.69,160.63c-1.61-1.41-8.01-5.87-5-8.54,11.26-1.2,2.77,7.29,11,5.54-2.78.41-4.02,3.35-6,3Z"/>
        <path class="cls-199" d="M44.68,331.63c-16.54-18.42,5.41-13.07,3.51-25.99,5.86,6.02-6.28,11.87-6.99,14.86l3.49,11.13Z"/>
        <path class="cls-25" d="M125.69,301.63c-1.09,6.98.27,13.11-2.04,19.42,0,0,.03,7.57.03,7.57h-.99c-.09-7.57-.47-24.81,2-31.99l1,5Z"/>
        <path class="cls-57" d="M115.69,304.63l-2,28c.38-10.46.31-20.71,1-31l1,3Z"/>
        <path class="cls-56" d="M124.69,292.63v-2s-7,0-7,0c.34-2.2,1.57-13.43,2.11-13.88.79-.66,6.45-.82,6.47,1.92-.3,3.76.45,10.79-1.58,13.96Z"/>
      </g>
      <g>
        <path class="cls-158" d="M270.69,485.63c3.99,2.4,3.69,26.37,2.57,31.07-1.5,6.29-15.48,13.48-21.36,13.76-2.07.1-2.83-1.38-4.29-1.37-2.18.02-5.27,2.16-7.91,1.54v-4.02s-4.93-.07-4.93-.07c-3.68-12.27,3.71-11.88,10.76-18.63l-1.83-13.29c.66-.02,1.34.05,2,0,2.53,7.49.94,15.41,6.12,21.92l2.91-1.61c.38-7.05-1.45-14.82,1.96-21.31l.02,24.99,5.83-5.7.15-12.3c6.72,26.24-10.5,16.48-10.5,27.98,5.78-2.8,16.7-5.11,18.85-12.15,1.77-7.97,1.47-23.49-2.34-30.84h2Z"/>
        <path class="cls-222" d="M10.69,482.63c-3.14,14.38.09,27.06,8.45,39.05,4.77,5.05,14.81,7.15,20.06,11.94,1.83-7.91-13.73-12.98-15.97-18.03-1.31-2.94-.8-7.99-1.53-10.97l1.24-.75,2.26,8.76,1.49-8c.92,3.57.34,9,4,10.99-.09-3.43-2.61-7.88.01-11,1.26,5.3.31,12.99,7.99,15,4.12-9.2-3.63-19.65.01-29-.72,1.65.84,3.16,1,4,1.41,7.37-.22,17.24,6,23-.75,6.38,1.86,12.24,1,19-28.86-4.04-42.9-26.24-38-54,.63.11,1.48-.16,2,0Z"/>
        <path class="cls-188" d="M166.69,70.63v11.99c-1.98-.27-1.39-3.59-2.54-5-8.98-5.48-15.89-3.89-25.81-2.83l-1.57,2.22,2.91,3.62c-2.91,1.53-3.12,5.19-3.99,8,.53.19,1.99-1.43,2.99-1-.53,2.85,7.9,3.89,9.52,4,7.68.79,11.37-4.46,18.34-3.13l.63-1.89c2.23,3.59,8.08,12.18.5,13.01,0-.77.33-2.16-.48-1.98-11.97,1.88-29.81,6.33-30.52,20.98-16.29,4.29-14.31,2.67-29-3,2.56,0,2.98-1.12,3.04-3.44.2-7.95-7.32-15.53-13.77-19.33-1.71-1.01-2.56-2.42-2.27.77-1.8-6.4-9.16-15.95,4-10,.83.37,1.76,1.73,3.23,2.23,7.43,2.54,5.38-.31,8.77-2.23,2.5-2.26,3.49.61,5.99,0,.69-.49.29-5.19,1.01-6,.77-.87,5.42-1.48,3.52-4.02l-12.5-5.47c10.11-13.8,14.95-38.53,37.2-32.23,13.45,3.81,9.15,7.99,13.58,17.42,3.64,7.78,5.66,6.83,7.2,17.3ZM121.69,107.63c-.54-.38-.78-1.96-1.69-2.06-2.19.15-5.09,1.1-5.36,3.56-.53,4.85,3.09,2.36,4.99,3,1.14.38,2.07,2.01,3.77,2.31,1.44.25,8.69.08,9.19-1.48,1.26-3.96-4.1-20.49-1.9-26.34l-1.99,1.01c.44-2.84-2.96-1.79-4.99-3l-2.01,23Z"/>
        <path class="cls-106" d="M96.69,103.63c.72,3.92,1.42,7.6,1.13,11.86.46.72,5.42,1.16,6.39.91,1.28-.33-1.1-2.25,2.47-.77,6.09,20.01,19.98,23.88,32,6,8.57,2.98,14.84-4.3,16,8-5.86,7.95-25.4,21.01-35.5,20.05-7.48-.71-22.69-16.83-25.5-24.05,1.68-7.59,4.2-13.81,3-22Z"/>
        <path class="cls-73" d="M171.69,95.63c2.39,7.42-.19,17.11-8.07,19.69-1.46,1.65-2.7,7.93-4.11,10.64-5.08,9.78-13.08,15.21-17.82,27.68.95-3.14-4.22-2.24-5.34-1.84-2.24.81-2.06,4.36-3.67,5.33-.34.21-7.27,2.29-7.67,2.31-7.77-3.86-4.3-4.33-14.71-3.74-.2-7.74-7.95-5.16-9.19-6.99-.9-2.43-1.01-8.08-2.38-11.6-.43-.79-5.4-7.76-7.05-5.48.25-2.42,1.63-4.34,2-6,2.81,7.22,18.02,23.34,25.5,24.05,10.1.96,29.64-12.1,35.5-20.05,4.69-6.36,7.39-13.96,11-21-.1.94-.66,4.28.99,3.99.54-3.55,10.13-13.48,1.01-11.99.04-.32,0-.67,0-1,2.34-.13,3.87-1.63,4-4Z"/>
        <path class="cls-209" d="M107.69,115.63c-.29-.11-.72.12-1,0-3.58-1.48-1.2.44-2.47.77-.97.25-5.93-.19-6.39-.91.24-7.56-1.61-14.66-3.13-21.86-.28-3.2.56-1.78,2.27-.77,6.45,3.8,13.97,11.38,13.77,19.33-.06,2.32-.48,3.44-3.04,3.44Z"/>
        <path class="cls-202" d="M99.69,141.63c.51,1.9,1.17,6.69,1.43,7.08,1.24,1.83,8.98-.75,9.19,6.99,16.54-1.9,7.23,7.44,22.38,1.43,1.61-.97,1.43-4.52,3.67-5.33,4.51-1.14,6.77-.4,4.34,4.84l-3.36-3.04c-1.15.33-1.31,4.3-3.66,5.52-.39.2-8.04,2.45-8.48,2.46-3.34.03-5.74-5.12-13.5-3.94-8.23,1.75.26-6.74-11-5.54-3.01,2.67,3.39,7.13,5,8.54-.16.06-.26.92-.66.89l-5.36-5.88c-1.61-.3-1.03,1.97-.99,2.99-1.22-1.32-1.37-3.29-2-5,2.5-3.39-.76-8.65,3-12Z"/>
        <path class="cls-198" d="M168.69,88.63l-1.5-2.01-.63,1.89c-2.29-.55-2.7-.53-4.87.12-.23-.66-.86-1.38-1-2-.24-1.11.55-1.69-.65-3.07-3-3.43-15.98-6.08-18.35.07-1.58.69-4.58,2.16-4,4-.63.17-1.76,1.33-1.99,1,.87-2.81,1.08-6.46,3.99-8,1.78-.94,12.17-4.13,14.17-4.33,3.1-.31,5.52,1.79,7.83.33,4.29-.21,2.25,5.2,4.99,5.99v-11.99c.89,5.98.64,12.2,2.01,18Z"/>
        <path class="cls-185" d="M99.69,141.63c-3.76,3.35-.5,8.61-3,12-3.41-5.98-10.91-34.35,2.05-16.52,1.21,2.22.56,3.06.95,4.52Z"/>
        <path class="cls-59" d="M117.69,77.63c-1.51,4.02,1.32,8.12-5,5,1.01-7.11-3.48-6.26-8-9,.48-.34.53-2.1,2.32-1.88l10.68,5.88Z"/>
        <path class="cls-112" d="M98.69,83.63h4.99s.52-3.01.52-3.01c2.2-.72,1.09,1.96,2.08,2.1,1.81.26,3.09-2.51,4.41.91-3.39,1.92-1.34,4.77-8.77,2.23-1.46-.5-2.4-1.86-3.23-2.23Z"/>
        <path class="cls-89" d="M112.69,79.63c-3.86-2.27-7.64-3.16-12-2.01.69-1.81,2.5-2.93,4-3.99,3.04,2.54,7.3,1.06,8,6Z"/>
        <path class="cls-105" d="M22.69,487.63c6.72,1.91,6.22,11.24,8,17-2.62,3.12-.1,7.57-.01,11-3.66-1.99-3.08-7.42-4-10.99l-1.49,8-2.26-8.76-1.24.75c-5.85-8.95-.44-8.28-1-17.01h2Z"/>
        <path class="cls-45" d="M38.69,490.63c-3.64,9.35,4.11,19.79-.01,29-10.03-3.15-6.63-16.5-9.99-24,3.06,1.84,3.89,5.4,7.86,2.84l.14-8.84c.74.2,1.82-.35,2,1Z"/>
        <path class="cls-167" d="M22.69,487.63h-2c1.09,6.38-3.93,14.24-11,13-.81-5.6.4-12.38,1-18,3.84,1.18,7.91,3.95,12,5Z"/>
        <path class="cls-53" d="M36.69,489.63l-.14,8.84c-3.97,2.55-4.8-1-7.86-2.84-1.08-3.36-1.79-5.95-5-8,4.07,1.01,9.16.99,13,2Z"/>
        <path class="cls-15" d="M261.69,490.63c6.95,3.86,1.5,17.21,4.84,24.3-1,2.97-4.12,3.52-5.84,4.7,6.35-5.92,2.65-11.7,1.99-18.99l-.15,12.3-5.83,5.7-.02-24.99-1.99,4.99v-5c.37-.1,6.04-2.55,7-3Z"/>
        <path class="cls-1" d="M254.69,493.63c0,7.03-.02,14.29.03,21.31l-2.91,1.61c-5.18-6.51-3.59-14.43-6.12-21.92,2.02-.16,7.51-.61,9-1Z"/>
        <path class="cls-61" d="M270.69,490.63c.08,3.57-3.19,3.17-6,3-.28-1.26-1.86-2.42-3-3,2.24-1.03,4.79-3.69,7-5,.38,1.81,1.54,3.21,2,5Z"/>
        <path class="cls-77" d="M270.69,490.63c1.36,5.31,1.94,20.59.34,25.84-2.15,7.04-13.07,9.35-18.85,12.15-1.41-7.16,11.86-7.86,14.35-13.69-2.12-6.17-.61-15.73-1.84-21.3,2.81.17,6.08.57,6-3Z"/>
        <path class="cls-58" d="M21.69,504.63c.73,2.98.23,8.02,1.53,10.97,2.24,5.05,17.8,10.12,15.97,18.03-20.07-12.74-21.06-6.48-29.51-32.99,3.02.89,7.37-1.66,9-4-.4,2.76,2.67,6.66,3,8Z"/>
        <path class="cls-231" d="M167.69,99.63c-1.55,10.71-7.3,20.95-13,30-1.16-12.3-7.43-5.02-16-8,.45-.61,3.2-3.84,3-3.99-1.75-.14-3.36.56-5,.99.71-14.65,18.56-19.1,30.52-20.98.81-.18.48,1.21.48,1.98Z"/>
        <path class="cls-29" d="M107.69,115.63c14.97,7.24,17.45,5.83,34,2.01-7.9,11.21-17.66,23.34-30.43,8.92,0,0-4.57-10.93-4.57-10.93.28.12.71-.11,1,0ZM128.69,123.64l-13-1c1.87,3.72,10.7,4.61,13,1Z"/>
        <path class="cls-66" d="M128.69,87.63l1.99-1.01c-2.2,5.85,3.16,22.38,1.9,26.34-.5,1.56-7.74,1.74-9.19,1.48-1.7-.3-2.62-1.92-3.77-2.31-1.9-.64-5.51,1.85-4.99-3,.27-2.46,3.17-3.41,5.36-3.56.91.1,1.15,1.68,1.69,2.06,9.93,6.86,4.15-14.64,7-20Z"/>
        <path class="cls-84" d="M121.69,107.63l2.01-23c2.03,1.2,5.43.16,4.99,3-2.85,5.36,2.93,26.86-7,20Z"/>
        <path class="cls-51" d="M160.69,86.63c.14.62.77,1.34,1,2-5.3,3.05-4.28-3.06-9.49.02l-.52-3.02c-1.52,3.28-8.39,4.27-9.57.97-1.49.31-2.87,1.17-4.42,1.03-.58-1.84,2.42-3.31,4-4,7.66-3.33,12.17-.49,19,3Z"/>
        <path class="cls-237" d="M161.69,76.63c-2.31,1.46-4.73-.64-7.83-.33-2,.2-12.39,3.39-14.17,4.33l-2.91-3.62,1.57-2.22c9.08-.49,14.94-3.23,23.34,1.84Z"/>
        <path class="cls-189" d="M138.69,87.63c1.16-.27,2.26-.77,3.42-1.03,1.18,3.3,8.05,2.32,9.57-.97l.52,3.02c4.29-2.34,3.35.07,6.49.98-3.96.88-5.26,2.36-10.48,2-1.62-.11-10.06-1.15-9.52-4Z"/>
        <path class="cls-67" d="M141.69,83.63c2.49-6.48,19.99-3.93,19,3-6.83-3.49-11.34-6.33-19-3Z"/>
        <path class="cls-188" d="M167.69,100.63c9.12-1.49-.47,8.44-1.01,11.99-3.29-1.12,1-9.38,1.01-11.99Z"/>
        <path class="cls-129" d="M128.69,123.64c-2.3,3.61-11.13,2.72-13-1l13,1Z"/>
      </g>
      <g>
        <g>
          <path class="cls-32" d="M72.69,685.63c3.3,35.61,16.94,70.66,26.57,104.94,3.56,3.52,7.58,5.47,12.6,4.81,18.4-2.39,13.48-20.18,14.84-33.74-.72,6.42,7.9,28.79,9.99,34.99-4.25,2.27-2.68,6.22-1.99,10,1.53.39,5.31-2.17,5.99-2,3.24,4.71,13.52,2.47,18,5-2.41,1.81-5.21.62-7.95,1.06l-2.06,17.95,7.01,1v1c-2.46.41-4.53.55-7,0-7.57,17.43-11.18,48.76-10,68.5,1.1,5.94,17.32-1.02,18,3.5-5.69,1-16.37,1.31-21,5h18c-8.03,4.52-17.9.12-26.05,4.48l-.06,6.82c1.9,2.67,18.33,3.09,22.11,2.7.11.63-.16,1.48,0,2l-15.53.97-.47,3.03c6.04,1.62,10.99.33,17,0-.03.5-.82,1.38-1,2-19.73,3.62-25.02-3.28-28.94-21.56-21.28.02-28.37-7.45-29.06-28.44-.21-3.85.79-.95,2.09-.6,7.43.13,25.56,11,29.76,4.1-2.65-7.16-25.63-11.72-30.9-11.05l-1.96,4.54c-2.49-24.36,11.77-44.07,7-69-.61-4.61,4.96,3.72,6.05,4.45,17.81,10.07,36.12-8.93,25.92-26.94-.4-1.33.84-1.83-1.96-1.5-2.27,14.57-19.83,17.87-30,9l.98,11.99c-5.49-39.77-23.65-76.26-27.99-117.99l2-1ZM125.68,877.63c1.21-1.29,1.53-30.66,2.11-35.39.98-11.41,8.42-24.57,5.88-35.61l-9.38,8.98c-2.12,13.49-2.15,26.11-1.96,39.53-.24,5.92-6.01,22.12,3.34,22.48ZM120.69,816.62c-7.3.25-13.9.68-19.99-3.99,2.95,18.97-9.19,37.43-7.01,56.99l23.99,6.01,3.02-59ZM145.69,829.63l-11.99-3-10.01,77.99,12.94-3.04c-.07-24.41,2.21-48.54,9.05-71.95ZM95.17,880.66c-4.98,11.48,15.92,24.21,26.03,19.98l1.54-10.51-27.57-9.47Z"/>
          <path class="cls-41" d="M96.69,799.63c.21.93,1.03,4.96,1.99,4.99l-.98-11.99c10.17,8.87,27.73,5.58,30-9,2.79-.33,1.56.17,1.96,1.5,10.2,18.02-8.11,37.01-25.92,26.95-1.09-.73-6.65-9.06-6.05-4.45-.42-2.33-1.81-4.92-1-8Z"/>
          <path class="cls-191" d="M168.69,909.63c-1.09-.28-.75-1.28-1-2-.85-2.41-2.01-2.33-2.03-2.51.97-3.76,4.45-8.85-.98-10.99,3.12-.84,3.06-4.08.01-4.99,3.87-2.57.69-4.18.52-6.03-1.41-10.66-2.12-22.07-3.54-31.77-.44-1.31-4.33-.34.04-2.35l1.87-19.25-2.89-1.1c6.31-4.51,3.67-12.78,6.01-19.49-.93-.91-2.89,1.4-4.01,1.49,2.33-9.99,3.58-17.63,7-26.55l-1.94-.49-.05-1.94c4.86-.53,2.78-5.15,3.37-7.32.76-2.8,3-7.63,3.55-9.44.74-2.46,2.77-7.95,3.11-9.79.4-2.18-2.97-.62-2.03-3.47l2.03.48c2.95-2.49.84-5.91.99-7.87.05-.65,1.73-.51,2.15-1.96,2.58-8.75,4.39-17.7,7.82-26.19l-1.94-.49-.05-1.94c5.46-1.09,2.06-8.49,5.99-12.02-2.47,27.43-24.95,77.13-25.96,101.65,5.72,14.83-4.36,33.43-3.08,49.89.62,17.5,7.58,38.73,5.04,56.45Z"/>
          <path class="cls-153" d="M210.69,533.63l-19.98,102.51c2.7,24.85,7.86,42.49.98,66.49l-.82-2.07c1.53-3.58,5.34-16.96.81-18.43l2.09-1.13c-1.8-6.14,1.17-19.45-4.04-22.98-.34-3.66,2.05-11.8-3.05-13.89l2.04-1.11v-2.77s-2.04-2.11-2.04-2.11c.15-.84,1.4.15,2.14-1.99,1-2.91,2.01-16.67.87-19.52,4.4-.25,3.33-8.25,4-12,.52-2.93,2.52-7.84,2.84-9.71.27-1.57-2.23-2.62-1.84-3.28,5.16-.55,2.63-10.66,3-13.43.03-.61,1.77-.49,2.17-1.95.81-2.93,3.43-10.29-.18-11.64,1.04-1.41,1.1-4.17,2-6,.64-1.31,2.07-2.15,2.95-4.56,2.39-6.53,1.76-15.04,5.05-21.44.29.38.6.73,1,1Z"/>
          <path class="cls-186" d="M57.69,560.63c.53,1.45,2.19,3.15,2.88,4.66-4.23,4.44.14,4.24.2,4.94.11,1.33-1.12,2.77-1.11,3.84,0,.62,1.63.5,1.77,1.06.82,3.26,1.56,6.92,2.27,10.02.05.22-3.32.88-2,3.48l1.98-1.01c-.61,5.02,3.13,9.63-.03,13.49l3.05,3.03c-2.06.86-2.35,1.01-2,3.49l1.99-.5c-1.16,6.56,3.82-.11-.05,7.97l2.07,1.01v2.02s-1.89.58-1.89.58l-.11,1.89,4.97,4.03-2.04,1.5,2.09,4.98-2.06,1v2.02c3.94.94.97,2.84.99,4.93,0,.23,1.42.31,2.04,3.57.97,5.14-.35,2.18-1,4-.93,2.62,2.03,1.62,2.01,2.5l-2.1,1.1c2.6,3.88-1.7,9.02,2.1,9.88-2.48,6.85-1.72,17.82-1.01,25.52l-2,1c1.86-41.93-9.32-82.4-15-124l2-2Z"/>
          <path class="cls-160" d="M90.69,876.63l1.96-4.54c5.33-.66,28.2,3.87,30.9,11.05-4.15,6.9-22.36-3.98-29.76-4.1-1.3-.35-2.3-3.26-2.09.59-.05-.32-.74-1.7-1-3Z"/>
          <path class="cls-127" d="M168.69,909.63c-.75,5.23-6.5,14.09-11,17l-3-7c1.25-.55,7.6-3.8,7.81-4.19.72-1.29-.36-3.46.19-5.81,2.85,1.4,3.36.26,5-2,.25.72-.09,1.72,1,2Z"/>
          <path class="cls-223" d="M157.69,926.63c-2.9,1.88-4.64,2.38-8,3,2.43-3.17-.47-5.03,0-8,3.05-.31,2.99-1.12,5-2l3,7Z"/>
          <path class="cls-21" d="M70.69,680.63l-1-31c1.24,10.41.61,20.45,1,31Z"/>
          <path class="cls-22" d="M60.69,542.63c1.6.25,7.62,1.97,7.02,3.99l2.48-1.85c3.3,4.53,7.92,1.89,12.5,1.86l-3,3.99c2.38-1.04,3.14,1.91,3.7,2.01s9.91-.68,10.25-1.07c-.31-3.57,0-3.72,3.06-4.93,7.91-.14,14.43-2.33,22-3,3.28,2.49-.11,3.91.16,5.31.18.92,1.89,1.75,1.7,3.01-.24,1.55-4.24,2.95.19,4.19l-2.02,4.45c3.22-.51,1.38,3.21,2.08,3.96l2.9.09-3.01,4.97,3,1.53-2.05,1.01c2.41,3.45.44,4.83.45,6.14.18,17,.85,30.82,1.21,46.84.02.96-4.18,4.94.4,4.51-1.79.99-3.86,3.28-3,5.49l-1.99-.5c-.54,3.24,2.57.86,2.05,4.55-.29,2.04-5.09,2.02-.03,3.96l-2.09,4.99c5.36,3.1.17,2.46-2.94.52-1.54,1.27,5.48,3.71-.04,5.5l2.04,4.49-2.9.08c1.4,3.82-4.9,5.41-4.13,8.42.18.69,3.04-.11,2.02,2.49l-4.99-1.99.5,4.98-3.43-1.92c-.04,2.16-3.68,4.19-5.53,4-.78-.08-.06-3.32-2.54-2.06l-.51,3.01c-3.53.73-2.32-2.41-4.47-3l-2.5,2.99c-1.66-2.83-9.03-6.21-7.52-9.99,1.03.52,2.86,1.96,4.01,1.53l2.96-5.49c-4.25.76-2.39-1.76-3.1-2.85-3.05,1.19-2.12-2.43-4.87-2.21-.28-.5,1.45-1.65,1.77-2.7,1.42-4.68-.89-2.34-1.77-2.92-2.84-1.89-3.99-7.79-8.01-8.35-.62-3.25-2.03-3.34-2.04-3.57-.02-2.09,2.95-3.98-.99-4.93v-2.02s2.06-1,2.06-1l-2.09-4.98,2.04-1.5-4.97-4.03.11-1.89,1.89-.58v-2.02s-2.07-1.01-2.07-1.01c3.87-8.08-1.11-1.42.05-7.97l-1.99.5c-.35-2.48-.06-2.63,2-3.49l-3.05-3.03c3.16-3.86-.58-8.47.03-13.49l-1.98,1.01c-1.32-2.6,2.05-3.26,2-3.48-.72-3.1-1.46-6.76-2.27-10.02-.14-.57-1.77-.45-1.77-1.06,0-1.07,1.22-2.51,1.11-3.84-.06-.7-4.43-.5-.2-4.94-3.99-3.7-5.3-18.79-4.87-22.65,1.33,1.03,4.72-.05,4.99,0Z"/>
          <path class="cls-123" d="M209.69,532.63c-4.14,7.8-1.86,19.49-8,26l-8.49-10-1.51,6.99c-4.15-.47-4.27-3.11-7.94.61-1.33,1.35-2.48,5.21-4.05,6.39-.21-3.47-4.12-3.29-5.99-5.49,4.5-2.81,7.54-7.09,1-9.5l-1.5,4.01-2.92.93-3.15-3.93-4.85,2.08c-1.57-3.04-5.72-6.44-7.08-2.08l-4.51-4c.32-.37.49-2.94,3-3.51v-1.47c-2.2-.94-3.6-1.51-6-2.02,4.73-1.07,5.14.24,7.42.04,2.34-6.64,51.93-10.63,54.58-5.04Z"/>
          <path class="cls-64" d="M125.69,629.63c.87,8.83-2.46,17.23-3,26-3.71,15.63,4.39,31.08,5.99,46.51,1.3,12.58.22,27.19-1.44,39.4-.23,1.65.2,2.98,1.46,4.09-.49,8.28.84,17.07-1,25l-.99-8.99c-1.36,13.56,3.56,31.36-14.84,33.74-5.02.65-9.04-1.29-12.6-4.81-10.71-42-32.33-86.53-25.56-130.46-3.79-.87.5-6-2.1-9.88l2.1-1.1c.01-.88-2.94.11-2.01-2.5l4.74,5.19c-1.26,3.33-.77,7.17,3.26,7.83l-1.96,3.37c.79,2.06,2.61,1.93,3.96,2.61-1.51,3.79,5.85,7.16,7.52,9.99l2.5-2.99c2.15.6.94,3.73,4.47,3l.51-3.01c2.48-1.25,1.76,1.98,2.54,2.06,1.85.19,5.48-1.84,5.53-4l3.43,1.92-.5-4.98,4.99,1.99c1.02-2.61-1.85-1.8-2.02-2.49-.77-3.01,5.54-4.61,4.13-8.42l2.9-.08-2.04-4.49c5.52-1.79-1.5-4.23.04-5.5,3.11,1.94,8.3,2.59,2.94-.52l2.09-4.99c-5.06-1.94-.26-1.92.03-3.96.52-3.69-2.59-1.31-2.05-4.55l1.99.5c-.9-2.82,2.11-6.11,5-5.49Z"/>
          <path class="cls-212" d="M189.69,616.63c1.14,2.84.13,16.61-.87,19.52-.74,2.14-1.99,1.15-2.14,1.99l2.03,2.11v2.77s-2.03,1.11-2.03,1.11c5.1,2.1,2.7,10.23,3.05,13.89,5.21,3.52,2.24,16.84,4.04,22.98l-2.09,1.13c4.53,1.47.73,14.84-.81,18.43l.82,2.07c-2.25,4.38-.11,9.83-4.99,11.02l.05,1.94,1.94.49c-3.43,8.49-5.24,17.44-7.82,26.19-.43,1.45-2.1,1.31-2.15,1.96-.15,1.96,1.96,5.38-.99,7.87l-2.03-.48c-.95,2.85,2.43,1.29,2.03,3.47-.34,1.83-2.36,7.33-3.11,9.79-.55,1.81-2.78,6.65-3.55,9.44-.59,2.17,1.49,6.79-3.37,7.32l.05,1.94,1.94.49c-3.42,8.92-4.66,16.55-7,26.55-1.73-.4-4.14-1.22-7-2l-2.98-4.51,2.97-1.51c1.36-1.66-5.43-3.37.05-5.49-4.63-5.64,2.6-4.12-1.68-8.99,4.56-7.08-1.47-2.26-.36-6.5l4.48,2.01c2.84.08-4.67-5.46-4.49-7.01l2.9-.09c.19-2.55-.58-3.57,2.12-4.43l-2.04-1.99v-2.02s2.06-1,2.06-1l-2.08-3.98,2.09-1.02c-1.68-4-1.69-3.97,0-7.97l-2.07-2.01c3-1.09.96-4.41,5.02-3.51l-2.93-3.63,2.92-3.87-2.98-2c-.05-.51,1.91-1.28,1.98-1.5l3.01-3.51-2.04-4,2.04-.99-2.04-2.11v-2.77c2.3-.61,3.65-2.83.02-2.62.34-.49-.84-2.9,2.04-3.51-3.32-4.12.81-5.34-2.1-9.98l2.07-1.01-2.04-1.99v-2.02s2.05-.99,2.05-.99v-2.01s-2.06-1-2.06-1l2.08-3.98-2.06-1v-2.02c4.99-1.75.64-2.28.11-3.28-3.6-7.11,2.31-5.79-5.13-11.73l2.04-4.48c-5.55,1.04-2.94-7.2-8-6.02,5-4.61-3.12-6.36-2.1-10.91l-2.9-.08,1.99-3.98c-5.78-2-3.82-5.36-3.99-10.02,5.55,2.29,5.03,9.06,10,8,2.03,5.94,6.07,2.31,5.01,7.01,4.74-2.31,8.18-8.43,13.99-6.02-1.32-2.43-1.13-4.34,1.99-2.98l.02-4,2.99,1.99.19-2.82,2.89-.73c.19-2.12-.54-4.79-.06-6.78.19-.77,1.98-.66,2-1.25-.9-3.44-1.41-5.05-.02-9.42,2.09-.88,4.24-1.31,3.1-3.93l2.91-.08c.6-4.16-3.65-.51-3-4,.21-.15.35-2.59,1.5-2.98.92.89,2.01,1.76,2.5,2.98Z"/>
          <path class="cls-169" d="M139.69,628.63l2.99,1.02-.13,1.88c-3.86.14-.84,2.57-.86,3.1-.46,2.28-2.01,7.4,2,7,.18,4.66-1.79,8.02,3.99,10.02l-1.99,3.98,2.9.08c-1.02,4.56,7.1,6.31,2.1,10.91,5.07-1.18,2.45,7.05,8,6.02l-2.04,4.48c7.4,5.89,1.55,4.62,5.13,11.73.53,1,4.88,1.53-.11,3.28v2.02s2.06,1,2.06,1l-2.08,3.98,2.06,1v2.01s-2.05.99-2.05.99v2.02s2.04,1.99,2.04,1.99l-2.07,1.01c2.91,4.64-1.23,5.86,2.1,9.98-2.88.61-1.7,3.02-2.04,3.51-.14.2-2.6.34-2.99,1.49,4,2.9-.14,6.03-3,8.01,1.72.81,5.53,4.69,4.98,6.5-.07.22-2.03.99-1.98,1.5l2.98,2-2.92,3.87,2.93,3.63c-4.06-.9-2.02,2.43-5.02,3.51l2.07,2.01c-1.69,4-1.68,3.97,0,7.97l-2.09,1.02,2.08,3.98-2.06,1v2.02s2.04,1.99,2.04,1.99c-2.71.86-1.94,1.88-2.12,4.43l-2.9.09c-.18,1.55,7.33,7.09,4.49,7.01l-4.48-2.01c-1.12,4.23,4.92-.57.36,6.5,4.28,4.88-2.96,3.33,1.68,8.99-5.48,2.12,1.31,3.83-.05,5.49l-2.97,1.51,2.98,4.51c-4.29-.87-12.41-.12-15-4-6.59-57.96,4.75-118.95-1-176Z"/>
          <path class="cls-229" d="M122.69,658.63c11.51-37.22,3.56-77.96,4.94-116.42l8.06-1.58c1.08,26.19-1.41,53.47-.04,79.54.97,18.5,4.87,34.69,4.03,53.95-1.06,41.58-5.43,80.94-.98,122.5-.22.25-1.59-.21-2.01.01l-9-26c1.84-7.93.51-16.72,1-25,.86-14.68,3.4-29.4,1.98-44.48-1.35-14.31-7.23-27.93-7.98-42.52Z"/>
          <path class="cls-38" d="M120.69,816.62l-3.02,59-23.99-6.01c-2.19-19.57,9.96-38.02,7.01-56.99,6.09,4.68,12.7,4.24,19.99,3.99Z"/>
          <path class="cls-11" d="M160.69,828.63l2.89,1.1-1.87,19.25c-4.37,2.01-.48,1.04-.04,2.35,1.42,9.73,2.13,21.08,3.54,31.77.16,1.85,3.35,3.46-.52,6.03,3.05.91,3.1,4.15-.01,4.99,4.35,1.52,2.74,5.33,2.01,8.5-4.54-1.58-11.06-.18-12.83-5.69l1.82-4.31-1.96,1.01c-.29-2.03-.59-4.14-2.98-4.06l1.99-4.44-2.06-1,2.04-4c-5.42-2.26-1.99-6.73-2.18-7.81-.16-.91-1.88-1.75-1.69-3.01.23-1.51,4.21-3.04-.16-4.17l2.04-4.01c-5.86-2.37,3.83-4.64-2.06-7.01,4.4-4.17-2.6-6.68,2.06-7.98l-2.04-4.01,2.07-1.01-2.05-4,2.08-3.02-2.08-3.47c4.19.69,8.34.52,12-2Z"/>
          <path class="cls-197" d="M145.69,829.63c-6.85,23.41-9.12,47.54-9.05,71.95l-12.94,3.04,10.01-77.99,11.99,3Z"/>
          <path class="cls-138" d="M148.69,830.63l2.08,3.47-2.08,3.02,2.05,4-2.07,1.01,2.04,4.01c-4.66,1.31,2.33,3.81-2.06,7.98,5.89,2.38-3.8,4.64,2.06,7.01l-2.04,4.01c4.38,1.13.39,2.66.16,4.17-.19,1.26,1.53,2.11,1.69,3.01.19,1.09-3.24,5.56,2.18,7.81l-2.04,4,2.06,1-1.99,4.44c2.39-.08,2.69,2.02,2.98,4.06l1.96-1.01-1.82,4.31c1.77,5.51,8.3,4.11,12.83,5.69-2.16,3.65-.75.99,1,5-1.64,2.26-2.15,3.4-5,2-.61-1.83,3.09-2.94,1.97-5.96-2.66-.95-5.15-1.18-7.97-1.04-.68-4.52-16.9,2.45-18-3.5-1.21-19.74,2.48-51.23,10-68.5Z"/>
          <path class="cls-144" d="M142.69,538.63c-.75.27-4.96,2.28-5.05,2.66v72.75c.16,1.19,1.45.42,2.05.6.67.19,1.33.75,2,1-1.05,1.76-2.63,2.18-4,3.51v1.47c2.42-.24,2.19,1.76,3,3.02,2.57,59.59-5.38,120.8,0,181-.68-.17-4.46,2.39-5.99,2-1.14-3.98-1.88-10.51,4-10.01-4.45-41.57-.08-80.92.98-122.5.85-19.26-3.05-35.45-4.03-53.95-1.37-26.07,1.11-53.35.04-79.54l-8.06,1.58c-1.38,38.46,6.57,79.19-4.94,116.42,6.18-38.24,2.06-76.81,3.05-115.38-.2-1.22-1.75-.42-2.05-.62-.99-.69-2.14-1.13-3-2l14-3c.38.98.07,2.25,1.49,2.98l6.51-1.98Z"/>
          <path class="cls-52" d="M125.68,877.63c-9.35-.36-3.59-16.56-3.34-22.48-.19-13.42-.17-26.04,1.96-39.53l9.38-8.98c2.54,11.03-4.9,24.2-5.88,35.61-.59,4.73-.9,34.1-2.11,35.39Z"/>
          <path class="cls-165" d="M162.69,908.63c-.04,9.53.79,6.1-8,11-4.81,3.78-23,2.25-27.11-.7l.06-6.82c6.56-3.4,14.06-1.66,21.05-2.48v2s4.49-2.05,4.49-2.05l.63,1.88,1.87.16,1.02-2.99h6Z"/>
          <path class="cls-174" d="M95.17,880.66l27.57,9.47-1.54,10.51c-10.1,4.23-31.01-8.51-26.03-19.98Z"/>
          <path class="cls-71" d="M156.69,810.63l-1,19-7.01-1,2.06-17.95c1.96-.3,3.99.12,5.95-.06Z"/>
          <path class="cls-110" d="M162.69,810.63c-.83,5.99-.92,12.05-2,18-1.89,1.35-2.96,1.66-5,2v-1l1-19c2.18-1.66,4.45-.37,6,0Z"/>
          <path class="cls-149" d="M156.69,902.63l-2.02,5.49,2.02.51-1.02,2.99-1.87-.16-.63-1.88-4.48,2.05v-2s4.99-2,4.99-2h-18c4.62-3.69,15.32-4,21-5Z"/>
          <path class="cls-232" d="M149.69,923.63c.45,1.49,1.13,1.56,1,4-6.01.32-10.97,1.61-17,0l.47-3.03,15.53-.97Z"/>
          <path class="cls-17" d="M162.69,810.63c1.12-.08,3.09-2.4,4.01-1.49-2.34,6.7.3,14.98-6.01,19.49,1.08-5.95,1.17-12.01,2-18Z"/>
          <path class="cls-172" d="M150.69,553.63c3.27.5,4.98.9,6.5,3.98,1.47-3.87,5.52-4.56,4.88,0-.37,2.6-3.64,3.31,2.14,6.04l.49-2c2.58-.54,1.54.51,2.47,1.99l4.49-2.07,1.02-1.93c2.13,3.69-4.02,6,1.01,7.99-4.81,4.01,1.52,5.3,1.01,8.99,3.43.89,2.72-1.6,4.99-2.99h1c1.12,3.01,5.54,9.78,9,7,0,6.1-.28,2.5,2.78,5.42.36,1.87-1.43,4.61-3.77,3.58-1.23,2.56,2.95,2.34,2.98,3.49-2.9,1.95-.72,3.42-.4,5.98-.2,2.41-5.24,6.39,2.42,5.52-.67,3.75.4,11.75-4,12-.49-1.22-1.58-2.09-2.5-2.98-1.15.39-1.29,2.83-1.5,2.98-8.16.09-.78,6.11-4,12l-4.99,1.99c-1.76-2.41,1.18-9.29-3.01-8.98,4.29,4.88-5,8.64.02,10.49l-.19,2.35-6.37,3.15c-.71-3.75-5.18-.31-8.46-2-.19-1.83-1.69-4.67-2-7h1.99c.12-2.38.06-2.03-1.99-2-1.67-1.16-.69-1.83-1-3l3.01,2.01,3.51-3.05c2.21.25,3.64,3.94,7.21-.31.61-.72.12-2.5.27-2.66.22-.22,3.41,1.62,5.05-1.55l-8.03-9.98,1.97-3.45c-4.32-2.08-5.32,3-8.5-1.99l-3.51,4.48c1.57,3.11,4.81,1.28,5.01,1.51,1.67,1.91-4.38,9.42-6.99,10-.15-.26-3.75-3.77-4-4,2.48-4.97-3.98-7.98-3.98-8.49,5.8-4.3-3.38-5.85-.11-11.07,1.58-2.27,5.38-1.97,4.53-6.53-1.03-5.5-3,1.56-5.43,1.09-1.45-3.89,3.76-5.28,3.77-8.68,0-2.69-3.87-2.76.23-3.79l-1.98-3.03,3.97-.49c.82-2.64-3.82-3.3-3.89-4.48,3.71-5.4.39-9.27,2.9-15.52Z"/>
          <path class="cls-154" d="M150.69,544.63l4.51,4c1.36-4.36,5.51-.96,7.08,2.08l4.85-2.08,3.15,3.93,2.92-.93,1.5-4.01c6.54,2.41,3.5,6.69-1,9.5,1.88,2.2,5.79,2.02,5.99,5.49,1.56-1.18,2.71-5.03,4.05-6.39,3.67-3.72,3.79-1.08,7.94-.61l1.51-6.99,8.49,10c-.8,9.8-10.87,7.82-7.98,16.32-.09,1.05-3.61,1-4.02,5.68-3.27,2.51-6.24-2.41-8-5l5.99-4.48-4.46-3.53c-1.75,1.45-2.67,3.76-2.53,6h-1c-.58-3.15-5.89-4.91-8.09-7.65-.15-2.08,2.73-3.58,1.08-6.34l-1.02,1.93-4.49,2.07c-.93-1.48.11-2.53-2.47-1.99l-.49,2c-5.78-2.73-2.5-3.44-2.14-6.04.64-4.55-3.41-3.86-4.88,0-1.52-3.08-3.23-3.48-6.5-3.98.94-3.15,1.15-6.79-3-6.01.16-1.58,2.28-2.16,3-2.99Z"/>
          <path class="cls-207" d="M199.69,564.63c3.6,1.35.99,8.71.18,11.64-.4,1.46-2.14,1.34-2.17,1.95-.36,2.74,2.16,12.9-3,13.43-.39.65,2.11,1.71,1.84,3.28-.32,1.86-2.32,6.77-2.84,9.71-7.66.87-2.62-3.11-2.42-5.52-.32-2.56-2.49-4.04.4-5.98-.03-1.15-4.2-.93-2.98-3.49,2.34,1.03,4.13-1.71,3.77-3.58-3.04-2.93-2.78.71-2.77-5.42.4-4.68,3.93-4.63,4.02-5.68.12-1.39-1.21-2.67-.56-4.3.71-1.77,6.27-5.65,6.54-6.02Z"/>
          <path class="cls-44" d="M72.69,642.63c4.02.56,5.17,6.46,8.01,8.35.87.58,3.19-1.76,1.77,2.92-.32,1.05-2.05,2.2-1.77,2.7,2.75-.22,1.82,3.4,4.87,2.21.7,1.1-1.16,3.61,3.1,2.85l-2.96,5.49c-1.16.43-2.98-1.01-4.01-1.53-1.35-.68-3.17-.55-3.96-2.61l1.96-3.37c-4.03-.66-4.53-4.5-3.26-7.83l-4.74-5.19c.65-1.82,1.97,1.14,1-4Z"/>
          <path class="cls-227" d="M123.69,542.63c.29.2,1.85-.6,2.05.62-1.2,28.91,1.86,57.38-.05,86.38-6.41.43-3.78-1.37-2.4-4.51-.36-16.03-1.03-29.84-1.21-46.84-.01-1.31,1.96-2.69-.45-6.14l2.05-1.01-3-1.53,3.01-4.97-2.9-.09c-.69-.75,1.15-4.47-2.08-3.96l2.02-4.45c-4.43-1.24-.43-2.64-.19-4.19.19-1.26-1.51-2.09-1.7-3.01-.28-1.4,3.11-2.82-.16-5.31,1.55-.37,3.07-1.48,5-1Z"/>
          <path class="cls-162" d="M96.69,546.63c-3.06,1.21-3.37,1.35-3.06,4.93-.34.39-9.68,1.17-10.25,1.07s-1.32-3.04-3.7-2.01l3-3.99c4.62-.02,9.4.27,14,0Z"/>
          <path class="cls-111" d="M147.69,537.63c2.39.51,3.8,1.08,5.99,2.02v1.47c-2.5.56-2.67,3.14-2.99,3.51-.72.83-2.84,1.41-3,2.99,4.15-.78,3.94,2.86,3,6.01-2.51,6.24.81,10.13-2.9,15.52.07,1.18,4.71,1.84,3.89,4.48l-3.97.49,1.98,3.03c-4.1,1.03-.23,1.1-.23,3.79,0,3.4-5.22,4.79-3.77,8.68,2.43.47,4.41-6.59,5.43-1.09.85,4.57-2.95,4.27-4.53,6.53-3.27,5.2,5.9,6.79.11,11.07,0,.52,6.47,3.52,3.98,8.5-2.22-1.74-5.04-4.58-8-4.01.28,2.2.11,3.12-1,5.01-.67-.25-1.33-.81-2-1-1.47-4.77,1.59-4.6,1.92-5.06,1.46-2.06-3.39-1.85-1.92-4.93h3.01c-4.71-4.28-1.6-4.17-1.36-6.68.4-4.19-.46-10.33-.69-14.7l2.09-1.14-1.98-3.07,1.95-1.9c-2.73-3.42-2.13-11.92,2-14.03l-2.07-2.95,2.08-3.05-2.04-1.99c-.86-2.89,2.11-2.4,2.06-3.02-.11-1.57-1.75-2.29-1.89-3.18-.22-1.44,2.92-2.6-.19-5.81,2.96-.93,2.38-2.16,1.04-4.51.5-.17,3.15-.81,4-1Z"/>
          <path class="cls-115" d="M143.69,538.63c1.34,2.35,1.92,3.58-1.04,4.51,3.11,3.2-.03,4.36.19,5.81.14.88,1.78,1.61,1.89,3.18.04.62-2.92.13-2.06,3.02l2.04,1.99-2.08,3.05,2.07,2.95c-4.13,2.11-4.74,10.61-2,14.03l-1.95,1.9,1.98,3.07-2.09,1.14c.24,4.36,1.09,10.5.69,14.7-.24,2.51-3.35,2.4,1.36,6.66h-3.01c-1.46,3.1,3.38,2.88,1.92,4.95-.33.47-3.39.3-1.92,5.06-4.85,4.24-.78-73.43-2.05-73.34.58-.49,4.77-3.01,6.05-2.66Z"/>
          <path class="cls-2" d="M122.69,658.63c.75,14.59,6.63,28.21,7.98,42.52,1.42,15.08-1.12,29.8-1.98,44.48-1.25-1.11-1.68-2.44-1.46-4.09,1.67-12.2,2.74-26.82,1.44-39.4-1.59-15.43-9.7-30.88-5.99-46.51-.02.99-.05,2.01,0,3Z"/>
          <path class="cls-120" d="M141.69,615.63c1.12-1.88,1.29-2.8,1-5.01,4.69-.44,8.88,5.09,12,8.01.2.33.69,3.85,1,5s-.67,1.84,1,3c-.49,3.87,2.56,7.47,2,11-1.6.19-3.64.31-1,2-.14.63-.74,2.37-1,3-.22.53.27,1.63-.54,2.96-.63,1.04-3.59.89-2.46,4.04-4.98,1.06-4.45-5.71-10-8-4.01.4-2.46-4.73-2-7,1.53,5.85,4.74,2.06,4.46-2.17-.1-1.51-4.35-7.09-5.46-8.83-.81-1.26-.58-3.26-2.98-3.02v-1.47c1.36-1.33,2.94-1.75,3.98-3.51Z"/>
          <path class="cls-20" d="M158.69,635.63c3.28,1.69,7.74-1.75,8.46,2l6.37-3.15.19-2.35c-5.02-1.85,4.27-5.6-.02-10.49,4.2-.31,1.25,6.58,3.01,8.98l4.99-1.99c-.14,2.29,1.08,4.22,1.02,5.42-.03.59-1.82.49-2,1.25-.49,1.98.25,4.65.06,6.78l-2.89.73-.19,2.82-2.99-1.99-.02,4c-3.12-1.36-3.32.55-1.99,2.98-5.81-2.41-9.25,3.7-13.99,6.02.89-3.81-1.7-2.49-2.97-3.72-6.02-7.88,1.62-4.47.96-10.29,3.01.5,9.05-1.28,3-2,.57-.51,1.21-.89,1.98-1.02v-1.97c-.97.06-2.01-.12-2.98,0,.07-.59.06-1.4,0-2Z"/>
          <path class="cls-4" d="M161.69,721.63c3.63-.21,2.28,2-.02,2.62v2.77s2.03,2.11,2.03,2.11l-2.04.99,2.04,4-3.01,3.51c.55-1.81-3.26-5.69-4.98-6.5,2.86-1.98,7-5.11,3-8.01.39-1.15,2.85-1.3,2.99-1.49Z"/>
          <path class="cls-113" d="M185.69,616.63c-.65,3.49,3.61-.16,3,4l-2.91.08c1.14,2.62-1,3.04-3.1,3.93-.51-4.29-3-8.23,3-8Z"/>
          <path class="cls-143" d="M140.69,623.63c1.11,1.74,5.36,7.32,5.46,8.83.27,4.22-2.93,8.01-4.46,2.17.02-.53-3-2.96.86-3.1l.13-1.88-2.99-1.02c.16-1.74-.12-3.45,1-5Z"/>
          <path class="cls-142" d="M156.69,902.63c2.82-.14,5.31.09,7.97,1.04,1.08,2.2-1.81,4.33-1.97,4.96-1.52-.01-6.67.18-8.02-.51l2.02-5.49Z"/>
          <path class="cls-20" d="M154.69,618.63c2.61-.58,8.67-8.09,6.99-10-.2-.23-3.44,1.6-5.01-1.51l3.51-4.48c3.18,5,4.18-.09,8.5,1.99l-1.97,3.45,8.03,9.98c-1.64,3.17-4.83,1.33-5.05,1.55-.16.16.33,1.94-.27,2.66-3.57,4.25-5,.56-7.21.31l-3.51,3.05-3.01-2.01c-.3-1.15-.8-4.67-1-5Z"/>
          <path class="cls-207" d="M173.69,567.63c2.34,2.63,5.55,3.19,6,6-2.26,1.39-1.56,3.88-4.99,2.99.51-3.69-5.82-4.97-1.01-8.99Z"/>
          <path class="cls-207" d="M181.69,575.63c-2.18-2-.59-6.3,1.53-8l4.46,3.53-5.99,4.48Z"/>
          <path class="cls-121" d="M156.69,626.63c2.06-.04,2.11-.37,1.99,1.99h-1.99c-.09-.64.06-1.34,0-1.99Z"/>
          <path class="cls-172" d="M158.69,637.63c.97-.12,2.01.06,2.99,0v1.97c-1.42.35-3.09,1.38-2.99,3.02-.67,0-1.33,0-2,0,.6-2.02,1.13-2.8,2-5Z"/>
          <path class="cls-6" d="M158.69,637.63c-.14,1.18-.94,1.73-1,2-2.64-1.69-.6-1.81,1-2Z"/>
          <path class="cls-9" d="M159.69,640.63c3.94.22,3.17,2-1,2-.07-1,.32-1.39,1-2Z"/>
        </g>
        <g>
          <path class="cls-140" d="M177.69,327.63c.58,13.72,1.02,13.92,8,25,39.75,52.31,38.02,121.58,33.99,184-2.5-1.51-5.68-6.01-8.99-3-1.33-7.12-53.12-2.71-55.58,4.04-2.28.21-2.69-1.11-7.42-.04-.87-.18-2.04.13-3-.01-.1-1.19,1.58-1.43,2-1.99,20.18-4.02,51-11.26,70.99-4l-.92-6.57c-2.28.2-5.44-1.24-7.07-1.43v-1c2.64-.06,5.31.13,7.95-.06,1.47-10.18,2.53-7.31-7.95-8.94.06-.57.96-1.46,1-2,10.78,1.18,6.76.53,8.06-8.42-.28-.94-6.6-1.47-8.06-1.58.03-.66-.02-1.33,0-2,2.66-.06,5.35.05,8.01,0v-8c-2.47.45-4.83-.79-7.01-1.01-.02-.66.03-1.34,0-2,2.33-.08,4.68.06,7.01,0-.83-9.2,3.77-12.43-8.01-12.01v-1c2.14-.21,5.09-1.66,7.86-1.14,3.93-8.12-1.91-7.97-7.86-9.86h9s-1.01-11-1.01-11c-3.44-.58-6.63,1.12-9.99,1v-2c11.41-2.56,10.86.29,8.06-9.59-11.23.2-46.46,5.58-58.39,6.76-5.48,8.39-16.54,4.19-24.67,6.83-.28-2.04.03-2.73,0-3,7.97.8,20.68,1.79,23.76-7.51-5.6-8.55-16.54-2.18-24.76-2.49-.14-.22-3.04.78-1.99-1.99,7.22-.98,14.81-1.1,21.99-2.01,3.66,2.15,6.36,3.8,7.62,8.07,18.48-2.01,36.57-5.06,54.89-7.09,1.41-.21,1.71.67,1.44-1.4-1.2-8.96-1.09-9.7-9.94-7.58v-2c1.55-.42,6.06-1.23,6.57-1.93l-.59-8.07c-3,.5-5.98,1.52-8.98,2l-2-2c3.3-.13,6.51-1.86,9.89-2.1.73-3.24-.24-6.6-2.55-8.96-25.94,5.68-52.96,7.36-79.34,10.06v-2c8.45-1.22,21.36,1.1,24.95-8.38-6.49-8.46-16.17-1.79-24.95-2.62l-1.99,9.99c.38-3.58-1.07-9.05.99-11.99,4.84-.06,14.1-2.57,18.46-2.04,15.25,1.87,20.63.25,35.54-1.96,4.82.28,9.33-.99,14-2,1.61-.37,8.85-.58,8.97-2.49-3.32-6.76-2.9-7.4-10.97-6.51-.07-.65.1-1.37,0-2,1.7-.42,4.13-.09,5.98-1.04l-2.92-7.49c-23.63,3.09-47.21,6.69-71.06,7.52-.55-4.44-1.67-9.21-1.01-14.01,5.8-.71,15.27-2.87,20.47-2.98,1.91.19,3.23,2.3,5.24,2.78,6.25,1.47,28.22-2.12,35.29-3.8,1.3-.31,5.72-.18,4.9-2.38-1.66-4.47-4.1-5.49-7.9-5.62-.72-1.5-2.67-.96-4-1l5.99-1.01c1.67-1.39-7.37-8.58-5-9.98l-3.01-.53c-20.38,18.41-57.12,18.58-82.99,14.52-15.11.36-21.76-16.02-19,11-1.35,3.15-1.06,4.55-1,8-2.65,4-7.21,19.22-8,23.5.16,7.58.03,20.74-1,28.5h-1c.02-21.4-.07-42.7.99-63.99-21.18,50.98-5.12,121.82-4.99,173.99-.27-.04-3.66,1.03-4.99,0-.64.64,1.26,16,1.99,18l-2,2c-1.25-7.84-3.63-17.28-2.99-24.99l5.99,1.98-6.01-105.98c-6.77,29.85-4.9,61.53-4,91.99l-2.99-2c-.06-4.32.03-8.67,0-13,1.65-1.05,1-3.79,1.02-5.48.14-10.83-.28-21.7-.02-32.52.39-16.16,1.97-32.09,2-48,2.94-13.77,6.58-27.93,9.5-42,2.97-10.86,10.25-25.5,11.5-36,4.41-3.09.27,4.61,1.07,5.9,16.09,6.17,33.53,9.69,50.77,9.95,2.65-1.27-1.58-15.33,1.15-15.85,6.18,1.04,16.58-3.15,22.27-1.97.4.08,5.21,4.28,6.79,4.67l-4.06,9.3c8.26-1.07,15.91-4.7,22.99-8.99,9.75-6.38,4.87-9.54,4.99-20-1.89-.32-9.79,7.76-11.99,4,4.84-2.14,9.3-6.96,13.99-9,.05.99-.03,2,.01,3ZM149.55,349.78c-7.21-5.49-16.83-1.81-25.28-1.27-.88,6.85-3.03,10.93,4.92,11.18,6.24.2,21.09-1.14,20.36-9.91ZM191.68,376.62c-1.11-2.92-1.81-7.05-5.44-7.04-9.33.03-21.53,4.82-31.45,4.16l-3.1,7.88,39.99-5.01ZM149.69,373.63c-5.8-6.49-14.11.66-21.86-.86l-1.15,10.87c5.54.35,31.03-.2,23-10ZM192.69,400.63c-12.28,1.46-24.53,4.17-37,4.01,2.44,4.65-1.35,5.85-2,9.99,19.02-2.04,38.18-5.61,56.98-8l-3.13-7.85-14.86,1.85Z"/>
          <path class="cls-186" d="M45.69,523.63l2.99,2c-1.96-26.86-.27-53.59,1.03-80.48,0,0,2.97-11.51,2.97-11.51l6.01,105.98-5.99-1.98c-.06.99.06,2,0,2.99-2.17,0-5.28-3.7-6-4,.9-4.35-.8-9.29-1-13Z"/>
          <path class="cls-8" d="M92.69,361.63c-.25,60.2,4.68,120.55,15.94,179.6l-1.63,2.21s-8.67,1.11-8.67,1.11c-12.8-58.42-14.11-123.55-11.64-183.92,1.41.35,3.94.58,6,1Z"/>
          <path class="cls-31" d="M102.69,362.63c2.26,13.87.43,28.44.96,42.54.96,30.38,7.56,61.16,8.06,90.81-.3,1.17-2.44,0-2.01,1.64l3.06.57,5.74,43.29c-19.57,16.22-23.97-162.83-23.81-179.85,3.01.57,5.06.69,8,1Z"/>
          <path class="cls-131" d="M75.69,372.63c2.24-3.6,4.23-14.53,8.99-13-4.06,55.91,3.33,128.92,10.01,185l-7.9-.11c-9.29-56.34-13.47-115.32-11.1-171.89Z"/>
          <path class="cls-187" d="M72.69,384.63c-.18,53.61,4.72,106.93,11,160l-12.06-1.59c-5.39-45.84-6.96-92.91-4.94-138.91,0-1.69,5.01-17.39,6-19.5Z"/>
          <path class="cls-75" d="M86.69,360.63c-2.46,60.35-1.15,125.52,11.64,183.93,0,0,8.67-1.11,8.67-1.11l1.63-2.21c-11.26-59.05-16.19-119.4-15.94-179.6.61.12,1.38-.12,2,0-.28,60.46,4.84,121.03,15.94,180.36.59,1.07,3.95.84,5.06.64l1,1c-11.05,2.81-22.51,3.44-34,3-4.58.02-9.2,2.67-12.5-1.86l-2.48,1.85c.6-2.02-5.42-3.73-7.02-3.99-2.2-2.12-.06-4.15,0-5,.04,5.34,4.89,4.48,8.99,4.99-4.39-36.55-5.8-73.51-4.99-109.99h1c-.75,36.78,2.17,73.9,5.94,110.41l12.06,1.59c-4.62-53.96-15.02-110.42-9-164,.8,54.33,2.24,110.07,12.1,163.89l7.9.11c-6.69-56.31-14.06-128.87-10.01-185-4.75-1.55-6.77,9.42-8.99,13-.9-5.37-1.56-10.43.97-15.57,1.64-1.25,8.59,3.21,10.03,3.57Z"/>
          <path class="cls-69" d="M112.69,363.63c2.02,42.07,5.87,84.05,12.66,125.57l-11.15,5.45c-6.49-43.25-8.92-87.21-8.51-131.01,2.3.18,4.69-.09,7,0Z"/>
          <path class="cls-68" d="M122.69,363.63c3.9,40.51,5.32,81.37,13.08,121.38,0,0-7.58,3.63-7.58,3.63-9.09-37.55-11.62-84.32-12.5-125.01,2.32.05,4.68.04,7,0Z"/>
          <path class="cls-136" d="M177.69,358.63c1.9.28,4.79-.92,6,1-2.14-.07-5.67-.67-7,1-16.02.11-34.51,5.28-51.01,3.99v6.01c1.99-.07,4.02.11,6.01,0l-6.01.99c-.66,7.1,1.34,13.46,1.15,20.36l2.36,1.65c22.17-.38,43.98-3.03,65.5-7,.1.63-.07,1.35,0,2-.73.08-1.44.54-2,1-19.83.87-44.3,7.16-65,6-1.01,2.47,1.04,6.5,1,8-2.06,2.95-.61,8.4-.99,11.99l1.99-9.99c0,5.64,0,15.43,0,21.01,24.25.39,48.19-2.86,72.01-7.01l2,2c-22.52,4.67-45.68,5.13-68.51,7-7.35.69-5.38,8.37-1.99,9,24.82.07,49.09-4.51,73.5-8v2c-25.11,5.19-50.51,7.3-75.99,10.01-1.04,2.78,1.85,1.78,1.99,1.99.82,4.25,1.09,12.77,1,18.01,22.99-1.24,51.43-7.9,75-9.01v2c-2.54.2-6.27-.91-8,1-21.94,1.64-44.79,5.03-66.08,9.64.06,2.18,1.02,4.18,1.08,6.36s-1.13,6.71,1,9c.09.75,1.07,1.97,1,3-.58.41-2.29,2.78-2,2.99,1.66,0,3.34.05,5,.01-5.37.22-2.88,9.89.5,10.11,23.02-5.99,46.74-8.24,70.5-8.11.03.66-.02,1.34,0,2-23.72-1.75-47.88,3.7-71,8.01-.78,1.45,1.02,3.79,1,3.99-.04.68-2.23,2.58-2,4-1.86-6.07-.98-13.84-4.52-19l-7.36,3.13,8.35,45.91,8.5-.06c-.86-6.29-1.84-12.73-2.97-18.97.67-.01,1.33.02,2,0,.13,2.84-1.12,3.04,2.07,2.59,20.86-6.65,42.87-9.63,64.93-8.59-.04.54-.94,1.43-1,2-22.16-.96-43.94,1.78-64.91,9.1l1.46,7.94c20.86-5.45,41.77-9.61,63.45-8.03v1c-14.91.76-57.7,1.24-65,13.99.96.15,2.13-.17,3,.01-3.3.74-8.34,1.85-11.51,2.98-7.2-13.41-5.91-34.16-10.98-48.97-2.62,2.83-9.78,2.61-10.52,6.5l6.01,42.49c.86.87,2.01,1.31,3,2-2.7-.52-4.47,1.47-7,1l-1-1c.52-.1,1.76-1.25,2.81-1.15l-5.74-43.29-3.06-.57c-.43-1.63,1.71-.47,2.01-1.64-.5-29.65-7.1-60.43-8.06-90.81-.53-14.1,1.3-28.67-.96-42.54,1.15.12,2.38.95,3,1-.41,43.81,2.03,87.77,8.51,131.01l11.15-5.45c-6.8-41.52-10.65-83.5-12.66-125.57,1,.04,2-.02,3,0,.88,40.68,3.41,87.47,12.5,125.01,0,0,7.58-3.63,7.58-3.63-7.75-40.01-9.17-80.87-13.08-121.38,18.82-.59,36.42-3.81,55-5Z"/>
          <path class="cls-182" d="M64.69,432.63c0,2.5-1,5.26-1,6-.61-2.32,1.39-15.5-.99-14.99-.73,6.36-6.3,9.97.99,14.99,1.93,7.53.68,16.18,1,24-.17-4.1-.83-9.02-1-13.51-.05-1.21.75-3.72-.99-3.48-5.33,23.07-2.73,63.54-2.01,86.99-2.2-51.39-14.84-115.35,4.99-163.99-1.06,21.29-.97,42.6-.99,63.99Z"/>
          <path class="cls-109" d="M200.69,410.63c2.62,3.06,3.23,5.1,2,9-2.46.11-4.76.71-7,1,1.9-1.96-2.23-9.69-3.99-8l-2.01,9c-19.81,3.13-39.88,5.34-60.01,5.01v-8.01c23.65-1.9,47.43-4.92,71.01-8Z"/>
          <path class="cls-43" d="M208.69,454.63c.33-.03.67.02,1,0v10c-16.85-1.22-35.34,2.86-52,5-6.68-2.46-14.89,1.64-22,2-.06-2.18-1.02-4.18-1.08-6.36,20.63-4.65,42.83-7.47,64.08-9.64l2.57,8.06,3.45-.57-1.02-7.49c-.99-.05-2,.04-3,0,1.73-1.91,5.46-.8,8-1Z"/>
          <path class="cls-36" d="M72.69,333.63c29.37,9.77,61.93,13.88,91,0l1,1c-5.15,2.22-10.11,5.66-16,6.01-1.35,1.44,5.46,7.28,5.85,8.71,1.02,3.73-4.62,8.28,1.15,7.28-2.63.85-5.11,2.12-7.99,1.99l4.06-9.3c-1.58-.38-6.39-4.58-6.79-4.67-5.69-1.17-16.09,3.01-22.27,1.97.14-.66.14-1.8-.66-2.01h-10.34s-26.36-3.91-26.36-3.91c-2.78.87-1.29,12.64-2.64,15.92-3.98-1.14-8-2.75-11.93-4.1-.8-1.29,3.34-8.99-1.07-5.9.53-3.85.08-10.21.01-14,.95.49,1.99.67,2.99,1Z"/>
          <path class="cls-5" d="M111.69,344.63c1.74,3.09,8.18,4.16,7.78,8.35-.46,4.86-8.57,5.08-10.78,8.65-8.58-.99-17.7-2.63-26-5,2.61-22.81-3.41-15.32,29-12Z"/>
          <path class="cls-135" d="M64.69,462.63c-.04,26.75,1.84,53.43,4.99,79.99-4.1-.52-8.96.35-8.99-4.99-.24-25.27-3.66-67.3,2.01-91.99,1.74-.24.94,2.27.99,3.48.17,4.49.83,9.41,1,13.51Z"/>
          <path class="cls-163" d="M179.69,380.63l1.09,7.93,1.91.07c-17.44,2.68-35.53,4.87-53.5,5l-2.36-1.65c-.51-2.06.11-4.36-.14-6.36,17.66-.62,35.42-2.89,53-5Z"/>
          <path class="cls-109" d="M192.69,389.63c.84.03,2.37-.32,2.86.12l1.14,7.88c-3.43.78-6.51,1.43-10,2l-1.52-8.04-3.47.03.99,8c-14.91,2.21-20.29,3.83-35.54,1.96-4.36-.53-13.62,1.98-18.46,2.04.04-1.51-2.02-5.54-1-8,20.68,1.16,45.2-5.12,65-6Z"/>
          <path class="cls-178" d="M176.69,360.63c6.46.14,6.76,1.78,10,7-10.36,1.71-32.18,7.63-40.53,1.02-5.39.04-14.39,2.72-20.47,1.99v-6.01c16.49,1.28,34.99-3.89,51.01-3.99Z"/>
          <path class="cls-117" d="M199.69,444.63c-1.04.25-2.32,1.61-4.01,1.01l2.01,7.99c-15.59,1.67-31.3,4.88-46.99,4.99l3-.99-2.01-3c3.51-1.01,4.39-2.12,6.67-4.83l41.33-5.17Z"/>
          <path class="cls-88" d="M197.69,433.63l-2.02,8.48,2.02.52c-12.24,1.73-24.88,3.9-37.38,5.07-1.26-4.28-3.96-5.92-7.62-8.07,9.97-1.26,19.93-3.37,30-4-1.02.25-2.29,1.6-4,1.01,2.91,4.54,10.34-.86,14.64-.88l-.64-1.13c1.71-.33,3.2-.7,5-1Z"/>
          <path class="cls-122" d="M166.69,334.63l4,15c-4.84,3.17-9.51,5.23-15,7-5.77,1-.13-3.55-1.15-7.28-.39-1.43-7.2-7.27-5.85-8.71,6.69.06,11.81-5.64,18-6.01Z"/>
          <path class="cls-33" d="M191.68,376.62l-39.99,5.01,3.1-7.88c9.93.65,22.12-4.13,31.45-4.16,3.63-.01,4.33,4.12,5.44,7.04Z"/>
          <path class="cls-151" d="M149.55,349.78c.73,8.77-14.12,10.11-20.36,9.91-7.95-.25-5.8-4.33-4.92-11.18,8.45-.54,18.07-4.22,25.28,1.27ZM143.43,349.94c-7.43-2.22-6.46,9.46-.2,5.74,2.83-1.69,2.73-4.98.2-5.74Z"/>
          <path class="cls-102" d="M180.69,402.63c-.69,3.6.82,5.48,3,8-9.98,1.41-20,2.74-29.99,4,.64-4.14,4.44-5.34,2-9.99,8.4.56,16.67-1.94,25-2.01Z"/>
          <path class="cls-145" d="M132.69,443.63c8.21.31,19.16-6.06,24.76,2.49-3.07,9.29-15.8,8.31-23.76,7.51-.18-1.68-.72-9.58-1-10ZM151.82,447.64c.06-4.13-6.42-4.13-6.36,0-.06,4.13,6.42,4.13,6.36,0Z"/>
          <path class="cls-71" d="M129.69,405.63c8.78.83,18.46-5.84,24.95,2.62-3.59,9.49-16.5,7.16-24.95,8.38v-11ZM149.59,410.54c-2.29-8.27-10.94-2.33-4.39,3.09l4.39-3.09Z"/>
          <path class="cls-5" d="M149.69,373.63c-8.64-4.38-15.52,1.37-8,9-5.2,1.08-9.59,1.29-15,1l1.15-10.87c7.75,1.52,16.06-5.63,21.86.86Z"/>
          <path class="cls-147" d="M166.69,334.63c1.09-.49,8.67-5.46,8.99-5-.12,10.46,4.76,13.62-4.99,20l-4-15Z"/>
          <path class="cls-194" d="M181.69,525.63l-2,2.99c1.33.02,2.66.03,4,.01l-37,7c2.13-7.52,27.79-8.44,35-10Z"/>
          <path class="cls-137" d="M111.69,344.63s10.34-.01,10.34-.01c.8.22.8,1.36.66,2.01-.02.09-1.02-.2-1.01,1.55,1.38,15.91,2.89,15.44-12.99,13.45,2.21-3.57,10.32-3.79,10.78-8.65.4-4.18-6.05-5.25-7.78-8.35Z"/>
          <path class="cls-18" d="M209.69,464.63c1.62-.17,5.32,1.17,7,2-16.89-.53-33.97.84-50.58,3.97-1.86.33-4-1.13-3.42,2.03-2.15-.22-2.83-2.2-5-3,16.66-2.14,35.15-6.22,52-5Z"/>
          <path class="cls-14" d="M172.69,351.63c1.25,2.65,7.27,3.76,5,7-9.88.48-20.07,2.14-30,3,8.47-3.11,17.15-5.42,25-10Z"/>
          <path class="cls-150" d="M151.69,454.63l2.01,3-3,.99h6.99c-3.19.42-22.72,4.32-24,3.02-.17-1.63.22-3.39,0-5.01,5.71-1.87,12.27-.36,18-2Z"/>
          <path class="cls-26" d="M209.69,454.63c2.99-.22,5.9-1.51,8.99-1l1.01,11c-.42,0-9.99,0-10,0v-10Z"/>
          <path class="cls-39" d="M149.69,373.63c5.29,5.92-2.9,7.95-8,9-7.52-7.63-.64-13.38,8-9Z"/>
          <path class="cls-236" d="M192.69,400.63l14.86-1.85,3.13,7.85c-3.77-.69-8.13,1.3-11.99,2l-1.01-7.99c-1.64.02-3.35-.13-4.99,0Z"/>
          <path class="cls-193" d="M210.69,476.63c11.77-.43,7.17,2.81,8.01,12.01-2.33.06-4.68-.08-7.01,0-.21-3.99-1.76-6.99,0-10.99-2.99-.02-6,0-9,0l.55-.91c2.47-.18,4.98-.14,7.45-.09Z"/>
          <path class="cls-218" d="M191.69,378.63c1.33,2.52,2.54,5.15,3,8-4.09,1.01-6.96,1.36-11,2,1.49-2.56-.96-5.55-2-8,2.89-.35,6.7-1.76,10-2Z"/>
          <path class="cls-107" d="M192.69,400.63c1.64-.12,3.35.03,4.99,0l1.01,7.99c-3.08.56-6.21.55-9,1-2.28-6.34-1.4-6.62-8-7,3.01-1.13,7.76-1.77,11-2Z"/>
          <path class="cls-183" d="M209.69,513.63c10.51,1.63,9.4-1.22,7.95,8.94-8.95.31-18-.24-26.95.06,5.28-2.51,13.06-.38,19.01-.99.2-2.61-.29-5.42,0-8.01Z"/>
          <path class="cls-74" d="M206.69,431.63c8.85-2.12,8.74-1.38,9.94,7.58.27,2.07-.03,1.19-1.44,1.4-2.53.37-4.96.59-7.5,1.02l-1.06-8.94-3.94-.06c.94-.15,2.04-.78,4-1Z"/>
          <path class="cls-94" d="M204.69,475.63c1.97-.12,4.05.19,6,0v1c-2.47-.05-4.97-.1-7.45.09l-.55.91c-13.04-.15-24.33,1.78-37,4l-5-1.01,1-.99c14.37-1.21,28.5-4.98,43-4Z"/>
          <path class="cls-48" d="M210.69,499.63c-.02.67.03,1.34,0,2-13.04-.25-26.04.24-39,2-1.22-.92-2.66-1.22-4-2,14.35-1.91,28.57-1.67,43-2Z"/>
          <path class="cls-26" d="M200.69,410.63c2.82-.37,5.49-1.75,8.34-2.06,2.31,2.36,3.28,5.72,2.55,8.96-3.03.34-5.95,1.42-8.89,2.1,1.23-3.9.62-5.94-2-9Z"/>
          <path class="cls-184" d="M207.69,443.63c1.62-.15,8.54-.99,9.06-.59l1.94,7.01c-.55,1.09-9.06,2.59-11,2.58,1.51-2.74,1.51-6.26,0-9Z"/>
          <path class="cls-204" d="M172.69,351.63c1.74-1.02,3.43-3.17,4.99-4.52l3.01.53c-2.37,1.41,6.67,8.59,5,9.98-1.5.26-6.54,1.2-7.99,1.01,2.27-3.24-3.75-4.35-5-7Z"/>
          <path class="cls-132" d="M210.69,501.63c1.47.12,7.78.64,8.06,1.58-1.3,8.96,2.72,9.59-8.06,8.42.25-3.29-.13-6.7,0-10Z"/>
          <path class="cls-171" d="M216.69,466.63c4.63.72,3.14,4.5,1.86,7.86-5.11-.07-8.97,1.83-13.86,1.14.68-1.96,5.53-.54,6.01-.99v-8.01c1.89.05,4.25-.27,5.99,0Z"/>
          <path class="cls-63" d="M202.69,523.63c.68,1.95,5.54.54,6.01,1v3.99c-8.97-.09-18.06.15-27.01,0,5.84-4.11,15.5.56,20-3.99-2.66-.04-5.34.02-8-.01,1.95-1.77,6.21-1.04,9-1Z"/>
          <path class="cls-97" d="M194.69,388.63c8.07-.9,7.66-.26,10.97,6.51-.13,1.91-7.36,2.13-8.97,2.49l-1.14-7.88c-.49-.44-2.02-.09-2.86-.12.56-.46,1.27-.92,2-1Z"/>
          <path class="cls-184" d="M203.69,421.63c3-.48,5.98-1.5,8.98-2l.59,8.07c-.88.75-5.73,1.91-7.57,1.93,2.46-3.99-.58-5.6-3-8,.33-.05.68.05,1,0Z"/>
          <path class="cls-177" d="M202.69,432.63l3.94.06,1.06,8.94c-2.94.5-6.07.58-9,1,3.5-1.53,1.62-5.74,2-9.01h-3c1.49-.24,3.09-.7,5-.99Z"/>
          <path class="cls-236" d="M211.69,490.63c2.18.22,4.53,1.46,6.99,1.01v8c-2.64.04-5.33-.07-7.99,0,.11-3.22,1.49-6.4,0-9,.33.02.67-.03,1,0Z"/>
          <path class="cls-85" d="M209.69,523.63c1.63.19,4.79,1.63,7.07,1.43l.92,6.57-12.99-3h4s0-4,0-4c-.47-.46-5.33.95-6.01-1,2.25.03,4.86-.25,7,0Z"/>
          <path class="cls-180" d="M207.69,443.63c1.51,2.74,1.51,6.26,0,9-1.58.22-3.42-.22-5,0l-1-8c1.96-.37,4.01-.81,6-1Z"/>
          <path class="cls-83" d="M189.69,409.63c-2.01.32-3.95.71-6,1-2.18-2.52-3.69-4.4-3-8,6.69.12,6.92.29,9,7Z"/>
          <path class="cls-87" d="M183.69,359.63c3.8.13,6.23,1.15,7.9,5.62.82,2.2-3.59,2.07-4.9,2.38-3.24-5.22-3.54-6.86-10-7,1.33-1.67,4.86-1.07,7-1Z"/>
          <path class="cls-91" d="M191.69,378.63c2.03-.15,4.05-.28,6.06-.52l2.92,7.49c-1.85.95-4.28.62-5.98,1.04-.46-2.85-1.67-5.48-3-8Z"/>
          <path class="cls-157" d="M201.69,444.63l1,8c-1.45.21-3.1.74-5,1l-2.01-7.99c2.58.53,3.66-1.6,6.01-1.01Z"/>
          <path class="cls-186" d="M45.69,510.63c-.19-10.79-.16-21.71-.02-32.52.02-1.7-.64-4.43,1.02-5.48-.26,10.81.16,21.69.02,32.52-.02,1.7.64,4.43-1.02,5.48Z"/>
          <path class="cls-103" d="M182.69,399.63l-.99-8,3.47-.03,1.52,8.04c-1.23.2-2.75-.19-4,0Z"/>
          <path class="cls-86" d="M197.69,433.63h3c.03,4.2,1.27,10.96-5.01,8.48l2.02-8.48Z"/>
          <path class="cls-81" d="M181.69,380.63c1.04,2.45,3.49,5.44,2,8-.66.03-2.22-.05-2.91-.07l-1.09-7.93c.65-.08,1.35.08,2,0Z"/>
          <path class="cls-13" d="M202.69,477.63v11c-20.8.65-41.37,2.79-61.5,8.11-3.38-.22-5.87-9.89-.5-10.11,20.82-2.81,40.59-9.8,62-9Z"/>
          <path class="cls-78" d="M134.69,537.63l-14,3-6.01-42.49c.73-3.89,7.9-3.67,10.52-6.5,4.44,13.73,4.38,32.85,9.49,45.99Z"/>
          <path class="cls-146" d="M210.69,490.63c1.49,2.6.11,5.78,0,9-14.43.33-28.65.09-43,2-7.1-7.83-17.19.26-26,1,.01-.21-1.78-2.54-1-3.99,22.79-4.17,46.63-9.75,70-8.01ZM205.68,491.64h-4.99s-1.01,6.98-1.01,6.98h5s.99-6.98.99-6.98Z"/>
          <path class="cls-205" d="M139.69,506.63c1.87,9.93,3.63,19.95,4.97,29.97l-8.5.06-8.35-45.91,7.36-3.13c3.54,5.16,2.67,12.93,4.52,19Z"/>
          <path class="cls-190" d="M167.69,501.63c1.34.78,2.78,1.08,4,2-3.57,1.17-3.6,6.33-5.71,8.06-3.82,2.6-19.26,6.25-24.29,5.94-.38-4.84-3.74-11.08,0-15,8.82-.74,18.89-8.83,26-1ZM143.82,514.49c8.27-.58,20.84-1.18,23.74-10.38-7.09-7.26-15.91-.37-24.3.4l.56,9.98Z"/>
          <path class="cls-60" d="M157.69,469.63c2.17.8,2.85,2.78,5,3l.98.52c-.41,1-1.75,7.11-2.98,7.47l5,1.01c-9.93,1.93-19.76,5.79-30,4.99.68-3.85,6.38-4.41,9.49-6l-1.49,3c6.62-.63,17.11-.85,18.08-9.35-7.34-7.34-16.19.21-25.09-.65.18,2.27-.26,4.79,0,7-2.13-2.29-.94-6.88-1-9,7.11-.36,15.32-4.46,22-2Z"/>
          <path class="cls-13" d="M205.69,477.63c1.99.06,4.01-.05,6,0-1.76,4-.21,7.01,0,10.99-2.33.08-4.67-.04-7,0l1-11Z"/>
          <path class="cls-156" d="M205.69,477.63l-1,11c-.67.01-1.33-.02-2,0v-11c1,.01,2-.03,3,0Z"/>
          <path class="cls-228" d="M185.69,424.63l-6,9c-15.41,2.01-30.84,4.23-46.5,4-3.39-.63-5.36-8.3,1.99-9,16.78-1.58,33.68-1.8,50.51-4Z"/>
          <path class="cls-151" d="M136.69,480.63c-.26-2.21.17-4.74,0-7,8.9.86,17.74-6.7,25.09.65-.97,8.5-11.45,8.72-18.08,9.35l1.49-3c-2.06,1.15-5.75,1.79-7.49,3.01.07-1.03-.91-2.25-1-3Z"/>
          <path class="cls-118" d="M192.69,423.63c2.29.64,6.47,4.84,7,7-6.69,1.27-13.25,2.12-20,3l6-9c2.29-.3,4.7-.66,7-1Z"/>
          <path class="cls-37" d="M202.69,421.63c2.42,2.4,5.46,4.01,3,8-2.39.57-3.95.61-6,1-.53-2.16-4.71-6.36-7-7,3.23-.48,6.69-1.49,10-2Z"/>
          <path class="cls-40" d="M195.69,420.63c-2.03.38-3.96.68-6,1l2.01-9c1.76-1.69,5.89,6.04,3.99,8Z"/>
          <path class="cls-16" d="M200.69,455.63c1,.04,2.01-.06,3,0l1.02,7.49-3.45.57-2.57-8.06c.65-.04,1.34-.02,2,0Z"/>
          <path class="cls-155" d="M192.69,434.63l.64,1.13c-4.3.02-11.74,5.42-14.64.88,1.71.59,2.98-.77,4-1.01,3.06-.73,7.21-.45,10-1Z"/>
          <path class="cls-134" d="M63.69,438.63c-7.29-5.02-1.72-8.64-.99-14.99,2.39-.43.37,12.63.99,14.99Z"/>
          <path class="cls-148" d="M197.69,501.63l-2.99,8.99,8.42.02.58-9.02c2.31.06,4.7-.18,7,0-.13,3.3.25,6.71,0,10-22.05-1.05-44.08,1.94-64.93,8.59-3.2.45-1.94.25-2.07-2.59,44.78-5.92,2.63-15.56,54-16Z"/>
          <path class="cls-72" d="M191.69,513.63l-5,9c-13.85.9-26.94,5.32-40.45,8.03l-1.46-7.94c15.45-5.12,30.59-8.43,46.91-9.1Z"/>
          <path class="cls-23" d="M202.69,513.63l-1,8c-3.5.09-8.33-.89-11,1-1.33.06-2.68-.09-4,0l5-9c3.61-.15,7.38-.11,11,0Z"/>
          <path class="cls-124" d="M209.69,513.63c-.28,2.59.2,5.39,0,8.01-2.66.05-5.35-.07-8.01,0l1-8c2.32.07,4.7-.17,7,0Z"/>
          <path class="cls-76" d="M193.69,524.63c2.66.03,5.34-.03,8,.01-4.5,4.55-14.16-.12-20,3.99-.65-.07-1.34.05-2-.01l2-2.99c4.26-.45,7.29-1.05,12-1Z"/>
          <path class="cls-213" d="M143.43,349.94c2.53.76,2.63,4.05-.2,5.74-6.26,3.72-7.23-7.96.2-5.74Z"/>
          <path class="cls-196" d="M151.82,447.64c.06,4.13-6.42,4.13-6.36,0-.06-4.13,6.42-4.13,6.36,0Z"/>
          <path class="cls-192" d="M149.59,410.54l-4.39,3.09c-6.55-5.42,2.1-11.35,4.39-3.09Z"/>
          <path class="cls-217" d="M210.69,466.63v8.01c-.47.46-5.32-.97-6,.99-14.5-.98-28.63,2.79-43,4l1.98-6.48-.98-.52c-.58-3.16,1.56-1.69,3.42-2.03,14.69-2.64,29.57-4.38,44.58-3.97Z"/>
          <path class="cls-141" d="M203.69,501.63l-.58,9.02-8.42-.02,2.99-8.99c1.99-.04,4.01-.05,6,0Z"/>
          <polygon class="cls-92" points="205.68 491.64 204.69 498.63 199.69 498.62 200.7 491.64 205.68 491.64"/>
          <path class="cls-90" d="M143.82,514.49l-.56-9.98c8.39-.77,17.21-7.66,24.3-.4-2.9,9.21-15.47,9.81-23.74,10.38ZM162.59,504.73c-4.38-2.33-8.35-.01-5.75,4.75l3.75.02.1-2.89,1.98,1.02-.08-2.9Z"/>
          <path class="cls-34" d="M162.59,504.73l.08,2.9-1.98-1.02-.1,2.89-3.75-.02c-2.6-4.76,1.37-7.08,5.75-4.75Z"/>
        </g>
      </g>
    </g>
  </g>
</svg>