<?xml version="1.0" encoding="UTF-8"?>
<svg id="Layer_2" data-name="Layer 2" xmlns="http://www.w3.org/2000/svg" viewBox="0 0 199.21 252.95">
  <defs>
    <style>
      .cls-1 {
        fill: #252525;
      }

      .cls-2 {
        fill: #141414;
      }

      .cls-3 {
        fill: #2a2a2a;
      }

      .cls-4 {
        fill: #3e3e3e;
      }

      .cls-5 {
        fill: #080808;
      }

      .cls-6 {
        fill: #1e1e1e;
      }

      .cls-7 {
        fill: #383838;
      }

      .cls-8 {
        fill: #050505;
      }

      .cls-9 {
        fill: #363636;
      }

      .cls-10 {
        fill: #3a3a3a;
      }

      .cls-11 {
        fill: #454545;
      }

      .cls-12 {
        fill: #373737;
      }

      .cls-13 {
        fill: #202020;
      }

      .cls-14 {
        fill: #212121;
      }

      .cls-15 {
        fill: #0d0d0d;
      }

      .cls-16 {
        fill: #1a1a1a;
      }

      .cls-17 {
        fill: #191919;
      }

      .cls-18 {
        fill: #0a0a0a;
      }

      .cls-19 {
        fill: #151515;
      }

      .cls-20 {
        fill: #fefefe;
      }

      .cls-21 {
        fill: #070707;
      }
    </style>
  </defs>
  <g id="Layer_1-2" data-name="Layer 1">
    <g>
      <path class="cls-20" d="M120.99,107.96c.15,3.89-.32,7.49,1.03,11.34-3.54,3.62-4.48,9.69-7.62,14.57-5.74,8.91-11.7,9.37-13.96,22.04-1.67,9.39-.04,16.56,7.02,23.07,4.82,4.45,10.84,5.01,14.08,10.92,4.9,8.96,2.25,21.91,5.13,31.87,1.94,6.7,7.82,18.11,15.05,19.95,12.41,1.08,9.7-2.39,18.93,7.08,3.55,2.25,11.57,4.47,15.71,4.12,9.58-.82,24.86-14.1,22.61-24.96-5.25,7.73-11.96,6.97-19.67,3.18-22.57-11.11,3.58-29.25,4.73-43.63-.14-17.13-8.88-11.8-2.14-27.14,1.8-14.84-10.47-15.91-11.77-25.16-.26-1.86,4.37-8.31,4.86-12.75.96-8.81-4.24-26.2-9.19-33.81-5.65-8.69-12.02-11.26-14.57-22.43C146.84,10.21,53.89-23.69,54.83,19.8c-23.52,11.55-37.44,49.6-36.82,74.65.26,5.33,5.39,26.66,4.83,28.78-.37,1.37-4.53,5.72-5.71,8.36-2.66,15.77-9.38,12.52-15.64,26.36-3.48,11.06,2.56,17.69,3.51,28.01l-4.99-.5c5.5,7.88,16.23,3.82,23.39.4,17.34-8.26,23.38-14.33,27.6-32.9,9.73-20.55-22.96-49.92-13.51-72.99,1.93.02,4.76,10.26,6.5,7.99-1.54-9.1,5.5-15.58,8.5-23,.97-2.41,2.25-10.16,2.71-10.78,2.69-1.75,9.17-3.68,12.76-5.75,2.14-1.71,3.01-5.27,6.02-6.07,6.74,1.05,11.89-.74,18.88.74,4.11,25.75,26.75,41.58,28.14,64.86Z"/>
      <path class="cls-8" d="M50.99,152.96c-4.22,18.57-10.26,24.64-27.6,32.9-7.17,3.41-17.89,7.47-23.39-.4l4.99.5c-.94-10.31-6.99-16.95-3.5-28.01,6.27-13.86,12.97-10.58,15.64-26.36,1.18-2.64,5.35-6.99,5.71-8.36.57-2.12-4.57-23.45-4.83-28.78-.62-25.05,13.31-63.09,36.82-74.65-.8-43.61,92.1-9.37,96.4,46.42,2.54,11.17,8.92,13.74,14.57,22.43,4.95,7.61,10.16,25,9.19,33.81-.49,4.44-5.12,10.89-4.86,12.75,1.3,9.25,13.57,10.32,11.77,25.16-6.75,15.25,2.02,10.11,2.14,27.14-1.16,14.38-27.3,32.52-4.73,43.63,7.7,3.79,14.42,4.55,19.67-3.18,2.25,10.86-13.04,24.14-22.61,24.96-4.14.35-12.17-1.87-15.71-4.12-9.21-9.47-6.61-5.99-18.93-7.07-7.23-1.84-13.1-13.25-15.04-19.95-2.89-9.96-.23-22.91-5.13-31.87-3.24-5.91-9.25-6.47-14.08-10.92-7.06-6.52-8.7-13.68-7.02-23.07,2.26-12.67,8.22-13.13,13.96-22.04,3.14-4.88,4.08-10.95,7.62-14.57-2.1-6.89-.37-14.43-1.03-21.34,10.47,16.73,34.24,15.09,44,32-12.53-13.26-30.93-13.56-42.99-27-.08,26.36,15.39,52.07,41.76,58.72,3.56,1.2,8.06-.05,10.74,4.27,2.79,1.24,1.35-5.27-.05-6.95-4.75-4.63-26.27-6.9-28.45-16.04,7.84,7.73,23.82,8.13,30.41,16.08.97,1.79.5,5.34,2.57,5.92,5.71-17.21-10.79-20.11-18.99-30.99.17-.62-.48-2.03.49-1.99l9.01,7.99c1.72-1.39-1.03-3.07-1.51-3.99,2.31-8.16,7.72-12.97,4.52-22.03-2.89-8.17-13.53-8.23-17.53-15.46l15,8.49c.04-11.14-8.08-19.71-14.49-28-2.91,9.02,4.67,13.6,5.01,18.99-9.09-8.21-6.83-21.65-11.94-32.06-4.55-8.94-13.42-14.55-22.06-18.94-4.49-3.33-10.92-10.12-14.52-14.48,6.65,3,11.12,9.98,17.06,13.95,8.27,2.51,12.65,7.2,18.94,12.54-4.64-20.95-25.12-42.62-44.48-50.02-12.22-.68,26,28.29,26.49,30.02-15.67-6.71-28.08-19.7-39.49-32-3.4-2.36-13.9-5.47-17.92-4.95-1.89.25-10.34,3.1-7.75,4.79-1.7.64-5.07,2.38-3.35,4.16,18.94-9.16,33.22-3.03,34.55,18.47.1,1.6.75,6.85-1.03,7.54-3.61-44.84-52.98-23.93-27.51,2-1.95-11.53,4.21-19.67,16.49-17.99.7,3.36-2.25,1.58-3.99,1.99-9.2,2.19-12.82,7.95-7.83,16.83,6.15.69,12.28.22,18.41,1.13,3.92.58-.68-7.61-2.03-9-2.74-2.83-5.88-2.5-8.55-4.95,14.54-1.07,14.14,17.13,17,26l-1,1c-1.1-3.61-2.08-7.25-3.14-10.86-4.86-1.37-8.95-.31-13.36-.14-11.05-3.12-6.69,5.9-17.49,8l-2-1c3.11-1.26,5.69-3.67,8.98-4.06l-.71-1.76,1.66-.22.07-1.94c-18.09-8.24-7.47-25.87-21.99-15.02-15.82,12.19-23.19,33.64-25.01,53.01l-1.97-1.01c-5.55,22.11,10.89,45.81,2.99,66.99.18-5.93.44-11.67-2.51-16.99-13.79,23.2,10.37,26.97,9.98,49.98,9.78-5.16,16.48-14.62,15.53-25.98l1,2.99c1.6-.24,1.75-1.67,1.99-3h1ZM121.99,166.96c3.54,1.61,20.78,10.83,22,11l3.99,7-3-1.49c8.69,12.79-5.08,30.45,8,40-12.88-2.34-6.38-19.68-7.02-28.99-1.88-24.48-30.87-19.24-36.03-33.97-.8-2.28-1.21-13.36-5.84-6.94-4.39,6.09-1.91,16.61,2.9,21.88,4.12,4.52,16.66,9.3,18.98,13.02,1.68,2.7-2.81-.74-1.97,1.96,3.13,10.15,2.65,31.11,8.44,37.57,2.57,2.87,7.65,3.41,8.54,6.96-.97-.1-3.48-.39-3.99.49,4.02,4.51,11.56,5.26,17.27,4.28,5.23-1.06,8.17-6.04,12.73-7.76l-10.99,9.48c6.09,9.13,21.24,11.68,29.99,5.01l-5.99-2.48c8.39,1.22,14.35-1.64,15.98-10.01-7.71,4.83-17.64.08-23.98-5l6.98,9.5c-4.42.27-8.76-7.68-9.94-12.06-6.23-23.19,21.39-30.17,9.94-51.44-17.18-22.2-32.17,3.68-55.9-49.58-.54-1.05.51-1.88-2.09-1.42-5.13,12.67-21.25,37.21.99,43ZM14.99,144.97c-1.95-.51-1.94.77-2.82,1.67-7.49,7.56-11.35,14.71-8.9,25.55,1.19,5.26,5.62,9.77,2.72,15.76,9.2.87,17.14-3.95,13-13.99,4.24-.43,2.32,8.73,7.03,5.53,9.3-6.33-17.27-25.4-11.04-34.53Z"/>
      <path class="cls-5" d="M61.25,50.11l2,1c-10.6,4.43-5.81,3.34-9.51,13.99-3,7.42-10.04,13.91-8.5,23-1.74,2.27-4.57-7.97-6.5-7.99-9.46,23.08,23.23,52.44,13.51,72.99h-1c1.37-24.89-18.52-45.31-15.91-70.42.49-4.14,1.88-10.67,6.91-9.57v7.99c1.17,1.18,3.61-7.32,4.12-8.38,1.34-3.29,11.72-17.1,4.89-17.64v-.96c2.95-2.16,6.8-2.56,9.99-4.02Z"/>
      <path class="cls-5" d="M101.99,63.96c4.72,8.19,9.38,15.56,16.99,21.51h-3.99c4.67,6.88,7.22,14.14,5.99,22.49-.87-20.95-17.68-31.91-25-54l1-1c.88,2.74,3.59,8.18,5,11Z"/>
      <path class="cls-1" d="M140.47,234.65c-.7-3.59-5.75-4.39-8.17-7.39-5.44-6.75-3.87-27.66-6.46-37.96-.69-2.75,3.61.93,2.07-1.86-2.12-3.84-14.4-9.28-18.27-14-4.52-5.51-6.45-16.15-1.75-22,4.96-6.17,4.79,4.92,5.46,7.23,4.38,14.97,33.6,11.27,34.2,35.81.14,9.31-7.24,26.34,5.49,29.32-12.57-10.22,2.11-27.14-5.9-40.36l2.92,1.65-3.62-7.2c3.96.75,5.46,1.3,9.83,3.52l-2.17,2.41-2.82-2.66,2.59,17.15,3.13-11.85c4.99-.4,11.28,4.02,15.88,2.32,1.54-.57,3.53-4.02,5.91-4.03,1.75,0,2.24,2.48,4.22,2.07.37-.35-1.23-9.55-1.47-10.09,10.32,21.84-17.63,27.37-12.63,50.85.95,4.44,4.86,12.61,9.29,12.57l-6.48-9.86c6.06,5.41,15.73,10.67,23.68,6.25-2.08,8.28-8.17,10.81-16.49,9.16l5.85,2.79c-9.08,6.21-24.08,2.87-29.68-6.57l11.47-8.89c-7.21,3.73-14.36,10.89-23.33,5.77,4.24.67,9.76.98,12.19-3.36-4.47.81-11.17,1.45-14.98-.8ZM132.41,216.23c-4.29-.97-.33,4.01.76,5.49,7.01,9.46,18.04,9.03,28.63,7.03-8.52-2.39-25.44-3.29-29.4-12.52Z"/>
      <path class="cls-16" d="M134.18,50.93c23.49,13.75,12.58,31.47,26.3,47.11-.3-5.32-7.89-10.07-4.93-19.01,6.38,8.32,14.46,16.91,14.37,28.06l-14.96-8.55c3.97,7.25,14.62,7.35,17.47,15.53,3.16,9.07-2.27,13.86-4.62,22.01-11.82-28.88-40.47-15.33-52.78-50.73l3.99.03c-3.96-2.43-6.39-6.27-8.95-9.54l3,1.5c-.67-3.07-4.27-5.59-5.45-8.55-2.57-6.41,7.33-1.34,5.52-6.95,2.01,4.31,13.68,2.64,14.81-.62,1.74-5.03.07-6.34,6.23-10.29ZM164.9,113.06c-12.82-20.98-31.24-13.08-47.79-44.2,6.01,25.1,32.28,28.04,47.79,44.2Z"/>
      <path class="cls-19" d="M79.99,22.96c1.74-.42,4.7,1.36,3.99-1.99-12.09-1.82-18.55,6.67-16.49,17.99-25.48-25.96,23.92-46.81,27.51-2,1.78-.69,1.13-5.94,1.03-7.54-1.33-21.49-15.6-27.62-34.55-18.47-1.72-1.78,1.64-3.52,3.35-4.16-2.6-1.69,5.86-4.55,7.75-4.79,4.02-.52,14.52,2.59,17.92,4.95,11.4,12.29,23.83,25.3,39.49,32-.52-1.77-38.69-30.67-26.49-30.02.66,2.64,3.33,1.41,6.18,2.82,15.32,7.56,22.93,17.23,31.32,31.2l-9-4.99,3.01,5.51c-2.98.86-2.3,2.19-1.01,4.48-8.61-.8-14.09-12.34-22.01-15.49,5.83,7.1,13.51,15.02,22.01,18.49l-7.6.9-1.84,7.16c-6.18,3.77-14.58-.42-20.06,4.92l-3.49-4.98.99,5c-8.78-10.66-3.75-37.52-22-37-3.09.23-4.42.61-5.02,3.99-6.23-1.07,3.13-6.71,5.02-7.99Z"/>
      <path class="cls-17" d="M63.25,49.11c-3.72,2.25-8.36,2.47-11.99,5.02v.96c6.83.54-3.55,14.33-4.89,17.64-.51,1.06-2.96,9.56-4.11,8.38v-7.99c-5.04-1.1-6.44,5.43-6.93,9.57-2.14,18.16,8.37,33.69,12.91,50.42l-2.02-1.48,1.01,7.48-4.98-.99c-.51.36-1.23,7.03-1.9,8.63-1.05,2.51-3.96,1.86-3.12,5.37-1.14-11.53-7.8-23-7.01-34.99-4.08,8.23,3.36,22.76,4.01,31.99-5.4-.51-4.09,4.1-6.5,6.98l-5.49-6.97c.06,1.64.4,3.47.99,4.99-7.71-6.95-4.92-17.06-.49-24.99,2.94,5.32,2.68,11.06,2.51,16.99,7.89-21.19-8.54-44.88-2.99-66.99l1.97,1.01c-.46-5.61,1.63-10.85,3.01-16.01l1.18,1.77,1.81-.77c.72,2.22-3.48,8.68,1,8,4.55-12.76,15.69-30.62,32.01-24Z"/>
      <path class="cls-14" d="M153.25,162.11c10.1,3.11,21.36,2.51,27,13-.05-.1-1.92-1.09-1.99-1l.98,6-5.07-.59-.96,4.55c-14.7-1.25-71.88-15.42-56.38-38.94l6.71,1.86,5.21-5.86c8.17,9.67,11.86,17.09,24.5,20.98Z"/>
      <path class="cls-6" d="M166.25,130.11c2.36,2.5,1.29,2.64,3,6,.47.92,3.23,2.61,1.51,3.99l-9.01-7.99c-.98-.03-.32,1.38-.49,1.99-1.22,4.35,2.19,4.19,2.01,6.49l-2.94.56.7,5.5-5.78,1.46c-2.99-1.54-5.46-2.59-7.99-5-1.15,1.25,3.03,4.24,3.99,5l-1.49,3.99-6.49-4.99,2.99,6c-15.36-11.07-22.55-31.61-22.99-50,12.06,13.44,30.46,13.74,42.99,27Z"/>
      <path class="cls-14" d="M16.25,145.12c-6.24,9.13,20.34,28.2,11.04,34.53-4.71,3.21-2.79-5.95-7.03-5.53,4.14,10.04-3.8,14.85-13,13.99,2.89-5.99-1.53-10.51-2.72-15.76-2.45-10.84,1.4-17.99,8.9-25.55.89-.89.87-2.18,2.82-1.67Z"/>
      <path class="cls-5" d="M49.25,27.11c14.5-10.86,3.94,6.82,21.99,15.02l-.07,1.94-1.66.22.71,1.76c-2.67.22-4.5,1.92-6.98,3.06-16.32-6.62-27.46,11.24-32.01,24-3.59.9-1.56-4.23-.99-6,4.66-14.5,10.34-23.37,26.99-24.01l-10.99-1c2.38-3.43,8.12-4.2,12-5,.93-2.66-1.77-1.59-2.01-2.65-1.18-5.22,1.37-6.78-6.99-7.34Z"/>
      <path class="cls-13" d="M51.25,151.11c-.01,1.8.29,4.55-1.99,5l-1-2.99c.95,11.36-5.75,20.82-15.53,25.98-.11-4.69-1.54-10.82-3.48-14.99,5.57,3.62-3.32-8.43,5-13,2.74,5.27.15,13.08,1.01,18.99,1.88-5.37,2.45-12.43,1.99-17.99,5.58.09,8.92-4.7,9.01-10l4.99,9Z"/>
      <path class="cls-2" d="M49.25,27.11c8.36.57,5.81,2.12,6.99,7.34.24,1.06,2.95-.02,2.01,2.65-3.88.8-9.62,1.56-12,5l10.99,1c-16.65.64-22.33,9.51-26.99,24.01v-2s-1.82.77-1.82.77l-1.18-1.77c3.73-13.96,10.04-28.36,22-37Z"/>
      <path class="cls-15" d="M123.25,167.11c-22.24-5.81-6.12-30.32-.99-43,2.59-.46,1.55.37,2.08,1.42,7.17,15.3,13.48,27.45,28.91,36.58-12.64-3.89-16.33-11.31-24.5-20.98l-5.21,5.86-6.71-1.86c-6.15,7.89-.86,17.15,6.41,21.98Z"/>
      <path class="cls-5" d="M79.99,22.96c-1.89,1.28-11.25,6.92-5.02,7.99.6-3.38,1.93-3.76,5.02-3.99,2.66,2.46,5.8,2.12,8.55,4.95,1.35,1.39,5.95,9.58,2.03,9-6.13-.91-12.26-.43-18.41-1.13-4.99-8.87-1.37-14.63,7.83-16.83Z"/>
      <path class="cls-13" d="M160.25,150.11c4.28.04,2.19-4.42,3.94-6.58,2.58-2.01,7.38,4.58,7.06-.42,8,6.52,12.12,10.27,8.99,21.99-2.07-.57-1.6-4.13-2.57-5.91-2.25-4.14-12.49-6.97-17.42-9.08Z"/>
      <path class="cls-14" d="M154.25,150.11c4.74,2.69,19.43,6.6,21.46,9.04,1.41,1.69,2.84,8.19.05,6.95-2.68-4.32-7.18-3.07-10.74-4.27-3.08-1.03-5.84-2.5-8.77-3.73l2.02-1.51c-1.94-1.82-6.6-2.93-4.02-6.49Z"/>
      <path class="cls-6" d="M140.99,42.96c2.86,2.04,6.82,13.15,6.99,16-1.87-3.4-21.13-12.86-12.98-15.48l-3.01-5.51,9,4.99Z"/>
      <path class="cls-12" d="M171.25,143.11c.32,5-4.48-1.58-7.06.42-2.25,6.54-.38,8.45-8.94,4.58l5.78-1.46-.7-5.5,2.94-.56c.18-2.3-3.24-2.14-2.01-6.49,2.57,4.22,6.49,6.14,10,9Z"/>
      <path class="cls-9" d="M34.25,149.11c.09.64-.08,1.35,0,2-8.33,4.58.57,16.62-5,13-2.3-4.64-7.19-9.29-6.99-14.99l5.49,6.97c2.41-2.88,1.1-7.49,6.5-6.98Z"/>
      <path class="cls-7" d="M146.25,153.11l-2.99-6,6.49,4.99,1.49-3.99c1.15.91,1.74,1.28,3,2-2.58,3.55,2.08,4.66,4.02,6.49l-2.02,1.51c-3.84-1.61-6.48-2.46-10-5Z"/>
      <path class="cls-11" d="M142.25,235.11c3.94,2.04,10.56,1.05,15,0-3.35,6.01-14.97,5.54-18.99.48.51-.89,3.02-.6,3.99-.49Z"/>
      <path class="cls-10" d="M48.25,133.11c1.71,6.28,3.37,11.28,3,18l-4.99-9c-.09,5.3-3.43,10.09-9.01,10-.85-3.51,2.07-2.85,3.12-5.37.67-1.6,1.39-8.27,1.9-8.63l4.98.99-1.01-7.48,2.02,1.48Z"/>
      <path class="cls-3" d="M133.99,50.96c-6.14,3.98-4.47,5.27-6.19,10.31-1.11,3.27-12.78,4.99-14.81.68,1.84,5.6-8.08.57-5.49,6.97,1.19,2.95,4.81,5.46,5.49,8.52-6.35-3.18-10.91-11.45-12-18.49l3.49,4.98c5.48-5.34,13.88-1.15,20.06-4.92l1.84-7.16,7.6-.9Z"/>
      <path class="cls-4" d="M180.25,175.11c.27.52,2.34,9.62,1.99,9.99-1.96.51-2.58-1.95-4.33-1.85-2.38.14-4.19,3.69-5.69,4.34-4.5,1.93-11.01-2.15-15.98-1.49l-2.51,12-3.49-16.99,2.95,2.51,2.04-2.52,17.96,2.96.96-4.55,5.07.59-.98-6c.07-.09,1.94.9,1.99,1Z"/>
      <path class="cls-18" d="M133.23,217.14c4.41,8.99,21.41,9.04,30.01,10.96-10.48,2.56-21.46,3.56-28.96-5.52-1.17-1.42-5.38-6.19-1.05-5.45Z"/>
      <path class="cls-21" d="M166.24,113.11c-15.58-16.1-41.86-18.92-47.98-43.99,16.78,31.15,34.95,22.96,47.98,43.99Z"/>
      <path class="cls-21" d="M37.25,152.11c.46,5.55-.12,12.64-1.99,17.99-.24-6.89.78-14.66-1.01-20.99-.65-9.23-8.09-23.75-4.01-32-.79,11.99,5.87,23.47,7.01,34.99Z"/>
    </g>
  </g>
</svg>