<?xml version="1.0" encoding="UTF-8"?>
<svg id="Layer_2" data-name="Layer 2" xmlns="http://www.w3.org/2000/svg" viewBox="0 0 221.45 712.07">
  <defs>
    <style>
      .cls-1 {
        fill: #111;
      }

      .cls-2 {
        fill: #c6ad1a;
      }

      .cls-3 {
        fill: #030408;
      }

      .cls-4 {
        fill: #050506;
      }

      .cls-5 {
        fill: #f3ea72;
      }

      .cls-6 {
        fill: #0a0e18;
      }

      .cls-7 {
        fill: #485587;
      }

      .cls-8 {
        fill: #171b2d;
      }

      .cls-9 {
        fill: #faf3a7;
      }

      .cls-10 {
        fill: #161d30;
      }

      .cls-11 {
        fill: #bcbbba;
      }

      .cls-12 {
        fill: #232b45;
      }

      .cls-13 {
        fill: #2c3452;
      }

      .cls-14 {
        fill: #cdb32c;
      }

      .cls-15 {
        fill: #272e49;
      }

      .cls-16 {
        fill: #dfcf32;
      }

      .cls-17 {
        fill: #10100f;
      }

      .cls-18 {
        fill: #080910;
      }

      .cls-19 {
        fill: #fafaf8;
      }

      .cls-20 {
        fill: #d0b531;
      }

      .cls-21 {
        fill: #fdeda4;
      }

      .cls-22 {
        fill: #0e121e;
      }

      .cls-23 {
        fill: #b99e0f;
      }

      .cls-24 {
        fill: #05080d;
      }

      .cls-25 {
        fill: #29304e;
      }

      .cls-26 {
        fill: #262626;
      }

      .cls-27 {
        fill: #1a2035;
      }

      .cls-28 {
        fill: #abaeb0;
      }

      .cls-29 {
        fill: #404b79;
      }

      .cls-30 {
        fill: #2a314f;
      }

      .cls-31 {
        fill: #b5b6b7;
      }

      .cls-32 {
        fill: #0f131e;
      }

      .cls-33 {
        fill: #b69a0d;
      }

      .cls-34 {
        fill: #f5e06b;
      }

      .cls-35 {
        fill: #efdc5d;
      }

      .cls-36 {
        fill: #fbe57c;
      }

      .cls-37 {
        fill: #f1dd62;
      }

      .cls-38 {
        fill: #3b3b3b;
      }

      .cls-39 {
        fill: #39446c;
      }

      .cls-40 {
        fill: #0d101c;
      }

      .cls-41 {
        fill: #353638;
      }

      .cls-42 {
        fill: #161a2a;
      }

      .cls-43 {
        fill: #e8d74c;
      }

      .cls-44 {
        fill: #f9e477;
      }

      .cls-45 {
        fill: #0d0d0d;
      }

      .cls-46 {
        fill: #1d1d1d;
      }

      .cls-47 {
        fill: #939695;
      }

      .cls-48 {
        fill: #ead852;
      }

      .cls-49 {
        fill: #222a43;
      }

      .cls-50 {
        fill: #0f1320;
      }

      .cls-51 {
        fill: #4f5e95;
      }

      .cls-52 {
        fill: #e9d84e;
      }

      .cls-53 {
        fill: #272e4a;
      }

      .cls-54 {
        fill: #030305;
      }

      .cls-55 {
        fill: #e4d442;
      }

      .cls-56 {
        fill: #cab023;
      }

      .cls-57 {
        fill: #030508;
      }

      .cls-58 {
        fill: #06080b;
      }

      .cls-59 {
        fill: #fdf7d7;
      }

      .cls-60 {
        fill: #c6ad19;
      }

      .cls-61 {
        fill: #ceb42f;
      }

      .cls-62 {
        fill: #141a2c;
      }

      .cls-63 {
        fill: #6b7070;
      }

      .cls-64 {
        fill: #1b2137;
      }

      .cls-65 {
        fill: #06080f;
      }

      .cls-66 {
        fill: #242424;
      }

      .cls-67 {
        fill: #bca117;
      }

      .cls-68 {
        fill: #313b5e;
      }

      .cls-69 {
        fill: #edda58;
      }

      .cls-70 {
        fill: #fdf3c3;
      }

      .cls-71 {
        fill: #b49704;
      }

      .cls-72 {
        fill: #20263e;
      }

      .cls-73 {
        fill: #f7ef8d;
      }

      .cls-74 {
        fill: #161616;
      }

      .cls-75 {
        fill: #3d4974;
      }
    </style>
  </defs>
  <g id="Layer_1-2" data-name="Layer 1">
    <g>
      <g>
        <path class="cls-33" d="M50.41,155.06c-1.55,1.48-2.23,7.87-2.02,9.54.35,2.76,2.42,3.92,1.88,6.71-.48,2.47-4,5.08-5.11,8.01-.51,7.08-4.33,11.68-5.91,18.59-27.29,1.45-47.4-1.86-36.01-34.52.09-1.51-2.22-2.57-1.74-4.62.58-2.44,4.83-3.03,5.51-5.64,1.13-4.31-2.34-7.33-1.62-11.51C21.19,98.9-30.84,5.22,46.9,0c32.29,10.26,78.17,10.01,111.94,3.12,7.84.36,36.09,11.34,42.6,16.41,18.7,14.57,8.76,49.96,7.94,70.98.95,15.53-3.38,65.73,9.09,72.2-1.19,7.44,3.51,14.73,2.94,22.34-14.4-3.26-30.31,3.27-38.99,15-6.37-9.48-6.98-22.27-10.46-33.08-.54-2-2.29-1.74-2.51-2.63-1.3-5.21-.88-30.79-2.03-32.3-3.59-.67-2.07,3.49-2,5-1.48.77-2.52,2.25-4,3,7.17-24.09,12.67-48.77,14-74,.69,11.06.72,20.01-1.14,31.36-1.24,7.53-6.53,20.4-6.79,26.21-.33,7.28,5.76,20.88,2.91,29.95l12.04,41.47c1.23.95,5.61-4.11,6.99-5,9.27-5.95,18.79-8.65,30-8,.54-4.17-2.21-7.91-2.94-11.55-.43-2.19.45-5.23,0-6.83-.29-1.04-2.69-.22-3.93-2.24-.3-.49-2.84-10.14-2.96-11.14-2-17.93-2.97-40.87-2.23-59.77,2.44-26.62,12.95-71.62-23.96-75.46-8.86-3.1-19.59-4.62-29-5,0,0-18.51-2.09-18.51-2.09-4.54.9-8.9.93-13.49,1.09-23.41-1.24-49.51,4.01-70.98-6.54-6.94-1.74-23.86,4.16-30.02,8.54C-6.96,21.63,10.35,76.09,9.45,100.51c.51,11.81-1.8,24.85,1.98,36.01-.27,2.66-3.76,3.39-4.03,6.06-.23,2.29,1.75,4.77,1.98,7.09.68,7.04-5.81,8.69-5.81,9.87,4.28,2.93-.81,12.08-1.1,16.07-5.25,20.37,20.88,21.1,34.82,20.31,1.46-6.86,5.45-11.56,5.88-18.62.93-2.24,5.64-5.05,5.1-7.61-5.59-4.17-1.29-13.02.15-18.64.27.89,1.47,2.63,2,4Z"/>
        <path class="cls-16" d="M37.41,9.06c.82,3.47,4.99,53.03,0,49-1.48-2.61-7.16-9.59-9.39-12.13-.84-.96-.02-2.53-2.6-1.87,18.85,26.37,8.18,59.17,9.77,89.27,0,0-3.27,6.72-3.27,6.72l-4.49-12.99c-2.79,5.31,2.49,9.87.8,15.3-1.01,3.25-7.35,3.58-7.52,7.31-1.04,2.21,5.12,9.84,6.71,8.38l-4.06-8.33,7.06-3.66c-1.19,6.41,3.48,5.81,5.7,8.29,3.13,3.49-1.77,5.31-1.69,8.23.06,1.99,2.5,2.78,2.89,4.17,1.21,4.35-12.78,8.93-14.87,12.8,2.28,3.17,9.92,1.32,10.85,5.2.72,3-4.51,7.69-3.87,11.3-46.62-1.47-17.92-26.57-25.85-36.51,0-1.17,6.49-2.82,5.81-9.87-.22-2.32-2.21-4.8-1.98-7.09.27-2.66,3.76-3.39,4.03-6.05-3.79-11.17-1.46-24.2-1.97-36.01.2-30.39-20.63-95.38,27.96-91.46Z"/>
        <path class="cls-55" d="M61.41,7.06c4.36,0,10.14.66,14,2-2,.05-4.01-.04-6.01,0,.92,1.81.7,2.58.13,3.1-6.66,5.12.81,22.3.91,29.36,1.98,16.1-4.98,33.78.97,49.53-7.34-.02-14.8.54-22-.99,7.19,10.49,21.64,8.75,32.99,9l-5,.99c.54,3.03,1.31,6.9-2.99,6l5.99.99c-45.63,10.42-32.74-21.55-43-49,4.97,4.06.84-45.32,0-49,7.6-.9,16.4-2.01,24-2Z"/>
        <path class="cls-34" d="M154.41,10.06c9.41.38,20.14,1.9,29,5-4.37-.83-9.52-1.17-13.99-1.99,4.44,9.72-.16,20.21.96,30.52.41,3.78,2.74,7.36,2.56,12.01-.12,3.05-4.38,5.23,2.47,7.46-6.1,31.6.47,49.63-41,43l-.6-2.02h-7.4s2.99-2.98,2.99-2.98c14.98-.62,33.47,4.24,37.99-15-6.84,4.77-14.11,11.94-22.99,8l10.01-1.5-8.01-.51,1.04-2.41-2.1-1.2c3.28-12.79-.49-26.05-.98-38.84-.5-13.02,1.86-27.15-1.96-39.53,3.98.1,8.02-.17,12-.01Z"/>
        <path class="cls-43" d="M75.41,9.06c13.63-.36,27.36.26,41,0-5.7,2.68-13.71.18-20,1.01l1.89,79.89c-1.46,1.72-22.86,1.12-26.89,1.11-5.95-15.75,1.01-33.43-.97-49.53-1.01-9.13-4.55-16.39-3.12-27,.35-2.6,4.17-1.34,2.08-5.46,1.99-.05,4.01.05,6.01,0Z"/>
        <path class="cls-36" d="M197.41,20.06c21.7,13.35,10.82,48.44,9.96,70.46-.74,18.89.22,41.84,2.23,59.77.11,1,2.65,10.65,2.96,11.14,1.24,2.02,3.64,1.2,3.93,2.24-1.19,8.25,2.85,11.15,2.93,18.39-11.22-.65-20.73,2.05-30,8-3.07-4.43-6.43-16.07-4-21l6.99.99-5.99-2c-.95-5.13,7.37-5.02,8.03-9.54,1.04-7.11-9.97-4.29-4.04-13.45,2.77,1.91,3.72-.92,4-1,1.14-.32,6.68-1.31,6.99-.99v7.99c.49-2.9,3.86-5.69,4.01-8.58.23-4.39-4.04-2.54-5.64-5.87-.25-3.33,3.18-7.08,3.64-9.54,2.75-4.96.13-11.46-.04-16.46-.46-13.1,1.49-20.42,3.04-32.54,1.91-14.88,2.67-26.77-.97-41.58-.42-1.69.98-2.91-2.03-2.42,1.81,18,1.22,35.24-2.01,52.99-2.64,11.28-6.78,22.62-1,34,.1,6.29.68,6.18-3,11,1.31-3.03,1.11-3.57.45-3.68-5.99.8-1.24-25.14-2.41-30.86-.21-4.41-1.73-9.59-2.03-13.97-.93-7.8,3.05-19.44-2.68-24.97,2.56-10.76,3.5-11.59,1.58-23.02,0-4.06,2.06-8.99,1.09-13.51h-4.02c-.58-4.6,5.69.55,8.01-1.99Z"/>
        <path class="cls-44" d="M183.41,15.06c6.53,1.24,8.39,1.55,14,5-2.32,2.54-8.59-2.6-8.01,2h4.02c.97,4.51-1.09,9.44-1.09,13.5,1.92,11.45.97,12.25-1.59,23.02,5.74,5.53,1.75,17.16,2.68,24.97,3.42,13.49.78,29.79,1.98,43.02.63,4,4.83-1.04,2.01,5.49-1.96,2.56-4.38,4.69-6.01,7.52l2.07,1.03.94,3.45c-.28.08-1.23,2.91-4,1,3.45-5.19-5.44.47-4.02,5.44l5.99,6.99-7.96,7.57c-2.73-2.49,1.14-6.99-.14-10.32-.6-1.72-3.06-1.95-3.93-3.1-3.44-4.57,2.37-11.28,1.1-15.87-.34-1.24-3.38-1.31-3.81-3.31-.3-1.41,1.69-7.21,1.82-9.86,1.25-22.82-2.62-39.23,7.97-61.53.95-2.32,4.8-5.32,2.51-9-3.59,3.38-5.95,10.86-11.5,11,0-.11-1.38-.87-1.01-2-.52-.36-1.8,1.23-1.99,2-6.85-2.23-2.59-4.41-2.47-7.46.18-4.66-2.15-8.24-2.56-12.01-1.12-10.31,3.48-20.8-.96-30.52,4.47.82,9.62,1.16,13.99,1.99Z"/>
        <path class="cls-69" d="M122.41,9.06c-1.71,1.63-1.25,1.87-1.2,3.66.49,18.12.37,37.35,1.21,55.83.21,4.55,3.54,15.44,1.08,18.93-.98,1.38-3.9-.66-3.09,2.58l5,2.01c-10.79.37-21.87-2.24-32.46.04-8.98.29-19.79-2.16-27.06,2.94-1.37.96-3.46.53-1.48,3.02-6.03-.59-11.68-2.53-15-7.99,12.9,1.52,37.25,2.09,48.89-.12l-1.89-79.89c8.78.39,17.43-.36,26-1.01Z"/>
        <path class="cls-37" d="M154.41,10.06c-3.98-.16-8.02.11-12,.01,3.82,12.38,1.46,26.51,1.96,39.53.49,12.79,4.26,26.05.98,38.84l2.1,1.2-1.04,2.41,8.01.51c-10.78,2.22-23.88,2.28-34.01-2.51-.81-3.24,2.12-1.2,3.09-2.58,2.46-3.48-.87-14.38-1.08-18.93-.84-18.47-.72-37.71-1.21-55.83-.05-1.79-.51-2.02,1.2-3.66,4.59-.15,8.95-.19,13.49-1.09l18.51,2.09Z"/>
        <path class="cls-2" d="M29.41,196.06c-.64-3.61,4.59-8.3,3.87-11.3-.93-3.89-8.57-2.04-10.85-5.2,2.09-3.87,16.09-8.45,14.87-12.8-.39-1.39-2.83-2.18-2.89-4.17-.08-2.93,4.82-4.74,1.69-8.23-2.22-2.48-6.89-1.88-5.7-8.29l-7.06,3.66,4.06,8.33c-1.59,1.46-7.75-6.17-6.71-8.38.17-3.73,6.51-4.06,7.52-7.31,1.69-5.43-3.59-9.99-.8-15.3l4.49,12.99s3.27-6.72,3.27-6.72c-1.59-30.1,9.08-62.9-9.77-89.27,2.59-.66,1.76.91,2.6,1.87,2.23,2.54,7.92,9.51,9.39,12.13.75,1.33,2.76,6.49,3,8-1.51,6.7-1.41,15.58-1.05,22.55,1.15,22.39,8.93,40.82,9.05,62.45-1.44,5.62-5.74,14.47-.15,18.64.53,2.56-4.17,5.37-5.1,7.61-.43,7.06-4.42,11.76-5.88,18.62-2.6.3-5.26.16-7.87.13Z"/>
        <path class="cls-14" d="M161.41,140.06c-9.03,4.58-10.56-.76-16.24.17-16.05,7.9-12.94,15.83-36.76,8.83l1-2c9.53-.16,16.39,1.2,25.24-3.26,35.67-19.59,7.18-25.39-16.24-24.74,2-2.05,5.05-.12,7.58-1.92,3.01-2.14,3.07-9.97,8.42-11.08,40.71,5.58,33.16-7.49,41-39-1.59,24.89-6.87,49.22-14,73Z"/>
        <path class="cls-61" d="M178.41,63.06c.06.97-.88,2.38-1.05,3.44l2.07,1.06-2,.5,1.99,1c-.3.53-1.6,3.66-.5,4l6.5-8c-9.59,24.67-2.72,43.19-7.78,67.4.43,2.01,3.47,2.08,3.81,3.31,1.27,4.58-4.54,11.3-1.1,15.87,6.28,3.09,3.8,5.62,3.02,11.01,0,1.42,1.05,2.28,1.05,2.41.09,1.72.93,3.13,1,4-2.43,4.93.93,16.57,4,21-1.38.88-5.76,5.94-6.99,5l-12.04-41.47c2.85-9.08-3.24-22.68-2.91-29.95.27-5.81,5.56-18.68,6.79-26.21,1.86-11.35,1.82-20.3,1.14-31.36-.34-1.7.05-4.99,1.99-5-.37,1.13,1.01,1.89,1.01,2Z"/>
        <path class="cls-19" d="M165.41,137.06c-.08-1.51-1.59-5.67,2-5,1.15,1.51.74,27.09,2.03,32.3.22.89,1.97.63,2.51,2.63,2.33,8.6,4.39,17.41,6.46,26.08-16.48-24.98-20.72-25.73-13-56Z"/>
        <path class="cls-60" d="M61.41,7.06c-13.04.56-27.13,1.8-40,4C27.57,6.68,44.5.78,51.44,2.52c2.64.66,6.82,3.78,9.98,4.54Z"/>
        <path class="cls-2" d="M40.41,68.06c4.16,28.26,1.25,43.04,36.33,41.15,2.84,1.03.6,3.84.61,6.31,0,3.4,1.54,7.04-.93,9.53-7.34,2.63-22.4,9.17-12.56,18.06,13.41,5.27,30.74,4.85,45.56,3.94l-1,2c-23.64.42-14.02,8.2-37.96-.54-16.65,2.07-8.99-1.62-20.04-5.46-6.72-23.96-9.11-50.07-10-75Z"/>
        <path class="cls-71" d="M40.41,68.06c.89,24.92,3.28,51.04,10,75-.48,0-1.4.81-2,1-2.94-25.03-12.99-51.9-8-78,.1.62-.07,1.35,0,2Z"/>
        <path class="cls-56" d="M134.41,106.06c-5.35,1.12-5.41,8.95-8.42,11.08-2.53,1.8-5.58-.13-7.58,1.92-2.69.15-5.51-.59-8,1-10.53.39-23.96,1.78-34,5,2.47-2.49.94-6.14.93-9.53,1.85-6.91.24-6.68-5.93-6.47,4.85-1.39,12.04-2.42,17-2,15.81.21,30.81-3.51,46-1Z"/>
        <path class="cls-48" d="M104.41,99.06c8.09.38,16.96,1.74,25,2l-2.99,2.99h7.4s.6,2.01.6,2.01c-20.24-4.18-39.96,3.08-59.99.01,4.31.9,3.54-2.97,2.99-6l5-.99c-6.56.17-12.74.19-18.99-1.01,13.65-.02,27.38.36,41,1Z"/>
        <path class="cls-9" d="M136.41,101.06c-3.78-2.63-9.23,1.11-11.98-3.5,5.83-5.32,12.79-3.08,19.98-3.5,8.89,3.93,16.14-3.23,22.99-8-3.98,16.44-17.32,15.13-30.99,15Z"/>
        <path class="cls-73" d="M112.41,92.06c7.04-.46,16.08.19,23,2-5.23.16-6.71-.03-10.98,3.5,2.75,4.61,8.2.87,11.98,3.5-13.14.16-26.89-1.59-40-3.01,3.64-2.9,11.14-5.58,16-5.99Z"/>
        <path class="cls-70" d="M206.41,78.06c-1.55,12.12-3.5,19.44-3.04,32.54.17,5,2.79,11.5.04,16.46.93-5.02-.89-10.96-1.01-15.99l-1,4-1.98-1.01c.16,2.45.95,4.46.99,7.01-8.63-17.25,4.32-33.62,4.01-50.99l1.99,7.99Z"/>
        <path class="cls-59" d="M203.41,127.06c-.45,2.45-3.89,6.21-3.64,9.54,1.61,3.33,5.88,1.48,5.64,5.87-.15,2.9-3.52,5.69-4.02,8.58v-7.99c-.31-.31-5.85.68-6.99.99l-.94-3.45-2.07-1.03c8.27-10.68,11.02-11.01,8.02-25.53l1.98,1.01,1-4c.12,5.04,1.94,10.98,1.01,15.99Z"/>
        <path class="cls-21" d="M201.41,87.06c3.23-17.75,3.81-34.99,2.01-52.99,3-.49,1.61.73,2.03,2.42,3.64,14.8,2.88,26.7.97,41.58l-1.99-7.99c.75,5.94-1.73,11.53-3.01,16.99Z"/>
        <path class="cls-67" d="M184.41,165.06l7.96-7.57-5.99-6.99c-1.41-4.97,7.47-10.63,4.02-5.44-5.93,9.16,5.07,6.34,4.03,13.45-.66,4.52-8.98,4.41-8.03,9.54l5.99,2-6.99-.99c-.07-.87-.91-2.28-1-4Z"/>
        <path class="cls-20" d="M187.41,61.06c.15-3.42-.48-1.96-1.82-.32-1.55,1.88-5.11,6.44-6.18,8.32l-1.99-1,2-.5-2.07-1.06c.17-1.07,1.11-2.47,1.05-3.44,5.55-.13,7.92-7.62,11.5-11,2.3,3.68-1.56,6.68-2.5,9Z"/>
        <path class="cls-33" d="M187.41,61.06c-.82,2.78-6.52,9.67-8.5,12-1.62-3.93,4.61-8.99,6.68-12.32,1.35-1.63,1.97-3.1,1.82.32Z"/>
        <path class="cls-5" d="M112.41,92.06c-4.86.41-12.36,3.09-16,5.99l8,1.01c-13.29-.62-26.69-1-40-1-1.98-2.49.11-2.05,1.48-3.02,7.27-5.1,18.08-2.66,27.06-2.94,5.93-.19,13.49-2.81,19.46-.04Z"/>
        <path class="cls-52" d="M110.41,120.06l-5.99,1.99,4.01.53c-2.23,7.56,1.1,16.47-2.01,23.48l5.99,1.01c-68.38,6.31-68.76-24.05-2-27Z"/>
        <path class="cls-35" d="M118.41,119.06c7.27-.39,30.16.4,33.53,8.03,2.04,4.61-13.35,14.78-17.29,16.71-9.46,4.5-18.16,3.85-28.23,2.26,3.11-7-.22-15.92,2.01-23.48l-4.01-.53c4.3-1.46,9.42-3.71,13.99-2.99Z"/>
        <path class="cls-23" d="M128.41,105.06c-12.62.06-26.7,1.83-40,2,13.27-2.04,26.55-2.36,40-2Z"/>
      </g>
      <g>
        <path class="cls-4" d="M178.41,193.06c21.48,37.96,29.62,91.05,26,134-2.37-52.06-7.04-112.9-43.05-153.58-8.86,5.28-20.3,10.91-30.95,11.58,0-.33.01-.67,0-1,9.66-4.34,22.64-5.28,29.83-13.7,0,0-.84-16.3-.84-16.3-9.66,5.38-20.33,9.42-30.99,12-.12-.61.13-1.41,0-2,10.81-4.3,31.65-7.11,33.95-20.56.47-2.73-3.7.29-3.95.56-4.2,1.2-9.49-2.14-13.06-1.57s-9.83,7.94-15.15,9.87c-6.02,2.19-10.6,1.47-16.79.71-14.28-1.77-11.59-.8-24.58.91-5.83.77-17.99-2.29-25.42-2.91-6.99-.58-6.98-2.64-12.99-4.99-1.1,1.23,4.08,12.53,5.31,13.68,5.12,4.77,25.42,6.05,32.66,7.34l1.03,4.98c9.03-3.38,18.64-5.66,28.37-4.87,1.34.43,4.7,8.76.63,7.87-4.71,1.23-3.31-4.59-5.65-6.08-29.9,3.6-42.08,14.04-66.35,28.08,17.82-42.44.55-32.88,2-53,4.73-3.52,7.54,3.9,11.71,4.78,14.86-.51,11.05-.16,24.02,4,6.03.52,14.2-4.78,24.27-3.78,4.49.45,9.8,3.07,15.19,2.78,10.57-.59,15.16-10.55,21.57-11.6,7.09-.14,10.99,5.23,20.24-3.17-7.74,30.28-3.44,31.08,13,56Z"/>
        <path class="cls-54" d="M121.41,179.06c-.28,3.25.34,6.64-.11,9.89-1.78,1.26-9.46.8-9.9,1.11-.23.17.24,1.72,0,2-1.19,1.45-13.58.63-16,4-6.15,1.41-20.24,9.01-24.83,12.16-.79,1.28.17,5.05-.17,6.84-1.07,2.41-1.97,6.25-3,8-2.4-3.03.61-7.76,1.27-11.24-70.31,29.93-15.76,194.16-27.17,264.13,7.42,3.18,6.29,8.28,4.23,14.63,12.2,25.74-.19,89.07-.27,119.93,8.44,14.61,19.98,34.68,37.94,37.55-.53-3.12,1.56-6.46,2.01-9-2.31,15.12-2.83,30.6-5.57,45.96-.44,2.45,2.02,3.65-1.42,4.54,31.52,39.14,45.23,6.99,75,19.51-34.26-2.56-46.64,16.46-76.75-17.61l5.66-41.3c-18.12-2.27-30.31-24.15-38.69-37.8-2.61-38.34,13.43-85.42-.18-121.85-5.13-77.6-20.79-167.9-6.95-247.93.83-8.19-8.56-28.97-.08-35.51,2.27,1.5-1.5,3.69-1.73,5.61-.27,2.37,2.33,19.98,4.24,20.39,22.7-22.09,47.73-42.6,80.49-46,.32-2.59-3.84-9.11,2-8Z"/>
        <path class="cls-58" d="M204.41,327.06c-.76,120.65-9.79,241.65-5.98,362.29-19.08,13.87-19.37,26.78-47.02,20.71,5.94-2.93,13.93.91,20-2,7.14-2.48,18.75-14.27,23.56-18.94.41-49.3-6.64-100.98-3.56-151.06-.35,32.1,2.8,63.9,3.01,95.99,6.31-102.48,2.65-211.07,8.99-314.99.07,2.83.98,6.56,1,8Z"/>
        <path class="cls-45" d="M58.41,215.06c-6.47,5.48-12.36,13.16-19.48,17.99-1.91-.4-4.52-18.02-4.24-20.39.22-1.92,3.99-4.11,1.73-5.61,5.12-7.58,10.42-10.31,19-15,2.04,5.23-1.62,20.63,3,23Z"/>
        <path class="cls-13" d="M196.41,252.06c16.04,109.93-3.72,223.55,0,335-.37-3.07-2.89-5.37-2.97-5.7-.47-1.96.91-5.12-1.03-6.3-.03-7.33,0-14.67.01-21.99l1.98,1.99c-.2-3.79.31-7.76.01-11.54-.24-3.07.49-2.57-3-2.45,1.59-24.35-6.3-51.74.11-74.49-.23-3.93-2.99-11.52-3.19-17-.25-6.79,3.33-17.05-1.93-22.51,7.03-76.37,22.13-154.24-18-224l1.93.95c-.01-1.94,1.44-2.44,3.07-2.95,10,15.42,17.98,33.26,23,51Z"/>
        <path class="cls-42" d="M196.41,252.06c-.62-12.26-45.4-105.81-47-55l-4.99-13.99c-.3,6.06,1.47,12.14,2.99,17.99-1.82-2.39-2.95-6.44-3-2-.93-3.74-3.34-10.19-5.99-13l2.99,32c-3.17-3.7-4.13-24.82-6.01-27-5.55.79-9.46,7.12-15.99,7v-2s3.99-.01,3.99-.01v-.98c-1.99-.03-4,0-5.99-.01,8.4-2.69,13.14,1.04,13-10,10.66-.67,22.1-6.31,30.95-11.58,18.62,19.61,30.01,51.69,35.05,78.58Z"/>
        <path class="cls-32" d="M128.41,164.06c-1.1-7.98-26.05-1.84-32.24-1.74-7.71.93-6.23,3.55-6.76,9.74l-1.03-4.98c-7.24-1.29-27.54-2.58-32.66-7.34-1.23-1.15-6.42-12.45-5.31-13.68,6.01,2.36,6.01,4.41,12.99,4.99-2.62,3.01,2.23,5.06,4.32,6.18,18.18,9.73,35.7-2.43,54.68-.18,13.45,2.99,30.21,1.63,36-13,.24-.27,4.41-3.29,3.95-.56-2.29,13.45-23.14,16.26-33.95,20.56Z"/>
        <path class="cls-74" d="M75.41,180.06c-.65,6.17,1.19,14.42,4,20-6.26,3.24-15.49,10.33-21,15-4.61-2.34-.96-17.79-3-23,7.18-4.69,12.22-8.09,20-12Z"/>
        <path class="cls-46" d="M88.41,174.06l8.99,1.01-1.89,7.32,6.89,4.19c1.42,1.98-15.36,7.12-8.99,7.49-3.06,1.21-11.44,4.67-14,6-2.81-5.58-4.65-13.83-4-20,4.99-2.51,7.25-4.2,13-6Z"/>
        <path class="cls-27" d="M113.41,153.06l-.52,2.89c3.08-1.72,6.74.63,9.52,1.11-18.98-2.25-36.5,9.91-54.68.18-2.09-1.12-6.95-3.16-4.32-6.18,7.43.62,19.58,3.68,25.42,2.91,12.99-1.71,10.3-2.68,24.58-.91Z"/>
        <path class="cls-66" d="M149.41,159.06c2.86,4.72,2.93,11.56,3,17-5.67,3.06-11.05,4.12-17,6-3.09-4.63-1.94-11.54-3-17,5.7-1.87,11.45-3.73,17-6Z"/>
        <path class="cls-12" d="M158.41,144.06c-5.8,14.63-22.54,15.99-36,13-2.78-.48-6.43-2.83-9.52-1.11l.52-2.89c17.14,3.58,20.28-4.19,31.94-10.58,3.57-.56,8.86,2.77,13.06,1.58Z"/>
        <path class="cls-26" d="M98.41,172.06c4.72-1,9.42-2.82,14.35-3.08,2.32,1.49.97,7.33,5.65,6.08-.6,2.79,2.23,1.87,4,2-.14.64-.96,1.49-1,2-5.84-1.12-1.68,5.41-2,8-.47.52-10.23,1.5-12,2,1.67-6.27-5.88-4.58-7.54-8.01-1.86-2.07,3.36-9.27-1.46-8.99Z"/>
        <path class="cls-41" d="M89.41,172.06s.48-7.02.48-7.02c5.08-4.84,31.47-5.55,36.85-4.05,3.48,6.12,2.71,16.05,3.67,23.07.62,11.34-4.14,8.6-13,11-5.29-.02-17.81.33-22,1,2.42-3.37,14.81-2.55,16-4,3.83,1.25,15.8,1.52,16.98-3.49.6-3.44-1.1-23.39-2.98-25.51l-6-.99c.5,3.78,1.52,7.46,2.3,11.21.46,2.19,1.37.75.71,3.79-1.79-.14-4.59.8-4-2,4.07.89.71-7.44-.63-7.87-6.93-1.03-13.56,1.3-20.37,1.87,6.05-5.74,18.13-.99,16.99-5.99-4.2-.19-22.99.41-23.81,4.68-.62,1.67-.95,3.93,1.81,3.31l-3,1Z"/>
        <path class="cls-1" d="M152.41,176.06c-.07-5.44-.14-12.28-3-17,3.36-1.37,6.81-3.23,9.99-5l.84,16.3c-.65,2.12-5.8,4.61-7.83,5.7Z"/>
        <path class="cls-38" d="M98.41,172.06c4.82-.28-.4,6.92,1.46,8.99,1.66,3.44,9.21,1.75,7.54,8.01-3.76,1.07-10.23,3.5-14,5-6.37-.37,10.41-5.5,8.99-7.49l-6.89-4.19,1.89-7.32-8.99-1.01c3.32-1.04,6.66-1.29,10-2Z"/>
        <path class="cls-17" d="M135.41,182.06c-1.47.46-3.27,1.7-5,2-.22-5.13-1.02-12.98-2-18,1.57.24,2.71-.58,4-1,1.06,5.46-.09,12.37,3,17Z"/>
        <path class="cls-28" d="M101.41,164.06l-1,1.99h3c-5.1,1.73-6.5,3.81-11,5.01-2.76.62-2.43-1.64-1.81-3.31,1.38-3.74,7.54-3.22,10.81-3.69Z"/>
        <path class="cls-49" d="M119.41,198.06c6.54.12,10.42-6.21,15.99-7,1.08.75,3.64,20.69,4.45,24.1,3.72,7.6,4.05,15.86,6.57,23.89l.97-7.98c2.64,8.49,3.92,17.39,6.01,25.99-5.14-1.08-2.04-3.3-2.01-6.99l-3.52.97c-2.54,9.12,1.11,19.06,1.5,27.54,1.44,30.82-.2,61.41,2.01,91.99,5.74,16.3-3.6,8.8.05,22.95.12,26.53,3.34,51.34,1.16,78.04-.24,2.88,2.66,4.99-2.2,7.5-3.28.41-7.23-.42-10.52,0-1.38.17-3.11.73-1.48,1.99,8.06,2.32,14.92,2.66,22.99.01,2.67,19.65-6.11,39.4,2.06,58.45.71,11.93,1.38,28.47-2.03,39.99,1.09,15.15,5.02,31.86,5.07,47.06.02,6.54-2.46,17.04-2.16,22.99.31,6.3,1.83,2.77.13,11.07-1.08,5.27,3.14,6.6,2.96,11.93l-3.09,1.05c1.07,3.58-1.01,7.85-.87,10.89.14,3.1,2.68,8.13,2.97,12.12.27,3.64-3.23,6.01,1.96,7.93l-3,3.5c1.89-.19,4.2.31,5.99.01-5.34,2.32-12.3.35-18,1-5.87-2.33-10.48-5-17.01-3.99l-7.99-373.01c1.94-9.85,3.65-19.49,6.99-28.99-6.77,3.22-12.93,6.31-19.99,8.99-5.7-8.17,1.89-5.7-.13-10.39-.61-1.51-2.84-.9-3-3.11-.26-3.65,2.69-4.9,2.82-7.78s-.92-10.18-3.7-11.72c-.18-8.02-.75-15.97-1-24,4.98-3.86-.17-9.03-.09-12.52,3.87-8.61,3.32-23.75,3.01-32.9-2.61-8.48-4.15-10.1,6.08-11.58Z"/>
        <path class="cls-50" d="M115.41,312.06c7.07-2.69,13.23-5.78,19.99-8.99-28.29,82.17-4.3,166.22-12.28,250.2-6.62,36.45-24.45,111.29-33.71,147.79-1.47-1.18-10.6-10.48-11-11.51,13.32-109.65,46.71-222.19,31.01-336.49,2.03,60.77,2.07,121.89-8.01,181.99-1.95-.38-3.56,1.35-4.01-1.47-1.75-11.1,1.63-25.83-.99-37.53,4.02-1.02.19,4.67,3.47,3.97,2.9-.61,2.81-2.34,2.53-4.97h-4.02s.02-14.29.02-14.29c-.28-1.03-3.82-2.53-5.01-2.72,26.28-14.37,4.72-130.61,1.99-158.29.5-1.79,16.65-6.43,20.01-7.71Z"/>
        <path class="cls-6" d="M78.41,647.06c-14.73-6.03-25.45-23.03-32.95-36.55,0-35.92,12.78-86.89.28-119.93-.2-1.63,2.35-4.62,1.48-8.79-6.1-11.83-7.07,2.85-3.91-18.12-.77-74.36-20.22-151.49-3.66-225.87,6.11-9.69,19.71-19.69,28.28-27.73,2.61-.21,1.01.42.75,1.75-.66,3.48-3.67,8.21-1.27,11.24-3.23,7.01-8.23-.13-12.95.04-13.46,43.85-17.85,223.06,18.95,250.96l-6.04,4.68c-3.64,53.9,11.94,108.19,4.1,161.86,1.7,3.05,8.03,2.25,6.93,6.46Z"/>
        <path class="cls-72" d="M128.41,332.06l7.99,373.01c3.94-.35,6.43-.07,10.01.99-9.64-1.3-17.81,1.68-27,3l-2.55-3.07-5.44.06c-1.23-3.55,4.07-1.11,4.01-2.51-1.65-29.88-4.15-66.9-3.02-96.49,27.71-90.46-4.72-183.67,16-275Z"/>
        <path class="cls-62" d="M74.41,220.06c-1.67,21.17-9.23,43.61-10.98,64.52-.13,1.58-.86,6.81.97,7.48l3.01-12.99c-8.07,63.49.29,125.93,0,189-28.35-37.54-27.01-198.12-12.95-244.96,4.3-.48,6.59,4.85,10.97,2.45,4.68-4.19,3.95-13.11,8.98-17.49v12Z"/>
        <path class="cls-40" d="M87.41,478.06c3.46.01,8.81-.51,11.01,2.72,0,0-.02,14.29-.02,14.29h4.02c.27,2.63.37,4.36-2.53,4.97-3.28.7.55-4.99-3.47-3.97,2.61,11.69-.77,26.42.99,37.53.45,2.82,2.06,1.09,4.01,1.47-4.86,37.72-10.55,75.9-18.01,113-1.52-.49-3.61-.55-4.99-1,1.09-4.21-5.23-3.41-6.93-6.46,7.83-53.67-7.74-107.96-4.1-161.86l6.04-4.68c5.08,3.17,8.59,3.19,14,4Z"/>
        <path class="cls-64" d="M112.41,607.06c-1.13,29.63,1.36,66.55,3.01,96.49.06,1.39-5.23-1.04-4.01,2.51l5.44-.06,2.55,3.07c-12.31,1.77-19.99,0-30-8l23-94Z"/>
        <path class="cls-22" d="M117.41,195.06c1.99,0,4-.02,5.99.01v.98s-4,.01-4,.01v2c-35.03,5.36-34.24.87-43.99,36l1.99-22.99-2.99,8.99v-12c-2.2,1.59-2.97,4.69-4,7,.33-1.79-.62-5.56.17-6.84.49-.8,14.48-8.18,16.47-9.02,8.36-4.72,20.38-3.89,30.36-4.14Z"/>
        <path class="cls-47" d="M125.41,163.06c-5.41-2.31,1.01,24.68,1,28-1.56,1.08-1.56.68-3,1v-12.01s-2,0-2,0c-.24-1.13.56-1.93,1-3,.66-3.04-.25-1.6-.71-3.79-.78-3.74-1.79-7.43-2.3-11.21l6,.99Z"/>
        <path class="cls-63" d="M121.41,180.06h2s0,12,0,12c-3.58.79-8.57,1.27-12,0,.23-.28-.24-1.83,0-2,.43-.31,8.11.15,9.9-1.11.5-2.91-.22-5.99.11-8.89Z"/>
        <path class="cls-25" d="M191.41,538.06c-1.3,49.18.47,98.31,5.05,147.56-.22,5.1-14.14,14.51-18.05,18.44-.88-51.19-1.83-103.5-2.01-154l-1.77,1.72c.93,21.58-1.89,43.9-1.22,65.28-1.65,1.05-1,3.79-1.02,5.48-.13,10.5.22,21.03.02,31.52.16,11.98-5.23,42.59,4,51-2.62,3.42-6.43,3.19-10.99,2.99l3-3.5c-5.19-1.92-1.7-4.29-1.96-7.93-.29-3.99-2.83-9.02-2.97-12.12-.14-3.04,1.93-7.31.87-10.89l3.09-1.05c.18-5.33-4.05-6.66-2.96-11.93,1.7-8.3.18-4.77-.13-11.07-.29-5.96,2.19-16.45,2.16-22.99-.05-15.2-3.98-31.91-5.07-47.06,3.4-11.51,2.73-28.08,2.03-39.99-8.17-19.05.62-38.8-2.06-58.45-8.07,2.65-14.93,2.31-22.99-.01-1.63-1.26.11-1.82,1.48-1.99,8.18.7,17.76-.82,24.52-6,1.03,7.7,9.65-4.44,10.96-6.54,6.24-10.01,9.15-27.72,11.04-39.46,5.26,5.46,1.68,15.72,1.93,22.51.2,5.48,2.96,13.08,3.19,17-6.33,21.77,1.19,48.09-.12,71.49Z"/>
        <path class="cls-68" d="M172.41,654.06c1.44,6.43,4.34,10.84,3.01,17.99,2.65,3.47,1.97-8.05,1.99-8.99l1,41c-.73.56-1.45.66-2,1-9.22-8.34-3.85-39.06-4-51Z"/>
        <path class="cls-25" d="M192.41,575.06c1.94,1.17.56,4.34,1.03,6.3,6.64,7.85,1.65,22.57,1.93,32.16-.76,3.12,1.62,20.77-.95,20.53-.08-19.68-1.69-39.32-2.01-58.99Z"/>
        <path class="cls-25" d="M198.41,500.06c1.14-21.37-2.09-44.34,1-65-1.2,21.37,2.13,44.34-1,65Z"/>
        <path class="cls-25" d="M191.41,541.06c3.49-.12,2.76-.62,3,2.45.3,3.78-.21,7.75-.01,11.54l-1.98-1.99c-.05,4.65.03,9.34-.01,13.99-1.84-8.12-1-17.56-1-26Z"/>
        <path class="cls-25" d="M196.41,578.06c0-8.93-1.33-18.53,1-27-.01,8.78.85,18.54-1,27Z"/>
        <path class="cls-53" d="M173.41,201.06c-1.63.5-3.08,1-3.07,2.95l-1.93-.95c-.19-.33-3.35-4.99-2.98-1.52,3.56,6.58,5.18,13.4,6.98,20.52-6.83,6.04-3.1,13.22-2.96,20.46.33,64.93,4.86,130.05,4.01,194.09-1.52,8.86,3.06,9,2.95,14.45-2.48,7.39-2.94,10.78-8,17-8.89-56.97-.26-124.67-7.8-181.7,0,0,3.86-11.71,3.86-11.71-2.02-1.26-3.26-1.77-3.14-4.53l-1.9.94c.96-5.61-3.55-.04-4.01-7,5.29-4.88-23.04-102.24-4.49-53.01,1.83.72,1.29-5.01,1.24-5.28-1.45-3.59-2.62-5.13-2.75-8.71-.13-30.79,16.37-7.76,24,4Z"/>
        <path class="cls-51" d="M168.41,203.06c28.28,50.82,30.38,99.41,23.01,155.99-6.18-19.01,2.74-43.85.88-62.39-.82-9.21-6.96-17.67-7.87-28.13-.75-8.59,4.09-20.83-9.02-18.48v-18.5c-3.16-9.77-5.2-20.69-9.98-30.02-.37-3.46,2.79,1.19,2.98,1.52Z"/>
        <path class="cls-7" d="M189.41,342.06c0,6.14-.57,11.23,2.01,16.99l1.99-6.99c-1.15,24.13-3.34,48.16-7,72-5.63.7,4.05-78.28,3-82Z"/>
        <path class="cls-75" d="M186.41,424.06c-.89,12.9-4.61,31.37-11.04,42.46-1.31,2.1-9.93,14.24-10.96,6.54,14.69-15.39,15.63-37.19,20-57,.18,2.76-1.11,6.82,2,8Z"/>
        <path class="cls-24" d="M144.41,199.06c3.95,15.96,7.6,37.23,10.71,53.8.59,3.16,2.29,8.56.29,11.2-3.7-10.77-4.53-22.14-8.01-32.99l-.97,7.98c-4.47-13.2-7.01-38.91-8-52.99,2.65,2.81,5.06,9.26,5.99,13Z"/>
        <path class="cls-65" d="M149.41,197.06c0,2.37,1.52,4.69.5,7-4.84-5.41-5.19-14.02-5.49-20.99l4.99,13.99Z"/>
        <path class="cls-11" d="M125.41,163.06c1.32,2.09,5.82,26.78,1,28,.02-3.29-6.42-30.28-1-28Z"/>
        <path class="cls-31" d="M101.41,164.06c4.37-.63,8.48-1.59,12.99-.99,1.61,4.11-11.81,2.47-13.99,2.98l1-1.99Z"/>
        <path class="cls-64" d="M114.41,199.06c-6.15,1.62-1.47,6.66-1.08,10.58.31,9.18.86,24.26-3.01,32.9-.08,3.49,5.07,8.66.09,12.52-2.5-15.55-.3-31.33-1.01-46.99-1.74-.24-.94,2.27-.99,3.48-.16,7.69.62,15.41-1.04,22.97-.13,20.05,2.98,40.01,2,60.08,0,0,2.03,8.46,2.03,8.46-.11-7.98.19-16.02.01-23.99,2.77,1.54,3.83,8.99,3.7,11.72-.14,2.87-3.08,4.13-2.82,7.78.16,2.21,2.39,1.6,3,3.11,2.01,4.67-5.57,2.25.13,10.39-3.36,1.28-19.51,5.92-20.01,7.71,6.44,40.99,12.58,89.78,9.05,131.83-.56,9.03-.91,23.92-11.04,26.46-2.99-.32-8.43,1.41-8.07-3.41-1.43-18.52,4.24-37.56-1.99-55.04-.47-30.88.31-62.81-.99-94.02-1.61-27.25-1.95-56.3-.92-83.07-3.45-10.58-4.07-19.45.45-30.48,5.82-12.74,20.86-10.97,32.51-12.99Z"/>
        <path class="cls-15" d="M150.41,479.06c4.86-2.51,1.97-4.62,2.2-7.5,2.18-26.7-1.04-51.5-1.16-78.04-3.66-14.2,5.69-6.6-.05-22.95-2.21-30.58-.57-61.17-2.01-91.99-.4-8.48-4.04-18.42-1.5-27.54l3.52-.97c-.03,3.7-3.13,5.92,2.01,6.99.74,3.44,1.89,7,2.9,10.38,1.04,1.22,4.07-.48,3.12,3.62l1.9-.94c-.12,2.76,1.13,3.27,3.14,4.53l-3.87,11.71c7.54,57.02-1.08,124.75,7.8,181.7-3.13,6.01-11.75,9.67-18,11Z"/>
        <path class="cls-18" d="M110.41,255.06c.88,16,1.2,31.98.99,47.99,0,0-2.03-8.46-2.03-8.46.98-20.07-2.13-40.03-2-60.08,1.66-7.56.88-15.28,1.04-22.97.05-1.22-.75-3.72.99-3.48.71,15.67-1.49,31.44,1.01,46.99Z"/>
        <path class="cls-57" d="M85.41,639.06c17.15-94.37,29.64-189.89,24.01-285.99,14.05,97.72-9.35,191.3-24.01,285.99Z"/>
        <path class="cls-10" d="M78.41,226.06c5.45,81.86,4.89,166.39,6.93,248.6.16,1.99.15,2.47,2.07,3.4-7.72-.53-15.47-3.04-20-10,.47-80.16-13.49-163.37,11-242Z"/>
        <path class="cls-3" d="M75.41,234.06c-4.97,18.82-6.17,39.1-11.01,57.99-1.83-.66-1.1-5.9-.97-7.48,1.75-20.9,9.31-43.34,10.98-64.52l2.99-8.99-1.99,22.99Z"/>
        <path class="cls-39" d="M177.41,663.06c-.02.95.66,12.47-1.99,8.99,1.34-7.15-1.56-11.56-3.01-17.99.2-10.48-.15-21.02-.02-31.52.02-1.7-.64-4.43,1.02-5.48.12,3.96-1.64,8.14,2.99,9,.05-6.32-.03-12.68.01-19,1.65,1.05,1,3.79,1.02,5.48.21,16.77.35,33.76-.02,50.52Z"/>
        <path class="cls-29" d="M176.41,607.06c-.04,6.32.04,12.68-.01,19-7.86.69.65-63.56-1.77-74.28l1.77-1.72c-.07,18.98.13,38.02.01,57Z"/>
        <path class="cls-30" d="M172.41,222.06c.55,2.17,3,7.54,3,9.5v18.5c13.11-2.35,8.27,9.9,9.02,18.48.92,10.46,7.05,18.91,7.87,28.13-3.95,43.75-2.62,112.08-15.89,154.39.13-5.36-4.47-5.68-2.95-14.45.85-64.04-3.69-129.16-4.01-194.09-.15-7.24-3.87-14.42,2.96-20.46Z"/>
        <path class="cls-8" d="M147.41,201.06c.78,1.02,1.68,2,2.5,3l.5-2c4.96,9.26-.69,14.65-3-1Z"/>
      </g>
    </g>
  </g>
</svg>