<?xml version="1.0" encoding="UTF-8"?>
<svg id="Layer_2" data-name="Layer 2" xmlns="http://www.w3.org/2000/svg" viewBox="0 0 79.93 110.35">
  <defs>
    <style>
      .cls-1 {
        fill: #fefefe;
      }
    </style>
  </defs>
  <g id="Layer_1-2" data-name="Layer 1">
    <path class="cls-1" d="M3.04,72c3.97,13.47,15.31,15.31,28,15,1.07,26.75,31.87,31.1,44,10,11.56-22.99-.99-43.99-1.01-68.01-3.72-2.92-1.37,10.11-2,12-2.07-1.67-1.32-6.65-3.25-8.74-2.76-2.97-23.29-3.31-25.5-1.03-1.59,1.64.03,5.6-3.23,4.76,2.78-6.01-2.25-24.48-3.75-29.74C33.4.89,16.39,1.74,11.04,4l-2-4C2.49,23.06-3.98,48.18,3.04,72Z"/>
  </g>
</svg>