<?xml version="1.0" encoding="UTF-8"?>
<svg id="Layer_2" data-name="Layer 2" xmlns="http://www.w3.org/2000/svg" viewBox="0 0 176.01 236.39">
  <defs>
    <style>
      .cls-1 {
        fill: #fefefe;
      }
    </style>
  </defs>
  <g id="Layer_1-2" data-name="Layer 1">
    <path class="cls-1" d="M22.69,231.02c.83,1.87,4.15,4.24,5.93,4.54,1.66.27,2.88-1.42,4.55-1.45,4.05-.06,9.64,3.63,15.84,1.73,2.33-.72,2.31-3.75,3.34-3.89,1.42-.2,4.04,1.35,6.75,1.06,4.05-.44,8.09-4.62,12.48-3.05l3.62-7.91c3.27,3.68,9.45.66,10-4.03,1.12,5.19-.9,12.32,5.01,15l.55-7.94c3.84.54,6.39-3.15,9.89-3.62,5.52.32,7.45,1.61,12.55-1.4,2.27-.08,3.6,2.59,5.78,2.69,4.73.22,8.55-3.7,15.16-2.66,15.41,6.49,8.81,5.28,24.92,1.85l1.59,11.61c3.55,2.17,9.81-1.68,13.62-2.46,3.9-89.17,5.4-136.71-42.57-213.57,0,0,0-16,0-16,0-.41,2.57-1.75-.49-1.49C102.44,21.44,56.65,26.31,23.7,13.02c4.48,18.23-8.23,37.78-12.51,55.99C-.46,110.55-1.81,152.52,1.7,194.52c.85,9.85,2.41,19.75,3.43,29.6,1.45,4.72,5.94,1.55,8.83,2.06,2.1.62,5.91,3.83,8.73,4.85Z"/>
  </g>
</svg>