<?xml version="1.0" encoding="UTF-8"?>
<svg id="Layer_2" data-name="Layer 2" xmlns="http://www.w3.org/2000/svg" viewBox="0 0 229.87 566.99">
  <defs>
    <style>
      .cls-1 {
        fill: #fefefe;
      }
    </style>
  </defs>
  <g id="Layer_1-2" data-name="Layer 1">
    <path class="cls-1" d="M101.77,90c-2.25-20.28.67-41.88-3.1-61.89-16.26.91-26.45-12.46-24.9-28.1C-24.69,17.13,8.98,46.73,10.76,124.5c-.47,28.77-12.5,61.82-10.55,90.55,2.52,8.17,27.82,16.29,34.03,9.93,8.16-19.27,9.17-43.2,15.82-63.23.52-1.65.23-3.25,2.69-2.76C29.08,271.68,29.04,389.73,1.7,502.48c11.41,28.12,38.2,47.95,62.57,64.51,15.04-53.59,38.23-104.47,56.49-156.99,25.04,44.23,24.59,108.33,48.6,153.77,27.76-1.78,62.24-17.99,60.44-50.31-1.09-50.71-15.21-101.82-20.03-151.97-4.31-44.9-2.45-93.44-18.01-135.49,3.21-13.84,25.54-16.85,35.99-10-2.24-18.78-12.44-40.18-13.78-58.5-.26-3.54,3.21-6.62-2.23-9.2.2-19.56-2.09-39.26-1.02-58.84.9-16.43,6.06-32.26.99-48.91-6.34-20.79-32.81-24.12-50.46-30.54-2.37-.86-16.75-7.8-17.48-7.02-.13,17.02-15.06,26.82-31,24-.8,26.41-3.09,53.09-6.12,79.38-.12,1.05-.39,4.69-1.87,4.61-1.98-6.48.37-15.22-3.01-20.99Z"/>
  </g>
</svg>