<?xml version="1.0" encoding="UTF-8"?>
<svg id="Layer_2" data-name="Layer 2" xmlns="http://www.w3.org/2000/svg" viewBox="0 0 230.16 562.41">
  <defs>
    <style>
      .cls-1 {
        fill: #252525;
      }

      .cls-2 {
        fill: #1b1a19;
      }

      .cls-3 {
        fill: #3e3e3e;
      }

      .cls-4 {
        fill: #e9cc01;
      }

      .cls-5 {
        fill: #9f9f9f;
      }

      .cls-6 {
        fill: #0c0c0c;
      }

      .cls-7 {
        fill: #131313;
      }

      .cls-8 {
        fill: #090909;
      }

      .cls-9 {
        fill: #050505;
      }

      .cls-10 {
        fill: #262626;
      }

      .cls-11 {
        fill: #060606;
      }

      .cls-12 {
        fill: #c47008;
      }

      .cls-13 {
        fill: #1c1c1c;
      }

      .cls-14 {
        fill: #e9cb00;
      }

      .cls-15 {
        fill: #fbfbfb;
      }

      .cls-16 {
        fill: #171717;
      }

      .cls-17 {
        fill: #bdbdbd;
      }

      .cls-18 {
        fill: #1f1f1f;
      }

      .cls-19 {
        fill: #ce8702;
      }

      .cls-20 {
        fill: #e5b800;
      }

      .cls-21 {
        fill: #202020;
      }

      .cls-22 {
        fill: #f5e601;
      }

      .cls-23 {
        fill: #333;
      }

      .cls-24 {
        fill: #1d1d1d;
      }

      .cls-25 {
        fill: #1b1b1b;
      }

      .cls-26 {
        fill: #d29301;
      }

      .cls-27 {
        fill: #f4f4f4;
      }

      .cls-28 {
        fill: #e7c101;
      }

      .cls-29 {
        fill: #e4e4e4;
      }

      .cls-30 {
        fill: #e7e7e7;
      }

      .cls-31 {
        fill: #070707;
      }

      .cls-32 {
        fill: #060605;
      }

      .cls-33 {
        fill: #161616;
      }

      .cls-34 {
        fill: #2e2e2e;
      }

      .cls-35 {
        fill: #e7c200;
      }
    </style>
  </defs>
  <g id="Layer_1-2" data-name="Layer 1">
    <g>
      <path class="cls-15" d="M161.92,154.6c.36-1.62,2.14-5.93,2.9-7.6.53-1.16-.48-1.81,2.09-1.4,1.52,18.22,7.57,36.25,12.01,54-9.92-15.34-19.17-24.81-17-45Z"/>
      <g>
        <path class="cls-9" d="M52.76,159c-2.46-.5-2.17,1.11-2.7,2.76-6.64,20.01-7.66,43.99-15.82,63.23-6.21,6.36-31.52-1.76-34.03-9.93-1.95-28.75,10.07-61.76,10.54-90.55C8.95,46.89-24.62,17.03,73.76,0c-1.55,15.64,8.65,29.01,24.9,28.1,3.78,20.01.85,41.61,3.1,61.89h-1c-1.51-19.94-2.35-39.99-4.09-59.91-11.83-.04-20.11-7.35-24.35-17.81C-34.76,5.84,22.56,75.3,11.02,142.76c-1.47,23.65-9.21,45.8-9.21,69.68,1.56,8.36,19.13,13.53,26.48,12.63,2.87-.35,3.93-10,4.47-13.08,7.44-3.25,8.75-22.31,8.98-29.43,4.17-2.03,2.46-4.59,2.3-7.93.56-3.21,4.8-11.95,5.4-16.28,1.65-11.89-2.47-15.04-5.38-25.16-4.63-17.63-6.78-39.88-6.3-58.2,4.99,3.02-.99,11.98,4,15-3.49,23.29,9.38,46.81,11,69Z"/>
        <path class="cls-11" d="M101.76,90c3.38,5.78,1.03,14.5,3.01,20.99,1.48.08,1.75-3.56,1.87-4.61,3.04-26.29,5.33-52.98,6.12-79.38,15.93,2.82,30.87-6.99,31-24,.73-.78,15.11,6.16,17.48,7.02,17.66,6.42,44.13,9.74,50.46,30.54,5.07,16.64-.09,32.47-.99,48.91-1.07,19.58,1.22,39.27,1.02,58.84,5.44,2.58,1.97,5.66,2.23,9.2,1.34,18.32,11.54,39.72,13.78,58.5-10.45-6.85-32.78-3.84-35.99,10-1.36-3.67-5.3-13.41-7-17,2.75-2.36,1.54-.2,2.31,1.14,4.79,5.75,1.38,8.02,4.19,10.85,6.44-10.94,22.38-12.23,33.49-9-2-17.24-12.01-37.69-12.99-54.5-.2-3.51,3.31-5.59-2.02-8.2.08-20.71-2.08-41.58-.98-62.3,10.96-62.26-8.65-68.29-66.29-71.02-5.37,11.08-16.31,13.39-27.7,14.03l-7.01,80.98c5.29.73,11.7-1.91,15.99,2l-15.99.02,1.99,1.48c-5.8,15.71-4.41,35.75-3.01,52.51-4.89-2.96-1.45-23.66-2.99-30,0,0-2.14-22.86-2.14-22.86-5.76-.36-13.66,2.45-18.86-.14l19.01-1.99c.2-7.37.02-14.71-1.01-22.01h1Z"/>
        <path class="cls-33" d="M39.76,14c9.79-3.39,22.17.92,32.56-1.72,4.24,10.46,12.52,17.77,24.35,17.81,1.77,24.95,3.67,49.97,5.09,74.91-.14-1.49-2.03-4.49-1.01-7-16.76,1.46-34.42,2.27-50.99-.99,12.9,15.34,34.89,5.94,52,9.99.12,1.65-.07,3.35,0,5.01-87.34,10.35-45.76-16.77-67.01-65.01,6.05-10.92-2.42-19.84.95-31.37l4.05-1.63Z"/>
        <path class="cls-2" d="M106.76,128c25.32-1.3,43.73,6.19,44,34-33.2,14.4-53.7,11.13-88,7,3.11.56,1.85-1.56,1.99-3.47,1.7-23.42,14.86-34.85,38.02-36.54-1.01,2.85.84,6.22,1,8,.79,8.72-.09,17.72.96,26.54.18,1.5.19,3.08,2.02,3.46-1.75-12.8-1.38-26.16.01-39Z"/>
        <path class="cls-7" d="M39.76,14l-4.05,1.63c-3.37,11.52,5.1,20.44-.95,31.37-.61-.99-1.74-2.04-2.5-3,.05,5.95,4.35,12.35,5.24,18.76.74,9.06-.09,18.18.26,27.24-2.57,10.94,0,23.33-1.02,34.48-.48,5.23-2.79,10.24-2.99,15.52l-4.99-3,3,7.99s-2.11.89,4,4.02l-6.99,10.51c-.84,2.84,4.21.35,6.51,2.45,6.43,11.97-1.2,36.39-2.53,50.03-.54,3.08-1.6,12.73-4.47,13.08-7.35.9-24.92-4.27-26.48-12.63,0-23.89,7.74-46.03,9.21-69.68C22.84,103.36-22.63,15.43,39.76,14Z"/>
        <path class="cls-8" d="M37.76,90c.92,12.57,2.87,31.29,6.3,43.2,2.91,10.12,7.03,13.27,5.38,25.16-.6,4.33-4.84,13.07-5.4,16.28.14,3.36,1.9,5.87-2.3,7.93-.26,7.23-1.49,26.04-8.98,29.43,1.34-13.67,8.94-38.03,2.53-50.03-2.31-2.1-7.35.39-6.51-2.45l6.99-10.51c-6.11-3.12-7-12.01-7-12.01l4.99,3c.2-5.28,2.51-10.29,2.99-15.52,1.02-11.15-1.55-23.54,1.02-34.48Z"/>
        <path class="cls-8" d="M34.76,47c8.27,13.46,5.93,28.49,7,43-4.99-3.02.99-11.98-4-15,1.66-11.43-3.77-20.77-5.5-31,.76.95,1.9,2,2.5,3Z"/>
        <path class="cls-13" d="M172.76,19l-5.02,4.56c2,7.96-.45,15.26,3.06,22.91,1.62,4.72-4.54,22.49,2.97,20.52l2-5.99c-4.23,14.1.36,32.77-5.28,46.22-11.2,19.42-44.95.04-62.72,3.77l7.01-80.98c11.39-.64,22.33-2.95,27.7-14.03,10.25-.6,20.27,1.29,30.29,3.02ZM109.76,98.99c.2,2.31-1,6.99,1.64,7.86,17.93-1.66,50.02,11.08,56.35-12.86-4.98,4.07-9.84,7.38-16.5,7.98l-41.49-2.99Z"/>
        <path class="cls-18" d="M172.76,19c13.93,2.41,22.93,2.43,32,14h-1l-1.01-1.99c-3.41.2,2.59,20.56,2.05,24.45.68,11.63.42,27.03-1.04,38.54-2.13,14.4-7.47,25.63,1.33,40.17,2.79,9.43-4.84,11.63-4.35,16.3l4.95,6.9-6.9,9.08c14.43,4.96,13.21,23.98,16.46,36.57,5.57,7.08-5.32-38.57-9.4-39.66l4.77-7.03c-8.05-8.19-2.49-9.83-2.21-16.97-3.13-16.94-2.13-35.18-.64-52.35h1c-1.1,20.72,1.06,41.58.98,62.3,5.33,2.61,1.82,4.69,2.02,8.2.98,16.8,10.99,37.26,12.99,54.5-8.54-2.63-17.91-2.04-25.99,2.01-6.1-19.87-16.21-41.26-11.08-62.36l-3.93-1.15c8.26-23.76-3.08-47.27-5.94-70.95l16.95-24.54c-6.3,2.83-12.06,13.28-15.99,18.99-3.04-3.99,1.66-8.08.83-12.26-.7-3.54-4.73-5.56-3.83-1.74.36.55-1.84,6.35-2,6.99-7.49,2.01-1.36-15.83-2.97-20.52-3.51-7.65-1.06-14.95-3.05-22.91l5.02-4.56ZM191.03,156.24c1.36-1.45,5.26-1.28,6.34-5.22.65-2.4-2.38-7.1-4.59-5.53,7.52,6.34-.82,6.45-3.47,9.54-3.71,4.33-.28,12.09,5.46,11.96-3.05-2.48-7.43-6.79-3.74-10.74Z"/>
        <path class="cls-6" d="M178.76,74c3.9-5.69,9.73-16.19,15.99-18.99l-16.95,24.54c2.87,23.68,14.2,47.19,5.94,70.95l3.93,1.15c-5.13,21.1,4.98,42.49,11.08,62.36-3.45,1.73-5.76,3.43-7.49,7-2.79-2.76.56-5.17-4.19-10.85-.78-1.35.44-3.5-2.31-1.14-10.54-18.01-13.86-41.46-17.01-62-2.56-.41-1.55.24-2.09,1.4-.76,1.67-2.54,5.97-2.9,7.6-3.88,2.16-7.92,4.23-12,6-.25-27.82-18.73-35.3-44-34,.47-4.32.49-10.6,3-13.51l-1.99-1.48,15.99-.02-2.99-1.99c61.58,13.51,48.83-1.05,55-51,1.3,5.51,1.12,10.21,1.01,16,1.18,0,1.48-1.26,1.99-2Z"/>
        <path class="cls-10" d="M101.76,107c-17.11-4.05-39.1,5.35-52-9.99,16.57,3.26,34.23,2.45,50.99.99-1.11,3.63,1.61,6.08,1.01,9Z"/>
        <path class="cls-21" d="M208.76,87h-1c.55-18.18,3.21-36.56-4-54h1c12.48,15.92,4.97,35.84,4,54Z"/>
        <path class="cls-34" d="M109.76,98.99l41.49,2.99c6.65-.6,11.52-3.91,16.5-7.98-6.32,23.94-38.41,11.2-56.35,12.86-2.65-.87-1.45-5.56-1.64-7.86Z"/>
        <path class="cls-23" d="M206.76,98c-.25,13.51-1.1,28.17,1.64,41.35-.28,7.14-5.83,8.78,2.21,16.97l-4.77,7.03c4.09,1.14,14.96,46.7,9.4,39.66-3.25-12.59-2.04-31.62-16.46-36.58l6.9-9.08-4.95-6.9c-.49-4.67,7.14-6.86,4.35-16.3-8.8-14.54-3.46-25.76-1.33-40.17-.27,2.34.42,4.1,3,4Z"/>
        <path class="cls-3" d="M203.76,33c8.15,20.9,4.29,43.38,3,65-2.58.1-3.27-1.66-3-4,1.46-11.51,1.72-26.91,1.04-38.54.53-4.06-5.46-24.07-2.05-24.45l1.01,1.99Z"/>
        <path class="cls-31" d="M191.03,156.24c-3.69,3.95.69,8.26,3.74,10.74-5.75.13-9.18-7.63-5.46-11.96,2.65-3.09,10.99-3.19,3.47-9.54,2.21-1.56,5.24,3.14,4.59,5.53-1.07,3.94-4.98,3.77-6.34,5.22Z"/>
        <path class="cls-13" d="M178.76,74c-.51.74-.81,2-1.99,2,.11-5.79.29-10.49-1.01-16-.9-3.82,3.13-1.8,3.83,1.74.83,4.18-3.87,8.27-.83,12.26Z"/>
      </g>
      <g>
        <path class="cls-32" d="M130.9,188.63c3.17,3.1,23.17-1.88,23.99-1,.68,41.11-3.33,82.1-10.08,122.57l2.09,1.92c-5.93,8.4-5.31,22.25-8,32.5-12.67,68.6.83,45.14,1.53-28.98-9.49,3.93-36.77,11.86-28.53,8.98,9.83-4.08,21.43-5.66,30.34-11.21,5.07-39.92,15.14-84.4,9.21-123.53-27.75,4.39-56.98,1.62-82.55-10.26-3.05-1.43-4.65-4.91-8.99-3.01l1.99-1.49c-1.59-2.18-2.5-2.37-4.99-1.51-.48-.44,1.92-2.65,2-2.99,20.2,13.76,47.76,21.32,72,18Z"/>
        <path class="cls-5" d="M179.9,200.11c28.98,47.34,24.6,106.47,30.01,160.49,4.82,50.16,18.94,101.26,20.03,151.97,2.24,18.62-13.13,34.02-28.04,42.54-.06-.99.1-2.02,0-3,14-7.03,26.3-21.27,26.04-37.54-1.62-53.74-16.73-107.18-21.02-159.98-2.93-64.68-6.31-126.3-46.02-180.48-.14-1.19,1.41-10.4,2-12,.18,18.75,8.54,23.3,17,38Z"/>
        <path class="cls-12" d="M139.9,339.11c28.22,67.7,49.59,144.76,62,216-3.93,2.14-34.08,11.22-34.86,5.35-19.62-47.21-22.68-107.36-46.14-151.35.5-1.43,1.88-2.64,2-3,21.42,47.99,28.13,105.17,46.17,153.83,9.68-.94,21.64-2.96,30.75-5.9-17.38-68.61-30.79-147.4-60.92-209.92.35-1.66.66-3.34,1-5Z"/>
        <path class="cls-25" d="M98.9,189.11c-1.12,0-4.22-.73-4,.99,3.18-1.55,4.3,2.02,4.57,2.02,1.63.03,3.59-2.35,5.42.5l-6.87,3.06c8.38,37.66,1.98,77.08,7.8,115.02.79,6-2.76,13.46,6.08,13.42-8.24,2.88,18.97-5.01,28.53-8.98.33,54-31.33,118.92-51.53,170.98.68-4.05-8,9-8,9-3.18-19.29-19.15-222.52-12-316,10.03,4.72,19.26,7.15,30,10Z"/>
        <path class="cls-16" d="M80.9,495.11c-4.55,20.91-12.15,46.03-32,57l-20.05-16.45c1.23-62.69,6.62-127.99,13.18-190.92,2.2-28.01,14.75-62.13,8.91-89.14.07-1.74,2.98-4.06.96-7.49l3.07-.55c-1.59-22.24,3-44.36,11.93-64.45,1,100.64,9.45,212.03,14,312Z"/>
        <path class="cls-19" d="M162.9,162.11c-.59,1.61-2.14,10.81-2,12-29.24,23.58-72.58,15.91-102-4,.05-.21-1.37-1.78-1-1.99,38.71,3.82,69.34,8.12,105-13.01-.5,2.28-.02,4.79,0,7ZM149.9,164.11c-21.59,8.25-44.05,10.51-66.99,10.5,17.36,11.5,39.97,16.26,58.99,6.5,5.66-2.25,6.81-2.04,12-6,6.51-4.97,6.78-4.32,5.99-14-.49-.52-8.39,2.52-9.99,3Z"/>
        <path class="cls-24" d="M98.9,189.11c17.45,2,35.14,3.54,52.54.26,5.93,39.16-4.14,83.59-9.2,123.53-8.91,5.55-20.52,7.13-30.34,11.21-8.84.04-5.29-7.42-6.08-13.42-5.82-37.93.58-77.36-7.8-115.02l6.87-3.06c-1.83-2.84-3.79-.47-5.42-.5-.27,0-1.39-3.57-4.57-2.02-.22-1.72,2.87-1,4-.99Z"/>
        <path class="cls-29" d="M153.9,179.11c2.22-.49,2.12,1.22,2.98,2.47,5.25,7.61,10.97,16.26,15.02,24.53-5.18-.65-.22,10.07,0,12.49l-3.01-1.49c-2.27-5.53-4.07-12.69-7.99-17,9.04,22.8-3.65,36.79,15.07,42.61l-4.04,12.35s8.27,1.23,8.27,1.23c7,2.32-8.49,16.62-10.32,18.82-4.4,6.06-6.52,7.38,1.99,8.51,5.58,2.82,4.61,36.85,4.97,44.03,2.27,45.86,7.68,96.59,6.05,140.46v-6.5s-2.01,2.5-2.01,2.5c-11.27-41-22.37-85.84-41-125,1.78-8.84,1.89-20.66,7-27.51l-2.09-1.92c6.75-40.47,10.77-81.46,10.08-122.57-.83-.88-20.82,4.1-23.99,1,4.72-1,18.66-6.53,23-9Z"/>
        <path class="cls-20" d="M138.9,344.11c3.01-2.42,11.01,25.74,12,29-.47-.81-3.67-4.73-4.01-1.47,9.42,49.41,10.31,104.07,12.01,154.47-12.16-39.91-18.95-81.75-36-120,6.84-20.19,11.64-41.13,16-62Z"/>
        <path class="cls-1" d="M88.9,486.11c-3.36,10.17-7.5,19.95-11,30l-2-1c2.7-13.7,15.98-55.04,20.48-69.02,10.37-5.45-6.76,35.85-7.48,40.02Z"/>
        <path class="cls-30" d="M171.9,206.11c4.94,7.66,7.07,19.54,9.02,27.22,8.17,6.37,6.64,4.95,7.19,15.07,15.38,97.84,20.67,199.58,21.8,298.7-2.36,1.97-4.92,4.25-8,5-2.32-23.78-14.6-63.52-21-88l2.01-2.5v6.5c1.64-43.9-3.77-94.57-6.04-140.46-.36-7.18.61-41.22-4.97-44.03-8.63-1.12-6.3-2.54-1.99-8.51l-.54,6.04c1.86,2.56,13.18-2.42,15.31,8.69,5.39,42.76,6.01,89.33,13.22,130.27,0-54.14-9.96-109.05-11.97-162.44-.4-3.08-5.09-4.75-5.84-7.28-1.1-3.71,1.98-8.78.59-13.56-7.37-10.3-7.44-4.02-11.77-19.72l3.01,1.49c-.22-2.4-5.19-13.15,0-12.49Z"/>
        <path class="cls-17" d="M160.9,174.11c39.73,54.27,43.07,115.74,46.01,180.48,4.29,52.8,19.4,106.23,21.02,159.97.41,13.7-7.88,24.09-18.04,32.54-1.13-99.11-6.42-200.87-21.79-298.7-.55-10.11.97-8.72-7.2-15.07-2.79-18.06-13.1-36.75-24.04-51.76-.86-1.24-.77-2.95-2.98-2.47,2.21-1.25,4.13-4.29,7-5Z"/>
        <path class="cls-35" d="M150.9,373.11c9.91,22.06,15.85,48.5,22,72l-3,4.49c3.43,8.48,2.32,21.23,3.01,31,2.11,25.08,7.43,53.09,4.98,77.52,1.66-.04,3.35.07,5.01,0l-13.83,1.83c-1.86-1.14-9.8-29.89-10.17-33.83-.01-47.56-5.29-96.97-9.02-144.48-.29-2.98-3.04-9.48-2.99-10,.34-3.25,3.54.66,4.01,1.47Z"/>
        <path class="cls-14" d="M172.9,445.11c9.56,36.09,19.41,72.48,26.92,108.92-7.28,1.68-14.22,4.87-21.93,4.08,2.44-24.44-2.88-52.44-4.98-77.52-.69-9.76.41-22.52-3.01-31l3-4.49Z"/>
        <path class="cls-28" d="M129.9,170.11c.14,4.59.99,10.41,4,14-17.25,6.01-36.01-.01-50.99-9.5,16.1-.2,31.26-.81,46.99-4.5Z"/>
        <path class="cls-4" d="M149.9,164.11l4,11c-5.19,3.96-6.34,3.75-12,6l-4-13c3.86-1.05,7.99-2.8,12-4Z"/>
        <path class="cls-22" d="M137.9,168.11l4,13c-3.12,1.24-4.2,1.97-8,3-3.01-3.59-3.86-9.41-4-14,2.62-.61,5.41-1.29,8-2Z"/>
        <path class="cls-26" d="M149.9,164.11c1.6-.48,9.5-3.51,9.99-3,.78,9.68.51,9.03-5.99,14l-4-11Z"/>
        <path class="cls-27" d="M168.9,217.11c4.37,15.76,4.35,9.35,11.78,19.72,1.39,4.78-1.69,9.85-.59,13.56.75,2.53,5.44,4.2,5.84,7.28,2.01,53.4,11.96,108.3,11.96,162.44-7.22-40.95-7.83-87.49-13.23-130.27-2.13-11.11-13.44-6.13-15.31-8.69l.54-6.04c1.83-2.2,17.31-16.5,10.32-18.82l-8.27-1.23,4.04-12.35c-18.72-5.82-6.03-19.69-15.07-42.61,3.92,4.31,5.72,11.47,7.99,17Z"/>
      </g>
      <path class="cls-8" d="M41.88,90.7c-.76,31.42,39.21,22.46,59.86,23.14l2.14,22.86c-.16-1.79-2.01-5.15-1-8-23.16,1.68-36.32,13.12-38.02,36.54-.14,1.91,1.12,4.02-1.99,3.47-1.61-.19-3.38.12-5,.01-.37.21,1.05,1.78,1,1.99-.08.34-2.48,2.55-2,2.99,2.5-.86,3.4-.67,4.99,1.51l-1.99,1.49c4.35-1.9,5.94,1.58,8.99,3.01-10.48,19.94-15.42,45.04-13.93,68.45l-3.07.55c2.02,3.43-.89,5.75-.97,7.49,5.85,27.01-6.7,61.12-8.9,89.14-6.57,62.91-11.96,128.26-13.19,190.92,7.4,5.87-15.6-5.95-27.01-34.07,27.34-112.74,27.38-230.81,51.07-343.48-1.46-21.86-14.42-45.08-11.01-68Z"/>
      <path class="cls-16" d="M66.71,184.04c4.91-.69,2.17-4.34,2.17-4.34l-1.69,2.17-.48,2.17Z"/>
    </g>
  </g>
</svg>