<?xml version="1.0" encoding="UTF-8"?>
<svg id="Layer_2" data-name="Layer 2" xmlns="http://www.w3.org/2000/svg" viewBox="0 0 232.18 249.14">
  <defs>
    <style>
      .cls-1 {
        fill: #33be78;
      }

      .cls-2 {
        fill: #e43939;
      }

      .cls-3 {
        fill: #0d4b24;
      }

      .cls-4 {
        fill: #b3201f;
      }

      .cls-5 {
        fill: #f8a669;
      }

      .cls-6 {
        fill: #5f0909;
      }

      .cls-7 {
        fill: #760909;
      }

      .cls-8 {
        fill: #2f4436;
      }

      .cls-9 {
        fill: #c94e36;
      }

      .cls-10 {
        fill: #b13c2f;
      }

      .cls-11 {
        fill: #1e8549;
      }

      .cls-12 {
        fill: #22334b;
      }

      .cls-13 {
        fill: #931212;
      }

      .cls-14 {
        fill: #f56e41;
      }

      .cls-15 {
        fill: #044fb1;
      }

      .cls-16 {
        fill: #901111;
      }

      .cls-17 {
        fill: #cc2c2b;
      }

      .cls-18 {
        fill: #f48454;
      }

      .cls-19 {
        fill: #052a67;
      }

      .cls-20 {
        fill: #0662c3;
      }

      .cls-21 {
        fill: #013c8e;
      }

      .cls-22 {
        fill: #07367b;
      }

      .cls-23 {
        fill: #2a5a3f;
      }

      .cls-24 {
        fill: #1c3455;
      }

      .cls-25 {
        fill: #a81b1b;
      }

      .cls-26 {
        fill: #513831;
      }

      .cls-27 {
        fill: #780a0a;
      }

      .cls-28 {
        fill: #c32627;
      }

      .cls-29 {
        fill: #0c2c61;
      }

      .cls-30 {
        fill: #4eebb8;
      }

      .cls-31 {
        fill: #b2201f;
      }

      .cls-32 {
        fill: #0b4925;
      }

      .cls-33 {
        fill: #16723e;
      }

      .cls-34 {
        fill: #002967;
      }

      .cls-35 {
        fill: #e3d23e;
      }

      .cls-36 {
        fill: #26a25c;
      }

      .cls-37 {
        fill: #581a1b;
      }

      .cls-38 {
        fill: #efdc5d;
      }

      .cls-39 {
        fill: #16713d;
      }

      .cls-40 {
        fill: #052c6c;
      }

      .cls-41 {
        fill: #a0afc5;
      }

      .cls-42 {
        fill: #e9d74e;
      }

      .cls-43 {
        fill: #532f22;
      }

      .cls-44 {
        fill: #167c43;
      }

      .cls-45 {
        fill: #0450b3;
      }

      .cls-46 {
        fill: #bb2424;
      }

      .cls-47 {
        fill: #126434;
      }

      .cls-48 {
        fill: #0d295e;
      }

      .cls-49 {
        fill: #e5f0fe;
      }

      .cls-50 {
        fill: #023278;
      }

      .cls-51 {
        fill: #c0a418;
      }

      .cls-52 {
        fill: #f57a4c;
      }

      .cls-53 {
        fill: #f9c684;
      }

      .cls-54 {
        fill: #08255a;
      }

      .cls-55 {
        fill: #f56439;
      }

      .cls-56 {
        fill: #cdb430;
      }

      .cls-57 {
        fill: #136635;
      }

      .cls-58 {
        fill: #1a5832;
      }

      .cls-59 {
        fill: #2bb568;
      }

      .cls-60 {
        fill: #c34832;
      }

      .cls-61 {
        fill: #f44f4f;
      }

      .cls-62 {
        fill: #eff6fe;
      }

      .cls-63 {
        fill: #e3eefd;
      }

      .cls-64 {
        fill: #ca442e;
      }

      .cls-65 {
        fill: #2a3f33;
      }

      .cls-66 {
        fill: #003783;
      }

      .cls-67 {
        fill: #174c29;
      }

      .cls-68 {
        fill: #012c6d;
      }

      .cls-69 {
        fill: #c0ccda;
      }

      .cls-70 {
        fill: #fbc175;
      }

      .cls-71 {
        fill: #5f0708;
      }

      .cls-72 {
        fill: #600607;
      }

      .cls-73 {
        fill: #b89b23;
      }

      .cls-74 {
        fill: #0b285e;
      }

      .cls-75 {
        fill: #fbce7f;
      }

      .cls-76 {
        fill: #f6e074;
      }

      .cls-77 {
        fill: #f4df69;
      }

      .cls-78 {
        fill: #ab932f;
      }

      .cls-79 {
        fill: #bd9e10;
      }

      .cls-80 {
        fill: #b6960b;
      }

      .cls-81 {
        fill: #2c3e33;
      }

      .cls-82 {
        fill: #064196;
      }

      .cls-83 {
        fill: #871211;
      }

      .cls-84 {
        fill: #f0f6fd;
      }

      .cls-85 {
        fill: #851010;
      }

      .cls-86 {
        fill: #6f0f0c;
      }

      .cls-87 {
        fill: #b5c6da;
      }

      .cls-88 {
        fill: #082459;
      }

      .cls-89 {
        fill: #b48f02;
      }

      .cls-90 {
        fill: #239755;
      }

      .cls-91 {
        fill: #fbeda2;
      }
    </style>
  </defs>
  <g id="Layer_1-2" data-name="Layer 1">
    <g>
      <path class="cls-71" d="M9.39,67.99c42.69-.08,155.17.05,198,0l-1,2c-4.25.45-27.03-3.39-22,5l21,2c-65.25,1.03-132.72-2.11-197,1-.53-2.85-1.76-5.75-2-9,.92-.5,1.94-.92,3-1ZM36.39,74.99l-1.5-5H8.39l1,5h27ZM179.39,71.99c.1-.21,2.38-.79.5-2.01l-138.49,1.01c-.57,1.63.63,2.17.99,2.99.16.35-.32,1.28.12,1.84l131.49.22c1.66.35,2.27-.39,3.39-1.07,2.02-1.22,1.31-1.54,2-3Z"/>
      <path class="cls-7" d="M10.39,156.99c-1.72,9.98-5.68,19.74-5,30h30c-.72-3.09,2.14-5.71,2-8.42-.16-3.11-3.24-4.37-3.8-6.3-1.52-5.22,3.69-10.76,5.8-15.28,3.32.06,6.67-.06,9.99.01-.65,4.38,2.96,12.2,2.01,15.99-.11.43-2.37,2.39-2.56,3.95-.17,1.35,1.52,2.1,1.37,3.35-.06.51-2.22,5.27-2.81,7.7l-45,1c1.11-12.05,4.73-21.78,6-32h2Z"/>
      <path class="cls-72" d="M223.39,187.99c-13.89,3.49-33.04-.15-48,1-2.24-7.34-2.5-13.33-5.04-20.49-.38-4.06,1.63-7.66.05-11.51.99-.06,2.01.06,3,0-1.33,10.49,1.14,19.67,3.11,29.89,14.94.39,29.94-.02,44.89.1-2.33-6.48-2.75-13.74-4.25-20.24-.66-2.89-4.33-4.72-1.75-9.75.54-.06,1.36-.81,2-1-1.12,5.66-1.6,5.92,1.75,10.75,1.6,6.95,2.73,14.26,4.25,21.25Z"/>
      <path class="cls-78" d="M205.39,76.99h8c-.21,1.83.84,4.72-1,6-.09-1.46.22-2.96-.09-4.42l-.91-.58c-8.88.21-19.28-.79-28,0-5.51.55-3.82,2.82-5.72,6.71-2.36,2.76-2.56,1.63-2.28,5.29-.33,0-.67,0-1,0-.16-.56-.58-1.88-1-2l3-9.99c-42.35-.03-90.36,0-133-.01-.15-.31-.76-.62-1-1,54.32-.13,108.72,0,163,0Z"/>
      <path class="cls-48" d="M158.39,7.99c33.68,11.56,64.54,14.17,56,60h-2c6.21-50.47-20.23-44.03-56-58,.3-.37-.73-2.71,2-2Z"/>
      <path class="cls-68" d="M124.39,188.99c-4.89.75-9.77,1.52-15,1v3.99c.61.62,15.11-2.41,17-2.99v1c-13.38,6.78-31.27,5.51-44-3,13.96.44,28.03-.32,42,0Z"/>
      <path class="cls-65" d="M43.39,116.99c-.09-.98-.67-4.27.99-3.99-1.78,3.57,3.97,9.44,4.01,9.99,4.51,25.95-5.3,70.28,35,64l-1,2c-14.9-.47-24.52-.12-31-16,.95-3.79-2.66-11.61-2.01-15.99-7.32-.02-14.66-.05-21.99-.01v-1c6.93.73,14.94-.53,22,0-1.73-14.39-3.32-24.56-6-39Z"/>
      <path class="cls-58" d="M212.39,122.99c1.33,9.09,2.17,19.5,1.98,28.53.54,2.79,3,1.39,3.02,4.47-6.35,2.38-14.19.62-21,1-1.22-.09-4.53-3.22-4,1-1.02-.81-1.42-2.06-3-2v-1c1.01,0,2.75.31,3-1,2.98,1.11,18.21,2.01,19.56.06,1.27-10.34-.45-20.8-1.56-31.06h2Z"/>
      <path class="cls-60" d="M10.39,89.99l1,21c-.26,2.46-.84,10.05,1.64,10.86,1.9.62,26.01.61,28.89.15s1.09-2.05,1.47-4.01c.12.9.75,3.85,1,5H9.39c.96-10.14-.42-22.37-1-33h2Z"/>
      <path class="cls-79" d="M212.39,82.99c.23,3.69-.93,6.77-1,9v-2c-11.94-.06-24.01-.04-36,0,.12-.93-.22-2.28,0-3,11.36,2.33,23.46.68,35.01,1.01l.99-10.01.91.58c.31,1.46,0,2.96.09,4.42Z"/>
      <path class="cls-8" d="M21.39,153.99c-7.91-24.52,20.19,3.7,9.51-19.01,5.33.94,6.16,11.33.96,12.06-2.61.37-6.43-1.88-9.47-1.05-1.04,4.36,1.3,5.55,2,9,1.44,1.29,1.37.83,3,1v1c-6.28,0-12.68,0-19,0,.12-.93,0-2.03,0-3,2.76,4.21,10.6,1.08,15,1.99.16-1.17-1.8-1.56-2-1.99Z"/>
      <path class="cls-67" d="M11.39,122.99c-1.75,6.99-.77,14.46-.96,21.55-.1,3.67-3.35,9.29,2.48,10.41,2.06.4,6.76.62,8.47-.96.2.43,2.16.82,2,1.99-4.4-.91-12.24,2.22-15-1.99-.76-11.43.68-19.11,1-31h2Z"/>
      <path class="cls-10" d="M209.39,89.99c.64.08,1.35-.1,2,0-.28,10.93.24,22.1,1,33h-7c-.07-.64-.03-1.36,0-2,1.66-.08,3.35.08,5.01,0l-1.01-31Z"/>
      <path class="cls-86" d="M209.39,67.99h5c-.24,3.19-.64,5.91-1,9-5.33.48-23.42-1.46-29-2l26.32.04,1.25-4.07c-1.1-1.49-3.92-.89-5.57-.97l1-2h2Z"/>
      <path class="cls-15" d="M165.39,13.99c34.36,5.78,53.09,15.73,47,54h-3c1.75-7.04.51-28.19-4.99-33l2.99,33h-20l5-13.99c-1.78-1.75-8.74,10.21-9,11.99h-2.53c6.12-24.86-16.48-36.78-35.47-45,2.15-2.36,5.95-4.71,8-7,3.88.28,8.2-.4,12,0Z"/>
      <path class="cls-17" d="M206.39,69.99c1.65.08,4.47-.52,5.57.97l-1.25,4.07-26.32-.04c-5.02-8.38,17.73-4.55,22-5Z"/>
      <path class="cls-24" d="M183.39,65.99c.26-1.78,7.22-13.74,9-11.99l-5,13.99h-4c.06-.65-.09-1.36,0-2Z"/>
      <path class="cls-16" d="M27.39,156.99c3.99,0,8.01-.07,12,0-2.12,4.51-7.32,10.06-5.8,15.28.56,1.93,3.64,3.19,3.8,6.3.14,2.71-2.72,5.33-2,8.42H5.39c-.68-10.26,3.28-20.02,5-30,5.66,0,11.38,0,17,0Z"/>
      <path class="cls-17" d="M191.39,156.99c10.95,7.08-1.67,16.41,3.99,19-.57-5.14,4.24-9.22,2.82-14.28-.47-1.66-6.34-5.13-1.81-4.72,7.07,1.86,13.39-1.29,11.01,9,2.57-1.73,6.43-5.75,3.99-9,1.31-.03,2.74.14,4,0-2.58,5.04,1.09,6.87,1.75,9.75,1.49,6.5,1.91,13.76,4.25,20.24-10.65-.12-21.35.19-32,0-4.79-10.15-7.79-18.87-4-30h6Z"/>
      <path class="cls-60" d="M44.39,89.99c-1.26,27.38,27.48,22.64,46,22,3.61,1.92,11.81,1.55,15.5,0,0,0,19.5,0,19.5,0,.66-2.41-19.22-.64-22-1v-1c23.37-4.13,66.69,18.44,68-20,1.33,0,2.67,0,4,0-.63,4.93.09,11.52-2,16l-.99-5.99c.43,7.93-2.53,15.41-4.01,22.99-28.85-.02-90.36-.03-120,0-.04-.56-5.79-6.43-4.01-9.99-1.66-.28-1.08,3.02-.99,3.99-4.83-8.31-.97-18.91-5-27h6Z"/>
      <path class="cls-76" d="M204.39,77.99c.17,3.42-2.85,6.93-1,10-7.03.2-15.02.36-22,0l2-10c6.13-.62,14.64-.16,21,0Z"/>
      <path class="cls-91" d="M211.39,77.99l-.99,10.01c-2.33.05-4.68-.07-7.01,0-1.85-3.07,1.17-6.58,1-10,2.33.06,4.67-.04,7,0Z"/>
      <path class="cls-6" d="M115.39,186.99c5.35.27,10.71-.52,16,1-15.62,2.41-32.89.52-49,1l1-2c11.43-.24,20.36-.59,32,0Z"/>
      <path class="cls-82" d="M129.39,188.99c-1.44,2.94-18.1,5.14-19.99,4.99v-3.99c7.01.84,13.2-1.4,19.99-1Z"/>
      <path class="cls-14" d="M152.39,89.99c-18.33,3.17-38.72-.63-57.51,1-1.23.05-3.71-.76-3.49,1h21c-7.67,7.98-19.85,3.02-29,6-10.79,2.82-23.31.49-34-2.99,10.48,14.59,30.63,9.14,46,10.99,2.88,1.97,6.85,2.68,9.99,1l-1.99,3v1c-20.75-.08-59.53,11.51-59-21h108Z"/>
      <path class="cls-55" d="M36.39,89.99l.81,28.74-1.31,2.26H13.39c-2.09-6.35-2.78-24.2-3-31h26Z"/>
      <path class="cls-64" d="M38.39,89.99c4.03,8.09.17,18.69,5,27-.54,2.05,1.54,4.58-1.47,5.01-2.88.46-26.99.47-28.89-.15-2.48-.81-1.9-8.4-1.64-10.86l2,10h22.5l1.31-2.26-.81-28.74h2Z"/>
      <path class="cls-57" d="M124.39,122.99c-11.65,4-80.07,1.64-59,28v3c-4.63-.24-9.36.17-14,0-1.05-10.07-2.35-21.18-3-31h76Z"/>
      <path class="cls-47" d="M44.39,122.99c2.61,11.98,2.9,15.8,4,28,.18,3.77.46,2.64-2.48,2.97-7.17.8-14.29,1.38-21.52,1.03-.17-.15.16-.77,0-1h12.99s-3.02-3.44-3.02-3.44c5.38-9.2,5.98-17.33,3.02-27.56h7Z"/>
      <path class="cls-27" d="M65.39,156.99c-.07,8.19-7.65,14.58-2.84,22.35,3.29,5.33,14.49,7.09,20.34,6.66l.5.99c-22.65,2.48-32.01-7.77-32-30h14Z"/>
      <path class="cls-32" d="M65.39,153.99c25.21,2.25,52.27-1.18,77,2-30.32-.13-60.68.09-91,0-.07-.66.07-1.35,0-2,4.64.17,9.37-.24,14,0Z"/>
      <path class="cls-67" d="M48.39,150.99c.07.81,1.93,3.1,1,5-7.98-1.07-17.75,2.08-25-1,7.23.35,14.35-.23,21.52-1.03,2.94-.33,2.66.8,2.48-2.97Z"/>
      <path class="cls-59" d="M199.39,122.99c3.58,14.67,13.68,18.3-2,30.99l9.5.02c-1.26-5.6,3.51-9.19,3.59-14.49.09-6.29-4.51-11.09-5.08-16.51h5c1.11,10.26,2.83,20.72,1.56,31.06-1.35,1.94-16.58,1.05-19.56-.06-1.18-.44-3.19-.16-2.88-2.34l7.87-13.66c-3.79,4.58-9.65,9.83-10.04,15.94-1.96.26-3.98-.06-5.95.06-2.69-10.23,5.3-19.95,1-31h17Z"/>
      <path class="cls-43" d="M196.39,156.99c-4.54-.41,1.34,3.05,1.81,4.72,1.42,5.06-3.39,9.14-2.82,14.28-2.04-.52-1.5-1.33-1.38-2.79.59-6.95,5.75-8.71-1.61-15.21-.53-4.22,2.78-1.09,4-1Z"/>
      <path class="cls-23" d="M192.39,153.99c-1.65,2.38-6.77.19-9.53,1.03l-1.47-1.03c1.97-.12,3.98.2,5.95-.06.39-6.11,6.25-11.36,10.04-15.94l-7.87,13.66c-.31,2.18,1.7,1.9,2.88,2.34Z"/>
      <path class="cls-61" d="M211.39,156.99c2.44,3.25-1.42,7.27-3.99,9,2.15-10.17-2.95-6.78-10.01-9,4.54.23,9.44.1,14,0Z"/>
      <path class="cls-11" d="M37.39,122.99c2.96,10.23,2.35,18.36-3.02,27.56l3.02,3.43h-12.99c-1.94-2.87-2.52-4.12-2-7.99,3.04-.83,6.86,1.42,9.47,1.05,5.2-.73,4.37-11.12-.96-12.06,10.68,22.69-17.42-5.49-9.51,19.01-1.72,1.58-6.41,1.36-8.47.96-5.83-1.13-2.58-6.74-2.48-10.41.19-7.09-.79-14.56.96-21.55h26Z"/>
      <path class="cls-18" d="M201.39,89.99c-3.66,7.67,2.79,13.81,2.06,20.52-.42,3.83-4.06,6.49-4.06,10.48-6.67.09-12.69-.45-19-1-2.91-10.12-2.52-19.83,0-30,6.98-.03,14.02-.1,21,0Z"/>
      <path class="cls-53" d="M207.39,89.99c-1.08,5.23,1.08,11.84.99,16.5-.1,4.58-2.8,9.89-2.99,14.5-1.99.1-4.01-.03-6,0,0-3.99,3.64-6.65,4.06-10.48.73-6.71-5.72-12.85-2.06-20.52,1.99.03,4.01-.09,6,0Z"/>
      <path class="cls-18" d="M209.39,89.99l1.01,31c-1.66.07-3.34-.09-5.01,0,.19-4.61,2.89-9.93,2.99-14.5.1-4.66-2.07-11.26-.99-16.5.66.03,1.35-.08,2,0Z"/>
      <path class="cls-60" d="M180.39,119.99c8.12.81,16.59,1.18,25,1-.03.64-.07,1.36,0,2h-35c.23-1.81.9-3.23,1-4,2.05,1.98,6.13.75,9,1Z"/>
      <path class="cls-20" d="M209.39,67.99h-2l-2.99-33c5.5,4.84,6.74,25.9,4.99,33Z"/>
      <path class="cls-25" d="M103.39,156.99c-.37,9.18,2.38,19.03.99,27.99l11.01,2.01c-11.64-.59-20.57-.24-32,0l-.5-.99c-5.85.43-17.05-1.33-20.34-6.66-4.8-7.77,2.77-14.16,2.84-22.35,12.65,0,25.35,0,38,0Z"/>
      <path class="cls-70" d="M83.39,97.99c20.23.05,45.71,1.38,66,4-25.51,3.85-55.52-2.02-80,3-8.39-.55-14.89-2.91-20-9.99,10.68,3.48,23.22,5.81,34,2.99Z"/>
      <path class="cls-90" d="M105.39,125.99l-2,28c-12.1-.06-24.24.01-36.35.04-20.83-24.73,22.39-26.34,38.35-28.04Z"/>
      <path class="cls-44" d="M65.39,150.99c.63.92.93,2.85,1.65,3.04,28.11-.11,56.24.02,84.35-.04v1c-2.19.24-5.58-.9-7,1-25.48-2.89-53.05.06-79-2v-3Z"/>
      <path class="cls-30" d="M205.39,122.99c.58,5.42,5.17,10.22,5.08,16.51-.07,5.3-4.85,8.89-3.59,14.49l-9.5-.02c15.68-12.69,5.58-16.32,2-30.99h6Z"/>
      <path class="cls-41" d="M158.39,7.99c-2.73-.71-1.7,1.63-2,2-2.85,5.74-9.53,7.59-12,13-25.51,14.94-46.5,15.49-72-1-2.51-5.9-9.72-9.95-10-17,2.17-.59,10.07-5.31,11.44-4.97,11.78,27.7,56.85,23.96,72.27,2.09,3-.85,9.1,4.45,12.29,5.88ZM76.39,9.99l-3.05-6.98-8.03,3.59c15.34,34.74,69.76,32.1,89.07,1.89l-7.49-4.49c-15.53,21.75-51.32,23.17-70.49,5.99Z"/>
      <path class="cls-19" d="M62.39,4.99c.07,1.85,1.1,4.44,2,6C19.39,15.72,2.27,16.5,9.39,67.99c-1.06.08-2.08.5-3,1C1.98,17.22,15.25,11.42,62.39,4.99Z"/>
      <path class="cls-88" d="M2.39,188.99l45-1c-3.33,9.89-11.86,59.74-20.45,61.07-6.55.78-23.95-4-26.1-11.02-2.13-14.89.32-33.77,1.55-49.05ZM34.39,189.99c-9.99-.1-20.02.07-30,0l-1.77,46.33c3.07,6.27,9.52,8.4,15.77,9.68,2.25.46,6.75,2.45,9.1.36,7.32-18.25,12.12-37.3,16.9-56.35-3.32-.04-6.67.02-10-.01Z"/>
      <path class="cls-54" d="M175.39,188.99h16c-1.74,2.59-11.86,0-13,1.01l23.15,51.83c8.26,1.59,26.23-1.75,28.82-11.38,0,0-8.97-41.46-8.97-41.46.85-.07,1.71-.04,2-1,2.38,10.92,8.27,30.65,8.78,40.81.55,10.83-23.74,19.11-30.79,15.69-3.47-1.68-23.88-48.71-25.99-55.5Z"/>
      <path class="cls-35" d="M8.39,77.99h28.01s0,10,0,10H9.39c.86-4.13-1.63-6.37-1-10Z"/>
      <path class="cls-89" d="M9.39,87.99l1.45,1.03c6.2-.22,27.87-1.25,33.55-1.03,0,0,128,0,128,0,1.29-.36,1.69.82,2,2-55.32,0-110.68,0-166,0-.11-2.01-2.77-6.19,0-9,.41,1.92,1.77,4.19,1,7Z"/>
      <path class="cls-37" d="M165.39,179.99c-10.39,8.99-26.28,7.95-39,12v-1c2.5-.77,2.83-1.93,3-2,1.49-.64,2.14-1.02,3-2,5.82-.29,22.04-12.57,24.99-9.01-1.35.02-18.38,8.16-12.56,7.96,8.78-2.56,17.29-3.74,23.57-10.94-.64,2.08-1.54,3.46-3,5Z"/>
      <path class="cls-43" d="M142.39,155.99c9.65.03,19.35-.02,29,0,1.37.38,19.68-1,20,1-6.84.03-14.22-.18-21,0,1.65,6.74-1.82,10.63,2,17.99l-1.98-1c-.37,2.75-1.91,5.82-5.02,6,5.95-6.36,3.73-15.26,2.99-22.99-38.93-.06-78.04,0-116.99-.01-.03-.33.03-.67,0-1,30.32.09,60.68-.13,91,0Z"/>
      <path class="cls-21" d="M64.39,10.99c1.76,3.04,5,6.05,7,9-11.12,6.96-29.69,16.42-31.74,30.76-.63,4.43.77,9.32-1.26,13.24-1.56-3.72-2.62-8.49-6-11-.69-1.69-.61-3.73-2.51-5-2.64,5.75,5.23,13.57,3.51,20-7.87.41-16.19-.55-24,0C2.25,16.41,19.49,15.73,64.39,10.99Z"/>
      <path class="cls-31" d="M42.39,73.99c-.36-.82-1.57-1.36-.99-2.99l138.49-1.01c1.88,1.21-.4,1.8-.5,2.01-1.05-1.65-3.79-1-5.48-1.02-10.75-.12-23.48-.77-34,.03-1.35.1-6.06.48-6.51,1.97l7.99,2.01c-32.64-.79-66.83,2.64-99-1Z"/>
      <path class="cls-28" d="M179.39,71.99c-.69,1.46.02,1.78-2,3-6.2-.23-38.91,1.1-43.99-2.01.46-1.5,5.16-1.87,6.51-1.97,10.52-.8,23.25-.15,34-.03,1.7.02,4.43-.63,5.48,1.02Z"/>
      <path class="cls-29" d="M145.39,20.99c18.99,8.22,41.59,20.14,35.47,44.99h2.53c-.09.65.06,1.36,0,2.01h-5c1.31-6.59,2.05-17.03-1.54-22.96-3.25-5.36-26.74-22.04-32.46-22.04-.08-.97.43-1.37,1-2Z"/>
      <path class="cls-86" d="M141.39,74.99h36c-1.13.68-1.73,1.42-3.39,1.07l-131.49-.22c-.44-.56.04-1.49-.12-1.84,32.17,3.64,66.36.21,99,1Z"/>
      <polygon class="cls-13" points="36.39 74.99 9.39 74.99 8.39 69.99 34.89 69.99 36.39 74.99"/>
      <path class="cls-74" d="M72.39,21.99c-18.49,9.64-36.9,21.72-30,46h-2c-.61-1.36-1.43-2.63-2-4,2.03-3.92.63-8.81,1.26-13.24,2.05-14.34,20.62-23.8,31.74-30.76.43.64,1.05,1.09,1,2Z"/>
      <path class="cls-73" d="M42.39,76.99c2.83,2.78,2.58,7.36,2,11h-8v-10.01s-28,0-28,0c.39-1.7,3.12-.95,4.5-1,9.77-.39,19.72.02,29.5,0Z"/>
      <path class="cls-40" d="M32.39,52.99c2.02,4.97,3.48,10.23,6,15h-5c1.73-6.42-6.14-14.24-3.51-20,1.9,1.26,1.82,3.3,2.51,5Z"/>
      <path class="cls-12" d="M38.39,63.99c.57,1.37,1.39,2.64,2,4h-2c-2.52-4.77-3.98-10.03-6-15,3.38,2.51,4.44,7.28,6,11Z"/>
      <path class="cls-62" d="M144.39,22.99c5.72,0,29.22,16.68,32.46,22.04,3.59,5.93,2.85,16.38,1.54,22.96h-5l-83-1.01c7.35-5.95,5.15-2.53,4.95-10.45-.11-4.35.31-8.76.11-13.09-.14-3.03-3.07-3.37-.05-6.93l-3.01-1.54,2.99-1.98c9.2,2.05,23,1.46,31.97-1.53,4.19-1.39,14.56-8.47,17.03-8.47Z"/>
      <path class="cls-49" d="M95.39,32.99l-2.99,1.98,3.01,1.54c-3.02,3.56-.1,3.89.05,6.93.21,4.34-.22,8.75-.11,13.09.2,7.92,2.4,4.5-4.95,10.45l83,1.01H42.39c-6.9-24.28,11.51-36.36,30-46,7.34,3.26,15.04,9.22,23,11Z"/>
      <path class="cls-84" d="M150.39,12.99c-12.78,15.87-31.35,21.14-51,18l-2-10c13.33,2.69,30.97-.91,42-9l11,1Z"/>
      <path class="cls-63" d="M97.39,20.99l2,10c-11.9-1.9-23.95-7.84-31-18,12.02-7.9,11.59,4.27,29,8Z"/>
      <path class="cls-69" d="M150.39,12.99l-11-1c2.94-2.15,5.73-4.73,7.49-7.99l7.49,4.49c-1.6,1.3-2.71,2.93-3.98,4.5Z"/>
      <path class="cls-87" d="M68.39,12.99c-1-1.44-3.3-4.8-3.09-6.39l8.03-3.59,3.05,6.98c-1.09-.04-6.75,1.94-8,3Z"/>
      <path class="cls-22" d="M165.39,13.99c-3.8-.4-8.12.28-12,0,.47-.52,2.05-2.82,3-4l9,4Z"/>
      <path class="cls-66" d="M34.39,189.99c-2.17,8.5-5.03,17.14-6.76,25.74-1.61,8.02-1.95,21.49-4.41,28.59-3.53,5.36-18.99-2.55-20.61-8.01,0,0,1.77-46.33,1.77-46.33,9.99.08,20.02-.09,30,0Z"/>
      <path class="cls-34" d="M34.39,189.99c3.32.03,6.67-.03,10,.01-4.78,19.04-9.58,38.1-16.9,56.35-2.35,2.1-6.85.1-9.1-.36,1.71.05,4.08.51,4.83-1.67,2.46-7.1,2.79-20.58,4.41-28.59,1.73-8.6,4.59-17.24,6.76-25.74Z"/>
      <path class="cls-45" d="M221.39,188.99l8.97,41.46c-.61,6.23-13.53,10.95-18.97,11.54l-21-52c.27-.05.68-.74,1-1,9.59,0,20.63.73,30,0Z"/>
      <path class="cls-50" d="M190.39,189.99l21,52c-1.55.17-9.3.24-9.85-.16l-23.15-51.83c.73-.54,9.69.39,12-.01Z"/>
      <polygon class="cls-80" points="36.39 87.99 10.84 89.01 9.39 87.99 36.39 87.99"/>
      <path class="cls-83" d="M185.39,156.99c-3.79,11.13-.79,19.85,4,30-4.28-.07-8.62.18-12.89-.11-1.96-10.22-4.44-19.4-3.11-29.89,3.86-.26,8.08,0,12,0Z"/>
      <path class="cls-42" d="M90.39,77.99l4.88,1.13,1.14,7.86c1.03,1.07,22.72-1.52,25.99,1.01-25.98-.03-52.02,0-78,0,.67-3.37.51-6.83-1-10h47Z"/>
      <path class="cls-77" d="M131.39,77.99c14.98.04,30.02-.04,45,.01l-3,9.99c-5.3.09-34.09-.76-40.01-.99.14-3.32.52-6.44-1.99-9.01Z"/>
      <path class="cls-38" d="M131.39,77.99c2.52,2.56,2.13,5.69,1.99,9.01l32.01.99c-14.3-.27-28.7.01-43,0-3.27-2.53-24.96.06-25.99-1.01l-1.14-7.86-4.88-1.13c13.65,0,27.35-.04,41,0Z"/>
      <path class="cls-56" d="M183.39,77.99l-2,10c-1.87-.1-4.09-.79-6-1,4.55-2.52,1.5-8.85,8-9Z"/>
      <path class="cls-52" d="M171.39,89.99c-1.31,38.44-44.63,15.87-68,20l1.99-3c-3.14,1.68-7.11.97-9.99-1,18.26-2.83,55.84,8.57,68-3,3.06.53,6.74-9.04,5.99-10,0,0-8.99,7-8.99,7-7.53,3.48-31.43-.19-39.51-.99-12.54-.13-24.94-1.03-37.49-1.01,9.13-2.97,21.35,1.98,29-6h-21c-.22-1.76,2.26-.95,3.49-1,25.55-.21,51.06-.03,76.51-1Z"/>
      <path class="cls-51" d="M122.39,87.99c16.62-.03,33.43-.22,50,0H44.39c25.98,0,52.02-.03,78,0Z"/>
      <path class="cls-4" d="M141.39,156.99c-7.14,17.24,21.64,6.56-7.47,27.02-.43.33-3.55,2.55-1.53,2.98-.31.13-.63.85-1,1-5.29-1.52-10.65-.73-16-1l-11.01-2.01c1.39-8.96-1.37-18.82-.99-27.99,12.65,0,25.35-.07,38,0Z"/>
      <path class="cls-85" d="M151.39,156.99c5.65.04,11.34-.04,16.99.01,4.91,21.3-5.24,24.41-23.56,28.93-5.83.22,11.17-7.93,12.56-7.96-.2-2.2-5.93.53-6.99,1.01,7.35-9.14,1.48-12.7,1-22Z"/>
      <path class="cls-2" d="M145.39,156.99c-2.86,11.04,20.04,16.59-13,30-2.02-.42,1.1-2.65,1.53-2.98,29.13-20.49.33-9.76,7.47-27.02,1.33,0,2.67-.01,4,0Z"/>
      <path class="cls-46" d="M151.39,156.99c3.72,17.41,5.49,20.05-13,28,3.29-3.83,10.56-4.92,11.81-10.73,1.6-7.44-6.75-9.26-4.81-17.27,2,.02,4-.02,6,0Z"/>
      <path class="cls-3" d="M169.39,128.99c-.17,8.19,3.86,16.57,2.99,25,3.08.32,5.95.19,9.01,0l1.47,1.03c2.19-.24,4.4-.04,6.53-.03v1h-18c-2.71-4.5-1.08-11.12-2.02-15.31-3.99-1.72-1.68-8.56.02-11.69Z"/>
      <path class="cls-9" d="M180.39,89.99c-2.52,10.17-2.91,19.88,0,30-2.87-.25-6.95.98-9-1,.73-9.74,4.19-19.04,4-29,1.67-.02,3.33,0,5,0Z"/>
      <path class="cls-81" d="M173.39,105.99c-1.63,7.97-2.44,14.68-4,23-1.71,3.13-4.02,9.97-.02,11.69.95,4.19-.68,10.81,2.02,15.31h-3c-6.89-19.42,3.38-36.48,4.01-55.99l.99,5.99Z"/>
      <path class="cls-39" d="M168.39,122.99c-2.47,12.64-2.95,17.92-1,31-5.45-.64-10.79.42-16,1,13-29.61-22.76-31.17-43-30,19.24-3.67,40.09-1.36,60-2Z"/>
      <path class="cls-26" d="M103.39,110.99c2.73.36,22.7-1.41,22,1h-19.5c-3.69,1.55-11.88,1.92-15.5,0,4.37-.15,8.43-.87,13-1Z"/>
      <path class="cls-75" d="M160.39,99.99c1.85-.27,3.01-.75,5,.01-6.85,14.11-35.48,6.23-48.46,5.95-15.83.11-31.64,0-47.54-.96,28.26-5.56,62.08,2.31,91-5Z"/>
      <path class="cls-5" d="M163.39,102.99c.42-.48,2.16-2.78,2-2.99-1.99-.76-3.15-.28-5-.01l8.99-7c.75.96-2.93,10.53-5.99,10Z"/>
      <path class="cls-36" d="M151.39,153.99h-5c3.17-12.78,4.07-20.14-10.99-21.51,7.02,4.89,10.59,13.2,6.99,21.51-12.99,0-26.02.07-39,0l2-28c19-3.57,59.61-1.4,46,28Z"/>
      <path class="cls-32" d="M167.39,153.99c.05.34,1.06,1.25,1,2-7.99-.03-16.01.04-24,0,1.42-1.9,4.81-.76,7-1,5.21-.58,10.55-1.64,16-1Z"/>
      <path class="cls-33" d="M182.39,122.99c4.3,11.05-3.69,20.77-1,31-3.06.19-5.93.32-9.01,0,.98-10.32-5.26-21.05-1.99-31h12Z"/>
      <path class="cls-1" d="M146.39,153.99h-4c3.59-8.31.03-16.62-6.99-21.51,15.06,1.36,14.17,8.73,10.99,21.51Z"/>
    </g>
  </g>
</svg>