<?xml version="1.0" encoding="UTF-8"?>
<svg id="Layer_2" data-name="Layer 2" xmlns="http://www.w3.org/2000/svg" viewBox="0 0 268.18 317.98">
  <defs>
    <style>
      .cls-1 {
        fill: #fee9da;
      }

      .cls-2 {
        fill: #fef9f6;
      }

      .cls-3 {
        fill: #bfb098;
      }

      .cls-4 {
        fill: #feece0;
      }

      .cls-5 {
        fill: #d7c2ad;
      }

      .cls-6 {
        fill: #feede4;
      }

      .cls-7 {
        fill: #c6b49e;
      }

      .cls-8 {
        fill: #fef8f6;
      }

      .cls-9 {
        fill: #feefe9;
      }

      .cls-10 {
        fill: #d7c4af;
      }

      .cls-11 {
        fill: #c2b19b;
      }

      .cls-12 {
        fill: #41a386;
      }

      .cls-13 {
        fill: #fdeadc;
      }

      .cls-14 {
        fill: #c1b098;
      }

      .cls-15 {
        fill: #c7b49f;
      }

      .cls-16 {
        fill: #a4dac9;
      }

      .cls-17 {
        fill: #d7c5b1;
      }

      .cls-18 {
        fill: #cdb9a3;
      }

      .cls-19 {
        fill: #d7c3ad;
      }

      .cls-20 {
        fill: #bdac93;
      }

      .cls-21 {
        fill: #fee7d4;
      }

      .cls-22 {
        fill: #dac9b8;
      }

      .cls-23 {
        fill: #fdefe7;
      }

      .cls-24 {
        fill: #7acfb5;
      }

      .cls-25 {
        fill: #d6c6b5;
      }

      .cls-26 {
        fill: #f6f7f5;
      }

      .cls-27 {
        fill: #fdf8f3;
      }

      .cls-28 {
        fill: #feeee6;
      }

      .cls-29 {
        fill: #fdf8f5;
      }
    </style>
  </defs>
  <g id="Layer_1-2" data-name="Layer 1">
    <g>
      <path class="cls-3" d="M23.11,308.06c-9.84-.97-20.44-5.25-23.11-15.48,10.47-49.66,8.62-102.06,21.11-151.01C28.44,78.82-17.96,3.76,76.65,0c39.54,27.65,100.97,40.11,148.57,49.66-12.84,82.9,15.47,169.38,42.92,247.92.85,11.28-10.55,17.63-20.03,19.48l-1-1c9.23-2.22,20.52-9.37,18.77-20.25-19.72-46.28-28.99-99.52-43.61-145.37-1.52-7.1-.05-23.28-2.16-30.88,0,0,0-31,0-31-.21-11.62,3.37-25.3,2.95-37.45C174.38,40.12,118.2,31.7,77.05,2.58-15.65,2.91,32.41,83.61,23.14,142.59c-12.79,48.09-10.25,100.13-21.12,149,.17,9.68,15.33,14.13,23.09,15.47-.8.16-1.67,0-2,1Z"/>
      <path class="cls-20" d="M52.11,56.06c6.14,27.68,6.76,60.23,10.98,88.52.6,6.97-1.83,26,2.46,30.53,11.17,6.64,25.62,2.67,38.04,1.94,2.86,3.03-20.59,3.34-21.49,4.02,17.12,16.73,36.07,2.24,53.78.18,12.13-.06,28.85-1.66,37.63-12.28,6.03-11.36.73-28.95,8.58-39.91-2.51,40.5,18.56,74.04,30.71,110.79,7.81,23.53,12.21,48.12,19.08,71.92,2.38,4.93,10.54,4.29,15.21,4.29l1,1c-6.44,1.26-12.62,1.88-17.83-2.67-7.63-28.22-13.2-57.14-23.42-84.58-6.49-17.42-18.21-37-22.29-54.71-2.21-6.59-.32-26.22-5.45-29.04-.07,5.95.1,13.31-1.46,19.05-1.15,4.24-4.16,5.9-4.55,9.95l-1.49-.82c-8.63,7.29-20.48,8.53-31.51,9.82-34.85,8.6-44.7,11.11-76.99-7.99l-1.01,2.99c.1-1.46.79-6.55-.99-6.99-11.93,43.68-24.92,87.31-19.28,132.56-.58,1.42-3.86,1.78-4.73,3.43-5.11.09-9.04.49-14,0,3-3.27,13.76-.78,15.87-4.63.79-13.92-.6-28.01.09-41.91,1.83-36.98,19.21-71.14,22.02-106.98,1.06-13.54-3.07-24.95-4.85-38.11-2.29-20.9-2.19-41.78-6.12-62.36.89-.29,1.77,1.44,1.99,1.99Z"/>
      <path class="cls-21" d="M63.11,10.06c-.47.8-2.91.78-1.47,2.01,3.72,2.8,10.27,6.49,14.47,8.99l-2,1c-.32-.06-2.1,1.46-2.88.94-.59-3.74-13.22-11.9-16.12-10.93l.02,2.52-4.02.99c3.8,8.77,1.44,19.4,2,28.98.25,4.2,4.47,8.32-.99,11.5-.22-.56-1.1-2.28-1.99-1.99,1.01,36.28,8.75,80.72-6.75,113.76-4.82,12.41-1.28,31.95-2.27,45.73-5.26,30.7-16.53,60.96-11.99,92.51-8.64,2.59-26.46-4.34-27.1-14.47,10.88-48.86,8.33-100.9,21.13-149,1.06-13.22.64-32.62,0-46.07-.91-19.33-9.81-58.71.96-74.46,12.54-6.25,25.35-9.35,39-12ZM36.11,151.07c7.26-.46,13.48-5.27,12.99-13.01-1.68.45-1.29,3.15-2.52,4.97-2.86,4.2-8.66,5.64-13.47,5.03-.22,4.48,3.76,7.61,6.99,9.99l-3.99-6.99Z"/>
      <path class="cls-9" d="M221.11,130.06c.6,4.6.12,17.41,1.15,20.38.48,1.38,2.71,1.29,2.92,2.32,4.23,20.72,8.51,42.68,14.22,63.52,7.39,26.95,17.4,53.15,26.48,79.54.84,5.8-.11,6.08-2.77,10.25-1.29-16.94-11.91-30.44-16.51-46.99-6.48-23.32-8.71-48.17-19.99-69.99l-1.49,15.38c3.58,12.97,10.24,26.15,12.75,39.34,2,17.31,1.62,32.35,16.65,44.36,3.31,5.29,4.04,13.06,8.59,17.91-4.03,5.82-12.62,10.76-20,10-6.67-20.76-12.02-42.01-18.73-62.77-7.44-25.02-26.88-57.77-23.49-82.62-.78-3.66-6.56.41-4.56-8.95.24-1.11,1.74-1.55,1.79-1.67l11.99,1.01c.12,3.04-3.45,4.59-5.99,5.01.92,2.71,7.49-1.5,7.87-2.66,1.33-7.37-8.13-3.21-11.88-4.35.6-7.07,12.71-6.03,17.36-5.86,2.86.66,1.08,6.17,1.64,6.85,2.54.91,5.45-6.35,4.99-6.98l-5.77-1.23c-2.8-1.98.79-11.04.67-14.2-.14-3.61-1.58-8.85-1.9-13.59l2.99-2c.94,2.64-2.37,7.1,1.01,8Z"/>
      <path class="cls-28" d="M172.11,54.06c16.54,1.25,33.08,10.75,50,10-2.63,20.16-2.5,45.97-1,66-3.38-.9-.07-5.35-1.01-8l-2.99,2c-1.13-16.31.8-31.29.04-46.55-.07-1.42-.08-5.17-2.03-5.45-.5,27.02-14.58,39.43-1.02,66.41-.46,5.8-9.09,8.47-9.99,14.58l-5.84,1.84c-.22-2.67-3.29-2.12-4.62-3.87-2.77-3.62-3.13-18.72-2.45-23.38.83-5.61,7.09-11.88,2.91-18.59-.28-21.12-9.92-40.34-24.99-54.51.17-.9,2.19-.56,2.99-.49Z"/>
      <path class="cls-6" d="M155.11,35.06c22.33,6.48,44.95,12.34,67.95,16.05,1,4.37-.68,9.16-.95,12.95-8.5.71-16.19-2.02-24-4l3.99-.99c-9.48-1.61-18.77-4.39-27.99-7.01-5.69-2.14-22.94-3.54-23.11-9.85-1.15-.83-6.86,1.16-5.93-3.6.1-.52,3.59-2.34,4.37-2.32,2.35.04,8.45,4.96,5.67-1.22Z"/>
      <path class="cls-13" d="M90.11,12.06c16.85,9.45,45.9,17.46,65,23,2.78,6.18-3.32,1.26-5.67,1.22-.79-.01-4.27,1.8-4.37,2.32-1.02,6.1,7.48.87,6.05,5.45-21.68-2.95-43.45-10.39-64-18-5.05-5.54,12.93-12.18.5-12l2.5-2.01Z"/>
      <path class="cls-1" d="M83.11,7.06c2.32,1.45,5.39,4.09,7,5l-2.5,2.01c12.43-.18-5.55,6.46-.5,11.99-8.71-3.25-17.91-8.71-25.47-13.99-1.44-1.24,1-1.21,1.47-2.01,6.59-1.28,13.23-2.82,20-3Z"/>
      <path class="cls-19" d="M83.11,7.06c-20.3,2.1-40.46,6.24-59,15,7.24-9.91,20.68-13.91,32.37-16.17,4.57-1.06,16.99-4.6,20.57-3.31,1.83.66,4.32,3.4,6.06,4.48Z"/>
      <path class="cls-17" d="M185.11,82.06c4.05,10.22,7.4,20.83,8.01,31.99,1.79.07.98-3.75.99-4.99,4.18,6.71-2.09,12.97-2.91,18.59-.69,4.66-.33,19.76,2.45,23.38,1.34,1.74,4.41,1.2,4.62,3.87l5.84-1.84v1c-1.81.61-3.92,3.01-4,5-.73-.22-.77-2.27-1.5-2-2,.92-.4,2.72-.5,3-.04.11-1.55.55-1.79,1.67-1.99,9.36,3.78,5.29,4.56,8.95-3.4,24.84,16.05,57.61,23.49,82.62,6.72,20.75,12.06,42,18.74,62.77-3.63-.07-9.74-.49-11.21-4.29-6.88-23.8-11.27-48.39-19.08-71.92-12.14-36.71-33.24-70.35-30.72-110.79-11.82,19.93,5.12,42.6-25.99,50,.61-1.03,1.43-1.95,2-3,2.13-1.08,3.98-2.58,5.43-5.07,6.91-11.87-1.89-13.84-2.49-22.44-.48-6.89,5.77-8.92-1.41-16.51-20.45-16.54-66.3-13.65-84.56,4.79-7.42,9.49,1.16,13.66-.04,21.68-1.12,7.49-13.7,14.4-.93,19.57-16.26,1.1-9.79-22.8-11.02-33.48-1.47-16.92-4.29-34.4-5.98-51.52,5.99,20.19,27.15,20.08,44,17,8.29,2.65,25.37.94,33-3,26.91,2.68,50.92,12.98,51-25ZM182.1,127.05c-2.5-12.22,5.49-24.47,4.99-36.99-.29,4.38-12.13,36.38-4.99,36.99Z"/>
      <path class="cls-1" d="M52.11,56.06c5.46-3.18,1.24-7.29.99-11.5-.56-9.58,1.8-20.21-2-28.98l4.02-.99-.02-2.52c2.86-.99,15.54,7.2,16.12,10.93.78.52,2.56-1,2.88-.94,3.76.75,14.64,6.89,19.75,8.75,8.26,2.99,16.85,5.69,25.25,8.25-1.97,13.98-.56,28.5-1.05,42.54-.06,4.06,1.51,6.73-1.07,11.34-17.75.62-39.27,4.33-55.87-1.87,7.05,15.72,43.65,8.66,58.99,12.01l-2,3.98,8,1.01c-23.16-.74-58.66,15.14-69-15-1.02-10.28-1.5-28.11-5-37Z"/>
      <path class="cls-13" d="M140.11,123.06l-5.99,1.99c4.84.42,16.53,6.52,19.03,10.43,2.69,4.21-1,6.44-1.04,10.58-4.51,7.58,1.27,11.72,3.66,18.84,1.34,3.99,1.97,5.74-2.43,7.89l-22.22,7.26c8.23-1.82,19.76-.34,26.99-3.99-.57,1.05-1.39,1.97-2,3-8.85,2.68-12.45,1.49-20.21,2.2-17.5,1.6-26.78,13.1-46.79,4.8,3.22-3.38,7.82-4.52,12-7,.41-.25,3.8-.46,2.49-2.01-9.66.89-19.97,2.72-29.49,1.01-12.77-5.17-.19-12.08.93-19.57,1.2-8.02-7.37-12.19.04-21.67,11.4-14.58,48.21-17.8,65.02-13.76Z"/>
      <path class="cls-5" d="M29.11,306.06c-4.55-31.57,6.73-61.8,11.99-92.51.99-13.77-2.54-33.31,2.27-45.73,15.42-30.88,7.03-72.52,7.74-106.76,3.68,18.2,2.64,36.9,5.13,55.37,1.77,13.16,5.91,24.57,4.85,38.11-2.81,35.84-20.19,70-22.02,106.98-.69,13.9.7,27.99-.09,41.91-.9,2.62-7.52,2.21-9.87,2.63Z"/>
      <path class="cls-26" d="M62.11,179.06c-.81,12.16-9.48,31.5-12.51,44.99-3.06,13.62-5.7,29.16-7.49,43.01-2.81-31.59,13-63.85,19.01-94.99,1.78.45,1.09,5.53.99,6.99Z"/>
      <path class="cls-24" d="M140.11,184.06l-10.64,3.87.64,1.13c-5.21,1.01-9.71,1.56-15,2l-1-1c9.73-2.16,14.78-4.69,26-6Z"/>
      <path class="cls-10" d="M101.11,179.06c-4.18,2.48-8.78,3.62-12,7-2.64-1.09-5.64-2.19-7-4.99l19-2.01Z"/>
      <path class="cls-12" d="M73.11,181.06v5c-4.23-1.83-10.45-2.18-8-8,1.9,1.02,5.7,2.11,8,3Z"/>
      <path class="cls-16" d="M150.11,183.06c-7.87,2.9-11.42,4.34-20,6l-.64-1.13c5.73-2.27,14.41-5.41,20.64-4.87Z"/>
      <path class="cls-18" d="M36.11,151.07l3.99,6.99c-3.23-2.39-7.21-5.52-6.99-9.99,4.81.6,10.61-.83,13.47-5.03,1.23-1.81.84-4.52,2.52-4.97.49,7.74-5.73,12.55-12.99,13.01Z"/>
      <path class="cls-8" d="M263.11,306.06c-4.55-4.85-5.28-12.62-8.59-17.91-15.04-12.03-14.64-27.03-16.64-44.36-2.51-13.19-9.18-26.36-12.75-39.33,0,0,1.49-15.38,1.49-15.38,11.28,21.81,13.51,46.67,19.99,69.99,4.6,16.55,15.22,30.05,16.51,46.99Z"/>
      <path class="cls-2" d="M217.11,124.06c.33,4.74,1.77,9.98,1.9,13.59.12,3.16-3.47,12.21-.67,14.2l5.77,1.23c.46.64-2.45,7.89-4.99,6.98-.57-.68,1.22-6.19-1.64-6.85-1.69-.56-11.56.25-13.36.85-.21-6.75,9.57-9.51,9.99-15.58-13.56-26.95.52-39.44,1.02-66.41,1.95.27,1.96,4.03,2.03,5.45.76,15.26-1.17,30.23-.04,46.55Z"/>
      <path class="cls-11" d="M200.11,159.06c3.75,1.15,13.21-3.01,11.88,4.35-.38,1.16-6.95,5.37-7.87,2.66,2.54-.41,6.1-1.97,5.99-5.01l-11.99-1.01c.1-.28-1.5-2.07.5-3,.73-.27.77,1.77,1.5,2Z"/>
      <path class="cls-4" d="M119.11,39.06c11.99,3.66,42,13.49,53,14v1c-.81-.06-2.82-.41-2.99.49,1.15,2.99,4.52,3.95,5.99,5.51-2.22,3.69,4.37,9,6,12,7.39,11.68,4.46,30.66-8.33,37.17-12.36,5.02-32.81-5.05-46.67-1.17,0,0-8-1.01-8-1.01l2-3.98-10-1.01c20.2-1.2,62.61,13.12,69.99-11.99-.92-.96-7.11,5.03-8.77,5.71-8.4,3.44-56.13-1.32-69.22-1.72l14.88-1.13c2.59-4.6,1.02-7.27,1.07-11.34.49-14.03-.93-28.57,1.05-42.54Z"/>
      <path class="cls-14" d="M183.11,72.06c6.7,11.75,11.15,23.15,11,37-.01,1.24.8,5.06-.99,4.99-.93-14.84-6.28-28.49-12.01-41.99l.49-.97,1.51.97Z"/>
      <path class="cls-25" d="M174.11,52.06c9.22,2.62,18.51,5.4,27.99,7.01l-3.99.99c-7.01-2.12-18.96-5.46-26-6v-1c.83.04,1.75-.09,2-1Z"/>
      <path class="cls-22" d="M183.11,72.06l-1.51-.97-.49.97c-1.63-3-8.22-8.31-6-12,3.89,4.12,5.4,7.45,8,12Z"/>
      <path class="cls-15" d="M76.11,21.06c23.54,10.94,49.44,19,75,23,3.19,3.87,17.31,6.39,23,8-11.06,3.17-42.16-10.09-55-13-14.5-3.63-32-11.35-45-17l2-1Z"/>
      <path class="cls-23" d="M140.11,123.06c6.1,1.47,15.15,4.34,19.53,8.97,7.18,7.59.92,9.63,1.41,16.51.6,8.6,9.4,10.57,2.49,22.44-1.45,2.5-3.3,4-5.43,5.07,8.97-12.09,2.91-16.66-.79-27.72-.42-3.98,3.51-8.8,2.78-11.76-4.73-4.57-3.12,7.86-7.99,9.48.04-4.14,3.73-6.38,1.04-10.58-2.5-3.91-14.19-10-19.03-10.43l5.99-1.99Z"/>
      <path class="cls-20" d="M182.1,127.05c-7.14-.79,4.7-32.51,4.99-36.99.5,12.51-7.49,24.77-4.99,36.99Z"/>
      <path class="cls-7" d="M134.11,107.06c-7.61,3.93-24.71,5.66-33,3,11.14-1.15,21.82-1.6,33-3Z"/>
      <path class="cls-27" d="M102.11,94.06c13.09.41,60.82,5.16,69.22,1.72,1.66-.68,7.85-6.68,8.77-5.71-7.32,25.09-49.84,10.8-69.99,12-14.11-1.21-42.31,3.12-48.99-11,12.08,5.36,27.65,2.59,40.99,3Z"/>
      <path class="cls-29" d="M158.11,176.06c-7.23,3.65-18.76,2.17-26.99,3.99l22.22-7.26c4.4-2.15,3.77-3.9,2.43-7.89-2.39-7.12-8.17-11.26-3.66-18.84,4.87-1.61,3.27-14.04,7.99-9.48.72,2.96-3.2,7.78-2.78,11.76,3.7,11.04,9.74,15.67.79,27.72Z"/>
    </g>
  </g>
</svg>