<?xml version="1.0" encoding="UTF-8"?>
<svg id="Layer_2" data-name="Layer 2" xmlns="http://www.w3.org/2000/svg" xmlns:xlink="http://www.w3.org/1999/xlink" viewBox="0 0 158.03 182.3">
  <defs>
    <style>
      .cls-1 {
        mask: url(#mask);
      }

      .cls-2 {
        fill: #fff;
        stroke: #fff;
        stroke-miterlimit: 10;
        stroke-width: 6px;
      }
    </style>
    <mask id="mask" x="0" y="-9129.5" width="158.03" height="32766" maskUnits="userSpaceOnUse"/>
  </defs>
  <g id="Layer_1-2" data-name="Layer 1">
    <g class="cls-1">
      <g>
        <path class="cls-2" d="M38.5,17.88c-.09-.25-.2-.41-.12-.69.98-3.32,6.41-8.56,8.74-11.42l1.92-2.75c-.08-.09-1.17,1.03-1.32,1.2-3.58,3.94-6.19,7.36-9.23,11.64-.74,1.04-2.82,1.9,0,2.04Z"/>
        <path class="cls-2" d="M137.28,53.62c-1.24-1.72-.3-3.7-.23-5.62.1-2.79.11-6.38-.25-9.12s-1.53-2.39-3.79-2.93c-7.35-1.74-14.06-2.65-21.43-4.94-10.35-3.22-21.42-7.4-31.28-11.88-7.09-3.22-13.9-7.03-20.94-10.35.05.37.46.44.72.6,2.19,1.35,4.88,2.63,7.19,3.84,15.22,7.9,32.81,15.39,49.39,19.91,6.33,1.73,12.8,2.58,19.18,4.08.44.31.69,2.9.73,3.58.15,2.37.15,5.8-.01,8.16-.12,1.67-.82,3.26-.47,4.92l1.2-.24Z"/>
        <path class="cls-2" d="M17.64,102.07c.25-2.41.06-4.91.24-7.31.32-4.23,1.14-8.48,1.43-12.72.64-9.17.18-18.43.96-27.58,1.18-13.82,6.76-23.61,15.33-34.07.41-.5,1.05-1.18,1.2-1.79-4.73,4.87-8.85,10.53-12.18,16.48-3.86,6.9-4.26,10.93-4.84,18.67s-.64,15.22-.96,22.79c-.59,14.22-2.54,28.76-5.5,42.71l-2.39,16.32-.99,12.56c-.41.42-5.96-3.49-6.18-4.25-.34-1.39.3-2.71.43-4.03,2.16-22.2,5.92-45.23,10.38-67.1,1.33-6.52,3-12.98,4.23-19.52.08-.41.26-1.01-.28-.28-2.98,13.35-6.14,26.7-8.51,40.18-2.26,12.88-4.14,26.32-5.78,39.31-.42,3.3-1.13,7.55-1.24,10.77,0,.29-.02.56.14.82,1.83,2.19,4.4,3.46,6.72,5.04l-.39,3.09-.94.03.48,1.68c.34-.04.61-.21.97-.14,2.01.37,4.72,1.48,6.89,1.99,4.78,1.14,7.19,1.19,11.72,3.62,7.17,3.84,16.79,10.65,24.76,11.93,1.4.22,2.78,0,4.18.14,1.93.18,3.77,1.23,5.55,1.41,7.24.72,15.53-1.56,22.34,1.16,1.9.76,3.54,1.91,5.6,2.56,1.39.43,2.87.56,4.25,1.03,1.13.38,1.95,1.04,2.94,1.37,4.25,1.45,18.09-1.96,22.45-3.91,1.53-.69,4.13-2.75,5.54-2.87,2.26-.2,3.55,2.4,5.32,2,7.47-3.37,16.54-7.42,21.94-13.8,1.26-1.49,1.72-1.84,1.52-3.93-1.77-18.98-7.8-38.94-11.64-57.67-1.79-8.71-3.46-17.84-4.8-26.62-.35-2.29-.95-5.36-1.03-7.6-.13-3.41,1.69-7.38.13-10.68-.36.72.13,1.49.11,2.24-.13,4.79-1.23,6.89-.4,12.2,1.47,9.37,3.16,18.98,5.03,28.31,4.1,20.4,10.06,40.45,12.18,61.24-.11.84-2.27,3.03-3,3.71-5.7,5.29-13.04,8.87-20.03,12.13-1.02.3-1.7-.98-2.41-1.45-3.57-2.34-5.62.86-8.69,2.31-4.53,2.14-16.84,4.91-21.61,4.02-.64-.12-1.76-1.06-2.48-1.35-1.92-.77-4.26-.95-6.27-1.65-1.63-.57-3.03-1.53-4.57-2.14-5.48-2.18-12.92-1.15-18.81-1.07-3.48.05-4.44-.55-7.51-1.14-2.56-.49-4.68-.16-7.29-.86-7.08-1.91-15.18-7.12-21.6-10.77-1.38-.78-2.79-1.61-4.24-2.23-4.92-2.08-10.7-2.18-15.71-4.19-.81-.66.21-3.28.3-4.25,1.3-15.05,3.45-28.7,5.89-43.56.19-1.14.59-2.35.66-3.54l.48.24Z"/>
        <path class="cls-2" d="M95.8,43.55c-16.66-4.74-32.64-11.55-47.95-19.55l-8.15-5.16c.84.96,1.97,1.67,3,2.4.21.15.26.55.42.65,6.57,4.24,15.97,8.44,23.27,11.62,9.3,4.06,18.87,7.4,28.63,10.22l.78-.18Z"/>
        <path class="cls-2" d="M80.21,78.08c-.35-4.3-1.33-8.51-1.99-12.76l-1.6-6.91,3.19,18.51.4,1.16Z"/>
        <path class="cls-2" d="M110.42,80.96l5.17-17.98.11-1.21-4.96,16.5c-.1.64-.39,1.29-.49,1.91-.04.26-.26.83.18.78Z"/>
        <path class="cls-2" d="M87.89,128.94c-2.95-15.61-7.03-30.98-10.81-46.39l-.46-.86,10.91,46.53.35.72Z"/>
        <path class="cls-2" d="M99.63,136.13c.05-5.25-.11-10.46-.24-15.71-.11-4.59-.41-9.32-.49-13.91-.06-3.86.43-8.81.02-12.49-.04-.36-.05-.74-.49-.83l1.19,42.94Z"/>
        <polygon class="cls-2" points="139.91 117.18 139.43 108.91 138.96 106.39 139.19 112.03 139.91 117.18"/>
        <path class="cls-2" d="M17.4,107.11v29.26c.42.05.23-.54.24-.84.34-8.13-.34-16.37.22-24.44-.51-1.12-.04-2.3-.06-3.35,0-.19-.09-.7-.4-.63Z"/>
        <path class="cls-2" d="M141.11,128.46l-.72-8.51-.47-2.28c-.07,2.92.62,5.8.75,8.72l.45,2.07Z"/>
        <rect class="cls-2" x="125.77" y="155.09" width=".24" height="13.67"/>
        <path class="cls-2" d="M17.64,102.07l-.48-.24c-.08,1.19-.47,2.4-.66,3.54-2.44,14.87-4.59,28.51-5.89,43.56-.08.97-1.11,3.59-.3,4.25,5.01,2.01,10.8,2.1,15.71,4.19,1.46.62,2.87,1.45,4.24,2.23,6.42,3.64,14.52,8.86,21.6,10.77,2.61.7,4.74.37,7.29.86,3.07.59,4.03,1.18,7.51,1.14,5.89-.08,13.32-1.11,18.81,1.07,1.54.61,2.94,1.58,4.57,2.14,2.01.7,4.34.87,6.27,1.65.72.29,1.84,1.23,2.48,1.35,4.77.89,17.08-1.88,21.61-4.02,3.07-1.45,5.13-4.65,8.69-2.31.71.47,1.39,1.74,2.41,1.45,6.99-3.26,14.32-6.84,20.03-12.13.73-.68,2.89-2.88,3-3.71-2.11-20.79-8.08-40.85-12.18-61.24-1.87-9.33-3.57-18.93-5.03-28.31-.83-5.32.27-7.41.4-12.2.02-.75-.46-1.52-.11-2.24,1.57,3.31-.26,7.27-.13,10.68.09,2.24.68,5.31,1.03,7.6,1.34,8.78,3.02,17.91,4.8,26.62,3.85,18.73,9.87,38.7,11.64,57.67.2,2.09-.27,2.45-1.52,3.93-5.41,6.38-14.47,10.43-21.94,13.8-1.78.4-3.07-2.2-5.32-2-1.42.12-4.01,2.18-5.54,2.87-4.36,1.95-18.2,5.36-22.45,3.91-.99-.34-1.81-.99-2.94-1.37-1.38-.46-2.86-.59-4.25-1.03-2.06-.64-3.7-1.8-5.6-2.56-6.81-2.72-15.1-.44-22.34-1.16-1.78-.18-3.61-1.22-5.55-1.41-1.39-.13-2.78.09-4.18-.14-7.98-1.28-17.59-8.08-24.76-11.93-4.54-2.43-6.94-2.48-11.72-3.62-2.17-.52-4.87-1.62-6.89-1.99-.36-.07-.63.1-.97.14l-.48-1.68.94-.03.39-3.09c-2.32-1.58-4.89-2.85-6.72-5.04-.16-.26-.15-.53-.14-.82.11-3.22.83-7.48,1.24-10.77,1.64-12.99,3.52-26.43,5.78-39.31,2.36-13.49,5.53-26.83,8.51-40.18.53-.73.36-.13.28.28-1.23,6.54-2.9,13-4.23,19.52-4.45,21.87-8.21,44.9-10.38,67.1-.13,1.33-.76,2.64-.43,4.03.22.75,5.77,4.67,6.18,4.25l.99-12.56,2.39-16.32c2.95-13.95,4.9-28.49,5.5-42.71.32-7.57.39-15.21.96-22.79s.98-11.77,4.84-18.67c3.33-5.95,7.45-11.61,12.18-16.48-.15.61-.79,1.29-1.2,1.79-8.57,10.46-14.15,20.25-15.33,34.07-.78,9.15-.33,18.41-.96,27.58-.29,4.24-1.11,8.49-1.43,12.72-.18,2.41,0,4.9-.24,7.31Z"/>
        <path class="cls-2" d="M137.28,53.62l-1.2.24c-.34-1.66.36-3.25.47-4.92.17-2.36.16-5.8.01-8.16-.04-.69-.29-3.27-.73-3.58-6.38-1.5-12.85-2.35-19.18-4.08-16.58-4.52-34.17-12-49.39-19.91-2.32-1.2-5-2.49-7.19-3.84-.26-.16-.66-.23-.72-.6,7.04,3.32,13.84,7.13,20.94,10.35,9.86,4.48,20.93,8.66,31.28,11.88,7.37,2.3,14.08,3.21,21.43,4.94,2.26.53,3.44.31,3.79,2.93.36,2.74.35,6.34.25,9.12-.07,1.92-1,3.9.23,5.62Z"/>
        <path class="cls-2" d="M95.8,43.55l-.78.18c-9.75-2.82-19.33-6.16-28.63-10.22-7.3-3.18-16.69-7.39-23.27-11.62-.16-.1-.21-.5-.42-.65-1.03-.74-2.16-1.44-3-2.4l8.15,5.16c15.32,8,31.29,14.8,47.95,19.55Z"/>
        <path class="cls-2" d="M99.63,136.13l-1.19-42.94c.44.09.45.47.49.83.41,3.68-.08,8.63-.02,12.49.07,4.59.38,9.32.49,13.91.13,5.24.29,10.45.24,15.71Z"/>
        <path class="cls-2" d="M87.89,128.94l-.35-.72-10.91-46.53.46.86c3.78,15.42,7.86,30.78,10.81,46.39Z"/>
        <path class="cls-2" d="M38.5,17.88c-2.82-.14-.74-1,0-2.04,3.04-4.28,5.65-7.69,9.23-11.64.15-.17,1.24-1.29,1.32-1.2l-1.92,2.75c-2.33,2.87-7.76,8.11-8.74,11.42-.08.29.03.44.12.69Z"/>
        <path class="cls-2" d="M17.4,107.11c.31-.07.4.44.4.63.02,1.05-.45,2.23.06,3.35-.56,8.08.12,16.32-.22,24.44-.01.3.18.89-.24.84v-29.26Z"/>
        <path class="cls-2" d="M110.42,80.96c-.43.06-.22-.52-.18-.78.1-.62.39-1.28.49-1.91l4.96-16.5-.11,1.21-5.17,17.98Z"/>
        <path class="cls-2" d="M80.21,78.08l-.4-1.16-3.19-18.51,1.6,6.91c.66,4.25,1.64,8.46,1.99,12.76Z"/>
        <polygon class="cls-2" points="139.91 117.18 139.19 112.03 138.96 106.39 139.43 108.91 139.91 117.18"/>
        <path class="cls-2" d="M141.11,128.46l-.45-2.07c-.13-2.92-.82-5.8-.75-8.72l.47,2.28.72,8.51Z"/>
        <rect class="cls-2" x="125.77" y="155.09" width=".24" height="13.67"/>
      </g>
    </g>
  </g>
</svg>