<?xml version="1.0" encoding="UTF-8"?>
<svg id="Layer_2" data-name="Layer 2" xmlns="http://www.w3.org/2000/svg" viewBox="0 0 127.08 187.42">
  <defs>
    <style>
      .cls-1 {
        fill: #ceb99e;
      }
    </style>
  </defs>
  <g id="Layer_1-2" data-name="Layer 1">
    <path class="cls-1" d="M101.45,20.02c7.37-.71,11.98,7.23,13.94,13.28,3.49,10.79,4.32,18.99,5.97,30.01.75,5.01,1.44,11.47,5.72,14.67.09.55-.18.34-.54.3-4.25-.42-7.15-5.52-9.23-8.75-.12-.19-.17-.67-.53-.31-.17.17-.85,4.02-1.08,4.8-1.33,4.41-3.55,8.45-5.83,12.41,1.72,12.45,7.84,27.19,4.39,39.64-.34,1.24-1.2,2.79-1.32,3.96-.18,1.75.19,5.2.23,7.21.03,1.2.76,1.76-1.28,1.53-3.77-.42-7.83-3.45-11.08-4.99-1.43-.68-3.27-.97-4.65-1.94.12,5.84,1.82,11.5,2.8,17.23.74,4.33.81,6.61.78,10.95-.02,2.6.48,5.37.22,7.9-.37,3.69-3.17,11.55-5.87,14.03-.87.8-2.74,1.37-3.15,1.77-.97.97-.92,3.47-3.66,3.05.49-.97,1.24-1.81,1.56-2.88.39-1.32.55-3.93.61-5.39.15-3.41-.35-6.8-.25-10.2l-.74,2.25c-.94,1.15-3.42,7.46-4.69,7.54-.36.02-.65-.47-1.04-.44-.26-.36,1.36-1.62,1.64-2.07,6.21-10.11-4.41-30.3-5.92-41.26-.73-5.27-.54-10.76.23-16.01.92-6.28,1.53-12.39,2.13-18.74.17-1.79-.48-4.17,1.05-5.55.55-.5,2.42-.87,3.15-.83s.85.62,1.44.74c2.27.45,8.12-2.67,9.86-4.16,3.9-3.32,7.23-10.79,4.69-15.68-.83-1.6-2.41-1.32-3.94-.73-4.28,1.65-6.12,8.6-9.06,12.04-2.66,3.12-7.13,5.83-11.08,6.9-1.36.37-2.13.25-3.54.18,3.55-2.76,6.4-5.94,8.26-10.08.64-1.43,2.63-6.54,2.71-7.85.07-1.12-2.31-5.18-2.87-6.61-3.37-8.66-3.03-17.78-1.4-26.79-.55-.14-.39.1-.55.3-10.31,13.35-23.7,18.16-40.32,18.9-1.67.07-10.6-.55-11.17-.15-.27.19-.24.66-.25.97-.03,1.62.43,3.85.5,5.52.34,7.88-.73,16.41,1.86,23.81s7.35,12.76,12.16,18.78c1.13,1.42,1.34,2.78,3.28,3.68,2.29,1.07,6.4-.35,7.65.26.95.46,1.56,3.13,1.9,4.09.38,1.06.91,1.28.98,2.86.12,2.67-2.7,6.29-4.44,8.29-1.53,1.76-3.74,3.25-4.9,5.17-.03,3.43-.62,6.87-.74,10.29-.25,7.26,1.2,13.71,2.57,20.71.77,3.91,2.27,12.52,1.15,16.11-.31.98-3.28,6.65-4.06,6.66-.07,0-1.14-.42-1.09-.78.04-.29,1.15-1.78,1.41-2.43.97-2.45.39-4.31.03-6.8-.83.81-1.27,1.98-2.03,2.88-1.41,1.67-4.24,3.62-6.36,4.2-.65.18-4.8,1.13-4.56,0l3.21-3.02c3.21-5.58-.7-12.02-2.5-17.36-2.11-6.28-4.37-13.4-5.24-19.94-.21-1.57-.04-3.79-.32-5.19-.17-.84-1.62-2.61-1.99-3.77-.72-2.28-.52-5.04-1.14-7.26-.24-.87-.96-1.72-1.25-2.59-2.62-7.68-1.92-16.99,1.07-24.46-.3-.28-7.04,1.55-7.91-.36,5.01-2.17,8.87-7.29,9.01-12.84-1.15-1.2-2.49-2.07-3.62-3.34-6.24-7.04-6.38-14.17-7.32-22.9-.04-.35-.47-.63-.43-.92.03-.24.48-.66.58-1.11.31-1.52.35-3.2.7-4.82.44-2.06,1.25-3.98,1.8-5.99-1.39.01-2.88-.59-4.2-.72-1.79-.17-6.2.18-7.61-.54-.27-.13-.46-.32-.65-.54,4.39-2.08,9.44-4.01,12.89-7.49l2.45-6.78c-5.09-.8-10.54-2.79-14.8-5.7C4.99,26.25-.12,22.22,0,21.62c.09-.48.45-.22.65-.18,1.65.27,3.3.88,4.99,1.02,5.58.44,12.14-.99,17.32-3.05,3.08-1.22,3.98-2.88,6.42-4.86C44.71,2.12,68.69-4.13,87.63,3.01c7.25,2.74,11.58,9.9,13.81,17.01ZM63.53,2.78c-8.73.77-17.51,4.32-25.09,8.59-1.69.95-3.74,2.18-5.29,3.33-.21.15-.67.55-.78.79,8.01-3.01,15.07-8.13,23.31-10.62l7.85-2.09ZM109.81,26.77c-1.68-2.47-4.79-5.69-8.05-4.56l-.09,1.42,4.05.87,4.09,2.27ZM24.93,84.1l-4.49-9.29-3.17-10.13c.09,5.63,1.97,11.28,4.93,16.05l2.73,3.38ZM109.57,82.9c.36-.06.45-.45.6-.71,1.77-3,5.72-13.39,5.04-16.57-.08-.35-.21-.7-.49-.94-.7,2.6-1.16,5.28-1.97,7.86-1.08,3.42-3.16,6.76-3.18,10.37ZM112.44,120.56c.67-5.91-.98-11.95-1.75-17.8l-1.13-5.23c-.11,3.13.14,6.32.51,9.44.47,4.03,1.27,8.41,1.96,12.43.05.3.05,1.16.4,1.15ZM29.25,99.45c-1.68.02-2.28,2.27-2.75,3.61-1.44,4.12-1.92,8.59-1.81,12.94l2.22-9.89,2.33-6.66Z"/>
  </g>
</svg>