<?xml version="1.0" encoding="UTF-8"?>
<svg id="Layer_2" data-name="Layer 2" xmlns="http://www.w3.org/2000/svg" viewBox="0 0 106.29 107.32">
  <defs>
    <style>
      .cls-1 {
        fill: #ad7b3b;
      }

      .cls-2 {
        fill: #d2bea4;
      }

      .cls-3 {
        fill: #c38e4d;
      }

      .cls-4 {
        fill: #e0c6a4;
      }

      .cls-5 {
        fill: #d4ae7f;
      }

      .cls-6 {
        fill: #c0a684;
      }

      .cls-7 {
        fill: #b29169;
      }
    </style>
  </defs>
  <g id="Layer_1-2" data-name="Layer 1">
    <g>
      <path class="cls-4" d="M1.69,82.08c.1,1.4.25,2.76.55,4.13.18.84.79,2.01.9,2.7.07.45-.2.51-.49.25-.4-.38-.54-1.32-.72-1.8-.15-.42-.68-1.76-.69-2.03-.02-.76.24-2.46.45-3.25Z"/>
      <path class="cls-5" d="M1.21,76.8c-.65,2.42-.75,5.14,0,7.55l-.48-.36c-.13-.75-.2-1.13-.24-1.92-.05-.94-.08-2.2,0-3.12.06-.75.11-1.62.72-2.16Z"/>
      <path class="cls-3" d="M.49,82.08c-.57-.89-.72-2.27,0-3.12-.08.92-.05,2.18,0,3.12Z"/>
      <path class="cls-4" d="M98.54,69.84c.05-1.49.05-3.06,0-4.56.4,1.31.4,3.27,0,4.56Z"/>
      <path class="cls-7" d="M78.41,103.67c0-1.16-.34-2.2-.24-3.36.32,1.05.92,2.32.24,3.36Z"/>
      <path class="cls-4" d="M98.06,72.24c.08-.57-.15-1.28.48-1.68-.04.58,0,1.24-.48,1.68Z"/>
      <path class="cls-4" d="M98.54,64.09c-.74-.25-.4-1.12-.48-1.68.36.43.44,1.14.48,1.68Z"/>
      <path class="cls-4" d="M97.82,61.21h-.48c-.05-.38.06-.84,0-1.2.38.31.36.78.48,1.2Z"/>
      <path class="cls-4" d="M105.5,42.74c.01-.11-.4-.82.24-1.2-.05.37.18.99-.24,1.2Z"/>
      <path class="cls-5" d="M1.93,75.36l.24.12v.35s-.72.24-.72.24c.16-.35.31-.47.48-.72Z"/>
      <path class="cls-4" d="M97.35,59.77c-.45-.13-.52-.53-.48-.96.06.2.4.57.48.96Z"/>
      <path class="cls-4" d="M104.3,19.71l-.24-.48c.03.07.15.22.24.48Z"/>
      <path class="cls-4" d="M98.06,61.93l-.24-.48s.17.09.24.48Z"/>
      <path class="cls-4" d="M103.58,46.82l.72-.72c-.26.45-.56.52-.72.72Z"/>
      <path class="cls-4" d="M102.14,48.49l1.44-1.44c-.52.62-.81.92-1.44,1.44Z"/>
      <path class="cls-4" d="M101.18,49.21l.72-.72c-.19.15-.28.45-.72.72Z"/>
      <path class="cls-4" d="M100.7,49.45l.24-.24c-.07.04-.14.19-.24.24Z"/>
      <path class="cls-4" d="M59.47,7.24c.43-.58.69-.75,1.2-1.2l-1.2,1.2Z"/>
      <path class="cls-4" d="M96.87,58.57l-.24-.24s.18.06.24.24Z"/>
      <path class="cls-4" d="M103.82,18.51l-.24-.24s.18.1.24.24Z"/>
      <path class="cls-4" d="M104.06,18.99l-.24-.24s.17.07.24.24Z"/>
      <path class="cls-5" d="M1.21,76.56c.06-.18.23-.22.24-.24l-.24.24Z"/>
      <path class="cls-4" d="M95.91,77.52l.24-.24c-.05.09-.19.16-.24.24Z"/>
      <path class="cls-4" d="M95.43,78.24l.48-.48c-.19.29-.42.4-.48.48Z"/>
      <path class="cls-4" d="M94.47,79.44c.3-.35.48-.78.96-.96-.27.38-.5.76-.96.96Z"/>
      <g>
        <path class="cls-1" d="M29.5,18.99c.02.38.49,1.26.24,1.92h.48c-.01.32,0,.64,0,.96,0,.16,0,.32,0,.48,0,.2-.07.16,0,.72.22,1.63.94,2.39,1.16,3.29.09.35-.23.77-.05,1.46.21.81.98,1.82,1.53,2.45.24.28.51.79.83.98.63.37,1.31-.07,1.09.94-.19.04-.49.39-.72.48-.09-.05-.88-.45-.96-.48-.92-.36-1.63-.25-2.64-.24v.48c-.08,0-.16,0-.24,0-.16.01-.32-.02-.48,0-1.24.12-1.65.11-2.88.48-.16,0-.32,0-.48,0-.67.02-1.83.09-2.16.72-.08,0-.16,0-.24,0-.69.05-1.67-.23-2.16.24-.08,0-.16,0-.24,0-.97.06-2.81,0-3.36.72-.08.01-.16-.01-.24,0-.73.14-.81.44-1.2.96-1.33,1.77-2.73,4.06-3.84,6l-.24.24c-.03.06.03.18,0,.24l-.24.24c-.03.06.03.18,0,.24l-.24.24c-.15.32-.38.72-.48.96l-.24.72c-.03.07.03.17,0,.24l-.24.24c-.11.3-.11.81-.24,1.2-.87.29-.58.91-.72,1.44-.02.07.02.16,0,.24l-.24.48c-.02.07.02.17,0,.24-.71-.15-.42.35-.54.76-.47,1.56-.52,2.2-.66,3.79,0,.08,0,.16,0,.24-.48,2.13-.65,4.66-.48,6.85.02.3.08.57.24.83l1.2,8.16c0,.08,0,.16,0,.24,0,.53-.18,1.35.24,1.68,0,.08,0,.16,0,.24-.4.26-.23.99-.24,1.44,0,.55-.03,1.13,0,1.68.06.58,0,1.27-.72,1.2v-.48s-.24,0-.24,0v.48c-.46-1.03-.97-1.77-1.68-2.64v-.24s-.18-.56.36-.49c.59.08.7.81,1.32.73.44-1.91-.41-3.6-.24-5.51-.95-.12-.45,1.69-.94,2.05-.94.69-.63-.52-.86-1.09-.1-.24-.89-1.3-1.31-1.21-.3.61,1.08,3.23.96,3.36-.47.02-.84-.44-1.2-.72.04-1.07-.49-2.01-.7-3.02-.19-.89.22-2-.74-2.74-.02-.08.02-.16,0-.24-.04-.18-.24-.22-.24-.24-.02-.08.02-.17,0-.24-.32-1.21-.74-2.04-1.2-3.12-.03-.07-.19-.15-.24-.24l.22-.11-.46-.85c-.01-.08.01-.16,0-.24-.13-.69,0-1.48-.48-2.16.08-1.09.04-2.13.25-3.24.07-.39-.16-.41.47-.36l.5,4.9c1.03,2.36,1.83,5.23,3.1,7.45.15.26,1.51,2.47,1.92,2.04-.15-1.15.9-2.08.72-3.22-.1-.65-1.15-1.64-1.52-2.33-.43-.79-2.06-4.2-2.03-4.83.02-.35.22-.79.68-.66.04.21.18.81.24.96s.22.2.24.24c.07.13.22.46.24.48.08.09.15.17.24.24.35.28.71.56,1.2.48.2-2.3-.17-4.28-.72-6.48-.12-.49-.1-1.11-.72-.96-.06-.19.05-.51,0-.72,1.33-.29.68,2.2,1.92,2.16.12-.14-.11-1.57,0-1.99.08-.33.69.03.72-1.37,0-.23.02-.49,0-.72.23-.06.22-.28.24-.48.03-.34.04-.88,0-1.2.64.13.49-.31.64-.67.55-1.34.98-2.84,1.52-4.13.03-.08.2-.15.24-.24.11-.26.31-.53.48-.96.1-.24.16-.48.24-.72.71.08.39-.08.48-.48.02-.08-.02-.17,0-.24.6.12.8-.71.96-1.2.08-.08.16-.16.24-.24.2-.21.18-.39.24-.48.17-.24.18-.64.24-.72.02-.02.32.07.49-.16.48-.67.9-1.46,1.43-2.11-.07-.33-2.32-.56-2.82-1.5-.41-.77-.05-1.41-.11-2.05-.14-1.46-.82-1.72.3-3.3.69-.98.09-.71.34-1.68.4-1.55,2.91-4.06,4.18-5.01.27-.2.5-.66.76-.03-.04.05-.1.29-.24.48-3.05,1.49-4.58,5.14-4.55,8.4,1.24.31.24-.83,1.2-.72l.48.96c.02.25-.05.5.11.73.18.26.46.16.61.23-.03.57.34.62.71.85,1.79,1.1,4.92.9,6.96.59l-1.2-1.44c1.86.28,3.6.68,5.51.48-.04-.85-1.19-.95-1.8-1.44s-1.1-1.17-1.68-1.68c-.45-.4-.8-.1-1.2-.96-.63-1.34-.35-3.38.05-4.76.09-.31,1.38-3.58,1.99-2.92-.27,1.07-.82,1.81,0,2.88-.03.14,0,.32,0,.48-.69-.14-.51.39-.49.84.08,1.25.83,2.44.93,3.17.05.38-.57.55-.34,1.03.63,1.28,3.92,2.57,5.29,2.65.3.02.5,0,.36-.36-.25-.61-.7-1.43-.96-2.04-.16-.39-.3-.82-.48-1.2-.05-.1-.15-.17-.24-.24-.51-1.26-1.11-4.14-1.2-5.52-.07-1.13-.27-2,.72-2.64Z"/>
        <path class="cls-3" d="M30.94,14.43c-.35,1.31-1.55,1.39-2.47,1.91-.23.13-.3.57-.65.73-.41.18-1.26.12-1.78.5-.55.41-.59,1.65-.02,1.42l1.8-1.44c-.05.2-.31.43-.24.72h.48c-.42.65-.7,2.29-.96,2.64-.02.02-.35-.06-.49.16-.05.08-.69,1.67-.71,1.76-.82-1.07-.27-1.8,0-2.88-.61-.66-1.9,2.61-1.99,2.92-.39,1.38-.68,3.41-.05,4.76.4.86.75.56,1.2.96.58.51,1.09,1.21,1.68,1.68s1.76.59,1.8,1.44c-1.91.2-3.66-.2-5.51-.48l1.2,1.44c-2.04.31-5.17.51-6.96-.59-.37-.23-.74-.28-.71-.85.71.35,3.75.89,4.4.69.23-.07.46-.3.4-.56-.05-.2-2.82-1.87-3.36-2.4-.95-.93-1.85-3.34-2.13-.94-.08.65-.09,1.6-.03,2.25l-.48-.96c-.96-.11.05,1.03-1.2.72-.02-3.26,1.5-6.91,4.55-8.4-.3.4-1.46,2.24-1.57,2.63-.76,2.74,1.74,3.56,3.37,4.8.6.45.89,1.6,2.03,1.44-.11-.74-.59-1.28-.7-2.06-.31-2.24.47-5.6,1.18-7.77.15-.46.73-1.18.96-1.68.41.02.56.09.48-.36-.07-.39-.45.11-.48.12-.31.09-.58.11-.96.24v-.48c-.24,0-.48-.03-.72,0,.22-.41.62-.36.96-.48.94-.34,1.88-.8,2.88-.96.09-.58-.08-.54-.58-.46-.64.1-1.7.41-2.06.94-.15.03-.36-.04-.48,0l-.48.24c-.07.02-.17-.02-.24,0-.3.09-.45.23-.48.24-.07.02-.17-.02-.24,0-.27.09-.43.22-.48.24-.07.03-.17-.03-.24,0-.17.06-.22.23-.24.24-.07.03-.17-.03-.24,0-.22.09-.38.2-.48.24-.07.03-.17-.03-.24,0-.17.07-.22.23-.24.24-.07.03-.17-.03-.24,0-.15.07-.36.05-.48.24l-2.16.96c-.28.02-.4.43-.48.48-.06.04-.18-.04-.24,0-.3.2-.37.4-.48.48-.29.22-.72.48-.96.72-.26.27-.43.34-.72.72-.32.41-.69,1.19-.96,1.68-.03.05-.17.11-.24.24-.03.06.03.17,0,.24,0,.02-.16.06-.24.24-.03.07.03.17,0,.24-.09.26-.16.31-.24.72-.02.08.01.16,0,.24-.07.42-.32.69-.24,1.44.2,1.94.78.48,1.44-.24.5,0,.54-.1.48.48-1.11,1.58-.44,1.84-.3,3.3.06.64-.3,1.27.11,2.05.5.94,2.75,1.17,2.82,1.5-.53.66-.95,1.44-1.43,2.11-.17.23-.47.14-.49.16-2.19-2.05-3.3-4.08-2.88-7.2-1.78,1.67-2.7,5.42-2.4,7.8.12.96.79,1.85.49,2.99l1.68-1.2c-.05.48.1,1.06,0,1.51-.02.08-1.35,1.18,0,1.36-.54,1.28-.97,2.78-1.52,4.13-.15.36,0,.8-.64.67-.04-.27-.42-1.84-.49-1.91-.13-.12-.81.09-.94-.02-.04-.04-.15-.86-.25-1.19.32.1.78-.24.96-.24.12,0,.46.32.72.24-.32-2.98-1.39-6.12-.94-9.22.12-.86,1.16-2.16.7-3.01.13-.18.11-.5.46-.85.59-.59,2.21-1.32,2.19-2.14,0-.24-.45-.09-.5-.13-.03-.03.03-.16,0-.24-.38-1.16-.18-2.4.17-3.55,2.07-6.83,13.7-9.05,19.73-10.36ZM26.86,16.11v.48s.96,0,.96,0v-.48s-.96,0-.96,0Z"/>
        <path class="cls-3" d="M5.76,38.42s.21.28.25.58c.06.45-.12,1.09-.03,1.43.07.25.63.12.88.38s-.15.46-.14.49c-.58-.14-.53.3-.6.7-.47,2.54.46,4.92,1.78,6.87.3.44.27.7.98.58-.03,1.39-.64,1.04-.72,1.37-.11.42.13,1.85,0,1.99-1.24.04-.59-2.45-1.92-2.16-.04-.18-.47-.55-.42-.89l-.54-3.91-.72,3.84-.48-1.44v4.68s.48.12.48.12c-.51-.73,0-1.59,0-1.92.36.66.42,1.65.48,2.4-.63.04-.76-.28-.62.49.12.63.13,2.22,1.1,1.91.02.15-.03.34,0,.48-.46-.14-.66.31-.68.66-.03.63,1.6,4.04,2.03,4.83.38.69,1.42,1.68,1.52,2.33.18,1.14-.87,2.07-.72,3.22-.4.43-1.77-1.77-1.92-2.04-1.27-2.23-2.07-5.1-3.1-7.45l-.5-4.9c-.63-.05-.4-.03-.47.36-.21,1.11-.16,2.15-.25,3.24-.21,2.73-.31,4.14.41,6.92.11.42-.15.9.55.76.02.08-.02.16,0,.24.08.35.23.45.24.48.02.08-.02.16,0,.24.11.54-.32,1.12.48.96.02.08-.02.17,0,.24.09.27-.04.31.24.72.05.08.17.15.24.24.43,1.17.71,1.64,1.68,2.4.36.28.73.74,1.2.72.12-.13-1.26-2.74-.96-3.36.42-.09,1.21.97,1.31,1.21.23.56-.08,1.78.86,1.09.49-.36,0-2.18.94-2.05-.17,1.92.68,3.61.24,5.51-.62.08-.73-.65-1.32-.73-.54-.07-.31.46-.36.49-.12.09-.89-.07-.96.48-.08.03-.18-.03-.24,0-.63.33-1.47,1.34-1.92,1.92-.04.05.04.19,0,.24l-.48.48c-.04.06.04.18,0,.24l-.48.48c-.03.06.03.18,0,.24l-.24.24c-.03.06.03.17,0,.24-.35.1-.48.37-.48.72-.02.07.02.17,0,.24-.13,0-.41-.06-.46.01-.06.08-.48,1.89-.49,2.06-.03.41.23.7.23.81,0,.32-.02.64,0,.96-.2.79-.47,2.49-.45,3.25,0,.27.54,1.61.69,2.03-.82-.74-1.02-2.31-1.2-3.36l.48.36c-.76-2.41-.66-5.13,0-7.55.02-.08-.02-.17,0-.24l.24-.24c.03-.07-.03-.18,0-.24l.72-.24v-.35s-.24-.12-.24-.12c.34-.52.56-.76.96-1.2l1.44-.96-.24-.24c.32-.26.59-.52.96-.72l.12.24.36-.48c.06-.03.16.02.24,0,.12-.04.27.05.36,0,.41-.64-1.25-1.29-1.68-1.67-.46-.4-.59-.75-1.07-1.21-.68-.64-1.31-1.97-1.68-2.88l.2-.16c-.07-.87-.29-1.84-.92-2.48-.83-3.59-1.1-6.23,0-9.83,1.37-4.51,2.52-9.09,4.13-13.5.13-.35.42-.88-.05-1.13.22-.27.33-.59.72-.72Z"/>
        <path class="cls-3" d="M49.88,12.27c-5.16,1.33-9.4,5.14-12.09,9.62l-.62,1.89c-.11.05-.3-.13-.5.14-.33.45-1.15,4.06-1.19,4.76-.02.42-.08,1.56.11,1.83.18.25.76.17,1.09.36.39.23-.04.75,1.33.59.6-.07.97-.4,1.45-.47.74-.11,1.66.14,2.34-.06.39-.11,1.76-1.68,2.22-2.1.26-.24.31-.69.34-.73,2.42-2.18,10.06-6.65,13.19-7.68-.1.5.04.74.48.96-.38.05-.91-.02-.96,0,.05-.05-.04-.25-.12-.24-.26.02,0,.35.12.24-.03.01.11.33-.3.55-1.58.86-3.48,1.36-5.25,2.42-1.12.67-2.52,1.54-3.33,2.55-.82.09-2.08.83-2.4,1.56s1.22-.1,1.44.12c.51.51-2.8,3.24-2.4,3.6,1.82-.21,3.68-.69,5.51-.72.4,0,.8,0,1.2,0-.05.08.01.33-.12.48-.29.33-4.73,1.22-5.57,1.38-.71.14-1.95-.29-1.98.78-.24,0-.48.01-.72,0-.48-.02-.96.02-1.44,0l.96-.96h-1.2c-.17-.62.99-1.36.08-1.64-.61-.19-3.35,0-3.2.92.05.33.66.78.96.96.17.23.32.48.48.72l.24.24c.04.06-.04.18,0,.24l.24.24c.03.06-.03.18,0,.24l.24.24c.03.06-.03.17,0,.24l.24.24c.03.07-.03.17,0,.24l.24.48c.03.07-.02.17,0,.24l.24.24c.02.07-.02.17,0,.24l.24.72c.08.32.17.57.24.96-.63,1.31.68,3.04-.48,4.32-.17-.7-.29-1.78-.48-2.4l-.48-.96c-.03-.07.03-.17,0-.24v-.72s-.24.24-.24.24c-.48-1.24-1.25-2.94-1.92-4.08l-.24-.24c-.04-.06.04-.19,0-.24l-.48-.72c-.38-.41-1.01-.66-1.44-.96-.46-.32-.48-.89-1.2-.72.22-1.02-.46-.57-1.09-.94-.32-.19-.59-.69-.83-.98l1.44.24c.02-.59-.05-1.18.03-1.77.25-1.78.85-3.81,1.65-5.43,1.64-3.32,7.11-9.75,10.79-10.79.33-.09.83-.17,1.2-.24.03,0,.2.23.36.21.55-.07,1.28-.67,1.56-.21Z"/>
        <path class="cls-3" d="M67.38,15.15c.8.4.37.39.48.48.03.03.5-.05.84.23,1.04.83,1.79,2.09,2.99,2.78l-.48.84c1.71.07,4.37,1.94,5.52,3.23s1.22,2.69,1.91,3.72c.19.28,1.83,1.22,2.27,1.93.29.48.9,2.16.73,2.61-.34.9-1.11.99-1.32,1.22.21-1.88-1.76.96-2.15,1.32-.82.75-2,1.98-2.64,2.52-2.55,2.13-7.99,3.05-11.27,3.6-.8.13-.62.62-1.11.93-2.15,1.37-4.72,2.12-7.28,1.95,0,.41.11.82.24,1.2-.77.18-.45-.8-.96-1.2-.1-.3-.39-.35-.48-.48-.04-.05-.23-1.44-.48,0-.64-.13-.52-.36-.72-.48-.15-.16-.3-.34-.48-.48-.04-.39-.03-1.07.39-1.19.16-.04.31.23.33.23-.09.64-.04.6.46.86,1.73.88,5.11.18,6.85-.62.25-.11.48.2.36-.48-1.14.21-2.46-.56-3.36-.72-.26-.56,1.69-.94,2.08-.95.35-.02.53.23.56.23l-.36.48c4.2-.05,11.07-.36,13.84-3.9.21-.27,1.58-2.31,1.62-2.46.1-.33-.02-.43-.35-.35-3.41,1.69-6.52,3.95-10.19,5.03.05-.17.19-.32.24-.48s-.11-.32.15-.5c.38-.27,1.81-.61,2.41-.9,2.71-1.3,4.39-2.36,6.79-4.12,1.92-1.4,3.59-1.9,3.84-4.8-1.85.74-3.78.5-5.65.71-.31.03-.52.24-.58.25-.23.03-.51-.04-.72,0-.35-.32-.77-.27-1.2-.24-2.13.13-3.37-.21-5.27-.24l.24-.96c1.91-.87,4.61-1.97,6.84-2.64.37-.11.72.27.59-.48l-5.99-.48c-.11-.96,1.03.05.72-1.2-4.09-.3-7.69,1.81-11.44,3.06l-6.54,3.65c.02-.05-.38-.54.24-.96.63-.2,1.6-1.24,2.32-1.63,2.77-1.51,5.97-2.72,8.95-3.76.45-.16,2.99-.74,3.11-.85.54-.51-.54-.46-.72-.48-.13-.73.37-.46.83-.48,2.12-.07,3.81.59,5.88.72-.13-1.22-2.26-1.32-3.24-1.43-2.84-.33-4.61.23-7.31.72.01-.55,1.12-1.11,1.68-1.44,1.83-1.09,4.19-2.18,6.33-2.15l.14-.48h-.48s0-.48,0-.48Z"/>
        <path class="cls-1" d="M72.17,94.31c.24-.03.73-.04.96,0,.83.15,1.78,1.1,2.4,1.68.19.36.44.66.72.96,1.15,1.24,1.42,1.71,1.92,3.36-.1,1.16.24,2.2.24,3.36,0,.08,0,.16,0,.24-.86.35.02,1.49-1.2,1.2.28-2.6-1.41-5.66-3.48-7.2-.72-.54-3.17-1.43-3.44-2.08-.39-.95,1.12-1.43,1.88-1.52ZM76.73,99.35c-.08-1.2-3.9-5.5-4.93-4.09-.66.91.42.65.86.84.56.25,1.07.74,1.66.98l2.41,2.26Z"/>
        <path class="cls-1" d="M43.88,34.1c.32,0,.64,0,.96,0-.21,1.42.34.77.72.96.02.01-.07.32.17.48,1.36.93,4.13,3,5.59,3.36.3.07.23,0,.24,0,1.03.09,2.81.1,3.84,0,.89-.09.32-.34.48-.48.04-.04.53.01.72,0,.16,0,.32.01.48,0v-.96c.32-.02.64.01.96,0,.64-.02,1.28.01,1.92,0h.48c.24.36.41,0,.48,0,.64-.05,1.1-.16,1.68-.24l.12.24.12-.24c.22-.03.46-.19.96-.24.06,0,.53.5.96-.24.23.03.48-.02.72,0-.05.16-.18.31-.24.48-.8.24-.93.35-1.92.48-.45.06-.55-.19-.48.48-.28.03-.68.02-.96,0-.07,0-.38-.39-.72-.24v.48c-.16,0-.32,0-.48,0-.03,0-.2-.25-.56-.23-.39.02-2.34.39-2.08.95-.19-.03-1.38-.04-1.44,0h-.48s0,.48,0,.48c-.16.02-.32,0-.48,0-.18.01-1.07-.48-.96.48-.3.03-.65,0-.96,0-.03,0-.17-.27-.33-.23-.42.11-.43.79-.39,1.19-.22-.17-.48-.33-.72-.48-.06-.04-.18.03-.24,0-.19-.57-.53-.55-.96-.72-.07-.03-.17.03-.24,0l-.48-.24c-.07-.03-.17.03-.24,0,.11-.64-.16-.49-.72-.48-1.55-.84-2.44-1.57-3.84-2.64l-.48-.48c-.32-.24-.62-.65-.72-.72l-.96-.48c-.07-.03-.17.03-.24,0v-.72c.24.01.48,0,.72,0Z"/>
        <path class="cls-1" d="M11.04,28.58s.49-.11.5.13c.02.81-1.6,1.54-2.19,2.14-.35.35-.33.67-.46.85-.15.21-.51.28-.77.79-1.99,3.88-1.02,7.32.29,11.21-.18,0-.64.34-.96.24-.23-.79-.62-1.9-.72-2.64,0-.03.38-.24.14-.49s-.81-.13-.88-.38c-.09-.34.09-.98.03-1.43-.04-.3-.25-.55-.25-.58-.27-3.65,1.74-7.58,4.79-9.6.15-.1.33-.15.48-.24Z"/>
        <path class="cls-5" d="M49.64,11.31c.33.04,1.2-.22,1.2.24-.98-.06-2.06.15-2.88.72-.36.07-.87.15-1.2.24.19-1.07-1.33-.24-1.8-.24h-3.6c-.89,0-3.18.71-4.2.96v-.48c-.23.02-.5-.04-.72,0v-.24c3.45-.95,7.81-1.57,11.4-1.45.56.02,1.19.18,1.79.25Z"/>
        <path class="cls-1" d="M.97,53.77c.79-4.63,1.07-10.84,4.08-14.63.47.25.18.78.05,1.13-1.61,4.41-2.76,8.99-4.13,13.5Z"/>
        <path class="cls-3" d="M29.74,32.42v.24c-.55.26-1,.29-1.44.48l-.24.24c-.07.03-.18-.03-.24,0l-.48.24c-.16.09-.56.36-.72.48-.89.66-1.98,1.75-2.64,2.64-.15.2-.16.35-.24.48-.43.18-.55.59-.72.96-.03.07.03.17,0,.24-.68.24-1.38,1.02-1.68,1.68-.05-1.7.91-3.07,1.92-4.32l2.16-2.16c.06-.03.16.02.24,0,.12-.04.33.04.48,0v-.48c.07-.02.17.02.24,0,.25-.07.4-.22.48-.24,1.22-.37,1.64-.36,2.88-.48Z"/>
        <path class="cls-1" d="M36.45,12.75c.22-.04.49.02.72,0v.48c-1.2.29-2.16.46-3.36.96-.62.26-1.65.32-1.68,1.2-.34.16-.63.31-.96.48-.53.28-.81.23-1.44.72-.3.23-1.51,1.42-1.68,1.68h-.48c-.07-.29.19-.52.24-.72.03-.13-.02-.33,0-.48.35-.16.42-.6.65-.73.92-.52,2.12-.6,2.47-1.91.14-.03.34.03.48,0,1.58-.35,3.5-1.43,5.03-1.68Z"/>
        <path class="cls-4" d="M68.34,82.56c-1.74,1.89-3.45,4.32-5.68,5.71-.28.17-.97.69-1.27.41.91-1.04,2.11-1.96,3.01-2.99.25-.29.25-.6.34-.73.02-.04.09.19.48-.48.14-.03.4.05.48,0,.51.05.84.1.72-.48.11-.06.17-.19.24-.24.59-.38,1.16-.71,1.68-1.2Z"/>
        <path class="cls-1" d="M55.15,10.59v.24c-.72.19-1.37.56-2.52.73-.45.07-.97-.3-.84.47-.73-.04-1.23.06-1.92.24-.28-.45-1.01.14-1.56.21-.16.02-.33-.22-.36-.21.82-.57,1.89-.78,2.88-.72,0-.46-.87-.2-1.2-.24,1.79-.44,3.68-.66,5.51-.72Z"/>
        <path class="cls-5" d="M38.37,32.42c-.15-.93,2.59-1.11,3.2-.92.91.28-.25,1.02-.08,1.64h1.2s-.96.96-.96.96c.48.02.96-.02,1.44,0v.72c-.12-.05-.48.04-.77-.06-.53-.2-.99-.66-1.63-.66l.48-2.15-2.64.48h-.24Z"/>
        <path class="cls-4" d="M41.72,38.9c.32,1.87.8,4.48.12,6.24-.52-.49-.45-1.29-.6-1.92,1.16-1.28-.15-3.01.48-4.32Z"/>
        <path class="cls-4" d="M23.02,38.42c-.69,1.47-1.37,2.93-1.68,4.56-.34.04-.45-.91-.45-1.1,0-.64.19-1.2.45-1.78.3-.66,1-1.44,1.68-1.68Z"/>
        <path class="cls-7" d="M9.84,69.12l-1.2-8.16h.24c.36,2.89.93,5.13.96,8.16Z"/>
        <path class="cls-7" d="M78.41,103.91c-.05.82-.58,2.73-1.19,3.24-1.06.89-.02-1.89,0-2.04,1.21.29.34-.85,1.2-1.2Z"/>
        <path class="cls-6" d="M8.88,60.97h-.24c-.16-.25-.22-.53-.24-.83-.17-2.19,0-4.72.48-6.85-.21,2.64-.33,5.04,0,7.68Z"/>
        <path class="cls-7" d="M36.45,12.51v.24c-1.53.24-3.46,1.33-5.03,1.68,1.57-.93,3.29-1.44,5.03-1.92Z"/>
        <path class="cls-7" d="M65.22,84.48c-.39.67-.45.44-.48.48.07-.9.1-2.01.24-2.88,1.2,1.18.99,1.1.24,2.4Z"/>
        <path class="cls-1" d="M58.27,10.35c.04.17.72.66.48,1.2-1-.4-2.24.02-3.12-.72.77-.09,1.08-.03,1.92-.24.23-.06.55.08.72-.24Z"/>
        <path class="cls-6" d="M10.08,48.49c-.4,1.52-.79,3.04-1.2,4.56.13-1.6.19-2.23.66-3.79.12-.41-.17-.91.54-.76Z"/>
        <path class="cls-5" d="M77.69,91.43c.3.18.56.32.48.72-.21.02-.4,0-.48.24-.63-.19-1.3-.31-1.2-1.08.06-.47,1.14.12,1.2.12Z"/>
        <path class="cls-6" d="M21.59,33.86c-.97.67-2.33.54-3.36.72.55-.71,2.39-.66,3.36-.72Z"/>
        <path class="cls-4" d="M2.41,78.24c-.3.94-.34,1.96-.72,2.88,0-.11-.26-.4-.23-.81.01-.16.42-1.97.49-2.06.05-.07.33,0,.46-.01Z"/>
        <path class="cls-4" d="M34.77,32.18c.72-.17.74.4,1.2.72-.87-.37-.6-.19-1.08.48-.36-.08-.68-.62-.84-.72.23-.09.53-.44.72-.48Z"/>
        <path class="cls-6" d="M67.38,71.52h-.24c.14-1.78.41-3.49,0-5.28h.24c.48,1.86.05,3.51,0,5.28Z"/>
        <path class="cls-5" d="M1.69,66.25c-.41-1.01-.49-1.63-.72-2.64.63.64.85,1.61.92,2.48l-.2.16Z"/>
        <path class="cls-6" d="M9.84,74.4c.02.47.82,2.07-.83,1.69-.27-.06-.08-.37-.13-.49v-.48s.24,0,.24,0v.48c.73.07.78-.62.72-1.2Z"/>
        <path class="cls-4" d="M78.17,92.15c.08,0,.16,0,.24,0,.16.38,1.04.38,1.2,0,.24,0,.48.01.72,0-.5.9-1.89.47-2.64.24.07-.23.27-.22.48-.24Z"/>
        <path class="cls-7" d="M55.15,42.5c.16.48.12,1.26.24,1.68l-.96-2.16h.24c.09.12.38.18.48.48Z"/>
        <path class="cls-6" d="M26.38,32.9v.24c-.07.02-.17-.02-.24,0-.16.04-.33.2-.48.24-.45.11-.98.19-1.44.24.33-.63,1.49-.7,2.16-.72Z"/>
        <path class="cls-6" d="M33.09,32.18c-.93-.18-1.8.16-2.64.24v-.48c1.01,0,1.72-.12,2.64.24Z"/>
        <path class="cls-7" d="M57.31,48.25c-.03-.08-.29-.21-.37-.46-.18-.55-.02-1.18-.35-1.7.46.71.99.94.72,2.16Z"/>
        <path class="cls-7" d="M67.14,72.48c-.05.64-.31,1.26-.24,1.92-.12-.02-.2-.24-.23-.24-.17-.69.11-1.15.24-1.68h.24Z"/>
        <path class="cls-5" d="M57.55,10.59c-.84.21-1.15.15-1.92.24-.16.02-.35-.03-.48,0v-.24c.8-.03,1.6.02,2.4,0Z"/>
        <path class="cls-7" d="M59.47,50.89c-.64,0-.86-.56-1.2-.96l.12-.24c.45.29.74.87,1.08,1.2Z"/>
        <path class="cls-6" d="M23.98,33.62c-.48.45-1.47.21-2.16.24.49-.47,1.47-.19,2.16-.24Z"/>
        <path class="cls-4" d="M82,91.67c-.34.54-.9.43-1.44.48.33-.6.98-.37,1.44-.48Z"/>
        <path class="cls-7" d="M59.7,51.13c.52.48.73-.24.72,1.2h-.24c-.04-.24-.45-.84-.48-1.2Z"/>
        <path class="cls-5" d="M3.36,69.12c.49.46.61.81,1.07,1.21s2.1,1.03,1.68,1.67c-.09.04-.24-.04-.36,0-.41-1.16-2.14-1.59-2.4-2.88Z"/>
        <path class="cls-6" d="M10.08,71.04c-.42-.33-.24-1.15-.24-1.68.41.33.24,1.15.24,1.68Z"/>
        <path class="cls-6" d="M10.32,47.53c.14-.53-.15-1.15.72-1.44-.16.49-.32,1.1-.72,1.44Z"/>
        <path class="cls-2" d="M9.84,72.72c0-.45-.16-1.18.24-1.44,0,.45.16,1.18-.24,1.44Z"/>
        <path class="cls-7" d="M49.4,39.14c.56-.01.83-.16.72.48-.49-.22-.58-.4-.72-.48Z"/>
        <path class="cls-5" d="M60.18,53.29c-.06-.28.05-.66,0-.96h.24c0,.32.12.79-.24.96Z"/>
        <path class="cls-6" d="M65.22,81.6c.07-.41.2-.73.24-.96l-.24.96Z"/>
        <path class="cls-1" d="M54.19,42.02c.25-1.44.44-.05.48,0h-.24c-.08-.01-.16.02-.24,0Z"/>
        <path class="cls-6" d="M73.13,94.31c-.22-.04-.71-.03-.96,0,.08-.36.86-.37.96,0Z"/>
        <path class="cls-6" d="M11.52,44.42l.24-.72c-.06.14-.13.44-.24.72Z"/>
        <path class="cls-6" d="M67.14,72.48h-.24c.06-.23-.08-.55.24-.72-.02.24.02.48,0,.72Z"/>
        <path class="cls-4" d="M7.2,72.72v.24c-.37-.05-.64.13-.96.24.07-.55.84-.39.96-.48Z"/>
        <path class="cls-5" d="M26.14,33.14v.48c-.15.04-.36-.04-.48,0v-.24c.15-.04.32-.2.48-.24Z"/>
        <path class="cls-5" d="M40.29,39.62c-.04-.1-.16-.28-.24-.48l.24-.24v.72Z"/>
        <path class="cls-4" d="M41.48,37.94l-.24-.72c.06.2.16.36.24.72Z"/>
        <path class="cls-5" d="M44.36,35.3s-.89-.45-.96-.48l.96.48Z"/>
        <path class="cls-5" d="M40.76,40.82c-.02-.08-.34-.56-.48-.96l.48.96Z"/>
        <path class="cls-5" d="M4.08,72.96l.24.24-1.44.96c.45-.5.64-.75,1.2-1.2Z"/>
        <path class="cls-6" d="M17.99,34.58l-1.2.96c.39-.52.47-.82,1.2-.96Z"/>
        <path class="cls-6" d="M50.83,39.86c-.27-.1-.38-.2-.48-.24l.48.24Z"/>
        <path class="cls-6" d="M52.03,40.58c-.35-.2-.69-.42-.96-.72.43.17.76.15.96.72Z"/>
        <path class="cls-4" d="M2.41,78c0-.35.13-.62.48-.72-.13.28-.46.67-.48.72Z"/>
        <path class="cls-5" d="M25.42,33.62l-2.16,2.16c.49-.61,1.5-1.83,2.16-2.16Z"/>
        <path class="cls-6" d="M73.13,78.96c.31-.26.59-.54.96-.72-.27.34-.37.73-.96.72Z"/>
        <path class="cls-6" d="M30.22,32.42c-.11.21-.33.17-.48.24v-.24c.16-.02.32.01.48,0Z"/>
        <path class="cls-4" d="M23.02,38.18c.17-.37.29-.78.72-.96-.21.35-.27.79-.72.96Z"/>
        <path class="cls-4" d="M37.89,34.58c-.12-.17-.45-.69-.48-.72l.48.72Z"/>
        <path class="cls-4" d="M41,36.5l-.24-.48c.04.1.15.22.24.48Z"/>
        <path class="cls-6" d="M52.99,41.06c.18.14.32.32.48.48-.41-.25-.98-.28-1.2-.96.24.15.5.31.72.48Z"/>
        <path class="cls-4" d="M90.63,85.2c.27-.43.5-.94.96-1.2-.27.44-.38.99-.96,1.2Z"/>
        <path class="cls-6" d="M10.08,48.25l.24-.48c-.09.33-.23.45-.24.48Z"/>
        <path class="cls-4" d="M27.82,33.38c-.15.08-.36.17-.48.24l.48-.24Z"/>
        <path class="cls-6" d="M76.25,96.95c-.28-.3-.53-.6-.72-.96.3.28.75.36.72.96Z"/>
        <path class="cls-6" d="M65.46,80.4c.03-.15-.03-.34,0-.48l.24.12-.24.36Z"/>
        <path class="cls-4" d="M96.63,58.09l-.23-.12.23-.12c.03.07-.03.17,0,.24Z"/>
        <path class="cls-4" d="M40.76,35.78l-.24-.24s.17.07.24.24Z"/>
        <path class="cls-5" d="M5.04,72.24c.16-.08.32-.17.48-.24l-.36.48-.12-.24Z"/>
        <path class="cls-6" d="M11.04,28.58c-.15.09-.33.14-.48.24l.48-.48c.03.08-.03.21,0,.24Z"/>
        <path class="cls-4" d="M4.08,75.12c.45-.58,1.29-1.59,1.92-1.92l-1.92,1.92Z"/>
        <path class="cls-4" d="M39.33,33.38c-.3-.18-.91-.63-.96-.96h.24c.22.33.48.64.72.96Z"/>
        <path class="cls-4" d="M28.06,33.38l.24-.24s-.07.16-.24.24Z"/>
        <path class="cls-4" d="M3.6,75.84l.48-.48c-.17.24-.45.43-.48.48Z"/>
        <path class="cls-4" d="M23.98,36.74c.66-.89,1.75-1.98,2.64-2.64l-2.64,2.64Z"/>
        <path class="cls-4" d="M3.12,76.56l.48-.48c-.18.28-.46.45-.48.48Z"/>
        <path class="cls-4" d="M40.05,34.34l-.24-.24c.03.05.16.11.24.24Z"/>
        <path class="cls-4" d="M2.88,77.04l.24-.24c-.07.13-.22.2-.24.24Z"/>
        <path class="cls-4" d="M40.29,34.82l-.24-.24s.17.11.24.24Z"/>
        <path class="cls-6" d="M74.09,78l.48-.48c-.19.27-.4.38-.48.48Z"/>
        <path class="cls-4" d="M38.13,35.06s-.16-.12-.24-.24l.24.24Z"/>
        <path class="cls-4" d="M40.53,35.3l-.24-.24s.17.11.24.24Z"/>
        <path class="cls-6" d="M45.56,36.5c-.23-.17-.37-.4-.48-.48l.48.48Z"/>
        <path class="cls-4" d="M41.24,36.98l-.24-.24s.18.06.24.24Z"/>
        <path class="cls-6" d="M12.71,41.78l.24-.24c-.06.11-.2.17-.24.24Z"/>
        <path class="cls-6" d="M12.47,42.26l.24-.24c-.07.13-.22.2-.24.24Z"/>
        <path class="cls-6" d="M12.23,42.74l.24-.24c-.07.13-.22.2-.24.24Z"/>
        <path class="cls-4" d="M87.76,88.31l2.88-2.88c-.67.94-1.96,2.17-2.88,2.88Z"/>
        <path class="cls-4" d="M86.56,89.27c.2-.45.57-.69.96-.96-.2.46-.58.68-.96.96Z"/>
        <path class="cls-4" d="M85.84,89.75l.48-.48c-.08.05-.2.29-.48.48Z"/>
        <path class="cls-4" d="M85.36,89.99l.24-.24c-.08.05-.14.18-.24.24Z"/>
        <path class="cls-7" d="M55.87,44.9c-.03-.06-.36-.13-.48-.48l.48.48Z"/>
        <path class="cls-6" d="M11.28,44.9l.24-.24c-.07.18-.23.22-.24.24Z"/>
        <path class="cls-5" d="M79.6,92.15c-.16.38-1.04.38-1.2,0,.4-.01.8.02,1.2,0Z"/>
        <path class="cls-3" d="M82.72,42.74c-.22.26-.16.34-.24.48-.48.89.05.28.24.48.05.06-.39,1.23-.48,1.44-.38.94-1.15,2.35-1.67,3.24-.34.59-1.85,2.96-2.19,3.33-.3.32-.44.47-.93.39h-.24c.13-.19,1.19-1.79.36-1.44-.69.3-3.8,3.95-4.8,4.79-1.28,1.08-2.73,2.03-4.31,2.65-.59-.92.96-.89.84-1.68-1.56-.02-2.58-.79-3.81-1.58-.37-.24-.68-.8-.99-.94-.39-.18-.88-.03-1.14-.18-.36-.2-.42-1.19-.53-1.38,1.11.03,2.24-.04,3.36,0l-1.2.48c-.76.7,4.14,2.97,4.74,3.07,1.11.19,1.63-.45,2.44-1.05.23-.17.22-.55.25-.58.43-.34,1.69-.97,2.22-1.44.8-.72,4.27-4.39,4.49-5.16.32-1.09-1.18.51-1.32.61-1.35,1.05-2.53,1.7-4.19,2.39v-.72c1.3-.53,5.71-3.5,6.2-4.71s-.87-.03-1.11.09c-.49.26-4.2,2.15-4.37,1.98-.1-.45.25-.57.48-.84,1.51-1.83,3.53-3.16,4.61-5.47.48-1.03-.65-.46-.53-1.61-.34-.35-1.54,1.64-1.79,1.92-2.2,2.43-4.98,3.32-8.03,4.31-.04-.61.39-.6.72-.84,1.35-.97,2.73-1.85,3.84-3.12.52-.6.47-1.58,1.68-1.8,1.34-.24,2.81-1.03,3.73-2.39.16-.24,1.15-2.09.11-1.93.69-.78,2.94-4.34,3.93-4.07.26.07,1.43,2.65,1.52,3.05.45,2.16-1.27,4.74-1.78,6.72-.13.5-.07.99-.07,1.49ZM78.47,50.17c0-.16-.13-.3-.3-.3s-.3.13-.3.3.13.3.3.3.3-.13.3-.3Z"/>
        <path class="cls-4" d="M69.06,45.62c3.06-1,5.83-1.89,8.03-4.31.26-.28,1.46-2.27,1.79-1.92-.11,1.15,1.01.58.53,1.61-1.08,2.31-3.1,3.64-4.61,5.47-.22.27-.58.39-.48.84.17.17,3.88-1.72,4.37-1.98.23-.13,1.6-1.31,1.11-.09s-4.9,4.19-6.2,4.71c-.15.06-.51.17-.72.24h-.24c-.19.02-.68-.04-.72,0l-.48.24c-.44-.03-.8.17-1.2.24l-.15-.19-.81.19c-.23-.02-.49.03-.72,0-3.04-.44-6.66-1.35-9.11-3.24,1.03-.14,1.41.63,2.51.62s2.57-.44,3.48-.98c.14-.08.59-.07.72-.24.46.08.56-.02.48-.48.07-.03.17.02.24,0l.24-.24c.59-.18,1.29-.28,1.92-.48Z"/>
        <path class="cls-5" d="M66.9,14.91l.48.24v.48s.48,0,.48,0l-.14.48c-2.14-.02-4.5,1.07-6.33,2.15.06-.54-.11-.74-.49-1.07-1.73-1.51-5.33-2.64-7.42-3.73,5.91-2.03,8-1.27,13.43,1.44Z"/>
        <path class="cls-5" d="M62.82,52.33c.11.19.18,1.19.53,1.38.26.14.75,0,1.14.18.3.14.61.7.99.94,1.24.79,2.26,1.56,3.81,1.58.13.79-1.42.76-.84,1.68,1.57-.62,3.02-1.57,4.31-2.65,1-.84,4.12-4.49,4.8-4.79.83-.35-.23,1.25-.36,1.44-1.54,2.17-5.83,6.01-8.39,6.48-.14.03-.32-.03-.48,0v.72c-1.02.66-.99.31-1.92.48.12-.81-.37-.92-.96-1.2-2.6-1.24-4.29-2.52-4.74-5.7-.27-1.87,1.57-1.46,2.11-.54Z"/>
        <path class="cls-4" d="M75.53,36.02h.96s0,.96,0,.96c-.82.86-.96,1.13-1.92,1.92-.48,0-.74.24-.72.72-.16.09-.33.15-.48.24-.68.41-2.13.71-1.92,1.68-.36.21-1.62.65-1.68.72-.49-.07-.55-.01-.48.48-.59.22-.99.54-1.68.48-.03,0-.23-.33-.48-.24v.48c-.15.02-.35-.04-.48,0-1.52-.35-3.57-2.27-2.4-3.84,3.27-.55,8.72-1.46,11.27-3.6Z"/>
        <path class="cls-5" d="M64.26,39.62c-1.17,1.57.88,3.49,2.4,3.84-3.43.93-6.73,1.26-10.31.72-.12-.19-.16-.24-.24-.48-.13-.38-.25-.79-.24-1.2,2.56.17,5.13-.58,7.28-1.95.49-.31.31-.79,1.11-.93Z"/>
        <path class="cls-5" d="M70.97,51.85c0,.89.7,1.91,1.44,2.4-.03.02-.02.41-.25.58-.81.6-1.34,1.24-2.44,1.05-.59-.1-5.5-2.37-4.74-3.07l1.2-.48c.24,0,.48-.02.72,0s1.1.78.96-.24c.4-.02.8,0,1.2,0,.25,0,.76.39,1.2-.24.23.03.48-.02.72,0Z"/>
        <path class="cls-3" d="M65.46,47.06c-.91.53-2.32.97-3.48.98s-1.49-.76-2.51-.62c2.45,1.89,6.06,2.8,9.11,3.24.2.89-.2,1.24-1.09,1.21-.34-.01-.55-.25-.58-.25l.18-.3c-1.64-.39-3.34-.69-4.91-1.33s-2.65-1.76-4.15-2.21c.11-1.98,2.12-.52,2.99-.58.21-.02.57-.35.92-.42,1.22-.22,2.67-.87,3.52.28Z"/>
        <path class="cls-4" d="M73.61,50.65c1.66-.69,2.84-1.35,4.19-2.39.14-.1,1.64-1.7,1.32-.61-.23.78-3.69,4.44-4.49,5.16-.52.47-1.79,1.1-2.22,1.44-.73-.49-1.43-1.51-1.44-2.4,0-.08,0-.16,0-.24l.24-.24c.46.07.79-.08,1.2-.24l.24-.24c.07-.03.17.03.24,0l.24-.24c.12-.05.36.05.48,0Z"/>
        <path class="cls-3" d="M67.14,43.46h.24c-.05.14.09.3-.16.49-.18.14-3.15,1.56-3.37,1.61-1.04.21-2.25-.35-2.8-.2-.27.07-.07.81-.53.96-.83.27-3.63-1.28-4.17-2.14,3.57.54,6.88.21,10.31-.72.13-.04.33.02.48,0Z"/>
        <path class="cls-5" d="M58.03,47.77c1.5.44,2.63,1.58,4.15,2.21s3.27.95,4.91,1.33l-.18.3c-2.98-.12-6.89-.28-8.63-3.12l-.24-.24c-.03-.1,0-.34,0-.48Z"/>
        <path class="cls-5" d="M75.53,36.02c.64-.54,1.83-1.77,2.64-2.52.4-.37,2.37-3.2,2.15-1.32-.08.09-.37,1.11-.72,1.56-.93,1.2-2.17,2.25-3.12,3.24v-.96s-.96,0-.96,0Z"/>
        <path class="cls-4" d="M79.12,35.54c1.05-.15.06,1.69-.11,1.93-.92,1.35-2.39,2.15-3.73,2.39.58-1.1,1.56-1.95,2.4-2.88l.24-.24c.33-.37.81-.76,1.2-1.2Z"/>
        <path class="cls-5" d="M73.37,39.86c-.12,1.04-1.21,1.27-1.92,1.68-.22-.97,1.24-1.27,1.92-1.68Z"/>
        <path class="cls-3" d="M70.25,51.85c-.43.63-.95.24-1.2.24.48-.58.8-.29,1.2-.24Z"/>
        <path class="cls-3" d="M67.86,52.09c.14,1.02-.73.26-.96.24.27-.3.61-.22.96-.24Z"/>
        <path class="cls-5" d="M74.57,38.9c-.1.08.14.25-.72.72-.02-.48.24-.72.72-.72Z"/>
        <path class="cls-3" d="M70.25,50.65c-.76.13-.41.05-.96,0l.81-.19.15.19Z"/>
        <path class="cls-5" d="M69.77,42.26c-.26.33.39.16-.48.48-.07-.49-.01-.55.48-.48Z"/>
        <path class="cls-3" d="M66.66,46.34c.08.46-.02.56-.48.48.27-.34-.37-.16.48-.48Z"/>
        <path class="cls-5" d="M67.62,43.22c-.05.09-.22.17-.24.24h-.24v-.48c.25-.1.45.24.48.24Z"/>
        <path class="cls-3" d="M71.93,50.17s.03.34,0,.48c-.24.09-.44-.24-.48-.24l.48-.24Z"/>
        <path class="cls-3" d="M66.9,46.34s.09-.19.24-.24l-.24.24Z"/>
        <path class="cls-3" d="M58.27,48.49c-.04-.07-.21-.14-.24-.24l.24.24Z"/>
        <path class="cls-3" d="M72.65,50.17h.24c-.32.11-.21,0-.24,0Z"/>
        <path class="cls-3" d="M72.89,50.89s.06-.17.24-.24l-.24.24Z"/>
        <path class="cls-3" d="M72.41,51.13s.11-.19.24-.24l-.24.24Z"/>
        <path class="cls-3" d="M70.97,51.61l.24-.24-.24.24Z"/>
        <path class="cls-3" d="M77.69,36.98c.08-.08.17-.16.24-.24l-.24.24Z"/>
        <path class="cls-4" d="M51.79,12.03c.18.01,1.26-.03.72.48-.09.08-1.78.75-2.23,1.01-1.46.85-2.47,1.6-3.76,2.59-.19.14-.36.18-.72.48-.27.23-1.76.83-.6,1.2-.05-1.32,1.13-.18,1.08-1.2.08,0,.17.02.24,0,1.06-.23,4.32-2.35,5.83-2.93.45-.17.88-.1,1.13-.19,2.09,1.08,5.69,2.21,7.42,3.73.38.33.55.53.49,1.07-.56.33-1.67.89-1.68,1.44-.22.04-.49-.03-.72,0-.55.07-.96-.05-.96.72-.13.04-.35-.04-.48,0-3.12,1.03-10.77,5.5-13.19,7.68-1.76-1.28-4.04-2.05-6-3.01-.06-.38,1.13-1.99,1.45-2.38,1.13-1.37,2.41-2.38,3.72-3.47,1.04-.87,1.15-1.81-.26-.98-1.92,1.12-4.04,4.55-6.1,5.53l.62-1.89c2.69-4.48,6.93-8.29,12.09-9.62.69-.18,1.18-.28,1.92-.24Z"/>
        <path class="cls-5" d="M46.52,16.11v.48c-.07.02-.16,0-.24,0-.16,0-.32,0-.48,0,.35-.3.53-.34.72-.48Z"/>
        <path class="cls-4" d="M37.17,13.23c1.02-.25,3.3-.96,4.2-.96h3.6c.46,0,1.99-.83,1.8.24-3.68,1.05-9.14,7.48-10.79,10.79l-5.75-1.44c0-.32-.01-.64,0-.96.03-.8-.1-1.74.01-2.5.14-.9.99-1.56.94-2.53.33-.17.62-.32.96-.48.55-.26,1.8-.58,1.68-1.2,1.2-.49,2.15-.67,3.36-.96Z"/>
        <path class="cls-5" d="M22.3,19.23v.48c-.15.03-.35-.03-.48,0,.07.7.51,1.01,1.2.96-.7,2.18-1.49,5.53-1.18,7.77.11.78.58,1.32.7,2.06-1.14.16-1.43-.99-2.03-1.44-1.63-1.24-4.13-2.06-3.37-4.8.11-.39,1.26-2.23,1.57-2.63.14-.19.2-.43.24-.48.02-.02.32-.12.48-.24.09-.07.17-.19.24-.24.57-.39,1.5-.8,2.16-.96-.07-.75.12-.37.48-.48Z"/>
        <path class="cls-5" d="M14.39,36.98c-.06.08-.07.48-.24.72l-.24.48c-.08.08-.16.16-.24.24-.38.4-.59-.1-.96,1.2-.02.07.02.16,0,.24-.73-.12-.38.19-.48.48-.08.24-.14.48-.24.72h-.48s0,.96,0,.96c-.04.09-.21.16-.24.24-1.36-.18-.02-1.28,0-1.36.1-.45-.05-1.03,0-1.51l-1.68,1.2c.31-1.14-.37-2.03-.49-2.99-.3-2.38.63-6.13,2.4-7.8-.42,3.12.69,5.15,2.88,7.2Z"/>
        <path class="cls-5" d="M35.97,23.31c-.8,1.61-1.4,3.64-1.65,5.43-.08.59-.01,1.18-.03,1.77l-1.44-.24c-.55-.63-1.32-1.64-1.53-2.45-.18-.69.14-1.11.05-1.46-.22-.9-.95-1.66-1.16-3.29.36-.03.36-.69,0-.72,0-.16,0-.32,0-.48l5.75,1.44Z"/>
        <path class="cls-5" d="M27.1,20.91c0,.97.99.72,1.68.72.08,1.38.69,4.26,1.2,5.52.04.1.15.18.24.24.18.38.32.81.48,1.2-.29.41-.14.56-.72.38-2.08-.66-4.17-3.47-4.07-5.66,0-.16-.03-.34,0-.48.02-.09.66-1.68.71-1.76.14-.22.48-.14.49-.16Z"/>
        <path class="cls-5" d="M6.24,50.65c.05.21-.06.53,0,.72.15.48.07,1.11.72.96.55,2.2.92,4.18.72,6.48-.49.08-.85-.2-1.2-.48l-.24-.24s-.17-.35-.24-.48l-.24-.24c-.06-.15-.2-.75-.24-.96-.03-.14.02-.33,0-.48s.02-.33,0-.48.02-.32,0-.48h-.48c-.13-.63.03-1.03,0-1.44-.06-.75-.12-1.74-.48-2.4,0-.48,0-.96,0-1.44l.72-3.84.54,3.91c-.05.34.38.71.42.89Z"/>
        <path class="cls-3" d="M25.9,23.31c-.09,2.19,1.99,5,4.07,5.66.58.18.43.03.72-.38.26.61.71,1.44.96,2.04.14.35-.06.38-.36.36-1.38-.08-4.67-1.36-5.29-2.65-.23-.48.39-.64.34-1.03-.09-.73-.85-1.92-.93-3.17-.03-.45-.2-.98.49-.84Z"/>
        <path class="cls-5" d="M16.55,31.22c-.14-.07-.42.03-.61-.23-.16-.23-.09-.48-.11-.73-.06-.65-.05-1.6.03-2.25.28-2.4,1.18,0,2.13.94.54.53,3.31,2.2,3.36,2.4.06.26-.17.49-.4.56-.65.21-3.68-.33-4.4-.69Z"/>
        <path class="cls-5" d="M6.72,41.3c.1.74.49,1.85.72,2.64.1.33.21,1.15.25,1.19.12.11.81-.1.94.02.07.07.46,1.64.49,1.91.04.32.03.86,0,1.2-.95-.1-.25.37-.24.48.02.23,0,.48,0,.72-.71.11-.68-.15-.98-.58-1.32-1.94-2.25-4.33-1.78-6.87.07-.4.03-.84.6-.7Z"/>
        <path class="cls-4" d="M29.74,16.59c1.16-.02-.31,1.24-.24,2.4-.98.64-.79,1.51-.72,2.64-.69,0-1.68.25-1.68-.72.26-.35.54-1.99.96-2.64.17-.26,1.38-1.45,1.68-1.68Z"/>
        <path class="cls-4" d="M1.93,58.81c-.85-.08-.27.2-.26.62.06,2.02.29,2.99.74,4.9-.7.14-.44-.34-.55-.76-.73-2.77-.62-4.19-.41-6.92.49.68.35,1.47.48,2.16Z"/>
        <path class="cls-3" d="M31.18,15.87c.05.97-.8,1.64-.94,2.53-.12.76.02,1.7-.01,2.5h-.48c.25-.66-.22-1.54-.24-1.92-.07-1.16,1.4-2.42.24-2.4.63-.49.91-.44,1.44-.72Z"/>
        <path class="cls-7" d="M5.28,69.84c-.97-.76-1.25-1.23-1.68-2.4.21.27.67.74.96.96l-.72-4.32c.96.74.55,1.85.74,2.74.21,1.01.74,1.95.7,3.02Z"/>
        <path class="cls-7" d="M21.35,18.99c-.7.63-1.75.96-1.92,1.68v.24c-.16.12-.46.22-.48.24-.26-.63-.49-.18-.76.03-1.27.95-3.78,3.46-4.18,5.01-.25.97.35.69-.34,1.68.06-.58.03-.49-.48-.48-.44,0-.62.16-.96.24v-.24c1.61-.64,1.8-2.02,2.63-3.24,1.53-2.25,3.94-4.09,6.48-5.15Z"/>
        <path class="cls-3" d="M13.67,38.42c-.16.49-.36,1.32-.96,1.2.37-1.3.58-.8.96-1.2Z"/>
        <path class="cls-7" d="M3.6,63.37c-.66-.83-1.16-2.08-1.2-3.12.46,1.08.87,1.91,1.2,3.12Z"/>
        <path class="cls-3" d="M6.24,51.37c.62-.15.6.47.72.96-.64.15-.57-.48-.72-.96Z"/>
        <path class="cls-3" d="M30.22,23.07c-.07-.56,0-.52,0-.72.36.03.36.69,0,.72Z"/>
        <path class="cls-3" d="M12,41.06c-.17.43-.37.7-.48.96v-.96s.48,0,.48,0Z"/>
        <path class="cls-3" d="M12.71,39.86c-.08.39.23.56-.48.48.1-.29-.25-.59.48-.48Z"/>
        <path class="cls-3" d="M9.12,48.25c-.02.2,0,.42-.24.48,0-.11-.71-.58.24-.48Z"/>
        <path class="cls-6" d="M2.17,60.01c-.19-.39-.17-.58-.24-.96l.46.85-.22.11Z"/>
        <path class="cls-3" d="M13.91,38.18l.24-.48c-.06.09-.04.27-.24.48Z"/>
        <path class="cls-5" d="M26.86,32.9c-.08.02-.23.17-.48.24v-.24c.16,0,.32,0,.48,0Z"/>
        <path class="cls-3" d="M6,57.61s-.18-.08-.24-.24l.24.24Z"/>
        <path class="cls-3" d="M6.48,58.33c-.09-.07-.16-.15-.24-.24l.24.24Z"/>
        <path class="cls-7" d="M3.84,63.85l-.24-.24s.2.06.24.24Z"/>
        <path class="cls-3" d="M30.22,27.39c-.09-.06-.2-.14-.24-.24.09.07.19.14.24.24Z"/>
        <path class="cls-5" d="M8.88,31.7c.45.85-.58,2.15-.7,3.01-.45,3.1.62,6.24.94,9.22-.25.08-.6-.24-.72-.24-1.31-3.89-2.28-7.33-.29-11.21.26-.51.62-.58.77-.79Z"/>
        <path class="cls-4" d="M23.98,18.75v.24c-.23.5-.81,1.22-.96,1.68-.69.05-1.13-.26-1.2-.96.13-.03.33.03.48,0v-.48c.25-.08.48-.15.72-.24.37-.13.64-.15.96-.24Z"/>
        <path class="cls-1" d="M22.3,18.51c.24-.03.48,0,.72,0v.48c-.25.09-.47.16-.72.24-.36.11-.55-.27-.48.48-.66.16-1.59.57-2.16.96h-.24c.17-.72,1.22-1.05,1.92-1.68.29-.12.65-.46.72-.48.06-.02.16,0,.24,0Z"/>
        <path class="cls-4" d="M27.82,17.07c-.02.15.03.35,0,.48l-1.8,1.44c-.57.23-.53-1.01.02-1.42.52-.38,1.37-.32,1.78-.5Z"/>
        <path class="cls-4" d="M23.5,17.55c.36-.53,1.41-.85,2.06-.94.5-.07.67-.12.58.46-1,.16-1.93.62-2.88.96.09-.15.14-.33.24-.48Z"/>
        <path class="cls-1" d="M13.19,27.39c-.65.72-1.24,2.18-1.44.24.15-.02.35.03.48,0,.34-.08.52-.23.96-.24Z"/>
        <rect class="cls-5" x="27.1" y="15.87" width=".48" height=".96" transform="translate(10.93 43.65) rotate(-89.87)"/>
        <path class="cls-4" d="M12.23,27.39v.24c-.13.03-.33-.02-.48,0-.08-.75.17-1.02.24-1.44l.24,1.2Z"/>
        <path class="cls-5" d="M23.98,18.75s.41-.5.48-.12c.08.45-.07.38-.48.36v-.24Z"/>
        <path class="cls-4" d="M12,25.95c.08-.41.15-.46.24-.72l-.24.72Z"/>
        <path class="cls-4" d="M19.19,18.99l-.48.24c.12-.19.33-.17.48-.24Z"/>
        <path class="cls-4" d="M20.39,18.51l-.48.24c.1-.04.26-.15.48-.24Z"/>
        <path class="cls-4" d="M21.59,18.03l-.48.24s.21-.15.48-.24Z"/>
        <path class="cls-4" d="M22.3,17.79l-.48.24s.18-.15.48-.24Z"/>
        <path class="cls-4" d="M23.02,17.55c-.11.03-.26.18-.48.24l.48-.24Z"/>
        <path class="cls-4" d="M20.63,18.51s.07-.18.24-.24l-.24.24Z"/>
        <path class="cls-4" d="M19.43,18.99s.07-.17.24-.24l-.24.24Z"/>
        <path class="cls-4" d="M16.07,20.67c.08-.05.2-.46.48-.48l-.48.48Z"/>
        <path class="cls-4" d="M15.35,21.15c.11-.08.18-.28.48-.48l-.48.48Z"/>
        <path class="cls-5" d="M13.67,22.59c.29-.38.46-.45.72-.72l-.72.72Z"/>
        <path class="cls-4" d="M12.47,24.51c.07-.13.21-.19.24-.24l-.24.24Z"/>
        <path class="cls-4" d="M12.23,24.99c.07-.18.23-.22.24-.24l-.24.24Z"/>
        <path class="cls-1" d="M4.56,49.69c0,.48,0,.96,0,1.44,0,.33-.51,1.18,0,1.92l-.48-.12v-4.68s.48,1.44.48,1.44Z"/>
        <path class="cls-1" d="M5.04,53.53c.03.41-.13.81,0,1.44.08.38-.22.57.48.48.02.15-.02.33,0,.48-.97.32-.98-1.28-1.1-1.91-.15-.77-.01-.46.62-.49Z"/>
        <path class="cls-4" d="M3.12,66.25c-.8.16-.37-.42-.48-.96.39.23.38.59.48.96Z"/>
        <path class="cls-4" d="M3.36,67.2c-.28-.41-.15-.45-.24-.72l.24.72Z"/>
        <path class="cls-4" d="M2.65,65.05s-.16-.13-.24-.48l.24.48Z"/>
        <path class="cls-4" d="M49.64,27.87l6.54-3.65c3.75-1.26,7.35-3.37,11.44-3.06.31,1.24-.83.24-.72,1.2l5.99.48c.13.75-.22.37-.59.48-2.23.67-4.93,1.77-6.84,2.64-.52.24-1.05.38-1.44.84-.33.77,1.01.11,1.2.12,1.91.03,3.15.37,5.27.24-.13.99.77.32,1.2.24.21-.04.49.03.72,0,.27,1.62,2.51,2.18,2.4,3.84-2.4,1.76-4.08,2.82-6.79,4.12-.6.29-2.03.63-2.41.9-.26.18-.1.35-.15.5-.23-.02-.49.03-.72,0-.28-.04-.49-.44-.96.24-.5.05-.74.21-.96.24-.08.01-.16-.01-.24,0-.58.08-1.04.19-1.68.24-.12-.19-.32-.17-.48-.24-.3-.13-.53-.64-.48.24-.64.01-1.28-.02-1.92,0-.07-1.38-2.43-1.6-2.64-3.12,1.05-.25,2.13-.76,3.12-1.2.39-.17.83-.2,1.17-.38.29-.15,1.12-.6.98-1.05-.61.13-2.5.15-2.64.96-.45-.04-4.32.59-4.56.72l-.72-1.44c.12-.13,1.48.07,1.2-.72l-2.01-.21c-.26.06-.28.29-.39.45-.4,0-.8,0-1.2,0-.03-.95-1.71-1.14-1.9-1.84s.95-1.12,1.18-1.76Z"/>
        <path class="cls-5" d="M37.17,23.79c2.06-.98,4.19-4.41,6.1-5.53,1.41-.83,1.31.11.26.98-1.31,1.09-2.6,2.1-3.72,3.47-.32.4-1.52,2.01-1.45,2.38,1.96.96,4.24,1.73,6,3.01-.03.03-.08.48-.34.73-.46.42-1.84,1.99-2.22,2.1-.68.2-1.59-.04-2.34.06-.48.07-.85.41-1.45.47-1.37.16-.94-.36-1.33-.59-.33-.19-.9-.11-1.09-.36-.19-.26-.13-1.41-.11-1.83.04-.71.86-4.32,1.19-4.76.2-.27.39-.09.5-.14Z"/>
        <path class="cls-4" d="M63.54,20.19c.18.01,1.26-.03.72.48-.12.11-2.66.69-3.11.85-2.99,1.04-6.18,2.25-8.95,3.76-.72.39-1.7,1.43-2.32,1.63-.47.15-1.44-.03-1.68,0,.8-1.01,2.2-1.88,3.33-2.55,1.77-1.06,3.67-1.55,5.25-2.42.41-.22.27-.54.3-.55.05-.02.58.05.96,0,.16-.02.34.03.48,0s.32.03.48,0v-.48c1.54-.26,2.99-.83,4.56-.72Z"/>
        <path class="cls-5" d="M48.2,26.91c.24-.03,1.21.15,1.68,0-.62.42-.22.91-.24.96-.23.63-1.37,1.03-1.18,1.76s1.86.9,1.9,1.84c-1.83.03-3.7.51-5.51.72-.4-.36,2.9-3.09,2.4-3.6-.22-.22-1.76.63-1.44-.12s1.58-1.47,2.4-1.56Z"/>
        <path class="cls-5" d="M51.55,31.46c.11-.17.13-.39.39-.45l2.01.21c.28.79-1.08.59-1.2.72l.72,1.44s.1.33-.18.47c-.98.5-6.91.27-8.45.25-.32,0-.64,0-.96,0,.02-1.07,1.27-.64,1.98-.78.85-.17,5.29-1.06,5.57-1.38.13-.15.07-.4.12-.48Z"/>
        <path class="cls-1" d="M59.7,19.71c2.7-.48,4.47-1.05,7.31-.72.98.11,3.11.21,3.24,1.43-2.08-.13-3.76-.79-5.88-.72-.46.02-.96-.25-.83.48-1.56-.11-3.02.46-4.56.72-.15.02-.32-.03-.48,0v.48c-.14.03-.32-.02-.48,0-.44-.22-.58-.46-.48-.96.13-.04.35.04.48,0,.48-.15,1.11-.07.96-.72.23-.03.5.04.72,0Z"/>
        <path class="cls-1" d="M57.07,21.39c-.11.11-.38-.22-.12-.24.08,0,.17.19.12.24Z"/>
        <path class="cls-4" d="M65.22,37.22c3.67-1.08,6.78-3.34,10.19-5.03.33-.08.45.02.35.35-.04.14-1.41,2.19-1.62,2.46-2.77,3.54-9.64,3.85-13.84,3.9l.36-.48c.16,0,.32,0,.48,0,.26,0,.6.06.72-.24.28.02.68.03.96,0,.45-.05.55.18.48-.48.99-.13,1.12-.24,1.92-.48Z"/>
        <path class="cls-5" d="M78.64,26.43c-.24,2.9-1.92,3.4-3.84,4.8.12-1.66-2.13-2.22-2.4-3.84.06,0,.27-.22.58-.25,1.88-.21,3.81.03,5.65-.71Z"/>
        <path class="cls-5" d="M58.03,39.14c.9.16,2.22.93,3.36.72.11.67-.12.36-.36.48-1.74.8-5.12,1.5-6.85.62-.5-.25-.55-.21-.46-.86.31,0,.66.03.96,0,.38-.04.74-.13.96-.48.16,0,.32.02.48,0,.77-.08.39-.43.48-.48.06-.04,1.24-.03,1.44,0Z"/>
        <path class="cls-3" d="M76.73,99.35l-2.41-2.26c-.59-.24-1.1-.74-1.66-.98-.44-.19-1.52.07-.86-.84,1.03-1.41,4.84,2.89,4.93,4.09Z"/>
        <path class="cls-5" d="M55.39,34.34c.21,1.52,2.56,1.73,2.64,3.12-.32.01-.64-.02-.96,0-.16,0-.32-.01-.48,0v.96c-.19.01-.68-.04-.72,0h-.48s0,.48,0,.48c-1.02.1-2.81.09-3.84,0h-.24c-1.46-.35-4.23-2.43-5.59-3.36-.23-.16-.14-.47-.17-.48.25-.4.91-.24,1.32-.24,2.86-.03,5.72.19,8.51-.48Z"/>
        <path class="cls-3" d="M58.03,32.66c.46.04.55-.17.48.48-.99.44-2.06.95-3.12,1.2-2.79.66-5.66.45-8.51.48-.41,0-1.07-.15-1.32.24-.38-.19-.93.46-.72-.96,1.55.01,7.48.25,8.45-.25.28-.14.16-.46.18-.47.23-.13,4.11-.76,4.56-.72Z"/>
        <path class="cls-3" d="M57.07,37.46v.96c-.16.01-.32-.01-.48,0v-.96c.16-.01.32.01.48,0Z"/>
        <path class="cls-3" d="M64.74,36.74c-.43.74-.9.23-.96.24.47-.68.68-.28.96-.24Z"/>
        <path class="cls-3" d="M55.63,39.62c-.22.35-.58.44-.96.48-.11-.96.78-.47.96-.48Z"/>
        <path class="cls-3" d="M61.86,38.18c-.11.3-.46.24-.72.24v-.48c.34-.15.65.23.72.24Z"/>
        <path class="cls-3" d="M56.59,39.14c-.09.05.29.4-.48.48v-.48s.48,0,.48,0Z"/>
        <path class="cls-3" d="M63.3,37.7c.07.66-.03.43-.48.48-.07-.66.03-.42.48-.48Z"/>
        <path class="cls-5" d="M60.42,37.22v.24h-.48c-.05-.88.18-.37.48-.24Z"/>
        <path class="cls-3" d="M60.9,37.46c-.07,0-.24.36-.48,0v-.24c.16.07.36.05.48.24Z"/>
        <path class="cls-3" d="M55.87,38.42c-.16.14.41.39-.48.48v-.48s.48,0,.48,0Z"/>
        <path class="cls-3" d="M51.31,38.9h.24s.06.07-.24,0Z"/>
        <path class="cls-3" d="M62.58,37.22c.08-.01.16.01.24,0l-.12.24-.12-.24Z"/>
        <path class="cls-3" d="M33.81,14.19c.12.62-1.13.94-1.68,1.2.03-.88,1.06-.94,1.68-1.2Z"/>
        <path class="cls-4" d="M82.24,45.14h.48c.04.23-.04.51,0,.72.02.14,0,.33,0,.48-.58,1.19-1.49,2.6-1.68,3.84-.7,2.05-2.32,3.85-3.84,5.52-1.06.06-3.17,3.37-3.36.96.74-.66,2.72-2.59,3.25-3.34.3-.42.44-.67.34-1.21.49.08.63-.07.93-.39.35-.37,1.85-2.74,2.19-3.33.52-.9,1.29-2.31,1.67-3.24Z"/>
        <path class="cls-1" d="M77.45,52.09c.1.55-.05.79-.34,1.21-.53.75-2.51,2.69-3.25,3.34-.83.74-2.19,1.77-3.12,2.4s-1.95,1.03-2.86,1.59c-.19.12-.22.53-.42.58-.93.22-2.15-1.25-1.04-1.45.93-.17.9.18,1.92-.48.17-.11.67.26.48-.72,2.57-.47,6.85-4.31,8.39-6.48h.24Z"/>
        <polygon class="cls-5" points="73.13 62.65 73.13 63.13 72.17 63.12 72.17 62.89 73.13 62.65"/>
        <circle class="cls-5" cx="78.17" cy="50.17" r=".3"/>
        <path class="cls-1" d="M82.72,43.7c-.19-.2-.72.41-.24-.48l.24.48Z"/>
        <path class="cls-5" d="M65.46,25.95l-.24.96c-.19,0-1.52.65-1.2-.12.39-.47.92-.61,1.44-.84Z"/>
        <path class="cls-5" d="M71.69,27.39c-.43.08-1.33.75-1.2-.24.42-.03.85-.08,1.2.24Z"/>
        <path class="cls-3" d="M68.82,58.57c.19.98-.31.61-.48.72v-.72c.16-.03.34.03.48,0Z"/>
        <path class="cls-5" d="M58.99,19.71c.15.65-.48.57-.96.72,0-.77.41-.65.96-.72Z"/>
        <path class="cls-3" d="M46.28,16.59c.05,1.02-1.13-.12-1.08,1.2-1.16-.37.33-.97.6-1.2.16,0,.32,0,.48,0Z"/>
        <g>
          <path class="cls-3" d="M73.13,68.4c3.86-1.53,6.8-5.75,8.81-9.3.15-.27.27-.98.31-1.01.52-.45.5.46.42.78-.75,3.08-3.67,10.7-5.81,12.9-1.11,1.15-3.2,2.87-4.82,1.92l-2.5-2.17.24,3.84c1.13.22-.17-1.9.96-1.68-.15,1.37.42,3.38,2.16,2.76-.21-.81-1.44-.74-1.2-1.8.62-.05,1.14.25,1.76.22.8-.03,1.37-.64,2.08-.58-.9.97-1.74,2.84-2.51,3.72s-3.48,1.95-3.72,2.75c-.14.48-.06.8.48.36-.5.36-1.02.98-1.44,1.44-.52.49-1.09.82-1.68,1.2.7-2.05,2.11-4.16,2.4-6.35.06-.43.23-1.57-.49-1.33-.14,1.54-1.04,3.42-1.8,4.81-.08.15-.24.9-.6.47-.15-.18.62-1.87.7-2.29.53-2.52.42-5.02.49-7.54.05-1.77.48-3.42,0-5.28l.96-.24c.07.08.61.04.84.48.3.59.19,2.6,1.32,2.16v.48c-.78.17-.95-.14-.74,1.33.3.19.5,1.2.85,1.06.23-.09,2.47-2.55,2.52-3.12Z"/>
          <path class="cls-1" d="M82.96,73.68c.76,1.26,1.67,2.48,1.87,4.01.07.54-.62,1.43.29,1.26,1.18-2.2,2.62-4.23,3.69-6.51,2.73-5.82,4.15-12.75,3.51-19.16.64-.13.41.16.6.47.63,1.06,1.04,2.25,1.56,3.36,0,.94.17,2.09.72,2.88,0,.08,0,.16,0,.24.02.53.23,1.11.24,1.2,0,.08,0,.16,0,.24.08,1.91.07,4.08,0,6,0,.08,0,.16,0,.24-.63.74-.36,1.82-.48,2.64-.01.08.01.16,0,.24,0,.04-.17.37-.24.72-.21,1.04-.52,1.91-.72,2.88-.72.13-.46-.37-.48-.83-.06-1.9.68-3.7.93-5.55.34-2.55.35-7.13-.47-9.56-.13-.39-.18-.7-.71-.61.02,1.5-.04,3.14-.3,4.62-1.14,6.52-3.73,12.21-7.64,17.54-1.36,1.85-.92,1.7-1.47,3.81-.04.15-1.26,2.23-.3,1.86.45-.17,3.93-2.98,4.44-3.48.6-.59,1.65-1.93,2.15-2.65.4-.59,1.56-3.1,1.69-3.23.81-.78.28,2.15.24,2.4-.61-.12-.78.71-.96,1.2-.14.37-.15.72-.24.96-.03.07.02.17,0,.24h-.24l-.48.24c-.52.25-.77.2-.96.96-.82.49-.98.88-1.44,1.44-.04.05.04.18,0,.24-.05.08-.63.21-.72.48-.64.37-1.29.8-1.92,1.2-.43.27-.94.5-1.2.96-.51.31-2.52,1.8-2.88,1.44-.44-.44,1.02-2.2,1.2-2.64l.24-.72c.03-.07-.02-.17,0-.24l.23-.12-.23-.12c.03-.09.22-.18.24-.24l.24-.96c.02-.08-.02-.16,0-.24l.24-.36-.24-.12c.02-.12-.04-.26,0-.36.05-.11.12-.14.24-.12.04,0,.11.22.23.24.39-.84-.07-3.23.04-3.68.09-.34.66-.53.7-1.02,0-.09-.49-1.68-.54-1.75-.1-.13-.4,0-.43-.04-.44-.46-1.02-1.34-1.44-1.68l-.24-.48h.48c.06.04.89.25.96.24Z"/>
          <path class="cls-1" d="M67.38,71.52c-.08,2.53.04,5.02-.49,7.54-.09.42-.85,2.11-.7,2.29.36.43.52-.32.6-.47.75-1.39,1.66-3.27,1.8-4.81.71-.24.54.9.49,1.33-.29,2.19-1.7,4.3-2.4,6.35-.07.05-.13.18-.24.24-.33.19-.58.4-.72.48-.08.05-.34-.03-.48,0,.75-1.3.96-1.22-.24-2.4.05-.29.24-.45.24-.48l.24-.96c.01-.08-.02-.16,0-.24l.24-.36-.24-.12c.21-.99.46-1.91.72-2.88.18-.66.92-1.71.24-2.4.03-.11-.04-.26,0-.36.05-.11.12-.14.24-.12.04,0,.11.22.23.24-.07-.66.19-1.28.24-1.92.02-.24-.02-.48,0-.72,0-.08,0-.16,0-.24h.24Z"/>
          <path class="cls-3" d="M82.48,66.72c-.03.14.03.33,0,.48-.06.32-.21.66-.24.96-.53-.12-.51.29-.71.59-.59.86-1.43,2.01-1.93,2.88-1.05,1.8,1.27.75,2.24,1.33.26.16.15.46.17.48h-.48s.24.48.24.48c-.05-.04-.34-.16-.48-.24-.92-.52-1.35-.62-2.4-.24,0-.52-1.14-.29-.96-.84.16-.48,1.13-1.24,1.44-1.68.49-.7.96-1.69,1.44-2.4.33-.48,1.1-1.65,1.68-1.8Z"/>
          <path class="cls-7" d="M83.2,75.6s.34-.09.43.04c.06.07.55,1.66.54,1.75-.04.49-.61.68-.7,1.02-.11.45.35,2.84-.04,3.68-.12-.02-.2-.24-.23-.24.12-1.09-.16-2.45-.01-3.49s.87-1.35.01-2.75Z"/>
          <path class="cls-4" d="M81.28,73.68c-.78.05-1.62-.07-2.4,0v-.24c1.04-.38,1.48-.28,2.4.24Z"/>
          <path class="cls-7" d="M66.18,77.04c-.04-.8.05-1.63.24-2.4.68.69-.06,1.74-.24,2.4Z"/>
          <path class="cls-4" d="M98.06,50.41c-.44.47-1.1.44-1.68.48.25-.32.84-.58,1.21-.63s.45.15.47.15Z"/>
          <path class="cls-5" d="M89.91,83.04c0-1.83,1.75,0,0,.48.08-.41,0-.34,0-.48Z"/>
          <path class="cls-4" d="M98.06,72.96c-.04.38-.13.74-.48.96.09-.57-.3-1.11.48-.96Z"/>
          <path class="cls-6" d="M82.72,84c.08-.28.17-.67.24-.96l-.24.96Z"/>
          <path class="cls-5" d="M88.47,85.44l1.44-1.68c-.14.37-.85,1.46-1.1,1.69s-.32-.03-.33-.02Z"/>
          <path class="cls-4" d="M87.76,84c.04-.06-.04-.19,0-.24.37.05.64-.13.96-.24-.11.59-.74.37-.96.48Z"/>
          <path class="cls-6" d="M82.24,85.44c.07-.16.13-.44.24-.72l-.24.72Z"/>
          <path class="cls-6" d="M78.64,73.68c-.3.39-.79.5-1.2.72.21-.49.71-.64,1.2-.72Z"/>
          <path class="cls-6" d="M82.96,82.8c.03-.14-.03-.33,0-.48l.24.12-.24.36Z"/>
          <path class="cls-6" d="M87.04,84.48c.09-.27.66-.4.72-.48-.04.02-.47.33-.72.48Z"/>
          <path class="cls-6" d="M83.92,86.63c.26-.46.77-.69,1.2-.96-.21.58-.75.69-1.2.96Z"/>
          <path class="cls-4" d="M84.16,90.71c-.2.11-.37.32-.72.48.1-.35.37-.47.72-.48Z"/>
          <path class="cls-4" d="M83.2,91.19c-.23.09-.39.33-.96.48l.96-.48Z"/>
          <path class="cls-6" d="M75.05,76.56c.53-.71,1.42-1.69,2.16-2.16l-2.16,2.16Z"/>
          <path class="cls-5" d="M89.43,83.28l.24-.24c-.07.08-.15.2-.24.24Z"/>
          <path class="cls-6" d="M82.48,84.48c.02-.07-.02-.17,0-.24l.23.12-.23.12Z"/>
          <path class="cls-5" d="M86.08,87.83l1.2-1.2c-.44.43-.63.76-1.2,1.2Z"/>
          <path class="cls-4" d="M84.4,90.71l.48-.48c-.05.03-.16.3-.48.48Z"/>
          <path class="cls-4" d="M86.8,56.41c.97-.07.59-.04.71.59.44,2.36.59,4.67.49,7.08-.02.46.06,1.01,0,1.44l-1.49,1.99c-.21.24-.11.69-.19.88-.17.41-.23.76-.48,1.2-.48-.02-.73.23-.72.72-.06.07-.1.5-.24.72-.37-.03-.77.51-1.05.46-.26-.04-1.6-2.07-1.7-2.4-.14-.43.08-.61.12-.94.03-.3.18-.64.24-.96.87.09.77-1.3.98-1.73.44-.88.7-.53.94-2.11.02-.15-.02-.32,0-.48,0-.08-.01-.16,0-.24,1.26.15.97-1,.96-1.92,0-.16,0-.32,0-.48.34-.15.27-.34.24-.72.76.12.38-.24.48-.72.03-.15-.04-.35,0-.48.16-.56.53-1.16.72-1.92Z"/>
          <path class="cls-5" d="M86.8,56.41c.44-1.75.91-3.64,1.17-5.43.18-1.26.12-2.8.27-4.06.04-.36.19-.73.48-.35-.22,1.68.53,3.54.5,5.15-.02,1.13-.63,2.61-.74,3.84-.2,2.45.08,5.18,0,7.68-.02.46.24.96-.48.83.11-2.41-.05-4.72-.49-7.08-.12-.64.26-.66-.71-.59Z"/>
          <path class="cls-5" d="M82.24,68.16c-.04.33-.26.51-.12.94.11.33,1.45,2.36,1.7,2.4.28.05.68-.49,1.05-.46-.33.52-1.3,2.55-1.92,2.64-.07,0-.9-.2-.96-.24-.02-.01.09-.32-.17-.48-.97-.58-3.29.46-2.24-1.33.51-.87,1.34-2.02,1.93-2.88.21-.3.18-.71.71-.59Z"/>
          <path class="cls-6" d="M95.43,59.29c-.31.12-.23.45-.24.72-.55-.79-.71-1.94-.72-2.88.44.93.56,1.04.96,2.16Z"/>
          <path class="cls-5" d="M88,65.53c-.06.41-.19.81-.38,1.17l-1.3,1.7c.08-.19-.03-.64.19-.88l1.49-1.99Z"/>
          <path class="cls-4" d="M92.07,78.72c-.15.77-.1,1.68-.96,2.16.2-.27.41-.83,0-.96.18-.49.35-1.32.96-1.2Z"/>
          <path class="cls-4" d="M90.87,81.12c-.43,1.24-1.03.82-1.68,1.2.19-.76.44-.71.96-.96.15-.07.35-.08.48-.24h.24Z"/>
          <path class="cls-5" d="M96.87,63.85c.16.47.53.96.49,1.55l-.49.13c-.06-.54.04-1.13,0-1.68Z"/>
          <path class="cls-4" d="M93.75,78.24c-.1.16.09,1.03-.6.96-.52.01.34-.91.36-.96h.24Z"/>
          <path class="cls-4" d="M93.75,76.8c0,.32.12.79-.24.96,0-.11-.44-.57-.24-.96h.48Z"/>
          <path class="cls-5" d="M85.84,69.6c-.48.85-.63.62-.72.72,0-.49.24-.74.72-.72Z"/>
          <path class="cls-4" d="M96.63,63.37c-.13-.38-.2-.8-.24-1.2.07.16,1.02.61.24,1.2Z"/>
          <path class="cls-4" d="M95.91,74.88l.24-.72c-.09.25-.08.37-.24.72Z"/>
          <path class="cls-4" d="M95.91,60.49l-.24-.48s.16.23.24.48Z"/>
          <path class="cls-4" d="M96.15,61.45l-.24-.72c.07.2.2.61.24.72Z"/>
          <path class="cls-4" d="M95.67,59.77l-.24-.24s.18.07.24.24Z"/>
          <path class="cls-4" d="M96.15,73.92v-.24s.06.05,0,.24Z"/>
          <path class="cls-3" d="M83.68,41.78c.54-.98,1.11-2.74,1.2-3.84.63-.05.4-.03.47.36.42,2.28-.23,8.81-.72,11.26-.89,4.44-4.84,12.72-8.37,15.61-.38.31-.69.57-1.2.59.18-.25,1.55-2.53,1.44-2.64-2.92,1-5.1,1.32-8.2,1.13-.41-.03-.77-.52-.67.31-.02-.03-.35.04-.41-.05-.63-.81.38-.61.77-.67,1.25-.2-.7-.79-1.09-1.07-1.08-.78-1.05-1.39-1.57-2.28-.15-.26-.85-.15-.57-.84.12-.31,1-.27.71-1.09.59.28,1.08.39.96,1.2-1.11.21.1,1.67,1.04,1.45.2-.05.23-.46.42-.58.91-.57,1.97-.99,2.86-1.59-.12.7.33.53.78.42,2.29-.54,4.24-2.18,5.69-3.78s3.13-3.47,3.84-5.52c.51.05.52-.28.69-.62.49-1,.99-2.21.99-3.22,0-.15.02-.34,0-.48.65.11,1.01-1.83,1.13-2.34.05-.23.61-2.02-.17-1.73ZM78.88,59.05c-.38-.41-2.17,1.62-2.4,1.78-.78.57-1.64.93-2.42,1.43-.31.2-.58.02-.45.62,2.06-.86,5.08-1.04,5.27-3.84ZM73.13,62.65l-.96.24v.23s.96,0,.96,0v-.48Z"/>
          <path class="cls-5" d="M67.62,64.57c-.1-.83.26-.34.67-.31,3.1.2,5.28-.13,8.2-1.13.11.1-1.26,2.39-1.44,2.64-.16.22-.31.53-.48.72l-.24.24c-.05.04-.18-.04-.24,0l-.48.24c-.91.54-1.85.96-2.85,1.34-.17.06-.23.32-.27.34-1.13.45-1.02-1.57-1.32-2.16-.22-.44-.76-.4-.84-.48-.04-.04-.22-.42-.48-.72l-.24-.24c-.06-.08.06-.4,0-.48Z"/>
          <path class="cls-3" d="M86.56,43.94c-.06,1.15.08,2.33,0,3.47-.39,5.17-1.38,10.7-3.51,15.44-.11.25-1.28,3.19-1.76,2.67-.15-.16,1.4-3.46,1.59-4.04,1.29-3.87,2.41-8.66,2.94-12.65.18-1.39.1-3.1.26-4.54.04-.36.19-.73.48-.35Z"/>
          <path class="cls-5" d="M73.13,68.4c-.05.57-2.29,3.03-2.52,3.12-.36.14-.56-.87-.85-1.06-.21-1.47-.04-1.16.74-1.33.7-.15,2.02-.47,2.64-.72Z"/>
          <path class="cls-5" d="M83.68,41.78c.79-.28.23,1.5.17,1.73-.12.51-.48,2.45-1.13,2.34-.04-.21.03-.49,0-.72h-.48c.09-.21.53-1.38.48-1.44l-.24-.48c.08-.14.02-.22.24-.48.05-.06.67-.43.96-.96Z"/>
          <path class="cls-5" d="M84.4,63.37c-.24,1.58-.5,1.23-.94,2.11-.21.43-.11,1.82-.98,1.73.03-.15-.03-.34,0-.48s-.03-.33,0-.48c.72.15.72-.94.96-1.44.05-.11-.05-.4,0-.48.04-.06.8-.33.96-.96Z"/>
          <path class="cls-5" d="M84.4,62.65c.02-.15-.04-.42,0-.48.01-.02.35.06.49-.15.23-.36.07-.98.47-1.29,0,.92.3,2.07-.96,1.92Z"/>
          <path class="cls-3" d="M86.08,58.81c-.1.48.28.84-.48.72-.01-.14-.33-.44-.24-.72h.72Z"/>
          <path class="cls-3" d="M85.36,60.25c0,.16,0,.32,0,.48-.39.31-.23.93-.47,1.29-.14.21-.48.13-.49.15v-.32c.88-.22.27-1.29.5-1.59.06-.08.37.03.46,0Z"/>
          <path class="cls-3" d="M84.4,62.89c-.02.16.02.33,0,.48-.15.62-.92.9-.96.96v-.32c.58-.24.52-.53.48-1.12h.47Z"/>
          <path class="cls-3" d="M83.44,64.81c-.24.49-.24,1.59-.96,1.44.11-.62.7-.54.48-1.44h.47Z"/>
          <path class="cls-3" d="M74.09,66.72c-.19.11-.36.17-.48.24l.48-.24Z"/>
          <path class="cls-3" d="M67.86,65.29c-.05-.06-.15-.1-.24-.24l.24.24Z"/>
          <path class="cls-3" d="M74.33,66.72l.24-.24c-.08.09-.13.16-.24.24Z"/>
          <path class="cls-6" d="M95.43,67.68c.07-1.91.08-4.09,0-6,.4.25.24.91.24,1.32.02,1.49.18,3.28-.24,4.68Z"/>
          <path class="cls-6" d="M94.95,70.56c.12-.81-.15-1.9.48-2.64-.04.86,0,1.88-.48,2.64Z"/>
          <path class="cls-6" d="M95.43,61.45c0-.09-.22-.67-.24-1.2.39.2.23.82.24,1.2Z"/>
          <path class="cls-6" d="M94.71,71.52c.07-.35.23-.68.24-.72l-.24.72Z"/>
          <path class="cls-3" d="M66.42,84c.12.58-.21.53-.72.48.14-.08.39-.29.72-.48Z"/>
          <path class="cls-5" d="M77.21,55.69c-1.45,1.6-3.4,3.24-5.69,3.78-.46.11-.91.27-.78-.42.92-.63,2.29-1.66,3.12-2.4.18,2.41,2.29-.9,3.36-.96Z"/>
          <path class="cls-5" d="M78.88,59.05c-.2,2.8-3.21,2.97-5.27,3.84-.13-.6.14-.42.45-.62.78-.5,1.64-.86,2.42-1.43.23-.17,2.03-2.2,2.4-1.78Z"/>
          <path class="cls-5" d="M82.72,46.34c0,1.01-.5,2.22-.99,3.22-.17.34-.18.67-.69.62.19-1.24,1.1-2.64,1.68-3.84Z"/>
          <g>
            <path class="cls-3" d="M101.18,14.43c.52.4.32.51.48.72.37.5.59,1.14,1.2,1.44.04.06-.03.18,0,.24,0,.35.13.62.48.72.03.06-.03.18,0,.24l.24.24c.03.06-.03.18,0,.24l.24.24c.03.07-.03.17,0,.24l.24.24c.03.07-.03.17,0,.24l.24.48c.02.07-.02.17,0,.24l.24.24c.02.07-.02.17,0,.24l.24.48v.24c1.32,4.04,1.03,7.43.96,11.51-.02.96,0,1.92,0,2.88.01.38-.15.99.24,1.2.03,1.73,0,3.11-.24,4.8-.64.38-.23,1.09-.24,1.2-.02.16.02.33,0,.48-.83.32-.56,1.17-.72,1.68-.02.07.02.17,0,.24l-.24.24c-.03.07.03.17,0,.24l-.24.24c-.03.06.03.18,0,.24l-.72.72c-.04.05.04.19,0,.24l-1.44,1.44s-.19-.04-.24,0l-.72.72c-.06.04-.18-.03-.24,0l-.24.24c-1.05.55-1.45.77-2.64.96-.02,0-.11-.19-.47-.15s-.96.31-1.21.63c-.44.03-1,.03-1.44,0-.49-.53-1.35-.71-2.04-.72l-.12.24c.7,2.71,2.69,4.85,3.84,7.44l-.23.12.23.12c.03.07-.03.17,0,.24l.24.24c.02.07-.02.17,0,.24-.04.43.03.83.48.96.02.08-.01.16,0,.24.06.36-.05.82,0,1.2h.48c.02.07-.02.16,0,.24l.24.48c.03.15-.02.33,0,.48.08.56-.27,1.43.48,1.68.03.39-.01.8,0,1.2.05,1.49.05,3.06,0,4.56,0,.24.02.48,0,.72-.63.4-.4,1.11-.48,1.68-.03.23.03.49,0,.72-.78-.15-.39.39-.48.96-.24,1.51-.73,2.11-1.44,3.36l-.24.24c-.04.06.04.18,0,.24l-.48.48c-.04.05.04.19,0,.24-.48.18-.66.61-.96.96-1.48,1.73-1.76,2.73-2.88,4.56-.46.26-.69.77-.96,1.2-.04.06.04.19,0,.24l-2.88,2.88c-.05.04-.19-.04-.24,0-.38.27-.76.51-.96.96-.05.04-.19-.04-.24,0l-.48.48c-.05.04-.18-.04-.24,0l-.24.24c-.19.13-.36.17-.48.24l-.48.48c-.06.03-.18-.03-.24,0-.35,0-.62.13-.72.48-.07.03-.17-.03-.24,0l-.96.48c-.07.02-.16-.02-.24,0-.46.11-1.11-.12-1.44.48-.08,0-.16,0-.24,0-.24.01-.48,0-.72,0-.4.02-.8-.01-1.2,0-.08,0-.16,0-.24,0,.08-.4-.18-.53-.48-.72,2.5.11,6.42-2.08,8.39-3.6.57-.44.76-.76,1.2-1.2.4-.4.79-.8,1.2-1.2.01-.01.07.25.33.02s.97-1.33,1.1-1.69c.02-.06-.02-.16,0-.24,1.75-.47,0-2.31,0-.48h-.24l-.24.24c-.26.12-.47.16-.72.24-.32.11-.59.29-.96.24.46-.56.62-.95,1.44-1.44.64-.38,1.25.04,1.68-1.2.02-.07-.03-.17,0-.24h.24c.86-.48.81-1.38.96-2.16.05-.24.57-3.18-.24-2.4-.13.13-1.29,2.64-1.69,3.23-.5.72-1.55,2.05-2.15,2.65-.51.5-3.99,3.3-4.44,3.48-.96.37.26-1.71.3-1.86.55-2.11.11-1.96,1.47-3.81,3.91-5.33,6.51-11.01,7.64-17.54.26-1.48.32-3.11.3-4.62.53-.09.57.22.71.61.82,2.42.81,7.01.47,9.56-.25,1.86-1,3.66-.93,5.55.01.46-.24.96.48.83-.19.93-.22,1.46-.24,2.4h-.48c-.2.39.23.85.24.96,0,.13.03.39,0,.48-.02.05-.88.97-.36.96.68.07.49-.8.6-.96.69-1.08,1.62-2.14,2.16-3.36.15-.35.15-.47.24-.72.02-.07-.02-.17,0-.24.06-.19,0-.23,0-.24.86-3.23,1.07-4.81.72-8.16l.49-.13c.04-.59-.32-1.08-.49-1.55-.03-.1-.16-.26-.24-.48.78-.59-.17-1.04-.24-1.2-.13-.28-.15-.48-.24-.72-.04-.11-.17-.52-.24-.72-.02-.07.02-.17,0-.24-.08-.25-.23-.44-.24-.48-.02-.07.02-.17,0-.24-.06-.17-.23-.22-.24-.24-.03-.07.03-.17,0-.24-.4-1.12-.52-1.23-.96-2.16-.52-1.11-.94-2.3-1.56-3.36-.18-.31.04-.6-.6-.47.64,6.41-.79,13.33-3.51,19.16-1.07,2.28-2.5,4.31-3.69,6.51-.91.17-.22-.72-.29-1.26-.2-1.53-1.1-2.75-1.87-4.01.62-.09,1.59-2.12,1.92-2.64.14-.22.18-.65.24-.72.09-.1.24.13.72-.72.25-.43.31-.79.48-1.2l1.3-1.7c.19-.37.32-.76.38-1.17.06-.43-.02-.98,0-1.44.72.13.46-.37.48-.83.08-2.5-.2-5.23,0-7.68.1-1.24.71-2.71.74-3.84.03-1.61-.72-3.48-.5-5.15-.29-.38-.44,0-.48.35-.15,1.26-.08,2.79-.27,4.06-.26,1.79-.73,3.67-1.17,5.43-.19.76-.56,1.36-.72,1.92-.41-.39-.23-.75-.13-1.2,1.42-6.34,1.74-9.74.63-16.22-.24-1.38-.3-2.79-.5-4.17.42-.46,1.52,1.79,1.65,2.07,1.35,2.77,2.21,7.14,3.68,9.51.22.35.39.74.9.66-.27-2.54-1.49-4.84-2.15-7.29.14-.46,1.99-.55,2.6-.77,3.13-1.09,5.6-4.78,6.2-7.95,1.24-6.62.59-13.94-3.3-19.49.64.07.64-.56.96-.96,1.29,2.3,1.97,4.17,3.07,6.4.53,1.08,1.64,2.27,2.14,3.37,1.04,2.3,1.49,5.21,2.7,7.5h.24c.02.48-.02.96,0,1.44.71-.4.57-2.25.49-3.02-.03-.32-.24-.53-.25-.58-.31-2.28-.85-5.06-1.68-7.2-.04-.1-.15-.18-.24-.24-.02-.07.02-.16,0-.24-.21-.82-.4-1.01-.72-1.68-.11-.22-1.24-2.9-1.68-2.4l.72,2.99c.03.21-.45.15-.48.12-.1-.08-1.17-1.91-1.31-2.18-1.11-2.21-1.62-3.76-3.01-5.98.53.17.7-.51.72-.96,1.41.53,1.68,2.57,2.64,3.71.52.62.83.57,1.19.85ZM102.14,26.43c-.55-.03-.43-.08-.48.36-.16,1.33.48,3.42.26,5.05-.52,3.88-4.71,6.85-6.4,9.91-.18.33-.42.56-.32,1,3.38-1.13,7.76-4.22,8.15-8.04.24-2.38-.54-5-1.18-7.21-.09-.31.01-.73-.01-1.07ZM104.06,38.66c-.03-.13.1-1.21-.47-.72-.26.22-1.47,3.79-1.97,4.63-1.47,2.48-3.52,4.13-5.98,5.53-.46.26-2.05.79-2.12.88-.55.64,1.01.44,1.2.48.39.06.58.37,1.32.24.5-.09.56-.46.6-.48,4.01-1.66,6.14-2.78,6.95-7.44,1.09-.11.71-2.24.48-3.12Z"/>
            <path class="cls-1" d="M71.93,3.16c.11.03,1.25-.08.72.48-.08.08-1.55.61-2.04.96-.71.53-3.59,3.29-3.96,3.95-.65,1.16-1.81,5.04.48,4.92-.44-1.55.15-3.52,1-4.87.41-.66,3.9-4.32,4.51-3.76,0,.33-.19.63-.24.96-1.09.38-2.5,1.43-2.64,2.64-.52-.11-.52.28-.72.59-.97,1.5-1.75,3.3-1.02,5.11.16.41,1.96,2.04,2.34,2.22.64.3.13-.83.11-1.08-.04-.47.33-.54.48-.36.03.03.04.59.19.88,1.65,3.04,1.4,2.95,4.39,4.74.25.15.7.06.88.19.12.08,1.46,1.87,1.73,2.23.3.39.85,2.36,1.21,1.21,1.31-4.32,3.46-7.52,8.5-7.32,4.43.17,8.78,4.69,10.37,8.58.15.36-.14.65.54.53-.44-3.04-1.17-5.76-2.32-8.6-.24-.59-.3-1.8-1.27-1.96.04-.11.04-1.03,0-1.2-.04-.19-.23-.22-.24-.24-.06-.16-.17-.32-.24-.48-.05-.1-.19-.16-.24-.24-.04-.06.04-.19,0-.24-.08-.11-.19-.18-.24-.24-.1-.13-.14-.38-.24-.48l.48-.24c.17.32.25.44.48.72.15.18.23.4.48.48.06.09.18.16.24.24,3.88,5.55,4.54,12.87,3.3,19.49-.6,3.17-3.07,6.86-6.2,7.95-.61.21-2.46.31-2.6.77.65,2.45,1.88,4.75,2.15,7.29-.51.08-.68-.3-.9-.66-1.47-2.36-2.33-6.74-3.68-9.51-.13-.27-1.23-2.53-1.65-2.07.2,1.38.27,2.79.5,4.17,1.1,6.48.79,9.88-.63,16.22-.1.45-.29.81.13,1.2-.04.13.03.33,0,.48h-.72c-.09.28.23.57.24.72.03.38.1.57-.24.72-.09.04-.4-.07-.46,0-.23.3.38,1.37-.49,1.59v.32c-.05.06.01.33,0,.48-.01.08,0,.16,0,.24h-.47c.04.6.1.88-.48,1.12v.32c-.06.08.05.37,0,.48h-.47c.22.9-.38.81-.48,1.44-.03.15.03.34,0,.48-.57.15-1.34,1.32-1.68,1.8-.48.7-.96,1.7-1.44,2.4-.31.44-1.27,1.2-1.44,1.68-.19.55.95.32.96.84v.24c-.08,0-.16-.01-.24,0-.49.08-.99.23-1.2.72-.06.03-.18-.04-.24,0-.74.47-1.63,1.45-2.16,2.16-.11.15-.25.63-.48.96l-.48.48c-.04.05.04.19,0,.24-.37.18-.65.46-.96.72-1.2.99-2.32,1.42-3.36,2.16-.54.44-.62.12-.48-.36.24-.81,2.96-1.88,3.72-2.75s1.62-2.75,2.51-3.72c-.7-.06-1.28.55-2.08.58-.63.03-1.14-.28-1.76-.22-.24,1.06.99.99,1.2,1.8-1.74.62-2.31-1.38-2.16-2.76-1.13-.22.17,1.9-.96,1.68l-.24-3.84,2.5,2.17c1.61.94,3.71-.77,4.82-1.92,2.13-2.2,5.06-9.82,5.81-12.9.08-.32.1-1.23-.42-.78-.04.03-.15.74-.31,1.01-2.01,3.55-4.95,7.78-8.81,9.3-.62.25-1.94.57-2.64.72v-.48s.1-.27.27-.34c1-.38,1.94-.81,2.85-1.34.12-.07.29-.13.48-.24.06-.04.19.04.24,0,.11-.08.16-.15.24-.24.17-.19.32-.5.48-.72.51-.03.83-.29,1.2-.59,3.53-2.89,7.48-11.17,8.37-15.61.49-2.45,1.15-8.98.72-11.26-.07-.39.16-.41-.47-.36-.09,1.1-.66,2.86-1.2,3.84-.29.53-.91.9-.96.96,0-.5-.06-.99.07-1.49.51-1.98,2.23-4.56,1.78-6.72-.08-.4-1.25-2.98-1.52-3.05-.99-.28-3.24,3.29-3.93,4.07-.39.44-.87.83-1.2,1.2-.07.08-.16.16-.24.24-.83.93-1.82,1.78-2.4,2.88-1.21.22-1.15,1.2-1.68,1.8-1.1,1.27-2.49,2.15-3.84,3.12-.33.24-.76.23-.72.84-.62.2-1.33.3-1.92.48-.15.05-.22.23-.24.24-.07.02-.17-.03-.24,0-.85.32-.21.14-.48.48-.13.17-.57.16-.72.24-.85-1.15-2.3-.5-3.52-.28-.35.06-.71.4-.92.42-.87.07-2.88-1.4-2.99.58,0,.14-.03.38,0,.48s.2.17.24.24c1.74,2.84,5.65,3,8.63,3.12.03,0,.24.24.58.25.89.03,1.29-.32,1.09-1.21.23.03.49-.02.72,0,.55.05.2.13.96,0,.4-.07.76-.27,1.2-.24.03,0,.24.33.48.24.03-.14-.04-.44,0-.48s.53.02.72,0c.03,0-.08.11.24,0,.21-.07.57-.18.72-.24v.72c-.11.05-.36-.05-.48,0-.18.07-.22.23-.24.24-.07.03-.17-.03-.24,0-.13.05-.2.23-.24.24-.41.16-.74.31-1.2.24l-.24.24c0,.08,0,.16,0,.24-.23-.02-.49.03-.72,0-.4-.05-.72-.34-1.2.24-.4,0-.8-.02-1.2,0-.35.02-.68-.06-.96.24-.24-.02-.48,0-.72,0-1.11-.04-2.24.03-3.36,0-.53-.92-2.37-1.34-2.11.54.45,3.18,2.15,4.46,4.74,5.7.29.81-.58.78-.71,1.09-.28.69.42.58.57.84.52.9.48,1.5,1.57,2.28.39.28,2.34.87,1.09,1.07-.39.06-1.4-.14-.77.67.07.08.39.01.41.05.06.08-.06.4,0,.48.09.14.18.18.24.24.26.3.44.68.48.72l-.96.24h-.24c-.41-1.78-1.64-2.91-2.28-4.31-.39-.85-.43-2.33-.86-2.98-.31-.46-.91-.52-1.3-.86-1.84-1.65-2.05-2.44-2.52-4.8.36-.17.24-.64.24-.96,0-1.44-.2-.72-.72-1.2-.08-.08-.16-.16-.24-.24-.34-.32-.63-.91-1.08-1.2l-.12.24c-.64-.76-.59-.77-.96-1.68.27-1.22-.26-1.45-.72-2.16-.29-.44-.46-.74-.72-1.2l-.48-.48c-.02-.07.02-.17,0-.24-.12-.42-.08-1.2-.24-1.68.51.4.19,1.38.96,1.2.08.24.12.29.24.48.54.86,3.34,2.41,4.17,2.14.46-.15.26-.89.53-.96.55-.15,1.76.42,2.8.2.23-.05,3.19-1.47,3.37-1.61.25-.2.11-.36.16-.49.02-.07.19-.15.24-.24.69.06,1.09-.26,1.68-.48.86-.32.22-.15.48-.48.06-.07,1.31-.51,1.68-.72.71-.41,1.79-.64,1.92-1.68.15-.09.32-.15.48-.24.86-.47.62-.64.72-.72.96-.78,1.1-1.06,1.92-1.92.94-.99,2.19-2.04,3.12-3.24.35-.45.64-1.47.72-1.56.21-.23.99-.32,1.32-1.22.17-.45-.44-2.14-.73-2.61-.44-.71-2.08-1.64-2.27-1.93-.69-1.04-.71-2.37-1.91-3.72s-3.81-3.16-5.52-3.23l.48-.84c-1.2-.68-1.95-1.94-2.99-2.78-.34-.27-.81-.2-.84-.23-.11-.09.32-.08-.48-.48l-.48-.24c.08-.87-1.67-1.15-1.9-1.47-.12-.17.28-.7.24-1.02-.02-.23-.48-.13-.5-.15-.06-.09-.03-1.83,0-2.16h.48c.01-.16,0-.32,0-.48s0-.32,0-.48c.56-.39.67-1.1,1.1-1.66.62-.8,1.6-1.36,2.02-2.3-.5-.12-1.38.34-1.84.56-.51.24-.86.53-1.28.76-.15.08-.3.13-.48.24-.1.06-.17.2-.24.24-.1.05-.48-.12-.66.05-.11.1-.1.56-.29.79-.57.71-2.84,2.52-2.65,3.48.06.3.9.69.96.24.4.13.94.41,1.2.48.09.79-.23.41-.67.31-.78-.17-2.36-.28-2.67-.69-.17-.22-.17-.56-.26-.81.78-.25,1.29-1.41,1.92-2.16l1.68-1.68c.05-.04.18.04.24,0,.51-.33,1-.7,1.51-1.02.4-.25,1.07.04.89-.66.07-.02.16.02.24,0,.34-.1.82-.09,1.2-.24l-.24-.24c.41-.16.72-.32,1.2-.48.59.02,1.3.07,1.68-.48.07-.02.16.02.24,0l.72-.24c.15-.04.32-.2.48-.24.22-.06.57.09.72-.24ZM90.15,18.03c-3.67-.79-7.04-.03-8.97,3.38-.4.71-1.82,4.25-1.1,4.78s.69-1.38.73-1.54c.67-2.3,2.39-4.24,4.53-5.31,2.01-1,2.51-.58,4.45-.83.33-.04.76-.18.36-.48ZM95.43,29.78c1.79-6.96-5.85-13.97-11.76-8.04-1.38,1.38-2.84,3.88-2.02,5.88.09.21.45.4.56.64,1.57,3.43,4.45,6.74,6.36,9.95.96,1.6.29,2.5,2.68,2.14,1.69-.25,3.9-2.15,4.9-3.49,2.24-2.98,2.15-7.75,1.12-11.19-.12-.4-1.23-3.19-1.36-3.32-1.04-1.02.16,1.96.19,2.09.7,3.86-.86,12.3-5.16,13.68-.39.13-.84.26-.78-.3.12-1.08.6-.67.88-.91.14-.12.05-.39.08-.41.43-.32,1.35-.58,1.84-1.05.77-.75,1.62-3.17,1.99-4.23.08-.22.43-.35.48-.96.01-.16,0-.32,0-.48ZM86.56,43.94c-.29-.38-.44,0-.48.35-.17,1.44-.08,3.15-.26,4.54-.53,4-1.65,8.78-2.94,12.65-.19.58-1.74,3.88-1.59,4.04.48.52,1.65-2.43,1.76-2.67,2.13-4.73,3.12-10.26,3.51-15.44.09-1.14-.05-2.33,0-3.47Z"/>
            <path class="cls-3" d="M68.82,2.2c.54-.05,5.28-.16,5.51,0,.39.27-.66.5.96.24-.08.92-2.72,1.57-.72,1.68l-1.2.96c.92.1,1.54-.49,2.4-.72.14.86-.97.53-1.37.79-.33.21-1.47,1.92-1.74,2.33-1.14,1.73-1.77,3.5-1.68,5.63.16,3.86,1.98,3.08,4.79,4.44.17-.13.57-2.27.72-2.64,1.25-2.96,4.74-6.28,8.03-6.72.43.31-.1.51-.28.68-2.84,2.66-5.66,7.35-4.39,11.32.47.12.46-.19.67-.4,3.68-3.65,5.01-4.17,10.47-3.91.76.04,2.19.53,2.83.43.23-.04,1.33-.82,1.37-.92.97.16,1.03,1.37,1.27,1.96,1.15,2.83,1.88,5.55,2.32,8.6-.68.12-.39-.17-.54-.53-1.59-3.89-5.94-8.41-10.37-8.58-5.05-.2-7.2,3.01-8.5,7.32-.35,1.16-.9-.81-1.21-1.21-.27-.36-1.61-2.15-1.73-2.23-.18-.13-.63-.04-.88-.19-2.98-1.8-2.74-1.71-4.39-4.74-.16-.29-.16-.85-.19-.88-.16-.18-.52-.11-.48.36.02.25.53,1.37-.11,1.08-.38-.17-2.17-1.81-2.34-2.22-.73-1.8.05-3.61,1.02-5.11.2-.31.2-.7.72-.59-.08.68.06,1.46,0,2.16.49.54,1.25-2.18,1.43-2.53.32-.6,1.14-1.37,1.34-1.81.15-.32-.14-.43-.13-.45.05-.32.23-.62.24-.96-.62-.57-4.1,3.1-4.51,3.76-.85,1.36-1.44,3.32-1,4.87-2.3.12-1.14-3.76-.48-4.92.37-.67,3.25-3.43,3.96-3.95.48-.36,1.96-.88,2.04-.96.53-.56-.61-.45-.72-.48-.89-.24-2.11-.61-2.88.24-.08.02-.16-.02-.24,0-.33.07-.59.21-.72.24-.55.12-.97.52-1.68.48-.03,0-.33-.38-.48-.24-.05.05.05.38,0,.48-.02.04-.17-.03-.24,0-.46.23-.53.37-.72.48-.06.04-.18-.04-.24,0-.13.08-.19.21-.24.24-.06.03-.18-.04-.24,0-.13.08-.19.21-.24.24-.06.04-.18-.04-.24,0-.13.08-.19.21-.24.24-.33.21-.77.35-.96.48-.4.27-.54.58-.72.72-.05.04-.19-.04-.24,0-.61.48-.97.8-1.44,1.44-.04.05.04.18,0,.24s-.16.11-.24.24c-.03.06.03.18,0,.24-.05.11-.28.12-.48.72-.02.07.02.16,0,.24-.01.06-.23.16-.23.36s.22.31.23.36c.01.08-.02.17,0,.24.08.25.09.59.26.81.31.42,1.89.52,2.67.69.44.1.76.49.67-.31.45.12,1.18.09,1.68.24.01.02.48-.08.5.15.03.32-.36.86-.24,1.02.23.32,1.99.6,1.9,1.47-5.42-2.71-7.52-3.47-13.43-1.44-.25.08-.68.01-1.13.19-1.5.58-4.77,2.71-5.83,2.93v-.48c1.3-.99,2.31-1.74,3.76-2.59.45-.26,2.14-.93,2.23-1.01.54-.51-.53-.47-.72-.48-.14-.77.39-.4.84-.47,1.14-.17,1.8-.54,2.52-.73.13-.03.32.02.48,0,.87.74,2.11.32,3.12.72.25-.53-.44-1.03-.48-1.2-.25-1,.62-2.34,1.2-3.12l1.2-1.2c2.04-1.78,5.44-3.6,8.15-3.84Z"/>
            <path class="cls-1" d="M94.23,4.6l.72.72c.76.67,1.25,1.15,1.92,1.92l.72.72c1.54,1.93,2.77,4.15,3.6,6.48-.36-.28-.67-.23-1.19-.85-.96-1.14-1.23-3.18-2.64-3.71.05-1.38-2.17-3.41-3.23-4.32-.33-.29-3.02-2.38-3.24-2.15-.1.45.25.57.48.84,2.05,2.47,3.46,3.71,5.27,6.6,1.39,2.22,1.91,3.77,3.01,5.98.13.26,1.21,2.09,1.31,2.18.03.03.51.09.48-.12l-.72-2.99c.43-.5,1.57,2.18,1.68,2.4.02,1.11-.18,2.39.48,3.36.02.15-.02.33,0,.48.03.18.24.22.24.24.02.08-.02.16,0,.24.07.33.22.63.24.72.02.08-.02.16,0,.24.08.36.23.45.24.48.09.4.15.81.24,1.2.08.37.23.45.24.48.02.08-.02.16,0,.24.07.35.19.9.24,1.2.01.08-.01.16,0,.24.06.35.23.86.24.96.01.08-.01.16,0,.24.05.38-.04.81,0,1.2-1.21-2.28-1.66-5.2-2.7-7.5-.5-1.1-1.61-2.29-2.14-3.37-1.1-2.23-1.79-4.1-3.07-6.4-.05-.1.05-.38,0-.48-.09-.16-.23-.22-.24-.24-1.83-3.11-3.83-5.32-6.71-7.68-1.98-1.62-4.35-3.02-7.32-3.12-2.67-.08-4.63,1.05-7.07,1.44-1.62.26-.56.03-.96-.24.71-.02,1.14-.43,1.68-.72,1.53-.83,2.04-1.06,3.84-1.2.9-.07,2.77-.24,3.6-.24,3.43,0,8.16,2.43,10.79,4.56ZM90.51,3.16v.24c.16-.08.16-.16,0-.24Z"/>
            <path class="cls-4" d="M105.74,32.66c.07-4.09.36-7.47-.96-11.51,1.52,3.38,1.99,7.96.96,11.51Z"/>
            <path class="cls-5" d="M76.01,1.48c-.54.29-.96.7-1.68.72-.23-.16-4.97-.05-5.51,0,2.43-.96,4.74.12,7.19-.72Z"/>
            <path class="cls-6" d="M83.44.04c-.83,0-2.69.17-3.6.24,1-.54,2.46-.11,3.6-.24Z"/>
            <path class="cls-4" d="M94.95,50.89c-.82-.05-1.39-.25-2.16-.48l.12-.24c.69,0,1.54.18,2.04.72Z"/>
            <path class="cls-4" d="M104.78,44.9c.16-.51-.11-1.36.72-1.68-.08.47-.34,1.35-.72,1.68Z"/>
            <path class="cls-4" d="M105.98,36.74c-.39-.2-.23-.82-.24-1.2,0,.06.23.64.24,1.2Z"/>
            <path class="cls-4" d="M104.78,20.91l-.24-.48s.34.22.24.48Z"/>
            <path class="cls-4" d="M103.34,17.55c-.35-.1-.47-.37-.48-.72.12.21.31.42.48.72Z"/>
            <path class="cls-4" d="M102.86,16.59c-.61-.3-.83-.94-1.2-1.44.56.3.89.92,1.2,1.44Z"/>
            <path class="cls-6" d="M94.95,5.32l-.72-.72c.34.28.5.52.72.72Z"/>
            <path class="cls-6" d="M97.58,7.96l-.72-.72c.2.22.44.37.72.72Z"/>
            <path class="cls-4" d="M103.58,18.03l-.24-.24s.17.11.24.24Z"/>
            <path class="cls-4" d="M104.54,20.19l-.24-.24s.19.07.24.24Z"/>
            <path class="cls-4" d="M104.54,45.38l.24-.24c-.06.18-.23.22-.24.24Z"/>
            <path class="cls-4" d="M104.3,45.86l.24-.24c-.05.13-.21.19-.24.24Z"/>
            <path class="cls-5" d="M102.14,26.43c.03.34-.08.75.01,1.07.65,2.2,1.42,4.82,1.18,7.21-.39,3.81-4.76,6.91-8.15,8.04-.1-.44.14-.66.32-1,1.69-3.05,5.88-6.02,6.4-9.91.22-1.63-.42-3.72-.26-5.05.05-.44-.06-.39.48-.36Z"/>
            <path class="cls-5" d="M89.67,4.12c2.88,2.35,4.89,4.57,6.71,7.68l.24.24c.05.1-.05.38,0,.48-.32.4-.32,1.03-.96.96-.06-.08-.18-.15-.24-.24-.14-.2-.21-.4-.48-.48-.23-.28-.31-.4-.48-.72-.16-.3.35-.65-.72-.96-.08-.16-.15-.33-.24-.48-1-1.64-2.28-3.15-3.84-4.32.48-.69.07-1.42,0-2.16Z"/>
            <path class="cls-1" d="M94.71,49.45c-.19-.03-1.75.17-1.2-.48.07-.09,1.67-.62,2.12-.88,2.46-1.4,4.51-3.04,5.98-5.53.5-.84,1.71-4.41,1.97-4.63.57-.49.44.59.47.72-.46.58-.49,1.53-.72,2.16-.03.07.03.17,0,.24-.04.09-.34.41-.48.72-.03.07.03.17,0,.24-.05.11-.35.49-.48.72-.4.67-.39.78-.96,1.44-.26.31-.53.59-.72.96-.53.58-.83.91-1.44,1.44-.27.24-.56.6-.72.72-.38.3-.82.47-1.2.72-.29.19-.38.4-.48.48-.05.04-.17-.03-.24,0-.1.05-.18.14-.24.24-.07.03-.17-.03-.24,0-.49.21-.95.5-1.44.72Z"/>
            <path class="cls-5" d="M97.35,9.87c-.02.45-.19,1.13-.72.96-1.81-2.89-3.22-4.13-5.27-6.6-.22-.27-.58-.39-.48-.84.22-.22,2.91,1.86,3.24,2.15,1.06.91,3.28,2.95,3.23,4.32Z"/>
            <path class="cls-4" d="M104.06,38.66c.23.88.61,3.01-.48,3.12.07-.41.18-.79.24-1.2l-.48.24c.23-.63.26-1.58.72-2.16Z"/>
            <path class="cls-4" d="M105.02,27.63c0,.05.22.26.25.58.08.77.23,2.62-.49,3.02-.02-.48.02-.96,0-1.44,0-.08,0-.16,0-.24.48-.41.16-1.32.24-1.92Z"/>
            <path class="cls-6" d="M103.1,19.95l-.24-.48h-.23c.21.71.15,1.47.24,2.16-.65-.97-.46-2.25-.48-3.36.32.67.51.86.72,1.68Z"/>
            <path class="cls-4" d="M96.15,48.73l-.24.48h.72s-.1.4-.6.48c-.74.13-.93-.18-1.32-.24.49-.22.95-.51,1.44-.72Z"/>
            <path class="cls-6" d="M104.78,29.54c0,.08,0,.16,0,.24h-.24c-.04-.39.05-.82,0-1.2.36.17.23.64.24.96Z"/>
            <path class="cls-6" d="M103.34,20.43c-.1-.05-.21-.13-.24-.24.09.06.2.14.24.24Z"/>
            <path class="cls-4" d="M78.88,3.88c5.89-.1,10.35,2.79,14.15,6.96.07.07.23.22.24.24.07.21-.12.67.04.91.09.13.54.14.68.29.1.1.14.35.24.48l.24.24c.04.05-.04.18,0,.24l.24.24c.07.16.18.32.24.48l.24.24c.04.17.04,1.09,0,1.2-.03.09-1.13.88-1.37.92-.65.1-2.07-.4-2.83-.43-5.46-.26-6.79.26-10.47,3.91-.21.21-.21.52-.67.4-1.27-3.97,1.55-8.65,4.39-11.32.18-.17.71-.37.28-.68-3.29.44-6.78,3.76-8.03,6.72-.65,0-.79.21-.7-.57s.63-1.89.34-2.54l-3.48-4.33c.27-.41,1.41-2.12,1.74-2.33.4-.26,1.52.07,1.37-.79.07-.02.16.01.24,0,.2-.03.4,0,.48-.24.81-.11,1.58-.23,2.4-.24Z"/>
            <path class="cls-3" d="M95.43,29.78l-.48-1.44c-.13,1.01-.91,3.15-1.69,3.74-.29.22-.44-.14-.47-.14-.28-.88.38-1.61.47-2.29.44-3.46-.99-8.51-5.14-8.75-.38-.02-.41-.04-.36.36,4.18,2.67,3.65,6.24,2.64,10.44-.81-.15-.38.7-.48,1.2-.03.15.04.35,0,.48-.11.38-1.04,1.13-.72,1.92l1.92-.72c.3.31-1.28,1.99,0,1.92-.02.02.06.29-.08.41-.28.24-.76-.17-.88.91-.06.56.39.42.78.3,4.3-1.38,5.86-9.82,5.16-13.68-.02-.13-1.23-3.11-.19-2.09.13.13,1.24,2.92,1.36,3.32,1.04,3.44,1.12,8.21-1.12,11.19-1,1.34-3.22,3.24-4.9,3.49-2.39.36-1.72-.54-2.68-2.14-1.91-3.21-4.79-6.52-6.36-9.95-.11-.24-.47-.43-.56-.64-.82-2,.64-4.49,2.02-5.88,5.91-5.92,13.55,1.09,11.76,8.04Z"/>
            <path class="cls-5" d="M95.43,29.78c0,.16.01.32,0,.48-.55-.14-.62.37-.68.81l.2.15c-.37,1.06-1.22,3.48-1.99,4.23-.49.47-1.41.73-1.84,1.05-1.28.07.3-1.61,0-1.92l-1.92.72c-.32-.79.61-1.54.72-1.92.21.37.32.58.82.49,1.18-.23,1.14-1.88,2.06-1.93.02,0,.18.36.47.14.78-.59,1.56-2.73,1.69-3.74l.48,1.44Z"/>
            <path class="cls-5" d="M65.22,6.52c1.06-.17-.06,1.47-.15,2.17-.05.35.15.44.15.47,0,.16,0,.32,0,.48h-.48c-.02.16.01.32,0,.48-.03.33-.06,2.07,0,2.16-.5-.15-1.23-.12-1.68-.24-.26-.07-.8-.35-1.2-.48-.27-.09-.52-.4-.96-.24-.2-.96,2.08-2.77,2.65-3.48.19-.23.18-.69.29-.79.18-.17.57,0,.66-.05l.24-.24c.18-.11.33-.16.48-.24Z"/>
            <path class="cls-3" d="M90.15,18.03c.4.3-.03.44-.36.48-1.94.25-2.44-.17-4.45.83-2.14,1.07-3.86,3.01-4.53,5.31-.05.16.02,2.08-.73,1.54s.69-4.06,1.1-4.78c1.93-3.41,5.3-4.17,8.97-3.38Z"/>
            <path class="cls-5" d="M72.41,5.8s.28.13.13.45c-.2.44-1.03,1.22-1.34,1.81-.18.34-.93,3.07-1.43,2.53.05-.7-.08-1.48,0-2.16.14-1.2,1.55-2.26,2.64-2.64Z"/>
            <path class="cls-3" d="M65.22,6.52c.42-.23.77-.53,1.28-.76.47-.22,1.34-.67,1.84-.56-.42.93-1.4,1.5-2.02,2.3-.43.56-.54,1.27-1.1,1.66,0-.02-.19-.12-.15-.47.09-.7,1.21-2.34.15-2.17Z"/>
            <path class="cls-3" d="M93.75,11.07c1.07.31.56.66.72.96l-.48.24c-.14-.15-.59-.16-.68-.29-.16-.24.03-.7-.04-.91.15.02.35-.04.48,0Z"/>
            <path class="cls-4" d="M71.93,3.16c-.15.33-.49.18-.72.24-.39-.43-1.57-.12-2.16,0,.77-.85,1.99-.48,2.88-.24Z"/>
            <path class="cls-6" d="M69.77,3.88c-.38.55-1.09.5-1.68.48.66-.22,1.05-.3,1.68-.48Z"/>
            <path class="cls-3" d="M95.43,30.26c-.04.61-.4.73-.48.96l-.2-.15c.06-.45.13-.95.68-.81Z"/>
            <path class="cls-7" d="M66.9,4.84l.24.24c-.37.15-.85.14-1.2.24.12-.58.67-.37.96-.48Z"/>
            <path class="cls-7" d="M65.7,5.32c.18.7-.49.41-.89.66-.51.32-1,.68-1.51,1.02.51-.73,1.55-1.39,2.4-1.68Z"/>
            <path class="cls-3" d="M65.22,9.63c0,.16.01.32,0,.48h-.48c.02-.16-.02-.32,0-.48h.48Z"/>
            <path class="cls-6" d="M70.73,3.64l-.72.24c.15-.04.4-.16.72-.24Z"/>
            <path class="cls-3" d="M94.71,13.47l-.24-.24c.05.08.19.14.24.24Z"/>
            <path class="cls-3" d="M64.5,7c.07-.04.14-.18.24-.24l-.24.24Z"/>
            <path class="cls-3" d="M94.47,12.99l-.24-.24c.05.06.16.13.24.24Z"/>
            <path class="cls-3" d="M95.43,13.23c-.25-.08-.33-.3-.48-.48.27.08.34.28.48.48Z"/>
            <path class="cls-3" d="M95.19,14.19l-.24-.24s.2.05.24.24Z"/>
            <path class="cls-5" d="M72.65,7.48l3.48,4.33c.29.64-.25,1.79-.34,2.54s.04.57.7.57c-.15.37-.55,2.51-.72,2.64-2.82-1.37-4.63-.59-4.79-4.44-.09-2.13.54-3.9,1.68-5.63Z"/>
            <path class="cls-4" d="M75.29,2.44c2.44-.39,4.4-1.52,7.07-1.44,2.97.09,5.34,1.5,7.32,3.12.07.74.48,1.47,0,2.16-3.12-2.34-7.5-3.59-11.27-3.12-.48.06-.97.15-1.44.24-.08.02-.16-.02-.24,0-.32.07-.65.15-.96.24-.12.04-.2.23-.24.24-.07.02-.17-.03-.24,0s-.17-.03-.24,0c-.15.06-.37.01-.48.24-2-.11.64-.76.72-1.68Z"/>
            <path class="cls-1" d="M78.41,3.16c.3.18.56.32.48.72-.82.01-1.59.13-2.4.24-.2.03-.42,0-.48.24-.08.01-.17-.02-.24,0-.86.23-1.47.81-2.4.72l1.2-.96c.11-.23.33-.18.48-.24l.12.24.12-.24c.07-.03.17.02.24,0l.24-.24c.31-.09.64-.17.96-.24l.12.24.12-.24c.47-.09.96-.18,1.44-.24Z"/>
            <path class="cls-4" d="M66.42,4.12l-.48.24c.05-.1-.05-.42,0-.48.14-.14.45.24.48.24Z"/>
            <path class="cls-4" d="M68.82,3.4l-.72.24c.13-.03.39-.17.72-.24Z"/>
            <path class="cls-4" d="M59.47,10.59c0-.05-.23-.16-.23-.36s.22-.3.23-.36v.72Z"/>
            <path class="cls-4" d="M59.47,9.63c.2-.6.42-.61.48-.72l-.48.72Z"/>
            <path class="cls-4" d="M65.7,4.36l-.72.48c.19-.11.26-.25.72-.48Z"/>
            <path class="cls-4" d="M64.5,5.08s.11-.16.24-.24l-.24.24Z"/>
            <path class="cls-4" d="M64.02,5.32s.11-.16.24-.24l-.24.24Z"/>
            <path class="cls-4" d="M63.54,5.56c.05-.03.11-.16.24-.24l-.24.24Z"/>
            <path class="cls-4" d="M61.86,6.76c.18-.14.32-.45.72-.72l-.72.72Z"/>
            <path class="cls-5" d="M60.18,8.2c.47-.64.83-.95,1.44-1.44l-1.44,1.44Z"/>
            <path class="cls-4" d="M59.94,8.68c.08-.13.2-.19.24-.24l-.24.24Z"/>
            <path class="cls-6" d="M104.3,27.15c-.05-.3-.17-.85-.24-1.2.39.2.23.82.24,1.2Z"/>
            <path class="cls-6" d="M104.54,28.34c-.01-.1-.18-.61-.24-.96l.24.96Z"/>
            <path class="cls-6" d="M103.34,23.31c-.02-.09-.17-.39-.24-.72l.24.72Z"/>
            <path class="cls-6" d="M103.58,24.03s-.16-.12-.24-.48l.24.48Z"/>
            <path class="cls-6" d="M104.06,25.71s-.16-.11-.24-.48l.24.48Z"/>
            <path class="cls-5" d="M90.51,3.16c.16.08.16.16,0,.24v-.24Z"/>
            <path class="cls-3" d="M96.63,12.03l-.24-.24s.15.08.24.24Z"/>
            <path class="cls-6" d="M103.1,22.35s-.21-.06-.24-.24l.24.24Z"/>
            <path class="cls-3" d="M78.41,3.16c3.77-.47,8.15.78,11.27,3.12,1.55,1.17,2.83,2.68,3.84,4.32l-.48.24c-3.8-4.17-8.26-7.06-14.15-6.96.08-.4-.18-.53-.48-.72Z"/>
            <path class="cls-1" d="M93.51,10.59c.09.15.16.32.24.48-.13-.04-.33.02-.48,0,0-.02-.17-.16-.24-.24l.48-.24Z"/>
            <path class="cls-6" d="M102.38,42.74c.13-.23.43-.61.48-.72,0,.35-.13.62-.48.72Z"/>
            <path class="cls-6" d="M100.7,45.14c.18-.37.45-.65.72-.96.06.61-.48.7-.72.96Z"/>
            <path class="cls-6" d="M102.86,41.78c.14-.31.44-.63.48-.72,0,.35-.13.62-.48.72Z"/>
            <path class="cls-6" d="M98.54,47.29c.15-.12.45-.48.72-.72l-.72.72Z"/>
            <path class="cls-6" d="M96.87,48.49c.1-.08.19-.29.48-.48l-.48.48Z"/>
            <path class="cls-6" d="M96.39,48.73c.06-.1.14-.19.24-.24-.06.09-.14.2-.24.24Z"/>
            <path class="cls-3" d="M76.49,4.12c-.08.24-.28.21-.48.24.06-.24.28-.21.48-.24Z"/>
            <path class="cls-4" d="M92.79,31.94c-.92.05-.88,1.7-2.06,1.93-.5.1-.61-.12-.82-.49.04-.13-.03-.33,0-.48.84.18.34-.63.48-1.2,1.01-4.2,1.54-7.76-2.64-10.44-.05-.4-.02-.38.36-.36,4.16.24,5.58,5.28,5.14,8.75-.09.68-.75,1.41-.47,2.29Z"/>
            <path class="cls-5" d="M90.39,31.7c-.14.57.36,1.38-.48,1.2.1-.5-.34-1.35.48-1.2Z"/>
            <path class="cls-3" d="M61.86,11.55c-.06.45-.9.06-.96-.24.44-.16.69.15.96.24Z"/>
            <path class="cls-6" d="M61.38,8.68c.55-.65.95-1.18,1.68-1.68l-1.68,1.68Z"/>
            <path class="cls-3" d="M76.73,3.4c.08-.02.16.02.24,0l-.12.24-.12-.24Z"/>
            <path class="cls-3" d="M75.53,3.88s.12-.2.24-.24l-.24.24Z"/>
            <path class="cls-3" d="M75.05,3.88c.07-.03.17.03.24,0l-.12.24-.12-.24Z"/>
          </g>
        </g>
        <path class="cls-3" d="M19.43,20.91v-.24h.24c-.07.05-.15.17-.24.24Z"/>
        <path class="cls-3" d="M5.04,54.97h.48c.02.16-.02.33,0,.48-.7.09-.4-.1-.48-.48Z"/>
        <path class="cls-3" d="M22.06,18.51c-.07.02-.43.36-.72.48.19-.17.23-.55.72-.48Z"/>
        <path class="cls-5" d="M58.03,32.66c.14-.81,2.03-.83,2.64-.96.14.45-.69.9-.98,1.05-.35.18-.78.21-1.17.38.07-.65-.01-.44-.48-.48Z"/>
        <path class="cls-3" d="M58.99,20.91v.48c-.15.03-.34-.03-.48,0v-.48c.16-.03.33.02.48,0Z"/>
      </g>
    </g>
  </g>
</svg>