<?xml version="1.0" encoding="UTF-8"?>
<svg id="Layer_2" data-name="Layer 2" xmlns="http://www.w3.org/2000/svg" viewBox="0 0 104.29 101.55">
  <defs>
    <style>
      .cls-1 {
        fill: #262626;
      }
    </style>
  </defs>
  <g id="Layer_1-2" data-name="Layer 1">
    <path class="cls-1" d="M68.35.62c.75.45,3.16.63,4.39.99,6.45,1.9,10.98,4.79,15.82,9.36,7.25,6.84,13.27,22.94,15.07,32.66.36,1.93.96,6.88.5,8.81-.04.18-.43.15-.47.33-.47,2.07-.43,3.63-1.33,5.83-.59,1.44-2.02,3.13-2.4,4.32-.21.65-.18,2.17-.42,2.58-.11.2-1.1.57-1.3.85-2.08,2.85-3.94,5.93-6.32,8.67-2.63,3.03-5.8,5.05-8.87,7.68s-5.91,5.78-8.99,8.52c-1.06.45.54-1.84.64-2.01,1.3-2.09,2.75-5.63,3.05-8.22.03-.26.24-1.09-.21-1.05-.55.62-.29,1.09-.5,1.73-.71,2.14-2.33,6.08-3.71,8.09-2.97,4.32-9.82,6.22-14.42,8.6-1.34.7-2.53,2.25-4.39,2.21l2.12-2.32c1.46-2.39,1.83-4.53,2.45-7.1.13-.54.33-1.15.49-1.95.46-2.27,1.07-4.53,1.17-6.86l-1.96,3.44c-1.39,1.78-3.52,3.5-5.95,2.92,1.59-.75,2.82-1.36,3.96-2.76,2.16-2.66,3.03-6.88,3.65-10.26,1.22-6.71,1.72-13.49,1.5-20.32-.06-.34-.55-.97-.8-1.24-2.3-2.52-7.1-5.5-10.08-7.32-.23-.14-.73-.74-1.05-.9-1.07-.54-3.37-1.02-4.21-1.5-.26-.15-.4-.38-.4-.68-1.2,1.53-.73.37-1,.06-.1-.12-.54-.08-.89-.44-.88-.93-1.7-4.65-2.16-5.99-.38-1.1-1.15-2.16-1.22-3.46-.35.08-.58.5-.61.83-.17,2.02.56,6.56,1.15,8.58.21.73.79,1.44.89,2.23.05.38.03.4-.36.35-.83-.36-2.53-4.5-2.89-5.51-2.02-5.7-1.93-12.62-2.02-18.85l-.37-5.63c-.97,1.27-2.09,2.4-3.01,3.71-1.92,2.74-4.29,9.07-5.2,12.54-1,3.8-1.2,7.96-1.98,11.81-.54.51-1.13-1.76-1.18-2.06-.39-2.46.06-4.62-.02-6.94-.01-.29.18-.89-.24-.83-.85,1.4-1.51,6.14-2.4,7.1-.42.45-.78,0-1.42.22-.74.25-2.57,1.71-3.25,2.29-2.21,1.88-3.98,4.2-5.84,6.4.45,2.88,1.26,5.9,1.41,8.81.14,2.72-.42,5.45-.5,8.16-.27,9.31,2.02,15.78,6.48,23.47.23.4.96.51.98,1.49.03,1.57-1.22,1.33-1.96,1.9-.13.1-1.96,2.4-2.02,2.56-.2.48.08.74.13,1.18-1.91.5-2.31-.91-3.83-1.44-.03,1.87,1.41,3.24,2.79,4.28.21.16,2.22.86.92,1.01-1.58.17-4-1.79-4.92-3-.53-.7-1.15-2.82-1.25-2.97-1.88-2.94-1.56-5.12-2.76-7.89-.47-1.08-2.18-2.72-2.89-4.06-6.05-11.36-4.18-24.72-.89-36.55,1.41-5.08,3.4-10.63,4.78-15.41,2.64-9.23,5.88-14.06,13.61-19.92C28.39,6.46,43.42.76,52.23.07c3.06-.24,6.06.26,9.1.23,1.01-.01,6.5.01,7.02.33ZM97.76,29.25c-.53-1.37-1.08-2.87-1.72-4.18-.26-.54-.35-.5-.3.06.6,6.68,3.55,14.18,4.53,20.9l.51,5.96c.03,2.27-.25,4.51-.46,6.76-.02.27-.22.86.21.81.73-2.86,1.52-5.78,1.68-8.76.39-7.17-2.03-15.22-4.45-21.54ZM6.07,83.78c-.16-2.55-.77-5.27-.95-7.8-.46-6.39-.45-13.03,0-19.42.35-4.94,1.32-9.92,1.67-14.88.02-.28.1-1.55-.12-1.56-1.33,4.52-2.79,9.19-3.66,13.85-1.7,9.07-1.69,20.42,2.42,28.89.13.28.31.9.64.91Z"/>
  </g>
</svg>