<?xml version="1.0" encoding="UTF-8"?>
<svg id="Layer_2" data-name="Layer 2" xmlns="http://www.w3.org/2000/svg" viewBox="0 0 104.99 170.82">
  <defs>
    <style>
      .cls-1 {
        fill: #c79658;
      }

      .cls-2 {
        fill: #d4af81;
      }
    </style>
  </defs>
  <g id="Layer_1-2" data-name="Layer 1">
    <g>
      <path class="cls-2" d="M45.51,50.65c.71.03,1.44-.02,2.16,0,0-.4-.66-.29-1.03-.48-1.22-.61-1.99-.6-3.33-1.03-2.19-.7-3.87-1.03-4.96-3.19-1.51-2.99-2.24-7.42-2.43-10.76-.24-4.19.2-8.62,0-12.84-.48-.07-.4-.05-.54.3-.22.51-.39,2.69-.43,3.41-.27,5.44.2,10.84.97,16.2-.59-.6-1.07-2.05-1.31-2.88-1.62-5.66-1.15-17.84,1.01-23.2.45-1.11.92-2.07,1.42-3.13.29-.63.57-1.9.79-2.27.09-.16,3-1.55,3.26-1.6.95-.17,2.29.04,3.29.04l3.52,4.03c.03-.45-.12-.85-.3-1.25-.16-.36-1.78-3.33-1.92-3.47-.42-.41-2.11-1.14-2.7-1.48-.16-.09-.77-.09-.34-.5.24-.24,2.05-.18,2.51-.25,1.48-.25,2.57-.72,4.34-.48,10.59,1.45,12,14.75,13.89,22.8.09.38.16,1.32.6,1.44-.28-9.33-2.71-20.77-12.23-24.83-.1-.59.28-.28.61-.35,5.66-1.21,12.9,2.14,16.66,6.34,4,4.46,8.11,15.27,9.09,21.13.11.64-.04,1.37.01,2.03h.72c-.07-.65.1-1.43.01-2.05-1.75-12.04-8.53-27.2-22.25-28.83-3.49-.42-7.05,1.09-10.61.66-.57-.49,1.85-1.1,2.09-1.14,9.17-1.66,15.78-2.28,24.89.65,2.08.67,4.72,3.48,6.81,4.22.25.09.46.15.73.11l.12-.96c.9.96,2.58,1.72,3.5,2.5,5.03,4.3,10.2,10.36,12.66,16.6,1.27,3.23,3.59,11.83,3.13,15.07-1.25,8.92.23,21.41.97,30.71.16,1.95.64,3.9.48,5.88.42.06.23-.54.24-.84.06-1.47,0-2.97,0-4.44l1.2,15.71c1.47,16.19,6.39,40.01-6.24,53.01-.18.19-.48.63-.72.24,2.49-4.1,5.21-8.37,5.52-13.31.23,0,.47.04.7-.01.4-2.28.27-4.63.26-6.94.4-.25.45-.65.48-1.07.29-3.13-.23-6.67,0-9.85l-.73-8.74c-.42-.06-.23.54-.24.84-.04,1,0,2.01,0,3-.4-.25-.24-.91-.24-1.32-.09-8.75-.32-16.7-.96-25.43-.32-4.37-.63-8.8-.96-13.19-.05-.66-.32-4.28-.48-4.44-.35-.34-.43.02-.48.35-.13,1.04.1,2.3.01,3.37-.58,7.04-1.3,14.07-1.93,21.1-.29,3.27-.19,8.02-.96,11.05-.1.4.24.7-.48.58.07-3.63-.09-7.29-.01-10.92.37-17.06,1.2-33.52-2.85-50.14-.24-.97-.2-1.89-.64-2.95-.11-.28-.53-1.1-.81-1.22-.05,1.16.43,2.33.49,3.47.09,1.74-.02,3.92,0,5.76.01,1.35.15,3.31-.01,4.57-.06.43.08.39-.48.35l-.99-7.29c-1.72-9.47-5.26-22.11-13.39-28.1-.33-.24-.48-.45-.97-.35-.18.16,1.25,1.8,1.44,2.03,5.65,6.57,8.79,11.57,10.73,20.21.34,1.53.34,3.51.75,5.08-2.44.45-2.96,2.42-2.61,4.69.55,3.48.9,6.8,1.41,10.34-.28.99.9,6.44.49,6.83-.06.06-.59.07-.74-.14-.36-.51-.37-2.75-.52-3.52-.6-2.98-1.5-5.86-2.26-8.77-.58-2.24-.98-4.54-1.63-6.76-.23-.34-.32-.2-.61-.13-.68.17-2.55.75-2.64,1.47.32,1.01.12,2.13.26,3.09.05.32.37.58.4.8.2,1.41.47,6.35.33,7.61-.06.57-.56.95-.51,1.41.22,2.08.76,4.26.74,6.51-.04,3.1.39,5.37.48,8.38.09,2.78.2,5.59.31,8.44.73,18.26,2.61,37.42,1.82,55.84-.33,7.62-.89,18.68-5.41,25.06-1.47,2.08-3.48,3.88-6.09,4.1-.17-.14,2.17-3.31,2.4-3.72,2.36-4.18,6.29-14.76,6.92-19.46,1.04-7.79,1.23-18.73.76-26.61-.05-.84-.39-1.64-.25-2.51-.56-.04-.42-.08-.48.35-.22,1.71-.12,3.88-.24,5.64-.73.13-.37-.23-.5-.57-.93-2.37-.17-3.61-.2-5.79-.15-13.42-.42-26.87-.74-40.3-.25-10.6-.43-21.19-.96-31.78-.29-.39-.44,0-.48.35-.09.68.18,1.69-.12,2.29-.18.35-.8.45-.96.72-.33.54.07,7.24.11,8.53.2,6.61.46,13.31,0,19.89l.25,14.52c-.75.14-.26-.73-1.2-.48v16.2s.21,1.22.21,1.22l-.23,1.4c.19,11.05-.6,21.96-2.64,32.62-.84,2.54-1.47,5.25-2.14,7.89l-.72.16c.97-7.92-.1-15.87.24-23.85-1.49-.68-.63,1.72-.71,2.37-.07.49-.55.64-.66,1.01-.2.69.2,2.84.14,3.07-.08.31-.68.28-.7.51-.01.17.24.48.23.72-.05.75.05,3.15,0,3.31-.09.31-.64.28-.71.55-.29,1.12.2,3.46.03,4.77-.06.46-.5.32-.51.48,0,.74.06,1.23,0,2.15-.11,1.8-.23,4-.46,5.77-.06.44-.45.31-.49.51-.27,1.17-.2,3.11-.5,4.5-.48,2.17-2.75,10.17-4.08,11.51-.48.48-5.08,3.53-5.76,3.83-.76.34-1.79.67-2.61.62,3.58-3.89,5.96-8.62,7.61-13.61,2.49-10.9,2.65-22.18,3.9-33.27l-.48.03c-.18,1.53-.92,3.09-1.14,4.59s-.35,3.5-.54,5.1l-.24-1.68c-2.43,7.8-6.54,14.75-13.54,19.19-.7.44-3.2,1.96-3.84,1.92-.9-.06,1.23-1.14,1.39-1.25,6.85-4.75,9.91-10.4,12.88-18.06,2.25-5.81,3.98-12.38,4.31-18.59l.48,2.16c.21-1.71.54-3.44.72-5.16.76-7.11.87-14.73.97-21.82.08-5.53.42-11.33-.97-16.68-.42-.06-.23.54-.24.84-.25,6.18.3,12.56,0,18.72-.03.59.17.78-.48.36.08-5.32.41-10.63.25-15.96-.19-6.31-1.85-11.03-3.62-17.01-.08-.28-.49-.8-.47-.85.02-.05.44-.19.48-.36l-.41-.54c-2.63-.96-5.43-1.46-8.02-2.53-1.96-.81-4.56-2.29-5.85-3.99-1.13-1.49-3.07-10.77-3.45-13.1-.91-5.63-.37-11.18-.74-16.77-.05-.76-.18-2.13-.6-2.76-.58-.11-.34.47-.36.84-.39,9.45.7,22.54,3.53,31.49.16.5,1.01,2.7,1.27,2.93.34.29.58-.27.71-.48-.38,1.42.09.56.48,1.68l-2.64-.24ZM64.93,60c.52,1.19.11,2.61.3,3.9.07.46.43,1.56.6,2.05.14.39-.12.64.54.52-.05-2.76.06-5.53.01-8.29-.06-3.16-.36-6.42-.5-9.57-.16-3.51-.06-7.08-.47-10.57-.05-.44.07-.39-.48-.36v14.87l-1.61-4.98c-3.45-9.9-4.3-20.74-6.85-30.82-.11-.44-.06-.8-.64-.66-.24,1.66.26,3.11.48,4.68,1.09,8.13,3.14,16.48,5.34,24.41.65,2.36,1.47,4.73,2.34,7.01l-.48.36c-1.04-2.64-2.55-5.1-3.12-7.92-.46-.02-.49-.11-.49.36,0,1.3,1.15,4.44,1.68,5.76.3.75,1.34,2.17,1.45,2.87s-1,.07-.72.72c.23.54,1.06.23,1.38.42.06.03.71,1,.77,1.14-.22-.05-1.56-1.48-1.44-.61.26,1.9,1.44,3.93,1.68,5.88.43.01.23-.89.24-1.2ZM55.34,24.26c-.59-.76-.51,1.51-.47,1.78.9,5.54,1.77,12,3.8,17.32.13.35-.23.7.5.57l-3.84-19.67ZM68.76,84.23l-.48.35-1.92,42.82h.72c.04-.75-.06-1.52,0-2.28.88-10.42,1.44-20.95,1.69-31.42.07-3.16-.07-6.33-.01-9.48Z"/>
      <path class="cls-1" d="M63.49,128.37c.19-1.6.31-3.54.54-5.1s.96-3.06,1.14-4.59l.48-.03c-1.26,11.09-1.42,22.38-3.9,33.27-1.65,5-4.03,9.73-7.61,13.61.82.05,1.85-.28,2.61-.62.68-.31,5.28-3.35,5.76-3.83,1.33-1.34,3.61-9.33,4.08-11.51.3-1.39.23-3.33.5-4.5.05-.19.43-.06.49-.51.23-1.77.35-3.97.46-5.77.06-.91-.02-1.41,0-2.15,0-.16.44-.02.51-.48.18-1.31-.32-3.65-.03-4.77.07-.27.61-.25.71-.55.05-.16-.05-2.57,0-3.31.01-.24-.24-.55-.23-.72.02-.23.62-.2.7-.51.06-.23-.34-2.38-.14-3.07.1-.37.59-.52.66-1.01.09-.65-.78-3.05.71-2.37-.34,7.98.73,15.93-.24,23.85l.72-.16c.67-2.65,1.29-5.35,2.14-7.89,2.04-10.66,2.83-21.57,2.64-32.62l.23-1.4-.23-1.22v-16.2c.95-.25.46.62,1.21.48l-.25-14.52c.46-6.58.21-13.28,0-19.89-.04-1.28-.44-7.98-.11-8.53.17-.27.79-.36.96-.72.3-.6.03-1.6.12-2.29.04-.35.19-.74.48-.35.53,10.59.71,21.18.96,31.78.32,13.44.59,26.88.74,40.3.02,2.18-.74,3.42.2,5.79.13.34-.23.7.5.57.12-1.76.02-3.93.24-5.64.06-.43-.08-.39.48-.35-.14.86.2,1.67.25,2.51.47,7.88.28,18.82-.76,26.61-.63,4.7-4.56,15.28-6.92,19.46-.23.4-2.57,3.57-2.4,3.72,2.61-.22,4.62-2.02,6.09-4.1,4.52-6.37,5.08-17.43,5.41-25.06.79-18.42-1.09-37.58-1.82-55.84-.11-2.85-.23-5.65-.31-8.44-.09-3.01-.52-5.28-.48-8.38.03-2.25-.52-4.43-.74-6.51-.05-.46.44-.84.51-1.41.14-1.26-.13-6.21-.33-7.61-.03-.22-.35-.48-.4-.8-.14-.96.07-2.08-.26-3.09.09-.72,1.95-1.3,2.64-1.47.29-.07.38-.21.61.13.65,2.22,1.05,4.53,1.63,6.76.76,2.91,1.66,5.79,2.26,8.77.15.76.16,3.01.52,3.52.15.21.68.2.74.14.41-.39-.77-5.84-.49-6.83-.52-3.54-.87-6.85-1.41-10.34-.36-2.27.16-4.24,2.61-4.69-.42-1.57-.41-3.55-.75-5.08-1.94-8.64-5.08-13.64-10.73-20.21-.2-.23-1.62-1.88-1.44-2.03.48-.1.64.11.97.35,8.13,5.99,11.67,18.64,13.39,28.1l.99,7.29c.56.04.42.08.48-.35.16-1.27.03-3.22.01-4.57-.02-1.84.09-4.02,0-5.76-.06-1.14-.53-2.31-.49-3.47.29.13.7.95.81,1.22.44,1.06.41,1.98.64,2.95,4.05,16.62,3.22,33.08,2.85,50.14-.08,3.64.08,7.29.01,10.92.72.12.38-.18.48-.58.76-3.03.67-7.78.96-11.05.62-7.03,1.35-14.07,1.93-21.1.09-1.07-.14-2.33-.01-3.37.04-.33.13-.69.48-.35.16.15.43,3.78.48,4.44.33,4.39.64,8.83.96,13.19.64,8.72.87,16.68.96,25.43,0,.41-.15,1.07.24,1.32,0,.48,0,.96,0,1.44-.56,2.41-.08,5.09-.25,7.57l.73,6.59c0,.08,0,.16,0,.24.02,2.31.14,4.67-.26,6.94-.23.05-.47.02-.7.01-1.19-.02-2.24-.48-3.36-.72-.67-.15-1.49-.32-2.16-.48-.08-.02-.16.02-.24,0l-.96-.24c-.08-.02-.16.02-.24,0l-.48-.24c-.81-.24-1.23-.47-1.92-.72l-.72-.24c-.07-.03-.17.03-.24,0l-.24-.24c-.22-.09-.47-.13-.72-.24l-.48-.24c-.07-.03-.17.03-.24,0l-.24-.24c-.07-.03-.17.03-.24,0v-.48s-.72,0-.72,0c-.31-.15-.71-.23-1.2-.48v-.48s-.72,0-.72,0c-.06-.03-.18.03-.24,0l-.24-.24c-.06-.03-.18.03-.24,0-.65-1.35-1.41-.22-.72.72,0,.32,0,.64,0,.96-.4.25-.24.91-.24,1.32-.06,4.53-.22,9.04-.24,13.56,0,.08,0,.16,0,.24-.44.48-.23,1.48-.24,2.16,0,.08,0,.16,0,.24-.43.4-.23,1.31-.24,1.92,0,.08,0,.16,0,.24-.41.26-.23.99-.24,1.44,0,.08,0,.16,0,.24-.39.2-.23.82-.24,1.2-.01.08.01.16,0,.24l-.24.96c-.01.08.01.16,0,.24l-.24.96c-.07.35-.16.63-.24.96l-.24,1.2c-.02.07.02.17,0,.24l-.24.48c-.02.07.02.17,0,.24l-.24.48c.09.32-.17.53-.24.72l-.24.72c-.03.07.03.17,0,.24l-.24.24c-.03.07.03.17,0,.24l-.24.48c-.03.07.03.17,0,.24l-.24.24c-.77,1.57-.97,2.2-2.16,3.6-.26.31-.54.59-.72.96-1.77,1.94-3.12,2.97-5.75,3.6l-.48.24c-.08.01-.16-.02-.24,0-.48.1-1.33.15-1.92.24s-.99.19-1.68.24c-.77-.5-1.98.02-2.16-1.2,2.9-.17,3.39-.2,5.4-2.4.76-.84,4.41-6.13,3.71-6.96-.45-.13-.38.16-.48.24l-.48.48c-1.87,1.59-3.69,3.36-5.99,4.32l-.48.48c-.06.04-.18-.04-.24,0l-.24.24c-.06.04-.18-.04-.24,0-.35,0-.62.13-.72.48-.06.04-.18-.04-.24,0l-.24.24h-.24l-.72.48c-.65.4-1.19.99-1.92,1.2l-.72.72c-.06.04-.18-.04-.24,0l-.48.48h-.24l-.48.48c-.06.04-.18-.04-.24,0l-.24.24c-.06.03-.18-.03-.24,0l-.24.24c-.06.03-.18-.03-.24,0l-.24.24c-.07.03-.17-.03-.24,0l-.24.24c-.07.03-.17-.03-.24,0l-.24.24c-.07.03-.17-.03-.24,0l-.48.24c-1.13.41-1.98.64-3.12.96-.75,0-2.19-.62-2.16.48-.08.02-.16-.02-.24,0l-.24.24c-.08.02-.16-.02-.24,0l-.24.24c-.08.01-.16,0-.24,0-.32.02-.64,0-.96,0v-.48c2.73-1.32,5.12-4.19,6.71-6.72.49.07.55,0,.48-.48.07-.12.14-.31.24-.48l1.43-2.52-.23-.12c4.19-9.28,3.85-18.65,5.03-28.55Z"/>
      <path class="cls-1" d="M57.25.51c-.03-.13-.08-.5.12-.48,1.76.05,3.53-.07,5.28,0,.46.02.96-.25.83.48h-.48s0,.24,0,.24c.82-.11,1.95.29,2.64-.24.12.01.24-.02.36,0,.12.04.14.12.12.24,0,.04-.22.11-.24.24.4.02.8,0,1.2,0,.08,0,.16,0,.24,0l.12.24.12-.24c8.6,1.11,18.05,7.86,23.73,14.15l.72.72c1.23,1.44,2.36,2.94,3.36,4.56l-.24.12,1.19,1.56c.03.06-.03.18,0,.24l.24.24c.03.07-.03.17,0,.24l.24.24c.03.07-.03.17,0,.24.27.66.38,1.41.96,1.92.03.07-.02.17,0,.24l.48.96c.02.07-.02.17,0,.24.19.66.13.89.48,1.68.03.08.21.16.24.24l.24.72c.12.36.15.68.24.96l.24.72c.09.33.16.63.24.96-.34.15.02.97.24,1.2.06.3.17.6.24.96-.48.29-.07,1.13.24,1.44.05.27.18.58.24.96l-.23.12.23.12c.01.08-.01.16,0,.24.08.54.18,1.2.24,1.68.05.4.19.82.24,1.44.04.53-.21,1.34.24,1.68,0,.08,0,.16,0,.24,0,.45-.16,1.18.24,1.44.01.88,0,1.76,0,2.64,0,2.07.02,4.16,0,6.24,0,.8.01,1.6,0,2.4l-.72,7.32c.44,2.59.21,5.28.24,7.92,0,.41-.15,1.07.24,1.32,0,.4,0,.8,0,1.2,0,1.47.06,2.97,0,4.44-.01.29.18.89-.24.84.16-1.98-.32-3.92-.48-5.88-.74-9.3-2.22-21.8-.97-30.71.45-3.24-1.86-11.84-3.13-15.07-2.46-6.23-7.63-12.3-12.66-16.6-.92-.78-2.6-1.54-3.5-2.5l-.12.96c-.27.04-.48-.02-.73-.11-2.09-.75-4.73-3.55-6.81-4.22-9.11-2.93-15.72-2.31-24.89-.65-.24.04-2.66.65-2.09,1.14,3.55.44,7.11-1.07,10.61-.66,13.72,1.63,20.5,16.79,22.25,28.83.09.62-.08,1.4-.01,2.05h-.72c-.06-.66.09-1.39-.01-2.03-.98-5.86-5.09-16.67-9.09-21.13-3.77-4.2-11-7.55-16.66-6.34-.33.07-.7-.24-.61.35,9.51,4.06,11.95,15.5,12.23,24.83-.44-.11-.51-1.05-.6-1.44-1.88-8.05-3.29-21.36-13.89-22.8-1.77-.24-2.86.23-4.34.48-.46.08-2.26.02-2.51.25-.42.41.19.41.34.5.59.34,2.28,1.08,2.7,1.48.14.14,1.77,3.12,1.92,3.47.18.4.34.8.3,1.25l-3.52-4.03c-1,0-2.34-.2-3.29-.04-.25.05-3.16,1.44-3.26,1.6-.22.37-.5,1.64-.79,2.27-.5,1.07-.98,2.03-1.42,3.13-2.16,5.37-2.63,17.54-1.01,23.2.24.84.73,2.28,1.31,2.88-.77-5.36-1.24-10.77-.97-16.2.04-.72.21-2.9.43-3.41.15-.34.06-.36.54-.3.19,4.22-.25,8.65,0,12.84.19,3.34.92,7.77,2.43,10.76,1.09,2.16,2.77,2.49,4.96,3.19,1.35.43,2.11.42,3.33,1.03.37.19,1.02.08,1.03.48-.71-.02-1.44.04-2.16,0-.08,0-.16,0-.24,0l-.72-.24c-.08-.01-.16.01-.24,0l-.96-.24c-.08-.02-.17.02-.24,0l-.48-.24c-1.69-.55-2.47-.36-3.84-1.92-.5-.57-1.11-1.09-.96-1.92l-.96.24c-2.87-3.23-4.59-11.41-4.79-15.71-.07-1.38.26-2.68,0-3.96-.42-.33-1.35,3.29-1.44,3.6l-.24.72c-.02.07.02.16,0,.24l-.24.48c-.02.08.02.16,0,.24-.68.44-.4,1.27-.48,1.92,0,.08.01.16,0,.24l-.24.96c-.01.08.01.16,0,.24l-.24.72c-.01.08.01.16,0,.24-.59.75-.41,1.77-.48,2.64,0,.08,0,.16,0,.24-.73,2.25-.66,4.93-.7,7.3-.03.13-.64.19-.98.38-2.13,1.18-4.39,2.64-6.71,3.36l-.72-.96c2.64-.65,4.92-2.68,7.64-3.39.13-1.13-.07-2.29.06-3.42.49-4.36,2-11.82,3.57-15.86.25-.63,1.06-1.63,1.15-1.97.2-.71-.04-1.45.28-2.36s1.44-2.32,1.69-3.11c.1-.3-.06-.48-.35-.35-.54.23-.38,1.12-1.08.96-.03-1.37.59-3.19,1.15-4.48.42-.96,1.69-2.54,1.73-3.31.02-.32.02-.47-.36-.36-.55.16-3.79,2.89-4.44,3.47-8.21,7.35-11.57,18.58-11.75,29.5-.02,1.17.67,4.51.18,5.1-.58.68-.49.06-.89,1.27-.2.6-.57,1.39-.72,1.92-.19.65-.17.76-.24,1.44,0,.08,0,.16,0,.24-.4.26-.24.99-.24,1.44-.02,3.05.42,6.59.48,9.83s-.38,6.86.48,10.07c0,.08,0,.16,0,.24.05.73-.22,1.66.48,2.16.02.08-.02.16,0,.24l.24.96c.06.23.16.48.24.72l.24.24c.02.07-.03.17,0,.24l.24.48c.16.4.31.81.48,1.2l.24.24c.03.07-.03.17,0,.24l.24.48c2.37,5.03,5.57,9.51,8.87,13.91.24.32.48.64.72.96.7.93,1.47,1.99,2.16,2.88.46.59.8,1.02,1.44,1.44.79.53,4.06,1.46,4.08,1.68,0,.02-.28-.04-.24.24.51-.06,1.32.23,1.68-.24.88,0,1.76-.16,2.4.24l-.2.19.68.53c.03.06-.03.18,0,.24l.24.24c.03.06-.03.17,0,.24l.24.48c.03.07-.03.17,0,.24l.24.24c.02.07-.02.17,0,.24l.24.72c.02.07-.02.16,0,.24l.24.48c.01.08-.01.16,0,.24l.24.72c0,.08,0,.16,0,.24.05.65.04,1.5,0,2.16,0,.08,0,.16,0,.24l-.24.96c-.01.08.01.16,0,.24l-.24.48c-.02.08.02.17,0,.24l-.24.96c-.02.07.03.17,0,.24l-.24.24c-.62,1.6-1.08,2.88-2.16,4.32l-.72.72c-.78.81-1.67,1.19-2.16,1.68l-.24.48c-.04.06.03.18,0,.24l-.24.24c-.03.06.03.18,0,.24l-.24.48c-.03.07.03.17,0,.24l-.24.24c-.08.17-.17.32-.24.48l-.24.72c-.03.07.03.17,0,.24l-.24.24c-.03.07.03.17,0,.24l-.24.48c-.03.07.03.17,0,.24l-.24.24c-.03.07.03.17,0,.24l-.24.24c-.16.36-.36.69-.48.96l-.24.72c-.03.07.03.17,0,.24l-.24.24c-.03.07.03.17,0,.24l-.24.24-.24.48-.24.72c-.03.07.03.17,0,.24l-.24.24c-.16.39-.37.71-.48.96l-.24.72c-.03.07.03.17,0,.24l-.24.24c-.03.07.03.17,0,.24l-.24.48c-.03.07.03.17,0,.24l-.24.24v.24c-.54.43-.51,1.11-.72,1.68-.03.07.03.17,0,.24l-.24.24c-.04.12.04.36,0,.48-.44.13-.52.53-.48.96-.02.07.02.17,0,.24l-.24.48c-.02.07.02.17,0,.24l-.24.48c-.02.07.02.17,0,.24l-.24.48c-.02.07.02.17,0,.24l-.24.48c-.02.07.02.17,0,.24-.63.19-.42.74-.48,1.2,0,.08.01.16,0,.24-.56.34-.41.92-.48,1.44-.01.08.01.16,0,.24-.62.38-.41,1.1-.48,1.68,0,.08,0,.16,0,.24-.87.44-.23,1.33-.24,1.44,0,.08,0,.16,0,.24-.87.49-.63,1.61-.72,2.4,0,.08,0,.16,0,.24-.66.72-.44,1.76-.48,2.64,0,.08,0,.16,0,.24-.73,2.48-.8,5.95,0,8.4,0,.08-.01.16,0,.24l.24.24c.01.08-.01.16,0,.24l.24.48c0,.08,0,.16,0,.24.01.32,0,.64,0,.96l-.6-.48-.12.24c-.63-.95-.63-1.15-.96-2.16-.22-.68-.28-1.65-.72-2.4l-.24.24c-.04-.12-.19-.26-.24-.48.5-.25.12-.97-.24-1.2-.01-.08.01-.16,0-.24-.08-.61.05-1.28-.24-1.92-.44.09-.45.47-.49.83-.25,2.19-.14,5.72.49,7.8v.24l.24,1.2c.02.07.18.27.24.48l.24.24c.02.07-.02.17,0,.24.12.36-.05.94.48,1.2.02.07-.02.16,0,.24-.07,1.2-.33,1.07-1.2.96-.08,0-.16.02-.24,0l-.48-.24c-.07-.03-.18.03-.24,0l-.24-.24c-1.87-1.06-3.05-2.25-4.08-4.08-.18-.33-.32-1.13-.95-.72-.14.09-.39,2.13.47,1.92.02.08-.02.16,0,.24l.24.72c.06.23.17.46.24.72.19.72.67,1.08-.48.96v-.72s-.24.24-.24.24c-.46-.72-.6-1.31-.96-1.92.83-1.58-.12-.97-.71-1.32-.26-.15-.34-.73-.73-.84-.03-.06.03-.17,0-.24l-.24-.24c-.03-.07.02-.17,0-.24-.14-.4-.31-.75-.24-1.2-.27-.04-.22.24-.24.24-1.4-.23-3.27-13.72-3.36-15.59.66-.47.05-1.32,0-1.68s-.23-1.03-.24-1.2c0-.06.26-.63.24-1.2-.08-1.92-.2-3.84-.24-5.76.4-.25.24-.91.24-1.32.02-1.6.02-3.21,0-4.8,0-.41.15-1.07-.24-1.32,0-.24,0-.48,0-.72-.08-.36-.86-.37-.96,0-.08,0-.16,0-.24,0l-.48.24c-.08.02-.17-.02-.24,0-.26.09-.34.05-.72.24-.63.32-2.08,1.09-2.64,1.44l-1.2.24-.24-3.12c.08-1.21.2-2.39.24-3.6.43-.47.24-1.48.24-2.16,0-1.23.03-1.94.24-3.12.07-.38.65-1.19,0-1.68l.96-6.96c.01.27-.17.78.24.72-.29-1.35.67-2.86,0-4.08.03-.38-.16-.99.24-1.2.01.28-.18,1.01.24.96-.27-1.67.71-3.46,0-5.04l.48-5.76c0,.28-.18,1.01.24.96-.13-1.13.3-2.57-.24-3.6.04-1.45.13-2.87.24-4.32.4-.25.24-.91.24-1.32.05-4.3-.07-8.6-.24-12.84-.04-1.1-.17-2.24-.24-3.36.4-.25.24-.91.24-1.32.04-3.47-.67-6.97-.49-10.33.12-2.37.93-5.12.99-7.44,0-.13-.73-.89-.74-1.3.32-2.59.22-5.37.72-7.92.05-.24.63-.86,0-1.2.21-1.51.67-3.06.96-4.56l.24-1.2c.02-.08-.02-.16,0-.24l.24-.36-.24-.12c1.82-7.89,5.26-16.86,11.91-21.78,5.3-3.92,10.31-6.45,16.38-8.92l.96-.48c.07-.03.17.03.24,0l.72-.24c.96-.36,1.88-.86,2.88-1.2l.14.18,1.06-.19-.24-.23c3.29-1.07,6.56-1.87,10.07-2.64.65.83,1.32-.2,1.44-.24.25-.09.44-.2.72-.24l-.12.47c.74-.45,1.7-.16,2.52-.24.06-.19-.23-.2-.24-.24ZM79.91,6.75v.24c.16-.08.16-.16,0-.24ZM10.5,90.11v-8.52c.56-.03.43-.08.48.36.2,1.63.11,3.62.24,5.28,1.03,12.86,1,25.01.97,37.91-.02,10.06-.92,20.61,1.01,30.63.55,2.84,1.59,5.56,2.34,8.34.68.15.5-.34.49-.85-.06-2.16-1.1-4.46-1.21-6.48-.03-.49-.09-.97.37-1.31l2.47,7.36c.22.23.69,1.44.77,1.51.97.85.03-1.21,0-1.33-.71-2.86-1.26-6.16-1.92-8.91-.3-1.24-.33-3.99-.51-5.44-.1-.78-.64-1.53-.69-1.96-.05-.57.28-1.42.2-2.36s-.65-1.78-.71-2.43c-.13-1.45.27-3.15,0-5.03-.76-5.52-.22-13.32.04-18.99.04-.94.4-1.95.22-2.97.4-.08.5.09.66.42s.71,2.84.76,3.32c.45,4.41.18,9.38.49,13.9.05.68.59,2.2.73.95.08-.71.19-1.71.24-2.41.16-2.59-.42-5.12-.24-7.68.02-.23-.1-.85.36-.59.21.11,1.62,3.63,1.96,4.28,1.95,3.69,4.83,6.66,8.66,8.37.62.28,1.26.61,1.97.54.62-.55-2.31-1.6-2.48-1.71-4.87-3.16-10.32-16.93-10.71-22.62-.59-8.58.88-18.42.96-27.13,0-.57.27-1.09.26-1.66-.01-.69-1.09-4.04-1.39-4.88-.14-.38.13-.64-.54-.53-.1.87.13,1.93.01,2.77-.21,1.49-.34,2.98-.55,4.48-.35,2.47-1.25,4.89-1.38,7.38h-.72s.01-10.69.01-10.69c-.79-9.02-.13-18.13-.49-27.1-.24-5.97.86-12.49,1.32-18.23.69-.94.96-5.04,1.56-5.63.78-.78.36,2.29.47,2.4.09.08.88-.09.96,0,.27.26-.43,2.48-.48,3-.33,3.46-.32,7.57-.26,11.04.02.93.4,1.81.26,2.75.27.04.45,0,.6-.24.36-.56.04-6.53.11-7.81.43-7.57,5.12-22.66,10.8-27.82.9-.81,2.62-2.23,3.63-2.85s3.75-1.5,4.3-2.41c.2-.33.52-1.28-.13-1.09-.99.29-3.66,2.83-5.04,3.35-.86.33.16-1.22.12-1.43-.38-.37-8.34,4.51-9.19,5.08-10.72,7.16-13.26,22.33-14.3,34.38-1.53,17.72.92,35.46-.49,53.25-.36,4.54-1.23,9.13-1.67,13.68s-1.14,10.2-1.21,14.87c-.01.89.93-.08,1.08-.37.28-.54-.21-1.15.85-.95-.34-1.35-.29-2.8-.24-4.19.13-3.32.49-9.85,1.2-12.91.04-.18.45-.15.49-.32.03-.15-.01-2.49,0-3.07.11-3.91,0-8.4.46-12.25.23-1.87,1.5-3.87,1.68-6.47ZM11.46,148.99v-.96h-.23v.96h.23Z"/>
      <path class="cls-2" d="M18.18,50.89c.39-1.2.31-.59.89-1.27.5-.59-.2-3.93-.18-5.1.19-10.92,3.55-22.15,11.75-29.5.65-.58,3.9-3.31,4.44-3.47.38-.11.38.04.36.36-.04.77-1.3,2.35-1.73,3.31-.57,1.29-1.18,3.11-1.15,4.48.7.16.54-.73,1.08-.96.29-.13.45.05.35.35-.25.79-1.38,2.23-1.69,3.11s-.08,1.65-.28,2.36c-.09.33-.91,1.33-1.15,1.97-1.57,4.04-3.07,11.5-3.57,15.86-.13,1.13.07,2.29-.06,3.42-2.72.71-4.99,2.74-7.64,3.39l.72.96c-.64.2-1.55.03-2.16.72Z"/>
      <path class="cls-2" d="M6.91,52.09c.01.41.74,1.17.74,1.3-.06,2.32-.86,5.07-.99,7.44-.18,3.35.54,6.86.49,10.33,0,.41.15,1.07-.24,1.32-.08-1.31.06-2.64,0-3.96l-.47-2.76-2.88,26.27-.97,13.18-.24,9.86c.37,5.16.44,10.36,1.45,15.46.47-.15.21-1.25.24-1.68l.24,3.12,1.2-.24c-.18.11-.78.58-.84.72-.53,1.07,1.42,5.4,2.09,6.55.98,1.7,2.54,3.78,4.27,4.72.02.57-.24,1.14-.24,1.2-6.67-4.89-9.13-12.06-10.07-20.03-2.7-23,3.37-49.86,6.23-72.8Z"/>
      <path class="cls-1" d="M61.09,54.48c-.37.06-.66-.16-.96-.24l-.72-.24c-.08-.02-.16.02-.24,0l-.72-.24c-2.18-.55-3.39-.81-5.51-1.68l-.72-.24c-1.57-.72-3.24-1.45-4.32-2.88l-.12-.24-.12.24s.02.16,0,.24c-.14.21-.38.76-.71.48-.26-.22-1.12-2.43-1.27-2.93-2.82-8.95-3.91-22.05-3.53-31.49.02-.37-.22-.95.36-.84.42.63.55,2,.6,2.76.37,5.58-.16,11.13.74,16.77.38,2.34,2.32,11.61,3.45,13.1,1.28,1.69,3.89,3.18,5.85,3.99,2.59,1.07,5.39,1.58,8.02,2.53l.41.54c-.04.18-.46.32-.48.36Z"/>
      <path class="cls-1" d="M64.93,88.31c.65.43.45.23.48-.36.3-6.16-.25-12.54,0-18.72.01-.29-.18-.89.24-.84,1.39,5.35,1.05,11.15.97,16.68-.1,7.09-.21,14.71-.97,21.82-.18,1.72-.51,3.44-.72,5.16l-.48-2.16c.45-7.2.37-14.37.48-21.59Z"/>
      <path class="cls-2" d="M31.6,135.56c1.27.78,2.79.73,4.2.96.36.06.74.01.84.48-.78-.07-1.5.27-2.28.26-1.09-.01-2.84-1.08-3.48-.02.21-.57.18-1.25.72-1.68Z"/>
      <path class="cls-2" d="M101.61,71.28c-.4-.25-.24-.91-.24-1.32-.03-2.63.21-5.33-.24-7.92l.72-7.32c-.07,5.5-.22,11.02-.24,16.55Z"/>
      <path class="cls-2" d="M28.72,39.13c-.04.58-.24,1.71-.24,2.04v6.84c-.95.12-.61-1.37-1.44-1.2.34-.19.95-.24.98-.38.04-2.37-.03-5.05.7-7.3Z"/>
      <path class="cls-2" d="M84.35,139.4c.02-4.51.18-9.02.24-13.56,0-.41-.15-1.07.24-1.32-.03,3.4.02,6.8,0,10.2l-.49,4.67Z"/>
      <path class="cls-2" d="M23.69,158.83c-.65-.43-.45-.23-.48.36-.1,2.13.03,4.25.24,6.36-.62-2.08-.73-5.61-.49-7.8.04-.36.05-.74.49-.83.29.64.16,1.31.24,1.92Z"/>
      <path class="cls-2" d="M26.33,162.91c-.8-2.45-.73-5.91,0-8.4-.15,2.76-.34,5.65,0,8.4Z"/>
      <path class="cls-2" d="M17.94,75.83c-.86-3.21-.41-6.75-.48-10.07.4.25.24.91.24,1.32.04,2.99.02,5.77.24,8.76Z"/>
      <path class="cls-2" d="M65.65,163.87c.17,1.22,1.39.7,2.16,1.2-.07,0-.22.24-.76.2-.36-.03-2.43-.73-2.6-.92-.54-.62.98-.46,1.2-.48Z"/>
      <path class="cls-2" d="M26.81,164.35c.35.27,1.16,1.89.96,2.16-1.19-.24-1.18-.69-1.68-1.44l.12-.24.6.48c0-.32.02-.64,0-.96Z"/>
      <path class="cls-2" d="M49.82,167.23v.48c.32,0,.64.02.96,0-.78.69-1.92.45-2.88.48-.12-.68.17-.39.53-.54.42-.17,1.04-.25,1.39-.42Z"/>
      <path class="cls-2" d="M101.85,52.33c.02-2.07,0-4.16,0-6.24.42,1.48.26,3.35.24,4.92,0,.41.15,1.07-.24,1.32Z"/>
      <path class="cls-2" d="M18.18,168.66c.41.17,1.42,1.92,1.2,2.16-1.13-.07-1.44-.93-1.92-1.68l.24-.24v.72c1.15.12.67-.24.48-.96Z"/>
      <path class="cls-2" d="M25.13,162.91c-.68-.57-.73-1.44-.96-2.16l.24-.24c.44.75.5,1.72.72,2.4Z"/>
      <path class="cls-2" d="M17.7,166.99c-.86.22-.61-1.82-.47-1.92.63-.42.77.39.95.72l-.72-.24c-.06.51.13.96.24,1.44Z"/>
      <path class="cls-2" d="M15.06,165.07c.39.11.47.69.73.84.59.35,1.54-.26.71,1.32-.42-.72-1.03-1.3-1.44-2.16Z"/>
      <path class="cls-2" d="M26.33,154.27c.04-.88-.18-1.92.48-2.64-.09.84.04,1.88-.48,2.64Z"/>
      <path class="cls-2" d="M24.65,169.38c.28,1.33.54,1.33-1.2,1.44v-.48c.87.11,1.13.24,1.2-.96Z"/>
      <path class="cls-2" d="M54.14,166.75c-.73.2-1.43.31-2.16.48-.04-1.1,1.41-.48,2.16-.48Z"/>
      <path class="cls-2" d="M28.72,38.89c.07-.87-.11-1.89.48-2.64-.14.79.07,1.91-.48,2.64Z"/>
      <path class="cls-2" d="M63.49.51c.7.05,1.48-.08,2.16,0-.68.52-1.82.13-2.64.24v-.24s.48,0,.48,0Z"/>
      <path class="cls-2" d="M26.81,151.39c.09-.79-.15-1.91.72-2.4-.08.65-.41,1.79-.72,2.4Z"/>
      <path class="cls-2" d="M36.88,46.33l.96-.24c-.15.83.46,1.35.96,1.92-.69-.52-1.34-1.03-1.92-1.68Z"/>
      <path class="cls-2" d="M18.42,78.23c-.7-.5-.43-1.43-.48-2.16.45.58.35,1.49.48,2.16Z"/>
      <path class="cls-2" d="M98.01,127.41c-.73.02-1.59.06-2.16-.48.66.16,1.49.33,2.16.48Z"/>
      <path class="cls-2" d="M57.25.51s.3.05.24.24c-.82.07-1.78-.21-2.52.24l.12-.47c.67-.09,1.47.06,2.16,0Z"/>
      <path class="cls-2" d="M29.68,33.85c.07-.64-.2-1.48.48-1.92-.14.58.02,1.41-.48,1.92Z"/>
      <path class="cls-2" d="M43.35,111.81c.04-.66.05-1.51,0-2.16.4.45.4,1.71,0,2.16Z"/>
      <path class="cls-2" d="M27.77,147.08c.07-.57-.14-1.3.48-1.68-.09.57.03,1.25-.48,1.68Z"/>
      <path class="cls-2" d="M84.11,141.8c0-.68-.2-1.68.24-2.16,0,.68.19,1.69-.24,2.16Z"/>
      <path class="cls-2" d="M98.73,28.34c-.35-.79-.29-1.02-.48-1.68.55.38.5,1.09.48,1.68Z"/>
      <path class="cls-2" d="M28.25,145.16c.07-.52-.08-1.1.48-1.44-.08.51.09,1.1-.48,1.44Z"/>
      <path class="cls-2" d="M83.87,143.96c.01-.6-.19-1.52.24-1.92,0,.6.19,1.52-.24,1.92Z"/>
      <path class="cls-2" d="M27.53,148.76c.01-.11-.63-1,.24-1.44-.04.49-.06.97-.24,1.44Z"/>
      <path class="cls-2" d="M54.38.75c-.11.04-.79,1.07-1.44.24.47-.1.96-.16,1.44-.24Z"/>
      <path class="cls-2" d="M100.65,35.53c-.31-.31-.72-1.15-.24-1.44.09.49.16.95.24,1.44Z"/>
      <path class="cls-2" d="M71.4,164.59c-.41.48-1.32.16-1.92.24.59-.09,1.44-.14,1.92-.24Z"/>
      <path class="cls-2" d="M39.03,104.14c-.36.46-1.17.18-1.68.24-.04-.27.24-.22.24-.24.48,0,.96,0,1.44,0Z"/>
      <path class="cls-2" d="M23.93,160.27c-.11-.45-.16-.74-.24-1.2.36.23.74.95.24,1.2Z"/>
      <path class="cls-2" d="M101.61,41.77c-.44-.34-.2-1.15-.24-1.68.42.33.23,1.15.24,1.68Z"/>
      <path class="cls-2" d="M10.98,147.8c-.02-.56.02-1.12,0-1.68.05.36.66,1.21,0,1.68Z"/>
      <path class="cls-2" d="M101.13,38.65c-.06-.48-.16-1.14-.24-1.68.45.34.18,1.15.24,1.68Z"/>
      <path class="cls-2" d="M28.72,143.48c.06-.46-.15-1.01.48-1.2-.11.4.04.93-.48,1.2Z"/>
      <path class="cls-2" d="M17.22,54.24c.07-.68.05-.79.24-1.44-.03.45.18,1.17-.24,1.44Z"/>
      <path class="cls-2" d="M101.85,43.45c-.4-.26-.23-.99-.24-1.44.4.26.23.99.24,1.44Z"/>
      <path class="cls-2" d="M16.98,55.92c0-.45-.16-1.18.24-1.44-.01.45.17,1.18-.24,1.44Z"/>
      <path class="cls-2" d="M83.63,145.64c.01-.45-.17-1.18.24-1.44,0,.45.16,1.18-.24,1.44Z"/>
      <path class="cls-2" d="M7.63,44.17c.04-.39-.05-.82,0-1.2.63.34.05.96,0,1.2Z"/>
      <path class="cls-2" d="M83.39,147.08c.01-.38-.15-.99.24-1.2-.04.57-.2.92-.24,1.2Z"/>
      <path class="cls-2" d="M85.54,122.85c-.17-.09-.66-.55-.72-.48-.01.4,0,.8,0,1.2-.69-.94.07-2.07.72-.72Z"/>
      <path class="cls-2" d="M67.08.99c-.4-.01-.8.01-1.2,0,.02-.12.24-.2.24-.24l.96.24Z"/>
      <path class="cls-2" d="M23.69,166.99l-.24-1.2c.43.2.16.86.24,1.2Z"/>
      <path class="cls-2" d="M86.26,123.09h.72s0,.48,0,.48c-.39-.2-.59-.41-.72-.48Z"/>
      <path class="cls-2" d="M88.18,124.05h.72s0,.48,0,.48c-.44-.2-.66-.45-.72-.48Z"/>
      <path class="cls-2" d="M82.43,151.63l.24-1.2c-.05.22.07.58,0,.84l-.23.36Z"/>
      <path class="cls-2" d="M8.59,38.41c.08-.41.16-.82.24-1.2l-.24,1.2Z"/>
      <path class="cls-2" d="M44.31,50.41c-.46-.07-.64-.16-.96-.24l.96.24Z"/>
      <path class="cls-2" d="M18.66,79.43l-.24-.96c.05.24.17.71.24.96Z"/>
      <path class="cls-2" d="M100.17,33.14c-.22-.23-.58-1.05-.24-1.2.11.46.15.78.24,1.2Z"/>
      <path class="cls-2" d="M83.15,148.28l.24-.96c-.06.43-.2.75-.24.96Z"/>
      <path class="cls-2" d="M82.91,149.47l.24-.96c-.07.41-.18.67-.24.96Z"/>
      <path class="cls-2" d="M29.44,35.05l.24-.96c-.06.44-.22.81-.24.96Z"/>
      <path class="cls-2" d="M95.61,126.93c-.31-.07-.69-.18-.96-.24l.96.24Z"/>
      <path class="cls-2" d="M14.82,164.35c-.44-.12-.5-.55-.48-.96.02,0-.04-.28.24-.24-.07.45.1.8.24,1.2Z"/>
      <path class="cls-2" d="M42.63,114.93l.24-.96c-.09.35-.09.51-.24.96Z"/>
      <path class="cls-2" d="M43.11,113.01l.24-.96c-.04.5-.22.81-.24.96Z"/>
      <path class="cls-2" d="M29.2,36.01l.24-.72c-.06.41-.23.68-.24.72Z"/>
      <path class="cls-2" d="M59.17,54c-.32-.08-.58-.2-.72-.24l.72.24Z"/>
      <path class="cls-2" d="M60.13,54.24c-.28-.08-.58-.2-.72-.24l.72.24Z"/>
      <path class="cls-2" d="M30.16,139.16c-.04-.43.04-.83.48-.96-.13.35-.41.74-.48.96Z"/>
      <path class="cls-2" d="M32.32,133.64l.24-.72c-.07.16-.11.41-.24.72Z"/>
      <path class="cls-2" d="M33.28,131.48l.24-.72c.15.39-.18.58-.24.72Z"/>
      <path class="cls-2" d="M99.69,30.98l-.24-.72c.08.25.16.46.24.72Z"/>
      <path class="cls-2" d="M30.4,30.98l.24-.72c-.08.27-.2.58-.24.72Z"/>
      <path class="cls-2" d="M39.03,5.07l-.72.24c.3-.11.51-.16.72-.24Z"/>
      <path class="cls-2" d="M42.87,3.63l.24.23-1.06.19-.14-.18c.31-.1.65-.14.96-.24Z"/>
      <path class="cls-2" d="M35.92,125.49l.24-.72c-.06.14-.09.38-.24.72Z"/>
      <path class="cls-2" d="M99.21,29.3l-.24-.72c.1.27.15.47.24.72Z"/>
      <path class="cls-2" d="M34.24,129.33l.24-.72c-.06.14-.09.38-.24.72Z"/>
      <path class="cls-2" d="M45.27,50.65c-.49-.04-.68-.23-.72-.24l.72.24Z"/>
      <path class="cls-2" d="M52.94,52.09c-.19-.08-.39-.09-.72-.24l.72.24Z"/>
      <path class="cls-2" d="M43.35,109.42l-.24-.72s.19.25.24.72Z"/>
      <path class="cls-2" d="M81.47,154.51l.24-.72c-.09.24-.13.44-.24.72Z"/>
      <path class="cls-2" d="M17.94,167.95l-.24-.72c.03.12.17.46.24.72Z"/>
      <path class="cls-2" d="M57.01,160.03c.07.49,0,.55-.48.48.17-.27.46-.44.48-.48Z"/>
      <path class="cls-2" d="M24.65,169.14c-.53-.26-.36-.84-.48-1.2.37.31.36.78.48,1.2Z"/>
      <path class="cls-2" d="M42.87,107.74l-.24-.72c.07.23.15.4.24.72Z"/>
      <path class="cls-2" d="M92.02,125.73c-.22-.08-.42-.13-.72-.24l.72.24Z"/>
      <path class="cls-2" d="M30.16,31.7l.24-.48c-.09.34-.23.45-.24.48Z"/>
      <path class="cls-2" d="M8.83,36.97c.03-.14-.03-.34,0-.48l.24.12-.24.36Z"/>
      <path class="cls-2" d="M43.11,50.17c-.32-.09-.45-.23-.48-.24l.48.24Z"/>
      <path class="cls-2" d="M19.37,81.11l-.24-.48c.03.08.16.27.24.48Z"/>
      <path class="cls-2" d="M20.33,83.27l-.24-.48c.07.15.16.32.24.48Z"/>
      <path class="cls-2" d="M29.92,98.14c-.24-.32-.48-.64-.72-.96.42.18.7.49.72.96Z"/>
      <path class="cls-2" d="M41.91,105.1l-.68-.53.2-.19c.55.34.31.43.48.72Z"/>
      <path class="cls-2" d="M42.39,106.3l-.24-.48c.06.13.14.24.24.48Z"/>
      <path class="cls-2" d="M43.11,108.46l-.24-.48s.17.1.24.48Z"/>
      <path class="cls-2" d="M42.87,113.73l.24-.48c-.07.39-.23.45-.24.48Z"/>
      <path class="cls-2" d="M37.12,122.61l.24-.48s-.11.28-.24.48Z"/>
      <path class="cls-2" d="M36.64,123.81l.24-.48c-.08.15-.17.33-.24.48Z"/>
      <path class="cls-2" d="M90.1,125.01c-.2-.09-.35-.18-.48-.24l.48.24Z"/>
      <path class="cls-2" d="M35.44,126.69l.24-.48c-.09.19-.18.36-.24.48Z"/>
      <path class="cls-2" d="M94.42,126.69c-.34-.08-.45-.23-.48-.24l.48.24Z"/>
      <path class="cls-2" d="M31.84,134.84l.24-.48c-.09.22-.21.4-.24.48Z"/>
      <path class="cls-2" d="M29.92,139.88l.24-.48c-.09.27-.23.45-.24.48Z"/>
      <path class="cls-2" d="M29.68,140.6l.24-.48c-.09.27-.23.45-.24.48Z"/>
      <path class="cls-2" d="M29.44,141.32l.24-.48c-.09.27-.23.45-.24.48Z"/>
      <path class="cls-2" d="M29.2,142.04l.24-.48c-.09.29-.23.45-.24.48Z"/>
      <path class="cls-2" d="M82.19,152.35l.24-.48c-.09.32-.23.45-.24.48Z"/>
      <path class="cls-2" d="M81.95,153.07l.24-.48-.24.48Z"/>
      <path class="cls-2" d="M80.99,155.71l.24-.48c-.09.21-.18.35-.24.48Z"/>
      <path class="cls-2" d="M57.25,159.55c.37-.66.86-1.88,1.2-2.64l.23.12-1.43,2.52Z"/>
      <path class="cls-2" d="M77.87,160.75c.18-.37.46-.65.72-.96.06.61-.48.7-.72.96Z"/>
      <path class="cls-2" d="M66.6,160.27c-.24.15-.47.32-.72.48.1-.35.37-.47.72-.48Z"/>
      <path class="cls-2" d="M64.45,161.47l.72-.48c-.08.46-.53.36-.72.48Z"/>
      <path class="cls-2" d="M26.81,164.11l-.24-.48s.19.08.24.48Z"/>
      <path class="cls-2" d="M23.21,170.34c-.37-.07-.4-.21-.48-.24l.48.24Z"/>
      <path class="cls-2" d="M72.12,164.35s-.1.17-.48.24l.48-.24Z"/>
      <path class="cls-2" d="M38.07,5.31l-.96.48c.23-.09.53-.31.96-.48Z"/>
      <path class="cls-2" d="M57.73,165.55c-.11.04-.25.15-.48.24l.48-.24Z"/>
      <path class="cls-2" d="M96.33,22.1l-1.19-1.56.24-.12c.35.57.65,1.07.96,1.68Z"/>
      <path class="cls-2" d="M97.77,25.22c-.58-.5-.69-1.26-.96-1.92.56.51.7,1.25.96,1.92Z"/>
      <path class="cls-2" d="M98.25,26.42l-.48-.96c.05.15.33.48.48.96Z"/>
      <path class="cls-2" d="M86.02,123.09c-.16-.09-.22-.23-.24-.24l.24.24Z"/>
      <path class="cls-2" d="M36.88,123.09l.24-.24c-.09.16-.23.22-.24.24Z"/>
      <path class="cls-2" d="M20.09,82.55l-.24-.24s.17.07.24.24Z"/>
      <path class="cls-2" d="M19.13,80.39l-.24-.24s.18.07.24.24Z"/>
      <polygon class="cls-2" points="47.9 48.97 47.66 48.97 47.78 48.73 47.9 48.97"/>
      <path class="cls-2" d="M100.89,36.73l-.23-.12.23-.12c.01.08-.01.16,0,.24Z"/>
      <path class="cls-2" d="M35.2,127.17l.24-.24c-.07.17-.23.22-.24.24Z"/>
      <path class="cls-2" d="M96.81,23.06l-.24-.24s.17.08.24.24Z"/>
      <path class="cls-2" d="M96.57,22.58l-.24-.24s.18.11.24.24Z"/>
      <path class="cls-2" d="M73.8,155.23l.48-.48c-.1.08-.28.31-.48.48Z"/>
      <path class="cls-2" d="M81.23,154.99l.24-.24c-.07.18-.23.22-.24.24Z"/>
      <path class="cls-2" d="M39.51,120.45l.72-.72c-.29.39-.46.46-.72.72Z"/>
      <path class="cls-2" d="M80.75,156.19l.24-.24c-.08.17-.23.22-.24.24Z"/>
      <path class="cls-2" d="M34.96,127.65l.24-.24c-.06.13-.22.2-.24.24Z"/>
      <path class="cls-2" d="M42.39,115.41l.24-.24c-.07.18-.23.22-.24.24Z"/>
      <path class="cls-2" d="M34,129.81l.24-.24c-.08.18-.23.22-.24.24Z"/>
      <path class="cls-2" d="M67.32,160.03l.48-.48-.48.48Z"/>
      <path class="cls-2" d="M89.38,124.77c-.17-.07-.22-.23-.24-.24l.24.24Z"/>
      <path class="cls-2" d="M92.02,15.86l-.72-.72c.2.22.45.4.72.72Z"/>
      <path class="cls-2" d="M66.84,160.27l.24-.24s-.09.15-.24.24Z"/>
      <path class="cls-2" d="M42.63,106.78l-.24-.24s.18.06.24.24Z"/>
      <path class="cls-2" d="M65.41,160.99l.24-.24c-.06.04-.12.21-.24.24Z"/>
      <path class="cls-2" d="M42.15,105.58l-.24-.24s.16.07.24.24Z"/>
      <path class="cls-2" d="M61.81,163.39l.72-.72-.72.72Z"/>
      <path class="cls-2" d="M26.57,163.39l-.24-.24s.22.08.24.24Z"/>
      <path class="cls-2" d="M61.09,163.87l.48-.48c-.08.05-.2.46-.48.48Z"/>
      <path class="cls-2" d="M33.76,130.28l.24-.24c-.04.1-.14.18-.24.24Z"/>
      <path class="cls-2" d="M60.37,164.35l.48-.48-.48.48Z"/>
      <path class="cls-2" d="M33.52,102.46c-.63-.42-.98-.85-1.44-1.44l1.44,1.44Z"/>
      <path class="cls-2" d="M67.32.99c.08,0,.16-.01.24,0l-.12.24-.12-.24Z"/>
      <path class="cls-2" d="M59.89,164.59l.24-.24s-.11.17-.24.24Z"/>
      <path class="cls-2" d="M15.06,164.83s-.19-.11-.24-.24l.24.24Z"/>
      <path class="cls-2" d="M59.41,164.83l.24-.24s-.11.17-.24.24Z"/>
      <path class="cls-2" d="M58.93,165.07l.24-.24s-.11.18-.24.24Z"/>
      <path class="cls-2" d="M58.45,165.31l.24-.24s-.1.18-.24.24Z"/>
      <path class="cls-2" d="M33.04,131.96l.24-.24c-.08.18-.23.22-.24.24Z"/>
      <path class="cls-2" d="M57.97,165.55l.24-.24s-.07.17-.24.24Z"/>
      <path class="cls-2" d="M32.08,134.12l.24-.24-.24.24Z"/>
      <path class="cls-2" d="M36.4,124.29l.24-.24c-.08.17-.23.22-.24.24Z"/>
      <path class="cls-2" d="M31.6,135.32l.24-.24c-.05.11-.12.2-.24.24Z"/>
      <path class="cls-2" d="M91.06,125.49c-.18-.07-.22-.23-.24-.24l.24.24Z"/>
      <path class="cls-2" d="M30.64,137.72l.24-.24c-.06.16-.23.22-.24.24Z"/>
      <path class="cls-2" d="M51.5,167.47l.24-.24s-.11.21-.24.24Z"/>
      <path class="cls-2" d="M24.17,167.71l-.24-.24s.19.06.24.24Z"/>
      <path class="cls-2" d="M51.02,167.71l.24-.24s-.07.21-.24.24Z"/>
      <path class="cls-2" d="M35.68,125.97l.24-.24c-.08.18-.23.22-.24.24Z"/>
      <path class="cls-2" d="M22.49,170.1c-.17-.08-.21-.22-.24-.24l.24.24Z"/>
      <path class="cls-1" d="M64.45,55.92c-.07-.14-.71-1.11-.77-1.14-.32-.18-1.15.12-1.38-.42-.28-.65.83-.02.72-.72s-1.15-2.12-1.45-2.87c-.53-1.32-1.68-4.46-1.68-5.76,0-.48.03-.38.49-.36.57,2.82,2.09,5.27,3.12,7.92l.48-.36c-.88-2.29-1.69-4.66-2.34-7.01-2.2-7.93-4.24-16.28-5.34-24.41-.21-1.57-.72-3.02-.48-4.68.58-.14.53.22.64.66,2.55,10.07,3.4,20.92,6.85,30.82l1.61,4.98v-14.87c.55-.03.43-.09.48.36.41,3.49.31,7.06.47,10.57.14,3.15.44,6.42.5,9.57.05,2.76-.06,5.53-.01,8.29-.66.12-.4-.14-.54-.52-.17-.49-.53-1.59-.6-2.05-.19-1.29.22-2.71-.3-3.9.04-1.43.14-2.76-.48-4.08Z"/>
      <path class="cls-1" d="M68.76,84.23c-.06,3.15.08,6.33.01,9.48-.24,10.47-.8,20.99-1.69,31.42-.06.75.04,1.53,0,2.28h-.72s1.92-42.82,1.92-42.82l.48-.35Z"/>
      <path class="cls-1" d="M55.34,24.26l3.84,19.67c-.73.13-.37-.22-.5-.57-2.03-5.32-2.9-11.77-3.8-17.32-.04-.27-.13-2.55.47-1.78Z"/>
      <path class="cls-2" d="M102.33,120.93l-.73-6.59c.17-2.48-.31-5.16.25-7.57.02,1.7.24,3.64.24,5.16v4.56c0,1.27.22,2.98.24,4.44Z"/>
      <path class="cls-2" d="M10.5,90.11c-.18,2.6-1.46,4.6-1.68,6.47-.47,3.85-.36,8.34-.46,12.25-.02.58.03,2.92,0,3.07-.03.17-.44.14-.49.32-.71,3.07-1.07,9.6-1.2,12.91-.06,1.39-.11,2.85.24,4.19-1.05-.2-.56.41-.85.95-.15.3-1.09,1.26-1.08.37.07-4.67.75-10.16,1.21-14.87s1.31-9.13,1.67-13.68c1.41-17.78-1.04-35.53.49-53.25,1.04-12.05,3.58-27.23,14.3-34.38.85-.57,8.81-5.44,9.19-5.08.03.22-.99,1.76-.12,1.43,1.39-.52,4.06-3.06,5.04-3.35.65-.19.33.76.13,1.09-.55.91-3.3,1.79-4.3,2.41s-2.73,2.03-3.63,2.85c-5.67,5.16-10.36,20.25-10.8,27.82-.07,1.28.25,7.25-.11,7.81-.15.24-.33.28-.6.24.14-.94-.24-1.83-.26-2.75-.06-3.46-.07-7.58.26-11.04.05-.52.75-2.74.48-3-.09-.08-.88.09-.96,0-.11-.1.31-3.18-.47-2.4-.6.6-.87,4.69-1.56,5.63-.45,5.74-1.56,12.26-1.32,18.23.36,8.97-.3,18.07.49,27.1v10.69s.71,0,.71,0c.13-2.49,1.03-4.91,1.38-7.38.21-1.51.34-3,.55-4.48.12-.84-.11-1.9-.01-2.77.67-.12.4.14.54.53.3.84,1.37,4.19,1.39,4.88.01.57-.25,1.09-.26,1.66-.08,8.7-1.55,18.55-.96,27.13.39,5.69,5.84,19.46,10.71,22.62.17.11,3.1,1.16,2.48,1.71-.72.06-1.35-.26-1.97-.54-3.83-1.71-6.71-4.68-8.66-8.37-.34-.65-1.75-4.16-1.96-4.28-.45-.25-.34.37-.36.59-.18,2.56.39,5.08.24,7.68-.04.7-.15,1.69-.24,2.41-.15,1.25-.68-.27-.73-.95-.31-4.52-.04-9.49-.49-13.9-.05-.48-.59-2.98-.76-3.32s-.26-.49-.66-.42c.18,1.02-.17,2.03-.22,2.97-.26,5.67-.8,13.47-.04,18.99.26,1.88-.14,3.58,0,5.03.06.65.63,1.5.71,2.43s-.26,1.79-.2,2.36c.04.43.59,1.18.69,1.96.18,1.45.21,4.2.51,5.44.66,2.75,1.21,6.05,1.92,8.91.03.12.96,2.18,0,1.33-.08-.07-.55-1.29-.77-1.51l-2.47-7.36c-.46.34-.4.82-.37,1.31.11,2.02,1.15,4.32,1.21,6.48.01.51.19.99-.49.85-.75-2.78-1.79-5.5-2.34-8.34-1.93-10.02-1.03-20.57-1.01-30.63.03-12.9.06-25.05-.97-37.91-.13-1.65-.04-3.65-.24-5.28-.06-.44.08-.39-.48-.36v8.52ZM18.41,31.46h-.48s0,.96,0,.96h.23s.24-.96.24-.96ZM13.14,35.54l-.68.4c-.55,4.33-.56,8.67-.76,13.03h.72s.72-13.43.72-13.43ZM10.74,80.63v-.48h-.23v.48h.23Z"/>
      <path class="cls-2" d="M7.15,89.99v-14.15c.17,4.23.29,8.53.24,12.84,0,.41.15,1.07-.24,1.32Z"/>
      <path class="cls-2" d="M10.74,137.96c-.05-2.47.08-4.97,0-7.44.4.25.24.91.24,1.32.02,1.6.02,3.21,0,4.8,0,.41.15,1.07-.24,1.32Z"/>
      <path class="cls-2" d="M6.43,102.7c.71,1.58-.28,3.37,0,5.04-.42.05-.23-.68-.24-.96-.05-1.39.08-2.71.24-4.08Z"/>
      <path class="cls-2" d="M5.95,107.98c.67,1.21-.29,2.73,0,4.08-.4.06-.22-.45-.24-.72-.06-1.15.15-2.23.24-3.36Z"/>
      <path class="cls-2" d="M6.91,94.3c.54,1.03.11,2.47.24,3.6-.42.05-.23-.68-.24-.96-.03-.87-.02-1.77,0-2.64Z"/>
      <path class="cls-2" d="M4.27,125.25c.02-.68-.21-1.68.24-2.16,0,.68.19,1.69-.24,2.16Z"/>
      <path class="cls-2" d="M4.75,119.97v-1.68c.65.48.07,1.3,0,1.68Z"/>
      <rect class="cls-2" x="11.23" y="148.04" width=".23" height=".96"/>
      <path class="cls-2" d="M10.74,129.81c-.32.02-.64-.02-.96,0,.1-.37.88-.36.96,0Z"/>
      <path class="cls-2" d="M8.83,130.04l-.72.24c.38-.19.46-.15.72-.24Z"/>
      <path class="cls-2" d="M9.54,129.81s-.27.19-.48.24l.48-.24Z"/>
      <path class="cls-2" d="M79.91,6.75c.16.08.16.16,0,.24v-.24Z"/>
      <path class="cls-1" d="M13.14,35.54l-.72,13.43h-.72c.2-4.36.21-8.7.76-13.03l.68-.4Z"/>
      <polygon class="cls-1" points="18.41 31.46 18.17 32.41 17.94 32.41 17.94 31.46 18.41 31.46"/>
      <rect class="cls-1" x="10.51" y="80.15" width=".23" height=".48"/>
    </g>
  </g>
</svg>