<?xml version="1.0" encoding="UTF-8"?>
<svg id="Layer_2" data-name="Layer 2" xmlns="http://www.w3.org/2000/svg" viewBox="0 0 124.91 192.12">
  <defs>
    <style>
      .cls-1 {
        fill: #e1d9cb;
      }
    </style>
  </defs>
  <g id="Layer_1-2" data-name="Layer 1">
    <path class="cls-1" d="M94.89,9.02c13.1,9.86,17.26,22.4,19.86,38.06,1.83,11.03,4.44,20.72,6.85,31.53,2.14,9.56,4.15,21.46,2.94,31.12-.33,2.65-1.6,6.29-1.69,8.63-.1,2.79,1.05,6.63,1.21,9.6.14,2.51-.28,7.73-1.25,10.02s-1.02-.05-1.33-.72c-3.66-7.77-12.65-8.08-19.47-11.58-.97,2.15-2.33,4.32-3.74,6.22-1.67,2.24-3.83,4.09-5.48,6.27-5.29,7.01-6.97,9.94-7.34,19.04-.25,6.3-.24,13.19,2.37,19,2.19,4.87,6.63,7.12,11.79,5.12.95.99-4.45,2.13-4.9,2.17-2.59.21-4.52-.11-6.6-1.69.33,2.39,2.65,6.9,4.95,7.88.38.16,3.31.43,2.72,1.23-.33.45-3.84.14-4.66.25-.49.07-1.81.35-2.37.47-.17.04-.14.42-.33.47-.2.05-2.48-.43-2.78-.53-3.47-1.12-6.72-3.88-8.66-6.92-.46-.72-1.53-3.2-1.88-3.51-.66-.57-3.56-1.61-4.71-2.37-9.36-6.12-8.69-17.21-5.89-26.72,5.44-18.47,18.78-34.66,17.87-54.82-.5-11.03-3.65-19.68-6.13-30.09-.3-1.28-.38-2.89-.7-4.1-1.1-4.15-3.78-8.65-5.05-13.42-1.61-6.05-2.13-13.8-4.13-19.38-1.02-2.84-4.98-5.25-7.98-5.33l.72-1.44c-.22-.16-3.13.22-3.61.34-1.2.31-2.23,1.32-3.46,1.36-.24,0-2.19-.09-2.29-.14-.14-.08-1.72-2.04-2.39-1.32-.06.07.2,1.27-.48,1.58-.24.11-.41-.31-.72-.26-.83.12-3.21.88-4.04,1.24-1.42.61-4.42,2.68-4.99,4.12-2.74,6.95-2.48,15.6-4.45,22.89-.51,1.89-1.23,3.89-1.98,5.7-.56,1.34-2.51,4.53-2.7,5.46-.63,3.12.09,10.28.74,13.54,1.68,8.49,8.48,16.13,13.82,22.63.67.81,1.55,2.59,2.17,3.1.71.59,4.03,1.69,4.96,1.75s2.71-.91,3.19-.56c.37,2.02,3.22,7.19,2.46,8.96-.14.32-.57.4-.76.69-2.11,3.21-3.88,6.94-7.01,9.31-2.97,2.24-6.89,3.02-10.53,3.5.92,2.37,1.52,4.92,2.84,7.12,1.81,3.02,4.45,5.89,6.37,8.98,6.2,9.97,8.57,19.04,2.58,29.89-2.87,5.2-6.07,6.75-10.57,10.05-2.28,1.67-3.86,3.64-6.76,4.75-.95.36-5.4,1.42-5.97.62s1.71-.71,1.98-.77c2.97-.69,4.7-5.41,5.38-8.05,2.16-8.48.59-17.64-.17-26.2l-2.53,4.78c-2.18,2.75-4.81,5.31-8.58,5.02-1.2-.09-3.28-.76-1-.94,9.9-.77,9.84-10.53,7.26-18.04-1.02-2.96-5.05-10.94-7.49-12.66-2.28-1.6-4.96,4.44-5.87,3.6-.17-.16.72-1.74.73-2.27.02-1.43-.27-6.56-.54-7.87-.18-.89-1.71-2.78-2.23-3.77-4.91-9.39-5.55-18.19-2.38-28.3.26-.83,2.16-5.1,1.79-5.53-.61-.18-1.24.85-1.55.88-.29.03-.64-.36-1.11-.28-.59.09-2.09,1.15-2.86,1.44-1.24.46-1.82.67-3.11.23-.79-.27-1.96-.88-2.82-1.25-.26-.11-.6-.21-.3-.53.21-.22,2.03-.26,2.59-.41,1.47-.39,2.9-2,3.74-3.22.36-.52,1.64-2.69,1.53-3.15-.07-.29-.5-.51-.45-1.01.01-.13.44-.1.49-.29.25-1.05-.09-3.24,0-4.51.93-12.09,8.08-25.71,12.58-36.83,2.17-5.36,3.43-10.66,6.69-15.62,2.15-3.27,5.21-5.6,7.72-8.58s11.96-8.05,15.85-10.29C58.32.03,70.7-1.31,78.88,1.41c6.49,2.16,10.55,3.5,16.01,7.61ZM74.19,54.91l-5.27-21.11c1.07,6.16,2.45,12.27,4.14,18.28l1.13,2.83ZM9.23,78.18c.6-.33.82-1.3,1.06-1.93.91-2.38,1.7-5.2,2.41-7.66,1.85-6.41,3.3-12.96,4.91-19.43l-2.16,5.15c-2.69,7.77-5.22,15.67-6.23,23.87ZM31.33,51.53l-1.81,5.92.37.11,1.81-5.92-.37-.11ZM121.9,114.16c2.22-11.02.06-22.29-1.98-33.16l-5.21-22.25c-.35,1.95-.12,3.92-.24,5.87-.09,1.43-.43,3.13-.49,4.55-.18,4.68.87,9.01,1.46,13.61,1.13.78.44.46.28,1.09-.28,1.16,1.35,9.09,1.7,10.9,1.13,5.95,2.72,11.82,3.83,17.76l.66,1.62ZM14.26,121.36c-.63-2.11-1.68-4.08-2.33-6.18-1.34-4.36-2.18-9.78-2-14.33.02-.56.57-1.74.01-2.03-1.19,7.39.03,14.94,3.53,21.52l.78,1.02ZM97.45,128.55c.8-.91,1.72-2.39,2.11-3.52.06-.18.49-.84-.08-.79-.51.04-1.91,3.61-2.04,4.31ZM46.63,173.17c7.43-10.63,2.8-23.47-4.56-32.62,2.73,10.45,8.44,21.78,4.56,32.62ZM74.2,178.93c.22-.26-.18-.74-.35-.97-6.81-9.38-5.93-14.44-6.36-25.54-.01-.29.18-.89-.24-.84-1.95,6.78-3.27,13.9.35,20.39,1.04,1.86,2.54,3.15,3.83,4.8.44.08,2.49,2.46,2.77,2.15ZM74.67,179.4v-.48h-.23v.48h.23Z"/>
  </g>
</svg>