<?xml version="1.0" encoding="UTF-8"?>
<svg id="Layer_2" data-name="Layer 2" xmlns="http://www.w3.org/2000/svg" viewBox="0 0 126.34 187.17">
  <defs>
    <style>
      .cls-1 {
        fill: #757575;
      }

      .cls-2 {
        fill: #2e2e2d;
      }

      .cls-3 {
        fill: #2b2b2a;
      }

      .cls-4 {
        fill: #717170;
      }

      .cls-5 {
        fill: #333332;
      }

      .cls-6 {
        fill: #383837;
      }

      .cls-7 {
        fill: #434342;
      }

      .cls-8 {
        fill: #818180;
      }

      .cls-9 {
        fill: #4d4d4c;
      }

      .cls-10 {
        fill: #7a7a79;
      }

      .cls-11 {
        fill: #7d7d7c;
      }

      .cls-12 {
        fill: #3a3a39;
      }

      .cls-13 {
        fill: #272726;
      }

      .cls-14 {
        fill: #5d5d5c;
      }

      .cls-15 {
        fill: #282827;
      }

      .cls-16 {
        fill: #393938;
      }

      .cls-17 {
        fill: #313130;
      }

      .cls-18 {
        fill: #262625;
      }

      .cls-19 {
        fill: #737372;
      }

      .cls-20 {
        fill: #868686;
      }

      .cls-21 {
        fill: #797978;
      }

      .cls-22 {
        fill: #2d2d2c;
      }

      .cls-23 {
        fill: #292928;
      }

      .cls-24 {
        fill: #2a2a29;
      }

      .cls-25 {
        fill: #3d3d3d;
      }

      .cls-26 {
        fill: #363635;
      }
    </style>
  </defs>
  <g id="Layer_1-2" data-name="Layer 1">
    <g>
      <path class="cls-19" d="M117.23,69.01c-.62-.13-.49.31-.59.71-1.69,6.53-3.15,8.94-5.88,14.64l-.24.12.24.12c-.11.24-.23.39-.48.48,1.56-4.92,4.79-9.42,5.84-14.63.13-.65-.41-2.12.74-2.4.47.24.27.69.36.96Z"/>
      <path class="cls-5" d="M26.13,86.53c.05.29.14.47.24.72-.16-.08-.32-.16-.48-.24-3.32-1.67-6.33-6.49-7.78-9.84-.56-1.31-1.52-3.67-1.57-5.03,0-.25-.15-.79.24-.72,1.39,5.67,4.24,11.97,9.35,15.11Z"/>
      <path class="cls-20" d="M111.48,138.34l1.44-.24c-.14-1.56-.21-3.17-.24-4.8-.02-1.02-.04-1.65,0-2.64,1.03,2.37.06,5.09.69,7.54-.52.81-1.34.24-1.89.14Z"/>
      <path class="cls-8" d="M99.73,158.97h-.24c-.03-2.25-.07-4.47-.24-6.72-.02-.24.02-.48,0-.72.65,2.12.75,4.4.72,6.61,0,.35-.24.71-.24.83Z"/>
      <path class="cls-20" d="M115.08,120.83c-.26-.4-.27-.84-.25-1.31.11-2.11.14-4.44,0-6.61.24.91.45,2.29.49,3.23.08,1.62-.03,3.16-.25,4.69Z"/>
      <path class="cls-4" d="M84.15,175.76l.41.49.79-.25c-.36.55-.89,1.99-1.75,1.86-.09-.01-1.04-.44-.88-.78.16-.42,1.2-1.01,1.43-1.33ZM84.27,176.48v.24c.16-.08.16-.16,0-.24Z"/>
      <path class="cls-20" d="M40.03,59.66v.24c-1.62.1-3.21.26-4.92.24-.41,0-1.07.15-1.32-.24,2.14-.07,4.07-.08,6.23-.24Z"/>
      <path class="cls-10" d="M17.26,100.2c.64-.27.7.42.89.47.32.09.72-.05,1.02,0,.42.08.9.14,1.2.48-1.06,0-2.07.14-3-.48-.15-.1-.55-.44-.12-.48Z"/>
      <path class="cls-21" d="M114.36,30.39c-.85.07-.96-1.59-1.2-2.16.67.44.96,1.41,1.2,2.16Z"/>
      <path class="cls-1" d="M124.9,77.41h.72s-.48-1.2-.48-1.2c.15.21,1.19,1.22,1.19,1.32-.74.97-1.18-.01-1.43-.12Z"/>
      <path class="cls-14" d="M15.34,60.86h-.24s-.42-.16-.47-.38c-.09-.4.45-.52.47-.58.36.17.23.64.24.96Z"/>
      <path class="cls-19" d="M8.39,28h.72s0,.48,0,.48c-.49-.22-.6-.42-.72-.48Z"/>
      <path class="cls-21" d="M114.6,31.11l-.24-.48s.15.15.24.48Z"/>
      <path class="cls-18" d="M45.55,185.11c.08-.15.16-.32.24-.48l-.24.48Z"/>
      <path class="cls-21" d="M113.16,28l-.24-.24s.16.06.24.24Z"/>
      <path class="cls-19" d="M8.15,28c-.16-.09-.22-.23-.24-.24l.24.24Z"/>
      <path class="cls-10" d="M110.76,84.61l-.24-.12.24-.12c-.03.06.03.17,0,.24Z"/>
      <path class="cls-1" d="M85.35,175.76l.48-.48c-.17.32-.44.42-.48.48Z"/>
      <path class="cls-1" d="M85.83,175.04l.24-.24c-.06.13-.22.2-.24.24Z"/>
      <path class="cls-14" d="M15.58,62.54l-.24,2.16c-.02-1.2.01-2.4,0-3.6l.24,1.44Z"/>
      <rect class="cls-5" x="15.58" y="64.94" width=".23" height=".48"/>
      <path class="cls-18" d="M89.18,185.35v.24h-.48s0-.36,0-.36c.06-.34.44.12.48.12Z"/>
      <path class="cls-5" d="M84.27,176.48c.16.08.16.16,0,.24v-.24Z"/>
      <g>
        <path class="cls-19" d="M110.04,85.57l.24-.24c-.05.13-.19.18-.24.24Z"/>
        <path class="cls-12" d="M114.84,69.97c-.09,2.93-2.46,10.01-4.56,11.99.75-1.83,1.63-3.62,2.34-5.46.83-2.15,1.43-4.37,2.22-6.54Z"/>
        <path class="cls-12" d="M115.31,69.73c-.45.05-.19-.5-.17-.77s.09-1.36.41-1.39l-.24,2.16Z"/>
        <g>
          <path class="cls-18" d="M68.08,2.57c3-.5,6.37-1.47,9.48-1.45,1.26,0,2.85.52,4.14.66.46.05.88.34.77-.41,2.23.47,3.91,1.03,5.99,1.92-.53.18.35.55.47.61,1.29.66,2.28,1.39,3.6,2.03l5.75,7.44c1.22,1.84,1.63,4.61,2.58,6.41.25.48.48.6,1.02.54,0,.32,0,.64,0,.96-.96.23-.89,2.26-.42,2.6.19.14.52,0,.66.04.8.26,1.6.47,2.4.72-2.09.89-4.25-.87-6.34-.23-1.75.54,1.1,1.39,1.77,1.8,5.19,3.21,7.98,14.63,8.41,20.37.15,2.06-.12,4.28,0,6.35-.35.4-.27.95-.24,1.44.02.32,0,.64,0,.96-.79,3.15-.87,6.43-1.55,9.6s-2.21,6.56-2.71,9.52c-.56,3.34-.56,10.55-2.38,13.19-.53.77-1.96,1.94-2.44,2.86-1.17,2.22,2.61,6.6,3.46,8.71l1.3,1.21c.1-1.16-.53-2.16-.69-3.26-1.67-11.42,5.04-15.53,8.19-25.1,2.03-6.18,2.52-11.5,2.81-17.93.04-.79-.04-1.6,0-2.4s.12-3.15.28-3.68c.07-.23.29-.45.56-.4.59.13,1.46,5.05,1.56,5.88.67,5.95-.57,14.48,4.45,18.82.3.26.41.31.83.25-1.98-7.69-2.36-15.68-3.6-23.51-1.33-8.42-3.03-12.56-6.95-19.91,1.66.37,2.16,2.3,2.99,3.61.23.36.27.74.85.71.11.48.05,1.14.28,1.65l.44.03c.31,1.28.54,2.33.96,3.6-.25.35-.07.69.01,1.05.69,2.8,1.72,5.59,2.25,8.44.48,2.57.54,5.14,1.09,7.78.04.2.17.47.24.72-.65.87.04,1.59.13,2.27.55,4.39.69,9.33,2.32,13.63.37.98,1.33,2.15,1.39,2.81,0,.02-.24.14-.2.32.06.34.61.53.68.88-.57.45-3.61-2.7-4.07-3.24-1.09-1.28-1.8-3.02-3.12-3.95-.04-.1-.15-.18-.24-.24-.03-.07.02-.17,0-.24-.09-.27.11-.72-.36-.96-1.15.28-.61,1.75-.74,2.4-1.05,5.21-4.28,9.71-5.84,14.63-.02.07.03.17,0,.24l-.24.24c-.06.08.04.25-.24.48-.05.04-.32-.06-.46.01.25,1.99.74,4.01,1.18,5.98-.6.64-.48,1.6-.48,2.4h-.48c-.04-.22.04-.5,0-.72-.09-.54-.31-1.21-.6-1.68-.21,0-.13,1.37-.12,1.68.05,1.29.17,2.88.48,4.08v.48c-.22,1.22-.37,3.16-.24,4.44.04.42.08.83.48,1.07.01.56-.02,1.12,0,1.68.1,3.08.75,6.08,1.2,9.12.39,2.62.75,5.29,1.2,7.92.28,1.67.93,3.47.96,5.52,0,.24,0,.48,0,.72,0,.51-.21,1.23-.24,1.92-.04.98-.02,1.61,0,2.64-.65,0-.67-.28-.73-.83-.56-5.17-.45-11.57-2.73-16.21-.54-1.1-3.04-5.32-3.76-6.07-.32-.33-.34-.5-.92-.39.44,7.61.58,15.47,2.7,22.84.2.7,1.04,2.08,1.1,2.53.07.58-.8,1.15-.21,1.98-2.59-.96-5.07-1.85-7.34-3.57l-4.89-1.94c.2,2.93.64,5.75,1.2,8.63-.36.44-.18.75-.12,1.2.44,3.15,1.13,6.24,1.63,9.4.06.41-.02,1.58.64,1.39.17,2.24.21,4.47.24,6.72.05,3.57.26,7.29-.48,10.79-.34,1.61-1.14,3.6-1.63,5.23-.1.35-.33.66-.05,1.01-.47,1.11-.88,1.85-1.44,2.88-1.75,1.6-2.99,3.81-5.51,4.32,0-.72-.32-1.39-.24-2.28.06-.69.48-1.28.49-1.92.01-2.11-.81-5.07-.74-7.21.02-.53.44-.79.44-1.14,0-.57-.62-1.17-.67-1.36-.22-.95.1-2.73-.24-3.84-1.04.79-.63,2.37-.72,3.36,0,.08,0,.16,0,.24h-.48c.12.56-.43,1.52-.72,2.16h-.48s0-2.64,0-2.64h-.48c.04-.8.03-1.72,0-2.52-.01-.29.18-.89-.24-.84-.13,1.26.16,2.76.01,3.98-.04.36-.25.53-.25.57-.09-1.86.12-3.79,0-5.65-.02-.36-.23-.66-.24-.83.77.22.51-1.45.49-1.81-.56-7.86-4.92-16.08-6.65-23.81-.8-3.56-1.14-7.09-1.27-10.74-.02-.46.24-.96-.48-.83.06-2.65.58-5.36.75-8.01l1.17-5.43v1.2s.24,0,.24,0l-.24-1.68c-.06-3.26.45-6.15.71-9.25.18-2.14.04-4.61.26-6.7.25-2.47,1.63-3.17,3.96-3.25.98-.03.95.92,3.1.72,2.33-.21,8.02-3.52,9.6-5.26,2.26-2.49,3.99-5.56,4.2-9,.08-1.39-.01-7.37-2.23-7.05-.75.62-2.06.45-2.75.76-4.08,1.85-5.87,7.9-8.46,11.44-.82,0-.68.89-1.18,1.34-.74.67-2.96,2.35-3.86,2.98-.38.27-.77.53-1.2.72-1.6.72-3.6,1.47-5.27,2.16-.53,0-1.21.11-1.68-.12,1.15-1.34,3.35-3,4.11-4.57.15-.31-.04-.34-.03-.35,1.9-3.21,4.67-8.54,5.18-12.23.08-.57-.11-.92-.15-1.44,0-.04.33-.2.15-.71-.2-.57-.93-1.17-1.05-1.87l-.3.18c-3.63-7.64-4.42-12.92-3.84-21.35h0c.05-.75-.05-1.5.03-2.25.1-.97,1.22-6.37.93-6.63-.17.02-.32.15-.48.24-.91.53-1.65,1.97-2.39,2.76-1.69,1.82-3.88,4.03-5.76,5.63-4.16,3.54-8.36,5.72-13.43,7.68-2.36.35-4.64,1.15-6.95,1.68-.32.07-.64.17-.96.24-3.37.12-6.71.71-10.07.96-2.16.16-4.09.17-6.23.24-.56.02-1.12-.01-1.68,0l1.44-.48h-5.61c-.26-.03-.12.3-.14.48-.28,2.21.39,4.61.49,6.83.35,7.44-.74,15.85,1.56,22.91,1.1,3.39,2.26,5.27,4.02,8.17.16.26.12,1.06.57,1.38,3.35,3.3,6.24,9.41,9.51,12.45,2,1.86,3.69,1.59,6.28,1.53.98-.02,2.01-.56,3-.13.35.16,1.42,3.13,1.67,3.71-.34,1.6.82,3.04.9,4.73.02.39-.65.68-.18.78-.62,1.39-2.31,3.77-3.36,5.04-.34.1-.48.37-.48.72-.21.24-.57.39-.72.72-1.26,1.26-2.34,2.09-4.07,2.64-.43-.49.91-5.12.96-6.12.02-.5.15-.69-.47-.59-.74,2-.98,4.16-1.61,6.19-.17.54-.65.97-.75,1.42-.17.77.2,1.23.17,1.84-.21,5.04-.86,10.06-.46,15.02-.73-1.1-.49-3.06-1.02-4.14-.16-.33-.26-.49-.66-.42-.08,1.63.1,3.3,0,4.93-.07,1.32-.47,3.04-.5,4.32,0,.18.65,3.35-.23,2.51l-5.64-28.3c-.44-.23-.4.48-.47.72-.28,1.05-.49,2.39-.61,3.48-.45,4.24-.35,8.58-.72,12.83h-.72c-.41-2.71-1.27-5.53-1.45-8.27-.38-5.83.65-11.79.73-17.52.01-.92,0-1.84,0-2.75-.66-.12-.4.14-.54.52-1.68,4.77-3.05,13.91-3.3,19.01-.4,8.16,3.24,21.7,5.94,29.58,1.66,4.84,3.93,7.67,3.12,13.31-.23,1.61-1.25,2.61-1.85,4.02.84.73,5.14-2.86,5.75-3.72.74-1.04,1.57-3.44,2-4.72.26-.76-.05-1.67.79-2.1.41-.07.81.62.94.94.39,1.01,1.03,6.76,1.32,6.96.76.07.89-.97.96-1.56.57-4.96-1-10.3-1.2-15.23h.48s.24.72.24.72c.06.07.23.17.24.24-.39.07-.3.56,0,.72.03.14.21.32.24.48-.41.05-.3.57,0,.72,0,.03.18.2.24.48-.4.07-.29.56,0,.72.03.18.2.42.24.72-.42.05-.29.56,0,.72.04.29.2.63.24,1.2-.61.66-.13,1.71,0,2.4.04.19.19.43.24.72-.39.13-.33.75,0,.96.07.4.21.64.24,1.2l-.72,6c-.02.08.02.17,0,.24l-.95.9c-.41.66-1.12,2.44-1.68,2.82-.17.12-.45.24-.49,0,.01-.28-.02-.56,0-.84,0-.04.25-.16.2-.33l-.2-.15c.11-.29.47-1.13.48-1.2v.72s.24,0,.24,0l-.24-.72c.31-2-.46-3.64-.48-5.28,0-.14.5-.98.24-1.44-.69-.71-1.68,2.05-1.96,2.47-1.45,2.2-3.44,3.4-5.47,4.96-.65.25-1.72.56-2.4.72-.63-.03-1.29.05-1.92,0,0-1.15,1.23-2.17,2.04-2.88.32-.29.94-.38,1.1-.63s.66-2.64.7-3.08c.08-.87-.06-3.72-.29-4.51-.09-.32-.59-.63-.75-1.17-.33-1.05.16-2.71-1.36-3.08-.02-.07.02-.17,0-.24-.04-.14.03-.34,0-.48-.33-1.39-1.13-3.33-1.72-4.65-.16-.36-.13-.74-.68-.63-.97-2.79-2.11-6.05-2.88-8.88h.48s0-.36,0-.36l-.48-.12c-.09-.33-.16-.63-.24-.96.35-.49-.02-1.09-.02-1.66l-.46-.02c-.55-2.51-1.61-7.3-1.68-9.73-.03-1.06.38-2,.24-3.06-.49-.19-.52-.66-.71-.89.03-1.07-.85-1.92-1.14-2.82-.62-1.93-.51-4.31-.95-6.25-.13-.57.05-.68-.55-.28-.02-.16.02-.32,0-.48-.11-.88-.35-1.31-.46-2.05-.06-.36-.3-3.38-.27-3.58.08-.58.68-.5.74-.77.12-.47-.02-1.41,0-1.99.02-.72-.04-1.45,0-2.16h.48c.1-.25-.24-.45-.24-.48-.09-1.33.16-2.36.24-3.6.02-.24-.02-.48,0-.72.77.14.4-.38.48-.82.74-3.85,1.91-7.79,3.55-11.35.09-.29.08-.52-.07-.79-.27-.46-.57,0-.6,0-1.1-.05-1.01.12-1.68.96-.88,1.11-.65,1.37-.96,2.64-.02.08.02.16,0,.24-.31.16-.6.38-.72.72l-1.2-.12c-.06-.86.84-1.96.96-2.76.03-.23-.02-.49,0-.72-.16-.15-4.01.31-4.32.96-.24.01-.48,0-.72,0-.3-.34-.78-.4-1.2-.48.33-1.62,2.21-2.18,3.35-3.48,1.93-2.21,3.6-5.33,3.84-8.27.74-.25.53,1.13.48,1.56-.2,1.69-1.33,3.39-2.06,4.9l-3.22,4.34c2.61-.01,5.33-1.21,7.31-2.88,2.11-1.78.97-1.78.35-3.71-.26-.83-1.18-5.27-1.81-5.38l-.81.21c.07-.32-.17-.52-.25-.72-.1-.25-.19-.43-.24-.72-.06-.37.04-.82,0-1.2-.03-.3.08-.65-.13-.94l-1.55-1.94c-.23-.63-.49-1.1-.72-1.68-.7-1.74-1.57-3.33-2.27-5.04-.59-1.44-2.67-8.43-3.24-8.87-.09-.07-.15-.17-.24-.24-.02-.07.02-.17,0-.24l-.72-5.76.96-2.4-.69-.02c-.11-.11,0-.69-.03-.94-.02-.28.11-1.21-.12-1.2-.78.03-.5.78-.6,1.2-.46,1.97.33,1.55.26,2.27-.05.59-.47.88-.5,1.09-.1.56.07,1.32,0,1.92h-.96l-.24-1.44c0-.08,0-.16,0-.24,0-.32.12-.79-.24-.96.46-1.33.04-3.01.72-4.32-.1.8-.21,1.94-.25,2.75-.01.26-.16,1.13.25,1.09-.03-2.75.93-5.33,1.53-7.95.08-.35.36-.93-.08-1.16.08-.22.03-.58.16-.9.14-.35.87-.32.56-1.26-1.42.44-2.74-.35-3.95-.49-.86-.1-1.87.08-2.76,0,.13-1.06-1.44-.22-1.78-.24-.14,0-.11-.44-.3-.48-.63-.16-1.65.1-2.34.01l-.61-.74c2.14-.92,5.37-3.13,7.43-3.6.01,0-.03.25.13.24.65-.07,4.02-2.39,4.45-3,.34-.49-.03-.56-.03-.6.23-1.34.57-1.79.96-2.88.25.55.5-.4.55-.53.6-1.36.73-2.01,1.13-3.31.03-.08.52-.2.48-.48-3.06-.33-5.93-1.43-8.87-2.16-.08-.02-.16.02-.24,0,.15-.85-.95-.58-1.44-.72-.07-.02-.17.02-.24,0l-.24-.24c-.07-.02-.17.02-.24,0v-.48s-.72,0-.72,0c-.07-.03-.17.03-.24,0v-.48s-.72,0-.72,0c-.06-.03-.18.03-.24,0l-.24-.24c-.06-.03-.18.04-.24,0-.06-.56-.34-.52-.6-.73-1.13-.89-2.67-1.65-3.72-2.63-.04-.04-.1-.48-.34-.73-.49-.51-1.1-.8-1.58-1.31l.48-.36-.72-.48c1.38.11,2.65.6,3.84.72h-.48s0,.24,0,.24c.26.03.5.05.48-.24,1.63.17,4.83.15,6.47,0l-.36.48c4.15-.75,9.45-1.64,13.23-3.56,1.63-.83,2.57-1.68,4.57-2.15.72-.17,1.71.27,1.5-.54,1.14.06,2.1-.76,3.12-1.2,8.84-3.79,17.52-9.3,26.85-11.51,2.36-.56,5.24-.79,7.67-1.2ZM64.25,6.17h4.44c.7,0,3.5.87,4.38,1.13,6.31,1.88,13.86,5.86,15.88,12.54.71.09.81-.86.89-1.38.3-2.01,0-5.9-.71-7.79-.45-1.2-1.12-1.94-1.86-2.94-.15-.52.47-.42.79-.31.59.22,2.92,2.91,3.38,3.57,1.61,2.31,2.63,5.44,2.79,8.25.03.56-.55,2.75.47,2.17,1.39-1.45,1.99-3.22,2.39-5.16.97-.66,1.99,2.98,2.29,3.6.17.34-.05.6.59.48-.86-4.77-4.66-11.21-8.55-14.11-7.01-5.22-22.43-3.53-30.57-1.65-8.8,2.03-14.87,5.82-22.81,9.56-9.12,4.31-18.78,8.64-28.93,9.56-.09.48.22.57.55.77,2.79,1.64,9.8,3.96,13.02,4.48l5.6.51c.45.4-2.88,4.11-3.21,4.58-1.92,2.68-3.42,5.77-6.05,7.86l-2.7,1.01c-.03.34-.18.85.33.7l7.45-3.82c4.87-8.59,11.14-17.81,19.07-23.85.29-.22,1.93-1.54,2.13-1.34.09.43-.23.58-.47.84-1.87,2.03-4.31,3.86-6.23,6-3.06,3.4-6.58,7.99-8.98,11.89-1.53,2.49-4.24,7.72-4.88,10.47-.27,1.15.37,1.21,1.26,1.75l8.4-8.88c.72-.3.07,1.45-.01,1.67-.8,2.27-1.91,4.47-2.75,6.72.5.47,5.38-3.03,6.11-3.6,4.43-3.52,8.56-7.57,13.1-11.12,9.86-7.71,19.97-16.64,33.06-9.86.55.29,1.84,1.54,2.28.85.49-.77-1.84-5.13-2.42-5.98-2.86-4.17-10.05-7.28-14.92-8.1-1.32-.22-2.78-.16-3.94-.38-.44-.09-.79-.11-.66-.65ZM105.49,37.11c-1.72-5.21-4.44-10.03-10.67-9.59-.45.03-2.39.26-2.29.84,1.1,1.35,1.98,2.71,2.4,4.43l-4.32-2.99c-1.07-.33-2.3-.71-3.25.11.21,2.42,1.59,7.52-1.3,8.64-1.33-2.98.77-6.4-.63-9.33-4.98-10.48-18.81-8.16-26.93-3-9.67,6.14-17.31,14.83-25.45,22.76l-.2.82c1.1.09,1.56,1.8,2.43,1.67.53-.08,5.24-2.49,6.18-2.96.78-.38,1.34-1.22,2.39-1.09.11.45-.26.57-.48.84-1.26,1.55-3.62,3.27-5.05,4.79l-.23.85c.26.25,6.31-1.1,7.2-1.31,1.39-.32,4.15-1.53,5.37-1.32.47.08.87.54,1.33.62.69.12,6.81-2.82,7.93-3.38,3.7-1.85,7.71-4.05,11.02-6.49l-.96-.36.11-.48,14.4-10.3c.39-.06.39-.01.36.36-.06.89-.88,1.35-1.2,2.16-1.15,2.89-2.4,7.82-2.88,10.91-.16,1.01-.58,3.19-.48,4.08-.23.06-.22.28-.24.48-.06.77,0,1.62,0,2.4-.03,4.81.54,9.76,2.1,14.33.14.4.33,1.6.9,1.5l1.8-15.41,1.92-.66c.24,2.99.31,6,.25,9.01-.09,4.71-.36,10.94-1.24,15.55-.16.82-1.53,4.82-1.17,5.19.82.14,1.51-.47,2.28-.49,1.36-.04,1.34.75,2.47-.86,3.06-4.38,6.74-17.61,7.84-23.1.55-2.73.52-5.58,1.55-8.16.91-.67,1.18,3.28,1.21,3.71.38,6.36-1.42,11.95-2.14,18.03-.04.37-.28,1.44.33,1.29.46-.08.91-.62,1.18-.98,4.08-5.55,7.61-16.87,7.81-23.73.09-3.15-.7-6.39-1.68-9.36ZM5.39,22.48v.24c.16-.08.16-.16,0-.24ZM80.55,37.11c-.3-.32-4.28,2.86-4.81,3.22-10,6.66-20.63,12.45-32,16.44l-.59.73c4.37-.4,8.81-.72,13.05-1.93,7.81-2.23,16.17-7.91,21.47-14.02.47-.55,3.29-4,2.88-4.43ZM17.62,49.82v.24c.16-.08.16-.16,0-.24ZM18.7,62.3c-.03.13.01.32,0,.48-.03.42-.08.85.24,1.2-.02.16,0,.32,0,.48,0,.26-.06.61.24.72-.02.15,0,.33,0,.48.01.42.23.45.24.48.03.15-.03.34,0,.48.08.37.23.45.24.48.1.39.14.85.24,1.2.09.3.23.45.24.48,1.35,4.47,2.57,8.07,5.03,11.99.19.31.14,1.22.84,1.2.62-1.18-.32-1.13-.36-1.2-.45-.75-2.15-8.21-2.4-9.6-.07-.4-.24-.45-.24-.48-.02-.15.02-.33,0-.48-.04-.25.09-.6-.24-.72.02-.31.02-.65,0-.96-.01-.26.08-.6-.24-.72.01-.16,0-.32,0-.48.03-.42.08-.85-.24-1.2.04-.55,0-1.13,0-1.68,0-1.11-.2-2.01-.24-3-.04-.85.92-1.89-.76-1.74s-3.55.5-2.59,2.58ZM111.48,75.25c-.47.92-.65,1.04-.96,2.16-.58.34-.84,1.13-1.03,1.73-.16.52-.71,4.04-.62,4.35s.36.47.68.4l.48-1.44c.03-.07-.03-.17,0-.24.06-.08.21-.16.24-.24,2.1-1.98,4.47-9.06,4.56-11.99.06-2.03.54-2.84.24-5.04-.05-.34.08-.87-.22-1.3l-.74-.14-2.64,11.76ZM115.55,65.42v1.92s.24,0,.24,0v-1.92s-.24,0-.24,0ZM115.31,69.73l.24-2.16c-.32.03-.38,1.12-.41,1.39s-.28.82.17.77ZM84.51,73.33v.24c.16-.08.16-.16,0-.24ZM27.33,128.03c.27-2.42.61-4.85,1.03-7.25,1.08-6.17,2.13-12.83,3.4-18.91.12-.57,1.22-2.71,0-3.1-.98-.31-1.62,2.47-1.85,3.17-2.84,8.35-4.25,17.27-3.29,26.09h.72ZM91.1,181.27c.42.47,1.69-1.91,1.92-2.05.26-.15.58.11.8.06.66-.14,1.49-2.07,1.8-2.72,7.79-16.73-1.47-33.96-1.63-51.05-.07-7.02-.04-13.63,2.14-20.39l-2.03-3.97c-.62-.14-3.37,3.72-3.7,4.45-.12,5.86-1.32,11.69-1.7,17.49-.23,3.48.34,6.97.25,10.44-.64.13-.41-.17-.59-.47-1.49-2.48-2.93-6.2-3.46-9.02-.18-.95-.52-6.33-.74-6.58-.55-.1-.38.04-.53.31-.95,1.7-3.4,9.4-3.55,11.32-.69,8.77,4.18,18.08,6.08,26.56.7,3.14,1.2,6.33,1.36,9.55.66.79.95-2.67.97-2.99.4-6.55-.61-13.05-.73-19.56.37-.47,1.05,1.39,1.14,1.61,2.34,5.76,3.54,18.88,3.17,25.13-.23,3.94-1.48,7.8-.96,11.87ZM80.07,108.11v3.84h.24v-3.84h-.24ZM46.74,179.12v-.48h-.23v.48h.23ZM46.98,180.32v-.48h-.23v.48h.23ZM47.22,181.99v-.96h-.23v.96h.23Z"/>
          <path class="cls-18" d="M48.19,163.53h-.24v-.24c.11.03.22.13.24.24Z"/>
          <path class="cls-15" d="M47.95,163.53h-.48c.2,4.93,1.77,10.27,1.2,15.23-.07.59-.2,1.63-.96,1.56-.29-.2-.93-5.95-1.32-6.96-.12-.32-.52-1.01-.94-.94-.84.44-.53,1.34-.79,2.1-.43,1.28-1.25,3.68-2,4.72-.62.86-4.91,4.44-5.75,3.72.61-1.41,1.62-2.41,1.85-4.02.81-5.63-1.46-8.47-3.12-13.31-2.7-7.87-6.34-21.42-5.94-29.58.25-5.1,1.62-14.24,3.3-19.01.14-.39-.12-.64.54-.52,0,.92.01,1.84,0,2.75-.08,5.74-1.11,11.69-.73,17.52.18,2.74,1.04,5.56,1.45,8.27h.72c.37-4.25.27-8.59.72-12.83.12-1.08.33-2.43.61-3.48.06-.24.03-.95.47-.72l5.64,28.3c.88.85.22-2.32.23-2.51.02-1.28.43-3,.5-4.32.09-1.63-.08-3.29,0-4.93.4-.08.5.09.66.42.53,1.08.29,3.04,1.02,4.14.04.55.14.59.24.96.05.18-.07.48.02.7l.46.02c.12,1.46.34,1.05.72,1.92,1.17,2.67.66,7.52,1.68,10.55v.24Z"/>
          <path class="cls-15" d="M48.19,164.24l-.24-.72h.24c.04.22-.03.49,0,.72Z"/>
          <path class="cls-24" d="M112.68,133.3c.03,1.63.1,3.24.24,4.8l-1.44.24c-1.45-.28-2.15-.75-3.36-1.2-.59-.83.28-1.4.21-1.98-.06-.44-.9-1.82-1.1-2.53-2.12-7.36-2.26-15.23-2.7-22.84.58-.11.6.06.92.39.72.75,3.22,4.97,3.76,6.07,2.29,4.65,2.17,11.04,2.73,16.21.06.54.08.83.73.83Z"/>
          <path class="cls-22" d="M114.84,112.67c0,.08,0,.16,0,.24.13,2.17.1,4.5,0,6.61-.02.46-.01.91.25,1.31-.12.83-.25,1.73-.48,2.64-.39,1.52-.92,3.19-1.68,4.56-.02-2.05-.68-3.85-.96-5.52,1.14-.18,1.17-2.6.72-3.36.44-4.56-1.49-14.59-2.4-19.43.18-1.74-.39-3.56-.72-5.28h.48c0-.8-.12-1.75.48-2.4,1.42,6.52,2.7,12.96,3.84,19.54.07.42.03.84.47,1.09Z"/>
          <path class="cls-3" d="M26.37,87.24c.08.2.32.39.25.72l.81-.21c.62.11,1.54,4.55,1.81,5.38.62,1.92,1.76,1.93-.35,3.71-1.98,1.67-4.7,2.86-7.31,2.88l3.22-4.34c.73-1.51,1.86-3.2,2.06-4.9.05-.43.26-1.82-.48-1.56-.25,2.94-1.91,6.06-3.84,8.27-1.14,1.31-3.02,1.86-3.35,3.48-.3-.05-.7.08-1.02,0-.19-.05-.25-.75-.89-.47,4.87-2.17,9.1-7.67,8.63-13.19.16.08.32.16.48.24Z"/>
          <path class="cls-2" d="M25.41,100.92c-.12.79-1.02,1.9-.96,2.76l1.2.12c-1.01,2.96-1.94,11.59-1.2,14.52.12.49-.01.85.72.84-.02.58.12,1.52,0,1.99-.07.27-.67.18-.74.77-.03.2.22,3.22.27,3.58.11.75.36,1.18.46,2.05-.96-1.25-1.45-2.77-1.85-4.27-1.91-7.07-1.28-15.64,1.61-22.36.12.04.33-.03.48,0Z"/>
          <path class="cls-13" d="M44.83,149.13c-.4-4.96.25-9.98.46-15.02.03-.61-.34-1.07-.17-1.84.1-.45.58-.88.75-1.42.63-2.03.87-4.18,1.61-6.19.62-.09.5.1.47.59-.04,1-1.39,5.64-.96,6.12,1.73-.55,2.81-1.38,4.07-2.64-.72.89-1.55,1.75-2.39,2.52-.51.47-1.46.81-1.79,1.33-.43.67-.53,3.71-.61,4.78-.04.54.02.91,0,1.2-.1,1.68-.22,3.35-.24,5.04h-.48s0,.36,0,.36l.48.12c0,.8,0,1.6,0,2.4-.38,1.11-.48,2.6-.48,3.84l-.48-.24c-.1-.37-.2-.41-.24-.96Z"/>
          <path class="cls-6" d="M77.91,126.1c.72-.13.46.37.48.83.13,3.65.47,7.17,1.27,10.74,1.74,7.73,6.09,15.95,6.65,23.81.03.36.28,2.03-.49,1.81-1.16-13.15-8.21-23.39-7.91-37.18Z"/>
          <path class="cls-5" d="M90.38,183.19c0,.6-.58,2.08-1.2,2.16-.04,0-.42-.46-.48-.12v.36s.48,0,.48,0v.24c-.49.28-.84.91-1.43.12.84-1.4,1.21-2.71,1.43-4.32.53-3.94.09-7.92,0-11.87l.48-.48c.04.2.67.79.67,1.36,0,.35-.43.62-.44,1.14-.07,2.14.75,5.1.74,7.21,0,.64-.43,1.22-.49,1.92-.08.89.25,1.56.24,2.28Z"/>
          <path class="cls-2" d="M35.96,169.04c1.52.37,1.03,2.03,1.36,3.08.17.54.66.84.75,1.17.22.78.37,3.64.29,4.51-.04.45-.54,2.84-.7,3.08s-.78.35-1.1.63c-.81.72-2.03,1.74-2.04,2.88-.5-.04-.7.09-.96-.48,1.27-1.27,3.55-3.15,3.82-4.93.51-3.41-.55-6.71-1.42-9.94Z"/>
          <path class="cls-10" d="M109.8,86.05c1.2,6.56,2.85,13.05,4,19.62.41,2.32.89,4.64,1.03,7-.44-.25-.4-.67-.47-1.09-1.14-6.58-2.42-13.03-3.84-19.54-.43-1.98-.93-3.99-1.18-5.98.13-.07.41.03.46-.01Z"/>
          <path class="cls-5" d="M86.55,168.56h.48s0,2.64,0,2.64h.48c-.39.87-.65,1.67-.96,2.4-.03.07.03.17,0,.24l-.24.24c-.03.07.03.17,0,.24l-.24.24v.24l-.24.24c-.03.07.03.18,0,.24l-.48.48c-.04.06.04.18,0,.24l-.79.25-.41-.49c.57-.78,1.44-3.54,1.68-4.56l.24.96c.29-1.23.41-2.34.48-3.6Z"/>
          <path class="cls-1" d="M99.25,151.53c.02.24-.02.48,0,.72-.67.19-.58-.99-.64-1.39-.5-3.15-1.2-6.24-1.63-9.4-.06-.45-.24-.76.12-1.2.73,3.77,1.8,7.42,2.16,11.27Z"/>
          <path class="cls-19" d="M38.84,183.67c2.03-1.56,4.02-2.76,5.47-4.96.28-.43,1.27-3.19,1.96-2.47.26.45-.24,1.3-.24,1.44.06-.77-.15-.52-.44-.08-1.99,3.02-3.2,4.73-6.75,6.08Z"/>
          <path class="cls-2" d="M27.81,137.38s-.46,0-.7-.37c-1.29-1.99-1.62-6.55-1.94-8.98.61-.39.42-.29.55.28.44,1.94.33,4.32.95,6.25.29.9,1.16,1.75,1.14,2.82Z"/>
          <path class="cls-4" d="M95.9,178.88c-1.01,1.87-1.21,2.55-3.23,3.85-.47.3-1.44.47-1.74.78-.74.74-.16,1.45-1.74,2.33v-.48c.62-.08,1.19-1.56,1.2-2.16,2.52-.51,3.76-2.72,5.51-4.32Z"/>
          <path class="cls-1" d="M49.14,181.76c-.25.89-2.62,5.1-3.36,5.41l-1.2-.38c-.18-.78.67-1.14.96-1.67l.24-.48h.24c-.02.28.01.56,0,.84.03.25.31.13.49,0,.56-.38,1.27-2.16,1.68-2.82l.95-.9Z"/>
          <path class="cls-11" d="M99.25,170.24l-.24-.48c.74-3.5.53-7.22.48-10.79h.24c-.01,1.55.24,3.22.24,4.68v4.32c0,.48-.6,1.76-.72,2.28Z"/>
          <path class="cls-19" d="M99.25,170.24c-.55,2.4-.97,3.53-1.92,5.76-.28-.35-.05-.66.05-1.01.49-1.63,1.29-3.62,1.63-5.23l.24.48Z"/>
          <path class="cls-20" d="M46.27,152.73c-.38-.87-.6-.46-.72-1.92-.01-.16,0-.32,0-.48,0-1.24.1-2.73.48-3.84l.24,6.24Z"/>
          <path class="cls-1" d="M55.62,122.27c-.47-.11.2-.4.18-.78-.07-1.7-1.24-3.14-.9-4.73.49,1.12,1,1.25,1.17,2.79.15,1.4.07,1.57-.45,2.73Z"/>
          <path class="cls-8" d="M89.66,169.28l-.48.48c-.01-.56.01-1.12,0-1.68l-.48.72c.08-.99-.32-2.57.72-3.36.34,1.11.02,2.89.24,3.84Z"/>
          <path class="cls-16" d="M33.56,163.05c.55-.12.52.27.68.63.59,1.33,1.38,3.26,1.72,4.65h-.24c-.92-1.81-1.49-3.37-2.16-5.28Z"/>
          <path class="cls-14" d="M86.55,168.56c-.07,1.26-.19,2.37-.48,3.6l-.24-.96c.08-.35.16-1.01.24-1.44,0-.04.21-.21.25-.57.15-1.22-.14-2.73-.01-3.98.42-.06.23.54.24.84.03.8.04,1.72,0,2.52Z"/>
          <path class="cls-1" d="M88.7,169.04c-.12,1.62-1.35,3.16-2.16,4.56.31-.72.57-1.53.96-2.4.29-.64.84-1.6.72-2.16h.48Z"/>
          <path class="cls-21" d="M112.92,128.74c0-.24,0-.48,0-.72.75-1.37,1.29-3.04,1.68-4.56.26.69-.2,1.89-.42,2.58-.27.87-.51,2.16-1.26,2.7Z"/>
          <path class="cls-1" d="M21.09,101.16c.31-.65,4.15-1.11,4.32-.96-.02.23.03.49,0,.72-.15-.03-.36.04-.48,0-1.19-.39-2.54.16-3.84.24Z"/>
          <path class="cls-15" d="M49.14,181.52l.72-6c.04.86,0,1.18-.02,2.03-.04,1.49.26,2.55-.7,3.96Z"/>
          <path class="cls-10" d="M33.56,183.91c.26.57.46.44.96.48.63.05,1.28-.03,1.92,0-.55.13-3.18.93-3.36.12-.1-.4.32-.44.48-.6Z"/>
          <path class="cls-22" d="M29.96,151.05l.46.02c0,.57.38,1.17.02,1.66-.12-.5-.33-1-.48-1.68Z"/>
          <path class="cls-15" d="M49.38,172.64c-.13-.68-.61-1.74,0-2.4.06.81,0,1.58,0,2.4Z"/>
          <path class="cls-18" d="M46.27,138.58c.02-.29-.04-.66,0-1.2.43.22.3.91,0,1.2Z"/>
          <path class="cls-9" d="M79.83,112.19l.24,1.68h-.23s0-1.2,0-1.2c0-.16,0-.32,0-.48Z"/>
          <path class="cls-15" d="M49.62,174.32c-.33-.21-.39-.83,0-.96.08.47-.04.73,0,.96Z"/>
          <path class="cls-22" d="M30.68,153.69l.48.12v.36s-.48,0-.48,0c-.04-.14.04-.34,0-.48Z"/>
          <path class="cls-18" d="M46.03,143.62c0,.16,0,.32,0,.48l-.48-.12v-.36s.48,0,.48,0Z"/>
          <path class="cls-15" d="M46.03,184.63h-.24c.07-.14.19-.36.24-.48l.2.15c.04.17-.2.29-.2.33Z"/>
          <path class="cls-15" d="M48.43,165.2c-.3-.16-.39-.65,0-.72.04.22-.04.5,0,.72Z"/>
          <path class="cls-15" d="M48.67,166.4c-.3-.15-.41-.67,0-.72.04.22-.04.5,0,.72Z"/>
          <path class="cls-15" d="M48.9,167.6c-.29-.16-.4-.65,0-.72.04.21-.04.5,0,.72Z"/>
          <path class="cls-15" d="M49.14,169.04c-.29-.16-.42-.67,0-.72.03.23-.03.49,0,.72Z"/>
          <path class="cls-13" d="M51.78,128.02c0-.35.14-.62.48-.72-.15.18-.24.44-.48.72Z"/>
          <path class="cls-2" d="M35.96,168.8c-.2-.11-.17-.34-.24-.48h.24c.03.14-.04.34,0,.48Z"/>
          <path class="cls-1" d="M86.31,174.08l.24-.24c-.08.18-.23.22-.24.24Z"/>
          <path class="cls-1" d="M86.07,174.56l.24-.24c-.04.1-.15.18-.24.24Z"/>
          <path class="cls-23" d="M91.1,181.27c-.53-4.08.72-7.93.96-11.87.37-6.25-.83-19.37-3.17-25.13-.09-.22-.77-2.08-1.14-1.61.11,6.51,1.13,13.01.73,19.56-.02.31-.31,3.78-.97,2.99-.17-3.22-.66-6.41-1.36-9.55-1.9-8.48-6.77-17.79-6.08-26.56.15-1.91,2.6-9.62,3.55-11.32.15-.27-.02-.41.53-.31.22.25.56,5.63.74,6.58.54,2.82,1.97,6.53,3.46,9.02.18.3-.05.61.59.47.1-3.48-.48-6.96-.25-10.44.38-5.8,1.58-11.64,1.7-17.49.33-.73,3.08-4.59,3.7-4.45l2.03,3.97c-2.17,6.76-2.2,13.37-2.14,20.39.16,17.09,9.43,34.32,1.63,51.05-.3.65-1.14,2.58-1.8,2.72-.22.05-.54-.21-.8-.06-.23.14-1.5,2.52-1.92,2.05Z"/>
          <path class="cls-15" d="M27.33,128.03h-.72c-.96-8.82.46-17.74,3.29-26.09.24-.69.88-3.48,1.85-3.17,1.22.39.12,2.53,0,3.1-1.27,6.08-2.31,12.74-3.4,18.91-.42,2.4-.76,4.83-1.03,7.25Z"/>
          <path class="cls-21" d="M26.37,103.08c-1.06,4.23-1.98,8.28-1.68,12.71l.96-2.88c-.08,1.23-.33,2.27-.24,3.6-.23.06-.23.28-.24.48-.04.71.02,1.44,0,2.16-.73.01-.6-.35-.72-.84-.73-2.93.19-11.56,1.2-14.52.12-.34.41-.56.72-.72Z"/>
          <path class="cls-26" d="M29.01,99.24s.34-.46.6,0c.15.27.16.5.07.79-1.64,3.56-2.81,7.5-3.55,11.35-.09.44.28.96-.48.82.41-4.14,1.75-8,3.32-11.91.12-.31.54-.81.03-1.04Z"/>
          <path class="cls-21" d="M111.24,114.59c.31,1.91.83,3.81.96,5.76.34.01.45-.96.48-1.2.45.76.42,3.18-.72,3.36-.45-2.63-.81-5.29-1.2-7.92h.48Z"/>
          <path class="cls-10" d="M109.56,105.48c.77-.14.4.39.47.84.41,2.75.76,5.53,1.21,8.28h-.48c-.45-3.03-1.1-6.03-1.2-9.12Z"/>
          <path class="cls-21" d="M109.56,93.72c.04.22-.04.51,0,.72.33,1.71.9,3.54.72,5.28-.13-.71-.65-1.55-.48-2.4l-.48.48c-.31-1.2-.43-2.79-.48-4.08h.72Z"/>
          <path class="cls-21" d="M109.56,103.8c-.41-.25-.44-.65-.48-1.07-.12-1.28.02-3.23.24-4.44l.49,4.94c.09.23-.25.53-.25.58Z"/>
          <path class="cls-21" d="M26.37,102.84c.31-1.26.08-1.53.96-2.64l.21.11-1.17,2.53Z"/>
          <rect class="cls-9" x="80.07" y="108.11" width=".24" height="3.84"/>
          <path class="cls-25" d="M109.56,93.72h-.72c-.01-.31-.09-1.68.12-1.68.29.47.51,1.14.6,1.68Z"/>
          <path class="cls-2" d="M25.41,116.51s.33.23.24.48h-.48c.01-.2,0-.41.24-.48Z"/>
          <rect class="cls-15" x="46.99" y="181.04" width=".23" height=".96"/>
          <polygon class="cls-15" points="46.51 182.95 46.74 183.67 46.51 183.67 46.51 182.95"/>
          <rect class="cls-15" x="46.51" y="178.64" width=".23" height=".48"/>
          <rect class="cls-15" x="46.75" y="179.84" width=".23" height=".48"/>
          <path class="cls-18" d="M45.55,150.33c0,.16-.01.32,0,.48l-.46-.02c-.09-.22.03-.52-.02-.7l.48.24Z"/>
        </g>
        <g>
          <path class="cls-17" d="M82.47,1.37c.11.75-.3.46-.77.41-1.29-.14-2.88-.65-4.14-.66-3.11-.02-6.48.94-9.48,1.45.29-1.07-.92-.76-1.56-.72-2.08.14-4.19.36-6.24.71-.42.07-.9-.11-1.07.49-.08.01-.16-.01-.24,0-1.39.2-4.94.56-5.99,1.44-.09.07-.17.15-.24.24-.08.02-.16-.02-.24,0-.58.12-1.86-.05-1.68.72-.08.02-.16-.02-.24,0-.33.09-.45.23-.48.24-.08.02-.16-.02-.24,0-.28.06-.66-.05-.96,0v.48c-.08.01-.16-.01-.24,0-.3.05-.65-.04-.96,0v.48c-.07.02-.16-.02-.24,0-.16.05-.22.23-.24.24-.07.02-.17-.02-.24,0-.49.16-1.17,0-1.44.72-.07.02-.17-.02-.24,0-.13.04-.21.23-.24.24-.07.02-.17-.02-.24,0-.46.14-1.59-.14-1.44.72-.07.02-.16-.01-.24,0-.5.09-.84-.27-.72.48h-.96c-.04.14.05.4,0,.48-.02.03-.16-.02-.24,0-.67.21-1.25-.05-1.44.96-.06.03-.18-.03-.24,0-.13.06-.21.23-.24.24-.07.03-.17-.03-.24,0-.13.06-.2.22-.24.24-.07.03-.17-.03-.24,0-.13.06-.21.23-.24.24-.07.03-.17-.02-.24,0-.46.15-.76-.27-.96.72-.07.02-.16-.02-.24,0-.48.15-.76-.26-.96.72-.06.03-.17-.03-.24,0-.23.11-.39.23-.48.48-.08.02-.17-.02-.24,0-1.25.46-1.5.85-2.57,1.62-.64.46-1.88.65-1.99,1.74.2.81-.78.37-1.5.54-2,.47-2.94,1.32-4.57,2.15-3.78,1.91-9.08,2.81-13.23,3.56l.36-.48c2.84-.26,10.69-2.37,13.16-3.75,1.49-.83,3.24-2.98,4.71-4.16C44.32,2.22,63.59-2.62,82.47,1.37ZM64.01.17v.24s2.63,0,2.63,0v-.24s-2.63,0-2.63,0ZM69.28.17v.24h3.36v-.24h-3.36Z"/>
          <path class="cls-3" d="M15.34,61.1c.02,1.2-.01,2.4,0,3.6l.24-2.16h.96l.48,4.08c-.02.08.02.16,0,.24l-.21.12.45.36c0,.08,0,.16,0,.24-.18,1.78.7,4.41,1.32,6.25.13.39-.04.85.6.71,0,.08-.01.16,0,.24.04.3-.04.65,0,.96h.48c.02.07-.02.16,0,.24.04.16.24.22.24.24.02.08-.02.17,0,.24.24.77.01,1.93,1.2,2.16.03.07-.03.17,0,.24.06.13.23.21.24.24.03.07-.02.17,0,.24.15.46-.27.76.72.96.03.06-.03.17,0,.24.45.94.63,1.13,1.2,1.68.08.13.11.29.24.48.45.65.55.62.95,1.08.49.56.8,1.47,1.68,1.56.04.38-.06.83,0,1.2-5.12-3.14-7.97-9.44-9.35-15.11-.39-.07-.25.47-.24.72-.67-1.51-.98-3.53-1.17-5.19-.14-1.21-.08-5.54-.27-6.09h.24c0,.08,0,.16,0,.24ZM15.82,65.41v-.48h-.23v.48h.23ZM16.54,71.17v-.96h-.23v.96h.23Z"/>
          <path class="cls-26" d="M112.68,27.04l-.24.12.47.36c.03.07-.03.17,0,.24l.24.24c.03.07-.03.17,0,.24.23.57.35,2.22,1.2,2.16.02.07-.02.17,0,.24l.24.48c.02.07-.02.16,0,.24.17.68.31,1.45.48,2.16-.58.03-.62-.35-.85-.71-.83-1.31-1.33-3.23-2.99-3.61-.08-.14-.14-.16-.24-.24-.05-.31-.23-.66-.24-.96,0-.06.35-.18.13-.69-.05-.12-.85-1.35-.91-1.41-.13-.11-.38-.03-.41-.06-1.03-.98-2.44-2.09-3.36-3.12-.28-.31.49-.26-.72-.48-.08-.01-.17.02-.24,0,.12-.59-.26-.53-.66-.65-.75-.22-1.95-.49-2.69-.31,0-.32,0-.64,0-.96,0-.02.27-.11.22-.21-.01-.02-.34-.12-.46-.27,4.58-.74,9.03,3.48,11.03,7.2Z"/>
          <path class="cls-1" d="M124.67,75.49h-.48c-.05-.66-1.01-1.83-1.39-2.81-1.63-4.29-1.77-9.23-2.32-13.63-.09-.68-.78-1.4-.13-2.27,1.55,5.94,1.06,13.22,4.32,18.71Z"/>
          <path class="cls-1" d="M120.11,56.06c-.56-2.64-.62-5.22-1.09-7.78-.53-2.85-1.56-5.64-2.25-8.44-.09-.35-.26-.7-.01-1.05,1.74,5.28,3.14,9.81,3.59,15.47.04.52.17,1.41-.24,1.8Z"/>
          <path class="cls-7" d="M117.47,69.49c1.32.93,2.03,2.67,3.12,3.95.46.55,3.5,3.69,4.07,3.24-.07-.35-.62-.54-.68-.88-.03-.18.2-.3.2-.32h.48c.14.24.32.49.48.72l.48,1.2h-.72c-2.97-1.28-6.27-4.85-7.43-7.91Z"/>
          <path class="cls-19" d="M71.44,49.1c1.88-1.6,4.07-3.81,5.76-5.63.74-.8,1.48-2.23,2.39-2.76-.14,1.08-1.2,2.19-1.91,3-1.08,1.24-2.84,2.99-4.08,4.07-.55.48-1.4,1.3-2.16,1.32Z"/>
          <path class="cls-14" d="M98.29,12.88v.48l-5.75-7.44c.06.03.17-.03.24,0,2.11.97,4.35,4.96,5.51,6.96Z"/>
          <path class="cls-25" d="M79.11,86.77s.18.04.03.35c-.76,1.57-2.96,3.22-4.11,4.57.46.23,1.15.11,1.68.12-.93.38-1.5.9-2.63.12l5.03-5.16Z"/>
          <path class="cls-4" d="M101.65,19.84c.12.15.45.24.46.27.04.11-.22.19-.22.21-.54.06-.76-.06-1.02-.54-.94-1.8-1.36-4.58-2.58-6.41v-.48c.63,1.08,1.33,2.07,1.88,3.27.49,1.06.88,2.94,1.47,3.68Z"/>
          <path class="cls-16" d="M17.26,50.3c.45.23.16.81.08,1.16-.6,2.62-1.55,5.21-1.53,7.95-.41.04-.26-.83-.25-1.09.04-.81.15-1.94.25-2.75.28-2.16.69-3.3,1.44-5.28Z"/>
          <path class="cls-4" d="M50.1,58.7c-3.45.79-6.55.98-10.07,1.2v-.24c3.36-.25,6.7-.84,10.07-.96Z"/>
          <path class="cls-19" d="M12.46,29.91c2.94.74,5.81,1.83,8.87,2.16.04.27-.45.39-.48.48h-.24c-2.7-.88-5.64-1.23-8.15-2.64Z"/>
          <path class="cls-4" d="M81.99,89.64c0,.63-.36.59-.76.8-1.34.67-3.11,1.38-4.51,1.36,1.67-.68,3.67-1.44,5.27-2.16Z"/>
          <path class="cls-9" d="M13.66,42.63l4.56-3.36s.37.11.03.6c-.43.61-3.8,2.93-4.45,3-.16.02-.12-.24-.13-.24Z"/>
          <path class="cls-9" d="M1.2,21.52l.72.48-.48.36c.47.51,1.09.8,1.58,1.31.24.25.3.69.34.73v.24C2.87,24.24.03,21.93,0,21.64c-.04-.46,1.04-.13,1.19-.12Z"/>
          <path class="cls-1" d="M58.02,56.78c-.17.06-.42.35-.82.49-1.75.62-4.28,1.12-6.13,1.19,2.31-.53,4.6-1.33,6.95-1.68Z"/>
          <path class="cls-12" d="M92.78,5.93c-.07-.03-.18.03-.24,0-1.32-.64-2.31-1.37-3.6-2.03-.12-.06-1-.43-.47-.61,1.52.65,3.3,1.2,4.32,2.64Z"/>
          <path class="cls-11" d="M6.23,46.23l.61.74c.7.08,1.71-.17,2.34-.01.19.05.15.48.3.48.34.02,1.91-.82,1.78.24-.93-.07-5.99-.09-5.99-1.08.22-.46.72-.26.95-.36Z"/>
          <path class="cls-12" d="M27.81,59.9c.02-.17-.12-.51.14-.48h5.61s-1.44.48-1.44.48h-4.32Z"/>
          <path class="cls-16" d="M19.18,36.39c.46-1.28.81-2.6,1.44-3.84h.24c-.4,1.3-.53,1.95-1.13,3.31-.05.12-.3,1.08-.55.53Z"/>
          <path class="cls-19" d="M88.22,84.61c-1.12,1.52-2.23,2.83-3.9,3.9-.37.24-.65.47-1.14.42.89-.63,3.11-2.3,3.86-2.98.5-.45.35-1.34,1.18-1.34Z"/>
          <path class="cls-21" d="M115.79,35.19l-.44-.03c-.23-.5-.16-1.17-.28-1.65-.17-.7-.31-1.47-.48-2.16.9,1.05.9,2.6,1.2,3.84Z"/>
          <path class="cls-25" d="M84.15,73.09c-.66-.63-.84-1.64-1.2-2.4l.3-.18c.12.7.85,1.29,1.05,1.87.18.51-.15.68-.15.71Z"/>
          <path class="cls-19" d="M10.79,29.2c.48.14,1.59-.13,1.44.72-.54-.13-1.07-.27-1.44-.72Z"/>
          <path class="cls-19" d="M3.35,24.4c1.05.98,2.59,1.74,3.72,2.63.26.21.54.17.6.73-1.65-.99-2.85-1.9-4.32-3.12v-.24Z"/>
          <path class="cls-19" d="M9.35,28.48h.72s0,.48,0,.48c-.57-.2-.68-.46-.72-.48Z"/>
          <path class="cls-19" d="M117.47,69.49c-.11-.08-.18-.07-.24-.24.09.06.2.14.24.24Z"/>
          <path class="cls-19" d="M10.55,29.2c-.18-.05-.22-.23-.24-.24l.24.24Z"/>
          <path class="cls-21" d="M112.92,27.52l-.47-.36.24-.12c.08.16.17.32.24.48Z"/>
          <path class="cls-24" d="M64.25,6.17c-.13.54.21.57.66.65,1.16.23,2.62.16,3.94.38,4.87.82,12.06,3.94,14.92,8.1.59.85,2.91,5.21,2.42,5.98-.44.69-1.73-.56-2.28-.85-13.1-6.78-23.2,2.16-33.06,9.86-4.54,3.55-8.67,7.6-13.1,11.12-.73.58-5.61,4.07-6.11,3.6.84-2.25,1.95-4.45,2.75-6.72.08-.22.73-1.97.01-1.67l-8.4,8.88c-.89-.54-1.53-.6-1.26-1.75.64-2.76,3.35-7.98,4.88-10.47,2.39-3.89,5.92-8.49,8.98-11.89,1.92-2.14,4.36-3.97,6.23-6,.24-.26.56-.42.47-.84-.2-.2-1.84,1.12-2.13,1.34-7.93,6.04-14.2,15.27-19.07,23.85l-7.45,3.82c-.52.15-.37-.36-.33-.7l2.7-1.01c2.63-2.09,4.13-5.18,6.05-7.86.33-.46,3.66-4.18,3.21-4.58l-5.6-.51c-3.22-.52-10.23-2.84-13.02-4.48-.33-.19-.64-.29-.55-.77,10.15-.91,19.81-5.25,28.93-9.56,7.93-3.74,14-7.53,22.81-9.56,8.15-1.88,23.56-3.57,30.57,1.65,3.9,2.9,7.69,9.34,8.55,14.11-.64.12-.42-.14-.59-.48-.3-.61-1.32-4.25-2.29-3.6-.4,1.94-1,3.71-2.39,5.16-1.03.58-.44-1.61-.47-2.17-.16-2.81-1.18-5.94-2.79-8.25-.46-.66-2.79-3.35-3.38-3.57-.32-.12-.94-.21-.79.31.74,1,1.41,1.74,1.86,2.94.71,1.89,1.02,5.79.71,7.79-.08.53-.18,1.47-.89,1.38-2.01-6.68-9.57-10.66-15.88-12.54-.88-.26-3.69-1.13-4.38-1.13h-4.44Z"/>
          <path class="cls-24" d="M80.79,44.31c.48-3.09,1.73-8.02,2.88-10.91.32-.81,1.14-1.27,1.2-2.16.03-.37.03-.42-.36-.36l-14.4,10.3-.11.48.96.36c-3.31,2.44-7.32,4.64-11.02,6.49-1.12.56-7.24,3.5-7.93,3.38-.45-.08-.86-.54-1.33-.62-1.22-.21-3.98,1-5.37,1.32-.89.21-6.94,1.56-7.2,1.31l.23-.85c1.42-1.52,3.78-3.24,5.05-4.79.22-.27.58-.39.48-.84-1.04-.13-1.61.71-2.39,1.09-.94.46-5.65,2.88-6.18,2.96-.87.13-1.33-1.59-2.43-1.67l.2-.82c8.13-7.93,15.77-16.61,25.45-22.76,8.12-5.16,21.95-7.48,26.93,3,1.39,2.93-.71,6.36.63,9.33,2.88-1.11,1.51-6.21,1.3-8.64.95-.82,2.18-.44,3.25-.11l4.32,2.99c-.43-1.73-1.31-3.08-2.4-4.43-.1-.57,1.84-.8,2.29-.84,6.22-.44,8.94,4.38,10.67,9.59-.83-.04-.71-1.14-1.31-1.68-1.23-1.11-1.97.15-2.94.42-.78.22-3.36.22-3.62,1.19-.17.62,1.12,4.08,1.34,5.05.38,1.69.52,3.92.98,5.49.14.48.76,1.32.76,1.4v5.28c0,.8,1.75-.22,2.1-.29.58-.13,2.26-.18,2.58-.54.84-1.98.75-4.23,1.14-6.31.08-.4.13-.77.66-.65-.2,6.87-3.72,18.18-7.81,23.73-.27.36-.72.9-1.18.98-.61.15-.38-.92-.33-1.29.72-6.08,2.52-11.67,2.14-18.03-.03-.42-.29-4.38-1.21-3.71-1.04,2.58-1.01,5.44-1.55,8.16-1.1,5.49-4.78,18.72-7.84,23.1-1.13,1.62-1.11.83-2.47.86-.77.02-1.47.63-2.28.49-.36-.37,1.01-4.37,1.17-5.19.88-4.61,1.14-10.84,1.24-15.55.06-3.01,0-6.01-.25-9.01l-1.92.66-1.8,15.41c-.57.1-.76-1.09-.9-1.5-1.56-4.57-2.12-9.53-2.1-14.33.73-.13.46.37.48.83.06,1.4-.2,2.86.25,4.2l1.52-.22.87.94.77-5.59c1.8-1.42.94-2.37.9-4.12-.06-2.31-.04-4.67,0-6.98.01-.81.46-1.5.03-2.16-.48-.74-1.47-.86-2.05-.1-.52.69-1.28,4.35-1.53,5.44-.1.43.23.94-.51.8ZM90.94,54.76c.98.43,1.5.16,2.16.37.38.13.4.75.79.89.43.15,2.33.14,2.6-.2,1-1.78.35-3.78.62-5.62.13-.9.83-1.52.86-2.37.06-1.52-1.11-8.67-1.79-9.93-.75-1.41-3.95-.87-3.65.89-.74.13-.58-.92-1.37-1.15-1.32-.39-3.2-.15-3.56,1.37s-1.07,6.34-1.08,7.81c-.03,2.41,1.11,5.15,1.02,7.64l.33.4c.44-.07.76-.43,1.21-.48.09,0,1.55,0,1.63,0,.2.03.16.34.23.37Z"/>
          <path class="cls-24" d="M104.53,24.64c.8.25,1.34.4,2.16.72-.07.41.51.62.84.85.45.32,1.03.86,1.56.83.03.06.18.14.24.24.76,1.28.72.91,1.68,1.68.1.08.16.1.24.24,3.92,7.35,5.62,11.48,6.95,19.91l1.44,16.79-1.42-.03c-.54-2.79-.73-5.66-.98-8.49-.28-3.23-.06-6.49-1.08-9.72-.35-1.11-1.07-1.61-2.26-1.41-.57,1.15-.01,2.24-.01,3.23,0,.56-.78,2.36.23,2.27-.04.79.04,1.6,0,2.4-.72-.13-.46.37-.48.83-.13,3.68-.37,7.38-1.34,10.94-1.8-.23-3.43.19-5.14.47l1.21-10.21c.2-.42-.25-.78-.25-.82,0-.32.02-.64,0-.96h.48c.24-.48-.23-1.32-.24-1.44-.13-2.07.15-4.29,0-6.35-.43-5.74-3.22-17.16-8.41-20.37-.67-.41-3.52-1.27-1.77-1.8,2.09-.64,4.25,1.12,6.34.23Z"/>
          <path class="cls-23" d="M114.12,54.14c-.29,6.43-.78,11.76-2.81,17.93-3.15,9.57-9.86,13.68-8.19,25.1.16,1.1.79,2.11.69,3.26l-1.3-1.21c-.86-2.11-4.63-6.49-3.46-8.71.48-.91,1.91-2.08,2.44-2.86,1.82-2.64,1.82-9.85,2.38-13.19.5-2.96,2.05-6.46,2.71-9.52s.76-6.46,1.55-9.6c0,.04.45.41.25.82l-1.21,10.21c1.71-.28,3.33-.7,5.14-.47.97-3.56,1.21-7.26,1.34-10.94.02-.46-.24-.96.48-.83Z"/>
          <path class="cls-24" d="M80.55,37.11c.41.43-2.41,3.88-2.88,4.43-5.29,6.12-13.66,11.8-21.47,14.02-4.24,1.21-8.68,1.53-13.05,1.93l.59-.73c11.37-3.99,22-9.79,32-16.44.53-.36,4.51-3.54,4.81-3.22Z"/>
          <path class="cls-24" d="M107.16,46.47c-.53-.12-.58.25-.66.65-.39,2.07-.3,4.33-1.14,6.31-.31.36-1.99.41-2.58.54-.35.08-2.1,1.09-2.1.29v-5.28c0-.08-.62-.92-.76-1.4-.46-1.57-.6-3.8-.98-5.49-.22-.97-1.51-4.43-1.34-5.05.27-.97,2.85-.97,3.62-1.19.97-.28,1.71-1.54,2.94-.42.61.55.48,1.64,1.31,1.68.98,2.96,1.77,6.2,1.68,9.36Z"/>
          <path class="cls-24" d="M80.79,44.31c.74.14.41-.36.51-.8.25-1.09,1.01-4.75,1.53-5.44.58-.76,1.58-.63,2.05.1.43.66-.02,1.35-.03,2.16-.04,2.31-.05,4.67,0,6.98.04,1.75.9,2.69-.9,4.12l-.77,5.59-.87-.94-1.52.22c-.44-1.35-.19-2.8-.25-4.2-.02-.46.25-.96-.48-.83,0-.78-.06-1.63,0-2.4h.48c.1-.26-.23-.45-.24-.48-.1-.89.32-3.07.48-4.08Z"/>
          <path class="cls-23" d="M114.12,51.74c-1.01.09-.23-1.71-.23-2.27,0-.98-.56-2.08.01-3.23,1.19-.2,1.91.3,2.26,1.41,1.02,3.22.79,6.49,1.08,9.72.25,2.83.44,5.71.98,8.49l1.42.03-1.44-16.79c1.24,7.82,1.62,15.82,3.6,23.51-.42.07-.53.01-.83-.25-5.02-4.34-3.78-12.87-4.45-18.82-.09-.83-.96-5.75-1.56-5.88-.27-.06-.49.16-.56.4-.16.53-.24,2.92-.28,3.68Z"/>
          <path class="cls-23" d="M18.7,62.3c.02-.06.56-1.08.84-.96.47.22.63,1.39.9,1.62.24.19.86.13,1.15.41.43.42-.11,1.25.71,1.09,0,.55.04,1.13,0,1.68,0,.06-.47.75-.24,1.2h.48c0,.16.01.32,0,.48,0,.06-.39.37-.24.72h.48c.02.31.02.65,0,.96,0,.07-.39.38-.24.72h.48c.02.15-.02.33,0,.48l-.24.48h.48c.24,1.38,1.95,8.84,2.4,9.6h-.48c-2.47-3.92-3.68-7.53-5.03-11.99l.24-.48h-.48c-.1-.35-.14-.81-.24-1.2l.24-.48h-.48c-.03-.15.03-.34,0-.48l.24-.48h-.48c0-.15-.02-.33,0-.48.01-.08.39-.37.24-.72h-.48c0-.16-.02-.32,0-.48,0-.06.47-.76.24-1.2h-.48c.01-.15-.03-.35,0-.48Z"/>
          <path class="cls-16" d="M60.41,3.53v.24c-9.34,2.22-18.01,7.72-26.85,11.51v-.24c8.92-3.76,16.99-10.06,26.85-11.51Z"/>
          <path class="cls-13" d="M22.29,64.46c-.82.16-.28-.67-.71-1.09-.29-.29-.91-.22-1.15-.41-.27-.22-.43-1.4-.9-1.62-.27-.13-.82.9-.84.96-.96-2.08.98-2.44,2.59-2.58s.72.89.76,1.74c.05.99.25,1.88.24,3Z"/>
          <path class="cls-25" d="M23.73,80.77c-.39-.15-.56-.45-.77-.79-2.27-3.82-3.81-8.84-4.99-13.12h.24c.57.44,2.65,7.43,3.24,8.87.7,1.71,1.58,3.31,2.27,5.04Z"/>
          <path class="cls-8" d="M59.21,3.05c.17-.59.65-.41,1.07-.49,2.05-.35,4.16-.58,6.24-.71.64-.04,1.85-.35,1.56.72-2.43.41-5.31.64-7.67,1.2v-.24l3.12-.96c-1.45,0-2.88.29-4.31.48Z"/>
          <path class="cls-19" d="M111.48,75.25l2.64-11.76.74.14c.3.43.17.96.22,1.3-.18-.25-.29-.81-.54-.18-1.3,3.4-1.16,6.74-3.06,10.49Z"/>
          <path class="cls-11" d="M17.26,60.62l.72,5.76-.72-1.92c.17.84-.11,1.49-.24,2.16l-.48-4.08c.07-.6-.1-1.36,0-1.92h.72Z"/>
          <path class="cls-19" d="M110.52,77.41c-.35,1.25-.97,3.42-.97,4.67,0,.6-.14.78.49.36l-.48,1.44c-.32.07-.59-.09-.68-.4s.46-3.83.62-4.35c.19-.6.45-1.39,1.03-1.73Z"/>
          <path class="cls-12" d="M109.08,26.32c-.08-.02-.17.02-.24,0-.94-.28-1.3-.62-2.16-.96-.82-.32-1.35-.47-2.16-.72s-1.6-.46-2.4-.72v-.24c2.47-.02,5.15.92,6.95,2.64Z"/>
          <path class="cls-5" d="M17.5,57.26c.02.26-.08.83.03.94l.69.02-.96,2.4h-.72c.04-.21.45-.5.5-1.09.06-.72-.73-.3-.26-2.27h.72Z"/>
          <path class="cls-21" d="M101.89,21.28c.74-.17,1.95.09,2.69.31.4.12.78.06.66.65-1.13-.29-2.1-.83-3.38-.37-.23.61-.22,1.34.26,1.81v.24c-.15-.05-.47.1-.66-.04-.46-.34-.54-2.37.42-2.6Z"/>
          <path class="cls-11" d="M35,13.12l-2.64,2.04c.14.18,1.05-.06,1.2-.12v.24c-1.02.44-1.97,1.26-3.12,1.2.11-1.09,1.35-1.28,1.99-1.74,1.07-.77,1.32-1.16,2.57-1.62Z"/>
          <path class="cls-1" d="M24.45,82.45l1.55,1.94c.21.3.09.64.13.94-.89-.09-1.2-1-1.68-1.56-.4-.46-.51-.42-.95-1.08h.24c.44.42.71.91,1.2,1.2-.08-.48-.31-.96-.48-1.44Z"/>
          <path class="cls-13" d="M25.65,80.77c.04.07.98.02.36,1.2-.7.02-.64-.89-.84-1.2h.48Z"/>
          <path class="cls-6" d="M16.78,57.26c.1-.43-.18-1.17.6-1.2.24,0,.1.93.12,1.2h-.72Z"/>
          <path class="cls-23" d="M108.36,52.94c0,.12.48.95.24,1.44h-.48c-.03-.49-.11-1.04.24-1.44Z"/>
          <path class="cls-13" d="M22.53,67.34h-.48c-.24-.45.23-1.14.24-1.2.32.35.27.77.24,1.2Z"/>
          <path class="cls-13" d="M18.7,62.78h.48c.24.44-.23,1.14-.24,1.2-.32-.35-.27-.78-.24-1.2Z"/>
          <rect class="cls-12" x="114.72" y="66.25" width="1.92" height=".24" transform="translate(49.25 182.02) rotate(-89.97)"/>
          <path class="cls-13" d="M22.77,68.53h-.48c-.16-.35.23-.66.24-.72.31.12.23.46.24.72Z"/>
          <path class="cls-13" d="M18.94,64.46h.48c.16.35-.23.64-.24.72-.3-.11-.25-.46-.24-.72Z"/>
          <path class="cls-13" d="M23.01,70.21h-.48c-.15-.34.23-.65.24-.72.33.12.2.47.24.72Z"/>
          <path class="cls-13" d="M23.25,71.17h-.48s.24-.48.24-.48c0,.03.17.08.24.48Z"/>
          <path class="cls-24" d="M80.31,48.39s.34.22.24.48h-.48c.02-.2,0-.41.24-.48Z"/>
          <path class="cls-13" d="M19.18,65.66h.48s-.24.48-.24.48c0-.03-.23-.06-.24-.48Z"/>
          <path class="cls-13" d="M19.42,66.62h.48s-.24.48-.24.48c0-.03-.16-.11-.24-.48Z"/>
          <path class="cls-13" d="M19.9,68.29h.48s-.24.48-.24.48c0-.03-.15-.18-.24-.48Z"/>
          <path class="cls-17" d="M5.03,22.24c.02.28-.22.27-.48.24v-.24s.48,0,.48,0Z"/>
          <path class="cls-25" d="M84.51,73.33c.16.08.16.16,0,.24v-.24Z"/>
          <path class="cls-11" d="M18.22,66.86h-.24c-.02-.07.02-.17,0-.24.09.07.15.17.24.24Z"/>
          <path class="cls-16" d="M17.62,49.82c.16.08.16.16,0,.24v-.24Z"/>
          <path class="cls-19" d="M110.04,82.21c.03-.06.17-.17.24-.24-.03.08-.18.16-.24.24Z"/>
          <path class="cls-17" d="M5.39,22.48c.16.08.16.16,0,.24v-.24Z"/>
          <path class="cls-20" d="M58.97,3.05c-2,.49-3.99,1.23-5.99,1.68v-.24c1.05-.88,4.61-1.24,5.99-1.44Z"/>
          <rect class="cls-7" x="69.28" y=".17" width="3.36" height=".24"/>
          <path class="cls-11" d="M52.5,4.73c-.41.49-1.1.58-1.68.72-.18-.77,1.09-.6,1.68-.72Z"/>
          <rect class="cls-7" x="65.21" y="-1.03" width=".24" height="2.63" transform="translate(65.02 65.62) rotate(-89.98)"/>
          <path class="cls-11" d="M44.83,7.85c-.37.46-.9.59-1.44.72-.15-.86.97-.58,1.44-.72Z"/>
          <path class="cls-11" d="M41.23,9.53c-.28.54-.93.71-1.44.96.19-1.01.77-.75,1.44-.96Z"/>
          <path class="cls-11" d="M49.86,5.69c-.23.36-.58.42-.96.48v-.48c.3-.05.68.06.96,0Z"/>
          <path class="cls-11" d="M48.67,6.17c-.22.41-.61.36-.96.48v-.48c.31-.04.66.04.96,0Z"/>
          <path class="cls-11" d="M42.19,9.05c-.1.35-.37.48-.72.48.05-.08-.04-.34,0-.48h.72Z"/>
          <path class="cls-11" d="M43.15,8.57c-.1.35-.37.48-.72.48-.12-.75.22-.39.72-.48Z"/>
          <path class="cls-11" d="M38.12,11.2c-.18.4-.58.58-.96.72.2-.99.5-.57.96-.72Z"/>
          <path class="cls-11" d="M36.92,11.92c-.18.44-.59.53-.96.72.2-.98.48-.57.96-.72Z"/>
          <path class="cls-11" d="M46.99,6.89c-.4.27-.99.57-1.44.72.27-.72.95-.56,1.44-.72Z"/>
          <path class="cls-11" d="M50.58,5.45l-.48.24s.14-.15.48-.24Z"/>
          <path class="cls-11" d="M35.24,13.12c.09-.25.25-.37.48-.48-.09.22-.24.42-.48.48Z"/>
          <path class="cls-11" d="M38.36,11.2s.11-.18.24-.24l-.24.24Z"/>
          <path class="cls-11" d="M38.84,10.96s.11-.18.24-.24l-.24.24Z"/>
          <path class="cls-11" d="M39.32,10.72s.11-.17.24-.24l-.24.24Z"/>
          <path class="cls-11" d="M45.07,7.85s.11-.2.24-.24l-.24.24Z"/>
          <path class="cls-11" d="M47.23,6.89s.08-.19.24-.24l-.24.24Z"/>
          <path class="cls-11" d="M52.98,4.73c-.08.02-.16-.02-.24,0,.07-.09.15-.17.24-.24v.24Z"/>
          <path class="cls-1" d="M19.18,74.53c-.64.14-.47-.32-.6-.71-.62-1.84-1.5-4.47-1.32-6.25l1.92,6.96Z"/>
          <path class="cls-1" d="M21.09,78.61c-1.19-.23-.96-1.39-1.2-2.16.5.6.88,1.44,1.2,2.16Z"/>
          <path class="cls-1" d="M19.66,75.73h-.48c-.04-.31.04-.66,0-.96.41.22.36.61.48.96Z"/>
          <path class="cls-1" d="M22.05,80.29c-.99-.2-.57-.5-.72-.96.43.18.54.59.72.96Z"/>
          <path class="cls-1" d="M23.25,82.21c-.57-.55-.75-.73-1.2-1.68.65.37.88,1.15,1.2,1.68Z"/>
          <rect class="cls-5" x="16.3" y="70.21" width=".23" height=".96"/>
          <path class="cls-5" d="M23.73,82.69h-.24c-.13-.19-.16-.35-.24-.48.17.16.32.33.48.48Z"/>
          <polygon class="cls-5" points="17.26 67.34 16.8 66.98 17.02 66.86 17.26 67.34"/>
          <path class="cls-1" d="M19.9,76.21s-.2-.08-.24-.24l.24.24Z"/>
          <path class="cls-1" d="M21.33,79.09s-.18-.11-.24-.24l.24.24Z"/>
          <path class="cls-21" d="M109.56,25.84s.28-.06.41.06c.06.05.86,1.29.91,1.41.22.51-.13.64-.13.69l-1.44-.72c-.06-.1-.21-.18-.24-.24-.12-.23-.22-.46-.24-.72.07.02.16-.02.24,0,.17.03.37.37.72.24l-.24-.72Z"/>
          <path class="cls-18" d="M110.76,28c0,.3.19.65.24.96-.96-.77-.92-.4-1.68-1.68l1.44.72Z"/>
          <path class="cls-21" d="M105.49,22.24c1.21.22.44.17.72.48-.35,0-.62-.14-.72-.48Z"/>
          <path class="cls-24" d="M90.94,54.76c-.07-.03-.04-.34-.23-.37-.08-.01-1.54-.02-1.63,0-.45.05-.77.41-1.21.48l-.33-.4c.1-2.49-1.04-5.23-1.02-7.64.02-1.48.73-6.32,1.08-7.81s2.25-1.76,3.56-1.37c.79.23.63,1.28,1.37,1.15-.3-1.76,2.89-2.3,3.65-.89.67,1.26,1.84,8.41,1.79,9.93-.03.86-.73,1.47-.86,2.37-.26,1.84.38,3.84-.62,5.62-.28.34-2.17.35-2.6.2-.39-.13-.41-.76-.79-.89-.65-.22-1.18.05-2.16-.37ZM92.06,52.94h-3.36c-.21,1.34.65.45,1.33.5.5.03,1.68,1.07,2.02-.5Z"/>
          <path class="cls-18" d="M108.84,26.32c.02.26.12.49.24.72-.53.04-1.12-.51-1.56-.83-.32-.23-.9-.44-.84-.85.86.34,1.22.68,2.16.96Z"/>
          <path class="cls-24" d="M92.06,52.94c-.34,1.57-1.53.53-2.02.5-.69-.05-1.54.84-1.33-.5h3.36Z"/>
        </g>
      </g>
    </g>
  </g>
</svg>