<?xml version="1.0" encoding="UTF-8"?>
<svg id="Layer_2" data-name="Layer 2" xmlns="http://www.w3.org/2000/svg" viewBox="0 0 123.04 165.92">
  <defs>
    <style>
      .cls-1 {
        fill: #fff;
      }
    </style>
  </defs>
  <g id="Layer_1-2" data-name="Layer 1">
    <g>
      <g>
        <polygon points="7.25 128.79 7.14 129.51 6.29 129.75 6.41 129.02 7.25 128.79"/>
        <path class="cls-1" d="M93.32,101.92l-3.62,14.61-22.64-.45c-.49.02-.95-.23-1.43-.25-9.73-.47-19.8-.89-29.49-1.92-3.43-.37-6.47-1.51-9.44-3.27-2.11-1.25-3.7-3.09-5.92-4.16l-.34-7.92,35.12,2.64,16.29.73h21.47Z"/>
        <path class="cls-1" d="M90.45,159.49c-.28,1.73.56,3.5.48,5.16-.02.37.08.41-.36.36-3.73-.45-7.51-.52-11.24-.99-7.96-1-16.16-2.57-23.89-4.64l-5.5-2.05,19.06,1.44,21.46.72Z"/>
        <path class="cls-1" d="M76.54,72.42l-2.52.48c-8.66.23-17.33.3-26.01.24v-1.44s28.53.72,28.53.72Z"/>
        <path class="cls-1" d="M39.86,79.86c.07.69-.81,1.2-.85,1.79-.05.65.49,1.57.37,2.29l-1.08-1.2-1.08,1.2c.53-1.81.22-2.91-.96-4.32l1.41-.03.5-2.37.1,2.16,1.58.48Z"/>
        <path class="cls-1" d="M44.2,90.38c.2.16,1.14-.19,1.41.38-1.33,1.36-.76,2.32-.48,3.96l-1.31-1.2-.84,1.2c.17-1.89.43-2.82-.96-4.31h1.44s.36-1.92.36-1.92l.38,1.89Z"/>
        <path class="cls-1" d="M35.3,89.93c.21.73-.81,1.33-.9,1.83-.09.55.59,1.56.41,2.24l-.72-.96-1.19.72c.15-1.56-.03-2.59-.96-3.84l1.18-.03.27-2.37.59,2.16,1.33.24Z"/>
        <path class="cls-1" d="M23.79,87.53l.26,1.66,1.42.03c-1.04,1.47-1.03,2.33-.72,4.07l-1.19-1.2-.72,1.2c.24-1.84.23-2.71-.96-4.2l1.21.02c.58-.42-.25-1.79.71-1.58Z"/>
        <path class="cls-1" d="M28.11,113.19c-3-.2-5.49-2.7-7.43-4.79l7.43,4.79Z"/>
        <path class="cls-1" d="M22.84,112.71c-1.26-.41-2.69.06-3.83-.6l1.55-1.5c.45-.04,1.97,1.63,2.28,2.1Z"/>
      </g>
      <g>
        <path d="M108.31,55.39c2.22-.6,4.6-.91,6.89-1.5,1.2-.31,2.57-1,3.73-1.31.26-.07.85-.21,1.01.05-.6.68-1.65,1.04-2.51,1.32-2.24.74-5.84,1.66-8.16,1.91-1.54.17-5.48-.11-6.58.85-.57,1.18-1.31,2.52-1.8,3.71-1.24,2.98-2.42,5.54-3.76,8.47-.34.75-.83,3.03-1.56,3.24-.4.12-2.04.26-2.58.29-4.05.25-8.71-.51-12.64.3s-8.19,1.43-12.29,1.62c-6.59.3-13.42-.24-20.03-.01l.24,3.36c.14.15,2.33-.42,2.78-.46,11.43-.93,23.11-.48,34.5-1.22.75-.05,1.52.03,2.28,0,.09.53-.22.57-.61.71-.76.26-2.68.41-3.58.49-10.26.9-20.99.76-31.41,1.44-1.31.09-2.65-.06-3.96,0,.28,2.09.05,4.28.24,6.36.02.27.12,1.02.4,1.09l25.84.96c6.36-.34,13.12.41,19.44,0,.29-.02,1.5-.15,1.56-.4.12-4.08-1.25-8.64-.73-12.69.04-.35.11-.66.48-.36.34,1.47.71,2.97.94,4.46.44,2.93.99,8.35.39,11.14-.19.89-.98,2.37-1.04,3.05-.62,7.01-2.54,14.26-4.24,21.18-1.26,5.13-2.58,10.21-4.22,15.23.55,2.81,1.66,5.49,2.3,8.27,1,4.3,1.77,9.63,2.03,14.04.16,2.62-.65,5.23-.63,7.63.02,1.95.84,4.26.87,6.27-.72,1.78-1.87.78-3.02.63-7.98-1.04-15.93-1.44-23.89-2.96-16.89-3.23-40.14-13.49-53.97-23.72-1.6-1.18-5.72-4.4-6.34-6.13-.12-.33-.07-.76.31-.55.16.09,1.92,2.2,2.39,2.64,1.84,1.69,3.9,3.16,5.9,4.65,24.19,2.87,48.62,5.09,72.97,5.91,1.19.04,2.4-.05,3.59,0,.57-.87-.2-1.75-.33-2.53-.33-1.96-.55-3.98-1.03-5.93s-1.18-3.83-1.78-5.7l-13.64-.22c-.49.03-.95-.23-1.43-.25-21.05-.97-42.06-3.18-63.06-5.18-.76.09-3.6,4.69-4.07,5.66l-.6-.12c.87-1.31,1.66-3.19,2.53-4.42,1.15-1.62,3.12-3.29,4.14-5.21.41-.77.54-1.65.76-2.48l.47.54.48.17c-.01-.3.05-.59.23-.84,1.13-1.56,3.12-4.01,4.44-5.4,1.17-1.23,2.66-2.14,3.7-3.51l-1.17-1.89.95-.94c-.77-2.54-.51-5.3-.71-7.93-.3-3.94-1.12-8.67-1.17-12.5-.02-1.71.52-3.23.46-5.49-.09-3.33-.37-5.05,0-8.39.33-3-.7-3.76-2.12-6.03-1.66-2.66-3.91-5.36-4.16-8.55-.97-1.19-.88-3.5-2.73-3.76-1.03-.14-1.96.47-3.04.17-.5-.14-4.11-1.82-4.57-2.14-.34-.24-2.07-2.1-2.19-2.36-.51-1.12.19-2.43.33-3.5,1.6-12.18,2.8-26.3,7.04-37.81C9.33,3.99,18.25,2.46,22.53.74l.99.23c.2.3-.28,1.07.39.92l2.85-1.89c1.89,1.37,3.58,3,5.45,4.39,7.35,5.45,15.03,7.79,24.08,8.77,13.37,1.45,30.27-1.13,42.48-6.91,1.64-.78,3.15-2.03,4.81-2.63.43-.16,2.47-.72,2.79-.71,1.25.07,4.86,1.22,6.08,1.81,6.75,3.28,7.44,11.96,8.48,18.62,1.3,8.31,1.76,16.49,1.89,24.98.01.93.61,1.59-.12,2.5-.15.18-1.48,1.04-1.54.97-.06-.72.9-.88.96-1.56.08-.87-.43-3.04-.48-4.07-.07-1.42.23-2.78,0-4.2l-17.5.48c.43,4.33.39,8.69-.48,12.95,1.26-.22,3.57.3,4.68,0ZM26.19,5.25c-.84-.22-.25.78-.7,1.1l-1.46.11c.98,1.45.95,2.19.48,3.84l1.19-.96.72,1.2c.06-.72-.11-1.53.05-2.23.17-.76,1.06-1.02.91-1.85l-.93-.03-.27-1.17ZM16.37,6.44v-.7c-.07-.07-.32.12-.37.24-.23.45-.98,2.94-1.08,3.48-.02.14-.06.4.12.36l.48-.48.72.95c.05-1.61.19-2.52,1.32-3.72l-1.19-.13ZM36.46,7.93l-2.12-.99c-.06.05.62,1.02.65,1.35.07.67-.7,1.35-.05,1.76l.71-.48.84.96-.04-2.6ZM108.43,13.41h-15.22c-.37,0-5.88,2.04-7.02,2.33-6.81,1.77-13.78,2.58-20.79,2.95-2.56.13-5.6.54-8.16.25-1.02-.11-1.14-.81-.23-.97,1.24-.22,3.18.08,4.55,0,7.96-.47,18.55-1.59,26.06-4.15.25-.09.72-.05.67-.4-3.69.23-7.75-.32-11.4-.01-7.8.66-13.33,1.23-21.33.49-1.76-.16-3.51-.79-5.4-.48l-1.44,14.15,6.34.25,44.25-.25c-.08-1.41-.52-2.55-.01-3.97.3-.85,2.78-5.02,3.4-5.71.25-.27.48-.47.81-.63.42-.06.36-.01.36.36,0,1.45-2.73,4.87-3.07,6.52-.14.65-.03,1.33-.05,1.99l.36-.24c.45-1.43,1.07-3.14,1.79-4.45.6-1.09,1.47-2.5,2.66-2.92l2.86-5.11ZM117.98,13.44l-8.26.19-3.51,6.2-.54.21-.84-.39c-.34,1.61-1.49,3.07-2.05,4.55-.17.45-.08.98-.22,1.46-.17.55-.92,1.02-.61,1.91l18.7-.24-2.67-13.88ZM10.37,16.53l-.24-2.16-.51,2.13-1.41.15c1.25,1.3.91,2.35.72,3.96l1.19-.96.72,1.2c.04-.78-.37-1.47-.23-2.26.13-.75,1.1-1.21.95-2.05h-1.2ZM30.03,16.77l-.12-2.4-.63,2.37-1.41.03c1.12,1.53.8,2.34.48,4.07l1.07-.96.84.96c-.24-1.79.18-2.71,1.2-4.08h-1.44ZM40.1,16.77l-.12-2.4-.62,2.38-1.42.02c.06.76.7,1.22.73,2.04s-.42,1.5-.49,2.28l1.31-1.2.84,1.2c-.21-1.86.07-2.89,1.2-4.31h-1.44ZM20.2,14.85c-.88-.14-.36,1.42-.95,1.81l-1.21.23c1.08,1.29.81,2.21.48,3.72l.7-.81.49-.15.72,1.2c.07-.79-.12-1.7.05-2.47.16-.71.88-.92.91-1.61h-1.2s0-1.92,0-1.92ZM5.09,25.16c-.76-.17-.4.72-.72,1.28-.08.15-.43.13-.48.33-.24,1.07.35,2.9-.24,4.15l.72-1.2,1.19.96c.15-.68-.32-1.4-.24-2.02.09-.69.95-1.09.96-1.82l-1.1-.22-.1-1.45ZM24.28,27.07l-.37-1.91-.37,1.91h-1.43c1.05,1.5.9,2.39.48,4.09l1.19-1.2.72,1.2c.08-.72-.11-1.57.01-2.27s.92-1.09.95-1.81h-1.19ZM34.13,27.05c-.2-.31.28-1.45-.51-1.65l-.27,1.65-1.41.38c1.21,1.43.73,2.31.48,3.96l1.08-1.19.84.96c-.15-1.51.05-2.62.96-3.84l-1.17-.27ZM44.17,27.32l-.36-1.92-.37,1.91h-1.43c0,.96,1.15,1.47.71,2.41l1.68.24c-.27-1.16.73-1.74,1.2-2.64h-1.44ZM15.88,26.84l-1.44-.24c.3,1.48-.88,3.14.36,4.32.43-.62-.18-1.59-.02-2.17.1-.37,1.34-1.7,1.1-1.91ZM9.46,36.87l-.52-1.87-.27,1.89-1.41.14c1.19,1.14,1.07,2.48.72,3.96l1.07-.96.84,1.2c.14-.77-.35-1.51-.24-2.26.11-.69.94-1.1.96-1.82l-1.15-.29ZM28.65,37.34l-.41-2.11-.36,2.16h-1.44c-.08.72.9,1.46.93,2.03.03.61-.43,1.63-.45,2.29l1.08-1.19,1.08,1.43c-.45-1.71-.36-2.91.72-4.31l-1.14-.3ZM18.79,37.12l-.15-1.65-.63,1.65-1.41.03c1.23,1.46,1.17,2.54.72,4.31l.72-1.2,1.19.96c-.2-1.73-.23-2.5.96-3.84l-1.41-.27ZM38.43,37.62l-.49-1.91-.27,1.89c-2.72-.16-.69.66-.49,1.88.11.68-.37,1.47-.2,2.22l1.19-.96.72,1.2c-.25-1.9-.4-2.6.96-4.07l-1.43-.25ZM102.41,42.46h-54.39s-.25,14.37-.25,14.37l53.31.21c.44-.15,1.13-3.14,1.24-3.79.24-1.39.72-10.24.08-10.78ZM4.66,46.95l-.52-1.87-.27,1.89c-2.36-.17-.42.79-.26,1.88.08.55-.37,1.34-.19,1.99.46,0,.32-.92.83-.72.45.17.42.91.84.96-.23-1.68-.29-2.42.72-3.83l-1.15-.29ZM23.33,47.7l-.37-2.15-.37,2.15h-1.43c1.02,1.38,1.18,2.43.72,4.09l.84-.96,1.07.96c.23-.67-.3-1.71-.19-2.22.06-.27,1.29-1.74,1.15-1.85h-1.43ZM33.2,47.89l-.41-2.34-.36,2.4h-1.44c0,.81.88,1.28.96,2.06.06.64-.38,1.34-.24,2.02l.7-.81.49-.15.72,1.2c.2-.74-.32-1.6-.24-2.26.06-.51,1.2-1.56.96-1.82l-1.14-.3ZM13.72,45.79c-.88-.22-.31,1.35-.75,1.65l-1.17.15c1.13,1.31.88,2.12.72,3.72l.84-.96,1.08,1.43c-.45-1.71-.36-2.91.72-4.31l-1.33-.23-.11-1.45ZM43.24,48.41l-.38-2.38-.48,1.92-1.32.48c-.24.27.91,1.29.96,1.81.06.66-.45,1.79-.47,2.51l.96-1.44,1.19,1.2c-.26-1.82-.31-2.65.96-4.08l-1.41-.03ZM19.72,58.03l-1.22-.34-.22-1.58c-.77.13-.36,1.56-.48,1.68h-1.44c1.05,1.5,1.12,2.53.72,4.32l.72-1.2,1.19.96c-.32-1.68-.25-2.42.72-3.84ZM28.13,58.24l-.38-2.14-.36,2.16h-1.44c1.08,1.41,1.17,2.61.72,4.32l.84-1.2,1.31,1.2c-.07-.68-.43-1.63-.36-2.29.07-.74.97-1.24.84-2.03l-1.17-.03ZM39.38,58.75l-1.33-.23-.47-1.93-.38,2.14-1.17.03c-.06.71.82,1.25.92,1.85.09.56-.42,1.53-.2,2.23l1.07-.96.84.96c.13-.76-.35-1.51-.24-2.26.11-.69.95-1.1.96-1.82ZM23.33,68.57l-.25-2.39-.49,2.15-1.43.13c1.24,1.4,1.23,2.16.96,3.96l.84-.96,1.08,1.19c-.37-1.69-.36-2.68.72-4.08h-1.43ZM33.16,69.05l-.37-2.15-.36,2.16h-1.44c1.3,1.42,1.14,2.26.96,4.08l1.07-.96.84.96c.04-.78-.37-1.47-.23-2.26.12-.7.93-1.1.95-1.81h-1.43ZM43.23,69.29l-.37-2.39-.36,2.4h-1.44c1,1.45,1.32,2.03.96,3.84l1.08-.72.84.72c-.32-1.49-.34-2.3.72-3.48l-1.42-.37ZM76.54,72.42l-28.53-.72v1.44c8.68.05,17.36,0,26.01-.24l2.52-.48ZM28.62,79.1l-.75-2.13-.11,1.93-1.33.34c1.04,1.12,1.06,2.25.96,3.72l.84-.96,1.08,1.2c.08-.65-.51-1.68-.41-2.25.05-.27,1.27-1.72,1.13-1.83l-1.41-.03ZM39.86,79.86l-1.58-.48-.1-2.16-.5,2.37-1.41.03c1.18,1.41,1.49,2.5.96,4.32l1.08-1.2,1.08,1.2c.11-.72-.42-1.64-.37-2.29.04-.59.93-1.1.85-1.79ZM23.79,87.53c-.96-.21-.13,1.16-.71,1.58l-1.21-.02c1.19,1.49,1.2,2.35.96,4.2l.72-1.2,1.19,1.2c-.31-1.74-.32-2.6.72-4.07l-1.42-.03-.26-1.66ZM35.3,89.93l-1.33-.24-.59-2.16-.27,2.37-1.18.03c.93,1.24,1.12,2.28.96,3.84l1.19-.72.72.96c.18-.68-.5-1.69-.41-2.24.08-.51,1.11-1.1.9-1.83ZM44.2,90.38l-.38-1.89-.36,1.92h-1.44c1.39,1.49,1.13,2.43.96,4.32l.84-1.2,1.31,1.2c-.28-1.64-.85-2.6.48-3.96-.26-.57-1.2-.22-1.41-.38ZM93.32,101.92h-21.47s-16.29-.72-16.29-.72l-35.12-2.64.34,7.92c2.22,1.07,3.82,2.91,5.92,4.16,2.97,1.76,6.01,2.9,9.44,3.27,9.69,1.04,19.76,1.45,29.49,1.92.48.02.94.27,1.43.25l22.64.45,3.62-14.61ZM28.11,113.19l-7.43-4.79c1.94,2.09,4.44,4.59,7.43,4.79ZM22.84,112.71c-.31-.47-1.83-2.14-2.28-2.1l-1.55,1.5c1.15.65,2.58.18,3.83.6ZM90.45,159.49l-21.46-.72-19.06-1.44,5.5,2.05c7.74,2.07,15.93,3.64,23.89,4.64,3.73.47,7.5.54,11.24.99.45.04.35,0,.36-.36.08-1.66-.77-3.43-.48-5.16Z"/>
        <path class="cls-1" d="M102.41,42.46c.63.55.16,9.39-.08,10.78-.11.66-.8,3.64-1.24,3.79l-53.31-.21.25-14.38h54.39Z"/>
        <path class="cls-1" d="M108.43,13.41l-2.86,5.11c-1.18.42-2.06,1.84-2.66,2.92-.72,1.3-1.34,3.02-1.79,4.45l-.36.24c.02-.66-.08-1.33.05-1.99.34-1.65,3.08-5.08,3.07-6.52,0-.37.06-.42-.36-.36-.33.16-.56.36-.81.63-.62.69-3.1,4.86-3.4,5.71-.5,1.42-.06,2.56.01,3.97l-44.25.25-6.34-.25,1.44-14.15c1.89-.31,3.64.32,5.4.48,8,.74,13.52.17,21.33-.49,3.64-.31,7.71.24,11.4.01.06.35-.42.32-.67.4-7.51,2.56-18.1,3.68-26.06,4.15-1.38.08-3.32-.22-4.55,0-.92.16-.79.86.23.97,2.57.29,5.61-.12,8.16-.25,7.01-.37,13.98-1.18,20.79-2.95,1.14-.3,6.65-2.33,7.02-2.33h15.22Z"/>
        <path class="cls-1" d="M117.98,13.44l2.67,13.88-18.7.24c-.31-.88.45-1.35.61-1.91.14-.48.05-1.01.22-1.46.56-1.48,1.71-2.94,2.05-4.55l.84.39.54-.21,3.51-6.2,8.26-.19Z"/>
        <path class="cls-1" d="M40.1,16.77h1.44c-1.13,1.43-1.41,2.46-1.2,4.32l-.84-1.2-1.31,1.2c.07-.77.53-1.48.49-2.28s-.67-1.28-.73-2.04l1.42-.02.62-2.38.12,2.4Z"/>
        <path class="cls-1" d="M43.24,48.41l1.41.03c-1.27,1.42-1.23,2.26-.96,4.08l-1.19-1.2-.96,1.44c.02-.72.53-1.85.47-2.51-.05-.52-1.2-1.54-.96-1.81l1.32-.48.48-1.92.38,2.38Z"/>
        <path class="cls-1" d="M43.23,69.29l1.42.37c-1.05,1.18-1.03,1.99-.72,3.48l-.84-.72-1.08.72c.36-1.81.04-2.39-.96-3.83h1.44s.36-2.4.36-2.4l.37,2.39Z"/>
        <path class="cls-1" d="M38.43,37.62l1.43.25c-1.36,1.47-1.21,2.17-.96,4.07l-.72-1.2-1.19.96c-.18-.74.31-1.54.2-2.22-.19-1.22-2.23-2.04.49-1.88l.27-1.89.49,1.91Z"/>
        <path class="cls-1" d="M33.2,47.89l1.14.3c.23.25-.9,1.3-.96,1.82-.08.66.44,1.52.24,2.26l-.72-1.2-.49.15-.7.81c-.14-.68.3-1.38.24-2.02-.08-.78-.96-1.25-.96-2.06h1.44s.36-2.4.36-2.4l.41,2.34Z"/>
        <path class="cls-1" d="M28.13,58.24l1.17.03c.12.79-.77,1.29-.84,2.03-.06.66.29,1.61.36,2.29l-1.31-1.2-.84,1.2c.45-1.71.36-2.91-.72-4.31h1.44s.36-2.16.36-2.16l.38,2.14Z"/>
        <path class="cls-1" d="M30.03,16.77h1.44c-1.02,1.37-1.45,2.29-1.2,4.08l-.84-.96-1.07.96c.32-1.73.64-2.54-.48-4.07l1.41-.03.63-2.37.12,2.4Z"/>
        <path class="cls-1" d="M28.65,37.34l1.14.3c-1.08,1.4-1.17,2.61-.72,4.31l-1.08-1.43-1.08,1.19c.02-.67.49-1.68.45-2.29-.03-.57-1.01-1.31-.93-2.02h1.44s.36-2.16.36-2.16l.41,2.11Z"/>
        <path class="cls-1" d="M39.38,58.75c-.01.71-.85,1.13-.96,1.82-.12.75.37,1.5.24,2.26l-.84-.96-1.07.96c-.22-.7.28-1.66.2-2.23-.09-.6-.98-1.14-.92-1.85l1.17-.03.38-2.14.47,1.93,1.33.23Z"/>
        <path class="cls-1" d="M34.13,27.05l1.17.27c-.91,1.21-1.11,2.33-.96,3.84l-.84-.96-1.08,1.19c.25-1.65.74-2.53-.48-3.96l1.41-.38.27-1.65c.79.2.31,1.34.51,1.65Z"/>
        <path class="cls-1" d="M33.16,69.05h1.43c-.02.73-.83,1.12-.95,1.83-.13.8.27,1.49.23,2.26l-.84-.96-1.07.96c.18-1.81.34-2.65-.96-4.07h1.44s.36-2.16.36-2.16l.37,2.15Z"/>
        <path class="cls-1" d="M23.33,47.7h1.43c.13.12-1.1,1.59-1.15,1.87-.11.52.42,1.55.19,2.22l-1.07-.96-.84.96c.46-1.66.3-2.71-.72-4.08h1.43s.37-2.16.37-2.16l.37,2.15Z"/>
        <path class="cls-1" d="M23.33,68.57h1.43c-1.08,1.41-1.09,2.4-.72,4.09l-1.08-1.19-.84.96c.27-1.8.28-2.56-.96-3.96l1.43-.13.49-2.15.25,2.39Z"/>
        <path class="cls-1" d="M28.62,79.1l1.41.03c.13.11-1.09,1.56-1.13,1.83-.1.57.49,1.59.41,2.25l-1.08-1.2-.84.96c.1-1.47.08-2.6-.96-3.72l1.33-.34.11-1.93.75,2.13Z"/>
        <path class="cls-1" d="M10.37,16.53h1.2c.14.84-.83,1.31-.95,2.05-.14.79.27,1.49.23,2.26l-.72-1.2-1.19.96c.19-1.61.53-2.66-.72-3.96l1.41-.15.51-2.13.24,2.16Z"/>
        <path class="cls-1" d="M20.2,14.85v1.92s1.2,0,1.2,0c-.02.69-.75.9-.91,1.61-.17.77.02,1.68-.05,2.47l-.72-1.2-.49.15-.7.81c.33-1.51.6-2.43-.48-3.72l1.21-.23c.59-.39.06-1.95.95-1.81Z"/>
        <path class="cls-1" d="M18.79,37.12l1.41.27c-1.19,1.34-1.16,2.11-.96,3.84l-1.19-.96-.72,1.2c.45-1.78.51-2.86-.72-4.31l1.41-.03.63-1.65.15,1.65Z"/>
        <path class="cls-1" d="M24.28,27.07h1.19c-.03.73-.82,1.11-.95,1.82s.06,1.55-.01,2.27l-.72-1.2-1.19,1.2c.42-1.7.57-2.59-.48-4.08h1.43s.37-1.92.37-1.92l.37,1.91Z"/>
        <path class="cls-1" d="M26.19,5.25l.27,1.17.93.03c.15.83-.74,1.09-.91,1.85-.16.7,0,1.51-.05,2.23l-.72-1.2-1.19.96c.47-1.64.5-2.38-.48-3.84l1.46-.11c.45-.32-.14-1.31.7-1.1Z"/>
        <path class="cls-1" d="M19.72,58.03c-.97,1.41-1.05,2.16-.72,3.84l-1.19-.96-.72,1.2c.4-1.78.33-2.81-.72-4.31h1.44c.12-.12-.29-1.55.48-1.68l.22,1.58,1.22.34Z"/>
        <path class="cls-1" d="M9.46,36.87l1.15.29c-.01.71-.85,1.13-.96,1.82-.12.75.37,1.49.24,2.26l-.84-1.2-1.07.96c.35-1.47.47-2.82-.72-3.96l1.41-.14.27-1.89.52,1.87Z"/>
        <path class="cls-1" d="M13.72,45.79l.11,1.45,1.33.23c-1.08,1.4-1.17,2.61-.72,4.31l-1.08-1.43-.84.96c.16-1.6.41-2.41-.72-3.72l1.17-.15c.44-.29-.13-1.86.75-1.65Z"/>
        <path class="cls-1" d="M4.66,46.95l1.15.29c-1.01,1.42-.95,2.15-.72,3.83-.42-.04-.39-.78-.84-.96-.51-.2-.38.71-.83.72-.18-.65.27-1.43.19-1.99-.15-1.08-2.1-2.04.26-1.88l.27-1.89.52,1.87Z"/>
        <path class="cls-1" d="M5.09,25.16l.1,1.45,1.1.22c0,.73-.87,1.13-.96,1.82-.08.62.39,1.35.24,2.02l-1.19-.96-.72,1.2c.59-1.25,0-3.08.24-4.15.04-.2.39-.18.48-.33.32-.55-.04-1.45.72-1.28Z"/>
        <path class="cls-1" d="M44.17,27.32h1.44c-.47.9-1.47,1.48-1.2,2.64l-1.68-.24c.43-.94-.71-1.45-.71-2.4h1.43s.37-1.92.37-1.92l.36,1.92Z"/>
        <path class="cls-1" d="M16.37,6.44l1.19.13c-1.12,1.2-1.26,2.11-1.32,3.72l-.72-.95-.48.48c-.18.03-.15-.22-.12-.36.1-.54.85-3.03,1.08-3.48.06-.11.31-.31.36-.24v.7Z"/>
        <path class="cls-1" d="M36.46,7.93l.04,2.6-.84-.96-.71.48c-.65-.42.12-1.1.05-1.76-.04-.33-.71-1.29-.65-1.35l2.12.99Z"/>
        <path class="cls-1" d="M15.88,26.84c.24.21-.99,1.54-1.1,1.91-.16.58.45,1.55.02,2.17-1.24-1.18-.06-2.83-.36-4.32l1.44.24Z"/>
      </g>
    </g>
  </g>
</svg>