<?xml version="1.0" encoding="UTF-8"?>
<svg id="Layer_2" data-name="Layer 2" xmlns="http://www.w3.org/2000/svg" viewBox="0 0 148.15 180.64">
  <defs>
    <style>
      .cls-1 {
        fill: #675745;
      }

      .cls-2 {
        fill: #9a866c;
      }

      .cls-3 {
        fill: #796751;
      }

      .cls-4 {
        fill: #9f8b72;
      }

      .cls-5 {
        fill: #ccc1b2;
      }

      .cls-6 {
        fill: #a4927a;
      }

      .cls-7 {
        fill: #a7947c;
      }

      .cls-8 {
        fill: #a28e75;
      }

      .cls-9 {
        fill: #665644;
      }

      .cls-10 {
        fill: #c9beaf;
      }

      .cls-11 {
        fill: #c2b4a4;
      }

      .cls-12 {
        fill: #b9aa97;
      }

      .cls-13 {
        fill: #ab9a83;
      }

      .cls-14 {
        fill: #ccc1b3;
      }

      .cls-15 {
        fill: #ae9c86;
      }

      .cls-16 {
        fill: #cbc0b2;
      }
    </style>
  </defs>
  <g id="Layer_1-2" data-name="Layer 1">
    <g>
      <path class="cls-14" d="M121.75,89.46v-6.61c-.46-1.69-.3-3.49-.48-5.15.95,3.84,1.26,7.9.48,11.75Z"/>
      <path class="cls-14" d="M.68,180.61c-.48.07-.39.04-.54-.3-.39-.89.09-3.04,1.02-3.54l-.48,3.84Z"/>
      <path class="cls-10" d="M137.33,55.63c-1.49,1.16-3.79.76-5.51.72l5.51-.72Z"/>
      <path class="cls-15" d="M88.67,13.66c-1.36.54-3.22.23-4.56-.24,1.42.1,3.14.22,4.56.24Z"/>
      <path class="cls-15" d="M95.14,13.42c-1.25.44-3.05.79-4.32.24,1.32-.02,2.98-.14,4.32-.24Z"/>
      <path class="cls-11" d="M147.4,37.88c-.48-1.29-.19-2.93-.24-4.32.45,1.28.23,2.94.24,4.32Z"/>
      <path class="cls-11" d="M147.64,41.96c-.07-1.22-.21-2.53-.24-3.84.54,1.08.1,2.62.24,3.84Z"/>
      <path class="cls-15" d="M81.95,13.18c-.61.45-2.1.41-2.64-.24.85.11,1.78.16,2.64.24Z"/>
      <path class="cls-15" d="M100.17,12.94c-.73.16-1.92.9-2.64.24.88-.11,1.74-.31,2.64-.24Z"/>
      <path class="cls-14" d="M33.52,54.91c-.63.53-2.21.25-2.64-.48.99.25,1.61.37,2.64.48Z"/>
      <path class="cls-15" d="M103.05,12.46c-.4.56-1.15.56-1.76.44l-.16-.2c.64-.13,1.33-.13,1.92-.24Z"/>
      <path class="cls-15" d="M105.93,11.98c-.51.16-1.42.85-1.92.24.64-.11,1.24-.36,1.92-.24Z"/>
      <path class="cls-15" d="M25.61,42.44c.45.34.19,1.15.24,1.68h-.48c.01-.16-.02-.32,0-.48l.24-.24c.05-.29-.06-.68,0-.96Z"/>
      <path class="cls-14" d="M43.59,79.62c0-.48,0-.96,0-1.44.39.23.39,1.2,0,1.44Z"/>
      <path class="cls-4" d="M119.59,100.97c-.03.15-.21.33-.24.48h-.48c-.1-.26.24-.45.24-.48h.48Z"/>
      <path class="cls-15" d="M107.85,11.5l-.96.24c.35-.1.65-.16.96-.24Z"/>
      <path class="cls-15" d="M109.76,11.02l-.96.24c.32-.09.65-.16.96-.24Z"/>
      <path class="cls-15" d="M111.68,10.54l-.96.24c.34-.1.69-.16.96-.24Z"/>
      <path class="cls-10" d="M37.36,59.23c-.04-.13.04-.34,0-.48l.24.12-.24.36Z"/>
      <path class="cls-14" d="M27.29,52.99c-.63-.46-1.52-1.14-1.68-1.92.55.65,1.17,1.24,1.68,1.92Z"/>
      <path class="cls-6" d="M25.37,43.64c.02-.17.24-.22.24-.24l-.24.24Z"/>
      <path class="cls-14" d="M27.77,53.23c-.13-.08-.18-.2-.24-.24l.24.24Z"/>
      <path class="cls-14" d="M28.25,53.47c-.13-.07-.19-.21-.24-.24l.24.24Z"/>
      <path class="cls-14" d="M28.73,53.71c-.18-.08-.22-.23-.24-.24l.24.24Z"/>
      <g>
        <path class="cls-7" d="M112.16,10.3l.96.24v.23s-.48.24-.48.24c-.38.04-.79.25-1.2.24l-.48.24c-.19-.03-.52-.02-.72,0-.38.04-.74.13-.96.48-.32.02-.64-.02-.96,0-.4.03-.91.17-1.2.48-.32.02-.64-.02-.96,0-.41.03-1.11.2-1.44.48-.31-.03-.64.02-.96,0l-.48.24c-.15-.02-.32.02-.48,0l-.48.24c-.46-.03-.98-.02-1.44,0-.77.03-1.73.06-2.4.48-.64-.01-1.28-.02-1.92,0-1.91.05-3.68.31-5.64.24-.46-.02-.96.24-.83-.48.24,0,.48,0,.72,0,1.27.55,3.06.2,4.32-.24.83-.06,1.57-.14,2.4-.24.71.66,1.9-.08,2.64-.24.32-.07.64-.17.96-.24l.16.2c.6.12,1.36.12,1.76-.44.32-.06.64-.18.96-.24.5.61,1.4-.08,1.92-.24.39-.12.66-.16.96-.24l.96-.24c.33-.09.64-.15.96-.24l.96-.24c.32-.09.65-.15.96-.24l.96-.24c.08-.02.24-.17.48-.24Z"/>
        <path class="cls-7" d="M79.32,12.94c.53.65,2.02.69,2.64.24.72.07,1.4.19,2.16.24,1.33.47,3.2.78,4.56.24.16,0,.32,0,.48,0,.13.72-.37.46-.83.48-.99.03-2.02.04-3.01,0-.24,0-.48,0-.72,0-.12,0-.87-.23-1.44-.24-.7-.01-1.46-.05-2.16,0-.16-.34-.65-.26-.96-.24-.16.01-.33-.02-.48,0-.12-.31-.46-.23-.72-.24-.4-.02-.8,0-1.2,0l-.72-.36.72-.36c.57.09,1.1.16,1.68.24Z"/>
        <path class="cls-14" d="M43.35,69.55c.08.4.66.43.72.48.05.04.54.9.71,1.05-1.05,2.46-1.13,4.26-1.19,6.86-1.01-3,1.04-5.44-.24-8.4Z"/>
        <path class="cls-15" d="M113.6,10.06l-.24.48h.48s.16.62-.83.69c-.18.01-.33-.21-.37-.21l.48-.24v-.23s-.96-.24-.96-.24c.49-.15,1.08-.13,1.44-.24Z"/>
        <path class="cls-10" d="M131.58,56.35c-.29.26-1.03.41-1.41.43s-.48-.19-.51-.19c.38-.4,1.34-.27,1.92-.24Z"/>
        <path class="cls-7" d="M136.62,4.54l-.35.23-.37-.47c.23.09.46.13.72.24Z"/>
        <path class="cls-14" d="M121.51,70.51l.24-.48c-.09.21-.21.4-.24.48Z"/>
        <path class="cls-14" d="M121.75,69.79l.24-.24c-.05.1-.21.18-.24.24Z"/>
        <g>
          <path class="cls-14" d="M44.31,68.35c3.16,5.41,9.54,7.83,15.58,7.92l-2.8,1.39c-4.03,2.64-5.44,5.59-1.52,9.29,3.06,2.88,5.44,2.49,8.04-.6,1.06-1.26,1.5-2.62,2.51-3.84-.33,8.75,5.27,16.62,14.3,17.48,11.77,1.12,19.92-5.84,19.99-17.72l2.64,4.43c2.97,4.47,8.89,1.39,9.72-2.98.52-2.71-2.41-4.85-4.45-6.01.15-.41,5.37-.59,4.31-1.44-.45.22-1.02-.23-1.2-.24,3.85-1.11,6.65-3.12,9.35-6-.05.38.03.81,0,1.2h.48c-.4,1.08-.8,1.37-.72,2.64-1.12.04-.75,2.45-.72,3.24.2,4.23,1.08,7.81.72,12.12-3.25-2.7-8.68,2.43-8.38,5.61.2,2.12,3.87,5.71,5.98,5.67.2,0,.22-.24.24-.24.07-.02.16,0,.24,0l-1.88,7.15c-.13.23.21.5.2.52-.03.15.02.33,0,.48-.62-.13-.49.31-.59.71-.28,1.07-.28,1.76-.36,2.65-.02.24.01.48,0,.72-1.01-.14-.47,1.26-.48,1.44-.01.16,0,.32,0,.48-1.06-.08-.47,1-.48,1.2,0,.16,0,.32,0,.48-1-.13-.47,1.22-.48,1.44,0,.16,0,.32,0,.48-1-.13-.47,1.22-.48,1.44-.01.24.02.48,0,.72-1.06-.08-.47,1.01-.48,1.2,0,.16,0,.32,0,.48l-.44.03c-.33.54-.03,1.03-.04,1.17-.01.16.02.32,0,.48-.96-.11-.47.79-.48.96-.01.16.02.32,0,.48-.96-.12-.47.8-.48.96s.01.32,0,.48c-.99-.12-.48,1.17-.48,1.44,0,.16,0,.32,0,.48-.7-.14-.5.38-.49.84.02.63.02,2.74.97,2.76.01.16,0,.32,0,.48s-.58,1.29.48,1.2c.01.16-.01.32,0,.48s-.48,1.08.48.96c.02.24-.02.48,0,.72.02.25-.44,1.37.48,1.2,0,.16,0,.32,0,.48.01,1.15.04,1.64.36,2.89.1.4-.03.85.59.71.02.32,0,.64,0,.96,0,.39-.73,1.95.48,1.92,0,.24,0,.48,0,.72,0,.03-.24.27-.25.58-.03.67-.12,2.2.73,2.06.05.47-.04.97,0,1.44-.38.31-.29,1.12-.25,1.57.19,2.43.37,4.87.49,7.31h-.96c.12,2.1.89,4.53.97,6.6.02.59.14,1.04-.49,1.32-.24,0-.48,0-.72,0,.13-.72-.37-.46-.83-.48-22.24-.78-46.66-8.17-65.89-19.24-5.18-2.98-13.37-7.85-17.2-12.3-.4-.47-1.46-1.61-1.4-2.11.05-.34,2.34-3.71,2.74-4.24,2.13-2.84,4.41-5.76,6.58-8.53,1.52-1.94,4.37-4.56,5.53-6.47.22-.36.29-.67.23-1.09h.24c.19-.07.44-.23.48-.24.21-.04.49.03.72,0,.68.81.97.72,1.56,1.2,3.91,3.17,6.83,4.76,11.63,6.24l.03.44c.39.1.78.17,1.17.28,1.19.33,2.4.64,3.6.96-.15.71.35.42.76.54,3.32.99,8.26,2.69,11.58,3.06.47.05,1.28.22,1.08-.48l-10.55-2.88c-.65.24-.66-.35-.91-.46-.27-.12-1.16-.13-1.25-.26-.2-.26.39-.28-.48-.48-.33-.07-1.61-.19-1.68-.24-.09-.07.24-.44-.72-.72-.83-.24-6.91-2.37-7.19-2.64-.17-.16.42-.34-.48-.48-.14-.02-.45.04-.48,0-.2-.22.41-.2-.48-.48-.25-.08-.47-.15-.72-.24v-.48c-.15-.03-.35.03-.48,0-1.01-.24-1.1-.49-1.92-.96.04-.6-1.09-1.23-1.68-1.2-.44-.33-1.33-1.25-1.68-1.44l-.72-1.08.35-.35c2.32,2.04,5,3.88,7.83,5.12,7.62,3.34,20.27,4.07,28.56,3.45.41-.03.8-.17.65-.66-5.55-.05-11.33-.28-16.84-1.03-4.97-.67-10.83-2.13-15.13-4.78-1.95-1.2-3.47-3.03-5.57-4.03l-.11-6.72c3.32,2.09,9.26-3.47,7.24-7.36-1.33-2.57-4.93-5.19-7.72-3.19-.73.13-.46-.37-.48-.83-.11-2.86-.2-6.55,0-9.38.13-1.92.78-4.1.94-6.02.13-1.56-.1-3.46-1.41-4.41,0-.08-.01-.16,0-.24.02-.11.13-.2.24-.24Z"/>
          <path class="cls-13" d="M44.31,111.04c.06.42,0,.72-.23,1.09-1.15,1.91-4.01,4.53-5.53,6.47-2.17,2.77-4.44,5.69-6.58,8.53-.4.53-2.69,3.91-2.74,4.24-.07.5,1,1.64,1.4,2.11,3.83,4.45,12.02,9.32,17.2,12.3,19.24,11.06,43.65,18.46,65.89,19.24.46.02.96-.24.83.48-.88-.02-1.76.01-2.64,0v.48c-12.3-.97-24.92-2.85-36.56-6.95-13.72-4.83-29.26-11.65-40.75-20.64-1.66-1.3-6.71-5.42-6.02-7.68.07-.22,2.13-3.39,2.44-3.81.45-.62,1.19-1.09,1.64-1.72,1.26-1.78,2.73-3.71,3.51-5.74l.95.24c-.18-.75.6-.92.95-1.39.67-.91,1.17-1.89,1.94-2.8.88-1.05,3.26-3.79,4.31-4.44Z"/>
          <path class="cls-7" d="M44.07,68.83c1.31.95,1.53,2.84,1.41,4.41-.16,1.92-.81,4.09-.94,6.02-.19,2.83-.1,6.51,0,9.38.02.46-.25.96.48.83-.31.22-.64.41-.72.84-.16.81-.06,3.14,0,4.09.07,1.23.26,3.64.49,4.79.08.4.41.64.72.84l.11,6.72c2.09,1.01,3.62,2.83,5.57,4.03,4.3,2.65,10.15,4.11,15.13,4.78,5.51.74,11.29.97,16.84,1.03.15.49-.24.63-.65.66-8.29.62-20.95-.11-28.56-3.45-2.83-1.24-5.51-3.09-7.83-5.12l-.35.35.72,1.08c-.32-.17-.96-.13-1.2-.24-.36-.17-1.26-1.47-1.19-1.78.08-.32.81-.41.87-.72.09-.48-.57-3.9-.64-4.82-.57-7.84-.74-15.13-.72-22.91.39-.24.39-1.21,0-1.44,0-.08,0-.16,0-.24.06-2.61.14-4.4,1.19-6.86-.18-.15-.67-1.01-.71-1.05.02-.4-.02-.8,0-1.2Z"/>
          <path class="cls-4" d="M119.11,102.17c-1.97,8.99-3.85,18-6.72,26.75,2.24,8.16,4.65,16.83,4.09,25.3-.65.43-.46.24-.48-.36-.07-1.79-.32-3.46-.48-5.16-.04-.47.05-.97,0-1.44-.08-.84-.06-1.89-.48-2.64,0-.24,0-.48,0-.72,0-.62-.08-1.42-.48-1.92,0-.32.02-.64,0-.96-.06-.97-.52-2.69-.96-3.6,0-.16,0-.32,0-.48,0-.46-.05-.93-.48-1.2-.02-.24.02-.48,0-.72-.03-.38-.14-.74-.48-.96-.01-.16.01-.32,0-.48-.03-.47-.03-.92-.48-1.2,0-.16.01-.32,0-.48-.09-1.15-.42-2.15-.48-3.6,0-.16,0-.32,0-.48.4-.37.44-.93.48-1.44.01-.16-.01-.32,0-.48.34-.22.44-.58.48-.96.02-.16-.01-.32,0-.48.35-.22.44-.58.48-.96.02-.16-.01-.32,0-.48.43-.28.46-.73.48-1.2,0-.16,0-.32,0-.48.31-.29.45-.8.48-1.2.02-.24-.01-.48,0-.72.39-.37.46-.94.48-1.44,0-.16,0-.32,0-.48.39-.37.46-.94.48-1.44,0-.16,0-.32,0-.48.3-.28.46-.81.48-1.2,0-.16-.01-.32,0-.48.39-.37.46-.94.48-1.44.01-.24-.02-.48,0-.72.53-.92.79-2.28.96-3.36.02-.15-.03-.33,0-.48.83-1.72.98-3.67,1.61-5.47.17-.49-.15-.74.54-.29Z"/>
          <path class="cls-2" d="M120.55,73.86c.05.81.37,1.69.48,2.64l.24.96c0,.08,0,.16,0,.24.18,1.66.02,3.46.49,5.15v6.61c-.79,3.84-1.32,7.62-2.17,11.51h-.48c.02-.23-.03-.49,0-.72.11-.79.72-2.83.72-3.24v-5.28c0-.23.82-1.15.92-1.51.14-.52-.21-.88-.2-1.01.36-4.31-.52-7.88-.72-12.12-.04-.79-.4-3.19.72-3.24Z"/>
          <path class="cls-4" d="M46.47,110.08c.35.19,1.24,1.11,1.68,1.44.74.56.74.65,1.68,1.2.81.47.91.72,1.92.96-.13.7.23.39.48.48s.47.16.72.24v.48s.48,0,.48,0c.03.04.34-.02.48,0v.48s.48,0,.48,0c.28.26,6.37,2.4,7.19,2.64-.02.49.24.74.72.72.07.05,1.35.17,1.68.24v.47s.48.01.48.01c.09.13.98.14,1.25.26.25.11.26.7.91.46l-.12.48c-.9-.32-1.84-.48-2.75-.72-1.19-.32-2.41-.63-3.6-.96.18-.65-.65-.55-1.2-.72-4.8-1.48-7.72-3.07-11.63-6.24-.59-.48-.88-.39-1.56-1.2-.06-.07-.05-.63-.48-.72v-.24c.24.11.88.07,1.2.24Z"/>
          <path class="cls-13" d="M115.52,148.7c.16,1.7.41,3.37.48,5.16.02.59-.17.78.48.36-.09,1.32-.58,4.12-.48,5.14s.76,2.06.48,3.25c-.07-.16-.25-.54-.48-.48l.2,3.2-.55.4c-.2,0-.33-.24-.37-.24.63-.28.51-.73.49-1.32-.08-2.07-.85-4.5-.97-6.6h.96c-.12-2.43-.3-4.87-.49-7.31-.04-.44-.14-1.26.25-1.57Z"/>
          <path class="cls-2" d="M116.48,162.62c.45,1.01.85,2.62-.12,3.36-1.09.85-1.51.08-2.42.02-.67-.04-1.35.03-2.02-.02v-.48c.87.01,1.76-.02,2.64,0,.24,0,.48,0,.72,0,.04,0,.18.24.37.24l.55-.4-.2-3.2c.23-.06.41.32.48.48Z"/>
          <path class="cls-13" d="M119.11,100.25c-.03.23.02.49,0,.72,0,.03-.34.22-.24.48h.48c-.07.32-.21.57-.24.72-.69-.45-.37-.19-.54.29-.64,1.79-.79,3.74-1.61,5.47,0-.03-.33-.3-.2-.52l1.88-7.15c.16-.01.32,0,.48,0Z"/>
          <path class="cls-7" d="M45.27,110.08c.43.09.42.65.48.72-.23.03-.51-.04-.72,0v-.48c.06-.1.15-.17.24-.24Z"/>
          <path class="cls-14" d="M121.27,77.46l-.24-.96c.01.1.19.52.24.96Z"/>
          <path class="cls-14" d="M45.03,110.56l-.22-.12c0-.07.19-.07.22-.12v.24Z"/>
          <path class="cls-7" d="M44.55,111.04h-.24c.27-.16.23,0,.24,0Z"/>
          <path class="cls-1" d="M45.51,100.01c-.31-.2-.64-.44-.72-.84-.23-1.15-.42-3.56-.49-4.79-.05-.95-.15-3.28,0-4.09.08-.42.41-.61.72-.84,2.79-2,6.39.62,7.72,3.19,2.02,3.89-3.92,9.46-7.24,7.36Z"/>
          <path class="cls-1" d="M120.55,89.22c-.01.13.33.49.2,1.01-.09.36-.92,1.28-.92,1.51v5.28c0,.41-.61,2.45-.72,3.24-.16,0-.32-.01-.48,0-.08,0-.17-.02-.24,0l-.24.24c-2.11.05-5.78-3.55-5.98-5.67-.3-3.18,5.13-8.3,8.38-5.61Z"/>
          <path class="cls-12" d="M63.73,119.92c.91.24,1.86.41,2.75.72l.12-.48,10.55,2.88c.2.7-.61.53-1.08.48-3.33-.37-8.26-2.06-11.58-3.06-.41-.12-.91.17-.76-.54Z"/>
          <path class="cls-13" d="M111.68,128.32c.06,1.45.39,2.44.48,3.6-.94-.02-.95-2.14-.97-2.76-.01-.45-.21-.98.49-.84Z"/>
          <path class="cls-13" d="M114.56,141.03c-.62.13-.49-.31-.59-.71-.32-1.25-.35-1.73-.36-2.89.44.91.9,2.62.96,3.6Z"/>
          <path class="cls-13" d="M116.96,108.41c-.17,1.07-.42,2.44-.96,3.36.09-.89.09-1.58.36-2.65.1-.4-.03-.85.59-.71Z"/>
          <path class="cls-13" d="M115.52,147.27c-.85.14-.76-1.39-.73-2.06.01-.31.25-.55.25-.58.42.75.39,1.8.48,2.64Z"/>
          <path class="cls-13" d="M115.04,143.91c-1.21.03-.48-1.52-.48-1.92.39.5.48,1.3.48,1.92Z"/>
          <path class="cls-7" d="M48.15,111.52c.58-.03,1.72.6,1.68,1.2-.94-.54-.94-.64-1.68-1.2Z"/>
          <path class="cls-13" d="M116,112.48c-.02.5-.09,1.07-.48,1.44.01-.18-.53-1.58.48-1.44Z"/>
          <path class="cls-13" d="M115.04,116.08c-.02.5-.09,1.07-.48,1.44,0-.21-.52-1.57.48-1.44Z"/>
          <path class="cls-13" d="M114.56,118c-.02.5-.09,1.07-.48,1.44,0-.22-.52-1.57.48-1.44Z"/>
          <path class="cls-13" d="M112.16,126.4c-.04.51-.08,1.07-.48,1.44,0-.27-.51-1.56.48-1.44Z"/>
          <path class="cls-13" d="M112.64,133.59c-1.06.09-.47-1.05-.48-1.2.45.28.45.73.48,1.2Z"/>
          <path class="cls-13" d="M114.08,120.16c-.03.4-.17.91-.48,1.2,0-.19-.58-1.28.48-1.2Z"/>
          <path class="cls-13" d="M113.6,121.84c-.02.47-.05.92-.48,1.2.01-.13-.29-.63.04-1.17l.44-.03Z"/>
          <path class="cls-13" d="M113.6,136.95c-.92.17-.46-.95-.48-1.2.43.27.47.74.48,1.2Z"/>
          <path class="cls-13" d="M115.52,114.4c-.02.39-.18.92-.48,1.2,0-.2-.58-1.28.48-1.2Z"/>
          <path class="cls-12" d="M58.94,118.24c.54.17,1.38.06,1.2.72-.39-.11-.78-.17-1.17-.28l-.03-.44Z"/>
          <path class="cls-13" d="M113.12,123.52c-.04.38-.13.73-.48.96.01-.17-.48-1.07.48-.96Z"/>
          <path class="cls-13" d="M112.64,124.96c-.04.38-.14.73-.48.96.01-.16-.48-1.08.48-.96Z"/>
          <path class="cls-13" d="M113.12,135.03c-.96.12-.47-.81-.48-.96.34.22.45.58.48.96Z"/>
          <path class="cls-12" d="M62.29,118.72c-.48.02-.74-.23-.72-.72.96.28.63.65.72.72Z"/>
          <path class="cls-7" d="M51.74,113.68c.13.03.33-.03.48,0v.48c-.25-.09-.6.22-.48-.48Z"/>
          <path class="cls-7" d="M52.94,114.4c.89.28.28.26.48.48h-.48s0-.48,0-.48Z"/>
          <path class="cls-7" d="M53.9,114.88c.9.14.31.32.48.48h-.48s0-.48,0-.48Z"/>
          <path class="cls-12" d="M63.97,118.96c.87.19.28.22.48.48h-.47s-.01-.48-.01-.48Z"/>
          <path class="cls-13" d="M118.15,100.49l.24-.24s-.04.24-.24.24Z"/>
        </g>
        <g>
          <path class="cls-14" d="M130.86,19.65c1.08-2.13,3.09-5.17,4.56-7.31.57-.84,3.2-4.49,3.83-4.81.52-.27,1.29.94,1.54,1.35,5.2,8.3,5.2,27.3,5.63,37.04.06,1.29.67,3.1.52,4.33-.1.8-.88,1.38-1.47,1.9-.22.2-1.85.65-.47.85-.47.27-.85.18-.96.24-.07-1.11-.19.09-.84.24s-1.47.11-2.13.27c-2.61.62-5.58,1.64-8.19,1.88-1.51.14-3.14-.07-4.66.01,0-.24,0-.48,0-.72.59.21.72-.87.71-1.3,0-.19-.23-.34-.23-.38,0-.4-.02-.8,0-1.2h.48c.15-.34-.23-.65-.24-.72-.02-.32,0-.64,0-.96.72.13.46-.37.48-.83.05-1.42.06-2.62-.24-3.97-.07-.32-.17-.64-.24-.96l.24-.72h-.48c-.04-.45,0-.98,0-1.44,0-.03.24-.24.25-.58,0-.4-.16-1.57-.73-1.34-.02-.38-.03-.82,0-1.2,0-.03.33-.23.24-.48h-.48c0-1.24-.44-2.41-.72-3.6l.24-.72h-.48c-.12-.58-.5-1.98-.48-2.4,0-.03.33-.24.24-.48h-.48c0-.32,0-.64,0-.96,0-.05.36-.25,0-.48v-2.16h.48c.02-.16-.02-.32,0-.48.04-.42.8-3.71.96-3.84.23-.18.29.4.48-.48.03-.14-.06-.35,0-.55.05-.15.81-.33.47-1.13.14.03.32,0,.47,0l.5-1.43c1.74.56.93.03,1.19-.48Z"/>
          <path class="cls-15" d="M77.64,12.7l-.72.36.72.36c-4.96.04-12.73-2.93-17.1-5.56-3.24-1.96-5.96-4.58-8.96-6.86-.9.36-2.4,1.03-1.76,2.11-1.38.46-1.47-1.21-2.75-1.22-1.11,0-3.82,1.5-5.17,1.57l-1.91,4.92-.72-.24c.23-.97.27-1.52.72-2.52.14-.3,1.5-2.06.61-1.79-1.34.4-5.91,2.79-6.7,3.85-.17.23-.51,1.12-.67,1.49-3.44,8.13-4.44,17.3-5.67,25.99-.08.59-.01,1.18-.03,1.77-.15,0-.33.03-.48,0-.03,0-.03-.19-.12-.24l-.12.12c-.17.27.22.3.24.36.12.39.26.78.24,1.2h-.48c-.02-.17.09-.74-.24-.36.07,1.29-.47,2.5-.72,3.72,1.23-8.22,1.84-16.65,3.95-24.71.6-2.28,1.81-6.79,2.72-8.8.63-1.4,1.49-2,2.76-2.76,2.88-1.72,8.83-4.06,12.1-4.7.24-.05.88.08.98.22.19.29-.25,1.1.39.92l2.85-1.9c5.35,4.6,11.02,8.85,17.89,10.9,2.53.76,5.54,1.37,8.16,1.8Z"/>
          <path class="cls-6" d="M135.9,4.3l.37.47.35-.23c4.27,1.88,5.63,3.79,7.06,8.17,1.91,5.83,3.26,14.72,3.49,20.86.05,1.39-.24,3.03.24,4.32,0,.08,0,.16,0,.24.03,1.31.17,2.62.24,3.84.11,1.78.43,3.85.49,5.63.04,1.1,0,2.23-.05,3.33-.87.95-2,1.46-3.08,2.08-1.38-.2.25-.65.47-.85.59-.52,1.36-1.1,1.47-1.9.16-1.23-.46-3.04-.52-4.33-.43-9.75-.43-28.74-5.63-37.04-.25-.4-1.02-1.62-1.54-1.35-.63.33-3.26,3.98-3.83,4.81-1.47,2.15-3.48,5.19-4.56,7.31-.31-.13-.3-.7-.24-.96.25-1.07,3.59-5.65,4.43-6.98.16-.26.08-.62.13-.7.98-1.57,2.14-2.85,3.1-4.41-.03-.16-1.7-1.37-1.92-1.46-.41-.18-.75-.06-.94-.13v-.33s-.49-.27-.49-.27l.25-.36c.27.08.46.14.72.24Z"/>
          <path class="cls-8" d="M128.22,18.45c-.4,1.96-2.6,4.48-3.02,6.24-.16.65.24,1.27.14,1.92h.7s2.19-5.28,2.19-5.28c.24-.11.4.22.46.24.33.8-.42.97-.47,1.13-.06.2.03.41,0,.55h-.47s0,.48,0,.48c-.16.13-.92,3.42-.96,3.84h-.48s0,.48,0,.48v2.16l-.24.36.24.12c0,.32,0,.64,0,.96l.24.48c-.02.42.36,1.82.48,2.4.07.35.22.62.24.72.27,1.19.71,2.36.72,3.6l.24.48c-.03.38-.02.82,0,1.2.03.56.16,1.45.48,1.92,0,.46-.04.99,0,1.44.04.48.22.64.24.72.07.32.17.64.24.96-.42,1.43-.27,3.28-.24,4.8,0,.32-.02.64,0,.96-.31.12-.23.46-.24.72-.02.4,0,.8,0,1.2-.35.42-.45,1.15-.48,1.68-.01.24,0,.48,0,.72,1.52-.09,3.16.13,4.66-.01,2.61-.24,5.58-1.26,8.19-1.88.66-.16,1.49-.13,2.13-.27s.78-1.34.84-.24c-.02.01.05.38-.17.48-2.19,1.06-4.19,1.39-6.55,1.92l-5.51.72c-.08,0-.16,0-.24,0-.58-.03-1.54-.16-1.92.24-.16.01-.32-.02-.48,0-.25-.4-.6-.16-.72.24-.08.02-.17-.02-.24,0-.51.16-.7.16-.96.72-.18.4-.16,1.01-.36,1.44-.17.36-.48.67-.6.96l-.48-.24s.02-.37,0-.48c.45-.28.45-.73.48-1.2.01-.16-.01-.32,0-.48.35-.22.44-.58.48-.96.03-.23-.02-.48,0-.72.71-.54.26-1.1.24-1.44,0-.16,0-.32,0-.48h.48s0-.48,0-.48c-.02-.32.03-.65,0-.96.31-.12.23-.46.24-.72.02-.48-.04-.97,0-1.44.19-2.29.14-3.48,0-5.76-.03-.47.05-.98,0-1.44-.08-.77-.02-1.73-.48-2.4,0-.32,0-.64,0-.96-.02-.55-.17-1.45-.48-1.92,0-.24,0-.48,0-.72-.01-.52-.14-1.27-.48-1.68,0-.16,0-.32,0-.48,0-1.38-.89-2.96-1.2-4.32.02-.1.02-.46,0-.48v-.48s-.48,0-.48,0c-.03-.22.02-.49,0-.72.37-.1.36-.88,0-.96.02-.1.02-.46,0-.48v-.48s-.48,0-.48,0c0-.15-.02-.33,0-.48.11-.88.2-2.31.48-3.12.23-.68.84-1.55,1.2-2.4.62.15.6-.47.72-.96.02-.07-.02-.16,0-.24h.47s0-.48,0-.48c.09-.1.37-.97.48-1.2.08.05.55.19.72.24Z"/>
          <path class="cls-6" d="M36.88,35.96c.77-.09.43.22.31.67-.43,1.59-.75,1.95-.79,3.65,0,.24,0,.48,0,.72-.77-.13-.41.39-.47.84-.35,2.77-.07,4.68.23,7.32.03.23-.03.49,0,.72.09.69.06,1.57.48,2.16-.03.23.02.49,0,.72l.24.48c-.02.24.02.48,0,.72l.24.48c-.02.11-.02.46,0,.48v.48s.48,0,.48,0c.04.39-.04.81,0,1.2s.16.91.48,1.2c.02.16-.01.32,0,.48.04.47.17,1.12.72.96.07.28.06,1.3.24,1.44v.47s.48.01.48.01c.02.14-.04.45,0,.48v.48s.48,0,.48,0c.04.13-.05.43,0,.48-.02.48.23.74.72.72.32.74.68,1.55,1.2,2.16-.01.48.23.74.72.72.27.48.49,1.2.72,1.68.16.34,0,.76.72.72-.01.08,0,.16,0,.24-.02.4.02.8,0,1.2-.06-.05-.64-.07-.72-.48-1.52-3.5-4.75-6.12-5.99-10.31l.24-.36-.24-.12c-.02-.07.02-.17,0-.24-.31-1.13-.54-3.35-1.68-3.6-.14-.03-.32.01-.48,0-.08,0-.16,0-.24,0v-.24l-.24-.48c.14.03.34-.03.48,0,.32.07.62.25.96.24l-.48-1.92c.01-.24,0-.48,0-.72,0-.32,0-.64,0-.96h-.48c-.02-.15.01-.32,0-.48.39-.24.39-1.21,0-1.44,0-.4,0-.8,0-1.2,0-1.68-.02-3.36,0-5.04,0-.24,0-.48,0-.72.38-.16.38-1.04,0-1.2.02-.15-.03-.33,0-.48.64.14.47-.32.59-.72.34-1.14.73-2.24,1.09-3.36.02-.07-.02-.17,0-.24Z"/>
          <path class="cls-7" d="M135.18,4.06l-.25.36.49.27v.33c-2.32-.8-2.57-.63-4.91-.48-.44.03-.84-.33-1.38-.2-1.12.26-3.97,2.33-5.24,2.93-2.86,1.35-6.27,2.46-9.08,3.03l-.48.24c-.09-.02-.45-.02-.48,0h-.48s.24-.48.24-.48c2.95-.9,7.03-2.42,9.83-3.72,5.33-2.47,5.22-4.34,11.75-2.28ZM134.34,4.06v.24c.16-.08.16-.16,0-.24Z"/>
          <path class="cls-6" d="M26.81,38.36c.07.48.2,1.02.24,1.44h-.48s0,.48,0,.48c.02.23-.03.49,0,.72-.37.1-.36.88,0,.96-.02.4.03.8,0,1.2h-.48s0,.72,0,.72c.02.15-.03.33,0,.48-.34.16-.26.65-.24.96.03.49.21.95.24,1.44h-.48s0,.72,0,.72c.02.24-.02.48,0,.72-.38.08-.25.54,0,.72.05,1.42-.13,1.34,1.02,2.21,1.97,1.49,4.03,2.44,6.41,2.82.32.23.79.23.72.72v.24c-.08,0-.16,0-.24,0-1.03-.11-1.64-.23-2.64-.48-.53-.14-.83-.36-1.2-.48l-.72-.24c-.07-.03-.17.03-.24,0l-.24-.24c-.07-.03-.18.03-.24,0l-.24-.24c-.06-.03-.18.04-.24,0l-.24-.24c-.06-.04-.19.04-.24,0-.51-.68-1.13-1.27-1.68-1.92-.22-.26-.78-.44-.86-.96-.23-.7.14-.84.14-.96.31-.84.78-2.33.24-3.12.03-.15.2-.33.24-.48.07-.27.62-.84,0-1.2,0-.08,0-.16,0-.24h.48c-.05-.52.21-1.34-.24-1.68.06-.29.2-.53.24-.72.25-1.22.79-2.43.72-3.72.33-.39.22.19.24.36Z"/>
          <path class="cls-15" d="M125.83,59.71l.48.24c-1.39,3.38-2.86,6.3-4.32,9.6l-.24.24c-.03.07.03.17,0,.24l-.24.48c-.07.18-.15.47-.24.72h-.48c.03-.39-.05-.82,0-1.2.13-.94,1.13-2.15,1.55-3.13.53-1.24.77-2.72,1.33-3.83.03-.06.38-.22.53-.54.67-1.4.7-1.71,1.63-2.82Z"/>
          <path class="cls-15" d="M90.1,13.66c-.13.72.37.46.83.48,1.97.07,3.74-.19,5.64-.24.13.77-.39.41-.84.47-3.04.39-6.51.35-9.6.25-.46-.02-.96.24-.83-.48.99.04,2.02.03,3.01,0,.46-.02.96.24.83-.48.32,0,.64,0,.96,0Z"/>
          <path class="cls-10" d="M37.36,58.51l-1.68-3.36v-.24c1.14.25,1.37,2.46,1.68,3.6Z"/>
          <path class="cls-15" d="M24.89,49.16c.04-1.06.03-2.08.24-3.12.54.79.07,2.28-.24,3.12Z"/>
          <path class="cls-14" d="M34.96,54.67v.24c-.39-.02-.81.04-1.2,0v-.24h1.2Z"/>
          <path class="cls-10" d="M129.18,56.59s-.46.17-.72.24c.12-.4.47-.64.72-.24Z"/>
          <path class="cls-15" d="M25.37,45.56c0-.4,0-.8,0-1.2.62.36.07.93,0,1.2Z"/>
          <path class="cls-14" d="M29.69,53.95c-.26-.09-.42-.12-.72-.24l.72.24Z"/>
          <path class="cls-10" d="M128.22,56.83l-.96.72c.25-.56.45-.56.96-.72Z"/>
          <path class="cls-14" d="M35.68,54.91v.24l-.48-.24c.16.01.34-.03.48,0Z"/>
          <path class="cls-11" d="M130.62,18.69c-.06.26-.07.83.24.96-.26.51.56,1.04-1.19.48l-.5,1.43c-.15,0-.33.03-.47,0-.07-.01-.22-.35-.46-.24l-2.19,5.26h-.7c.1-.64-.3-1.25-.14-1.91.42-1.76,2.62-4.28,3.02-6.24.85.27,1.49.31,2.4.24Z"/>
          <path class="cls-11" d="M129.18,45.56c.3,1.35.29,2.54.24,3.97-.02.46.24.96-.48.83-.03-1.52-.18-3.36.24-4.8Z"/>
          <path class="cls-11" d="M128.22,40.52c.57-.23.74.93.73,1.34,0,.34-.25.55-.25.58-.32-.47-.45-1.35-.48-1.92Z"/>
          <path class="cls-11" d="M128.7,53.23s.23.18.23.38c0,.44-.12,1.52-.71,1.3.03-.53.13-1.26.48-1.68Z"/>
          <path class="cls-11" d="M127.03,34.52h.48s-.24.72-.24.72c-.02-.1-.16-.37-.24-.72Z"/>
          <path class="cls-11" d="M128.94,51.32c0,.07.39.38.24.72h-.48c.01-.26-.07-.6.24-.72Z"/>
          <path class="cls-11" d="M128.7,43.88h.48s-.24.72-.24.72c-.02-.08-.2-.24-.24-.72Z"/>
          <path class="cls-11" d="M126.79,27.57c-.02.16.02.32,0,.48h-.48s0-.48,0-.48h.48Z"/>
          <path class="cls-11" d="M127.98,38.84h.48c.1.25-.24.45-.24.48l-.24-.48Z"/>
          <path class="cls-11" d="M126.31,31.65h.48c.09.24-.24.45-.24.48l-.24-.48Z"/>
          <path class="cls-11" d="M126.31,30.69l-.24-.12.24-.36c.36.23,0,.43,0,.48Z"/>
          <path class="cls-11" d="M128.22,23.25c-.18.88-.25.3-.48.48v-.47s.48,0,.48,0Z"/>
          <path class="cls-14" d="M77.64,13.42c.4,0,.8-.02,1.2,0v.48c.36.16.63-.23.72-.24.15-.02.32.01.48,0v.48c.39.2.85-.23.96-.24.69-.05,1.46-.01,2.16,0v.48s1.44-.24,1.44-.24c.24,0,.48,0,.72,0-.13.72.37.46.83.48,3.09.1,6.56.14,9.6-.25.45-.06.97.3.84-.47.63-.02,1.28-.01,1.92,0,.03,0,.27.25.59.26.51,0,2.1-.15,1.81-.74.46-.02.98-.03,1.44,0,.11,0,.58.71.48-.24.16.02.33-.02.48,0,.03,0,.2.34.48.24v-.48c.32.02.65-.03.96,0,.42.04,1.47.6,1.44-.48.32-.02.64.02.96,0,.29-.02,1.36.43,1.2-.48.32-.02.64.02.96,0,.19-.01,1.07.47.96-.48.2-.02.53-.03.72,0,.04,0,.21.34.48.24v-.48c.41.01.82-.2,1.2-.24.03,0,.19.22.37.21.99-.07.78-.66.83-.69.03-.02.39-.02.48,0,.05,0,.2.34.48.24v-.48c2.81-.57,6.22-1.68,9.08-3.03,1.28-.6,4.12-2.66,5.24-2.93.53-.13.94.23,1.38.2,2.35-.15,2.59-.32,4.91.48.19.07.54-.05.94.13.22.1,1.89,1.3,1.92,1.46-.95,1.56-2.11,2.84-3.1,4.41l-2.16-2.64c.8-.31,1.58-.65,2.16-1.32.1-.52-.24-.36-.6-.36-1.52,0-7.34,2.47-9.23,3.13-4.14,1.43-8.35,2.73-12.47,4.2-.38.14-.85-.05-.71.6-.15.03-.33-.03-.48,0-.02,0-.12-.2-.47-.15-.79.12-1.95.45-2.65.87-.16.02-.32-.01-.48,0-.58.04-1.24,0-1.68.48-.16,0-.32,0-.48,0-2.44.11-5.51,1.28-8.06,1.41l-12.32,1.23c-8.48-1.22-16.33,3.02-18.94,11.27l-6.95-1.68c-.24.22.49.92.74,1.06,1.57.86,4.15.82,5.74,1.82-.36,1.62-.46,3.38-.48,5.04l-1.48-2.71c-2.49-3.71-5.47-5.28-9.08-1.73-3.19,3.14-1.7,6.31,1.61,8.48l2.95,1.72c-5.96.09-11.92,2.6-15.06,7.85s-3.27,12.92-.53,18.3h-.72c-.23-.48-.45-1.2-.72-1.68-.48-.86-.62-.6-.72-.72-.51-.61-.88-1.42-1.2-2.16-.41-.96-.55-.55-.72-.72-.05-.05.04-.35,0-.48-.3-.89-.25-.27-.48-.48-.04-.03.02-.34,0-.48-.13-.87-.25-.31-.48-.48-.18-.14-.17-1.16-.24-1.44-.12-.49-.11-1.11-.72-.96-.01-.16.02-.32,0-.48-.02-.22.44-1.38-.48-1.2-.04-.39.04-.81,0-1.2-.09-.88-.31-.32-.48-.48-.02-.02-.02-.37,0-.48,0-.03.34-.2.24-.48h-.48c.02-.24-.02-.49,0-.72,0-.03.34-.22.24-.48h-.48c.02-.23-.03-.5,0-.72,0-.06.23-.21.23-.39.01-.58,0-1.97-.71-1.77-.03-.23.03-.49,0-.72.36-.38.24-.85.25-1.31.05-2.31-.1-4.53,0-6.85,0-.24,0-.48,0-.72l2.4-6.62-.23-.71-.73-.11c-.32,1.03-.63,2.09-.96,3.12-.02.07.02.17,0,.24-.59-.12-.51.28-.66.65-.44,1.1-.82,2.25-1.02,3.43-.03.15.02.33,0,.48-.09.76,0,.76,0,1.2,0,.24,0,.48,0,.72-.78-.13-.41.39-.47.84-.19,1.41-.23,1.95,0,3.36.07.44-.31.97.47.84,0,.4,0,.8,0,1.2,0,.58-.07.66,0,1.44.01.16-.02.33,0,.48.05.29-.04.65,0,.96h.48c0,.24.01.48,0,.72,0,.13-.49.59-.03,1.09l-.45.59c-.14-.03-.34.03-.48,0-.73-.16-1.18-.16-1.68-.24-2.38-.39-4.44-1.34-6.41-2.82-1.15-.87-.97-.79-1.02-2.21,0-.14.05-.23,0-.72-.02-.24.02-.48,0-.72h.48c0-.24.01-.48,0-.72-.03-.49-.21-.95-.24-1.44h.48c.19-.42-.21-.78-.24-.96-.03-.15.02-.33,0-.48h.48c.02-.24-.02-.48,0-.72.03-.4-.02-.8,0-1.2.02-.49.09-.26,0-.96-.03-.23.02-.48,0-.72h.48c0-.16.02-.32,0-.48-.04-.42-.17-.96-.24-1.44h.48c.02-.42-.12-.81-.24-1.2v-.24c.15.02.32-.01.48,0,.02-.59-.05-1.18.03-1.77,1.23-8.68,2.24-17.86,5.67-25.99.15-.37.5-1.26.67-1.49.78-1.06,5.36-3.45,6.7-3.85.89-.27-.47,1.49-.61,1.79-.45,1-.49,1.55-.72,2.52-.09.4-.13.8-.24,1.2h-.48c-.02.16.02.32,0,.48-.05.47.05.97,0,1.44h-.48c-.02.16.02.33,0,.48-.2,1.57-.51,3.11-.72,4.68-.49,3.77.13,5.87.69,9.62.16,1.04.24,2.16.27,3.21h.72c-.1-1.53.35-2.91.25-4.45-.16-2.59-1.27-5.15-.73-7.79,3.01-2.33,4.77-5.34,1.44-8.4v-.24l1.91-4.92c1.35-.07,4.05-1.58,5.17-1.57,1.28.01,1.38,1.68,2.75,1.22-.65-1.08.86-1.75,1.76-2.11,3,2.29,5.72,4.9,8.96,6.86,4.36,2.64,12.14,5.61,17.1,5.56ZM49.83,4.3c.54.39,2.45,2.09,2.88,2.64.04.05-.08.36.02.46.1.1.38-.02.46.02.29.16.46.22.72.48.21.21-.2.24.72.72.13.07.92.44.96.48.21.2-.42.16.48.48,1.31.47,2.86,1.71,4.22,2.37,2,.96,3.93,1.48,6.08,2.19,1.29.42,2.6,1.05,4.02,1.38.29.07,3.18.73,3.18.42,0-.74-2.45-.98-2.93-1.15-1.43-.51-2.89-1.11-4.27-1.61-5.01-1.8-8.96-3.77-13.3-6.96-.79-.58-2.57-2.54-3.24-2.64-.82-.11-.53.34,0,.72ZM46.4,17.79c-2.04.41-5.27,3.86-5.15,6,.11,1.92,2.98,5.01,4.78,5.54,3.26.96,7.64-3.19,7.14-6.42-.37-2.32-4.25-5.63-6.76-5.12Z"/>
          <path class="cls-4" d="M40,8.38v.24c-.69-.12-.43.41-.52.79-.58,2.48-1.17,4.91-1.42,7.45l.5.15c-.54,2.63.56,5.2.73,7.79.1,1.54-.35,2.92-.25,4.45h-.72c-.03-1.05-.11-2.17-.27-3.21-.56-3.75-1.18-5.85-.69-9.62.2-1.57.51-3.11.72-4.68h.48c.02-.16-.02-.32,0-.48.05-.47-.05-.97,0-1.44h.47c.06-.16-.02-.36.01-.48.11-.4.15-.8.24-1.2l.72.24Z"/>
          <path class="cls-6" d="M27.05,36.92v.24c-.02-.06-.41-.09-.24-.36l.12-.12c.08.05.09.23.12.24Z"/>
          <path class="cls-1" d="M133.02,8.38l2.16,2.64c-.05.08.03.44-.13.7-.83,1.33-4.18,5.9-4.43,6.98-.91.07-1.55.03-2.4-.24-.17-.05-.64-.19-.72-.24-2.02-1.22-3.67-3.67-3.84-6l.24-.72c.48-.01,8.06-2.71,9.11-3.12Z"/>
          <path class="cls-16" d="M123.67,12.22c.16,2.33,1.81,4.77,3.84,6-.11.23-.38,1.1-.48,1.2-.17.18-.28-.44-.48.48-.02.08.02.16,0,.24-.69-.15-.53.51-.72.96-.36.85-.97,1.72-1.2,2.4h-.72c-.44-2.11-3.83-5.22-6.11-5.05s-5.58,3.7-5.65,5.9c-.07,2.03,3.26,5.54,5.18,5.85,2.44.39,5.57-2.09,6.34-4.3l.48.72c-.02.15,0,.33,0,.48.02.85.32.33.48.48.02.02.02.38,0,.48-.14.78-.04.43,0,.96.02.23-.03.5,0,.72.14.89.3.31.48.48.02.02.02.38,0,.48-.27,1.49-.16,1.85.4,3.33.14.36.26,1.14.8.99,0,.16,0,.32,0,.48,0,.24-.59,1.78.48,1.68,0,.24,0,.48,0,.72,0,.03-.25.24-.25.58,0,.41.16,1.57.73,1.34,0,.32,0,.64,0,.96,0,.03-.25.24-.25.58,0,.56.37,1.2.26,1.82h.47c.05.47-.03.97,0,1.44-.4,1.72-.4,4.04,0,5.76-.04.47.02.96,0,1.44h-.48c-.15.34.23.64.24.72.03.31-.02.64,0,.96h-.48c-.01.16,0,.32,0,.48s0,.32,0,.48c-.59.41-.22,1.22-.24,1.44-.02.24.03.49,0,.72-.96-.12-.47.81-.48.96-.01.16.01.32,0,.48-.99-.04-.54.79-.48,1.2.02.11.02.46,0,.48-.92,1.11-.96,1.43-1.63,2.82-.15.31-.5.48-.53.54,2.23-11.7-5.53-21.25-17.5-20.87l3.57-2.06c2.9-2.3,4.25-4.37,1.69-7.65s-5.82-4.39-8.75-.85l-2.75,4.32c.48-6.85-3.53-14.44-10.31-16.55v-.24c1.32-.04,3.61-.62,4.79-.48.03,0,.22.34.48.24v-.48c3.09-.06,6.33-.51,9.38-1.06.31-.06.59-.36.69-.38.15-.03.33.03.48,0,.33-.07.59-.21.72-.24.21-.04.5.04.72,0,.39-.07.45-.24.48-.24.15-.03.33.03.48,0,.49-.09,1.22.23,1.44-.48.24-.02.48.03.72,0,.59-.06.95-.31,1.44-.48.38-.14.79-.21,1.2-.24l.48-.24c.42.03.8-.17,1.2-.24.93-.17,1.89-.34,2.64-.96.27-.03.78-.03.96-.24.45.08.56-.02.48-.48.31-.04.65.04.96,0,.36-.05.6-.09.72-.48.23-.02.51.04.72,0,.59-.12.78-.32,1.2-.48.34-.13,1.25-.25,1.44-.48.23.06.23.28.24.48Z"/>
          <path class="cls-15" d="M127.74,50.36c-.4-1.72-.4-4.04,0-5.76.14,2.28.19,3.47,0,5.76Z"/>
          <path class="cls-15" d="M126.31,35c-.54.15-.66-.63-.8-.99-.56-1.47-.67-1.83-.4-3.33.31,1.36,1.19,2.94,1.2,4.32Z"/>
          <path class="cls-15" d="M124.63,23.49c-.28.81-.37,2.24-.48,3.12l-.48-.72c.2-.58.24-1.07.24-1.68l.24-.36-.24-.12c0-.08.02-.17,0-.24h.72Z"/>
          <path class="cls-15" d="M127.74,43.16h-.47c.11-.62-.25-1.26-.26-1.82,0-.34.25-.55.25-.58.46.67.4,1.63.48,2.4Z"/>
          <path class="cls-15" d="M127.27,39.8c-.58.23-.74-.93-.73-1.34,0-.34.25-.55.25-.58.31.46.46,1.37.48,1.92Z"/>
          <path class="cls-15" d="M126.79,37.16c-1.07.11-.47-1.44-.48-1.68.34.41.47,1.16.48,1.68Z"/>
          <path class="cls-15" d="M126.31,58.03c-.03.47-.03.92-.48,1.2-.06-.41-.51-1.24.48-1.2Z"/>
          <path class="cls-15" d="M126.79,55.87c.02-.22-.35-1.03.24-1.44.02.34.47.9-.24,1.44Z"/>
          <path class="cls-15" d="M126.55,20.13c-.12.49-.1,1.11-.72.96.19-.45.03-1.11.72-.96Z"/>
          <path class="cls-15" d="M124.63,29.01c-.04-.53-.14-.18,0-.96.36.08.37.86,0,.96Z"/>
          <path class="cls-15" d="M126.79,56.59c-.04.38-.13.74-.48.96.01-.15-.48-1.08.48-.96Z"/>
          <path class="cls-15" d="M127.74,51.8c-.01.26.07.6-.24.72,0-.07-.39-.37-.24-.72h.48Z"/>
          <path class="cls-15" d="M124.63,29.73h.48s0,.48,0,.48c-.18-.17-.34.41-.48-.48Z"/>
          <path class="cls-15" d="M124.15,27.09h.48s0,.48,0,.48c-.16-.15-.46.37-.48-.48Z"/>
          <path class="cls-15" d="M127.03,19.41v.47s-.48,0-.48,0c.2-.92.31-.3.48-.48Z"/>
          <path class="cls-15" d="M127.5,53.47v.48s-.48,0-.48,0c0-.16-.01-.32,0-.48h.48Z"/>
          <path class="cls-7" d="M36.4,40.28c.04-1.7.36-2.06.79-3.65.12-.45.46-.76-.31-.67.33-1.03.64-2.09.96-3.12l.73.11.23.71-2.4,6.62Z"/>
          <path class="cls-7" d="M36.4,41c-.09,2.32.05,4.53,0,6.85,0,.46.11.93-.25,1.31-.3-2.64-.58-4.54-.23-7.32.06-.45-.3-.97.47-.84Z"/>
          <path class="cls-7" d="M35.2,42.68c-.02,1.68,0,3.36,0,5.04-.78.14-.4-.39-.47-.84-.22-1.41-.19-1.95,0-3.36.06-.45-.31-.97.47-.84Z"/>
          <path class="cls-7" d="M36.88,36.2c-.36,1.12-.74,2.23-1.09,3.36-.12.39.05.85-.59.72.2-1.17.58-2.32,1.02-3.43.15-.37.06-.77.66-.65Z"/>
          <path class="cls-7" d="M35.68,52.51l.48,1.92c-.34,0-.64-.17-.96-.24l.45-.59c-.46-.5.02-.97.03-1.09Z"/>
          <path class="cls-7" d="M36.16,49.88c.7-.2.73,1.19.71,1.77,0,.18-.22.33-.23.39-.42-.59-.39-1.47-.48-2.16Z"/>
          <path class="cls-7" d="M34.72,54.19l.24.48h-1.2c.07-.49-.39-.49-.72-.72.5.08.95.08,1.68.24Z"/>
          <path class="cls-7" d="M35.2,50.36c-.07-.78,0-.86,0-1.44.39.23.39,1.2,0,1.44Z"/>
          <path class="cls-7" d="M35.2,41.96c0-.43-.09-.44,0-1.2.38.16.38,1.04,0,1.2Z"/>
          <path class="cls-7" d="M44.07,67.87c.08.15.16.34.24.48-.11.04-.22.13-.24.24-.71.05-.56-.38-.72-.72h.72Z"/>
          <path class="cls-7" d="M37.6,56.59c.92-.18.45.98.48,1.2-.31-.29-.43-.79-.48-1.2Z"/>
          <path class="cls-7" d="M35.2,50.84h.48c0,.32,0,.64,0,.96h-.48c-.04-.31.05-.67,0-.96Z"/>
          <path class="cls-7" d="M38.08,58.27c.61-.15.6.47.72.96-.55.16-.68-.49-.72-.96Z"/>
          <path class="cls-7" d="M40.72,63.31c-.49.02-.74-.24-.72-.72.17.17.31-.24.72.72Z"/>
          <path class="cls-7" d="M42.63,66.19c-.49.02-.73-.24-.72-.72.1.12.24-.14.72.72Z"/>
          <path class="cls-7" d="M36.88,53.95h.48c.1.28-.23.45-.24.48l-.24-.48Z"/>
          <path class="cls-7" d="M37.12,54.91c.17.16.39-.4.48.48h-.48s0-.48,0-.48Z"/>
          <path class="cls-7" d="M39.04,60.67c.23.17.35-.39.48.48h-.47s-.01-.48-.01-.48Z"/>
          <path class="cls-7" d="M39.52,61.63c.23.21.18-.41.48.48h-.48s0-.48,0-.48Z"/>
          <path class="cls-7" d="M36.64,52.75h.48c.1.26-.24.45-.24.48l-.24-.48Z"/>
          <path class="cls-15" d="M114.8,10.3v.48c-.28.1-.43-.23-.48-.24l.48-.24Z"/>
          <path class="cls-6" d="M134.34,4.06c.16.08.16.16,0,.24v-.24Z"/>
          <path class="cls-15" d="M26.57,41.96c-.36-.08-.37-.86,0-.96.09.7.02.47,0,.96Z"/>
          <path class="cls-15" d="M26.09,44.36c.03.18.43.54.24.96h-.48c-.02-.31-.1-.8.24-.96Z"/>
          <path class="cls-15" d="M26.57,43.16c-.02.24.02.48,0,.72h-.48s0-.72,0-.72h.48Z"/>
          <path class="cls-15" d="M26.09,46.76c.01.24,0,.48,0,.72h-.48s0-.72,0-.72h.48Z"/>
          <path class="cls-15" d="M25.61,48.92c-.25-.18-.38-.64,0-.72.05.49,0,.58,0,.72Z"/>
          <path class="cls-15" d="M27.05,39.8c.01.16,0,.32,0,.48h-.48s0-.48,0-.48h.48Z"/>
          <path class="cls-15" d="M100.89,13.42c.29.59-1.3.75-1.81.74-.32,0-.56-.26-.59-.26.67-.42,1.63-.45,2.4-.48Z"/>
          <path class="cls-15" d="M106.17,12.46c.03,1.08-1.02.52-1.44.48.33-.28,1.02-.45,1.44-.48Z"/>
          <path class="cls-15" d="M108.33,11.98c.16.91-.91.46-1.2.48.28-.3.8-.45,1.2-.48Z"/>
          <path class="cls-15" d="M110.24,11.5c.11.95-.77.47-.96.48.22-.35.58-.44.96-.48Z"/>
          <path class="cls-15" d="M102.81,13.18c.1.95-.37.25-.48.24l.48-.24Z"/>
          <path class="cls-15" d="M103.77,12.94v.48c-.28.1-.45-.23-.48-.24l.48-.24Z"/>
          <path class="cls-15" d="M111.44,11.26v.48c-.26.1-.44-.23-.48-.24l.48-.24Z"/>
          <path class="cls-15" d="M84.59,14.13l-1.44.24v-.48c.57.01,1.32.24,1.44.24Z"/>
          <path class="cls-15" d="M80.99,13.89c-.11,0-.57.44-.96.24v-.48c.31-.02.8-.1.96.24Z"/>
          <path class="cls-15" d="M79.56,13.66c-.09.01-.36.4-.72.24v-.48c.26.01.6-.07.72.24Z"/>
          <path class="cls-12" d="M66.61,29.73c-.02.07.02.17,0,.24-.07.22-.16.41-.24.72-.02.08-.22.17-.24.24-1.59-.99-4.17-.96-5.74-1.82-.25-.14-.98-.84-.74-1.06l6.95,1.68Z"/>
          <path class="cls-7" d="M105.93,15.81l.24.96c-.13.03-.38.17-.72.24v-.72s-.36,0-.36,0l-.12.72c-.1.02-.38.32-.69.38-3.06.55-6.29,1.01-9.38,1.06l-.48.24c-1.19-.14-3.48.44-4.79.48-.04,0-.57-.54-.72,0-.91-.24-2.45-.59-3.36-.72l12.32-1.23c2.55-.13,5.62-1.3,8.06-1.41Z"/>
          <path class="cls-9" d="M46.4,17.79c2.51-.51,6.4,2.8,6.76,5.12.51,3.23-3.88,7.38-7.14,6.42-1.8-.53-4.67-3.61-4.78-5.54-.12-2.14,3.11-5.59,5.15-6Z"/>
          <path class="cls-2" d="M125.35,9.82c1.89-.65,7.71-3.13,9.23-3.13.36,0,.7-.16.6.36-.57.68-1.36,1.01-2.16,1.32-1.05.41-8.63,3.11-9.11,3.12-.03,0-.24-.35-.47-.24-.06.14.04.43,0,.48-.19.23-1.1.35-1.44.48-.27-.37-1.45-.07-1.2.48-.21.04-.49-.02-.72,0s-.48-.02-.72,0v.48c-.3.04-.65-.04-.96,0-.87.1-.32.29-.48.48-.18.21-.69.21-.96.24-.02,0-.13-.22-.47-.15-.52.1-2.39.6-2.17,1.11-.4.07-.78.27-1.2.24-.03,0-.24-.33-.48-.24v.48c-.41.03-.82.1-1.2.24l-.25-.57.49-.39c.15-.03.33.03.48,0,2.55-.43,6.84-2.03,9.39-2.96,1.19-.43,2.91-1.03,3.79-1.84Z"/>
          <path class="cls-8" d="M49.83,3.58c.67.09,2.45,2.06,3.24,2.64,4.34,3.19,8.29,5.16,13.3,6.96v.96c-2.15-.71-4.08-1.23-6.08-2.19-1.37-.66-2.91-1.9-4.22-2.37v-.48s-.48,0-.48,0c-.04-.04-.83-.41-.96-.48.03-.49-.24-.71-.72-.72-.26-.26-.43-.32-.72-.48.09-.44-.04-.55-.48-.48-.43-.55-2.33-2.25-2.88-2.64v-.72Z"/>
          <path class="cls-1" d="M40,8.62c3.33,3.05,1.57,6.06-1.44,8.4l-.5-.15c.25-2.54.84-4.97,1.42-7.45.09-.38-.18-.91.52-.79Z"/>
          <path class="cls-12" d="M66.37,13.18c1.38.5,2.84,1.1,4.27,1.61.47.17,2.92.41,2.93,1.15,0,.31-2.89-.35-3.18-.42-1.42-.33-2.73-.95-4.02-1.38v-.96Z"/>
          <path class="cls-7" d="M125.35,9.82c-.88.81-2.61,1.41-3.79,1.84-2.55.92-6.84,2.52-9.39,2.96-.14-.65.33-.46.71-.6,4.12-1.47,8.34-2.77,12.47-4.2Z"/>
          <path class="cls-2" d="M108.56,15.33s.13.18.31.17c.59-.04,1.21-.47,1.85-.41l-.72.96c-.23.03-.48-.02-.72,0-.34.03-1.65-.42-1.44.48-.15.03-.33-.03-.48,0l-.48-.24v.48c-.22.04-.51-.04-.72,0l-.24-.96c.16,0,.32,0,.48,0,.23,0,1.11.3,1.66-.02l.02-.46c.16-.01.32.02.48,0Z"/>
          <path class="cls-7" d="M111.68,14.61l-.49.39.25.57c-.49.17-.85.42-1.44.48l.72-.96c-.63-.06-1.26.37-1.85.41-.18.01-.29-.17-.31-.17.69-.42,1.86-.74,2.65-.87.35-.05.44.15.47.15Z"/>
          <path class="cls-7" d="M108.09,15.33l-.02.46c-.55.32-1.43.01-1.66.02.44-.47,1.1-.44,1.68-.48Z"/>
          <path class="cls-15" d="M54.62,8.62c-.92-.48-.51-.51-.72-.72.48.01.75.23.72.72Z"/>
          <path class="cls-15" d="M49.83,3.58v.72c-.53-.38-.82-.83,0-.72Z"/>
          <path class="cls-15" d="M38.56,11.26c-.02.16.02.32,0,.48h-.48c.02-.15-.02-.32,0-.48h.48Z"/>
          <path class="cls-15" d="M39.04,9.34c-.03.12.05.32-.01.47h-.47c.02-.14-.02-.31,0-.47h.48Z"/>
          <path class="cls-15" d="M55.58,9.1h.48s0,.48,0,.48c-.9-.32-.27-.28-.48-.48Z"/>
          <path class="cls-15" d="M52.7,6.94c.43-.07.57.04.48.48-.07-.04-.36.08-.46-.02-.1-.1.02-.4-.02-.46Z"/>
          <path class="cls-7" d="M123.91,11.5l-.24.72c-.01-.2,0-.42-.24-.48.04-.05-.05-.34,0-.48.23-.11.44.24.47.24Z"/>
          <path class="cls-7" d="M116.96,13.89c-.75.62-1.71.79-2.64.96-.22-.51,1.65-1,2.17-1.11.34-.07.45.15.47.15Z"/>
          <path class="cls-7" d="M109.28,16.05c-.22.71-.95.39-1.44.48-.21-.9,1.1-.45,1.44-.48Z"/>
          <path class="cls-7" d="M121.99,12.22c-.42.16-.61.36-1.2.48-.25-.55.92-.85,1.2-.48Z"/>
          <path class="cls-2" d="M104.97,17.01l.12-.72h.36s0,.72,0,.72c-.15.03-.33-.03-.48,0Z"/>
          <path class="cls-7" d="M120.07,12.7c-.12.39-.36.43-.72.48v-.48c.24-.03.48.02.72,0Z"/>
          <path class="cls-10" d="M94.9,18.45v.48c-.26.1-.45-.24-.48-.24l.48-.24Z"/>
          <path class="cls-7" d="M107.37,16.53s-.09.17-.48.24v-.48s.48.24.48.24Z"/>
          <path class="cls-7" d="M113.12,15.09l-.48.24v-.48c.24-.09.45.24.48.24Z"/>
          <path class="cls-7" d="M118.39,13.18c.08.46-.03.56-.48.48.16-.19-.39-.38.48-.48Z"/>
          <path class="cls-8" d="M123.91,24.21c0-.16.02-.33,0-.48l.24.12-.24.36Z"/>
          <g>
            <path class="cls-9" d="M44.07,67.87c-2.74-5.39-2.59-13.09.53-18.3s9.1-7.76,15.06-7.85l-2.95-1.72c-3.31-2.17-4.8-5.34-1.61-8.48,3.61-3.55,6.59-1.98,9.08,1.73l1.48,2.71c.02-1.65.13-3.42.48-5.04.02-.07.22-.16.24-.24l6.95,1.44c-1.93,2.08-3.93,5.3-3.36,8.28.14.75,1.22.74,1.84,1.03,2.96,1.37,6.11,3.88,3.96,7.41-1.06,1.73-3.34,3.8-5.45,3.68-3.39-.19-4.55-4.03-6.02-6.45-3.25-.62-9.29,2.57-9.45,6.07-.13,3.1,3.48,5.76,6.01,6.96-4.88,2.64-9.34,8.17-2.56,11.92,1.19.66,5.34,1.9,6.28.92.29-.29,1.05-2.5,1.55-3.25,2.18-3.29,4.78-4.23,7.92-1.44,1.81,1.61,3.13,3.65,2.16,6.12-.08,0-.16,0-.24,0-6.56-.02-13.16.14-19.66.96-.4.3.03.44.36.48.53.07,1.37.04,1.93.01,5.64-.26,10.99-.45,16.65-.49-1.02,1.83-3.32,2.45-5.03,3.36-.33.16-.2.47-.24.72l-6.47.48v.72s6.23-.48,6.23-.48l.24.72c.14,1.99.81,3.81,2.15,5.4,4.11,4.86,8.74.07,10.91-3.97,1.4,2.53,3.89,6.24,7.19,6.01s6.79-6.44,5.88-9.6c3.43-.11,7.26.18,10.55-.72.58.25,1.04.36,1.68.72,2.05,1.16,4.97,3.29,4.45,6.01-.83,4.37-6.75,7.45-9.72,2.98l-2.64-4.43c-.07,11.88-8.22,18.84-19.99,17.72-9.03-.86-14.63-8.73-14.3-17.48-1.01,1.22-1.45,2.58-2.51,3.84-2.6,3.09-4.98,3.48-8.04.6-3.92-3.7-2.51-6.64,1.52-9.29l2.8-1.39c-6.04-.09-12.43-2.5-15.58-7.92-.08-.14-.16-.33-.24-.48Z"/>
            <path class="cls-9" d="M85.55,18.45c.9.13,2.45.48,3.36.72.22.06.48.17.72.24,6.78,2.12,10.79,9.7,10.31,16.55l2.75-4.32c2.93-3.54,6.22-2.4,8.75.85s1.21,5.35-1.69,7.65l-3.57,2.06c11.97-.38,19.74,9.17,17.5,20.87-.55,1.11-.79,2.59-1.33,3.83-.42.98-1.42,2.19-1.55,3.13-2.7,2.87-5.5,4.89-9.35,6-1.37-.11-3.69.39-5.27.48-3.34.19-6.59.19-9.95.24-.41,0-1.07-.15-1.32.24-.43-.19-1.45-.36-1.68-.48-.79-.41-1.61-1.52-2.16-1.92l8.06-.93c.98.39,1.52-.08,2.39-.25.57-.11,1.74.33,1.54-.5l-12.95.48c-.97-2.45.05-4.21,1.92-5.88,2.99-2.68,5.78-2.08,7.87,1.25.38.61,1.4,3.25,1.54,3.37,1.35,1.18,5.57-.83,6.87-1.76,5.81-4.16,1.75-8.82-3.09-11.14,2.67-1.73,6.62-4.48,5.89-8.17-.66-3.34-6.44-5.87-9.56-4.79-1.54,4.9-5.45,9.02-10.09,4.3s.03-8.27,4.65-9.98c.54-2.79-.37-5.36-2.16-7.5-.29-.35-.38-.43-.72-.72-2.05-1.77-3.73-2-5.99-.24-.08,0-.16,0-.24,0l-7.91-.24c-1.36-.99-3.3-1.3-4.79-.48l-7.67-1.44c.02-.07-.02-.17,0-.24,2.62-8.26,10.46-12.5,18.94-11.27Z"/>
            <path class="cls-12" d="M111.44,76.02c.18.01.75.46,1.2.24,1.06.85-4.17,1.03-4.31,1.44-.64-.36-1.1-.47-1.68-.72-.15-.06-.33-.36-.48-.48,1.58-.09,3.9-.59,5.27-.48Z"/>
            <path class="cls-5" d="M73.56,32.13c1.97.31,3.99.53,5.99.48l.48.24c1.11,1.31,2.4,2.59,2.88,4.32l3.11-4.32c.16,0,.32,0,.48,0,.03,0,.27.24.58.25,2.28.09,4.58-.08,6.85-.01,1.79,2.14,2.7,4.72,2.16,7.5-4.62,1.71-9.41,5.14-4.65,9.98s8.56.6,10.09-4.3c3.11-1.08,8.89,1.46,9.56,4.79.73,3.68-3.22,6.44-5.89,8.17,4.85,2.32,8.91,6.97,3.09,11.14-1.3.93-5.52,2.94-6.87,1.76-.14-.12-1.16-2.76-1.54-3.37-2.09-3.33-4.88-3.93-7.87-1.25-1.86,1.67-2.88,3.43-1.92,5.88.03.07-.03.18,0,.24-4.36-.04-8.73.05-13.09.02-.45,0-.77-.26-.81-.26.97-2.47-.34-4.51-2.16-6.12-3.14-2.8-5.74-1.85-7.92,1.44-.5.75-1.26,2.96-1.55,3.25-.95.97-5.1-.27-6.28-.92-6.78-3.75-2.32-9.28,2.56-11.92-2.53-1.19-6.14-3.86-6.01-6.96.15-3.51,6.19-6.69,9.45-6.07,1.47,2.42,2.64,6.26,6.02,6.45,2.11.12,4.39-1.95,5.45-3.68,2.16-3.53-1-6.03-3.96-7.41-.63-.29-1.7-.29-1.84-1.03-.57-2.98,1.43-6.19,3.36-8.28.08.01.16-.01.24,0ZM83.07,51.4c-3.03.02-7.77,4.69-7.85,7.71s4.76,8.04,7.81,8.04,7.99-4.88,7.99-7.8-4.95-7.97-7.95-7.95Z"/>
            <path class="cls-5" d="M95.86,77.7c.08,0,.16,0,.24,0,.91,3.16-2.48,9.36-5.88,9.6s-5.79-3.48-7.19-6.01c-2.18,4.03-6.81,8.83-10.91,3.97-1.34-1.59-2.01-3.42-2.15-5.4-.01-.16,0-.32,0-.48h1.2s0-.48,0-.48c5.01,0,9.67-.71,14.62-.96v.48s1.05,0,1.05,0l.15-.48c2.94-.14,5.93-.15,8.87-.24Z"/>
            <path class="cls-10" d="M75.72,74.34c4.95-.02,9.91.02,14.86,0,.15.09.34.14.48.24.55.4,1.37,1.5,2.16,1.92-.2.53-.61.47-1.06.49-5.35.32-10.73.32-16.08.71-1.7.12-3.32.55-5.05.48-.46-.02-.96.25-.83-.48,1.72-.91,4.02-1.53,5.03-3.36.16,0,.32,0,.48,0Z"/>
            <path class="cls-13" d="M94.9,76.98c.33.15.79.38.96.72-2.94.09-5.93.1-8.87.24-.4.02-.8-.02-1.2,0-4.95.25-9.62.96-14.62.96h-1.2c.02-.15-.03-.33,0-.48.04-.25-.09-.55.24-.72-.13.73.37.46.83.48,1.73.07,3.35-.35,5.05-.48,5.34-.38,10.72-.38,16.08-.71.45-.03.86.04,1.06-.49.23.12,1.25.29,1.68.48Z"/>
            <path class="cls-3" d="M75.96,73.38l-.24.96c-.16,0-.32,0-.48,0-5.66.04-11.01.23-16.65.49-.56.03-1.4.06-1.93-.01-.33-.04-.75-.18-.36-.48,6.5-.82,13.1-.98,19.66-.96Z"/>
            <path class="cls-7" d="M90.1,73.62c.06.12.48.4.48.72-4.95.02-9.91-.02-14.86,0l.24-.96c.08,0,.16,0,.24,0,.04,0,.36.25.81.26,4.36.03,8.73-.06,13.09-.02Z"/>
            <path class="cls-3" d="M106.17,76.5c.15.12.33.41.48.48-3.29.9-7.12.61-10.55.72-.08,0-.16,0-.24,0-.16-.34-.63-.57-.96-.72.25-.4.91-.24,1.32-.24,3.36-.04,6.61-.04,9.95-.24Z"/>
            <path class="cls-3" d="M74.28,31.41c-.25.14-.55.47-.72.72-.08-.01-.16.01-.24,0l-6.95-1.44c.08-.31.17-.5.24-.72l7.67,1.44Z"/>
            <path class="cls-3" d="M69.97,78.42c-.03.15.02.33,0,.48,0,.08,0,.16,0,.24h-.24l-6.23.48v-.72s6.47-.48,6.47-.48Z"/>
            <path class="cls-13" d="M69.97,79.38c0,.16-.01.32,0,.48l-.24-.72h.24c0,.08,0,.16,0,.24Z"/>
            <path class="cls-3" d="M90.1,73.38l12.95-.48c.2.83-.97.39-1.54.5-.87.17-1.41.64-2.39.25l-8.06.93c-.14-.1-.33-.15-.48-.24,0-.32-.42-.6-.48-.72-.03-.06.03-.17,0-.24Z"/>
            <path class="cls-15" d="M79.08,31.89c.15.11.31.55.48.72-2,.06-4.02-.17-5.99-.48.16-.25.47-.58.72-.72,1.5-.82,3.44-.51,4.79.48Z"/>
            <path class="cls-10" d="M93.22,32.37c-1.8-.06-3.62.07-5.41.01-.32-.01-.55-.25-.58-.25,2.26-1.77,3.94-1.53,5.99.24Z"/>
            <path class="cls-3" d="M86.99,32.13l-.48.72c-.16,0-.32,0-.48,0-1-.05-2.01.06-3.01,0-.93-.04-2.13-.64-2.99,0l-.48-.24c-.17-.17-.32-.61-.48-.72l7.91.24Z"/>
            <path class="cls-12" d="M93.22,32.37c.33.29.43.37.72.72-2.28-.07-4.58.1-6.85.01-.31-.01-.55-.25-.58-.25l.48-.72c.08,0,.16,0,.24,0,.03,0,.26.24.58.25,1.8.06,3.62-.07,5.41-.01Z"/>
            <path class="cls-10" d="M89.62,19.17v.24c-.24-.07-.5-.18-.72-.24.15-.54.68,0,.72,0Z"/>
            <path class="cls-9" d="M123.91,23.49c.02.07,0,.16,0,.24.02.15,0,.32,0,.48,0,.6-.04,1.1-.24,1.68-.77,2.21-3.9,4.69-6.34,4.3-1.92-.31-5.24-3.83-5.18-5.85.07-2.2,3.47-5.74,5.65-5.9s5.67,2.94,6.11,5.05Z"/>
            <path class="cls-9" d="M83.07,51.4c2.99-.02,7.94,4.96,7.95,7.95s-5.07,7.8-7.99,7.8-7.89-4.93-7.81-8.04,4.81-7.68,7.85-7.71Z"/>
            <path class="cls-1" d="M86.03,32.85l-3.11,4.32c-.48-1.72-1.77-3.01-2.88-4.32.86-.63,2.06-.03,2.99,0,1,.05,2.01-.06,3.01,0Z"/>
            <path class="cls-11" d="M86.99,77.94l-.15.48h-1.05s0-.48,0-.48c.4-.02.8.02,1.2,0Z"/>
            <path class="cls-11" d="M71.16,78.9v.48s-1.2,0-1.2,0c0-.08,0-.16,0-.24s0-.16,0-.24h1.2Z"/>
          </g>
        </g>
      </g>
    </g>
  </g>
</svg>