<?xml version="1.0" encoding="UTF-8"?>
<svg id="Layer_2" data-name="Layer 2" xmlns="http://www.w3.org/2000/svg" viewBox="0 0 148.12 180.64">
  <defs>
    <style>
      .cls-1 {
        fill: #7d7373;
      }

      .cls-2 {
        fill: #b3acac;
      }

      .cls-3 {
        fill: #9d9494;
      }

      .cls-4 {
        fill: #b0a8a8;
      }

      .cls-5 {
        fill: #c0baba;
      }

      .cls-6 {
        fill: #b2abab;
      }

      .cls-7 {
        fill: #8d8383;
      }

      .cls-8 {
        fill: #867c7c;
      }

      .cls-9 {
        fill: #908787;
      }

      .cls-10 {
        fill: #968d8d;
      }

      .cls-11 {
        fill: #8b8181;
      }

      .cls-12 {
        fill: #817777;
      }

      .cls-13 {
        fill: #847a7a;
      }

      .cls-14 {
        fill: #8a7f7f;
      }
    </style>
  </defs>
  <g id="Layer_1-2" data-name="Layer 1">
    <g>
      <path class="cls-5" d="M121.75,89.46v-6.61c-.41-2.1-.49-4.23-.72-6.35,1.06,4.19,1.61,8.74.72,12.95Z"/>
      <path class="cls-2" d="M137.33,55.63c-.36.43-1.05.61-1.58.7-1.68.27-4.47.26-6.09.26,2.49-.68,5.11-.53,7.67-.96Z"/>
      <path class="cls-5" d="M43.59,81.3c-.06-1.94-.77-7.45.48-8.64-.01,1.2-.49,2.39-.5,3.48-.02,1.55.73,3.57.02,5.16Z"/>
      <path class="cls-5" d="M.68,180.61c-.48.07-.39.04-.54-.3-.39-.89.09-3.04,1.02-3.54l-.48,3.84Z"/>
      <path class="cls-2" d="M147.64,41.96c-.63-2.68-.31-5.63-.48-8.4l.48,8.4Z"/>
      <path class="cls-2" d="M148.12,48.92c-.72.13-.46-.37-.48-.83-.04-1.22-.17-2.84.24-3.97-.08,1.62.22,3.18.24,4.8Z"/>
      <path class="cls-6" d="M116.48,150.38c-.09-.66-.42-1.55-.48-2.28-.07-.91.04-1.84,0-2.76,0,.05.21.27.25.58.16,1.37.12,3.05.23,4.46Z"/>
      <path class="cls-2" d="M38.56,61.63c-1.15-.55-.95-1.9-1.2-2.88.49.78.88,1.95,1.2,2.88Z"/>
      <path class="cls-5" d="M25.61,51.32c.66.79,1.87,1.03,2.16,1.92-1.02-.65-1.39-.96-2.16-1.92Z"/>
      <path class="cls-2" d="M38.8,62.35s-.15-.23-.24-.48l.24.48Z"/>
      <path class="cls-5" d="M29.45,53.95c-.28-.1-.38-.2-.48-.24l.48.24Z"/>
      <path class="cls-5" d="M30.17,54.19c-.28-.08-.41-.22-.48-.24l.48.24Z"/>
      <path class="cls-6" d="M146.68,52.04l.48-.48c-.12.1-.22.29-.48.48Z"/>
      <path class="cls-2" d="M40.48,64.99c-.4-.22-.76-.54-.96-.96.45.2.69.57.96.96Z"/>
      <path class="cls-5" d="M28.73,53.72c-.17-.08-.22-.23-.24-.24l.24.24Z"/>
      <path class="cls-10" d="M24.65,49.4c.03-.18.24-.22.24-.24l-.24.24Z"/>
      <path class="cls-6" d="M50.31.94c.08-.08.16-.16.24-.24l-.24.24Z"/>
      <path class="cls-10" d="M24.89,50.36c-.04-.07-.21-.14-.24-.24l.24.24Z"/>
      <path class="cls-2" d="M147.64,51.32l.48-.48c-.07.33-.34.34-.48.48Z"/>
      <path class="cls-5" d="M28.25,53.48c-.13-.07-.19-.21-.24-.24l.24.24Z"/>
      <g>
        <path class="cls-6" d="M135.66,4.78c.16.07.32.16.48.24-.15.67.5.55.96.72,1.21.46,2.04.27.96,1.92-.08.12-.47.35-.72.72-.79,1.17-1.08,1.25-1.44,2.64-.33.18-1.1-.21-.96.96-.48.11-.49.17-.78.53-.85,1.04-3.2,6.28-3.53,6.43-.12.05-.52-.07-.78.05-1.42.67-3.59,5.49-3.78,7.14-.31.4-.44-.04-.48-.36-.15-1.13.31-2,.72-3,.1-.25.42-1.39.48-1.44.22-.17.33.4.48-.48.03-.15-.03-.34,0-.48.67.15.55-.5.72-.96.05-.13-.05-.42,0-.48.22-.25,1.08-.1.72-1.44-1.17-.1-1,.9-1.2,1.2-.34.52-.61.76-.96,1.44-.64-.12-.75.73-.96,1.2-.33.75-.41,1.32-.96,2.16-.14.21-.55-.11-.72,1.32-.04.34-.3,2.02.48,1.8,0,.16,0,.32,0,.48,0,.03-.2.14-.19.51s.17,1.12.43,1.41c0,.24,0,.48,0,.72.01,1.19.28.53.48.72.02.02.02.38,0,.48-.3,1.65-.17,1.86.57,3.4.17.35.04.81.63.67,0,.16,0,.32,0,.48,0,.03-.24.19-.23.55,0,.46.18,1.64.71,1.36,0,.16,0,.32,0,.48,0,.03-.25.23-.25.58,0,.48.18,1.87.73,1.58,0,.24,0,.48,0,.72,0,.03-.26.27-.26.59,0,.68.36,1.35.27,2.05h.47c.05.47-.03.97,0,1.44-.4,1.55-.4,3.73,0,5.28-.03.47.01.96,0,1.44h-.48c-.2.4.22.81.24.96.04.31-.03.64,0,.96h-.48c-.1.28.23.45.24.48.03.15-.02.32,0,.48h-.48c-.02.24.02.48,0,.72-.03.4.04.81,0,1.2l-.44.03c-.33.54-.03,1.04-.04,1.17-.01.16,0,.32,0,.48-.79-.16-.56.77-.72,1.2-.05.12.05.36,0,.48-.51,1.31-1.84,3.08-2.4,4.43-.5,1.19-.72,2.55-1.23,3.81-.33.83.03.3.51.39-.57,1.24-1.97,4.37-1.92,5.52l-.72-.24c-.11.31.24.45.24.48.04.85-.36,1.88-.24,3,.43,4.11,1.39,8.38.96,12.59-.46-.23-.91,1.06-.96,1.44-.11.81.08,1.8,0,2.64-.59.12-.51-.28-.66-.65-1.27-3.25-2.25-6.93-3.42-10.27-2.05-5.85-4.33-11.63-6.42-17.47l16.67-27.35-10.5-23.43c.56-.17,1.17-.61,1.73-.79,4.77-1.54,12.07-3.55,16.37-5.69.58-.29,1.13-.58,1.55-1.09l-.6-.36c-9.48,2.45-19.18,7.81-28.88,9.12-.89.12-.32.3-.48.48-.02.02-.35,0-.48,0-.24-.01-.08-.05-.48,0-.3.04-.69-.06-.96,0-.24.05-.44.23-.48.24-1.05.19-1.4.14-2.4.24-.42.04-.45.24-.48.24-.23.03-.49-.03-.72,0-.34.05-.66.03-.96.24-.38-.03-.81-.01-1.2,0-.55.02-.74.21-.96.24s-.51-.05-.72,0c-.37.08-.38.08-.72.24-.15.07-.37.04-.48.24-3.47-.62-8.86.79-12.71,0l-6.2-.92-5.79,13.16c-.68-.12-1.31-.07-2.16-.24l-5.75-17.51c1.57.64,3.19,1.14,4.79,1.68.24.08.47.16.72.24s.47.16.72.24c1.92.61,3.86,1.38,5.94,1.61.35.04.86.33.77-.29-.39-.14-.77-.39-1.15-.53-1.52-.55-3.91-1.35-5.56-1.51-.23-.02-.49-.01-.72,0-.01-.15.06-.31-.02-.45-2.33-.62-4.48-1.74-6.69-2.67.11-.72-.17-.39-.48-.48-.64-.2-1.09-.16-1.68-.24-.46-.4-.76-1.14-1.44-.96,0-.08.01-.16,0-.24-.02-.15.02-.32,0-.48-.16-.03-.33.02-.48,0-.08-.01-.16.01-.24,0,.14-.72-.28-.39-.48-.48-.95-.44-1.32-.91-2.16-1.44.09-.72-.51-.57-.72-.72-1.11-.79-1.86-2.01-3.12-2.64-.01-.92,1.06-2.25,2-2.1.53.09,4.05,3.4,4.84,4.01,17.13,13.13,44.75,11.21,63.93,3.77,4.26-1.65,7.57-4.68,12.31-4.5,1.11.04,2.04.91,2.99.5Z"/>
        <path class="cls-6" d="M138.53,7.9c.2-.19.85-.75,1.06-.71.29.48,1.22,1.12,1.42,1.49,2.02,3.77,3.28,10.53,3.95,14.74,1.19,7.52,1.32,14.66,1.58,22.21.05,1.35.8,4.03.26,5.2-.04.09-1.77,1.78-.36,1.2-.56.42-1.06.86-1.68,1.2.12-.7-.31-.54-.77-.41-5.01,1.34-10.18,3.31-15.53,3.05-.14-.54.21-1.1.21-1.57,0-.2-.21-.32-.21-.35,0-.24,0-.48,0-.72h.48c.2-.39-.23-.84-.24-.96-.02-.24,0-.48,0-.72h.48c-.04-.64.2-1.39-.24-1.92.05-1.19-.07-2.41,0-3.6.02-.28.49-1.1.24-1.68h-.48c.02-.24-.02-.48,0-.72.01-.17.47-.75.24-1.2h-.48c.01-.24,0-.48,0-.72,0-1.91-.29-3.03-.69-4.96-.09-.44.22-.94-.51-.79-.06-.44.05-.98,0-1.44-.06-.54-.16-1.7-.72-1.44,0-.16,0-.32,0-.48,0-.19.49-.95-.24-1.44,0-.56.01-1.12,0-1.68,0-.16,0-.32,0-.48s0-.32,0-.48c.75-.41.19-1.73.27-1.88.23-.41.92-.05.93-1.72,0-.16,0-.32,0-.48.52-.21,1.85-3.82,2.17-4.55.91.09,1.27.72,1.43-.24.18-1.09,3.57-5.97,4.32-7.68.13-.29.25-.07.48-.96,1-.56,1.41-1.82,2.16-2.64.11-.12.35-.36.48-.48Z"/>
        <path class="cls-9" d="M50.55.7c.17-.18.84-.74,1.04-.7,2.82,2.43,5.74,4.97,8.95,6.9,17.23,10.32,45.4,7.69,63.06-.63,2.12-1,4.09-2.78,6.49-3.1,1.69-.22,3.3.31,4.91.73.43.11.78.05.66.65-.08.02-.14.08-.2.13l.2.11c-.96.42-1.89-.45-2.99-.5-4.74-.19-8.05,2.84-12.31,4.5-19.18,7.44-46.8,9.37-63.93-3.77-.79-.6-4.31-3.92-4.84-4.01-.94-.15-2.01,1.17-2,2.1,0,.16,0,.32,0,.48-.32-.35-1.27-.27-.96-1.44.18-.09.44-.41.74-.58.69-.4.36-.06.94-.61l.24-.24Z"/>
        <path class="cls-10" d="M24.89,48.92c.11-1.69.27-3.45.51-5.13,1.21-8.65,2.23-18.39,4.4-26.78.61-2.36,1.77-6.69,2.72-8.8,1.02-2.26,4.96-4.07,7.24-4.99,2.52-1.02,5.28-1.5,7.8-2.54.58.21,1,.8.82,1.45-.76.24-.68-.33-1.53-.24l-5.15,1.71c.37.99-.48,1.49-.5,1.58-.16.67.41,1.22-.72,1.03h-.48c.05-.16-.08-.52,0-.78.05-.14.87-.7.59-1.38-1.89.51-5.02,1.78-6.37,3.22-.66.7-2.23,5.3-2.61,6.5-3.22,10.19-4.27,23.05-5.55,33.79-.05.39-.15.83-.46,1.1-.03-.14-.34-.42-.24-.72h-.23c.12.42-.14.67-.24.96Z"/>
        <path class="cls-8" d="M136.14,4.54s.45,0,.48,0c1.17.26,3.6,1.98,4.44,2.87,3.81,4.06,5.76,20.37,6.11,26.15.17,2.76-.15,5.71.48,8.4l.24,2.16c-.41,1.13-.28,2.74-.24,3.97.02.46-.24.96.48.83,0,.64,0,1.28,0,1.92l-.48.48c-.1.1-.36.14-.48.24l-.48.48c-.05.04-.19-.04-.24,0-1.41.58.31-1.11.36-1.2.54-1.17-.22-3.84-.26-5.2-.26-7.55-.4-14.69-1.58-22.21-.67-4.21-1.93-10.97-3.95-14.74-.2-.38-1.13-1.01-1.42-1.49-.21-.04-.85.53-1.06.71l-.48-.24c1.08-1.64.25-1.46-.96-1.92.16-.7-.54-.52-.96-.72-.16-.08-.32-.17-.48-.24l-.2-.11c.06-.05.12-.11.2-.13.12-.03.33,0,.48,0Z"/>
        <path class="cls-13" d="M127.98,18.93c-.05.06.05.35,0,.48-.62-.15-.6.47-.72.96-.03.14.03.33,0,.48h-.47s0,.48,0,.48c-.06.05-.38,1.19-.48,1.44-.51-.16-.94,1-1.01,1.27-.33,1.19-.2,2.11.05,3.29l.96-.24c-.42.66-.01,1.18,0,1.44,0,.16,0,.32,0,.48h-.48s0,.36,0,.36l.48.12c.01.56,0,1.12,0,1.68,0,.34-.34.98.24,1.44,0,.16,0,.32,0,.48.02.48.17.95.28,1.41l.44.03c.05.46-.06,1,0,1.44.28,1.93.65,3.89,1.2,5.76,0,.24.01.48,0,.72-.02.38-.12,1.01.24,1.2-.02.24.02.48,0,.72-.03.5-.15,1.37.24,1.68-.07,1.19.05,2.41,0,3.6-.02.42-.26,1.13-.24,1.92,0,.24-.02.48,0,.72-.35.16-.24.65-.24.96,0,.24,0,.48,0,.72-.61.43-.49,1.26-.48,1.92.16.01.32,0,.48,0,5.35.25,10.52-1.72,15.53-3.05.46-.12.89-.29.77.41-2.29,1.24-4.83,1.97-7.43,2.4s-5.18.28-7.67.96c-.16,0-.32,0-.48,0-1.06-.06-1.4-.27-1.92.96-.33.77-.64,1.62-.96,2.4l-.72-.24c.05-.12-.05-.36,0-.48.66.16.69-.69.72-1.2,0-.16-.01-.32,0-.48.46-.28.43-.73.48-1.2.04-.39-.03-.8,0-1.2h.48s0-.72,0-.72c-.02-.15.03-.33,0-.48l.24-.48c-.03-.31.04-.65,0-.96.36-.17.23-.64.24-.96.01-.48-.03-.97,0-1.44.16-2.12.13-3.15,0-5.28-.03-.47.05-.97,0-1.44-.08-.84-.06-1.89-.48-2.64,0-.24,0-.48,0-.72,0-.65-.13-1.6-.48-2.16,0-.16,0-.32,0-.48,0-.62-.08-1.41-.48-1.92,0-.16,0-.32,0-.48,0-1.29-.78-2.84-1.2-4.08.02-.1.02-.46,0-.48v-.72s-.48,0-.48,0c0-.24,0-.48,0-.72,0-.03.24-.2.23-.55,0-.39-.2-1.06-.47-1.36,0-.16,0-.32,0-.48.03-1.05-.13-2.1.24-3.12.55-.84.63-1.41.96-2.16.85.02.73-.75.96-1.2.35-.68.62-.92.96-1.44l.48.24Z"/>
        <path class="cls-8" d="M38.8,33.09c.22,1.34-.42,1.04-.77,1.98s-1.43,3.95-1.39,4.74l-.24.48c-.63,4.22-.13,8.4.5,12.33.95,5.94,3.54,10.42,6.61,15.21.43.68.71,1.46,1.04,1.97v.48s-.96-.24-.96-.24c-.48-1.23-2.29-3.86-3.12-5.04-.27-.39-.51-.76-.96-.96-.03-.06.03-.17,0-.24-.17-.41-.26-.74-.26-1.19h-.46c-.03-.08.02-.18,0-.25l-.24-.48c-.02-.07.02-.17,0-.24-.32-.93-.71-2.1-1.2-2.88-.02-.08.02-.16,0-.24-.27-1.06-.57-2.17-.94-3.21-.16-.31-.59-.09-.74-.15-.3-.13-.36-.17-.72-.24-.57-.11-.84-.17-1.44-.24v-.72c.51,0,1.68.21,1.88-.39l-.45-6.8-.24-.48c.04-.52.03-1.16,0-1.68.39-.2.23-.81.24-1.2.16-4.63,1.49-6.36,3.12-10.31h.72Z"/>
        <path class="cls-12" d="M120.55,74.34c.09.65.38,1.24.48,2.16.23,2.12.31,4.25.73,6.35v6.61c-.72,3.37-1.12,6.6-1.85,10.03-.29,1.36-1.07,5.35-1.56,6.36-.21.44-.65.37-.67.4h-.24c.47-1.8.79-3.91,1.2-5.76.17,0,.4-.22.43-.41.25-2.11.57-4.2.76-6.31.08-.84-.11-1.83,0-2.64.83-.04.89-.78.96-1.44.43-4.21-.53-8.48-.96-12.59-.12-1.12.28-2.15.24-3l.48.24Z"/>
        <path class="cls-12" d="M25.61,48.68c.15.77-.18,1.12.48,1.97.3.39,2.03,1.53,2.56,1.83,1.39.8,3.25,1.48,4.88,1.47v.72c-.95-.11-1.58-.03-2.64-.24-.28-.06-.49-.18-.72-.24l-.48-.24c-.07-.02-.17.02-.24,0l-.48-.24c-.07-.03-.17.03-.24,0l-.24-.24c-.06-.03-.18.03-.24,0l-.24-.24c-.06-.04-.18.04-.24,0-.28-.88-1.5-1.13-2.16-1.92-.23-.28-.56-.66-.72-.96l-.24-.24c-.03-.13-.03-.56,0-.72l.24-.24c.02-.08-.02-.17,0-.24.1-.29.36-.54.24-.96h.23c-.09.3.21.57.24.72Z"/>
        <path class="cls-10" d="M126.31,59.95c-1.25,3.07-2.48,5.45-3.84,8.4-.48-.09-.84.44-.51-.39.51-1.27.73-2.63,1.23-3.81.57-1.35,1.89-3.13,2.4-4.43l.72.24Z"/>
        <path class="cls-4" d="M45.51,71.23h-.7c-.06.4-.03.97-.23,1.3-.15.24-.46.11-.5.14,0-.85-.17-1.84-.48-2.64l.96.24v-.48c.23.35.57-.16.96,1.44Z"/>
        <path class="cls-2" d="M33.52,54.67c.6.07.87.13,1.44.24-1.35-.1-3.05.85-4.08-.48,1.06.21,1.69.13,2.64.24Z"/>
        <path class="cls-2" d="M35.68,55.15c.15.06.57-.16.74.15.37,1.04.67,2.14.94,3.21l-1.68-3.36Z"/>
        <path class="cls-2" d="M129.18,56.59l-1.92.96c.52-1.23.86-1.02,1.92-.96Z"/>
        <path class="cls-3" d="M120.55,73.86c0,.16-.02.33,0,.48l-.48-.24s-.35-.17-.24-.48l.72.24Z"/>
        <path class="cls-2" d="M38.8,62.59h.46c0,.46.09.79.26,1.2-.58-.22-.55-.75-.72-1.2Z"/>
        <path class="cls-9" d="M136.62,4.54s-.45,0-.48,0l.12-.23.36.23Z"/>
        <path class="cls-2" d="M97.78,73.14c-.89.06-1.75.19-2.64.24-.03-.36-.69-.36-.72,0-3.15.16-6.04.02-9.11,0l-4.25-11.36,14.68-28.7,13.3,32.02-4.54,7.43c-2.21,0-4.45.2-6.72.36Z"/>
        <path class="cls-2" d="M75,73.38c-2.49.04-5.13.19-7.67.24-.51-.39-1.4-.4-1.92,0-1.54.02-3.03.18-4.56.24-.94.03-1.9.01-2.84-.03-1.24-3.69-3.35-7.11-4.35-10.86l14.74-30.6,12.29,29.66-5.7,11.35Z"/>
        <path class="cls-2" d="M103.05,17.49c-.08.47-.25.92-.44,1.36-1.55,3.6-4.23,9.79-6.22,12.97-.34.54-.75.5-.77.54h-.24l-5.51-13.43c1.67-.09,3.37-.02,5.04-.24,0-.16.02-.32,0-.48.15.02.33-.02.48,0,.38.06.55.23,1.2.24.74.01.93-.16,1.44-.24.08-.01.16.01.24,0,.39-.06.79-.22.96-.24.93-.13,1.84-.12,2.64-.24.23-.04.41-.23.48-.24.22-.04.5.04.72,0Z"/>
        <path class="cls-13" d="M105.69,15.81c9.71-1.32,19.41-6.68,28.88-9.12l.6.36c-.42.5-.98.8-1.55,1.09-4.31,2.13-11.61,4.15-16.37,5.69-.56.18-1.17.62-1.73.79-4.04,1.26-8.31,2.16-12.47,2.88-.22.04-.5-.04-.72,0l-.12-.24h-.36s0,.48,0,.48c-.79.12-1.71.11-2.64.24l-.96-.24v.48c-.08.01-.16-.01-.24,0l-.95-.25v-.71c.38-.01.8-.03,1.19,0,.05,0,.52.47.96.24v-.48c.23-.03.49.03.72,0l.48.24v-.48c.99-.1,1.35-.05,2.4-.24l.12.24h.36s0-.48,0-.48c.27-.06.66.04.96,0l.36.24.12-.24c.12,0,.46.02.48,0h.48s0-.48,0-.48Z"/>
        <path class="cls-11" d="M67.33,29.97c.85.17,1.48.12,2.16.24,8.38,1.49,17.19,2.28,25.89,2.16h.24c-.07.12.16.66-.13.74-3.91-.16-7.85.15-11.75,0-6.43-.26-13.83-1.37-20.01-3.01-1-.26-4.28-.84-3.71-2.04,2.39.79,4.84,1.43,7.31,1.92Z"/>
        <path class="cls-8" d="M52.7,5.74c-.08.72.47.56.72.72.84.53,1.2,1,2.16,1.44v.48c.16.03.33-.02.48,0,.08.01.16-.01.24,0v.48s.48,0,.48,0c.01.08,0,.16,0,.24.02.24-.03.49,0,.72.73.23.99.18,1.44.24.59.08,1.04.04,1.68.24-.12.75.23.38.48.48,2.21.93,4.35,2.05,6.69,2.67.09.14.01.3.02.45.23-.01.49-.02.72,0v.72c-.25-.08-.48-.16-.72-.24-.01-.16.02-.32,0-.48-.26.01-.6-.08-.72.24-1.6-.54-3.23-1.04-4.79-1.68s-3.12-1.35-4.65-2.14c-.25-.11-.12-.32-.15-.5-.66-.21-2.13-.8-2.64-1.2-1.43-1.12-3.27-3.63-4.56-5.04,0-.16,0-.32,0-.48,1.25.63,2.01,1.85,3.12,2.64Z"/>
        <path class="cls-11" d="M40.48,6.22c-.09.61-.22,1.33-.36,1.92-.24.99-.35.52-.36,1.92-.95-.1-.47.75-.48.96-.01.39.04.82,0,1.2h-.48s.24.48.24.48c-.13.73-.35,1.44-.48,2.16-.07.39-.17.7-.24,1.2-.06.44.03.97,0,1.44-.08,1.2-.15,1.28,0,2.64.03.31-.05.67,0,.96h-.72c-.02-.08-.36-.81-.48-1.2.56-.42.21-1.38.24-1.68.08-.91.2-1.66.24-2.64l.24-.36-.24-.12c0-.32-.03-.65,0-.96h.48s0-.72,0-.72c-.16-1.5.53-2.15.48-3.6.68.11.4-.16.48-.48.29-1.12.62-2.09.96-3.12h.48Z"/>
        <path class="cls-11" d="M39.04,24.21c.02.96-.03,1.92,0,2.88h-.72c-.34-1.02-.37-2.23-.48-3.12l1.2.24Z"/>
        <path class="cls-10" d="M39.04,27.09c.02.72.3,1.62.24,2.64l-1.2.24c0-.82.45-1.55.01-2.5l.23-.38h.72Z"/>
        <path class="cls-4" d="M39.28,29.73c-.06.99.09,1.71-.84,2.4-.46-.61-.36-1.44-.36-2.16l1.2-.24Z"/>
        <path class="cls-10" d="M38.32,21.09c.09.51.15,1.33.24,1.68l-.72.24c-.03-.36-.18-1.66-.24-1.92h.72Z"/>
        <path class="cls-10" d="M38.32,20.13c-.15-1.36-.08-1.44,0-2.64.41.69.4,1.96,0,2.64Z"/>
        <path class="cls-10" d="M37.36,18.21c-.03.3.32,1.26-.24,1.68-.11-.35-.61-.74-.46-1.29l.7-.39Z"/>
        <path class="cls-10" d="M39.04,23.49c.3.75,0,.55,0,.72l-1.2-.24c-.02-.15.02-.33,0-.48h1.2Z"/>
        <path class="cls-11" d="M39.04,23.49h-1.2c-.02-.15.01-.32,0-.48l.72-.24s.29.25.48.72Z"/>
        <path class="cls-10" d="M39.76,10.06c0,.32,0,.64,0,.96h-.48c0-.22-.47-1.07.48-.96Z"/>
        <path class="cls-10" d="M38.56,14.86c.39.2.22.82.24,1.2h-.48c.07-.5.17-.81.24-1.2Z"/>
        <path class="cls-4" d="M34.96,43.4c-.01.38.15,1-.24,1.2-.01-.16-.47-.76-.24-1.2h.48Z"/>
        <path class="cls-4" d="M38.8,33.09h-.72c.08-.19-.15-.73.12-.72.5.01.53.33.6.72Z"/>
        <path class="cls-4" d="M45.51,71.95c0,.07.39.37.24.72h-.48c0-.26-.07-.6.24-.72Z"/>
        <path class="cls-10" d="M38.08,13.42v.72s-.48,0-.48,0c.02-.24-.02-.48,0-.72h.48Z"/>
        <path class="cls-10" d="M37.6,15.57c0-.11,0-.35,0-.48l.24.12-.24.36Z"/>
        <path class="cls-4" d="M36.64,39.8s.33.24.24.48h-.48s.24-.48.24-.48Z"/>
        <path class="cls-10" d="M39.28,12.22c-.05.42-.23.45-.24.48l-.24-.48h.48Z"/>
        <path class="cls-4" d="M34.96,46.76h-.48c-.1-.25.24-.45.24-.48l.24.48Z"/>
        <path class="cls-10" d="M39.04,9.34c-.08.32.2.59-.48.48,0-.16,0-.32,0-.48h.48Z"/>
        <path class="cls-3" d="M81.47,17.97v1.09c2.77.35,5.62.02,8.39-.13l5.51,13.43c-8.71.12-17.51-.67-25.89-2.16l5.79-13.16,6.2.92Z"/>
        <path class="cls-7" d="M95.38,17.49v.72c-.15-.02-.33.02-.48,0,.02.16,0,.32,0,.48-1.67.22-3.36.15-5.04.24-2.77.15-5.63.48-8.4.13v-1.09c3.86.79,9.24-.62,12.72,0,.1.02.34.18.72.24-.01-.13-.19-.33-.24-.48.34-.16.35-.16.72-.24Z"/>
        <path class="cls-10" d="M130.62,18.93v.72s.48,0,.48,0c-.16.96-.52.33-1.43.24-.32.73-1.65,4.34-2.17,4.55-.33.13-.88-.32-.72.48h.72c-.02,1.67-.7,1.31-.93,1.72-.08.14.48,1.47-.27,1.88-.01-.26-.42-.78,0-1.44l-.96.24c-.26-1.18-.38-2.1-.05-3.29.07-.27.5-1.43,1.01-1.27-.41,1-.87,1.87-.72,3,.04.32.17.76.48.36.19-1.66,2.36-6.48,3.78-7.14.25-.12.65,0,.78-.05Z"/>
        <path class="cls-9" d="M134.94,11.98c.14-.03.33.02.48,0-.74,1.7-4.14,6.59-4.32,7.68h-.48s0-.72,0-.72c.33-.15,2.69-5.39,3.53-6.43.29-.36.3-.42.78-.53Z"/>
        <path class="cls-3" d="M67.81,13.9c1.66.16,4.04.97,5.56,1.51.38.14.76.39,1.15.53.09.61-.42.33-.77.29-2.08-.23-4.03-1-5.94-1.61v-.72Z"/>
        <path class="cls-10" d="M126.31,35c-.59.14-.47-.32-.63-.67-.73-1.54-.87-1.75-.57-3.4.41,1.24,1.19,2.79,1.2,4.08Z"/>
        <path class="cls-10" d="M127.74,50.12c-.4-1.55-.4-3.73,0-5.28.13,2.12.16,3.15,0,5.28Z"/>
        <path class="cls-8" d="M135.9,11.02c-.23.89-.35.67-.48.96-.15.02-.34-.03-.48,0-.14-1.17.63-.78.96-.96Z"/>
        <path class="cls-8" d="M138.05,8.38c-.75.82-1.15,2.08-2.16,2.64.36-1.39.65-1.47,1.44-2.64h.72Z"/>
        <path class="cls-10" d="M124.63,23.49c-.37,1.02-.21,2.07-.24,3.12-.78.22-.51-1.46-.48-1.8.16-1.43.58-1.11.72-1.32Z"/>
        <path class="cls-10" d="M127.5,18.69c.2-.3.02-1.3,1.2-1.2.36,1.34-.5,1.19-.72,1.44l-.48-.24Z"/>
        <path class="cls-7" d="M97.06,17.25v.71s.96.25.96.25c-.51.08-.7.25-1.44.24.1-.5-.04-.74-.48-.96.22-.03.41-.22.96-.24Z"/>
        <path class="cls-10" d="M127.74,43.4h-.47c.09-.7-.27-1.37-.27-2.05,0-.32.26-.56.26-.59.42.75.39,1.8.48,2.64Z"/>
        <path class="cls-13" d="M96.1,17.49c.44.22.58.46.48.96-.65-.01-.82-.18-1.2-.24v-.72c.21-.05.49.03.72,0Z"/>
        <path class="cls-10" d="M127.27,40.04c-.55.29-.73-1.1-.73-1.58,0-.34.25-.55.25-.58.35.56.48,1.5.48,2.16Z"/>
        <path class="cls-9" d="M56.78,9.1c.68-.18.97.56,1.44.96-.45-.06-.71,0-1.44-.24-.03-.23.02-.48,0-.72Z"/>
        <path class="cls-10" d="M126.79,37.4c-.53.28-.7-.91-.71-1.36,0-.37.23-.52.23-.55.4.5.47,1.3.48,1.92Z"/>
        <path class="cls-10" d="M124.63,29.01c-.26-.29-.42-1.05-.43-1.41s.19-.49.19-.51c.27.31.46.98.47,1.36,0,.35-.23.52-.23.55Z"/>
        <path class="cls-3" d="M120.79,89.7c-.07.66-.13,1.4-.96,1.44.05-.38.5-1.67.96-1.44Z"/>
        <path class="cls-10" d="M126.55,20.13c-.23.45-.11,1.22-.96,1.2.21-.47.32-1.32.96-1.2Z"/>
        <path class="cls-10" d="M126.31,58.03c-.03.51-.06,1.36-.72,1.2.16-.43-.07-1.36.72-1.2Z"/>
        <path class="cls-10" d="M126.79,56.35c-.05.47-.02.92-.48,1.2.01-.13-.29-.63.04-1.17l.44-.03Z"/>
        <path class="cls-9" d="M138.53,7.9c-.13.12-.37.36-.48.48h-.72c.25-.36.64-.6.72-.72l.48.24Z"/>
        <path class="cls-10" d="M127.74,51.56c0,.32.12.79-.24.96-.02-.15-.44-.55-.24-.96h.48Z"/>
        <path class="cls-9" d="M136.14,5.02c.42.2,1.12.02.96.72-.46-.17-1.11-.05-.96-.72Z"/>
        <path class="cls-10" d="M127.98,19.41c-.17.46-.05,1.11-.72.96.12-.49.1-1.11.72-.96Z"/>
        <path class="cls-9" d="M53.42,6.46c-.25-.16-.79,0-.72-.72.21.15.81,0,.72.72Z"/>
        <path class="cls-7" d="M99.21,17.01v.48c-.44.23-.91-.24-.96-.24.3-.21.62-.19.96-.24Z"/>
        <path class="cls-10" d="M127.27,54.43v.72s-.48,0-.48,0c.02-.24-.02-.48,0-.72h.48Z"/>
        <path class="cls-3" d="M67.09,13.9c.02.16-.01.32,0,.48-.24-.08-.48-.16-.72-.24.12-.32.46-.23.72-.24Z"/>
        <path class="cls-10" d="M124.63,29.73h.48s0,.72,0,.72c-.2-.19-.47.47-.48-.72Z"/>
        <path class="cls-13" d="M94.66,17.73c.05.15.23.35.24.48-.38-.06-.61-.22-.72-.24.11-.2.33-.17.48-.24Z"/>
        <path class="cls-10" d="M127.27,20.85c-.15.88-.26.31-.48.48v-.47s.48,0,.48,0Z"/>
        <path class="cls-10" d="M127.5,53.48l-.24.48s-.34-.2-.24-.48h.48Z"/>
        <path class="cls-9" d="M59.9,10.3c.31.09.59-.24.48.48-.25-.1-.6.27-.48-.48Z"/>
        <path class="cls-7" d="M100.41,16.77v.48s-.48-.24-.48-.24c.03,0,.06-.2.48-.24Z"/>
        <path class="cls-9" d="M56.3,8.38c.15.02.32-.02.48,0,.02.16-.02.33,0,.48h-.48s0-.48,0-.48Z"/>
        <path class="cls-9" d="M55.58,7.9c.2.09.62-.24.48.48-.15-.02-.32.03-.48,0v-.48Z"/>
        <path class="cls-7" d="M103.29,16.29v.48s-.36,0-.36,0l-.12-.24s.24-.19.48-.24Z"/>
        <path class="cls-7" d="M104.73,16.29l-.12.24-.36-.24c.4-.05.24-.01.48,0Z"/>
        <path class="cls-7" d="M105.69,15.81v.48s-.48,0-.48,0c.16-.18-.41-.36.48-.48Z"/>
        <path class="cls-10" d="M127.27,35.96c.73-.14.42.35.51.79.4,1.93.69,3.05.69,4.96-.55-1.87-.92-3.83-1.2-5.76Z"/>
        <path class="cls-10" d="M128.46,55.87c-.16,0-.32.01-.48,0,0-.66-.14-1.49.48-1.92,0,.03.2.15.21.35,0,.47-.34,1.03-.21,1.57Z"/>
        <path class="cls-10" d="M128.94,49.64c.43.52.2,1.28.24,1.92h-.48c-.02-.79.22-1.5.24-1.92Z"/>
        <path class="cls-10" d="M128.7,44.36h.48c.25.58-.22,1.4-.24,1.68-.39-.3-.27-1.18-.24-1.68Z"/>
        <path class="cls-10" d="M126.55,32.61c-.58-.46-.24-1.1-.24-1.44.73.49.23,1.25.24,1.44Z"/>
        <path class="cls-10" d="M126.55,33.09c.56-.26.66.9.72,1.44l-.44-.03c-.1-.46-.26-.93-.28-1.41Z"/>
        <path class="cls-10" d="M128.46,42.44h.48c.23.45-.23,1.03-.24,1.2-.36-.19-.26-.82-.24-1.2Z"/>
        <path class="cls-10" d="M128.7,52.28c0,.12.44.57.24.96h-.48c0-.31-.11-.8.24-.96Z"/>
        <path class="cls-13" d="M127.5,24.45c0,.16,0,.32,0,.48h-.72c-.17-.8.39-.35.72-.48Z"/>
        <path class="cls-10" d="M126.31,29.01c0,.16,0,.32,0,.48l-.48-.12v-.36s.48,0,.48,0Z"/>
        <path class="cls-2" d="M48.39,2.14c.08-.02.18.03.24,0-.31,1.17.64,1.08.96,1.44,1.29,1.41,3.13,3.92,4.56,5.04l-12.22,26.05c2.76,9.84,7.37,19.09,11.25,28.52-2.48,5.51-5.44,10.79-8.13,16.19h-.24c.15-2.23.4-4.48.48-6.72h.48c.15-.35-.23-.65-.24-.72-.02-.23.05-.53,0-.72-.39-1.6-.73-1.09-.96-1.44-.33-.51-.61-1.29-1.04-1.97-3.07-4.79-5.65-9.27-6.61-15.21-.63-3.93-1.13-8.1-.5-12.33h.48c.09-.24-.24-.45-.24-.48-.04-.78,1.05-3.81,1.39-4.74s.99-.64.77-1.98c-.07-.39-.1-.71-.6-.72-.27,0-.04.53-.12.72-1.63,3.95-2.96,5.68-3.12,10.31h-.48c-.23.44.23,1.03.24,1.2.03.52.04,1.16,0,1.68,0,.03-.33.23-.24.48h.48s.45,6.81.45,6.81c-.2.6-1.37.39-1.88.39-1.63.01-3.49-.67-4.88-1.47-.52-.3-2.25-1.44-2.56-1.83-.66-.85-.33-1.2-.48-1.97.31-.27.41-.71.46-1.1,1.29-10.74,2.33-23.6,5.55-33.79.38-1.21,1.95-5.81,2.61-6.5,1.35-1.44,4.48-2.71,6.37-3.22.28.67-.54,1.23-.59,1.38-.09.26.04.61,0,.78-.34,1.03-.67,2-.96,3.12h-.48c0,.16,0,.32,0,.48.05,1.45-.64,2.1-.48,3.6h-.48c-.02.24.02.48,0,.72-.03.31,0,.64,0,.96,0,.13,0,.37,0,.48-.04.98-.16,1.73-.24,2.64l-.7.39c-.15.55.35.94.46,1.29.12.39.46,1.12.48,1.2.06.26.21,1.56.24,1.92.01.16-.02.33,0,.48s-.02.33,0,.48c.11.88.14,2.1.48,3.12l-.23.38c.44.95,0,1.68-.01,2.5,0,.72-.11,1.54.36,2.16.93-.68.78-1.41.84-2.4s-.22-1.92-.24-2.64c-.03-.96.02-1.92,0-2.88,0-.17.3.03,0-.72-.19-.47-.47-.68-.48-.72-.09-.35-.15-1.17-.24-1.68-.05-.29.03-.65,0-.96.4-.68.41-1.95,0-2.64.03-.46-.06-1,0-1.44h.48c-.02-.38.15-1-.24-1.2.13-.72.35-1.43.48-2.16,0-.03.19-.06.24-.48.04-.38-.01-.81,0-1.2h.48c.01-.32,0-.64,0-.96.01-1.4.12-.92.36-1.92.14-.59.27-1.31.36-1.92,1.13.19.56-.36.72-1.03.02-.09.88-.59.5-1.58l5.15-1.71c.85-.09.78.49,1.53.24Z"/>
        <path class="cls-3" d="M95.14,73.38c-.32.02-.59,0-.72,0,.03-.36.69-.36.72,0Z"/>
        <path class="cls-3" d="M67.33,73.62c-.56.01-1.37,0-1.92,0,.52-.4,1.4-.39,1.92,0Z"/>
        <path class="cls-7" d="M99.21,17.97c-.17.02-.57.18-.96.24v-.48s.96.24.96.24Z"/>
        <path class="cls-7" d="M102.33,17.49c-.07.01-.25.2-.48.24v-.48s.36,0,.36,0l.12.24Z"/>
        <path class="cls-3" d="M95.62,74.1c-.18.26-.64.37-.72,0,.33-.02.65,0,.72,0Z"/>
        <g>
          <path class="cls-3" d="M56.78,9.82c.02.18-.11.39.15.5,1.53.79,3.05,1.49,4.65,2.14l5.75,17.51c-2.47-.5-4.92-1.13-7.31-1.92-.57,1.21,2.71,1.78,3.71,2.04,6.18,1.64,13.58,2.75,20.01,3.01,3.9.16,7.84-.15,11.75,0,.29-.08.06-.62.13-.74.02-.04.44,0,.77-.54,1.99-3.18,4.67-9.37,6.22-12.97.19-.44.36-.89.44-1.36,4.16-.72,8.43-1.62,12.47-2.88l10.5,23.43-16.67,27.35c2.09,5.84,4.36,11.61,6.42,17.47,1.17,3.33,2.14,7.02,3.42,10.27.15.38.07.77.66.65-.2,2.11-.51,4.2-.76,6.31-.04.19-.26.41-.43.41-.02,0-.1-.25-.24-.24-1.36,2.51-3.28,5.15-4.9,7.7-3.13,4.92-6.13,9.93-9.01,14.99l10.07,28.31-.11,1.06-5.16,12.47c-5.51-.51-11.18-1.48-16.54-2.4l-5.76-13.67-8.87,9.83-.54.18c-7.32-2.76-14.64-5.55-21.75-8.81l-1.44-6.72c-.34-.37-3.97,3.39-4.55,3.6-5.73-3.5-11.27-6.53-16.54-10.79l.48-1.07,13.38-17.57-1.88-6.31c-.65-.11-.77.62-1.09.95-.21.22-.56.22-.58.25l-.24-.24c.62-.63,1.12-1.46,1.92-1.92.44,1.07,3.28,3.41,4.32,4.08l-2.11,3.43c2.61,8.34,4.61,16.86,6.66,25.35,6.85-5.97,12.81-12.92,18.46-20.03.08-.52-.08-.28-.35-.36-1.35-.41-2.9-.85-4.21-1.19v-.72c.97.29,4.68,1.4,5.36,1.16.14-.05,1.76-2.13,1.8-2.29.2-.72-.52-1.48-.44-2.22.8,0,1.6,0,2.4,0l-1.34,2.4,10.93,28.79c.42.31,5.94-7.63,6.43-8.32,3.78-5.42,7.16-11.11,10.66-16.7l.08-.65-10.93-29.5-15.1,23.27h5.27v.72c-1.83-.13-3.68,0-5.51,0,.23-.9-.5-.8-1.14-.89-1.1-.15-1.38.07-2.21.17-.38.05-.81-.03-1.2,0v-.48c.32-.02.64.02.96,0l-8.87-24.47-12.94,19.67c-.32-.19-.71-.24-1.07-.48-1.95-1.28-3.53-3.11-5.62-4.23.13-1.54.09-3.18-.02-4.75-.54-7.37-1.33-14.32-.96-21.71.45-.09.36-.48.48-.72,2.69-5.4,5.66-10.68,8.13-16.19-3.88-9.44-8.49-18.68-11.25-28.52l12.22-26.05c.5.39,1.98.99,2.64,1.2ZM75,73.38l5.7-11.35-12.29-29.66-14.74,30.6c.99,3.75,3.1,7.17,4.35,10.86.94.05,1.9.07,2.84.03l-.24.48s.1.42-.16.48c-.38.1-1.65-.11-1.76,0l6.35,15.83,6.25-10.78-.37-.73s-.09-.44.16-.49c.35-.08,1.12.24,1.63.26,4.56.18,10.07-.47,14.75-.73l5.22,13.85.53.3,8.39-14.63c3.03-.1,6.13-.21,9.11-.72.34-.35-.02-.43-.35-.48-2.08-.26-5.59-.06-7.8,0l1.44-3.12c-1.72-.35-3.17.48-4.74.64-.5.05-1.19-.18-1.49-.16v-.72c2.26-.16,4.5-.36,6.72-.36l4.54-7.43-13.3-32.02-14.68,28.7,4.25,11.36c-3.43-.02-6.88-.05-10.31,0Z"/>
          <path class="cls-11" d="M29.69,132.63c.94,1.37,2.37,2.37,3.6,3.36,5.27,4.26,10.82,7.29,16.54,10.79,1.81,1.11,3.86,2.14,5.99,3.12,7.12,3.26,14.43,6.05,21.75,8.81l.54-.18c.15.43.14.55.58.76.83.4,2.88.88,3.88,1.14,3.34.85,6.78,1.37,10.17,1.94,5.37.92,11.03,1.89,16.54,2.4,2.23.21,4.49.18,6.71.48l-1.21-7.08c-.13-.56.6-.36.97-.36.16,0,.32,0,.48,0-.02.43-.2.8-.18,1.25.07,1.52,1.09,4.81.9,6.05-.3,1.94-2.35.98-3.26.87-6.06-.72-12.08-1.05-18.13-2.01-12.67-2-23.47-5.81-35.19-10.85-7.37-3.17-27.79-13.73-31.41-20.5h.72Z"/>
          <path class="cls-8" d="M45.51,71.23c.05.19-.02.49,0,.72-.31.12-.23.46-.24.72-.08,2.23-.33,4.49-.48,6.72,0,.05-.22.34-.24.72-.37,7.39.41,14.34.96,21.71.12,1.57.15,3.21.02,4.75,2.09,1.13,3.67,2.95,5.62,4.23.37.24.75.3,1.07.48,5.6,3.27,14.04,5.2,20.86,4.8v.48c.39-.02.82.05,1.2,0v.48s-.41.23-.96.24v-.48c-.34-.15-.66.23-.72.24-7.28.42-15.07-1.76-21.58-4.56-.18-.08-2.58-1.92-3.1-2.29-.73-.53-1.63-1.74-2.54-2.02-.66-.21-.18,1.15-.12,1.44.02.08-.02.17,0,.24l-1.18-1.56.95-.74c-.78-2.64-.53-5.44-.73-8.13-.26-3.57-.83-7.21-.95-10.8-.09-2.57.32-4.67.24-7.31.71-1.59-.04-3.6-.02-5.16.01-1.09.49-2.28.5-3.48.04-.03.35.1.5-.14.2-.33.17-.9.23-1.29h.7Z"/>
          <path class="cls-1" d="M116.96,110.57c-.57,3.56-1.26,7.05-2.22,10.61-.32,1.18-2.58,7.5-2.56,7.98,0,.28.73,1.7.88,2.23,1.34,4.75,2.31,9.06,2.95,13.96.04.91-.06,1.84,0,2.76.05.74.38,1.62.48,2.28.29,2.01.14,2.84,0,4.8h-.46s-.26-.96-.26-.96c-.02-.89-.24-2.11-.24-2.76v-3.84c0-.1-.4-.78-.46-1.22-.06-.49.06-2.39-.02-2.5v-.48s-.48,0-.48,0c-.19-2.08-.53-3.99-1.03-6.05-.46-1.89-2.3-6.4-2.33-7.87l.71-.36-.47-.36c.07-.56.1-1.14.24-1.68h.48s-.24-.24-.24-.24c.31-1.23.69-3.24,1.2-4.32l.48-.24c.09-.16.32-2.95.48-3.6h.48s-.24-.24-.24-.24c.66-2.5,1.24-5.18,1.92-7.92h.72Z"/>
          <path class="cls-1" d="M45.27,109.61c1.69.55,3.15,2.11,4.68,3.13.35.23.76.19.83.23,4.99,3.16,11.37,5.89,17.26,7.68v.72c-.2-.05-.52.05-.72,0,.14-.65-.33-.46-.71-.6-2.44-.86-4.93-1.63-7.38-2.46-.27-.09-.86-.49-1.02-.06-.23-.09-.48-.14-.72-.24.19-.59-1.11-.78-1.68-.96-1.75-.56-4.66-1.87-6.23-2.88-1.03-.66-3.87-3.01-4.32-4.08-.03-.06.02-.16,0-.24-.02-.07.02-.16,0-.24Z"/>
          <path class="cls-9" d="M43.59,112.24c-3.92,4.62-7.93,9.98-11.61,14.89-.36.48-2.72,4.04-2.77,4.3h-.72c-.03-.42.09-.68.27-1.04,1.51-2.92,4.33-5.62,6.16-8.47.46-.72.81-1.63,1.23-2.38l.97.15c-.18-.75.6-.92.94-1.39,1.85-2.51,3.09-4.05,5.29-6.29l.24.24Z"/>
          <path class="cls-3" d="M117.68,106.25c-.09.14-.64,2.75-.72,3.12h-.48c.28-1.16.74-2.27.96-3.12h.24Z"/>
          <path class="cls-3" d="M115.76,154.22l.26.95h.46c-.06.9-.2,1.77-.24,2.65-.16,0-.32,0-.48,0,.21-1.06-.2-2.3-.21-3.25,0-.19.21-.32.21-.35Z"/>
          <path class="cls-3" d="M29.21,131.43c-.07.36.25.87.48,1.2h-.72c-.12-.22-.47-1.03-.48-1.2h.72Z"/>
          <path class="cls-12" d="M116.96,109.37c-.07.34.06.83,0,1.2h-.72c.1-.39.14-.8.24-1.2h.48Z"/>
          <path class="cls-2" d="M77.64,117.28c1.84-.01,3.68-.13,5.51,0v-.72s-5.27,0-5.27,0l15.1-23.27,10.93,29.5-.08.65c-3.5,5.6-6.88,11.29-10.66,16.7-.48.69-6,8.63-6.43,8.32l-10.93-28.79,1.34-2.4c.16,0,.32,0,.48,0Z"/>
          <path class="cls-2" d="M49.59,114.16c1.57,1.01,4.49,2.32,6.23,2.88-.14.75,1.12.74,1.68.96.24.1.49.15.72.24,3.14,1.22,5.84,2.21,9.11,3.12.2.05.52-.05.72,0,1.3.35,2.85.79,4.21,1.19.27.08.43-.16.35.36-5.65,7.11-11.6,14.06-18.46,20.03-2.05-8.49-4.05-17.01-6.66-25.35l2.11-3.43Z"/>
          <path class="cls-2" d="M52.22,111.29l12.94-19.67,8.87,24.47c-.32.02-.64-.02-.96,0-6.82.41-15.26-1.53-20.86-4.8Z"/>
          <path class="cls-2" d="M118.63,100.49c-.41,1.84-.73,3.95-1.2,5.76-.22.85-.68,1.96-.96,3.12-.1.4-.14.81-.24,1.2-.67,2.73-1.26,5.42-1.92,7.92,0,.02-.2.06-.24.24-.16.65-.39,3.44-.48,3.6-.01.02-.34-.05-.48.24-.51,1.08-.89,3.09-1.2,4.32,0,.02-.2.09-.24.24-.14.54-.17,1.12-.24,1.68-.01.09-.25.28-.24.72.03,1.46,1.87,5.97,2.33,7.87.49,2.05.84,3.96,1.03,6.05.08.89.37.33.48.48.08.11-.04,2.01.02,2.5.06.44.46,1.12.46,1.22v3.84c0,.64.22,1.87.24,2.76,0,.03-.21.16-.21.35,0,.95.41,2.19.21,3.25-.37,0-1.1-.2-.97.36l1.21,7.08c-2.22-.3-4.49-.27-6.71-.48l5.16-12.47.11-1.06-10.07-28.31c2.88-5.06,5.89-10.08,9.01-14.99,1.62-2.55,3.53-5.19,4.9-7.7.14,0,.21.24.24.24Z"/>
          <path class="cls-6" d="M43.59,112.24s.37-.03.58-.25c.33-.34.44-1.06,1.09-.95l1.88,6.31-13.38,17.57-.48,1.07c-1.22-.99-2.65-1.99-3.6-3.36-.23-.33-.55-.84-.48-1.2.05-.27,2.41-3.82,2.77-4.3,3.68-4.91,7.7-10.27,11.61-14.89Z"/>
          <path class="cls-2" d="M74.04,74.58l-1.68,3.36c-.76.07-1.61.16-2.4.24-.38.04-.66.23-.72.24-.95.1-1.92.14-2.88.24-.66.07-3.1-.31-3.12.84,1.02.39,2.09-.07,3.12-.12s2.13.09,3.12,0c.23-.02.39-.22.48-.24.25-.05.85.07.96,0l.37.73-6.25,10.78-6.35-15.83c.11-.11,1.38.1,1.76,0,.25-.07.14-.47.16-.48.58-.38,11.82.22,13.43.24Z"/>
          <path class="cls-2" d="M101.61,77.7l-8.39,14.63-.53-.3-5.22-13.85c3.88-.21,7.31-.5,11.27-.48.58,0,.53.12,1.44,0,.7-.09,1.07.01,1.44,0Z"/>
          <path class="cls-2" d="M92.74,162.38c-3.38-.58-6.82-1.09-10.17-1.94-1-.26-3.05-.74-3.88-1.14-.44-.21-.42-.33-.58-.76l8.87-9.83,5.76,13.67Z"/>
          <path class="cls-6" d="M72.6,117.04c.12.3.46.25.72.24.55-.01.91-.24.96-.24.13,0,.36.24.48.24-.07.74.64,1.5.44,2.22-.04.16-1.66,2.25-1.8,2.29-.67.24-4.38-.87-5.36-1.16-5.89-1.78-12.27-4.51-17.26-7.68l.24-.48c6.51,2.79,14.3,4.98,21.58,4.56Z"/>
          <path class="cls-6" d="M97.78,73.86c.3-.01.99.22,1.49.16,1.57-.17,3.02-.99,4.74-.64l-1.44,3.12c-1.85.05-3.85.19-5.75.24-.37-.4-1.54-.4-1.92,0-.4.01-.8-.01-1.2,0l-.12-.24-.36.24-2.88.24c-.08-.1-.15-.17-.29-.17-.08,0-.14.17-.19.17-1.08.03-2.16-.04-3.12,0l-.72-2.4c2.95-.07,5.94-.31,8.87-.48.08.37.54.26.72,0,.74-.04,1.39-.21,2.16-.24Z"/>
          <path class="cls-14" d="M102.57,76.5c2.21-.06,5.72-.26,7.8,0,.33.04.69.13.35.48-2.98.51-6.08.62-9.11.72-.37.01-.74-.09-1.44,0-.23-.39-1.2-.39-1.44,0-3.95-.02-7.39.27-11.27.48-4.68.26-10.19.91-14.75.73-.51-.02-1.28-.34-1.63-.26-.25.06-.14.48-.16.49-.11.07-.71-.05-.96,0v-.96c.79-.08,1.64-.17,2.4-.24,1.56-.14,3.16-.14,4.66-.25.23-.02.43-.23.5-.23h3.6c1.64,0,3.84-.4,5.63-.48.95-.04,2.03.03,3.12,0l.36.24.12-.24,2.88-.24c.08.1.15.16.29.16.08,0,.14-.16.19-.16.4-.01.8.01,1.2,0,.52-.01,1.26.02,1.92,0,1.91-.05,3.9-.19,5.75-.24Z"/>
          <path class="cls-7" d="M97.78,73.14v.72c-.77.03-1.42.2-2.16.24-.07,0-.39-.02-.72,0-2.93.17-5.92.41-8.87.48-3.98.09-8.01.04-11.99,0-1.61-.02-12.85-.62-13.43-.24l.24-.48c1.53-.06,3.01-.22,4.56-.24.54,0,1.35.01,1.92,0,2.54-.05,5.18-.2,7.67-.24,3.43-.05,6.88-.02,10.31,0,3.07.02,5.96.16,9.11,0,.13,0,.4.02.72,0,.88-.05,1.75-.18,2.64-.24Z"/>
          <path class="cls-6" d="M49.83,146.79c.59-.21,4.21-3.97,4.55-3.6l1.44,6.72c-2.14-.98-4.18-2.01-5.99-3.12Z"/>
          <path class="cls-7" d="M74.28,116.56c.84-.1,1.11-.32,2.21-.17.64.09,1.38,0,1.14.89-.16,0-.32,0-.48,0-.8,0-1.6,0-2.4,0-.12,0-.35-.24-.48-.24v-.48Z"/>
          <path class="cls-4" d="M45.03,79.38c-.12.24-.03.63-.48.72.02-.38.24-.67.24-.72h.24Z"/>
          <path class="cls-10" d="M51.03,112.48l-.24.48c-.08-.05-.49,0-.83-.23-1.53-1.01-2.99-2.57-4.68-3.13-.07-.28-.55-1.64.12-1.44.91.28,1.8,1.49,2.54,2.02.52.37,2.92,2.22,3.1,2.29Z"/>
          <path class="cls-3" d="M72.6,117.04c.06,0,.38-.39.72-.24v.48c-.26,0-.6.06-.72-.24Z"/>
          <path class="cls-3" d="M111.2,129.52c0-.44.23-.63.24-.72l.47.36-.71.36Z"/>
          <path class="cls-3" d="M114.56,143.43h.48s0,.48,0,.48c-.11-.15-.4.41-.48-.48Z"/>
          <path class="cls-3" d="M114.32,118.48l.24.24h-.48c.04-.18.24-.22.24-.24Z"/>
          <path class="cls-3" d="M113.6,122.32l-.48.24c.14-.29.47-.22.48-.24Z"/>
          <path class="cls-3" d="M111.92,126.88l.24.24h-.48c.04-.14.24-.22.24-.24Z"/>
          <path class="cls-3" d="M58.22,118.24c.16-.43.75-.03,1.02.06,2.45.83,4.94,1.6,7.38,2.46.38.13.85-.05.71.6-3.27-.9-5.97-1.9-9.11-3.12Z"/>
          <path class="cls-3" d="M55.82,117.04c.56.18,1.86.37,1.68.96-.56-.22-1.82-.21-1.68-.96Z"/>
          <path class="cls-3" d="M86.03,74.58l.72,2.4c-1.8.08-3.99.48-5.63.48h-3.6c-.07,0-.27.21-.5.23-1.5.11-3.1.11-4.66.25l1.68-3.36c3.98.04,8.01.09,11.99,0Z"/>
          <path class="cls-14" d="M69.25,78.42l.24.96c-.99.09-2.1-.04-3.12,0l-.48-.36.48-.36c.96-.1,1.93-.14,2.88-.24Z"/>
          <path class="cls-3" d="M66.37,78.66l-.48.36.48.36c-1.03.04-2.1.5-3.12.12.02-1.14,2.46-.77,3.12-.84Z"/>
          <path class="cls-3" d="M69.97,78.18v.96c-.09.02-.25.22-.48.24l-.24-.96c.06,0,.34-.2.72-.24Z"/>
          <path class="cls-3" d="M100.17,77.7c-.91.12-.86,0-1.44,0,.24-.39,1.21-.39,1.44,0Z"/>
          <path class="cls-3" d="M96.82,76.74c-.66.02-1.4-.01-1.92,0,.38-.4,1.55-.4,1.92,0Z"/>
          <path class="cls-3" d="M93.7,76.74s-.11.16-.19.16c-.14,0-.21-.06-.29-.16l.36-.24.12.24Z"/>
          <path class="cls-3" d="M90.34,76.98l-.12.24-.36-.24s.1-.17.19-.17c.14,0,.21.07.29.17Z"/>
        </g>
      </g>
    </g>
  </g>
</svg>