<?xml version="1.0" encoding="UTF-8"?>
<svg id="Layer_2" data-name="Layer 2" xmlns="http://www.w3.org/2000/svg" viewBox="0 0 144.19 133.29">
  <defs>
    <style>
      .cls-1 {
        fill: #b9b3b3;
      }

      .cls-2 {
        fill: #6c6363;
      }

      .cls-3 {
        fill: #685f5f;
      }

      .cls-4 {
        fill: #696060;
      }

      .cls-5 {
        fill: #d0cccc;
      }

      .cls-6 {
        fill: #e5e3e3;
      }

      .cls-7 {
        fill: #dbd8d8;
      }

      .cls-8 {
        fill: #736969;
      }

      .cls-9 {
        fill: #7a6f6f;
      }

      .cls-10 {
        fill: #5b5454;
      }

      .cls-11 {
        fill: #c0baba;
      }

      .cls-12 {
        fill: #665d5d;
      }

      .cls-13 {
        fill: #7f7474;
      }

      .cls-14 {
        fill: #716767;
      }

      .cls-15 {
        fill: #b4aeae;
      }

      .cls-16 {
        fill: #625a5a;
      }

      .cls-17 {
        fill: #c9c4c4;
      }

      .cls-18 {
        fill: #9b9292;
      }

      .cls-19 {
        fill: #857979;
      }

      .cls-20 {
        fill: #6e6565;
      }

      .cls-21 {
        fill: #746a6a;
      }

      .cls-22 {
        fill: #454040;
      }

      .cls-23 {
        fill: #ebeaea;
      }

      .cls-24 {
        fill: #b1aaaa;
      }

      .cls-25 {
        fill: #776d6d;
      }

      .cls-26 {
        fill: #a29999;
      }

      .cls-27 {
        fill: #f8f8f8;
      }

      .cls-28 {
        fill: #6a6161;
      }

      .cls-29 {
        fill: #655c5c;
      }

      .cls-30 {
        fill: #514b4b;
      }
    </style>
  </defs>
  <g id="Layer_1-2" data-name="Layer 1">
    <g>
      <path class="cls-19" d="M114.69,126c1.38,5.57-4.67,6.61-8.88,6.61,3.66-1.36,10.32-.74,8.38-6.59"/>
      <path class="cls-18" d="M99.58,132.85c1.71-.05,3.54-.19,5.27-.24-19.43,1.95-34-1.18-5.27.24Z"/>
      <path class="cls-18" d="M135.79,40.5c-1.8-7.82-.49-16.29-2.64-24.23,2.74,7.67,1.84,16.2,2.64,24.23Z"/>
      <path class="cls-18" d="M124.29,113.66c-2.81,1.58,16.18-9.61-9.36,1.06-.39.29-.26,5.9-.23,6.85-3.01-8.7,3.14-6.27,9.59-7.92Z"/>
      <path class="cls-19" d="M113.7,130.32c-23.01,7.47-3.62-5.05-2.65-14.27,6.55-4.69,1.4,10.21,2.65,14.27Z"/>
      <path class="cls-18" d="M17,122.59c5.36.74,12.83,0,17.26,1.92-4.82-1.48-14.58-.17-17.26-1.92Z"/>
      <path class="cls-26" d="M70.81,128.05c1.85.55,5.53-.43,6.47,1.2-3.51-.98-1.61-.28-5.3-1.11,1.41.09,3.95-1.25-8.5-2.16,1.96-.26,5.35,1.86,7.33,2.07Z"/>
      <path class="cls-18" d="M16.16,118.46c.52.15-.05.68-.19.89-3.26,4.95.35,2.35.31,2.47-.22.04,13.7-11.49,1.45,1.44,86.47-103.1.13-5.59-1.56-4.8Z"/>
      <path class="cls-19" d="M1.3,95.91c-1.68-2.02-1.6-4.69-.48-6.96-.5,2.18.17,5.22.48,6.96Z"/>
      <path class="cls-18" d="M2.5,99.51c1.71,2.23,3.39,6.8,4.8,9.11-2.19-2.42-3.73-6.05-4.8-9.11Z"/>
      <path class="cls-18" d="M52.6,8.36c-3.07-.04-4-.71-6.71-1.92l6.71,1.92Z"/>
      <path class="cls-18" d="M133.16,16.03c-1.36-1.07-1.85-4.4-3.12-6,1.48,1.51,2.6,3.97,3.12,6Z"/>
      <path class="cls-18" d="M68.91,9.79c-.78.94-6.24.31-7.19-.48,2.44.21,4.73.41,7.19.48Z"/>
      <path class="cls-26" d="M46.03,124.68c-27.77-19.74,3.41-.06-3.14.8,5.57.86,3.76-3.59,3.14-.8Z"/>
      <path class="cls-26" d="M136.75,47.21c-1.43-1.21-.68-4.58-.96-6.48l.96,6.48Z"/>
      <path class="cls-18" d="M25.03,4.52c-.78,0-1.6.05-2.4.24,1.05-1.27,4.61-1.32,2.4-.24Z"/>
      <path class="cls-18" d="M7.77,109.1c2.38,2.94,6.49,4.15,8.87,6.48-3.26-1.29-6.74-3.65-8.87-6.48Z"/>
      <path class="cls-18" d="M32.94.68c1.95-.76,4.77,1.21,5.75,2.64-2.15-1.08-3.19-2.1-5.75-2.64Z"/>
      <path class="cls-19" d="M18.08,10.03c-.71.82-.88,2.63-1.92,2.88.43-.81.84-2.62,1.92-2.88Z"/>
      <path class="cls-18" d="M30.53,117.74c1.23,1.81,1.3,3.74,3.84,5.28-2.38-.88-3.59-2.82-3.84-5.28Z"/>
      <path class="cls-18" d="M127.16,112.22c-.95.67-1.41,1.08-2.64,1.44-11.08,1.5,1.97-1.57,2.64-1.44Z"/>
      <path class="cls-16" d="M122.13,2.6c1.37,1.06,3.54,1.83,2.4,2.88-.5-1.17-1.47-1.75-2.4-2.88Z"/>
      <path class="cls-19" d="M22.87,4.76c-1.55,1.35-2.33,2.97-4.08,4.08,1.11-1.52,2.33-3.39,4.08-4.08Z"/>
      <path class="cls-26" d="M132.2,108.14c1.87-1.63,3.82-3.49,5.99-4.8-1.85,1.55-3.71,4.05-5.99,4.8Z"/>
      <path class="cls-10" d="M17,122.59c-.53,0-1.6-.03-1.44-.72.66-.09,1.18.09,1.44.72Z"/>
      <path class="cls-26" d="M45.44,124.93c-.71-.14-2.69-2.41,1.25-.57-5.89-1.74-1.89-.09-1.25.57Z"/>
      <path class="cls-18" d="M27.43,2.6c-.2.97-.71.78-1.44.96.28-.52.93-.74,1.44-.96Z"/>
      <path class="cls-26" d="M139.39,102.39c1.81-.99,2.93-2.4,4.32-3.6-.94,1.78-2.44,2.87-4.32,3.6Z"/>
      <path class="cls-26" d="M138.43,103.35l.72-.72c-.23.2-.26.46-.72.72Z"/>
      <path class="cls-16" d="M121.89,2.6c-.1-.06-.17-.19-.24-.24l.24.24Z"/>
      <path class="cls-19" d="M18.08,9.79c.09-.15.22-.21.24-.24l-.24.24Z"/>
      <g>
        <path class="cls-19" d="M108.94,3.32c1.77,12.64-33.84,17.06-44.59,16.31-4.74-2.69-11.12-4.87-17.21-6.17-11.42-5.67-11.47-11.47,1.15-4.87,4.61,1.35,7.93.78,12.47,1.92,6.64,1.03,11.06-1.21,18.94-.72-1.78,2.01-8.68-1.34-9.83,1.44,2.4-.45,4.08.23,5.99,0,12.02-.33,22.46-.55,33.09-7.92Z"/>
        <path class="cls-14" d="M127.16,8.83c5.75,5.85,6.62,14.68,6.48,22.07,2.38,1.75,1.22,7.91,2.16,11.52-1.68-1.94-1.17-7.09-1.68-10.07-16.84,31.6-10.41-13.85-6.95-23.51Z"/>
        <path class="cls-22" d="M19.04,10.99c-2.46,4.44-5.93,10.95-6.23,16.07-1.12,2.73.13,8.81-1.2,11.76.12,8.73-3.24,19.33-3.84,29.26-.56.06-3.46,16.78-4.08,12.48C8.54,63.63,8.59,13.89,19.04,10.99Z"/>
        <path class="cls-29" d="M57.76,124.93c.64-.02-18.34,1.54-14.38-.61.46.05,20.46-.33,17.7.92,4.36.28.05.45-3.32-.31Z"/>
        <path class="cls-10" d="M3.21,80.56c1.62.47-.49,3.89.24,5.76-.73-.11-2.35,7.66-.96,7.44,1.63,6.49,7.9,22.1,17.26,19.91-.95,2.23.94,0,1.35-.57,3.17-4.26-4.74,7.63-6.39,9.92-4.03-4.27,58.35-73.68,2.56-3.73.28-1.13,3.52,3.23,3.91,2.13,4.77-4.73-8.49,2.89-5.23-2.06.66-1.69,2.69-3.52.04-4.44-12.55-6.22-18.58-21.33-12.79-34.35Z"/>
        <path class="cls-3" d="M34.38,1.16c-16.3,4.75,16.4,15.02,21.81,17.27-13.56.67-17.81-13.8-23.78,4.41-1.99,2.04,2.64-5.76,1.13-6.08-1.18.23-.07,1.4-1.08,1.19.49-2.66,3.14-4.63,3.72-6.72-4.29-1.81-7.47-7.18-11.15-6.71,1.67-1.06,6.45-4.83,9.35-3.36Z"/>
        <path class="cls-16" d="M79.69,9.79c18.37,2.94,29.13-15.2,41-8.16-2.96.09-8.8-2.86-11.75,1.68-5.17,3.99-11.78,5.38-16.78,6.71-7.9.05-14.39,1.94-22.06.72,1.76-1.79,7.83.85,9.59-.96Z"/>
        <path class="cls-10" d="M135.79,42.42c.18,9.55,4.73,21.97,3.6,30.7-2.63-4.1-2.13-28.3-5.15-17.75-1.3,1.78-2.93,3.31-4.91,3.72-5.03,2.58-5.7,8.25-8.64,12.35.39-11.59,17.19-15.69,15.1-29.02Z"/>
        <path class="cls-30" d="M114.19,126.02c2.04,5.8-6.22,6.4-10.06,6.34,8.62-2.04,9.85-3.54,9.35-13.19"/>
        <path class="cls-10" d="M25.53,122.07c4.18,2.99,16.8-.97,18.22,3.84-5.3-1.88-36.8-1.73-18.22-3.84Z"/>
        <path class="cls-4" d="M34.86,1.4c6.5,3.01,12.89,6.75,20.02,7.44,2.37-.21,15.89,1.42,11.15,2.16-9.44-1.91-22.71-.88-31.17-9.59Z"/>
        <path class="cls-30" d="M125.25,5c7.79,3.5,11.58,26.11,8.63,25.19-.4-6.62-.78-13.15-3.84-17.99-.73-1.9-6.33-5.9-4.8-7.2Z"/>
        <path class="cls-16" d="M72.97,127.09c1.56.87,5.3-.27,7.11,2.61,5.58,3,12.06,2.29,17.59,2.19,9.25,4.86-36.33-4.41-24.69-4.8Z"/>
        <path class="cls-29" d="M144.19,96.39c0,4.64-8.01,7.76-10.9,11.28-.48-.12,3.94-3.31,2.99-3.6-3.93,2.62-.52-5.04,2.39-4.93,3.05.6,3.57-1.76,5.53-2.75Z"/>
        <path class="cls-18" d="M144.19,95.43c-5.06-26.11-2.6-12.15-7.43-45.58,1.82,15.58,6.13,29.84,7.43,45.58Z"/>
        <path class="cls-3" d="M141.55,79.12c.29,4.42,4.8,25.31.67,13.75-4.3,6.17-.48-.63.32-3.31-1.13-3.68-1.12-7.34-.99-10.43Z"/>
        <path class="cls-30" d="M133.88,106.44c11.19-9.21-8.9,11.5-19.66,8.65-1.77-2.72,7.31-1.8,7.92-2.4,3.77-1.17,8.83-4.76,11.75-6.26Z"/>
        <path class="cls-30" d="M120.69,1.64c1.08,1.3,3.49,1.73,3.36,3.6-1.83-1.22-7.93-4.81-3.36-3.6Z"/>
        <path class="cls-26" d="M78.48,129.97c-.47-.02-.78-.3-.96-.72.34.12.68.48.96.72Z"/>
        <path class="cls-13" d="M34.86,1.4c7.26,14.24,16.45,10.23,27.33,17.99-14.67-3.53,6.4,8.7,12.22,7.2-4.39,6.2-6.17,11.22-13.87,8.79-.09,2.64-1,1.85-1.38-.13-1.65.54-12.36-1.67-11.36-4.1,3.5-6.16,13.95-13.09,1.44-13.43.68-1.28,6.27,1.19,6.95.72-4.59-1.95-30.53-13.93-21.34-17.03ZM36.06,4.52c.15-.33-.42-.76-.6-.96-1.19.36-.39,1.16.6.96Z"/>
        <path class="cls-16" d="M119.25,1.88c10.74,2.66-42.34,22.6-30.45,14.87,9.87-2.08,21.69-6.94,30.45-14.87Z"/>
        <path class="cls-3" d="M60.27,19.15c4.41,2.3,24.75-1.08,11.4,3.61-.41,3.82-9.67-.64-10.44-.73-3.15.14-7.27-5.92-.96-2.88Z"/>
        <path class="cls-8" d="M118.77,1.88c-.02,3.08-8.07,5.69-11.27,7.68,1.74-5.95,3.62-11.77,11.27-7.68Z"/>
        <path class="cls-14" d="M86.89,17.47c-14.07,4.38-7.25,12.31-23.97,5.28,1.89-.4,5.97,2.12,7.78,1.68,8.94-6.65,6.69-3.61-3.35-4.08,1.07-1.25,14.71-.8,19.55-2.88Z"/>
        <path class="cls-8" d="M89.76,10.03c.13.74-.37.45-.83.48-4.07.25-1.85-.73.83-.48Z"/>
        <path class="cls-8" d="M80.41,10.99c.1.96-1.89.32-2.64.48-.1-1.04,1.88-.23,2.64-.48Z"/>
        <path class="cls-14" d="M92.4,15.79c.07.89-1.6.85-2.4.96-.02-.87,1.67-.61,2.4-.96Z"/>
        <path class="cls-16" d="M68.91,10.27c1.06.94-1.71,1.17-1.2,0,.37.06.81-.04,1.2,0Z"/>
        <path class="cls-8" d="M72.02,10.99c-.49.5-1.48.15-2.16.24,0-1.12,1.77-.23,2.16-.24Z"/>
        <path class="cls-14" d="M97.68,14.11c.26.54-1.69,1.25-1.92.72.44-.63,1.34-.52,1.92-.72Z"/>
        <path class="cls-8" d="M64.35,10.51c.57.16,1.88-.43,1.68.48-.7-.02-1.9.3-1.68-.48Z"/>
        <path class="cls-8" d="M85.45,10.51c.27,1.1-1.47.23-1.68.24.45-.37,1.12-.26,1.68-.24Z"/>
        <path class="cls-14" d="M66.03,19.87c-.22.01-1.12.49-1.68.24-.21-.81,1.26-.56,1.68-.24Z"/>
        <path class="cls-14" d="M88.8,16.75c.15.74-.89.7-1.44.72-.2-.65.88-.65,1.44-.72Z"/>
        <path class="cls-8" d="M105.35,5.48c.04.87-.9.73-1.44.96-.16-.59.92-.72,1.44-.96Z"/>
        <path class="cls-8" d="M75.86,11.23c-.42.41-1.7.48-1.44-.24.54.05,1.13.22,1.44.24Z"/>
        <path class="cls-13" d="M40.86,5.72c-.52-.14-1.58.02-1.44-.72.42.21,1.23.09,1.44.72Z"/>
        <path class="cls-8" d="M105.59,10.51c.16.78-.75.56-1.2.72.21-.59.77-.54,1.2-.72Z"/>
        <path class="cls-14" d="M95.28,14.83c.11.96-.79.47-.96.48.22-.34.58-.45.96-.48Z"/>
        <path class="cls-8" d="M59.8,10.03c.48.06,1.13-.25.96.48-.6-.03-1.11.24-.96-.48Z"/>
        <path class="cls-8" d="M56.2,9.79l-.96.24c-.23-.85.78-.22.96-.24Z"/>
        <path class="cls-14" d="M93.84,15.31c.12.96-.81.47-.96.48.22-.34.58-.45.96-.48Z"/>
        <path class="cls-8" d="M62.91,10.51c-.03.36-.69.36-.72,0,.23-.22.49-.22.72,0Z"/>
        <path class="cls-8" d="M51.64,9.07c1.27.18.49.3.72.48-.41,0-.88.12-.72-.48Z"/>
        <path class="cls-8" d="M92.88,9.55c.16.6-.31.47-.72.48.21-.16-.54-.36.72-.48Z"/>
        <path class="cls-8" d="M107.74,4.04c.09.44-.04.55-.48.48.21-.2-.41-.13.48-.48Z"/>
        <path class="cls-8" d="M47.81,8.12c.43-.06.54.04.48.48-.47-.04-.54.16-.48-.48Z"/>
        <path class="cls-8" d="M99.11,8.12c.06.42-.06.54-.48.48.19-.14-.45-.27.48-.48Z"/>
        <path class="cls-8" d="M97.44,8.59c.06.42-.06.54-.48.48.16-.11-.42-.38.48-.48Z"/>
        <path class="cls-8" d="M50.92,9.07c-.11.29-.3.11-.48,0,.03,0,.17-.02.48,0Z"/>
        <path class="cls-8" d="M95.52,9.07c.06.42-.06.54-.48.48.16-.14-.41-.39.48-.48Z"/>
        <path class="cls-8" d="M53.8,9.55c-.09.38-.28.11-.48,0,.04,0,.29,0,.48,0Z"/>
        <path class="cls-8" d="M94.32,9.55c-.09.38-.28.11-.48,0,.22,0,.3,0,.48,0Z"/>
        <path class="cls-8" d="M103.67,11.47c-.16.16.42.36-.48.48-.06-.42.06-.54.48-.48Z"/>
        <path class="cls-8" d="M82.57,10.75v.48c-.31-.16-.85-.32,0-.48Z"/>
        <path class="cls-8" d="M91.2,10.03c-.09.38-.28.11-.48,0,.15,0,.45,0,.48,0Z"/>
        <path class="cls-29" d="M124.29,24.91c.42,3.43-3.68,8.4-.96,11.27.12,2.87-2.79,3.31-3.24,6.48-5.25,23.18-3.18,14.78-3.71-2.4.32-4.46-4.22-11.05-.48-14.63,2.33,11.28,5.02,3.12,8.39-.72Z"/>
        <path class="cls-27" d="M125.49,10.99c-2.43,2.67-6.62,14.62-9.36,8.76-5.53-5.85,10.3-22.76,9.36-8.76Z"/>
        <path class="cls-9" d="M123.81,22.03c-.14,5.15-4.5,5.65-5.75.48,4.53-8.82,10.53-14.07,5.75-.48Z"/>
        <path class="cls-23" d="M135.32,42.42c-2.88,7.95-6.42,1.57-5.27-4.08,5.02-9.71,3.97-2.46,5.27,4.08Z"/>
        <path class="cls-17" d="M131.96,47.21c-3.48,7.56-5.56,3.44-6.71-2.64,6.42-7.72,2.76-4.75,6.71,2.64Z"/>
        <path class="cls-3" d="M123.33,37.38c.62,2.55.35,6.19,1.92,7.68-8.83,14.11-4.67-.24-1.92-7.68Z"/>
        <path class="cls-17" d="M124.05,5.24c5.03,2.01,1.14,9.22,1.31,1.92-1.12-1.38-6.42-4.45-1.31-1.92Z"/>
        <path class="cls-3" d="M123.09,32.1c.03,1.29.17,2.84.24,4.08-1.44-.15-1.28-3.91-.24-4.08Z"/>
        <path class="cls-3" d="M123.81,22.03c1.5-.26.43,1.99.48,2.88-2.15.91-.5-1.67-.48-2.88Z"/>
        <path class="cls-16" d="M132.92,19.63c-.66.14-1.11-2.03-1.2-2.64.82-.04,1.09,1.9,1.2,2.64Z"/>
        <path class="cls-16" d="M131.24,15.31c.96-.12.47.81.48.96-.52-.15-.44-.53-.48-.96Z"/>
        <path class="cls-16" d="M133.4,23.71s-.48,0-.48,0c.21-.84.24-1.33.48,0Z"/>
        <path class="cls-16" d="M134.12,30.9c-.76.18-.44-.52-.24-.72.31.12.23.46.24.72Z"/>
        <path class="cls-16" d="M130.76,13.63c.1.16.38-.42.48.48-.42.06-.54-.06-.48-.48Z"/>
        <path class="cls-16" d="M129.56,11.71c.69-.17.41.39.48.48-.69.14-.39-.29-.48-.48Z"/>
        <path class="cls-16" d="M133.88,28.26h-.48c.16-.31.32-.86.48,0Z"/>
        <path class="cls-3" d="M124.05,27.07c-.21.84-.3.31-.48,0,0,0,.48,0,.48,0Z"/>
        <path class="cls-27" d="M24.31,19.63c-3.53,5.26-7.68,10.42-11.75,15.35-2.32-12.15,8-20.45,14.62-29.98-1.22,3.6-3.33,9.85-2.88,14.63Z"/>
        <path class="cls-25" d="M24.31,21.31c-4.55,4.96-10.06,39.7-13.43,26.15,1-4.68,1.15-9.75,1.44-13.67.01.09.47.73.24,1.2,3.89-3.15,8.7-13.79,11.75-13.67Z"/>
        <path class="cls-23" d="M9.69,79.6c-10.89,18.04-3.69-6.07,0-10.56,0,0,0,10.56,0,10.56Z"/>
        <path class="cls-25" d="M27.19,4.76c-3.19,4.42-15.95,23.1-10.31,10.08,1.95-2.76,5.74-10.84,10.31-10.08Z"/>
        <path class="cls-20" d="M9.93,53.21c3.35,2.51.14,9.14,2.16,12.95-1.34.71-4.7,7.15-4.8,4.08,1.09-5.99,1.86-10.57,2.64-17.03Z"/>
        <path class="cls-30" d="M10.89,49.37c-.58,4.69,5.57,10.78,2.88,14.15-.97-4.55-5.2-11.65-2.88-14.15Z"/>
        <path class="cls-10" d="M25.03,4.52c-1.41,1.92-4.42,3.9-5.99,6.48.66-2.86,2.6-6.78,5.99-6.48Z"/>
        <path class="cls-19" d="M3.93,86.55c-1.85-3.23,2.17-10.02,2.88-13.67.57,4.36-3.16,9.21-2.88,13.67Z"/>
        <path class="cls-10" d="M15.2,19.39c-.57,1.26.25,1.77-1.2,2.88.2-.86.19-2.82,1.2-2.88Z"/>
        <path class="cls-30" d="M9.93,53.69c-.29.71.33,3.08-.72,3.12.5-1.27-.17-2.32.72-3.12Z"/>
        <path class="cls-25" d="M13.04,25.87c-.55-.28.08-1.9.48-2.16.52.26-.2,1.73-.48,2.16Z"/>
        <path class="cls-30" d="M7.77,68.08c.05.44-.38,3.14-.71,1.61.22-.47-.02-1.8.71-1.61Z"/>
        <path class="cls-30" d="M7.29,71.2c.47.25-.1.64-.24.96-.81-1.13.19-.9.24-.96Z"/>
        <path class="cls-30" d="M12.09,37.62c-.33-.3-.33-.66,0-.96.08.65.01.54,0,.96Z"/>
        <path class="cls-30" d="M11.13,46.5c-.02.57-.19.69-.24.96,0-.38-.59-1.19.24-.96Z"/>
        <path class="cls-30" d="M8.25,64.73c-.01.61.23,1.11-.48.96.09-.46-.27-1.14.48-.96Z"/>
        <path class="cls-30" d="M12.09,38.82c0,.32.12.79-.24.96-.13-.22-.65-1.17.24-.96Z"/>
        <path class="cls-25" d="M12.8,27.78c0,.26.06.61-.24.72-.03-.26-.72-.83.24-.72Z"/>
        <path class="cls-30" d="M11.37,44.82c-.01.26.07.6-.24.72-.2-.2-.52-.9.24-.72Z"/>
        <path class="cls-25" d="M13.04,26.35c.02.26.05.61-.24.72-.01-.2-.74-.84.24-.72Z"/>
        <path class="cls-30" d="M11.61,42.9c-.01.26.07.6-.24.72-.2-.2-.52-.9.24-.72Z"/>
        <path class="cls-30" d="M11.85,40.98c-.01.26.07.6-.24.72-.2-.2-.52-.9.24-.72Z"/>
        <path class="cls-30" d="M8.25,63.77c0-.25-.03-.3,0-.72.36.03.36.69,0,.72Z"/>
        <path class="cls-30" d="M7.77,66.88c0-.14-.02-.4,0-.72.36.03.36.69,0,.72Z"/>
        <path class="cls-30" d="M8.73,61.85c0,.41.12.88-.48.72.25-1.28.3-.47.48-.72Z"/>
        <path class="cls-10" d="M18.08,12.91c-.1.27.26.6-.48.48.1-.3-.24-.59.48-.48Z"/>
        <path class="cls-30" d="M9.21,59.21l-.24.48c-.32-.22-.33-.6.24-.48Z"/>
        <path class="cls-30" d="M12.09,36.18c-.44-.31.16-.57.47-.6,0,0-.47.6-.47.6Z"/>
        <path class="cls-25" d="M12.33,33.06c-.38-.09-.11-.28,0-.48,0,.16,0,.45,0,.48Z"/>
        <path class="cls-25" d="M12.56,29.22c-.15.85-.32.31-.48,0,0,0,.48,0,.48,0Z"/>
        <path class="cls-10" d="M16.64,15.79c-.3.88-.27.29-.48.48-.06-.41.07-.54.48-.48Z"/>
        <path class="cls-10" d="M17.36,14.35c-.26.92-.3.29-.48.48-.06-.42.06-.54.48-.48Z"/>
        <path class="cls-29" d="M126.92,102.15c1.2,1.09,6.19-3.13,7.19-2.64-2.67,4.32-13.45,5.08-6.14,10.75-4.9,3.11-16.77,6.37-12.33-3.22,3.74.48,10.43-1.33,12.11-4.18-.66-.1-1.88.39-.84-.72Z"/>
        <path class="cls-1" d="M91.08,132.14c4.72-2.34,22.08-30.27,22.2-21.11,5.29,1.29-11.83,19.97-11.88,21.72,0,0-10.32-.61-10.32-.61Z"/>
        <path class="cls-30" d="M120.45,113.18c-.57,1.24-4.44.98-5.51,0,2.17.23,3.38.16,5.51,0Z"/>
        <path class="cls-3" d="M113.74,109.58c.98-.61.28,3.15.48,3.36-1.44.92-.26-2.42-.48-3.36Z"/>
        <path class="cls-3" d="M113.5,117.26c-.06-1-.05-1.17,0-2.16.73.51.43,1.55,0,2.16Z"/>
        <path class="cls-30" d="M124.77,111.74c.05.61-1.54,1.47-1.92.96.46-.36,1.37-.86,1.92-.96Z"/>
        <path class="cls-30" d="M122.13,112.7l-.23.62c-.87.23-.32-.74.23-.62Z"/>
        <path class="cls-8" d="M72.01,127.09c-.68.31-4.72.34-4.56-.72,0,0,4.56.72,4.56.72Z"/>
        <path class="cls-9" d="M41.8,123.97c-.4.5-3.93-.42-3.84-1.2,0,0,3.84,1.2,3.84,1.2Z"/>
        <path class="cls-4" d="M32.69,119.41c.59.2,1.52.99,1.44,1.68-.51-.2-2.05-1.12-1.44-1.68Z"/>
        <path class="cls-9" d="M44.2,124.21c-.02.74-2.21.49-1.92-.24.64.02,1.26.35,1.92.24Z"/>
        <path class="cls-8" d="M46.35,124.21c.48.06,1.13-.25.96.48-.6-.03-1.11.24-.96-.48Z"/>
        <path class="cls-4" d="M32.21,117.74c.65-.07.43.02.48.48-.62.06-.45,0-.48-.48Z"/>
        <path class="cls-2" d="M24.31,108.14c.77.55,1.63-2.08,2.51-2.65,4.12-4.64.71,10.01,4.62,7.74,3.82,1.38,3.6-.13,4.57-3.82,2.22-2.37,5.33-12.19,8.45-10.03,5.13,7.89-10.1,15.77-11.77,24.59,0,0-2.85-1.42-2.85-1.42-6.15,2.47-1.01-1.64-5.77-.44-.44.65-2.15-.72-2.67.08-.24.46.23-.79-.2-.78-.78.31,1.52,2.44,1.2.17-15.46,4.85.19-6.74,1.92-13.43Z"/>
        <path class="cls-3" d="M12.09,76.96c2.19,5.92-1.86,15.93,1.2,20.87-.2-4.97,4.29-3.48,5.99-.48-3.63,4.69-8.99,9.07-1.68,13.19,6.18,8.37-7.67.95-8.87-3.36,3.68,3.55,3.22-1.73,1.1-3.86-2.17-4.92-7.14-13.15-6.38-17.01,2.07,3.19,2.81,9.9,6.35,13.2,4.27,6.99-1.35-10.49.12-13.57,1.94-3.72-2.22-6.22,2.17-8.98Z"/>
        <path class="cls-8" d="M2.74,87.51c2.15,5.89,7.57,14.35,8.63,21.11-3.13-.7-5.59-4.74-6-7.67-.69-.29-1.3-2.49-1.44-3.36-.1-.63-.72-.71-.48-1.68-2.49-2.11-.72-5.53-.72-8.4Z"/>
        <path class="cls-30" d="M32.7,91.83c-3.67,8.33-7.7,16.66-13.19,22.67,1.29-2.43,1.92-5.22,1.2-8.03,2.07-2.34.96.9,1.44,1.92,4.85-4.19,5.56-12.33,10.55-16.55Z"/>
        <path class="cls-3" d="M4.17,99.27c.59-.15.63.47.72.96-.63.15-.59-.47-.72-.96Z"/>
        <path class="cls-3" d="M2.5,93.75c-1.12-.1-.48-.58-.48-.72.37.12.47.35.48.72Z"/>
        <path class="cls-3" d="M2.74,88.47c-.01.26.07.6-.24.72-.21-.21-.52-.89.24-.72Z"/>
        <path class="cls-3" d="M4.89,100.95c.42-.06.54.06.48.48-.12-.16-.36.43-.48-.48Z"/>
        <path class="cls-3" d="M2.5,90.39c.06.42-.06.54-.48.48.09-.89.37-.33.48-.48Z"/>
        <path class="cls-3" d="M2.98,95.91c.42-.06.54.06.48.48-.18-.2-.19.44-.48-.48Z"/>
        <path class="cls-3" d="M3.45,97.11c.42-.06.54.06.48.48-.12-.18-.31.44-.48-.48Z"/>
        <path class="cls-9" d="M49.01,17.71c-9.54,14.73-33,46.53-17.5,6.96,5.35-12.12,4.62-13.69,17.5-6.96Z"/>
        <path class="cls-27" d="M49.25,17.71c11.95.42,2.91,6.41-.72,12.47-3.07,5.4-9.3,8.18-15.1,8.63,5.22-6.72,11.06-14.39,15.82-21.11Z"/>
        <path class="cls-16" d="M32.46,17.95c4.32-1.1-12.45,25.69-9.11,33.82-4.55-.99,2.97-20.55,1.91-28.3,2.72,3.3,6.09-3.14,7.19-5.52Z"/>
        <path class="cls-9" d="M32.46,9.31c8.43,1.85-2.84,8.93-4.44,13.43-2.22-4.33.87-10.55,4.44-13.43Z"/>
        <path class="cls-8" d="M31.27,2.84c14.97,11.37,24.47,17.92,1.94,5.14-2.04-1.87-7.82-4.46-1.94-5.14Z"/>
        <path class="cls-5" d="M31.27,8.12c-2.65-2.82-3.59,1.03-4.31,3.27.93,3.3.07,6.04-2.65,8.25.23-5.43,1.21-20.03,6.95-11.51Z"/>
        <path class="cls-14" d="M32.46,17.95c-3.09,5.13-6.88,10.94-7.43.96,3.35-5.19,2.18-.24,2.64,3.24,1.2.97,4.18-5.58,5.99-7.07l-1.2,2.88Z"/>
        <path class="cls-27" d="M31.27,8.12c2.63.62-2.23,5.61-3.84,6.96-.91-2.7.05-10.52,3.84-6.96Z"/>
        <path class="cls-14" d="M34.38,13.87c.29-.4.29-.49.72-.96.07.58-.11.94-.72.96Z"/>
        <path class="cls-5" d="M31.74,8.36c.33-.09.57.14.48.48-.42.06-.54-.06-.48-.48Z"/>
        <path class="cls-14" d="M124.29,65.21c.67-5.49,7.51-5.82,9.95-9.83,2.73-11.2,2.88,14.28,5.15,18.23-16.61,25.93-13.34,11.94-15.11-8.39Z"/>
        <path class="cls-28" d="M123.81,66.4c2.12,6.12,3.87,37.86-2.09,23.32-1.26-8.08-4.1-17.04,2.09-23.32Z"/>
        <path class="cls-14" d="M134.84,43.62c3.89,12.12-13.08,16.16-14.86,27.59-3.05,1.92-1.13-12.17-1.8-14.87-2.09,14.19-1.84,12.92-.84-.24,3.57-6.04,1.42,1.41,1.2,4.44-1.33,13.61,11.41-12.66,16.3-16.91Z"/>
        <path class="cls-14" d="M140.11,72.88c.06.13.68,1.13-.12.96.06-.15-.36-1.18.12-.96Z"/>
        <path class="cls-28" d="M124.29,65.21c.06.42-.06.54-.48.48.1-.9.36-.32.48-.48Z"/>
        <path class="cls-10" d="M17.71,120.91c-.06.2.15.58-.24.48-.16-.39-.36-.54.24-.48Z"/>
        <path class="cls-19" d="M105.33,131.41c-.5,1.17-4.61,2.39-5.99.72,1.93-.7,3.85-.24,5.99-.72Z"/>
        <path class="cls-20" d="M111.84,130.05c.58-1.53,1.72-9.63,1.64-10.88-4.67,4.69-5.81,4.5-1.64,10.88Z"/>
        <path class="cls-20" d="M31.38,122.35c.06,0,.38-.39.72-.24.18.55-.46.68-.72.24Z"/>
        <path class="cls-25" d="M88.07,131.17c7.73,1.43-3.09.87-5.75-.48l5.75.48Z"/>
        <path class="cls-8" d="M74.4,127.33c-.46.07-1.59.78-1.44-.24.45-.01,1.18-.15,1.44.24Z"/>
        <path class="cls-19" d="M98.86,132.13c-.38.07-.85.65-1.2-.24.38.04.99-.17,1.2.24Z"/>
        <path class="cls-8" d="M141.07,82.96c1.99,3.65,1.15,8.93-1.2,12.71.9.53,2.2-3.62,2.87-3.12.17,1.23.95,3.98,0,5.15-3.43,2.36-8.37,1.36-8.39,7.32-1.95,1.65-4.93,4.76-7.88,5.01-3.56-6.7,5.6-6.56,7.64-10.53-15.83,7.87,4.44-10.27,6.95-16.55Z"/>
        <path class="cls-30" d="M134.36,105.02c3.57-2.39.98,1.34-.96,1.92-.16-.74.7-1.44.96-1.92Z"/>
        <path class="cls-6" d="M141.31,82.72c-2.77,3.36-10.02,15.62-12.07,14.69,1.91-7.78,9.9-35.07,12.07-14.69Z"/>
        <path class="cls-20" d="M140.83,74.56c.2.92.97,3.96.48,4.56.13-1.2-1.5-4.3-.48-4.56Z"/>
        <path class="cls-14" d="M140.83,74.56c-.19,0-.58.04-.71-.13-.2-.53.45-.51.71.13Z"/>
        <path class="cls-29" d="M132.2,106.94c-.4,1.16-2.39,2.01-3.36,2.64.86-.9,2.11-2.31,3.36-2.64Z"/>
        <path class="cls-29" d="M133.4,106.22c.16.84-.28.74-.96.72-.07-.89.7-.58.96-.72Z"/>
        <path class="cls-25" d="M47.57,31.38c2.05,3.36,6.97,2.69,10.63,4.33,1.27-1.85,1.09.96,1.48,1.43,2.09-3.98,3.5-.39,7.79-.96-11.58,16.46-9.85,17.72-29.38,14.88-14.31,4.61,6.84-14.16,9.48-19.68Z"/>
        <path class="cls-23" d="M83.29,26.11c-5.45,5.38-8.84,19.71-17.89,16.58-6.11,1.38,2.05-5.06,2.07-6.75,4.71-6.36,6.82-11.26,15.82-9.83Z"/>
        <path class="cls-9" d="M61.71,22.51c4.1,1.4,9.28,2.58,13.19,3.84-3.05.38-13.37-1.41-13.19-3.84Z"/>
        <path class="cls-19" d="M36.06,4.52c-.99.21-1.8-.6-.6-.96.18.19.75.63.6.96Z"/>
        <path class="cls-14" d="M60.51,22.27c.02-.33.51-.23.72-.24.11.67-.28.4-.72.24Z"/>
        <path class="cls-14" d="M60.75,19.15l-.14.23c-.21-.17-.72-.36.14-.23Z"/>
        <path class="cls-25" d="M68.67,34.5s.07-.25.24-.48l-.24.48Z"/>
        <path class="cls-25" d="M47.81,31.14l.48-.72-.48.72Z"/>
        <path class="cls-25" d="M70.1,32.58c.13-.17.26-.43.48-.72l-.48.72Z"/>
        <path class="cls-25" d="M67.47,35.94c.31-.42.69-.83.96-1.2-.2.49-.46.98-.96,1.2Z"/>
        <path class="cls-25" d="M71.54,30.66c.04-.06.08-.27.24-.48l-.24.48Z"/>
        <path class="cls-25" d="M48.53,30.18l.48-.72-.48.72Z"/>
        <path class="cls-25" d="M70.82,31.62c.12-.16.25-.42.48-.72l-.48.72Z"/>
        <path class="cls-25" d="M69.39,33.54c.13-.17.27-.44.48-.72l-.48.72Z"/>
        <path class="cls-25" d="M49.25,29.22l.48-.72-.48.72Z"/>
        <path class="cls-13" d="M105.59,12.43c10.23,9.46.75,6.51,1.2,13.67-6.41,13.44-18.9,19.27-33.57,15.24,13.24-23.17,11.89-17.43,32.37-28.91Z"/>
        <path class="cls-21" d="M115.42,7.64c1.87,5.11-11.24,23.63-7.68,14.27,8.65-5.12-10.36-9.08,7.68-14.27Z"/>
        <path class="cls-5" d="M89.04,18.19c-.86,5.29-16.35,1.61-7.19,6-13.72,6.02-.87-7.52,7.19-6Z"/>
        <path class="cls-13" d="M121.65,4.28c-1.36,2.28-5.15,9.83-7.2,9.5-.57-3.71,3.08-11.22,7.2-9.5Z"/>
        <path class="cls-21" d="M102.47,14.11c-3.28,3.79-10.58,4.88-14.86,6.48,2.39-4.79,10.66-3.68,14.86-6.48Z"/>
        <path class="cls-14" d="M61.71,22.51c.2-.49.61-.2.48.24-.23-.04-.41-.23-.48-.24Z"/>
        <path class="cls-6" d="M80.89,21.79c-.58.14-1.48.08-1.2.96,10.25,1.78-.35,4.9-4.79,3.36,1.73-.89,6.04.06,6.95-1.91-2.56-.74-5.17-3.11-.96-2.4Z"/>
        <path class="cls-28" d="M115.61,59.21c-7.12,10.67-15.78,23.56-30.09,19.92-10.15-.3.15-3.95-3.46-8.44,2.69-3.08,7.62-15.63,11.43-11.31,11.48.89,23.39-7.48,23.32-18.88,1.46,6.05-.26,12.91-1.2,18.71Z"/>
        <path class="cls-8" d="M114.67,29.32c7.37,15.58-2.87,33.03-22.41,29.85-2.89-3.97,2.48-4.42,3.5-5.96,6.99-7.37,12.04-16.54,18.91-23.89Z"/>
        <path class="cls-18" d="M116.38,69.04c-5.75,9.46-11.77,17.9-23.26,19.19,9.07-7.45,29.39-48.92,23.26-19.19Z"/>
        <path class="cls-5" d="M118.05,22.27c-3.08,5.01-2.05,1.61-4.55-.24.02,1.42,2.04,6.36-.24,6.96-1.78-7.52-1.18-18.43,4.79-6.72Z"/>
        <path class="cls-14" d="M118.05,22.51c.78,2.65,2.77,5.28,5.03,2.88-1.36,10.82-11.28,3.15-5.03-2.88Z"/>
        <path class="cls-30" d="M122.37,39.06c-1.44,5.27-1.9,11.6-4.31,15.83.63-4.64.65-13.47,4.31-15.83Z"/>
        <path class="cls-15" d="M115.9,25.39c-2.83,5.23-1.27-2.35-2.4-3.36.66-.75,1.83,3.4,2.4,3.36Z"/>
        <path class="cls-28" d="M114.22,28.02c1.02-.29.44,2.48-.22,2.14-.15-.63-.4-1.67.22-2.14Z"/>
        <path class="cls-28" d="M115.9,38.34c.7-.11.44.17.48.72-.61.13-.47-.26-.48-.72Z"/>
        <path class="cls-28" d="M115.9,36.66c-1.01.1-.24-.65-.24-.72.23.2.22.44.24.72Z"/>
        <path class="cls-1" d="M128.36,52.49c-2.11,3.99-7.08-5.34-3.12-7.44.59,2.16,1.7,5.58,3.12,7.44Z"/>
        <path class="cls-11" d="M122.13,49.37c3.22,1.27.6,5.66,1.68,9.36-7.29,15.17-6.89-2.72-1.68-9.36Z"/>
        <path class="cls-26" d="M124.05,50.57l-1.92-1.2c1-2.28,2.52-.45,1.92,1.2Z"/>
        <path class="cls-16" d="M25.27,22.75c-2.46,2.65-.19-.38-1.2-2.4,1.06-3.3,2.14,1.03,1.2,2.4Z"/>
        <path class="cls-2" d="M24.31,21.31c.25,5.53-8.21,58.29-13.43,28.07,5.61,6.93,8.12-22.6,13.43-28.07Z"/>
        <path class="cls-14" d="M9.21,80.56c2.86,3.83-.3,10.67.96,15.71,1.65,1.03,1.55,3.67,1.44,5.4-5.54-5.63-10.51-15.13-2.4-21.11Z"/>
        <path class="cls-17" d="M12.56,76c-5.2,9.76-1.99-4.87-2.88-6.96,3.73-6.54,3.07,3.47,2.88,6.96Z"/>
        <path class="cls-19" d="M4.41,86.79c.09.36-.39.33-.48,0,0,0,.48,0,.48,0Z"/>
        <path class="cls-3" d="M24.79,5.24c-.17.14-.23.57-.72.48.04-.04-.18-.73.72-.48Z"/>
        <path class="cls-29" d="M11.61,57.77c1.39.38,1.11,7.17,3.12,5.04,2.43,2.68,2.06,7.06,5.75,4.56.07,5.9.61,23.02-.48,29.51-2.09.68-5.86-6.64-6.71.96-1.68-7.74-3.03-21.39,4.08-27.59,3.13,3.6,2.84,2.22,1.2-1.44-2.03,1.8-3.38-3.47-4.32-5.04-3.71,4.47-3.08-2.8-2.63-6Z"/>
        <path class="cls-26" d="M12.09,65.93c2.8-5.06,3.05,1.9,5.51,3.6-5.73,8.99-4.5,4.35-5.51-3.6Z"/>
        <path class="cls-26" d="M20.24,56.81c-1.5,3.44,1.97,10.12-2.16,11.64-4.8-3.4-1.18-12.18,2.16-11.64Z"/>
        <path class="cls-16" d="M20.96,45.06c.31,4.53-3.02,20.18-6.95,14.63,5.08-2.4,4.53-10.55,6.95-14.63Z"/>
        <path class="cls-3" d="M115.42,70.72c.09,11.28-.34,25.59-.96,35.74-.56.4-10.93,15.34-12.93,14.02-1.06-2.3-4.83-2.63-4.13-5.71-3.88-1.16-8.7-3.16-12.9-2.43-7.89,3.33,24.89-31.3,30.92-41.63Z"/>
        <path class="cls-16" d="M119.49,74.8c.81,10.95,6.89,20.98-2.88,28.78,1.52-8.56-1.52-21.65,2.88-28.78Z"/>
        <path class="cls-26" d="M122.85,95.91c1.37,2.19.34,6.23,2.4,7.68-11.76,5.83-9.24-1.25-2.4-7.68Z"/>
        <path class="cls-11" d="M127.4,101.19c-3.42,6.32-3.38-2.66-4.55-5.28,5.2-8.84,3.09.02,4.55,5.28Z"/>
        <path class="cls-10" d="M117.81,67.36c2.43-1.29-.43,4.76,1.92,4.56-3.34,7.87-1.96-.62-1.92-4.56Z"/>
        <path class="cls-10" d="M117.09,64.01c.3-1.44.81-9.08,1.43-6.84-.52,1.82.27,6.32-1.43,6.84Z"/>
        <path class="cls-10" d="M120.45,72.64c-.02.34-.14.62-.48.72.01-.54-.16-.83.48-.72Z"/>
        <path class="cls-15" d="M111.37,121.58c-14.58.11,2.3-2.83,3.79-13.22-.19-6.42-3.48,7.62-14.61,14.66,1.52-5.24,1.1,5.69.96-.72.55-2.6,8.41.99,9.86-.72Z"/>
        <path class="cls-14" d="M101.25,121.57c-.15.5-.89.73-1.2,1.2-2.74,3.35,5.04-5.92,2.26-2.65-5.72,6.73-4.85,4.38-10.66,11.13-2.87.8-7.13-.04-9.72-.55-.2-2.36,4.46,4.82-4.9-2.79-.12-.09-3.91-.64-4.04-.72,0,0-3.36-.35-3.36-.35-.36-1.81,5.54-1.68,3.74-1.05-11.39,5.71,4.51-6.97,6.3-10.94,6.09-4.27,11.33-2.17,18.26-.72-1.6,4.54,6.25,4.37,3.31,7.43Z"/>
        <path class="cls-4" d="M73.63,83.12c2.9.09-9.8,16.89-4.48,16.49,2.76,4.21-4.19,9.39-5.82,13.39,3.49,5.57,8.65-9.28,11.98-11.53,2.98-.39-2.13,1.29,4.9,3.73-5.38,6.93-12.02,13.3-17.3,20.33-1.07,1.36-1.93-.45-3.19-.49-2.93-.22,3.96-.72,1.96,1.43,1.92-4.38-15.63,1.27-21.85-3.1,12.01-12.61,22.4-26.97,33.8-40.24Z"/>
        <path class="cls-11" d="M43.01,108.86c3.29,3.01,3.02-7.19,6-2.7.2,3.71,3.17-1.5,1.44,3.31-2.72-1.39-1.29,3.87-3.61,5.63-2.08,1.32,1.08-6.11-1.31-6.01-2.65,4.78-6.19,8.78-7.56,13.68-1.66.51,1.39.85,1.68,1.17-.02.24-1.38.14-.72.52,1.15-2.17.39.05.24.26-1.58,2.17,1.53-4.28-.27-2.29.36-2.53,1.72,1.47-3.16,1.01-7.48-1.32,5.72-11.04,7.27-14.57Z"/>
        <path class="cls-5" d="M40.62,117.26c3.58-8.31,8.34-10.69,4.56,0-2.56-.27-1.71-3.78-4.56,0Z"/>
        <path class="cls-12" d="M55.24,63.53c3.07,3.93,6.3-1.28,9.83-1.09.8,3.39-1.04,9.23,5.22,9.68,2.09-.5,2.42-3.91,5.09-3.55-4.38,4.96-32.02,45.56-29.97,30.95-5.08-2.27-9.2,10.29-10.79,14.62-1.59-1.16-3.11-.56-4.56-.82-1.31-3.98-.25-13.36-5.13-5.39,4.52-13.72,19.9-31.45,30.31-44.4Z"/>
        <path class="cls-15" d="M74.9,80.32c-5.92,6.28-26.08,36.52-25.65,28.55,1.67,2.66,2.89-3.63.24-.96-.01-.84-.87-3.06-2.25-2.85-.99.33-1.88,6.37-4.23,3.81,9.59-14.13,22.14-24.27,32.37-36.46.09,2.63-.17,5.22-.48,7.92Z"/>
        <path class="cls-10" d="M23.83,109.1c-.28.56-.23,1.4-1.2,1.44.25-.57.43-1.41,1.2-1.44Z"/>
        <path class="cls-24" d="M18.08,109.82c-.71,2.49-4.61-3.92-5.02-4.4,8.03-11.71,7.56-6.45,5.02,4.4Z"/>
        <path class="cls-10" d="M17.84,110.54c1.59,1.31,2.19,1.45,3.12,0,.36,3.82-3.29,2.13-3.12,0Z"/>
        <path class="cls-26" d="M42.53,79.36c-5.43,8.35-8.32,7.78-11.56,13.5-12.25,22.92-5.51-19.1,11.56-13.5Z"/>
        <path class="cls-16" d="M21.68,94.71c-.06,11.78-.02,10.42,7.19,1.92-.32,2.26-7.26,16.39-6.95,8.88-2.26,2.06-2.03-10.05-.24-10.8Z"/>
        <path class="cls-26" d="M20,96.39c1.04,3.58,1.8,10.56-1.92,13.43.4-4.51,2.56-8.85,1.92-13.43Z"/>
        <path class="cls-3" d="M20.24,107.42c1.18,1.21.85,3.33-.13,4.33-3.57-.67-1.55-2.73.13-4.33Z"/>
        <path class="cls-19" d="M30.79,93.75c-.2-1.05,2.38-4.8,2.87-5.64,1.47.86-1.64,4.52-2.87,5.64Z"/>
        <path class="cls-10" d="M20.96,108.14c-.67.17-1-1.22-.24-1.44.02.34.21.86.24,1.44Z"/>
        <path class="cls-23" d="M43.97,35.94c-3.82,5.63-10.19,13.21-16.78,12.23.55-6.88,9.81-11.01,16.78-12.23Z"/>
        <path class="cls-20" d="M31.5,24.67c-1.68,6.17-8.81,16.34-3.84,21.11-9.49,13.32-.68-16.54,3.84-21.11Z"/>
        <path class="cls-3" d="M31.5,24.19c.08.39-.1.6-.48.72.1-.33-.27-.84.48-.72Z"/>
        <path class="cls-22" d="M25.27,22.75c-1.08,12.16-2.87,26.11-4.55,36.46-1.72-10.61,2.01-25.8,4.55-36.46Z"/>
        <path class="cls-17" d="M26.71,47.69c3.9,4.57,3.74,7.27-1.44,12.23-1.95-4.2-2.68-10.13,1.44-12.23Z"/>
        <path class="cls-26" d="M25.27,59.93c-5.11,7.58-3.83,2.9-3.84-2.64.73-9.37,2.55-2.44,3.84,2.64Z"/>
        <path class="cls-3" d="M30.79,25.63c-.31.84-.64,1.24-.96,1.92-.42-.24.41-2.1.96-1.92Z"/>
        <path class="cls-3" d="M32.46,18.19c-.45.79-.78,2.21-1.68,2.4.42-.71.83-2.3,1.68-2.4Z"/>
        <path class="cls-7" d="M129.32,98.55c-5.41,5.83-2.38-12.9,3.12-15.35.46,5.29-2.65,10.51-3.12,15.35Z"/>
        <path class="cls-7" d="M124.29,51.05c3.52,2.19,2.49,5.33-.48,7.68.32-2.12-1.44-6.85.48-7.68Z"/>
        <path class="cls-10" d="M24.91,121.15c.04-.09.16-.17.24-.24-.06.1-.16.17-.24.24Z"/>
        <path class="cls-2" d="M54.28,53.21c-5.3,7.5-17.18,25.73-25.61,13.75-10.74-15.69,15.01-18.56,25.61-13.75Z"/>
        <path class="cls-6" d="M70.58,43.38c-4.85,5.85-7.59,13.31-14.62,8.15,4.2-5.94,6.92-10.46,14.62-8.15Z"/>
        <path class="cls-7" d="M55.96,51.53c7.85.7,5.44,7.36-.83,9.37-7.28-1.9-2.92-5.13.83-9.37Z"/>
        <path class="cls-6" d="M36.54,45.54c-3.1,3.66-5.79,10.71-9.24,3.57,2.31-.66,5.96-3.37,9.24-3.57Z"/>
        <path class="cls-21" d="M96.96,40.02c-5.05,10.65-17.16,18.03-21.34,28.06-4.13,2.1-4.84,6.11-10.09,1.76,3.05-18.86-28.17,14.23,8.65-30.78-1.19,7.7,17.24.82,22.78.96Z"/>
        <path class="cls-21" d="M77.3,34.74c.2-.49.46-.98.96-1.2-.35.49-.57.75-.96,1.2Z"/>
        <path class="cls-21" d="M76.58,35.7c.07-.31.27-.5.48-.72.1.48-.37.57-.48.72Z"/>
        <path class="cls-21" d="M75.86,36.66l.48-.72c-.09.11-.29.47-.48.72Z"/>
        <path class="cls-21" d="M75.14,37.62l.48-.72c-.12.15-.29.46-.48.72Z"/>
        <path class="cls-21" d="M74.42,38.58l.48-.48c-.18.26-.43.41-.48.48Z"/>
        <path class="cls-27" d="M106.55,26.59c5.32,7.28.4,16.92-9.59,13.67,2.92-4.59,6.34-9.2,9.59-13.67Z"/>
        <path class="cls-6" d="M113.26,28.98c-3.55,7.67-5.84,1.83-6.47-2.88,6.22-9.68,5.33-5.96,6.47,2.88Z"/>
        <path class="cls-27" d="M86.89,21.07c-1.13,3.76-5.49,3.11-7.2.96,2.45-.35,4.82-.63,7.2-.96Z"/>
        <path class="cls-6" d="M87.13,20.83c-.46.51-1.29.32-1.92.48-.28-.63,1.57-.9,1.92-.48Z"/>
        <path class="cls-21" d="M98.15,38.34c.03-.7.64-1.02.96-1.44-.19.57-.6.98-.96,1.44Z"/>
        <path class="cls-21" d="M99.35,36.66c.11-.14.24-.42.48-.72l-.48.72Z"/>
        <path class="cls-21" d="M97.44,39.3c.21-.35.24-.4.48-.72l-.48.72Z"/>
        <path class="cls-21" d="M106.55,26.59c-.18.26-.42.4-.48.48l.72-.96c-.1.14-.14.34-.24.48Z"/>
        <path class="cls-6" d="M84.25,21.31c-.67.1-1.25.46-2.16.48-.3-.63,1.77-.86,2.16-.48Z"/>
        <path class="cls-16" d="M82.76,71.68c1.45,2.88-5.86,8.2,1.31,6.97,7.28,2.31,14.22.3,20.27-4.33-7.3,9.86-17.07,21.98-24.93,31.19-5.34-2.08-2-4.22-4.32-3.72-3.53,3.91-5.92,9.48-9.75,13.03-8.32-.05,5.76-9.15,4.15-14.76-6.78,1.34,4.92-15.05,4.39-16.49-2.51-2.4,5.78-11.15,8.88-11.88Z"/>
        <path class="cls-1" d="M91.2,59.45c-2.84,2.15-7.04,12.75-9.67,10.04-4.73-8.24,1.9-12.39,9.67-10.04Z"/>
        <path class="cls-18" d="M82.57,70.72c-4.72,5.63-8.68,14.18-7.19,1.68,1.76-7.85,3.62-10.65,7.19-1.68Z"/>
        <path class="cls-5" d="M95.76,53.21c-2.06,5.53-6.96,7.72-12.23,5.04,2.73-5.64,6.72-5.27,12.23-5.04Z"/>
        <path class="cls-24" d="M107.03,70.24c1.75-3.03,4.24-5.87,6.47-8.64-1.94,2.81-3.42,6.76-6.47,8.64Z"/>
        <path class="cls-6" d="M104.63,40.98c-2.44,5.59-6.86,7.46-12.71,6.23,3.13-5.65,6.08-8.08,12.71-6.23Z"/>
        <path class="cls-7" d="M100.07,47.45c-2.44,5.74-6.63,6.76-12.47,5.52,2.1-5.57,7.2-6.42,12.47-5.52Z"/>
        <path class="cls-24" d="M103.67,85.83c-7.01,5.98-17.31,12.93-20.92,22.13-17.24,8.14,11.61-25.02,20.92-22.13Z"/>
        <path class="cls-17" d="M126.92,53.93c-.78-.1-.48-.26-.72-.72.58.04.66.2.72.72Z"/>
        <path class="cls-16" d="M22.39,36.42c-.04,2.15-.91,4.37-1.2,6.48-.67-1.61-.28-5.61,1.2-6.48Z"/>
        <path class="cls-16" d="M21.2,43.38c-.05.37.17.99-.24,1.2-.07-.22-.74-1.44.24-1.2Z"/>
        <path class="cls-16" d="M24.31,25.39c0,.32.12.79-.24.96-.13-.22-.65-1.17.24-.96Z"/>
        <path class="cls-16" d="M22.63,35.22c0,.26.06.61-.24.72-.2-.19-.53-.9.24-.72Z"/>
        <path class="cls-16" d="M24.07,27.55l-.24.48c-.32-.22-.33-.6.24-.48Z"/>
        <path class="cls-16" d="M22.87,34.26l-.24.48c-.39-.24-.23-.59.24-.48Z"/>
        <path class="cls-30" d="M21.92,93.99c-3.75,9.26-.19-18.92-.96-18.47,1.26,6.91.58-1.5.96-3.84,1.5,7.4-.21,15.1,0,22.31Z"/>
        <path class="cls-22" d="M21.2,61.37c-.42,5.38,1.94,12.72,0,17.03.2-5.37-2.13-12.5,0-17.03Z"/>
        <path class="cls-30" d="M17.6,69.52c1.16-2.12,2.33,2.61,2.4,3.12-.68.49-2.86-2.8-2.4-3.12Z"/>
        <path class="cls-30" d="M20.48,70.96c-.12-.71-.61-1.63,0-2.4.25.33.52,2.02,0,2.4Z"/>
        <path class="cls-30" d="M20.96,75.04c-.79.28-.6-1.88-.24-2.4.12.85.15,1.54.24,2.4Z"/>
        <path class="cls-30" d="M20.48,67.36l-.72-.24c.29-.64.78-.47.72.24Z"/>
        <path class="cls-21" d="M20.72,59.21c.23,1.28-.46,9-.72,5.64,0-2.17-.31-11.17.72-5.64Z"/>
        <path class="cls-3" d="M100.55,123.02l.72-.72c-.08.39-.57.53-.72.72Z"/>
        <path class="cls-11" d="M85.21,103.83c15.15-13.21.02,5.64-5.51,11.75-4.12,4.36-8.7,13.86-8.61,2.74-1.15-5.62,1.85-.05,3.68,1.1,1.01-7.95,10.78-6.88,10.44-15.58Z"/>
        <path class="cls-1" d="M101.03,89.19c-4.39,7.48-9.93,9.29-15.82,14.63,2.02-5.04,10.68-13.48,15.82-14.63Z"/>
        <path class="cls-30" d="M117.81,64.01c1.3,4.93-3.86,18.29,2.87,7.44-.18,1.22-.85,1.9-1.2,3.36-4.87,7.92-.56,21.93-3.6,30.94,3.97,1.56,9.26-3.74,11.99-2.4-4.85,4.75-14.69,1.03-13.18,9.84-.86.19-.35-3.25-.48-3.6,1.84-11.72-1.12-33.12,3.6-45.57Z"/>
        <path class="cls-5" d="M73.84,122.52c-1.52,1.49-4.39,4.93-3.74,3.36-1.61.43.15-.88-.14,1.34-.14,1.04-3.06,2.55-4.75-.06-7.2-1.81,4.53-9.37,5.68-12.14.74,2.86.83,5.22,2.95,7.49Z"/>
        <path class="cls-28" d="M75.86,120.38c0,.74,3.02,1.04,2.77,1.2-1.73,1.1-3.91.22-2.77-1.2Z"/>
        <path class="cls-3" d="M78.26,117.5l.24-.48-.24.48Z"/>
        <path class="cls-3" d="M79.45,116.06l.24-.48-.24.48Z"/>
        <path class="cls-3" d="M78.97,116.54c.07-.09.17-.15.24-.24l-.24.24Z"/>
        <path class="cls-1" d="M84.73,105.98c-.33,7.19-9.54,5.84-9.96,13.43-9.89-7.23,5.37-9.8,9.96-13.43Z"/>
        <path class="cls-7" d="M44.69,117.5c-3.17,4.19-3.31,6.88-7.19,5.76.79.17.91-2.44,1.44-3.36.83.13.28-.53.72-1.2,2.54-1.96,3.13-7.51,5.03-1.2Z"/>
        <path class="cls-5" d="M41.57,122.23c-.03.14.31-.35.24-.19,5.79-7.41-6.02,3.89-.24.19Z"/>
        <path class="cls-5" d="M40.62,117.5c-.2.48-.33,1.32-.96,1.2.23-.45.11-1.22.96-1.2Z"/>
        <path class="cls-5" d="M39.42,119.42c.06.42-.06.54-.48.48.32-.91.28-.27.48-.48Z"/>
        <path class="cls-5" d="M37.98,122.78c.06.42-.06.54-.48.48.09-.89.38-.33.48-.48Z"/>
        <path class="cls-15" d="M48.77,70.96c-1.84,5.75-8.72,11.1-14.86,8.64,6.55-5.91,8-18.44,14.86-8.64Z"/>
        <path class="cls-11" d="M49.01,60.41c-2.44,6.5,1.87,3.13,5.99,3.12-5.28,12.07-14.56,5.1-5.99-3.12Z"/>
        <path class="cls-1" d="M75.86,69.76c-1.09,3.91-5.31,12.13-10.55,11.99,2.44-1.78,10.94-16.05,10.55-11.99Z"/>
        <path class="cls-17" d="M57.4,60.41c-2.37,5.22-13.48,5.86-7.19-1.44,2.67.37,4.66,2.51,7.19,1.44Z"/>
        <path class="cls-29" d="M42.53,68.32c-21.38,25.94-20.69,35.25-20.62-3.84,6.88-11.18,2.85,14.25,20.62,3.84Z"/>
        <path class="cls-15" d="M23.83,102.39c-3.46,7.81-1.71-7.68-1.92-8.4,5.79-8.25,3.76,4.37,1.92,8.4Z"/>
        <path class="cls-6" d="M26.71,47.69c.67-.13.39.25.48.48-.42.06-.54-.06-.48-.48Z"/>
        <path class="cls-30" d="M21.44,59.21c-.18.83.14,2.31-.72,2.16.21-.8-.53-2.46.72-2.16Z"/>
        <path class="cls-30" d="M21.44,55.85c-.19-.16-.48-1.83.24-1.92-.08.6.24,1.5-.24,1.92Z"/>
        <path class="cls-30" d="M21.44,58.49c0-.33,0-.9,0-1.2.38.16.38,1.04,0,1.2Z"/>
        <path class="cls-30" d="M21.92,70.72c-.97-.71-.8-5.31,0-6.24-.18,2.13.13,4.09,0,6.24Z"/>
        <path class="cls-12" d="M82.09,59.69c-1.75,3-4.2,5.65-6.23,8.4-.48-3.51,2.58-6.78,6.23-8.4Z"/>
        <path class="cls-12" d="M55.48,63.05c.07-.09.15-.17.24-.24-.08.08-.15.17-.24.24Z"/>
        <path class="cls-15" d="M75.86,69.76c-.25-1.02.05-2.15.96-2.88.66.49-.83,2.09-.96,2.88Z"/>
        <path class="cls-15" d="M75.86,70.24c0,.61.22,1.11-.48.96.03-.6-.24-1.11.48-.96Z"/>
      </g>
    </g>
  </g>
</svg>