<?xml version="1.0" encoding="UTF-8"?>
<svg id="Layer_2" data-name="Layer 2" xmlns="http://www.w3.org/2000/svg" viewBox="0 0 200.47 214.9">
  <defs>
    <style>
      .cls-1 {
        fill: #7eafca;
      }

      .cls-2 {
        fill: #6ca4c2;
      }

      .cls-3 {
        fill: #75a9c6;
      }

      .cls-4 {
        fill: #72a8c5;
      }

      .cls-5 {
        fill: #6ea5c3;
      }

      .cls-6 {
        fill: #77abc7;
      }

      .cls-7 {
        fill: #8cb7cf;
      }

      .cls-8 {
        fill: #69a2c1;
      }

      .cls-9 {
        fill: #85b3cd;
      }

      .cls-10 {
        fill: #7fb0ca;
      }

      .cls-11 {
        fill: #84b3cc;
      }

      .cls-12 {
        fill: #79acc8;
      }

      .cls-13 {
        fill: #5897ba;
      }

      .cls-14 {
        fill: #5d9bbc;
      }

      .cls-15 {
        fill: #91bad1;
      }

      .cls-16 {
        fill: #88b5ce;
      }

      .cls-17 {
        fill: #8db8d0;
      }

      .cls-18 {
        fill: #73a8c5;
      }

      .cls-19 {
        fill: #aeccdd;
      }

      .cls-20 {
        fill: #5294b8;
      }

      .cls-21 {
        fill: #b1cede;
      }

      .cls-22 {
        fill: #81b1cb;
      }

      .cls-23 {
        fill: #609dbe;
      }

      .cls-24 {
        fill: #83b2cc;
      }

      .cls-25 {
        fill: #66a0c0;
      }

      .cls-26 {
        fill: #b3cfdf;
      }
    </style>
  </defs>
  <g id="Layer_1-2" data-name="Layer 1">
    <g>
      <path class="cls-26" d="M82.5,11.27c36.89,13.61,58.26-12.32,70.96-4.8.23.99-1.07,2.76-1.92,2.64.14,1.22-1.35,1.89-1.68,3.12-2.43,2.5-2.69,5.59-5.91,7.88-4.17,9.01-4.16,7.05-.81-.69,1.93-.91-.16-2.85-.72-.48-.87,1.61-1.42,2.29-2.16,3.84-.72-.28-.14,1.16-.92.99-.23,1.47.09,1.96-.28,3.33.42-.06.55.05.48.48-.65.77.29.48.24,1.2-.64.48.63.54.24,1.44-.14.23-.65,1.17.24.96-.12,1.48-.46,3.36,1.2,4.32-.07.52-.56,2.52.48,2.4.03.69-.55,2.64.48,2.64.05.92-.59,3.38.48,3.6-.67,2.17.68,6.21-.48,7.44-.28.75.94,2.01-.24,1.92.1.53.38.64.24,1.2-1.19.01-.29,1.45-.48,1.92-1.26.05-.26,1.19-.48,1.68-.93-.14-.67,1.31-.72,1.92-.89-.07-.43,1.48-.96,2.16-.66-.15-.55.49-.72.96-1.42,1.44-.44,2.74-1.46,3.26.12,1.43-3.19,5.07-1.18,4.89-1.79,2.89-2.1,6.47-.96,9.6-.04.27-.81,1.68.24,1.44.2.88-.42,1.41-.24,2.4,1.5.4-.46,3.42.48,4.56.02.46.04.81-.24,1.2-1.88.88-.16,4.12-.72,6-1.17.08-.3,1.91-.48,2.64-.77-.18-.59.75-.48,1.2-.34.71-.96,1.58-.72,2.88-1-.13.04.64-.24,1.2-1.19,0-.29,1.45-.48,1.92-.85-.18-.53,1.08-.48,1.2.13.73-1,1.16-.48,1.92-.09,1.28-.89,1.34-.48,2.88-1.15.02-.27,1.39-.48,1.92-1.19.02-.23,1.11-.48,1.68-1.15.01-.27,1.38-.48,1.92-1.42.06.27,2.77-1.2,2.64.12.54.35.64.24,1.2-.92-.2-.3,1.13-.48,1.68-1.16.03-.61,2.02-.96,2.88-1.37-.09-.04,2.82-1.2,2.64.13,2.03,1.25,2.77,1.2,4.56.09.88.31.32.48.48.23.41-.76,1.1.24.96.53.8-.56,2.19.72,2.4.28.65-.73,1.87.48,1.92.03.68-.61,2.44.48,2.4.35.77-1.02,2.44.48,2.64.41,1.01-.81,3.37.48,3.6.06,2.01-.54,3.88.24,5.28-.33,3.96-1.15,7.59,0,11.99-30.76-1.53-63.8-11.61-86.44-33.11.07-.89.47-2.26,1.33-2.87.65.14.45-.26.48-.72,1.11-2.52,3.34-4.02,4.79-6.48.6.19.47-.38.48-.72.03-.07.52-.16.46-.56-.34-.59-.66-.69.26-.64,1.32,1.27,7.91-12.03,9.24-8.65,8.54,6.93,18.36,9.93,29.72,12.25,2.64-.66-10.27-3.81-12.59-4.32-1.88-1.63-6.31-2.91-8.87-3.84-1.05-1.34-3.26-1.86-4.79-2.88-.44-.36-.82-1.07-1.68-.96-.17-1.41-1.71-.61-2.16-1.92,1.22-1.31,5.96,4.2,8.1,4.25,1.55.07,1.27.28,2.45,1.03.48.14,1.4-.36,1.2.48,7.41.85,17.92,3.55,26.61,1.2-15.24-.66-25.96.51-37.88-9.12-2.23-10.07-2.76-24.5-.75-35.87-.5-2.01-2.19-2.54-2.16-4.4-1.37-.08-1.21-2.03-1.89-2.43-2.08-2.96-3.58-7.01-4.52-11.68-1.74-5.77-.71-13.65,1.65-20.1-1.55-1.35-3.05,5.6-3.73,7.3-.83,6.99-.21,15.66,3.73,22.56.13,1.19,1.74,1.41,1.45,2.87,1.25-.14.47,1.92,1.91,1.93-.16,2.19,2.97,2.36,2.24,4.52-1.54,1.78-.98,4.19-.8,6.27-1.04.2-.47,2.7-.72,3.6.08.77-1.24,1.86-.48,2.88-.83,3.7-1.75,9.65-3.42,15.17-1.72,2.57-8.68,6.21-11.19,7.27-2.84,1.23-5.97-3.23-7.21-1.45,4.68,4.75,10.81,1.91,15.34-1.94,3.57.44-1.83,17.36-4.3,21.49-2.95,4.49-7.57,8.62-10.1,13.28-8.79,12.17-19.28,29.98-22.27,43.09-1.56,13.1,5.51,15.5-11.99,16.79,0,0-.5-3.7-.5-3.7.47-.87,14.14-6.01,8.41-6.62-.34-1.49-6.8-.63-8.39-1.44,7.07-26.75,16.48-57.53,29.01-79.88,7.87-29.03,8.98-63.62,16.37-94.56,1.26-4.87,3.81-7.31,8.56-8.23-1.33,2.89-2.66,6.2-2.64,9-1.8.13.58,3.63-.96,3.6-.08,1.79-.54,1.86,0,3.12-.65.77.28.48.24,1.2-.14.23-.65,1.17.24.96.09.76-.77,3.05.48,3.12.07.66-.34,9.09,1.19,3.72-.8-2.15,1.04-5.36-.71-6.6.08-.46.58-2.29-.24-1.92.04-1.05,0-1.94,0-2.88,1.27-.12-.06-2.43.24-3.36,1.13-1.14,1.11-4.38,1.68-6.24,1.79-4.56,1.47-4.65,6.85-6,6.56,6.35,17.04,14.31,26.47,13.8-8.12-2.83-17.88-6.09-23.75-12.71.96-5.61,12.39,8.28,17.52,8.03ZM143.88,8.87c-.58-.72-.43.82-1.44.48-.57-.71-.34.8-1.68.48-.85,1.16-3.96.59-4.32,1.92-.5.02-1.71-.12-1.44.48-1.85.86-6.99,1.52-8.15,2.64-.25.23-3.01-.05-2.64.72-.24.15-2.55-.33-2.16.48-.6.45-2.46-.31-2.16.48-2.04-.07-2.76.59-4.79.48-1.25.08-.53.34-.72.48-1.21-.04-3.73-.02-4.55.48-1.8.54-14.36-.55-13.03,1.4,6.94.63,13.33-.99,19.5-1.16,1.52-.05,0-.62,1.2-.48.21.32.59.34.48-.24.4.1.78.22,1.2.24.39-.29,4.4-1.5,5.51-1.44.58.67.36-.58,1.2-.24,2.21.48,38.91-13.5,17.98-7.2ZM117.51,32.87c-11.88,1-34.29-3.26-41.94-3.5,13.31,4.51,29.08,4.38,41.94,3.5ZM119.42,72.92c-15.75,1.63-33.42-1.51-48.19,2.15,15.8-.84,33.69,1.26,48.19-2.15ZM127.58,76.52c-15.98.95-34.23-.69-49.15,3.35,16-1.96,34.1-.12,49.15-3.35ZM41.51,106.26c-1.38-2.2-5.77-4.25-6.6-7.18-3.09,1.02,4.54,6.72,6.6,7.18Z"/>
      <path class="cls-22" d="M46.54,126.17c-.71,1.6-5.75,8.32-1.44,4.08,16.18,23.98,56.87,32.83,85.83,35.02-1.15-4.4-.34-8.05,0-12,.3.04.2,1.01.24,1.2l.48-.24c.24,2.7-1.11,5.97.27,8.03-.39,1.3-.2,2.03.48,3.12-27.1,2.95-64.39-11.65-86-29.48-4.97-6.65-2.33-1.93-7.77.82,0-.4-.04-.91.24-1.2-.05.05.04.25.12.24.26-.02,0-.35-.12-.24,3.14-2.45,4.86-6.78,7.67-9.36Z"/>
      <path class="cls-17" d="M63.8,2.16c.09.31.13.67.24.96-1.26-1.79-5.67.38-7.17.74-.08.72-.08,2.59-.98,2.62-14.25-8.54-15.27,60.19-18.94,74.24,1.35,9.08-7.71,16.57-5.74,24.49-2.9,2.52-.73-5.16-.92-7.16,6.91-8.96,5.75-21.27,7.59-31.99C43.39,46.82,35.8-.44,63.8,2.16Z"/>
      <path class="cls-16" d="M170.97,103.15c17.01,30.25,19.51,68.59,28.55,100.89.09.6-.81,1.36.24,1.68-.72,1.47,1.35,1.69-.26,2.25-2.97-.71-6.99-.97-9.35-2.64,3.68.19,10.63,4.86,7.91-2.16-1.77-6.79-2.77-13.75-4.79-20.63-5.13-25.01-9.05-50.06-20.38-73.4,1.54-.84-1.51-4.51-1.92-6Z"/>
      <path class="cls-3" d="M152.27,5.52c15.78,8.53,8.26,65.5,14.39,83.72,1.07,5.04,6.45,7.04,1.92,11.75-1.54-.72.69-3.23.93-4.38-5.41-6.46-4.43-14.55-5.96-22.24-1.53-5.79-1.21-80.71-11.99-63.09-4.15,4.82.24-2.49,1.92-3.84,1.63-.87-1.38-1.17-1.2-1.92Z"/>
      <path class="cls-16" d="M27.6,113.7c-10.45,22.56-22.41,51.51-24.21,73.88-.64-.07-1.29,0-1.92-.24l.24,1.2c.65-.43,1.18-.01,1.43,0-1.15.42-.64,1.81-2.16,1.92,4.86-25.17,12.53-54.9,26.61-76.76Z"/>
      <path class="cls-9" d="M130.45,9.83l-.24.48h.48c-14.34,6.08-33.51,6.03-48.19.96,14.48,2.67,32.56,3.68,47.95-1.44Z"/>
      <path class="cls-6" d="M38.63,136.73c-1.54,3.33-4.63,6.62-6.48,9.95-2.23,4.81-3.84,7.52-6.23,11.4-3.31,5.19-7.28,13.74-9.59,18.71-.91,2.61-.26,6.57-1.68,8.63,1.01-17.5,14.66-35.15,23.97-49.41-.05.2.05.52,0,.72Z"/>
      <path class="cls-10" d="M148.2,120.18c3.51,14.16,11.82,29.55,17.26,43.66-5.23-7.12-8.05-18.36-11.99-25.67-1.95-5.23-5.06-10.96-5.75-17.75l.48.48c.01-.24,0-.48,0-.72Z"/>
      <path class="cls-16" d="M163.06,160.48c6.93,9.69,10.14,23.87,12.71,35.98-4.01-8.77-7.02-26.03-12.71-35.98Z"/>
      <path class="cls-4" d="M134.29,102.67c-1.61,7.2-4.71,18.56-7.12,26.54,1.93,7.42,5.35,18.27,4,25.27-.56-5.81-.92-11.59-2.4-17.03-.94-3.55-2.33-5.94-2.16-9.83,2.94-6.73,4.59-15.54,6.47-23.75.28-.9.73-3.55,1.2-1.2Z"/>
      <path class="cls-24" d="M14.66,183.98c.03.48-.02.96,0,1.44l.48-.24c-1.15,4.18,1.54,8.6,0,12.47-4.04-.22-9.87.86-13.42,2.28,1.65,1.34,5.76-1.78,7.91-.6-4.62,1.01-14.85,2.18-3.84,3.6-1.26.29-3.22.63-4.56.24-1.06-1.32-1.65-2.36.2-3.15,0,0-.92-6.21-.92-6.21.85-.55.75,3.61.96,3.84.81-.33-.32-2.36.1-2.89,1.96-1.14,2.18-.17.36.39,0,0,.5,3.7.5,3.7,17.24-1.71,10.07-1.97,12.23-14.87Z"/>
      <path class="cls-5" d="M64.76,2.4c3.3,7.76,20.22,10.79,23.16,13.89-7.28-1.09-24.08-8.11-23.16-13.89Z"/>
      <path class="cls-18" d="M141.96,82.52c.21,1.07,1.24,1.96.72,3.36,2.44,4.65,3.92,12.32,2.64,18.23,1.9,4.91,2.19,11.17,2.87,16.79-1.97-4.78-.91-11.62-3.72-16.3.38-1.85,1.64-4.83.37-6.73.25-3.91-4.93-13.45-2.88-15.35Z"/>
      <path class="cls-8" d="M185.36,196.22c3.18.58,6.02.81,1.92,2.64-.52-.07-2.31-.5-2.16.48-3.31-.27-4.85,2.15-6.71,4.18.41,1.83,1.66,4.04,1.44,5.42-1.25-2.08-3.96-8.18-.96-10.07.05,1.85-1.01,1.34-.96,3.12,1.13.26.79-.72.96-.96,1.31-2.24,5.5-1.99,7.07-3.33.9.8,2.22-.6.61-.51-3.59-.95-7.27.29-10.79-.72.83-1.76,6.77.12,9.59-.24Z"/>
      <path class="cls-11" d="M199.5,208.45c.06.01.66.69.97.61-.79,3.21-1,2.23-3.5,1.09-6.05-1.13-13.45.78-17.33,4.75.23-.83-2.34-3.5-.75-3.33,0,0,0,.72,0,.72h.48c-.14-.58.31-.64.64-.8.52-2.1.86,1.66-.4.56.11,2.48,1.32.26,2.32-.44,4.23-2.46,12.54-3.89,17.1-1.72-.01-.57-.64-1.81.48-1.44Z"/>
      <path class="cls-14" d="M3.39,187.58c2.46.05,4.95.88,7.43.96,1.88,3.18-11.38,4.72-9.1,8.27-.11,2.96-.71-2.73-.73-2.82-1.9-.4-.33-3.73,1.2-4-.66,1.23-1.67,3.48-.24,4.08,1.57-1.95,5.76-3.03,7.92-4.67-3.09-.16-5.01-1.22-8.15-.84l-.24-1.2c.63.25,1.27.17,1.92.24Z"/>
      <path class="cls-13" d="M188.23,205.33c3.42,1.05,8.64,1.54,11.27,3.12-4.64.46-10.92-4.09-14.87-.96-2.64.59-3.57,2.99-5.27,4.32-.37-.14-.21-.65-.24-.96,1.74-.05-.54-2.09.72-1.92,2.91-1.64,4.79-4,8.39-3.6Z"/>
      <path class="cls-15" d="M64.04,2.16c.78-.87,2.08-1.81,2.87-2.16,3.38,4.18,11.33,8.92,15.83,10.55C76.75,12.36,69.7,0,64.04,2.16Z"/>
      <path class="cls-16" d="M138.13,66.44c0,.33-.06.56.36.48,1.23-1.25-.53.73-.36,1.68,1.11-.3.2,1.17.96,1.92.73,3.98,2.62,8.06,2.88,11.99-2.69,1.29-2.93-18.42-5.51-11.04-1.6.42.06-2.82.72-2.64-.05.05.04.25.12.24.26-.02,0-.35-.12-.24.16-.21-.06-2.65.96-2.4ZM137.77,68.12v.24c.16-.08.16-.16,0-.24Z"/>
      <path class="cls-13" d="M135.97,76.04c2.09,16.56-.12,20.06-.72-.24l.72.24Z"/>
      <path class="cls-22" d="M130.21,140.33c-3.99-9.94-2.33-15.15.96-24.71-2.72,11.26-4.36,13.04-.96,24.71Z"/>
      <path class="cls-9" d="M161.38,26.15c-1.44-5.96-1.67-12.67-5.03-17.99,3.89,3.75,4.55,12.86,5.03,17.99Z"/>
      <path class="cls-16" d="M154.43,141.05c3.3,5.14,5.32,12.38,8.15,18.23-3.31-4.66-6.12-12.65-8.15-18.23Z"/>
      <path class="cls-24" d="M15.14,198.14c2.35,1.04,1.11,5.01-1.92,4.32.2-.62,1.08-.89,1.92-.72,1.21-4.5-1.94-2.48-5.04-2.4.46-1.08,3.83-.83,5.04-1.2Z"/>
      <path class="cls-1" d="M146.76,3.6l.24.96c-3.25-.42-4.66,1.63-7.67,2.4.67-1.65,5.11-3.37,7.43-3.36Z"/>
      <path class="cls-4" d="M136.69,90.19c-.57,1.14-.39,3.73-.96,3.6.57.64-.35,4.61-.72,2.88.49-1.88-.9-5.97,1.68-6.48Z"/>
      <path class="cls-8" d="M169.29,100.51c.85,2.23,5.1,6.69,3.6,8.64-.48-2.58-1.84-4.25-3.12-6.48-.08-.67-2.4-2.12-.48-2.16Z"/>
      <path class="cls-1" d="M133.57,8.87c1.47.04,4.62-2.86,5.27-1.44-2.54.89-6.66,2.38-8.63,2.88.14-.65.68-.45,1.2-.48-.23-.77.68-.36.96-.48.76.11.23-.71,1.2-.48Z"/>
      <path class="cls-11" d="M13.46,201.97c-1.01,1.06-6.75,1.38-7.91.48,2.67-.27,5.35-.22,7.91-.48Z"/>
      <path class="cls-9" d="M162.34,37.18c1.23,1.53.63,5.88.48,8.16-.12-2.6-.35-5.44-.48-8.16Z"/>
      <path class="cls-18" d="M30.96,105.54c-.1,1.55.24,2.9-.96,4.08-.26-1.28-.95-4.12.96-4.08Z"/>
      <path class="cls-16" d="M178.88,196.94c.69,2.03-1.41,2.77-1.68,4.8-1.54-.63,2.18-3.02.48-4.56.42,0,.8-.15,1.2-.24Z"/>
      <path class="cls-22" d="M135.73,74.12c-.82,1.56-.17,3.72-.24,6-.81-.21-1.48-6.28.24-6Z"/>
      <path class="cls-9" d="M162.82,47.49c1.27.86.14,4.37.48,6-.81-1.84-.4-4.02-.48-6Z"/>
      <path class="cls-10" d="M144.84,103.39c-1.08,2.21,1.24,3.3,1.44,6-.83-.68-3.22-5.51-1.44-6Z"/>
      <path class="cls-9" d="M139.32,6.24c-.05.45.24,1.37-.48,1.2-.65-1.42-3.81,1.48-5.27,1.44.97-1.46,4.04-1.74,5.75-2.64Z"/>
      <path class="cls-22" d="M33.12,145.84c-1.03,1.67-1.63,4.52-3.12,5.52.98-1.67,1.34-4.66,3.12-5.52Z"/>
      <path class="cls-16" d="M179.36,208.93c.83,4.49-.97-1.38-.96-3.12.61.76.72,2.13.96,3.12Z"/>
      <path class="cls-10" d="M144.84,102.43c.03-1.37.03-3.21,0-4.56.77.99.76,3.58,0,4.56Z"/>
      <path class="cls-9" d="M161.86,30.7c1.02.45.75,3.65.48,4.8-.07-1.49-.44-3.14-.48-4.8Z"/>
      <path class="cls-17" d="M27.84,112.98c-.14.44-.17.85-.72.72,1.05-.84.92-2.78,2.16-3.84.65.77-.57,2.74-1.44,3.12Z"/>
      <path class="cls-24" d="M24.25,161.43c-.88,1.4-1.18,3.84-2.64,4.56.95-1.37,1.15-3.85,2.64-4.56Z"/>
      <path class="cls-9" d="M163.3,57.81c1.18.36.2,3.21.48,4.32-.67-1.31-.46-2.89-.48-4.32Z"/>
      <path class="cls-9" d="M166.66,89.23c1.18.53,1.3,2.9,2.16,4.08-1.01-.32-2.13-3.17-2.16-4.08Z"/>
      <path class="cls-22" d="M132.13,111.3c-.23,1.03.26,3.46-.96,3.84.05-1.1.51-2.84.96-3.84Z"/>
      <path class="cls-22" d="M131.17,147.76c1.13.17.25,2.76.48,3.6-.73-.96-.47-2.43-.48-3.6Z"/>
      <path class="cls-10" d="M146.76,114.18c-1.1-.11-.27-2.64-.48-3.36.72.9.46,2.26.48,3.36Z"/>
      <path class="cls-9" d="M163.78,64.77c.68-.06.87,2.59.48,3.12-.75-.7-.48-2.13-.48-3.12Z"/>
      <path class="cls-22" d="M135.01,96.67s0,.48,0,.48c.88-.19.22.9.24,1.44-.3-.5-.42-.5-.72,0-.09-.47-.4-2.04.48-1.92Z"/>
      <path class="cls-9" d="M161.38,26.63c1.1.11.27,2.65.48,3.36-.5-1.01-.45-2.27-.48-3.36Z"/>
      <path class="cls-9" d="M164.74,74.36c.68-.11.87,2.4.48,2.88-.67-.77-.47-1.92-.48-2.88Z"/>
      <path class="cls-26" d="M14.9,188.78c.7-.06.89,2.55.48,3.12-.47-.92-.44-2.12-.48-3.12Z"/>
      <path class="cls-1" d="M151.31,4.8c2.11.55-.69.76-1.68.24-.19-1.01,1.15-.25,1.68-.24Z"/>
      <path class="cls-9" d="M165.22,79.16c.68-.11.87,2.4.48,2.88-.67-.76-.48-1.92-.48-2.88Z"/>
      <path class="cls-16" d="M178.4,205.33c-.77.03-1.27-2.34-.96-2.88.38.72.91,2.03.96,2.88Z"/>
      <path class="cls-9" d="M146.76,3.6c.31-.37,2.11-.23,1.92.48-1.05-.23-1.67,1.46-1.92-.48Z"/>
      <path class="cls-22" d="M135.25,99.07c.04.81-.67,2.73-.72.96l-.48.48c-.51-1.52.53-.82,1.2-1.44Z"/>
      <path class="cls-22" d="M134.05,100.99c.11.14.36.33.48,0,.64.57-.37.73-.24,1.68-.09-.43-.37-1.65-.63-.47-.58.17-.17-1.52.39-1.21Z"/>
      <path class="cls-9" d="M149.15,4.08c.35-.43,2.26.08,2.16.72-1.3-.86-2.37,1.17-2.16-.72Z"/>
      <path class="cls-16" d="M148.43,125.21c1.04.14.74,2.24,1.2,3.12-1.04-.16-.77-2.22-1.2-3.12Z"/>
      <path class="cls-9" d="M164.26,69.8c.67-.15.83,2.23.48,2.64-.64-.7-.47-1.76-.48-2.64Z"/>
      <path class="cls-22" d="M130.69,143.68c.68-.15.88,2.2.48,2.64-.55-.75-.46-1.77-.48-2.64Z"/>
      <path class="cls-26" d="M10.1,202.69c.13.88-2.06.54-2.64.24.82-.07,1.69-.22,2.64-.24Z"/>
      <path class="cls-9" d="M145.8,3.6c-.72.13-1.77.56-2.64.72-.12-.7,2.18-1.13,2.64-.72Z"/>
      <path class="cls-9" d="M165.7,83.72c.69-.21.84,1.82.48,2.16-.67-.49-.47-1.42-.48-2.16Z"/>
      <path class="cls-22" d="M130.21,140.81c.7-.17.88,2,.48,2.4-.43-.67-.45-1.63-.48-2.4Z"/>
      <path class="cls-9" d="M153.71,6c-.71-.49-1.94-.14-1.68-1.2.65.16,1.66.42,1.68,1.2Z"/>
      <path class="cls-10" d="M144.12,94.75c.88-.07.6,1.29.72,1.92-.85.17-.59-1.32-.72-1.92Z"/>
      <path class="cls-26" d="M15.85,180.38c.56.45-.16,1.48,0,2.16-.96.2-.24-1.66,0-2.16Z"/>
      <path class="cls-10" d="M147.72,119.94c-.67.32-.91-1.67-.48-1.92.51.5.47,1.26.48,1.92Z"/>
      <path class="cls-22" d="M34.56,142.72c-.17.61-.51,2.25-1.2,2.16.48-1.19.46-1.18,1.2-2.16Z"/>
      <path class="cls-9" d="M166.18,86.83c.67-.32.91,1.67.48,1.92-.51-.5-.47-1.26-.48-1.92Z"/>
      <path class="cls-22" d="M38.39,137.69c-.19.7-.31,1.88-1.2,1.92.3-.62.55-2.04,1.2-1.92Z"/>
      <path class="cls-10" d="M147.24,117.54c-.87.43-.33-1.63-.48-1.92.62.44.48,1.26.48,1.92Z"/>
      <path class="cls-26" d="M15.62,198.14c-1.13.14-.02-1.63.24-2.16.61.49-.38,1.47-.24,2.16Z"/>
      <path class="cls-4" d="M135.73,74.84c.06.42.26.18.24,1.2-.8.06-1.14-1.36-.24-1.2Z"/>
      <path class="cls-4" d="M136.69,81.8c1.05-.25.27,1.19.24,1.44-.56-.48-.26-1.03-.24-1.44Z"/>
      <path class="cls-16" d="M149.63,129.29c.82-.06.62,1.32.96,1.92-.6.2-.83-1.33-.96-1.92Z"/>
      <path class="cls-24" d="M27.12,156.64c-.24.58-.44,1.41-1.2,1.44.23-.58.44-1.41,1.2-1.44Z"/>
      <path class="cls-24" d="M25.68,159.04c-.24.58-.44,1.41-1.2,1.44.24-.58.43-1.41,1.2-1.44Z"/>
      <path class="cls-16" d="M150.59,131.93c.65-.17.86,1.15.96,1.68-.56.2-.82-1.14-.96-1.68Z"/>
      <path class="cls-22" d="M132.61,109.38c.41.24.14,1.68-.48,1.44-.01-.96.19-.84.48-1.44Z"/>
      <path class="cls-16" d="M152.03,135.29c.65-.17.86,1.15.96,1.68-.6.18-.77-1.11-.96-1.68Z"/>
      <path class="cls-16" d="M153.47,138.65c.69-.16.81,1.12.96,1.68-.6.18-.77-1.11-.96-1.68Z"/>
      <path class="cls-1" d="M148.67,4.08c1.52.27-.47.66-.96.48-.18-.75.5-.39.96-.48Z"/>
      <path class="cls-26" d="M.75,202.69c-.75.18-.8-.29-.72-.96.62-.03.78.4.72.96Z"/>
      <path class="cls-26" d="M16.33,200.53c0,.22.41,1.7-.48,1.44l.48-1.44Z"/>
      <path class="cls-26" d="M15.38,184.7c.01.17.47.76.24,1.2-.69.25-.64-.94-.24-1.2Z"/>
      <path class="cls-4" d="M136.93,88.51c.01.16.47.76.24,1.2-.72.25-.62-.94-.24-1.2Z"/>
      <path class="cls-4" d="M135.25,98.59c.18.36-.57,1.27-.72.72-.08-.6.25-1.68.72-.72Z"/>
      <path class="cls-26" d="M15.85,198.38c.74-.24.63,1.11.48,1.2-.41-.26-.49-.75-.48-1.2Z"/>
      <path class="cls-26" d="M15.14,186.38c.01.17.47.75.24,1.2-.71.24-.62-.93-.24-1.2Z"/>
      <path class="cls-26" d="M16.33,177.75c.08.29.35,1.35-.48,1.2.04-.41.17-.91.48-1.2Z"/>
      <path class="cls-9" d="M170.01,95.47c.96-.12.47.81.48.96-.57-.14-.38-.61-.48-.96Z"/>
      <path class="cls-21" d="M.75,200.29c.02.48-.23.74-.72.72-.12-.66.12-.81.72-.72Z"/>
      <path class="cls-22" d="M29.76,151.84c-.19.45-.03,1.11-.72.96.12-.49.1-1.11.72-.96Z"/>
      <path class="cls-16" d="M170.73,102.67c-.59-.15-.54-.65-.72-.96.88-.05.57.61.72.96Z"/>
      <path class="cls-17" d="M30,109.62c-.71.21-1.01-.42-.24-.72.01.09.36.44.24.72Z"/>
      <path class="cls-4" d="M134.53,100.75c-.26,1.18-.86-.45,0-.72.04.23-.05.52,0,.72Z"/>
      <path class="cls-4" d="M136.45,77.48c-.7.17-.45-.48-.48-.96.52.15.44.53.48.96Z"/>
      <path class="cls-22" d="M36.95,140.09c-.49.89-.5.5-.72.72.02-.47.23-.75.72-.72Z"/>
      <path class="cls-9" d="M169.77,94.75c-.48.03-.71-.24-.72-.72.35.26.34-.22.72.72Z"/>
      <path class="cls-9" d="M155.15,6.96c-.48,0-.74-.24-.72-.72.97.37.59.6.72.72Z"/>
      <path class="cls-9" d="M141,5.28c.02.48-.24.72-.72.72.27-.3-.18-.24.72-.72Z"/>
      <path class="cls-26" d="M15.38,193.58c.95-.1.29.43.24.72-.31-.12-.23-.46-.24-.72Z"/>
      <path class="cls-26" d="M15.14,202.21c.08.98-.52.26-.72.24.14-.34.48-.19.72-.24Z"/>
      <path class="cls-26" d="M6.26,202.93c.12.98-.52.25-.72.24.09-.34.46-.23.72-.24Z"/>
      <path class="cls-8" d="M179.36,211.81c.09,1.19-1.02,0-.24-.48.02.2,0,.41.24.48Z"/>
      <path class="cls-9" d="M132.85,8.87c.06.43-.06.54-.48.48.16-.13-.43-.36.48-.48Z"/>
      <path class="cls-26" d="M15.62,194.78c.94-.09.26.33.24.48l-.24-.48Z"/>
      <path class="cls-9" d="M142.68,4.32c.06.41-.07.54-.48.48.17-.16-.43-.32.48-.48Z"/>
      <path class="cls-4" d="M136.45,80.36c.57-.12.56.27.24.48l-.24-.48Z"/>
      <path class="cls-24" d="M29.04,153.28c.06.43-.04.54-.48.48-.06-.42.05-.54.48-.48Z"/>
      <path class="cls-24" d="M28.56,154.24c-.13.89-.3.31-.48.48-.08-.46.02-.56.48-.48Z"/>
      <path class="cls-24" d="M27.84,155.2c-.4.8-.23.25-.48.48-.08-.45.02-.56.48-.48Z"/>
      <path class="cls-16" d="M151.55,134.33c.43-.06.54.06.48.48-.18-.16-.36.41-.48-.48Z"/>
      <path class="cls-26" d="M13.22,202.45c.12.57-.27.56-.48.24.05-.28.41-.18.48-.24Z"/>
      <path class="cls-26" d="M136.21,93.79c-.05.47-.24.45-.24.48l-.24-.48h.48Z"/>
      <path class="cls-16" d="M152.99,137.69c.43-.06.54.06.48.48-.18-.16-.36.41-.48-.48Z"/>
      <path class="cls-26" d="M1.71,203.41c-.28.38-.59.31-.48-.24l.48.24Z"/>
      <path class="cls-26" d="M3.15,203.17c.12.57-.26.56-.48.24l.48-.24Z"/>
      <path class="cls-9" d="M170.49,96.91c.32.2.33.6-.24.48l.24-.48Z"/>
      <path class="cls-26" d="M17.29,175.35c.06.43-.04.54-.48.48-.06-.42.05-.54.48-.48Z"/>
      <path class="cls-26" d="M16.81,176.79c.06.44-.05.54-.48.48-.06-.42.05-.54.48-.48Z"/>
      <path class="cls-9" d="M131.41,9.35c.06.42-.04.55-.48.48-.06-.43.04-.54.48-.48Z"/>
      <path class="cls-12" d="M127.58,76.52c-15.05,3.24-33.14,1.4-49.15,3.36,14.92-4.05,33.15-2.41,49.15-3.36Z"/>
      <path class="cls-1" d="M119.42,72.92c-14.51,3.41-32.38,1.32-48.19,2.16,14.77-3.67,32.42-.53,48.19-2.16Z"/>
      <path class="cls-8" d="M143.88,8.87c19.76-5.89-13.11,6.72-17.98,7.19-6,1.11-10.56,2.27-16.06,2.64-2.46-.2-6.06,1.22-7.91-.24,2.94.14,5.58-.23,7.91-.48.56-.15,1.89.41,1.68-.48,1.04-.21,3.72.58,3.6-.48,3.25.24,6.44-1.26,9.11-1.44.42.06.55-.06.48-.48.76-.25,2.87.19,2.64-.72.75-.28,2.62.17,2.4-.72,5.67-1.29,9.24-3.04,14.15-4.8Z"/>
      <path class="cls-25" d="M142.44,18.95c1.95-.15-.8,1.87-.72,3.12.12.65-.63.38-.68,1.11-1.1,1.44-1.1,6.22.67,3.21-1.15,4.36.52,8.27,1.2,11.75,1.96,7.92,1.43,16.04-1.2,23.27-1.03.31-3.72,9.07-3.6,3.84,5.19-7.3,6.18-19.39,3.36-29.26-1.54-7.74-3.81-10.36.96-17.03Z"/>
      <path class="cls-9" d="M117.51,32.87c-12.87.87-28.62,1-41.94-3.5,7.68.24,30.03,4.5,41.94,3.5Z"/>
      <path class="cls-23" d="M50.38,41.74c.34-1.26,1.46-6.52,2.37-5.67-1.77,4.41-1.88,8.89-1.41,13.58.67,8.13,4.16,14.35,8.15,19.67-6.82-3.11-9.75-18.44-9.11-27.59Z"/>
      <path class="cls-16" d="M59.73,80.84c.05,9.42.13,23,2.16,28.55-1.76.74-1.49,1.24-2.64-1.08,1.86-7.58-2.16-19.9.48-27.47ZM60.81,108.9v.24c.16-.08.16-.16,0-.24Z"/>
      <path class="cls-23" d="M61.65,107.7c7.05,6.17,16.9,8.88,25.65,8.64.27,1.56-6.54.17-7.19.24-2.02-.2-3.71-.34-5.75-.72.21-.9-.97-.22-1.44-.72-1.14.96-15.71-7.65-11.27-7.44Z"/>
      <path class="cls-12" d="M52.78,103.39c1.93,4.22-2.43,19.95-5.99,22.31,4.38-6.45,4.33-16.41,5.99-22.31Z"/>
      <path class="cls-24" d="M52.06,103.39c-4.55,3.99-11.24,8-16.31,2.76,7.97,1.81,7.48,2.28,16.31-3.72,0,.32,0,.64,0,.96Z"/>
      <path class="cls-14" d="M61.17,109.86c3.14,3.28,6.83,5.18,11.27,6.96,2.07.63,3.9,2.03,6.23,2.64.53-.16.55.32.6.72-2.74-.66-20.13-6.99-18.1-10.32Z"/>
      <path class="cls-2" d="M54.93,6.48c.84-.16.98-1.31.96.48-1.09-.08-.3,1.21-.48,1.68-1.09-.08-.3,1.21-.48,1.68-1.27.12-.19,1.71-.48,2.4-.66-.23-.62,1.06-.72,1.68-.01,2.39-.58,4.68-.24,6.96.91-.22.17.82.24,1.2.2,1.47,1.66,4.06-.24,5.04-1.47-7.03-.96-14,1.44-21.11Z"/>
      <path class="cls-1" d="M147.24,16.79c.06,0,.45.36.72.24-.59,1.26-1.4,4.4-3.11,3.12-.94,2.99-2.86,5.81-3.12,8.87-1.19-.03.19-1.84,0-2.64-1.98,3.48-1.85-3.43,0-3.84-.31.9-1.88,3.79-.48,3.84.42-2.01,1.54-4.56,2.73-6.27,1.79-1.23,1.83-2.37,3.27-3.33ZM142.44,24.71c-.42-.06-.54.05-.48.48.42.06.54-.05.48-.48Z"/>
      <path class="cls-13" d="M51.34,118.5c1.72,4.28-4.17,6.9-5.51,10.79-.9.87-1.57,1.39-1.92,2.64-1.72-1.3,2.82-4.46,2.88-6.24,3.19-.93,2.2-6.96,4.56-7.2Z"/>
      <path class="cls-11" d="M79.87,119.7c-1.68-.13,16.73,4.11,11.39,4.08-2.25.22-18.41-5-11.99-3.59-.34-.93.36-.74.6-.48Z"/>
      <path class="cls-7" d="M87.3,116.34c4.09.19,8.14.51,12.23.48-1.71,1.46-24.75.95-12.23-.48Z"/>
      <path class="cls-3" d="M57.33,90.43c-.34.97-.53,5.98-1.68,6,.31.52.32,2.14-.48,1.92.77,1.74-1.69,4.8-3.12,5.04,2.71-3.59,3.45-8.77,4.79-13.43l.48.48Z"/>
      <path class="cls-16" d="M57.33,68.12c5.4,3.37,2.94,5.68,2.4,11.27-.82-1.46.67-3.6.24-5.28-.97.09-.82,2.73-1.2,3.6-1.28-5.55,3.04-4.22-1.44-9.6Z"/>
      <path class="cls-14" d="M58.77,77.72c2.2-9.5.15,6.16.48,9.25-.71,3.95-.95-8.13-.48-9.25Z"/>
      <path class="cls-7" d="M41.51,106.26c-2.05-.46-9.7-6.16-6.61-7.18.83,2.93,5.23,4.99,6.61,7.18Z"/>
      <path class="cls-16" d="M50.38,41.74c.53-9.06,6.89-13.18.96-.72,2.73-8.97.03-4.03-.96.72Z"/>
      <path class="cls-17" d="M59.97,111.06c-1.87,3.57-5.19,6.33-7.55,9.59.96-3.99,4.88-6.41,7.55-9.59Z"/>
      <path class="cls-24" d="M101.92,18.47c6.9,1.62-3.3.97-5.12.92-1.45-1.74,4.07-.77,5.12-.92Z"/>
      <path class="cls-16" d="M53.97,62.85c-2.14-2.33-2.84-6.69-3.12-9.83.93,3.31,1.85,6.62,3.12,9.83Z"/>
      <path class="cls-16" d="M51.34,48.93c-.32-2.95-.4-4.2,0-7.2.4,2.22.4,4.98,0,7.2Z"/>
      <path class="cls-17" d="M53.5,27.58l.72-.24c1.06,3.75-1.95,4.97-.72.24Z"/>
      <path class="cls-16" d="M50.38,42.46c-.18,1.13.3,8.22-.48,5.65.13-1.74-.78-4.72.48-5.65Z"/>
      <path class="cls-16" d="M51.82,52.53c1.24,1.34,1.21,4.89,2.16,6.96-1.32-.96-1.91-5.22-2.16-6.96Z"/>
      <path class="cls-16" d="M7.22,192.14c.19-1.39,5.25-1.48,3.6-3.6,3.22.53-2.28,3.44-3.6,3.6Z"/>
      <path class="cls-16" d="M141.48,35.5c-1.41-.82-1.49-2.55-1.2-3.84.45,1.13,1.19,2.64,1.2,3.84Z"/>
      <path class="cls-3" d="M148.67,13.91c.51.12.94-1.25.96,0-.48.65-.07.83-.96.72.21,1.31-.34.97-.72,2.4-1.66-.06.56-1.98.72-3.12Z"/>
      <path class="cls-16" d="M3.87,187.58c.92-.41,3.63-.43,3.84.48-1.35-.03-2.61-.34-3.84-.48Z"/>
      <path class="cls-16" d="M142.92,49.65c-.4-1.03-.4-2.79,0-3.84.08,1.6.09,2.27,0,3.84Z"/>
      <path class="cls-11" d="M71.72,117.54c1.22.54,3.78.85,4.32,1.92-1.3-.61-3.74-.77-4.32-1.92Z"/>
      <path class="cls-16" d="M58.77,78.68c-.16,1.12.05,2.59-.72,3.6.26-.92-.33-3.38.72-3.6Z"/>
      <path class="cls-1" d="M149.87,12.23c-.44,1.48-.07,1.13.72.24.12.69-.18,1.4-.96,1.44-.02-1.25-.45.12-.96,0,.26-.55.46-1.76,1.2-1.68Z"/>
      <path class="cls-1" d="M142.44,18.95c.56-2.36,2.65-.44.72.48.16-.59-.31-.48-.72-.48Z"/>
      <path class="cls-16" d="M50.86,52.53c-.79.2-.96-2.43-.48-2.88.35.78.43,1.98.48,2.88Z"/>
      <path class="cls-16" d="M66.92,113.94c.85.58,2.68.63,2.88,1.68-.87-.55-2.68-.65-2.88-1.68Z"/>
      <path class="cls-16" d="M51.34,49.65c.8-.18.93,1.93.48,2.4-.56-.68-.39-1.62-.48-2.4Z"/>
      <path class="cls-17" d="M52.78,17.03c-.27,2.93-1.14,3.04-.48,0h.48Z"/>
      <path class="cls-16" d="M142.92,44.14c-.67.15-.83-2.23-.48-2.64.6.75.41,1.78.48,2.64Z"/>
      <path class="cls-3" d="M57.81,87.55c-.43,3.31-.93,1.05-.48-.72l.48.72Z"/>
      <path class="cls-24" d="M104.8,18.47c-1.07.07-1.52,0-2.4,0,.63-.4,1.77-.4,2.4,0Z"/>
      <path class="cls-16" d="M8.18,188.06c.41-.47,2.37-.26,2.16.48-.72-.04-1.58,0-2.16-.48Z"/>
      <path class="cls-1" d="M143.16,19.67c-.08.53-.83,2.48-1.44,2.4.26-.69.7-2.39,1.44-2.4Z"/>
      <path class="cls-11" d="M76.51,118.26c.61.17,2.25.5,2.16,1.2-.58-.1-2.26-.52-2.16-1.2Z"/>
      <path class="cls-22" d="M130.21,144.4c-1.21.03-.48-1.53-.48-1.92.42.52.44,1.28.48,1.92Z"/>
      <path class="cls-22" d="M130.93,152.56c-.85.19-.55-1.67-.24-2.16.02.53.27,1.29.24,2.16Z"/>
      <path class="cls-17" d="M53.73,15.59c.46.59.18,1.45.24,2.16-1.01.16-.13-1.61-.24-2.16Z"/>
      <path class="cls-11" d="M73.63,117.06c.64.19,2.22.5,2.16,1.2-.63-.18-2.24-.55-2.16-1.2Z"/>
      <path class="cls-3" d="M58.05,83.96c.32,3.85-1.21,2.01,0-.48,0,.16,0,.32,0,.48Z"/>
      <path class="cls-17" d="M53.26,25.43c-.69.3-.95-1.86-.48-2.16.28.54.46,1.56.48,2.16Z"/>
      <path class="cls-16" d="M57.09,88.75v.48c.86-.2.22.78.24,1.2l-.48-.48c.06.3-.15.5-.24.72-.19-.42-.37-.68.24-.72-.03-.41-.56-1.25.24-1.2Z"/>
      <path class="cls-16" d="M70.28,115.62c.64.45,2.15.36,2.16,1.2-.65-.19-2.22-.43-2.16-1.2Z"/>
      <path class="cls-16" d="M57.57,85.87v.48c.9-.22.19.94.24,1.2-.26-.4-1.28-1.84-.24-1.68Z"/>
      <path class="cls-22" d="M135.97,89.47c-.39-.51-.4-1.4,0-1.92.01.79.18.76,0,1.92Z"/>
      <path class="cls-17" d="M53.26,13.43c-.02.55-.17,1.45-.48,1.92-.43-.27-.29-2.15.48-1.92Z"/>
      <path class="cls-16" d="M141.96,37.9c-.67.32-.91-1.67-.48-1.92.41.51.45,1.29.48,1.92Z"/>
      <path class="cls-16" d="M142.44,40.54c-.65.21-.82-1.57-.48-1.92.41.51.46,1.29.48,1.92Z"/>
      <path class="cls-16" d="M58.05,83c.02.72-.39,1.42-.48,2.16-.37-.36-.2-2.35.48-2.16Z"/>
      <path class="cls-16" d="M65,112.74c.57.26,1.72.44,1.68,1.2-.57-.24-1.75-.48-1.68-1.2Z"/>
      <path class="cls-17" d="M53.73,11.03c-.11.55-.07,1.24-.48,1.68,0-.25-.59-1.78.48-1.68Z"/>
      <path class="cls-24" d="M107.2,17.99c.2.93-1.12.29-1.68.48-.2-.9,1.11-.32,1.68-.48Z"/>
      <path class="cls-16" d="M56.13,66.44c.62-.08.97.92,1.2,1.44-.96-.04-.92-.88-1.2-1.44Z"/>
      <path class="cls-16" d="M63.32,108.9c-.42-.3-1.55-.51-1.44-1.2.67.22,1.37.32,1.44,1.2Z"/>
      <path class="cls-22" d="M135.73,90.67c-.19.51-.36,1.02-.72,1.44-.02-.52-.69-1.19.72-1.44Z"/>
      <path class="cls-17" d="M53.73,22.55c.62-.32,1.18,2,.25,1.68.13-.56-.24-1.22-.25-1.68Z"/>
      <path class="cls-22" d="M126.62,129.05c.53,2.06-.49,2.06-.48,0,0,0,.48,0,.48,0Z"/>
      <path class="cls-17" d="M54.45,12.71c-.19.55.05,1.82-.72,1.68.1-.62.06-1.91.72-1.68Z"/>
      <path class="cls-22" d="M130.69,148c-.87.19-.48-1.02-.48-1.44.66.22.45.9.48,1.44Z"/>
      <path class="cls-22" d="M129.73,141.77c-.59.31-.92-1.38-.48-1.68.34.41.47,1.16.48,1.68Z"/>
      <path class="cls-7" d="M86.34,116.34c-.23.39-1.2.39-1.44,0,.8-.07.81-.01,1.44,0Z"/>
      <path class="cls-24" d="M108.64,18.71c.2.85-.9.35-1.44.48-.2-.84.89-.37,1.44-.48Z"/>
      <path class="cls-17" d="M54.93,10.31c-.04.51-.08,1.07-.48,1.44,0-.22-.52-1.57.48-1.44Z"/>
      <path class="cls-22" d="M135.01,95.23c-.06-.76,0-.93,0-1.44.39.23.39,1.2,0,1.44Z"/>
      <path class="cls-22" d="M135.73,82.52c-1.05.25-.27-1.19-.24-1.44.38.25.26,1,.24,1.44Z"/>
      <path class="cls-22" d="M135.97,84.91c-1.05.25-.27-1.19-.24-1.44.4.26.23.99.24,1.44Z"/>
      <path class="cls-16" d="M64.76,112.74c-.47-.2-1.31-.32-1.2-.96.5.22,1.21.14,1.2.96Z"/>
      <path class="cls-22" d="M133.09,104.58c-.03.41-.2,1.11-.48,1.44.01-.18-.53-1.58.48-1.44Z"/>
      <path class="cls-16" d="M142.44,54.69c-.03.41-.2,1.11-.48,1.44.01-.18-.53-1.58.48-1.44Z"/>
      <path class="cls-22" d="M128.78,137.45c-1.06.1-.47-1.06-.48-1.2.44.28.45.73.48,1.2Z"/>
      <path class="cls-17" d="M53.5,19.91c-.38-.16-.38-1.04,0-1.2.02.54.13.34,0,1.2Z"/>
      <path class="cls-16" d="M142.92,51.57c0,.39.14,1-.24,1.2-.1-.28-.73-1.42.24-1.2Z"/>
      <path class="cls-16" d="M141.96,56.61c-.02.39-.18.92-.48,1.2,0-.17-.58-1.29.48-1.2Z"/>
      <path class="cls-22" d="M131.65,110.58c-.04.41-.17.91-.48,1.2,0-.2-.58-1.28.48-1.2Z"/>
      <path class="cls-16" d="M63.32,111.78c-.54-.19-.91-.21-.96-.96.36.22.97.13.96.96Z"/>
      <path class="cls-22" d="M130.21,116.1c-.03.47-.03.92-.48,1.2-.05-.14-.37-1.38.48-1.2Z"/>
      <path class="cls-16" d="M65.72,5.28c-.66-.52-.38-.06-.96-.96.56.03.93.39.96.96Z"/>
      <path class="cls-17" d="M55.89,6.96c-.11.41.03.92-.48,1.2.02-.25-.44-1.37.48-1.2Z"/>
      <path class="cls-17" d="M55.41,8.63c-.03.47-.03.92-.48,1.2.02-.26-.44-1.37.48-1.2Z"/>
      <path class="cls-22" d="M129.73,118.02c-.03.47-.03.92-.48,1.2-.05-.1-.37-1.39.48-1.2Z"/>
      <path class="cls-22" d="M127.34,126.41c-.12.54-.11,1.39-.72,1.2.16-.46.05-1.33.72-1.2Z"/>
      <path class="cls-22" d="M129.26,139.37c-.95.11-.47-.75-.48-.96.51.15.45.52.48.96Z"/>
      <path class="cls-22" d="M131.17,112.5c-.03.4-.17.91-.48,1.2-.05-.11-.37-1.39.48-1.2Z"/>
      <path class="cls-22" d="M132.13,108.42c-.04.4-.17.91-.48,1.2-.05-.14-.37-1.38.48-1.2Z"/>
      <path class="cls-24" d="M137.41,11.03c.15.58-.47.64-.96.72-.01-.84.49-.6.96-.72Z"/>
      <path class="cls-16" d="M138.85,64.05c-.17.55-.06,1.38-.72,1.2.09-.52.14-1.4.72-1.2Z"/>
      <path class="cls-22" d="M132.61,106.5c-.02.39-.18.92-.48,1.2-.05-.12-.37-1.38.48-1.2Z"/>
      <path class="cls-16" d="M139.8,23.75c-.09.42-.13.89-.48,1.2-.05-.13-.37-1.38.48-1.2Z"/>
      <path class="cls-7" d="M79.63,116.58c-.44.01-.33.06-.96,0,.08-.36.86-.37.96,0Z"/>
      <path class="cls-7" d="M80.11,116.58c.48.03,1.13-.22.96.48-.48-.03-1.13.22-.96-.48Z"/>
      <path class="cls-1" d="M147.96,15.35c-.2.4-.01,1.13-.72.96.06-.48.15-1.12.72-.96Z"/>
      <path class="cls-24" d="M109.84,17.99c-.08.36-.86.37-.96,0,.3,0,.69,0,.96,0Z"/>
      <path class="cls-24" d="M113.43,18.23c.23.83-.58.24-.96.24.2-.03.48-.19.96-.24Z"/>
      <path class="cls-22" d="M128.3,123.53c-.07.49-.15,1.11-.72.96.1-.49.12-1.11.72-.96Z"/>
      <path class="cls-24" d="M110.79,18.71c-.58.05-.66,0-.96,0,.08-.36.86-.37.96,0Z"/>
      <path class="cls-17" d="M52.78,22.31c-.89.21-.38-.73-.24-.96.35.16.24.65.24.96Z"/>
      <path class="cls-16" d="M139.56,27.1c-.89.21-.38-.73-.24-.96.33.15.27.66.24.96Z"/>
      <path class="cls-16" d="M140.28,31.18c-.89.2-.38-.72-.24-.96.33.15.27.66.24.96Z"/>
      <path class="cls-16" d="M141.48,58.29c-.03.46-.19,1.13-.72.96.11-.49.12-1.11.72-.96Z"/>
      <path class="cls-16" d="M54.21,60.69c.62-.15.6.47.72.96-.64.15-.58-.47-.72-.96Z"/>
      <path class="cls-16" d="M54.93,62.13c.64-.15.58.48.72.96-.62.15-.6-.47-.72-.96Z"/>
      <path class="cls-16" d="M139.8,62.37c-.18.46-.04,1.11-.72.96.17-.47.06-1.11.72-.96Z"/>
      <path class="cls-16" d="M53.97,63.09c.7-.18.52.57.72.96-.65.15-.57-.48-.72-.96Z"/>
      <path class="cls-24" d="M111.51,17.51c.17.71-.48.44-.96.48-.17-.73.48-.42.96-.48Z"/>
      <path class="cls-22" d="M130.69,114.42c-.04.38-.13.74-.48.96.01-.19-.47-1.07.48-.96Z"/>
      <path class="cls-24" d="M79.39,115.62c.14-.02.56-.44.96-.24.22.65-.68.65-.96.24Z"/>
      <path class="cls-24" d="M81.79,115.86c-.08.36-.86.37-.96,0,.42,0,.44-.03.96,0Z"/>
      <path class="cls-7" d="M71.72,115.14c-.92-.14-.57-.56-.72-.72.48,0,.74.24.72.72Z"/>
      <path class="cls-17" d="M30.48,108.9c.11-.25.01-.62.48-.72,0,.12.66.57-.48.72Z"/>
      <path class="cls-16" d="M56.37,64.29c-.49.02-.74-.24-.72-.72.17.18.28-.22.72.72Z"/>
      <path class="cls-24" d="M15.14,179.43c-.04.25.09.6-.24.72-.2-.2-.52-.9.24-.72Z"/>
      <path class="cls-24" d="M14.9,182.06c-.01.26.07.6-.24.72-.2-.2-.52-.9.24-.72Z"/>
      <path class="cls-7" d="M83.7,116.1c.06,0,.38-.39.72-.24.18.56-.45.67-.72.24Z"/>
      <path class="cls-1" d="M153.47,7.44v-.96c.65.21.54.78,0,.96Z"/>
      <path class="cls-24" d="M77.95,115.38c.09-.01.37-.39.72-.24.18.55-.45.68-.72.24Z"/>
      <path class="cls-17" d="M53.5,20.63c.13.15.54-.44.48.72-.6.16-.47-.31-.48-.72Z"/>
      <path class="cls-14" d="M80.35,119.7c-.08.28,0,.9-.48.72,0-.41-.09-.88.48-.72Z"/>
      <path class="cls-16" d="M57.33,87.31c0,.26.07.6-.24.72-.21-.22-.52-.89.24-.72Z"/>
      <path class="cls-16" d="M139.8,28.3c-.96.11-.28-.46-.24-.72.29.11.26.46.24.72Z"/>
      <path class="cls-17" d="M53.5,26.86c-.98.12-.25-.53-.24-.72.3.11.24.46.24.72Z"/>
      <path class="cls-17" d="M52.54,20.87c-.96.11-.27-.47-.24-.72.29.11.26.46.24.72Z"/>
      <path class="cls-24" d="M117.03,17.75c-.21.23.49.4-.72.48-.16-.6.31-.47.72-.48Z"/>
      <path class="cls-24" d="M119.91,17.27c.26.41-.8.92-.72,0,0,0,.72,0,.72,0Z"/>
      <path class="cls-24" d="M115.11,17.03c.16.6-.31.47-.72.48.19-.14-.53-.4.72-.48Z"/>
      <path class="cls-24" d="M117.99,16.79c-.12.31-.46.23-.72.24-.14-.98.59-.23.72-.24Z"/>
      <path class="cls-16" d="M56.85,65.24c.8-.15.35.35.48.72-.34-.1-.48-.37-.48-.72Z"/>
      <path class="cls-22" d="M46.3,128.57c.02.45.1.87-.48.72,0-.35.14-.62.48-.72Z"/>
      <path class="cls-16" d="M55.89,65.96c-.62.13-.47-.22-.48-.72l.48.72Z"/>
      <path class="cls-22" d="M48.94,124.97c0,.4.11.89-.48.72l.48-.72Z"/>
      <path class="cls-17" d="M51.58,121.38c.04.34.05.9-.48.72,0-.35.14-.62.48-.72Z"/>
      <path class="cls-16" d="M58.29,67.4c.55-.16.52.3.48.72-.34-.1-.48-.37-.48-.72Z"/>
      <path class="cls-11" d="M70.52,117.06c.43-.08.56.04.48.48-.87-.12-.31-.27-.48-.48Z"/>
      <path class="cls-1" d="M152.03,9.11c.19.77-.7.56-.48,0,.06-.06.39.05.48,0Z"/>
      <path class="cls-24" d="M142.44,9.35l-.48.24c-.08-.57.17-.59.48-.24Z"/>
      <path class="cls-24" d="M143.88,8.87l-.48.24c-.08-.55.17-.6.48-.24Z"/>
      <path class="cls-22" d="M129.02,120.66l-.24.48c-.32-.21-.33-.6.24-.48Z"/>
      <path class="cls-7" d="M73.87,115.38c.42-.06.54.06.48.48-.88-.29-.29-.27-.48-.48Z"/>
      <path class="cls-22" d="M133.33,103.39l-.24.48c-.32-.21-.33-.6.24-.48Z"/>
      <path class="cls-24" d="M120.38,16.31l-.48.24c-.11-.57.25-.55.48-.24Z"/>
      <path class="cls-16" d="M59.01,68.84c.2.16.41-.38.48.48-.46.08-.56-.02-.48-.48Z"/>
      <path class="cls-24" d="M126.38,15.83c.09.56-.18.61-.48.24l.48-.24Z"/>
      <path class="cls-24" d="M122.54,15.59c.06.43-.06.54-.48.48.15-.12-.41-.39.48-.48Z"/>
      <path class="cls-24" d="M75.55,114.9c.23-.31.59-.33.48.24l-.48-.24Z"/>
      <path class="cls-22" d="M126.86,131.93c.43-.06.54.06.48.48-.11-.16-.38.42-.48-.48Z"/>
      <path class="cls-16" d="M56.37,64.53c.47-.03.53-.03.48.48-.43.06-.54-.06-.48-.48Z"/>
      <path class="cls-24" d="M76.75,115.14c.21-.32.6-.33.48.24l-.48-.24Z"/>
      <path class="cls-22" d="M127.34,133.61c.43-.06.54.06.48.48-.17-.16-.39.4-.48-.48Z"/>
      <path class="cls-22" d="M128.06,135.05c-.57.12-.56-.28-.24-.48l.24.48Z"/>
      <path class="cls-17" d="M30.96,107.22c-.38-.09-.11-.28,0-.48,0,.13,0,.36,0,.48Z"/>
      <path class="cls-16" d="M140.76,60.21c.06.42-.05.54-.48.48-.06-.42.04-.54.48-.48Z"/>
      <path class="cls-16" d="M142.68,53.49l-.24.48c-.32-.21-.33-.6.24-.48Z"/>
      <path class="cls-16" d="M66.44,115.14c.45-.08.56.02.48.48-.91-.23-.29-.29-.48-.48Z"/>
      <path class="cls-7" d="M73.39,115.38c-.2.33-.6.33-.48-.24l.48.24Z"/>
      <path class="cls-16" d="M140.04,29.26c-.57.12-.56-.28-.24-.48l.24.48Z"/>
      <path class="cls-24" d="M128.06,15.35c.11.57-.25.55-.48.24l.48-.24Z"/>
      <path class="cls-24" d="M124.7,15.11c.06.43-.06.54-.48.48.16-.12-.43-.36.48-.48Z"/>
      <path class="cls-16" d="M140.28,22.79c.07.43-.04.57-.48.48.15-.87.25-.3.48-.48Z"/>
      <path class="cls-16" d="M141.24,21.11c.06.42-.06.54-.48.48.2-.92.33-.3.48-.48Z"/>
      <path class="cls-22" d="M128.78,121.86c.06.42-.05.54-.48.48-.06-.44.05-.54.48-.48Z"/>
      <path class="cls-7" d="M76.27,116.1c.08.38-.48.07-.48,0,.11-.34.28-.13.48,0Z"/>
      <path class="cls-24" d="M114.87,18.23c-.04.12-.38.22-.48,0,.09-.38.28-.11.48,0Z"/>
      <path class="cls-16" d="M68.36,116.1c.41-.06.53.07.48.48-.92-.24-.29-.33-.48-.48Z"/>
      <path class="cls-24" d="M117.99,17.51c.12.57-.28.56-.48.24l.48-.24Z"/>
      <path class="cls-24" d="M127.34,14.39c.06.42-.06.54-.48.48.17-.14-.43-.32.48-.48Z"/>
      <path class="cls-24" d="M129.73,13.67c.06.42-.06.54-.48.48.19-.15-.45-.28.48-.48Z"/>
      <path class="cls-24" d="M135.49,11.75c.06.42-.06.54-.48.48.16-.15-.41-.38.48-.48Z"/>
      <path class="cls-24" d="M140.76,9.83c.06.43-.06.54-.48.48.17-.13-.43-.33.48-.48Z"/>
      <path class="cls-24" d="M125.18,16.07c.11.57-.23.55-.48.24l.48-.24Z"/>
      <path class="cls-6" d="M38.87,135.53c.11-.11.38.22.12.24-.08,0-.17-.19-.12-.24Z"/>
      <path class="cls-26" d="M154.91,111.54c16-5.41,10.97-19.75,21.02,6.43,3.19,4.41,3.91,12.61,7.03,17.8-.86,1.27.74,2.37.96,3.12-.01.31-.79,1.09.48,1.2.27.63-1.01,1.46.48,1.68-1,1.27.22,1.48.48,2.4-1.42.8.99,1.38.48,2.4,0,.33-.69,1.72.48,1.68,0,.56-1.04,1.66.24,1.68-.76,2.18.75.88,0,2.29,1.3,7.29,3.24,18.59,5.74,26.01.17,3.16.75,6.09,1.92,8.88,0,.26-.64,1.5.48,1.44.15,1.16-.48,3.37.96,3.84-.24,1.34,0,2.03.48,3.12-.64.81.51,1.37.48,2.16-.86,1.88,1.18,1.25,0,2.74,1.87.88.13,1.89,1.44,3.25-1.31,1.56,2.98,2.51-2.16,3.12-.85-1.53-4.27-1.39-5.75-1.44-1.66-2.65-8.15.64-10.07,2.4-3.45-10.64,10.37-6.01,9.35-10.31,1.17.93,1.3-.84.3-1.17-1.51.86-1.48-.82-2.93-.74.22.66-.65.48-.96.48-.13-.09.18-.8-1.09-.74-1.73,1.37-4.2-1.37-4.91.26-.57-.02-1.45.11-1.92,0-.27-1.96-1.36-1.43-2.64-.72.15-4.25-1.27-10.36-3.12-13.43-.45-6.97-4.37-14.07-7.19-19.19-2.72-8.36-7.14-17.25-10.96-26.34-1.64-2.24-2.13-6.19-3.67-8.68.14-.64-.26-.97-.48-1.44,0-.34.69-1.72-.48-1.68-.29-.73.94-2.23-.48-2.4-.24-.83.65-1.33-.04-2.36-1.18-.11.16-1.41-.23-2.28-1.89-.78.87-3.65-1.16-4.71-.28-1.77.7-3.35-.48-4.8,2.83.32,4.85,5.66,7.91,4.08Z"/>
      <path class="cls-26" d="M168.09,100.51c2.81,3.57,5.04,8.37,6.71,13.19-3.72-3.59-4.13-16.63-10.44-7.92-2.73,1.61-7.36,6.84-9.46,5.76,3.72-.94,7.38-4.95,10.07-7.56-3.27.64-6.41,5.55-10.07,6.35,4.14-3.1,8.68-6.96,13.19-9.83Z"/>
      <path class="cls-26" d="M191.83,175.35c-2.46-4.92-3.33-12.21-4.08-17.99,1.16,5.55,3.15,12.55,4.08,17.99Z"/>
      <path class="cls-26" d="M182.96,135.53c-2.27-3.53-3.65-9.33-4.8-13.43,1.26,3.17,4.56,10.33,4.8,13.43Z"/>
      <path class="cls-26" d="M185.12,205.33c.34-1.21,5.18-1.53,5.03.24-.31-.12-1.18.3-.96-.48-.68.14-2.07.55-2.52,0-1-.12-.18.71-1.56.48v-.24Z"/>
      <path class="cls-26" d="M176.73,118.74c-1.5-.57-1.29-3.23-1.92-4.56,1.08,1.18,1.34,3.15,1.92,4.56Z"/>
      <path class="cls-26" d="M194.23,186.38c-.99-.18-1.51-3.22-.96-3.84.58,1.04.87,2.65.96,3.84Z"/>
      <path class="cls-26" d="M193.27,182.06c-1.3-.32-.77-2.79-.96-3.84.52.88.99,2.81.96,3.84Z"/>
      <path class="cls-26" d="M198.54,206.05c.72,1.38-1.42,1.64-2.16.72.61-.06,1.55-.51,2.16-.72Z"/>
      <path class="cls-26" d="M195.67,192.38c-1.3-.29-.88-2.44-.96-3.36.4.82.88,2.44.96,3.36Z"/>
      <path class="cls-26" d="M183.92,138.41c-.99.02-1.45-1.96-.96-2.64.45.64.93,1.87.96,2.64Z"/>
      <path class="cls-26" d="M195.9,206.77c-.79-.03-2.13-.6-2.88-.96.37-.63,3.02.31,2.88.96Z"/>
      <path class="cls-26" d="M187.27,154.24c-.66.17-.85-1.97-.48-2.4.58.66.37,1.66.48,2.4Z"/>
      <path class="cls-26" d="M187.75,156.88c-.71.1-1.38-1.7-.48-1.92.07.51.43,1.19.48,1.92Z"/>
      <path class="cls-26" d="M185.36,143.68c-.89-.07-1.24-1.13-.48-1.68.15.58.48.97.48,1.68Z"/>
      <path class="cls-26" d="M185.84,145.6c-.79.08-1.28-1.28-.48-1.44.39.37.45.94.48,1.44Z"/>
      <path class="cls-26" d="M198.54,205.09c-.79.08-1.28-1.28-.48-1.44.43.39.41.93.48,1.44Z"/>
      <path class="cls-26" d="M192.31,177.51c-1.17.04-.48-1.34-.48-1.68.45.43.48,1.1.48,1.68Z"/>
      <path class="cls-26" d="M197.1,199.34c-1.17.04-.48-1.35-.48-1.68.42.41.51,1.12.48,1.68Z"/>
      <path class="cls-26" d="M186.32,148.24c-1.17.04-.48-1.35-.48-1.68.41.44.38,1.13.48,1.68Z"/>
      <path class="cls-26" d="M194.71,188.54c-1.12.06-.48-1.17-.48-1.44.49.32.49.9.48,1.44Z"/>
      <path class="cls-26" d="M196.62,196.94c-1.12.06-.48-1.17-.48-1.44.51.32.47.92.48,1.44Z"/>
      <path class="cls-26" d="M191.11,205.33c.51-.09,1.45-.56,1.44.48-.49,0-1.08-.11-1.44-.48Z"/>
      <path class="cls-26" d="M198.06,203.17c-1.13.07-.47-1.2-.48-1.44.37.35.48.95.48,1.44Z"/>
      <path class="cls-26" d="M197.58,201.01c-.5-.28-1.49-.87-.48-1.2.3.28.45.8.48,1.2Z"/>
      <path class="cls-26" d="M196.14,194.78c-1.12.06-.48-1.17-.48-1.44.39.36.46.94.48,1.44Z"/>
      <path class="cls-26" d="M184.88,141.77c-1.27-.11-.49-.89-.48-1.2.52.27.37.8.48,1.2Z"/>
      <path class="cls-26" d="M177.68,120.66c-.65.1-1.16-1.12-.72-1.44.19.45.5.89.72,1.44Z"/>
      <path class="cls-26" d="M186.55,149.92c-.67.16-1-.98-.24-1.2.04.32.26.53.24,1.2Z"/>
      <path class="cls-26" d="M184.4,140.09c-1.27-.11-.49-.89-.48-1.2.3.28.46.81.48,1.2Z"/>
      <path class="cls-26" d="M186.79,151.36c-.89.2-.38-.73-.24-.96.33.15.27.66.24.96Z"/>
      <path class="cls-26" d="M154.19,7.91c3.58,4.39,4.35,9.79,5.04,14.39.71-.11.42.45.47.96-.73,1.63.97,2.19.26,3.5-.21,2.13,1.29,2.57.22,4.29,1.94.41-1.05,2.24.96,2.53-.15,2.35-.02,3.4.48,5.52-1.61,1.63.84,5.41,0,8.16-1.41,1.76.89,2.93.48,4.8-.98-.16-.98,2.32,0,2.16-.28,4.4.13,6.51.48,10.55-.19.14-.63,1.17.24.96.19.8-1.39,1.94.24,2.16.1,1.39-.17,9.36.96,9.12.39,1.32-1.08,4.3.48,4.8.52,1.2-1.16,3.14.48,3.6.12.92-.11,1.27-.23,2.25,1.78.49-.42,1.8,1.19,2.55.09.35-.23.22-.21.77-.15,1.78,3.05,3.19,2.41,4.59,2.63,4.05-1.08-.32-3.9,4.1-4.84,2.6-8.82,7.07-13.97,7.31-2.23-2.74-3.1,1.35-4.47-2.85.79-1.28,2.28-5.1.24-6.24-.3-.83.93-2.49-.48-2.64.74-1.93-.36-1.28-.48-2.64.12-.33,1.19-.71-.48-1.2-.07-.99.56-1.79-.48-2.4.02-.34.78-1.08-.48-1.2-.1-1,.61-1.18-.48-1.92.08-.66.73-1.69-.48-1.44-.17-1.11.5-3.39-.96-3.84.91-1.46-.25-2.96-.96-4.08.76-.95-.71-1.09-.48-2.4.71-.92-1.45-3.27-1.44-4.32-.08-3.75,3.07-6.47,4.04-9.79-.71-.93,1.68-1.43.04-1.97.1-.98,1.26-.15.96-1.68-.58.12-.5-.27-.48-.72,1.69-.08.11-2.87,1.65-4.26-1.61-2.42,1.04-7.23-.93-8.46.33-.67-.87-1.58.24-1.44.13-1.68-1.19-.75-.72-2.4.7-.97-.35-.8-.48-1.68.16-.65,1.2-1.24-.48-1.68,0-1.1.6-1.75-.48-2.4,1.09-1.04-.23-1.48-.72-2.16.6-2.09,1.22,0,.24-2.64.54.21,1.56-2.19.96-2.4.35-.89,1.75-3.48,2.21-4.51,2.64-.54,1.15-.65,2.1-2.45.22-.17.92,0,.72-.84-.94-.9,2.01-.85.72-2.28.07-.19.22-.41.24-.48.61.89,2.3-1.53,1.68-1.92.53-.82,1.78-1.36,1.68-2.64.63-.82,1.55-1.02,1.68-2.04-.48-.09.11-.76.48-1.08Z"/>
      <path class="cls-26" d="M153.95,110.34c-.16-.38-1.66-1.31-.95-1.79,5.13-2.09,10.39-4.9,14.26-9,1.54,1.7-10.82,9.64-13.31,10.79Z"/>
      <path class="cls-26" d="M168.81,97.87c-.17.42-.65,1.76-.72,2.16-4.37,1.3-9.53,7.27-15.1,8.52-.69.46.76,1.44.95,1.79-8.38-6.82-5.9-1.84,0,1.2-1.12,1.93-5.29-4.61-6.95-4.08-.33-.77-1.12-1.23-.96-2.16-.7.15-.7-.6-.72-1.2.68-.38,1.37,2.22,1.8,2.4,2.74-1.99,3.01,2.34,6.74-.45.31-.11.81-.54,1.05-.03-3.15,3.92,12.02-5.07,12.18-7.36-2.31-.06-7.71,5.77-11.46,6.88,2.17-1.61,11.27-9.45,13.19-7.68Z"/>
      <path class="cls-26" d="M158.74,17.51c-1.98-2.34-1.54-7.26-4.56-9.59,2.69-.26,4.12,7.24,4.56,9.59Z"/>
      <path class="cls-26" d="M167.85,94.03c-.91.23-2.61-3.09-1.92-3.6.71,1.15,1.31,2.4,1.92,3.6Z"/>
      <path class="cls-26" d="M161.62,39.1c.04.79-.02,1.6,0,2.4-.98.17-1.02-2.53,0-2.4Z"/>
      <path class="cls-26" d="M164.02,77c-.89.17-.93-2.12-.48-2.64.56.75.46,1.77.48,2.64Z"/>
      <path class="cls-26" d="M160.66,29.02c-.8.24-.93-2.18-.48-2.64.6.75.4,1.78.48,2.64Z"/>
      <path class="cls-26" d="M164.5,81.8c-.8.24-.93-2.18-.48-2.64.55.75.46,1.77.48,2.64Z"/>
      <path class="cls-26" d="M150.59,13.19c-.12-.88.68-1.76,1.44-2.16-.02.77-.6,2.02-1.44,2.16Z"/>
      <path class="cls-26" d="M161.86,49.65c-1,.04-.9-1.81-.24-2.4.02.6.2,1.58.24,2.4Z"/>
      <path class="cls-26" d="M153.47,8.87c.85.58-.81,1.33-1.2,1.92-.04-.9.72-1.25,1.2-1.92Z"/>
      <path class="cls-26" d="M162.1,52.05c.03.72-.03,1.44,0,2.16-.98.16-.98-2.32,0-2.16Z"/>
      <path class="cls-26" d="M169.05,97.39c.1-1.06-1.23-1.63-.72-2.16.35.43,1.9,1.88.72,2.16Z"/>
      <path class="cls-26" d="M163.54,72.44c-.76.27-.89-1.96-.48-2.4.61.65.46,1.59.48,2.4Z"/>
      <path class="cls-26" d="M160.18,25.43c-1.08.13-.47-1.65-.48-2.16.56.58.47,1.43.48,2.16Z"/>
      <path class="cls-26" d="M164.98,85.39c-1.32-.1-.5-1.25-.48-1.68.69.24.47,1.08.48,1.68Z"/>
      <path class="cls-26" d="M162.58,62.13c-.8.15-1.03-1.45-.24-1.68.02.38.23.98.24,1.68Z"/>
      <path class="cls-26" d="M159.22,19.67c-1.17.04-.48-1.34-.48-1.68.46.43.46,1.1.48,1.68Z"/>
      <path class="cls-26" d="M161.14,33.58c-.91.02-1.02-1.12-.24-1.44.02.33.23.79.24,1.44Z"/>
      <path class="cls-26" d="M159.7,22.31c-.65.21-.82-1.57-.48-1.92.52.5.46,1.26.48,1.92Z"/>
      <path class="cls-26" d="M163.06,67.88c-.91.02-1.02-1.12-.24-1.44.05.43.22.76.24,1.44Z"/>
      <path class="cls-26" d="M160.9,31.42c-.67-.16-1.1-.91-.24-1.2.03.27.2.66.24,1.2Z"/>
      <path class="cls-26" d="M162.34,59.25c-.67.16-1-.98-.24-1.2,0,.16.22.66.24,1.2Z"/>
      <path class="cls-26" d="M165.46,88.03c-.65-.14-.93-.9-.48-1.2.45.28.44.73.48,1.2Z"/>
      <path class="cls-26" d="M165.94,90.19c-1.09-.44-.48-.91-.48-1.2.43.27.47.73.48,1.2Z"/>
      <path class="cls-26" d="M161.38,37.18c-.99.27-.31-1.08-.24-1.2.37.36.2.8.24,1.2Z"/>
      <path class="cls-1" d="M152.27,10.31c.12.54-.28.79-.72.96.25-.33.47-.64.72-.96Z"/>
      <path class="cls-26" d="M162.82,65.72c-.91.23-.38-.85-.24-.96.32.29.2.62.24.96Z"/>
      <path class="cls-21" d="M5.31,188.54c9.13,1.85-1.14,2.01-2.88,5.04-2.91-.24.14-6.45,2.88-5.04Z"/>
      <path class="cls-26" d="M159.46,149.92c-1.24-3.34-6.95-14.28-5.44-14.1,1.74,4.06,4.81,9.92,5.44,14.1Z"/>
      <path class="cls-26" d="M163.54,158.32c-1.49-2.47-2.16-5.21-3.84-7.68,2.52.45,3.36,5.86,3.84,7.68Z"/>
      <path class="cls-26" d="M150.35,127.61c1.38.67,1.31,3.37,1.92,4.8-.92-1.16-1.61-3.33-1.92-4.8Z"/>
      <path class="cls-26" d="M148.43,119.22c1.12-.13.56,1.5.48,1.68-.24-.62-1.25-1.29-.48-1.68Z"/>
      <path class="cls-26" d="M152.27,132.65c.64-.2,1.17,1.62.72,1.92-.27-.76-.48-.91-.72-1.92Z"/>
      <path class="cls-26" d="M165.94,164.07c-.55-.41-1.02-1.03-.96-1.92.87-.09.84,1.27.96,1.92Z"/>
      <path class="cls-26" d="M149.39,124.01c1.17-.04.48,1.33.48,1.68-.45-.43-.48-1.1-.48-1.68Z"/>
      <path class="cls-26" d="M148.91,121.62c1.17-.04.48,1.35.48,1.68-.45-.43-.48-1.1-.48-1.68Z"/>
      <path class="cls-26" d="M150.35,127.13c-.55-.17-.51-.71-.48-1.2.63.19.41.75.48,1.2Z"/>
      <path class="cls-26" d="M163.78,159.04c.5-.09.6.21.24.48l-.24-.48Z"/>
      <path class="cls-26" d="M166.9,166.47c2.79,3.61,4.97,9.48,5.04,14.15-1.7-4.86-3.14-9.47-5.04-14.15Z"/>
      <path class="cls-26" d="M174.81,190.22c-.95-1.91-2.01-5.8-2.4-7.68,1.77,1.45,2.07,5.4,2.4,7.68Z"/>
      <path class="cls-26" d="M177.92,195.5c-.42-.09-.99-.95-1.68-.72v.96c-2.74-.22,1.7-3.36,1.68-.24Z"/>
      <path class="cls-26" d="M175.29,191.66c-.33-.22-.45-.58-.48-.96,1.21.12.49.74.48.96Z"/>
      <path class="cls-26" d="M166.42,165.27c-.41-.12-.41-.37-.48-.72,1.13.09.47.66.48.72Z"/>
      <path class="cls-26" d="M172.17,181.34c.97-.12.26.5.24.72-.35-.13-.18-.51-.24-.72Z"/>
      <path class="cls-21" d="M10.1,199.34c.7-.1,5.08-.66,5.27-.48-.08,1.7.07,3.1-1.92,3.12-8.8,1.35-20.83-.07-3.36-2.64Z"/>
      <path class="cls-20" d="M15.14,197.66c-3.38,1.78-8.61,1.46-13.07,2.64-.3-1.77,10.6-2.84,13.07-2.64Z"/>
      <path class="cls-26" d="M146.04,97.87c1.39.11,1.4,6.02-.24,5.04.02-.46-.14-.85.48-.72,0,0,0-2.73,0-2.73-.7.09-.67-1.58-.24-1.59Z"/>
      <path class="cls-26" d="M147.96,115.38c-.58-.99-.87-1.72-.72-3.12,1.33.15,1.15,2.27.72,3.12Z"/>
      <path class="cls-26" d="M142.68,83.72c-.76-.21-.56-.81-.72-1.2-.37-3.97,1.01-.52.72,1.2Z"/>
      <path class="cls-10" d="M146.76,108.66c1.3.23.51,2.56.72,3.6-.69-.53-.34-2.58-.72-3.6Z"/>
      <path class="cls-10" d="M145.8,99.31c.9-.26.33,2.55.48,2.88-.98.09-.19-2.11-.48-2.88Z"/>
      <path class="cls-26" d="M148.43,118.26c-.32-.84-.91-.7-.72-1.68,1.04-.06,1.18,1.17.72,1.68Z"/>
      <path class="cls-10" d="M147.24,114.42c.87.02.69,1.46.72,2.16-.54-.12-.48-1.42-.72-2.16Z"/>
      <path class="cls-26" d="M145.56,95.23c1.09,0,.57,1.13.48,1.68-.34-.95-.91-.52-.48-1.68Z"/>
      <path class="cls-26" d="M147.48,109.38c-.29-.35-.14-.88-.72-.72-.02-1.92,1.37-.04.72.72Z"/>
      <path class="cls-26" d="M145.56,94.99c-.34-.42-.46-1.16-.48-1.68,1.27.12.56,1.13.48,1.68Z"/>
      <path class="cls-10" d="M147.72,117.54c.79-.12.71,1.12.72,1.68-.47,0-.5-1.04-.72-1.68Z"/>
      <path class="cls-26" d="M142.68,84.43c1.18-.43.77,1.65,0,1.44.31-.54,0-1.05,0-1.44Z"/>
      <path class="cls-26" d="M144.12,89.23c1.12-.06.48,1.17.48,1.44-.49-.32-.5-.9-.48-1.44Z"/>
      <path class="cls-26" d="M145.08,92.59c-.44-.28-.46-.73-.48-1.2,1.67.49.6.87.48,1.2Z"/>
      <path class="cls-10" d="M145.32,96.19c.79-.13.71,1.13.72,1.68-.41.07-.59-1.14-.72-1.68Z"/>
      <path class="cls-10" d="M146.04,106.26c.57-.12.64.99.96,1.2-.01,1.26-.75-.44-.96-1.2Z"/>
      <path class="cls-26" d="M144.12,88.99c-.3-.28-.45-.8-.48-1.2,1.26.12.5.86.48,1.2Z"/>
      <path class="cls-10" d="M146.04,103.15c-.42,1.91-.99.59-.24-.24l.24.24Z"/>
      <path class="cls-26" d="M143.64,87.07c-.34-.22-.45-.58-.48-.96,1.21.11.48.77.48.96Z"/>
      <path class="cls-10" d="M145.56,105.3c.44-.06.54.05.48.48-.69.12-.39-.19-.48-.48Z"/>
      <path class="cls-19" d="M183.44,196.94c.31.64,1.85-.72,1.68.48.94.18,1.59-.91,1.44.48-2.21-.13-6.25,2.21-8.15,2.88.46-3.37,1.12-5.05,5.03-3.84Z"/>
      <path class="cls-26" d="M189.43,198.14c-2.14,2.46-8.07,1.41-10.31,5.28,1.31-4.61,7.1-3.72,10.31-5.28Z"/>
      <path class="cls-16" d="M177.92,195.5c2.14.4,6.27-.83,7.43.72-3.33-.33-5.85-.07-9.11-.48-.29-1.76,1-.62,1.68-.24Z"/>
      <path class="cls-16" d="M179.12,202.93c-.37,1.09.66,2.37.24,3.12-.21-.81-1.83-3.04-.24-3.12Z"/>
      <path class="cls-26" d="M188.23,196.46c-.03.77-.87-.5-1.44-.48-.21-1.01,1.56-.27,1.44.48Z"/>
      <path class="cls-26" d="M185.84,195.98c.02.5-.68.24-.48-.24-.19-.04-1.15.06-1.2-.24.63-.62,1.91.06,1.68.48Z"/>
      <path class="cls-16" d="M181.52,207.73c-.34.75-2.1,1.95-1.44.48,0,0,1.44-.48,1.44-.48Z"/>
      <path class="cls-16" d="M178.4,200.77l.48.24c-.2,2.43-1.95-.13-.48-.24Z"/>
      <path class="cls-16" d="M189.19,196.46c.44.32.83.58.72,1.2-.65-.35-2.7-1.39-.72-1.2Z"/>
      <path class="cls-16" d="M186.79,195.98c2.73.69-.86.76-.96,0,.11.07.71-.06.96,0Z"/>
      <path class="cls-16" d="M186.79,198.86c-.43.37-1.13.43-1.68.48-.31-.59,1.38-.92,1.68-.48Z"/>
      <path class="cls-16" d="M179.84,206.53c.07.47.28.94.24,1.44-.64.3-1.07-1.75-.24-1.44Z"/>
      <path class="cls-16" d="M188.47,198.14c.16.65-.7.7-1.2.72-.21-.57.7-.65,1.2-.72Z"/>
      <path class="cls-16" d="M183.68,199.34c.13.73-.74.49-1.2.72-.19-.6.67-.61,1.2-.72Z"/>
      <path class="cls-16" d="M186.55,197.18c.64-.17.81.16.72.72-.66.11-.81-.08-.72-.72Z"/>
      <path class="cls-26" d="M179.84,206.53c-.6.16-.63-.41-.24-.72.24.05.66.52.24.72Z"/>
      <path class="cls-16" d="M184.16,196.94c-.21.57-.59.04-.72,0,.18-.55.64-.01.72,0Z"/>
      <path class="cls-16" d="M186.08,197.18s-.53.47-.96.24c-.16-.81.48-.28.96-.24Z"/>
      <path class="cls-26" d="M184.64,205.33c.24,1.08-.69.67-1.44.96-1.34.62-1.62,1.77-3.12,1.92.24-1.11,3.34-3.23,4.56-2.88Z"/>
      <path class="cls-16" d="M184.64,199.34c-.09.38-.28.11-.48,0,.34-.04.45,0,.48,0Z"/>
      <path class="cls-19" d="M188.47,206.53c.09.93,2.68.63,3.36.48,1.25,2.37,7.2-.21,7.19,2.88-4.55-2.17-12.88-.74-17.1,1.72-1,.7-2.2,2.92-2.32.44,1.26.72.61-1.83,1.68-2.4,2.19-1.37,4.59-3.21,7.19-3.12Z"/>
      <path class="cls-24" d="M8.9,189.26c1.45-.25.96.81,0,.72v-.72Z"/>
      <path class="cls-11" d="M3.63,192.62c.21.34-.87.88-1.2.96-.12-.66.74-.73,1.2-.96Z"/>
      <path class="cls-16" d="M5.31,188.54c.44-.07.54.05.48.48-.44.07-.54-.05-.48-.48Z"/>
      <path class="cls-11" d="M1.95,193.58c.12.77-.65.58-.48,0,.16,0,.32,0,.48,0Z"/>
      <path class="cls-11" d="M197.34,208.45c-1.7-.29-4.57-.09-5.51-1.44,1.53.01,3.91,1.17,5.51,1.44Z"/>
      <path class="cls-11" d="M191.35,207.01c-.51.7-2.03-.31-2.88,0-.06-1.05,2.17-.22,2.88,0Z"/>
      <path class="cls-11" d="M187.03,206.53c.07.88-1.72.44-2.4.96-.12-.81,1.73-.91,2.4-.96Z"/>
      <path class="cls-11" d="M182.72,208.45c-.09.72-.71,1.27-1.44,1.2.64-.84.73-.72,1.44-1.2Z"/>
      <path class="cls-16" d="M188.23,205.33c.38,0,1.19-.59.96.24-.31-.05-.91-.24-.96-.24Z"/>
      <path class="cls-16" d="M183.2,206.29c.08.56-.92,1.03-1.44,1.2.4-.43.57-.93,1.44-1.2Z"/>
      <path class="cls-16" d="M186.79,205.33c-.21.03-.91.53-.72-.24.21.01.7-.09.72.24Z"/>
      <path class="cls-16" d="M185.12,205.33c-.14.35.39.49-.48.72-.02-.44-.07-.83.48-.72Z"/>
      <path class="cls-26" d="M141.72,80.12c-.62-.69-1.55-4.59-.11-2.41.11.57,1.03,2.27.11,2.41Z"/>
      <path class="cls-26" d="M139.08,70.52c.08.48,1.93,3.23,1.2,3.6-.86-1.01-1.03-2.38-1.2-3.6Z"/>
      <path class="cls-26" d="M141.48,62.61c-.62,1.8-2.05,5.31-3.35,6,.58-2.55,2.26-3.98,3.35-6Z"/>
      <path class="cls-26" d="M140.52,75.56c.89-.21.37.74.24.96-.39-.18-.18-.67-.24-.96Z"/>
      <path class="cls-26" d="M138.85,69.8c-.3-.23-.4-.82,0-.96,0,.14,0,.91,0,.96Z"/>
      <path class="cls-25" d="M137.77,68.12c.16.08.16.16,0,.24v-.24Z"/>
      <path class="cls-25" d="M137.17,68.84c.11-.11.38.22.12.24-.08,0-.17-.19-.12-.24Z"/>
      <path class="cls-3" d="M169.77,102.67c-.82.01-.73-.58-.96-.96.83,0,.73.59.96.96Z"/>
      <path class="cls-16" d="M171.69,106.26c.41-.06.54.07.48.48-.21-.19-.19.4-.48-.48Z"/>
      <path class="cls-16" d="M55.65,98.35c-.09.32-.23.45-.24.48l-.24-.48h.48Z"/>
      <path class="cls-16" d="M57.09,92.59c.06.54-.47.61-.48,0,0,0,.48,0,.48,0Z"/>
      <path class="cls-16" d="M56.13,96.43c-.08.36-.23.45-.24.48l-.24-.48h.48Z"/>
      <path class="cls-16" d="M144.6,45.82c-.33.46.49,4.69-.48,4.8.31-1.33-.61-4.39.48-4.8Z"/>
      <path class="cls-26" d="M144.12,42.94c.77-.21,1.21,2.81.48,2.88-.57.23-1.08-.92-.24-.72,0-.41.12-.99-.48-.96.07-.35-.21-1.27.24-1.2Z"/>
      <path class="cls-16" d="M144.12,53.25c-.58,4.87-.79.12,0-1.92,0,.59,0,1.25,0,1.92Z"/>
      <path class="cls-26" d="M144.6,50.37c.97.61-.15,2.17-.48,2.88.2-.97-.51-2.47.48-2.88Z"/>
      <path class="cls-1" d="M141.72,31.66c1.44,4.62-.38,2.8-.24-.48.23.09.19.29.24.48Z"/>
      <path class="cls-16" d="M142.92,58.05c-.31.71-.15,2.87-1.2,2.88.45-.8.31-2.72,1.2-2.88Z"/>
      <path class="cls-26" d="M141.72,61.89c-.2-.94.82-1.34.96-2.4.57.37-.32,2.54-.96,2.4Z"/>
      <path class="cls-26" d="M141.72,29.02c.12.32,1.31,1.13-.24,1.44.08-.41-.71-1.64.24-1.44Z"/>
      <path class="cls-16" d="M141.72,61.41c0,.67-.43,2.18-1.2,2.16.45-.64.36-2.15,1.2-2.16Z"/>
      <path class="cls-1" d="M142.92,38.62c.92-.19.87,1.64.48,1.92-.07-.5-.39-1.23-.48-1.92Z"/>
      <path class="cls-26" d="M143.16,37.42c-.44-.02-.27-1.32-.48-1.68,1.68.44.64,1.03.48,1.68Z"/>
      <path class="cls-26" d="M143.4,56.37c1.23.03.13,1.29-.24,1.2-.22-.46.21-.98.24-1.2Z"/>
      <path class="cls-26" d="M143.64,40.3c.19-.22,1.58,1.22.24,1.2.2-.65-1.05-.47-.24-1.2Z"/>
      <path class="cls-26" d="M143.64,39.1c-.2-.6-.88-.3-.72-.96,1.04-.73,1.03.63.72.96Z"/>
      <path class="cls-1" d="M142.68,35.26c-.07.58.16,1.04.24,1.68-.94.27-.65-1.9-.24-1.68Z"/>
      <path class="cls-26" d="M142.68,35.26c-.47-.05-.21-1.23-.48-1.68,1.28.09.47,1.1.48,1.68Z"/>
      <path class="cls-16" d="M140.52,64.05c-.16.49-.36,1.32-.96,1.2.22-.5.13-1.21.96-1.2Z"/>
      <path class="cls-1" d="M143.4,41.02c.67-.2.62.66.24.96-.03-.2-.18-.53-.24-.96Z"/>
      <path class="cls-16" d="M144.12,42.94c-.36.1-.65-.98-.24-1.2.08.33.43.69.24,1.2Z"/>
      <path class="cls-16" d="M143.88,44.14c.6-.03.48.55.48.96-.74.17-.4-.48-.48-.96Z"/>
      <path class="cls-1" d="M143.16,37.42c0,.26.04.56-.24.72,0-.6-.15-.75.24-.72Z"/>
      <path class="cls-26" d="M60.81,108.9c.16.08.16.16,0,.24v-.24Z"/>
      <path class="cls-26" d="M146.52,19.91c.98,1.52-1.22,1.45-1.63,1.73-.69.48-.98,3.63-2.21,3.79.15-1.58,1.96-3.59,2.16-5.28.65.39,1.3.62,1.68-.24Z"/>
      <path class="cls-26" d="M141.72,28.54c.04-.63.53-1.92.96-2.4.6.21-.42,2.6-.96,2.4Z"/>
      <path class="cls-26" d="M147.96,17.51c-.15-.59.34-1.49.48-1.44.82,1.12-.07,1.11-.48,1.44Z"/>
      <path class="cls-26" d="M147,19.19c0-.42.35-1.12.72-.84.21.83-.5.66-.72.84Z"/>
      <path class="cls-25" d="M142.44,24.71c.06.42-.05.54-.48.48-.06-.42.05-.54.48-.48Z"/>
      <path class="cls-26" d="M148.67,15.59c1.14-.48.21-1.77,1.68-1.92.62.39-1.07,2.81-1.68,1.92Z"/>
      <path class="cls-1" d="M149.39,14.63c-.18.38-.13.77-.72.96.02-.64-.17-1.14.72-.96Z"/>
      <path class="cls-22" d="M154.91,110.34c3.66-.8,6.81-5.72,10.07-6.35-2.96,2.67-6.76,7.49-11.03,7.55-1.05-.1-6.75-4.29-5.15-5.04,1.74.78,3.72,4.31,6.11,3.84Z"/>
      <path class="cls-26" d="M189.19,196.46c.7-.99,1.98,1.43.72,1.2.11-.62-.28-.88-.72-1.2Z"/>
      <path class="cls-26" d="M179.84,195.5c-.18-.88,1.62-.88,1.44,0-.48,0-.96.02-1.44,0Z"/>
      <path class="cls-26" d="M179.6,205.57c-.32-.3-.42-.78-.48-1.2,1.23.13.53.79.48,1.2Z"/>
      <path class="cls-9" d="M155.63,105.54c3.73-1.1,9.19-6.95,11.46-6.88-.06,2.57-17.14,11.86-11.46,6.88Z"/>
      <path class="cls-26" d="M142.2,33.34c-.1-.46-.34-1.16-.48-1.68.94.12,1.18,1.04.48,1.68Z"/>
      <path class="cls-26" d="M143.64,55.65l.48-1.2c.45.3.17,1.06-.48,1.2Z"/>
      <path class="cls-26" d="M142.92,58.05c.94-.02.59,1.2-.24,1.2.04-.28.16-1,.24-1.2Z"/>
    </g>
  </g>
</svg>